%TF.GenerationSoftware,KiCad,Pcbnew,10.0.6*%
%TF.CreationDate,2026-09-03T23:49:03+01:00*%
%TF.ProjectId,VideoULA,56696465-6f55-44c4-912e-6b696361645f,03*%
%TF.SameCoordinates,Original*%
%TF.FileFunction,Paste,Top*%
%TF.FilePolarity,Positive*%
%FSLAX46Y46*%
G04 Gerber Fmt 4.6, Leading zero omitted, Abs format (unit mm)*
G04 Created by KiCad (PCBNEW 10.0.6) date 2026-09-03 23:49:03*
%MOMM*%
%LPD*%
G01*
G04 APERTURE LIST*
G04 Aperture macros list*
%AMRoundRect*
0 Rectangle with rounded corners*
0 $1 Rounding radius*
0 $2 $3 $4 $5 $6 $7 $8 $9 X,Y pos of 4 corners*
0 Add a 4 corners polygon primitive as box body*
4,1,4,$2,$3,$4,$5,$6,$7,$8,$9,$2,$3,0*
0 Add four circle primitives for the rounded corners*
1,1,$1+$1,$2,$3*
1,1,$1+$1,$4,$5*
1,1,$1+$1,$6,$7*
1,1,$1+$1,$8,$9*
0 Add four rect primitives between the rounded corners*
20,1,$1+$1,$2,$3,$4,$5,0*
20,1,$1+$1,$4,$5,$6,$7,0*
20,1,$1+$1,$6,$7,$8,$9,0*
20,1,$1+$1,$8,$9,$2,$3,0*%
G04 Aperture macros list end*
%ADD10RoundRect,0.225000X0.250000X-0.225000X0.250000X0.225000X-0.250000X0.225000X-0.250000X-0.225000X0*%
%ADD11RoundRect,0.225000X-0.225000X-0.250000X0.225000X-0.250000X0.225000X0.250000X-0.225000X0.250000X0*%
%ADD12R,0.500000X0.800000*%
%ADD13R,0.400000X0.800000*%
%ADD14RoundRect,0.202500X-0.402500X0.202500X-0.402500X-0.202500X0.402500X-0.202500X0.402500X0.202500X0*%
%ADD15RoundRect,0.062500X-0.350000X0.062500X-0.350000X-0.062500X0.350000X-0.062500X0.350000X0.062500X0*%
%ADD16RoundRect,0.062500X-0.062500X0.350000X-0.062500X-0.350000X0.062500X-0.350000X0.062500X0.350000X0*%
%ADD17RoundRect,0.225000X-0.250000X0.225000X-0.250000X-0.225000X0.250000X-0.225000X0.250000X0.225000X0*%
%ADD18RoundRect,0.200000X0.275000X-0.200000X0.275000X0.200000X-0.275000X0.200000X-0.275000X-0.200000X0*%
%ADD19RoundRect,0.250000X0.400000X0.350000X-0.400000X0.350000X-0.400000X-0.350000X0.400000X-0.350000X0*%
%ADD20R,0.800000X0.500000*%
%ADD21R,0.800000X0.400000*%
%ADD22RoundRect,0.137500X-0.600000X-0.137500X0.600000X-0.137500X0.600000X0.137500X-0.600000X0.137500X0*%
%ADD23RoundRect,0.137500X-0.137500X-0.600000X0.137500X-0.600000X0.137500X0.600000X-0.137500X0.600000X0*%
%ADD24RoundRect,0.150000X0.512500X0.150000X-0.512500X0.150000X-0.512500X-0.150000X0.512500X-0.150000X0*%
G04 APERTURE END LIST*
D10*
%TO.C,C9*%
X87912400Y-41714800D03*
X87912400Y-40164800D03*
%TD*%
D11*
%TO.C,C5*%
X85539200Y-47391400D03*
X87089200Y-47391400D03*
%TD*%
D10*
%TO.C,C7*%
X84612400Y-41714800D03*
X84612400Y-40164800D03*
%TD*%
D12*
%TO.C,RN2*%
X82872400Y-64215600D03*
D13*
X82072400Y-64215600D03*
X81272400Y-64215600D03*
D12*
X80472400Y-64215600D03*
X80472400Y-66015600D03*
D13*
X81272400Y-66015600D03*
X82072400Y-66015600D03*
D12*
X82872400Y-66015600D03*
%TD*%
D10*
%TO.C,C8*%
X86262400Y-41714800D03*
X86262400Y-40164800D03*
%TD*%
D14*
%TO.C,U3*%
X83164600Y-44749800D03*
D15*
X84602100Y-44499800D03*
D16*
X84164600Y-43562300D03*
X83664600Y-43562300D03*
X83164600Y-43562300D03*
X82664600Y-43562300D03*
X82164600Y-43562300D03*
D15*
X81727100Y-44499800D03*
X81727100Y-44999800D03*
D16*
X82164600Y-45937300D03*
X82664600Y-45937300D03*
X83164600Y-45937300D03*
X83664600Y-45937300D03*
X84164600Y-45937300D03*
D15*
X84602100Y-44999800D03*
%TD*%
D17*
%TO.C,C1*%
X84460000Y-64340600D03*
X84460000Y-65890600D03*
%TD*%
D18*
%TO.C,R2*%
X86611000Y-45727200D03*
X86611000Y-44077200D03*
%TD*%
D19*
%TO.C,X1*%
X82642732Y-40059348D03*
X80542732Y-40059348D03*
X80542732Y-41959348D03*
X82642732Y-41959348D03*
%TD*%
D20*
%TO.C,RN1*%
X91255732Y-42463348D03*
D21*
X91255732Y-41663348D03*
X91255732Y-40863348D03*
D20*
X91255732Y-40063348D03*
X89455732Y-40063348D03*
D21*
X89455732Y-40863348D03*
X89455732Y-41663348D03*
D20*
X89455732Y-42463348D03*
%TD*%
D18*
%TO.C,R1*%
X80057800Y-45930400D03*
X80057800Y-44280400D03*
%TD*%
D22*
%TO.C,U1*%
X79940500Y-52383000D03*
X79940500Y-53183000D03*
X79940500Y-53983000D03*
X79940500Y-54783000D03*
X79940500Y-55583000D03*
X79940500Y-56383000D03*
X79940500Y-57183000D03*
X79940500Y-57983000D03*
X79940500Y-58783000D03*
X79940500Y-59583000D03*
X79940500Y-60383000D03*
D23*
X81603000Y-62045500D03*
X82403000Y-62045500D03*
X83203000Y-62045500D03*
X84003000Y-62045500D03*
X84803000Y-62045500D03*
X85603000Y-62045500D03*
X86403000Y-62045500D03*
X87203000Y-62045500D03*
X88003000Y-62045500D03*
X88803000Y-62045500D03*
X89603000Y-62045500D03*
D22*
X91265500Y-60383000D03*
X91265500Y-59583000D03*
X91265500Y-58783000D03*
X91265500Y-57983000D03*
X91265500Y-57183000D03*
X91265500Y-56383000D03*
X91265500Y-55583000D03*
X91265500Y-54783000D03*
X91265500Y-53983000D03*
X91265500Y-53183000D03*
X91265500Y-52383000D03*
D23*
X89603000Y-50720500D03*
X88803000Y-50720500D03*
X88003000Y-50720500D03*
X87203000Y-50720500D03*
X86403000Y-50720500D03*
X85603000Y-50720500D03*
X84803000Y-50720500D03*
X84003000Y-50720500D03*
X83203000Y-50720500D03*
X82403000Y-50720500D03*
X81603000Y-50720500D03*
%TD*%
D11*
%TO.C,C6*%
X89519000Y-47391400D03*
X91069000Y-47391400D03*
%TD*%
D17*
%TO.C,C2*%
X91089732Y-62491348D03*
X91089732Y-64041348D03*
%TD*%
D24*
%TO.C,U2*%
X90999700Y-45826800D03*
X90999700Y-43926800D03*
X88724700Y-44876800D03*
%TD*%
D11*
%TO.C,C3*%
X89519000Y-48915400D03*
X91069000Y-48915400D03*
%TD*%
%TO.C,C10*%
X85539200Y-48915400D03*
X87089200Y-48915400D03*
%TD*%
M02*
