%TF.GenerationSoftware,KiCad,Pcbnew,10.0.6*%
%TF.CreationDate,2026-09-03T23:49:03+01:00*%
%TF.ProjectId,VideoULA,56696465-6f55-44c4-912e-6b696361645f,03*%
%TF.SameCoordinates,Original*%
%TF.FileFunction,Copper,L1,Top*%
%TF.FilePolarity,Positive*%
%FSLAX46Y46*%
G04 Gerber Fmt 4.6, Leading zero omitted, Abs format (unit mm)*
G04 Created by KiCad (PCBNEW 10.0.6) date 2026-09-03 23:49:03*
%MOMM*%
%LPD*%
G01*
G04 APERTURE LIST*
G04 Aperture macros list*
%AMRoundRect*
0 Rectangle with rounded corners*
0 $1 Rounding radius*
0 $2 $3 $4 $5 $6 $7 $8 $9 X,Y pos of 4 corners*
0 Add a 4 corners polygon primitive as box body*
4,1,4,$2,$3,$4,$5,$6,$7,$8,$9,$2,$3,0*
0 Add four circle primitives for the rounded corners*
1,1,$1+$1,$2,$3*
1,1,$1+$1,$4,$5*
1,1,$1+$1,$6,$7*
1,1,$1+$1,$8,$9*
0 Add four rect primitives between the rounded corners*
20,1,$1+$1,$2,$3,$4,$5,0*
20,1,$1+$1,$4,$5,$6,$7,0*
20,1,$1+$1,$6,$7,$8,$9,0*
20,1,$1+$1,$8,$9,$2,$3,0*%
G04 Aperture macros list end*
%TA.AperFunction,SMDPad,CuDef*%
%ADD10RoundRect,0.225000X0.250000X-0.225000X0.250000X0.225000X-0.250000X0.225000X-0.250000X-0.225000X0*%
%TD*%
%TA.AperFunction,SMDPad,CuDef*%
%ADD11RoundRect,0.225000X-0.225000X-0.250000X0.225000X-0.250000X0.225000X0.250000X-0.225000X0.250000X0*%
%TD*%
%TA.AperFunction,SMDPad,CuDef*%
%ADD12R,0.500000X0.800000*%
%TD*%
%TA.AperFunction,SMDPad,CuDef*%
%ADD13R,0.400000X0.800000*%
%TD*%
%TA.AperFunction,SMDPad,CuDef*%
%ADD14RoundRect,0.062500X-0.350000X0.062500X-0.350000X-0.062500X0.350000X-0.062500X0.350000X0.062500X0*%
%TD*%
%TA.AperFunction,SMDPad,CuDef*%
%ADD15RoundRect,0.062500X-0.062500X0.350000X-0.062500X-0.350000X0.062500X-0.350000X0.062500X0.350000X0*%
%TD*%
%TA.AperFunction,HeatsinkPad*%
%ADD16C,0.500000*%
%TD*%
%TA.AperFunction,HeatsinkPad*%
%ADD17R,1.500000X1.000000*%
%TD*%
%TA.AperFunction,SMDPad,CuDef*%
%ADD18RoundRect,0.225000X-0.250000X0.225000X-0.250000X-0.225000X0.250000X-0.225000X0.250000X0.225000X0*%
%TD*%
%TA.AperFunction,SMDPad,CuDef*%
%ADD19RoundRect,0.200000X0.275000X-0.200000X0.275000X0.200000X-0.275000X0.200000X-0.275000X-0.200000X0*%
%TD*%
%TA.AperFunction,SMDPad,CuDef*%
%ADD20RoundRect,0.250000X0.400000X0.350000X-0.400000X0.350000X-0.400000X-0.350000X0.400000X-0.350000X0*%
%TD*%
%TA.AperFunction,SMDPad,CuDef*%
%ADD21R,0.800000X0.500000*%
%TD*%
%TA.AperFunction,SMDPad,CuDef*%
%ADD22R,0.800000X0.400000*%
%TD*%
%TA.AperFunction,ComponentPad*%
%ADD23R,1.700000X1.700000*%
%TD*%
%TA.AperFunction,ComponentPad*%
%ADD24C,1.700000*%
%TD*%
%TA.AperFunction,SMDPad,CuDef*%
%ADD25RoundRect,0.137500X-0.600000X-0.137500X0.600000X-0.137500X0.600000X0.137500X-0.600000X0.137500X0*%
%TD*%
%TA.AperFunction,SMDPad,CuDef*%
%ADD26RoundRect,0.137500X-0.137500X-0.600000X0.137500X-0.600000X0.137500X0.600000X-0.137500X0.600000X0*%
%TD*%
%TA.AperFunction,ComponentPad*%
%ADD27RoundRect,0.250000X-0.550000X-0.550000X0.550000X-0.550000X0.550000X0.550000X-0.550000X0.550000X0*%
%TD*%
%TA.AperFunction,ComponentPad*%
%ADD28C,1.600000*%
%TD*%
%TA.AperFunction,SMDPad,CuDef*%
%ADD29RoundRect,0.150000X0.512500X0.150000X-0.512500X0.150000X-0.512500X-0.150000X0.512500X-0.150000X0*%
%TD*%
%TA.AperFunction,ViaPad*%
%ADD30C,0.800000*%
%TD*%
%TA.AperFunction,ViaPad*%
%ADD31C,0.600000*%
%TD*%
%TA.AperFunction,ViaPad*%
%ADD32C,0.500000*%
%TD*%
%TA.AperFunction,Conductor*%
%ADD33C,0.500000*%
%TD*%
%TA.AperFunction,Conductor*%
%ADD34C,0.400000*%
%TD*%
%TA.AperFunction,Conductor*%
%ADD35C,0.300000*%
%TD*%
%TA.AperFunction,Conductor*%
%ADD36C,0.250000*%
%TD*%
%TA.AperFunction,Conductor*%
%ADD37C,0.200000*%
%TD*%
G04 APERTURE END LIST*
D10*
%TO.P,C9,1*%
%TO.N,+3.3V*%
X87912400Y-41714800D03*
%TO.P,C9,2*%
%TO.N,GND*%
X87912400Y-40164800D03*
%TD*%
D11*
%TO.P,C5,1*%
%TO.N,+5V*%
X85539200Y-47391400D03*
%TO.P,C5,2*%
%TO.N,GND*%
X87089200Y-47391400D03*
%TD*%
D10*
%TO.P,C7,1*%
%TO.N,+3.3V*%
X84612400Y-41714800D03*
%TO.P,C7,2*%
%TO.N,GND*%
X84612400Y-40164800D03*
%TD*%
D12*
%TO.P,RN2,1,R1.1_1*%
%TO.N,+3.3V*%
X82872400Y-64215600D03*
D13*
%TO.P,RN2,2,R2.1_2*%
X82072400Y-64215600D03*
%TO.P,RN2,3,R3.1_3*%
X81272400Y-64215600D03*
D12*
%TO.P,RN2,4,R4.1_4*%
X80472400Y-64215600D03*
%TO.P,RN2,5,R4.2_5*%
%TO.N,/TCK*%
X80472400Y-66015600D03*
D13*
%TO.P,RN2,6,R3.2_6*%
%TO.N,unconnected-(RN2-R3.2-Pad6)*%
X81272400Y-66015600D03*
%TO.P,RN2,7,R2.2_7*%
%TO.N,/TMS*%
X82072400Y-66015600D03*
D12*
%TO.P,RN2,8,R1.2_8*%
%TO.N,/TDI*%
X82872400Y-66015600D03*
%TD*%
D10*
%TO.P,C8,1*%
%TO.N,+5V*%
X86262400Y-41714800D03*
%TO.P,C8,2*%
%TO.N,GND*%
X86262400Y-40164800D03*
%TD*%
D14*
%TO.P,U3,1*%
%TO.N,/CLK_8M*%
X84602100Y-44499800D03*
D15*
%TO.P,U3,2*%
%TO.N,/CLK_8M_BUF*%
X84164600Y-43562300D03*
%TO.P,U3,3*%
%TO.N,/CLK_CRTC*%
X83664600Y-43562300D03*
%TO.P,U3,4*%
%TO.N,/CLK_CRTC_BUF*%
X83164600Y-43562300D03*
%TO.P,U3,5*%
%TO.N,/CLK_16M_R*%
X82664600Y-43562300D03*
%TO.P,U3,6*%
%TO.N,/CLK_16M_BUF*%
X82164600Y-43562300D03*
D14*
%TO.P,U3,7,GND_7*%
%TO.N,GND*%
X81727100Y-44499800D03*
%TO.P,U3,8*%
%TO.N,/CLK_1M_BUF*%
X81727100Y-44999800D03*
D15*
%TO.P,U3,9*%
%TO.N,/CLK_1M*%
X82164600Y-45937300D03*
%TO.P,U3,10*%
%TO.N,/CLK_4M_BUF*%
X82664600Y-45937300D03*
%TO.P,U3,11*%
%TO.N,/CLK_4M*%
X83164600Y-45937300D03*
%TO.P,U3,12*%
%TO.N,/CLK_2M_BUF*%
X83664600Y-45937300D03*
%TO.P,U3,13*%
%TO.N,/CLK_2M*%
X84164600Y-45937300D03*
D14*
%TO.P,U3,14,VCC_14*%
%TO.N,+5V*%
X84602100Y-44999800D03*
D16*
%TO.P,U3,15,GND_15*%
%TO.N,unconnected-(U3G-GND-Pad15)*%
X83664600Y-44749800D03*
D17*
%TO.N,unconnected-(U3G-GND-Pad15)_3*%
X83164600Y-44749800D03*
D16*
%TO.N,unconnected-(U3G-GND-Pad15)_2*%
X82664600Y-44749800D03*
%TD*%
D18*
%TO.P,C1,1*%
%TO.N,+3.3V*%
X84460000Y-64340600D03*
%TO.P,C1,2*%
%TO.N,GND*%
X84460000Y-65890600D03*
%TD*%
D19*
%TO.P,R2,1*%
%TO.N,/SRAM_~{WE}*%
X86611000Y-45727200D03*
%TO.P,R2,2*%
%TO.N,/CLK_SEL*%
X86611000Y-44077200D03*
%TD*%
D20*
%TO.P,X1,1,E/B_1*%
%TO.N,unconnected-(X1-E{slash}B-Pad1)*%
X82642732Y-40059348D03*
%TO.P,X1,2,GND_2*%
%TO.N,GND*%
X80542732Y-40059348D03*
%TO.P,X1,3,OUT_3*%
%TO.N,/CLK_48M*%
X80542732Y-41959348D03*
%TO.P,X1,4,V+_4*%
%TO.N,+3.3V*%
X82642732Y-41959348D03*
%TD*%
D21*
%TO.P,RN1,1,R1.1_1*%
%TO.N,GND*%
X91255732Y-42463348D03*
D22*
%TO.P,RN1,2,R2.1_2*%
X91255732Y-41663348D03*
%TO.P,RN1,3,R3.1_3*%
X91255732Y-40863348D03*
D21*
%TO.P,RN1,4,R4.1_4*%
X91255732Y-40063348D03*
%TO.P,RN1,5,R4.2_5*%
%TO.N,/SRAM_Q0*%
X89455732Y-40063348D03*
D22*
%TO.P,RN1,6,R3.2_6*%
%TO.N,/SRAM_Q1*%
X89455732Y-40863348D03*
%TO.P,RN1,7,R2.2_7*%
%TO.N,/SRAM_Q2*%
X89455732Y-41663348D03*
D21*
%TO.P,RN1,8,R1.2_8*%
%TO.N,/SRAM_Q3*%
X89455732Y-42463348D03*
%TD*%
D23*
%TO.P,J1,1,Pin_1_1*%
%TO.N,/TCK*%
X80523000Y-71623000D03*
D24*
%TO.P,J1,2,Pin_2_2*%
%TO.N,GND*%
X80523000Y-69083000D03*
%TO.P,J1,3,Pin_3_3*%
%TO.N,/TDO*%
X83063000Y-71623000D03*
%TO.P,J1,4,Pin_4_4*%
%TO.N,+3.3V*%
X83063000Y-69083000D03*
%TO.P,J1,5,Pin_5_5*%
%TO.N,/TMS*%
X85603000Y-71623000D03*
%TO.P,J1,6,Pin_6_6*%
%TO.N,unconnected-(J1-Pin_6-Pad6)*%
X85603000Y-69083000D03*
%TO.P,J1,7,Pin_7_7*%
%TO.N,unconnected-(J1-Pin_7-Pad7)*%
X88143000Y-71623000D03*
%TO.P,J1,8,Pin_8_8*%
%TO.N,unconnected-(J1-Pin_8-Pad8)*%
X88143000Y-69083000D03*
%TO.P,J1,9,Pin_9_9*%
%TO.N,/TDI*%
X90683000Y-71623000D03*
%TO.P,J1,10,Pin_10_10*%
%TO.N,GND*%
X90683000Y-69083000D03*
%TD*%
D19*
%TO.P,R1,1*%
%TO.N,/CLK_16M*%
X80057800Y-45930400D03*
%TO.P,R1,2*%
%TO.N,/CLK_16M_R*%
X80057800Y-44280400D03*
%TD*%
D25*
%TO.P,U1,1,I/O/GCK3_1*%
%TO.N,/~{CS}*%
X79940500Y-52383000D03*
%TO.P,U1,2,P2_2*%
%TO.N,/A*%
X79940500Y-53183000D03*
%TO.P,U1,3,P3_3*%
%TO.N,/CLK_6M*%
X79940500Y-53983000D03*
%TO.P,U1,4,GND_4*%
%TO.N,GND*%
X79940500Y-54783000D03*
%TO.P,U1,5,P5_5*%
%TO.N,/SRAM_A2*%
X79940500Y-55583000D03*
%TO.P,U1,6,P6_6*%
%TO.N,/SRAM_A1*%
X79940500Y-56383000D03*
%TO.P,U1,7,P7_7*%
%TO.N,/SRAM_A0*%
X79940500Y-57183000D03*
%TO.P,U1,8,P8_8*%
%TO.N,/B_IN*%
X79940500Y-57983000D03*
%TO.P,U1,9,TDI_9*%
%TO.N,/TDI*%
X79940500Y-58783000D03*
%TO.P,U1,10,TMS_10*%
%TO.N,/TMS*%
X79940500Y-59583000D03*
%TO.P,U1,11,TCK_11*%
%TO.N,/TCK*%
X79940500Y-60383000D03*
D26*
%TO.P,U1,12,P12_12*%
%TO.N,/B*%
X81603000Y-62045500D03*
%TO.P,U1,13,P13_13*%
%TO.N,/G_IN*%
X82403000Y-62045500D03*
%TO.P,U1,14,P14_14*%
%TO.N,/G*%
X83203000Y-62045500D03*
%TO.P,U1,15,VCC_15*%
%TO.N,+3.3V*%
X84003000Y-62045500D03*
%TO.P,U1,16,P16_16*%
%TO.N,/SRAM_A3*%
X84803000Y-62045500D03*
%TO.P,U1,17,GND_17*%
%TO.N,GND*%
X85603000Y-62045500D03*
%TO.P,U1,18,P18_18*%
%TO.N,/R_IN*%
X86403000Y-62045500D03*
%TO.P,U1,19,P19_19*%
%TO.N,/R*%
X87203000Y-62045500D03*
%TO.P,U1,20,P20_20*%
%TO.N,/D0*%
X88003000Y-62045500D03*
%TO.P,U1,21,P21_21*%
%TO.N,/D1*%
X88803000Y-62045500D03*
%TO.P,U1,22,P22_22*%
%TO.N,/D2*%
X89603000Y-62045500D03*
D25*
%TO.P,U1,23,P23_23*%
%TO.N,/D3*%
X91265500Y-60383000D03*
%TO.P,U1,24,TDO_24*%
%TO.N,/TDO*%
X91265500Y-59583000D03*
%TO.P,U1,25,GND_25*%
%TO.N,GND*%
X91265500Y-58783000D03*
%TO.P,U1,26,VCCIO_26*%
%TO.N,+3.3V*%
X91265500Y-57983000D03*
%TO.P,U1,27,P27_27*%
%TO.N,/D4*%
X91265500Y-57183000D03*
%TO.P,U1,28,P28_28*%
%TO.N,/D5*%
X91265500Y-56383000D03*
%TO.P,U1,29,P29_29*%
%TO.N,/SRAM_D0*%
X91265500Y-55583000D03*
%TO.P,U1,30,P30_30*%
%TO.N,/DISEN*%
X91265500Y-54783000D03*
%TO.P,U1,31,P31_31*%
%TO.N,/CURSOR*%
X91265500Y-53983000D03*
%TO.P,U1,32,P32_32*%
%TO.N,/D6*%
X91265500Y-53183000D03*
%TO.P,U1,33,I/O/GSR_33*%
%TO.N,/D7*%
X91265500Y-52383000D03*
D26*
%TO.P,U1,34,I/O/GTS2_34*%
%TO.N,/SRAM_D1*%
X89603000Y-50720500D03*
%TO.P,U1,35,VCC_35*%
%TO.N,+3.3V*%
X88803000Y-50720500D03*
%TO.P,U1,36,I/O/GTS1_36*%
%TO.N,/CLK_CRTC*%
X88003000Y-50720500D03*
%TO.P,U1,37,P37_37*%
%TO.N,/SRAM_D2*%
X87203000Y-50720500D03*
%TO.P,U1,38,P38_38*%
%TO.N,/SRAM_D3*%
X86403000Y-50720500D03*
%TO.P,U1,39,P39_39*%
%TO.N,/SRAM_~{WE}*%
X85603000Y-50720500D03*
%TO.P,U1,40,P40_40*%
%TO.N,/CLK_8M*%
X84803000Y-50720500D03*
%TO.P,U1,41,P41_41*%
%TO.N,/CLK_2M*%
X84003000Y-50720500D03*
%TO.P,U1,42,P42_42*%
%TO.N,/CLK_4M*%
X83203000Y-50720500D03*
%TO.P,U1,43,I/O/GCK1_43*%
%TO.N,/CLK_1M*%
X82403000Y-50720500D03*
%TO.P,U1,44,I/O/GCK2_44*%
%TO.N,/CLK_IN*%
X81603000Y-50720500D03*
%TD*%
D11*
%TO.P,C6,1*%
%TO.N,+3.3V*%
X89519000Y-47391400D03*
%TO.P,C6,2*%
%TO.N,GND*%
X91069000Y-47391400D03*
%TD*%
D18*
%TO.P,C2,1*%
%TO.N,+3.3V*%
X91089732Y-62491348D03*
%TO.P,C2,2*%
%TO.N,GND*%
X91089732Y-64041348D03*
%TD*%
D27*
%TO.P,IC6,1,GND_1*%
%TO.N,GND*%
X77983000Y-39873000D03*
D28*
%TO.P,IC6,2,A0_2*%
%TO.N,/A*%
X77983000Y-42413000D03*
%TO.P,IC6,3,CS_3*%
%TO.N,/~{CS}*%
X77983000Y-44953000D03*
%TO.P,IC6,4,1MHz_CLK_4*%
%TO.N,/CLK_1M_BUF*%
X77983000Y-47493000D03*
%TO.P,IC6,5,2MHz_CLK_5*%
%TO.N,/CLK_2M_BUF*%
X77983000Y-50033000D03*
%TO.P,IC6,6,4MHz_CLK_6*%
%TO.N,/CLK_4M_BUF*%
X77983000Y-52573000D03*
%TO.P,IC6,7,8MHz_CLK_7*%
%TO.N,/CLK_8M_BUF*%
X77983000Y-55113000D03*
%TO.P,IC6,8,16MHz_CLK_8*%
%TO.N,/CLK_16M*%
X77983000Y-57653000D03*
%TO.P,IC6,9,B_IN_9*%
%TO.N,/B_IN*%
X77983000Y-60193000D03*
%TO.P,IC6,10,B_10*%
%TO.N,/B*%
X77983000Y-62733000D03*
%TO.P,IC6,11,G_IN_11*%
%TO.N,/G_IN*%
X77983000Y-65273000D03*
%TO.P,IC6,12,G_12*%
%TO.N,/G*%
X77983000Y-67813000D03*
%TO.P,IC6,13,R_IN_13*%
%TO.N,/R_IN*%
X77983000Y-70353000D03*
%TO.P,IC6,14,R_14*%
%TO.N,/R*%
X77983000Y-72893000D03*
%TO.P,IC6,15*%
%TO.N,unconnected-(IC6-Pad15)*%
X93223000Y-72893000D03*
%TO.P,IC6,16,VCC_16*%
%TO.N,+5V*%
X93223000Y-70353000D03*
%TO.P,IC6,17,D0_17*%
%TO.N,/D0*%
X93223000Y-67813000D03*
%TO.P,IC6,18,D1_18*%
%TO.N,/D1*%
X93223000Y-65273000D03*
%TO.P,IC6,19,D2_19*%
%TO.N,/D2*%
X93223000Y-62733000D03*
%TO.P,IC6,20,D3_20*%
%TO.N,/D3*%
X93223000Y-60193000D03*
%TO.P,IC6,21,D4_21*%
%TO.N,/D4*%
X93223000Y-57653000D03*
%TO.P,IC6,22,D5_22*%
%TO.N,/D5*%
X93223000Y-55113000D03*
%TO.P,IC6,23,D6_23*%
%TO.N,/D6*%
X93223000Y-52573000D03*
%TO.P,IC6,24,D7_24*%
%TO.N,/D7*%
X93223000Y-50033000D03*
%TO.P,IC6,25,CURSOR_25*%
%TO.N,/CURSOR*%
X93223000Y-47493000D03*
%TO.P,IC6,26,DISEN_26*%
%TO.N,/DISEN*%
X93223000Y-44953000D03*
%TO.P,IC6,27*%
%TO.N,unconnected-(IC6-Pad27)*%
X93223000Y-42413000D03*
%TO.P,IC6,28,CRTC_CLK_28*%
%TO.N,/CLK_CRTC_BUF*%
X93223000Y-39873000D03*
%TD*%
D29*
%TO.P,U2,1,GND_1*%
%TO.N,GND*%
X90999700Y-45826800D03*
%TO.P,U2,2,VO_2*%
%TO.N,+3.3V*%
X90999700Y-43926800D03*
%TO.P,U2,3,VI_3*%
%TO.N,+5V*%
X88724700Y-44876800D03*
%TD*%
D11*
%TO.P,C3,1*%
%TO.N,+3.3V*%
X89519000Y-48915400D03*
%TO.P,C3,2*%
%TO.N,GND*%
X91069000Y-48915400D03*
%TD*%
%TO.P,C10,1*%
%TO.N,+5V*%
X85539200Y-48915400D03*
%TO.P,C10,2*%
%TO.N,GND*%
X87089200Y-48915400D03*
%TD*%
D23*
%TO.P,J2,1,Pin_1_1*%
%TO.N,/CLK_6M*%
X80523000Y-48763000D03*
%TD*%
D30*
%TO.N,+3.3V*%
X84841000Y-56383000D03*
X87041690Y-65019000D03*
X89922544Y-43622847D03*
X89215343Y-54947057D03*
X89826489Y-46125368D03*
%TO.N,GND*%
X89904400Y-58796000D03*
X86619000Y-64003000D03*
X91953000Y-39365000D03*
X88389000Y-56281400D03*
X87627000Y-53741400D03*
X92461000Y-64003000D03*
X80882672Y-61091026D03*
X81729500Y-67876500D03*
X84540900Y-54812900D03*
X92461000Y-58923000D03*
X91921767Y-45213247D03*
X82331700Y-58923700D03*
D31*
X80638201Y-43503218D03*
D30*
X90569000Y-50280348D03*
X86659400Y-66433000D03*
X85836000Y-57399000D03*
D31*
X81793000Y-72766000D03*
X88105812Y-45719612D03*
X89921000Y-72766000D03*
D30*
%TO.N,+5V*%
X89913000Y-44549800D03*
D31*
%TO.N,/TCK*%
X79209150Y-61114350D03*
%TO.N,/TMS*%
X81285000Y-59926009D03*
X80073000Y-67781606D03*
%TO.N,/TDI*%
X81285000Y-58999006D03*
%TO.N,/CLK_8M*%
X85457400Y-44472800D03*
X84715696Y-45553392D03*
%TO.N,/CLK_8M_BUF*%
X81879109Y-47236662D03*
X81105000Y-54333600D03*
X82257346Y-54296216D03*
X84768817Y-43449800D03*
X81613333Y-45556135D03*
%TO.N,/CLK_CRTC*%
X87692400Y-44191000D03*
X87974586Y-46465001D03*
%TO.N,/CLK_CRTC_BUF*%
X88418064Y-44146932D03*
X88906541Y-45623531D03*
%TO.N,/CLK_16M_BUF*%
X81742200Y-43363348D03*
%TO.N,/CLK_1M_BUF*%
X79718611Y-45105724D03*
D32*
%TO.N,/CLK_4M_BUF*%
X82656600Y-46514998D03*
%TO.N,/CLK_2M_BUF*%
X83672600Y-46514998D03*
D31*
%TO.N,/SRAM_~{WE}*%
X86936000Y-56594396D03*
%TO.N,/CLK_SEL*%
X85457400Y-43683000D03*
%TO.N,/CLK_48M*%
X81565732Y-41613348D03*
%TO.N,/SRAM_Q0*%
X90328730Y-39938800D03*
%TO.N,/SRAM_Q1*%
X90328730Y-40865803D03*
%TO.N,/SRAM_Q2*%
X90328730Y-41792806D03*
%TO.N,/SRAM_Q3*%
X90328730Y-42719809D03*
%TO.N,/TDO*%
X89661779Y-58005388D03*
X89446885Y-68374129D03*
X90245243Y-66581399D03*
%TO.N,/CLK_16M*%
X80167400Y-47485998D03*
%TO.N,/SRAM_A2*%
X81361200Y-55951200D03*
%TO.N,/SRAM_A1*%
X81279829Y-56862762D03*
%TO.N,/SRAM_A0*%
X81285000Y-58059400D03*
%TO.N,/SRAM_A3*%
X84780000Y-58342650D03*
%TO.N,/SRAM_D0*%
X89247000Y-52788028D03*
%TO.N,/SRAM_D1*%
X88404960Y-51823554D03*
%TO.N,/SRAM_D2*%
X87569414Y-51801580D03*
%TO.N,/SRAM_D3*%
X86825220Y-51834078D03*
%TO.N,/CLK_IN*%
X80894788Y-45445583D03*
%TD*%
%TO.N,+3.3V*%
D33*
X89519000Y-46432857D02*
X89826489Y-46125368D01*
D34*
X87912400Y-42080800D02*
X87912400Y-41714800D01*
D33*
X90151000Y-57272000D02*
X90151000Y-55882714D01*
X82997400Y-64340600D02*
X82872400Y-64215600D01*
D35*
X84612400Y-41714800D02*
X85387400Y-40939800D01*
D34*
X89454447Y-43622847D02*
X87912400Y-42080800D01*
D33*
X91265500Y-57983000D02*
X90596578Y-57983000D01*
X90596578Y-57983000D02*
X90151000Y-57537422D01*
X90151000Y-55882714D02*
X89215343Y-54947057D01*
X88750400Y-59336822D02*
X91089732Y-61676154D01*
X91089732Y-61676154D02*
X91089732Y-62491348D01*
X87041690Y-65019000D02*
X86111000Y-65019000D01*
X90695747Y-43622847D02*
X89922544Y-43622847D01*
X84003000Y-57221000D02*
X84841000Y-56383000D01*
X90999700Y-43926800D02*
X90695747Y-43622847D01*
X88750400Y-57959344D02*
X88750400Y-59336822D01*
X85432600Y-64340600D02*
X84460000Y-64340600D01*
X90151000Y-57537422D02*
X90151000Y-57272000D01*
X84003000Y-62045500D02*
X84003000Y-63291800D01*
X86111000Y-65019000D02*
X85432600Y-64340600D01*
X84460000Y-64340600D02*
X84460000Y-63748800D01*
X82872400Y-64215600D02*
X82072400Y-64215600D01*
X84460000Y-64340600D02*
X82997400Y-64340600D01*
X84612400Y-41775000D02*
X82827080Y-41775000D01*
X89519000Y-47391400D02*
X89519000Y-46432857D01*
X82072400Y-64215600D02*
X81272400Y-64215600D01*
X88803000Y-49631400D02*
X89519000Y-48915400D01*
X90151000Y-57272000D02*
X89437744Y-57272000D01*
X84003000Y-62045500D02*
X84003000Y-57221000D01*
X89519000Y-47391400D02*
X89519000Y-48915400D01*
D34*
X89922544Y-43622847D02*
X89454447Y-43622847D01*
D33*
X81272400Y-64215600D02*
X80472400Y-64215600D01*
X84460000Y-63748800D02*
X84003000Y-63291800D01*
X88803000Y-50720500D02*
X88803000Y-49631400D01*
D35*
X85387400Y-40939800D02*
X87137400Y-40939800D01*
D33*
X89437744Y-57272000D02*
X88750400Y-57959344D01*
D35*
X87137400Y-40939800D02*
X87912400Y-41714800D01*
%TO.N,GND*%
D34*
X82331700Y-58923700D02*
X82331700Y-60568700D01*
X92321000Y-58783000D02*
X92461000Y-58923000D01*
D36*
X80638201Y-43503218D02*
X80827800Y-43692817D01*
D34*
X81171098Y-60802600D02*
X80882672Y-61091026D01*
X80772748Y-40986348D02*
X80542732Y-40756332D01*
X84040660Y-40234348D02*
X83288660Y-40986348D01*
X88105812Y-45719612D02*
X87833263Y-45719612D01*
X86117000Y-65890600D02*
X86659400Y-66433000D01*
X87089200Y-48915400D02*
X87089200Y-47391400D01*
X91714200Y-45826800D02*
X90999700Y-45826800D01*
X90569000Y-50280348D02*
X91069000Y-49780348D01*
X91720348Y-39132348D02*
X91953000Y-39365000D01*
D36*
X80827800Y-43692817D02*
X80827800Y-44296600D01*
D34*
X77983000Y-39873000D02*
X79186384Y-39873000D01*
X91255732Y-39132348D02*
X91720348Y-39132348D01*
X92461000Y-64003000D02*
X91128080Y-64003000D01*
X83288660Y-40986348D02*
X80772748Y-40986348D01*
X87627000Y-53741400D02*
X87627000Y-55519400D01*
X87833263Y-45719612D02*
X87347586Y-46205289D01*
X91069000Y-49780348D02*
X91069000Y-48915400D01*
X79940500Y-54783000D02*
X80118100Y-54960600D01*
X87347586Y-46205289D02*
X87347586Y-46625014D01*
X84393200Y-54960600D02*
X84540900Y-54812900D01*
X91252500Y-58796000D02*
X91265500Y-58783000D01*
X81793000Y-72766000D02*
X81827000Y-72800000D01*
X91921767Y-45213247D02*
X91921767Y-45619233D01*
X84612400Y-40225000D02*
X86262400Y-40225000D01*
X87089200Y-46883400D02*
X87089200Y-47391400D01*
X84612400Y-40234348D02*
X84612400Y-39132348D01*
X79186384Y-39873000D02*
X79927036Y-39132348D01*
X91255732Y-40863348D02*
X91255732Y-41663348D01*
X84612400Y-39132348D02*
X87912400Y-39132348D01*
X80542732Y-40756332D02*
X80542732Y-40059348D01*
X79927036Y-39132348D02*
X84612400Y-39132348D01*
D36*
X80827800Y-44296600D02*
X81031000Y-44499800D01*
D34*
X91255732Y-40063348D02*
X91255732Y-40863348D01*
X86262400Y-40225000D02*
X87912400Y-40225000D01*
X82331700Y-60568700D02*
X82097800Y-60802600D01*
X84460000Y-65890600D02*
X86117000Y-65890600D01*
X82331000Y-58923000D02*
X82331700Y-58923700D01*
X87912400Y-40234348D02*
X87912400Y-39132348D01*
X89904400Y-58796000D02*
X91252500Y-58796000D01*
X84612400Y-40234348D02*
X84040660Y-40234348D01*
X82097800Y-60802600D02*
X81171098Y-60802600D01*
X90999700Y-45826800D02*
X90999700Y-47322100D01*
X87912400Y-39132348D02*
X91255732Y-39132348D01*
X91069000Y-47391400D02*
X91069000Y-48915400D01*
X87627000Y-55519400D02*
X88389000Y-56281400D01*
X91265500Y-58783000D02*
X92321000Y-58783000D01*
X91921767Y-45619233D02*
X91714200Y-45826800D01*
X87347586Y-46625014D02*
X87089200Y-46883400D01*
X89887000Y-72800000D02*
X89921000Y-72766000D01*
X80118100Y-54960600D02*
X84393200Y-54960600D01*
D36*
X81031000Y-44499800D02*
X81727100Y-44499800D01*
D34*
X81827000Y-72800000D02*
X89887000Y-72800000D01*
X91255732Y-39132348D02*
X91255732Y-40063348D01*
X91255732Y-41663348D02*
X91255732Y-42463348D01*
X81793000Y-70353000D02*
X81793000Y-72766000D01*
X80523000Y-69083000D02*
X81793000Y-70353000D01*
%TO.N,+5V*%
D35*
X89913000Y-44549800D02*
X89706820Y-44549800D01*
D33*
X88724700Y-44876800D02*
X89051700Y-44549800D01*
X85539200Y-47391400D02*
X85539200Y-48915400D01*
X85539200Y-45502456D02*
X85539200Y-47391400D01*
D35*
X87598820Y-42441800D02*
X87292360Y-42441800D01*
D33*
X86164856Y-44876800D02*
X85539200Y-45502456D01*
X89051700Y-44549800D02*
X89913000Y-44549800D01*
D36*
X85036544Y-44999800D02*
X85539200Y-45502456D01*
D33*
X88724700Y-44876800D02*
X86164856Y-44876800D01*
D35*
X87292360Y-42441800D02*
X86565360Y-41714800D01*
D36*
X84602100Y-44999800D02*
X85036544Y-44999800D01*
D35*
X89706820Y-44549800D02*
X87598820Y-42441800D01*
%TO.N,/TCK*%
D36*
X79209150Y-61114350D02*
X79940500Y-60383000D01*
X79421000Y-70521000D02*
X79421000Y-67067000D01*
X79421000Y-67067000D02*
X80472400Y-66015600D01*
X79421000Y-70521000D02*
X80523000Y-71623000D01*
%TO.N,/TMS*%
X82072400Y-66533936D02*
X84333000Y-68794536D01*
X81910936Y-66695400D02*
X82072400Y-66533936D01*
X82072400Y-66533936D02*
X82072400Y-66015600D01*
X80073000Y-67781606D02*
X80073000Y-67010400D01*
X79940500Y-59583000D02*
X80941991Y-59583000D01*
X84333000Y-70353000D02*
X85603000Y-71623000D01*
X84333000Y-68794536D02*
X84333000Y-70353000D01*
X80388000Y-66695400D02*
X81910936Y-66695400D01*
X80941991Y-59583000D02*
X81285000Y-59926009D01*
X80073000Y-67010400D02*
X80388000Y-66695400D01*
%TO.N,/TDI*%
X89413000Y-70353000D02*
X87381000Y-70353000D01*
X86873000Y-69845000D02*
X86873000Y-68321000D01*
X90683000Y-71623000D02*
X89413000Y-70353000D01*
X81068994Y-58783000D02*
X81285000Y-58999006D01*
X86873000Y-68321000D02*
X86476000Y-67924000D01*
X82872400Y-66800778D02*
X82872400Y-66015600D01*
X86476000Y-67924000D02*
X83995622Y-67924000D01*
X83995622Y-67924000D02*
X82872400Y-66800778D01*
X79940500Y-58783000D02*
X81068994Y-58783000D01*
X87381000Y-70353000D02*
X86873000Y-69845000D01*
%TO.N,/CLK_8M*%
X84803000Y-45640696D02*
X84715696Y-45553392D01*
X84803000Y-45510914D02*
X84812114Y-45501800D01*
X84602100Y-44499800D02*
X85430400Y-44499800D01*
X85430400Y-44499800D02*
X85457400Y-44472800D01*
X84803000Y-50720500D02*
X84803000Y-45640696D01*
%TO.N,/CLK_8M_BUF*%
X84656317Y-43562300D02*
X84768817Y-43449800D01*
X81613333Y-45556135D02*
X81613333Y-46970886D01*
X81105000Y-54333600D02*
X82219962Y-54333600D01*
X84164600Y-43562300D02*
X84656317Y-43562300D01*
X81613333Y-46970886D02*
X81879109Y-47236662D01*
X82219962Y-54333600D02*
X82257346Y-54296216D01*
%TO.N,/CLK_CRTC*%
X88003000Y-46493415D02*
X87974586Y-46465001D01*
X86551366Y-42897800D02*
X87692400Y-44038834D01*
X88003000Y-50720500D02*
X88003000Y-46493415D01*
X83916601Y-42897800D02*
X86551366Y-42897800D01*
X83664600Y-43562300D02*
X83664600Y-43149801D01*
X87692400Y-44038834D02*
X87692400Y-44191000D01*
X83664600Y-43149801D02*
X83916601Y-42897800D01*
%TO.N,/CLK_CRTC_BUF*%
X88418064Y-44136018D02*
X88418064Y-44146932D01*
X90959870Y-45201800D02*
X92171000Y-43990670D01*
X83164600Y-43562300D02*
X83164600Y-43116643D01*
X83164600Y-43116643D02*
X83760443Y-42520800D01*
X89406258Y-45623531D02*
X89827989Y-45201800D01*
X89827989Y-45201800D02*
X90959870Y-45201800D01*
X88906541Y-45623531D02*
X89406258Y-45623531D01*
X83760443Y-42520800D02*
X86802846Y-42520800D01*
X92171000Y-40925000D02*
X93223000Y-39873000D01*
X92171000Y-43990670D02*
X92171000Y-40925000D01*
X86802846Y-42520800D02*
X88418064Y-44136018D01*
%TO.N,/CLK_16M_R*%
X80549425Y-42811348D02*
X82326147Y-42811348D01*
X82326147Y-42811348D02*
X82664600Y-43149801D01*
X82664600Y-43149801D02*
X82664600Y-43562300D01*
X80057800Y-43302973D02*
X80549425Y-42811348D01*
X80057800Y-44280400D02*
X80057800Y-43302973D01*
%TO.N,/CLK_16M_BUF*%
X81742200Y-43363348D02*
X81965648Y-43363348D01*
X81965648Y-43363348D02*
X82164600Y-43562300D01*
%TO.N,/CLK_1M_BUF*%
X80326401Y-45131565D02*
X80564383Y-44893583D01*
X79744452Y-45131565D02*
X79718611Y-45105724D01*
X81229651Y-44999800D02*
X81727100Y-44999800D01*
X80326401Y-45131565D02*
X79744452Y-45131565D01*
X80564383Y-44893583D02*
X81123434Y-44893583D01*
X81123434Y-44893583D02*
X81229651Y-44999800D01*
%TO.N,/CLK_1M*%
X82431109Y-46999443D02*
X82431109Y-50692391D01*
X82154600Y-46722934D02*
X82154600Y-45947300D01*
X82154600Y-45947300D02*
X82164600Y-45937300D01*
X82154600Y-46722934D02*
X82431109Y-46999443D01*
%TO.N,/CLK_4M_BUF*%
D37*
X82656600Y-46514998D02*
X82656600Y-45945300D01*
%TO.N,/CLK_4M*%
D36*
X83164600Y-45937300D02*
X83164600Y-50682100D01*
%TO.N,/CLK_2M_BUF*%
X83664600Y-46506998D02*
X83672600Y-46514998D01*
X83664600Y-45937300D02*
X83664600Y-46506998D01*
%TO.N,/CLK_2M*%
X84174600Y-46889400D02*
X84003000Y-47061000D01*
X84164600Y-45937300D02*
X84174600Y-45947300D01*
X84174600Y-45947300D02*
X84174600Y-46889400D01*
X84003000Y-47061000D02*
X84003000Y-50720500D01*
%TO.N,/SRAM_~{WE}*%
X85603000Y-54097000D02*
X86936000Y-55430000D01*
X85603000Y-50228354D02*
X86365000Y-49466354D01*
X85603000Y-50720500D02*
X85603000Y-54097000D01*
X86365000Y-49466354D02*
X86365000Y-45973200D01*
X86936000Y-55430000D02*
X86936000Y-56594396D01*
%TO.N,/CLK_SEL*%
X86216800Y-43683000D02*
X86611000Y-44077200D01*
X85457400Y-43683000D02*
X86216800Y-43683000D01*
%TO.N,/CLK_48M*%
X80542732Y-41959348D02*
X81219732Y-41959348D01*
X81219732Y-41959348D02*
X81565732Y-41613348D01*
%TO.N,/SRAM_Q0*%
X90204182Y-40063348D02*
X90328730Y-39938800D01*
X89455732Y-40063348D02*
X90204182Y-40063348D01*
%TO.N,/SRAM_Q1*%
X90328730Y-40865803D02*
X89458187Y-40865803D01*
%TO.N,/SRAM_Q2*%
X90199272Y-41663348D02*
X90328730Y-41792806D01*
X89455732Y-41663348D02*
X90199272Y-41663348D01*
%TO.N,/SRAM_Q3*%
X90072269Y-42463348D02*
X90328730Y-42719809D01*
X89455732Y-42463348D02*
X90072269Y-42463348D01*
%TO.N,/TDO*%
X89706514Y-59583000D02*
X89252400Y-59128886D01*
X89252400Y-58414767D02*
X89661779Y-58005388D01*
X91265500Y-59583000D02*
X89706514Y-59583000D01*
X90245243Y-67575771D02*
X89446885Y-68374129D01*
X89252400Y-59128886D02*
X89252400Y-58414767D01*
X90245243Y-66581399D02*
X90245243Y-67575771D01*
%TO.N,/CLK_16M*%
X80057800Y-45930400D02*
X80057800Y-47376398D01*
X80057800Y-47376398D02*
X80167400Y-47485998D01*
%TO.N,/~{CS}*%
X77983000Y-45982038D02*
X79035000Y-47034038D01*
X77983000Y-44953000D02*
X77983000Y-45982038D01*
X79940500Y-51631500D02*
X79944244Y-51627756D01*
X79940500Y-52383000D02*
X79940500Y-51631500D01*
X79944244Y-51627756D02*
X79035000Y-50718512D01*
X79035000Y-47034038D02*
X79035000Y-50718512D01*
%TO.N,/A*%
X79035000Y-43465000D02*
X77983000Y-42413000D01*
X79421000Y-50571353D02*
X79421000Y-46886880D01*
X79035000Y-46500880D02*
X79035000Y-43465000D01*
X80930000Y-52080354D02*
X79421000Y-50571353D01*
X79421000Y-46886880D02*
X79035000Y-46500880D01*
X80930000Y-52685646D02*
X80930000Y-52080354D01*
X80432646Y-53183000D02*
X80930000Y-52685646D01*
%TO.N,/CLK_6M*%
X80523000Y-48763000D02*
X80523000Y-51140194D01*
X80523000Y-51140194D02*
X81307000Y-51924195D01*
X81307000Y-51924195D02*
X81307000Y-53108646D01*
X81307000Y-53108646D02*
X80432646Y-53983000D01*
%TO.N,/SRAM_A2*%
X79940500Y-55583000D02*
X80993000Y-55583000D01*
X80993000Y-55583000D02*
X81361200Y-55951200D01*
%TO.N,/SRAM_A1*%
X79940500Y-56383000D02*
X80800067Y-56383000D01*
X80800067Y-56383000D02*
X81279829Y-56862762D01*
%TO.N,/SRAM_A0*%
X81285000Y-57790001D02*
X81285000Y-58059400D01*
X80677999Y-57183000D02*
X81285000Y-57790001D01*
X79940500Y-57183000D02*
X80677999Y-57183000D01*
%TO.N,/B_IN*%
X77983000Y-60193000D02*
X78951000Y-59225000D01*
X78951000Y-58235001D02*
X79203001Y-57983000D01*
X79203001Y-57983000D02*
X79940500Y-57983000D01*
X78951000Y-59225000D02*
X78951000Y-58235001D01*
%TO.N,/B*%
X80915500Y-62733000D02*
X77983000Y-62733000D01*
X81603000Y-62045500D02*
X80915500Y-62733000D01*
%TO.N,/G_IN*%
X82403000Y-62782999D02*
X82403000Y-62045500D01*
X79858841Y-63110000D02*
X82075999Y-63110000D01*
X82075999Y-63110000D02*
X82403000Y-62782999D01*
X79114370Y-65273000D02*
X79371421Y-65015949D01*
X77983000Y-65273000D02*
X79114370Y-65273000D01*
X79371421Y-63597421D02*
X79858841Y-63110000D01*
X79371421Y-65015949D02*
X79371421Y-63597421D01*
%TO.N,/G*%
X79748421Y-66047579D02*
X79748421Y-63785579D01*
X80047000Y-63487000D02*
X82814000Y-63487000D01*
X79748421Y-63785579D02*
X80047000Y-63487000D01*
X77983000Y-67813000D02*
X79748421Y-66047579D01*
X82814000Y-63487000D02*
X83203000Y-63098000D01*
X83203000Y-63098000D02*
X83203000Y-62045500D01*
%TO.N,/SRAM_A3*%
X84803000Y-61253000D02*
X84505000Y-60955000D01*
X84803000Y-62045500D02*
X84803000Y-61253000D01*
X84505000Y-60955000D02*
X84505000Y-58617650D01*
X84505000Y-58617650D02*
X84780000Y-58342650D01*
%TO.N,/R_IN*%
X91785000Y-72610842D02*
X91034842Y-73361000D01*
X90222526Y-65929400D02*
X91325331Y-65929400D01*
X86403000Y-62045500D02*
X86403000Y-62782999D01*
X79035000Y-72929000D02*
X79035000Y-71405000D01*
X91785000Y-66389069D02*
X91785000Y-72610842D01*
X91325331Y-65929400D02*
X91785000Y-66389069D01*
X91034842Y-73361000D02*
X79467000Y-73361000D01*
X79035000Y-71405000D02*
X77983000Y-70353000D01*
X79467000Y-73361000D02*
X79035000Y-72929000D01*
X87711563Y-63418437D02*
X90222526Y-65929400D01*
X87038438Y-63418437D02*
X87711563Y-63418437D01*
X86403000Y-62782999D02*
X87038438Y-63418437D01*
%TO.N,/R*%
X87381000Y-63041437D02*
X87867721Y-63041437D01*
X78828000Y-73738000D02*
X77983000Y-72893000D01*
X87203000Y-62863437D02*
X87381000Y-63041437D01*
X91481489Y-65552400D02*
X92162000Y-66232911D01*
X92162000Y-66232911D02*
X92162000Y-72767000D01*
X87867721Y-63041437D02*
X90378683Y-65552400D01*
X92162000Y-72767000D02*
X91191000Y-73738000D01*
X87203000Y-62045500D02*
X87203000Y-62863437D01*
X91191000Y-73738000D02*
X78828000Y-73738000D01*
X90378683Y-65552400D02*
X91481489Y-65552400D01*
%TO.N,/D0*%
X93223000Y-67813000D02*
X92539000Y-67129000D01*
X90526841Y-65167400D02*
X88003000Y-62643559D01*
X92539000Y-67129000D02*
X92539000Y-66076752D01*
X92539000Y-66076752D02*
X91629647Y-65167400D01*
X91629647Y-65167400D02*
X90526841Y-65167400D01*
%TO.N,/D1*%
X88803000Y-62045500D02*
X88803000Y-62910400D01*
X92740400Y-64790400D02*
X93223000Y-65273000D01*
X90683000Y-64790400D02*
X92740400Y-64790400D01*
X88803000Y-62910400D02*
X90683000Y-64790400D01*
%TO.N,/D2*%
X90013349Y-63193348D02*
X89603000Y-62782999D01*
X92762652Y-63193348D02*
X90013349Y-63193348D01*
X89603000Y-62782999D02*
X89603000Y-62045500D01*
%TO.N,/D3*%
X91265500Y-60383000D02*
X93033000Y-60383000D01*
%TO.N,/D4*%
X92753000Y-57183000D02*
X91265500Y-57183000D01*
%TO.N,/D5*%
X91265500Y-56383000D02*
X91953000Y-56383000D01*
X91953000Y-56383000D02*
X93223000Y-55113000D01*
%TO.N,/SRAM_D0*%
X89522000Y-54331646D02*
X90773354Y-55583000D01*
X89522000Y-53063028D02*
X89522000Y-54331646D01*
X89247000Y-52788028D02*
X89522000Y-53063028D01*
%TO.N,/DISEN*%
X89899000Y-51924196D02*
X91794000Y-50029195D01*
X92171000Y-46009224D02*
X93223000Y-44957224D01*
X91794000Y-48174800D02*
X92171000Y-47797800D01*
X89899000Y-54175488D02*
X89899000Y-51924196D01*
X92171000Y-47797800D02*
X92171000Y-46009224D01*
X90506512Y-54783000D02*
X89899000Y-54175488D01*
X91794000Y-50029195D02*
X91794000Y-48174800D01*
X91265500Y-54783000D02*
X90506512Y-54783000D01*
%TO.N,/CURSOR*%
X90506512Y-53983000D02*
X90276000Y-53752488D01*
X92171000Y-50185354D02*
X92171000Y-48330958D01*
X90276000Y-53752488D02*
X90276000Y-52080354D01*
X90276000Y-52080354D02*
X92171000Y-50185354D01*
X91265500Y-53983000D02*
X90506512Y-53983000D01*
X92171000Y-48330958D02*
X93008958Y-47493000D01*
%TO.N,/D6*%
X92613000Y-53183000D02*
X93223000Y-52573000D01*
X91265500Y-53183000D02*
X92613000Y-53183000D01*
%TO.N,/D7*%
X91265500Y-51624012D02*
X92856512Y-50033000D01*
X91265500Y-52383000D02*
X91265500Y-51624012D01*
%TO.N,/SRAM_D1*%
X89237446Y-51823554D02*
X89382300Y-51678700D01*
X89382300Y-51678700D02*
X89603000Y-51457999D01*
X88404960Y-51823554D02*
X89237446Y-51823554D01*
X89603000Y-51457999D02*
X89603000Y-50720500D01*
%TO.N,/SRAM_D2*%
X87377220Y-51609386D02*
X87569414Y-51801580D01*
X87377220Y-50894720D02*
X87377220Y-51609386D01*
X87203000Y-50720500D02*
X87377220Y-50894720D01*
%TO.N,/SRAM_D3*%
X86403000Y-50720500D02*
X86403000Y-51411858D01*
X86403000Y-51411858D02*
X86825220Y-51834078D01*
%TO.N,/CLK_IN*%
X80936185Y-47114785D02*
X81625000Y-47803600D01*
X81625000Y-47803600D02*
X81625000Y-50698500D01*
X80936185Y-47114785D02*
X80936185Y-45486980D01*
X80936185Y-45486980D02*
X80894788Y-45445583D01*
%TD*%
%TA.AperFunction,Conductor*%
%TO.N,GND*%
G36*
X81638270Y-69844717D02*
G01*
X81638270Y-69844716D01*
X81677622Y-69790554D01*
X81774093Y-69601221D01*
X81804134Y-69508762D01*
X81843571Y-69451086D01*
X81907929Y-69423887D01*
X81976776Y-69435801D01*
X82028252Y-69483044D01*
X82037197Y-69502625D01*
X82037554Y-69502478D01*
X82039417Y-69506975D01*
X82039419Y-69506980D01*
X82039420Y-69506981D01*
X82118347Y-69661884D01*
X82220535Y-69802533D01*
X82343467Y-69925465D01*
X82484116Y-70027653D01*
X82526648Y-70049324D01*
X82639021Y-70106581D01*
X82804358Y-70160302D01*
X82804359Y-70160302D01*
X82804362Y-70160303D01*
X82976074Y-70187500D01*
X82976075Y-70187500D01*
X83149925Y-70187500D01*
X83149926Y-70187500D01*
X83321638Y-70160303D01*
X83321641Y-70160302D01*
X83321642Y-70160302D01*
X83486978Y-70106581D01*
X83486978Y-70106580D01*
X83486981Y-70106580D01*
X83641884Y-70027653D01*
X83756614Y-69944295D01*
X83822420Y-69920815D01*
X83890474Y-69936640D01*
X83939169Y-69986745D01*
X83953500Y-70044613D01*
X83953500Y-70295425D01*
X83953499Y-70295443D01*
X83953499Y-70303038D01*
X83953499Y-70402962D01*
X83973896Y-70479084D01*
X83973897Y-70479086D01*
X83979362Y-70499482D01*
X83979363Y-70499485D01*
X84029321Y-70586015D01*
X84029325Y-70586020D01*
X84107046Y-70663741D01*
X84107052Y-70663746D01*
X84541115Y-71097809D01*
X84574600Y-71159132D01*
X84571365Y-71223808D01*
X84525697Y-71364357D01*
X84525697Y-71364360D01*
X84498500Y-71536074D01*
X84498500Y-71709925D01*
X84525697Y-71881639D01*
X84525697Y-71881642D01*
X84579418Y-72046978D01*
X84658347Y-72201884D01*
X84760535Y-72342533D01*
X84883467Y-72465465D01*
X85024116Y-72567653D01*
X85179019Y-72646580D01*
X85179021Y-72646581D01*
X85344358Y-72700302D01*
X85344359Y-72700302D01*
X85344362Y-72700303D01*
X85516074Y-72727500D01*
X85516075Y-72727500D01*
X85689925Y-72727500D01*
X85689926Y-72727500D01*
X85861638Y-72700303D01*
X85861641Y-72700302D01*
X85861642Y-72700302D01*
X86026978Y-72646581D01*
X86026978Y-72646580D01*
X86026981Y-72646580D01*
X86181884Y-72567653D01*
X86322533Y-72465465D01*
X86445465Y-72342533D01*
X86547653Y-72201884D01*
X86626580Y-72046981D01*
X86658898Y-71947517D01*
X86680302Y-71881642D01*
X86680302Y-71881641D01*
X86680303Y-71881638D01*
X86707500Y-71709926D01*
X86707500Y-71536074D01*
X86680303Y-71364362D01*
X86680302Y-71364358D01*
X86680302Y-71364357D01*
X86626581Y-71199021D01*
X86608119Y-71162787D01*
X86547653Y-71044116D01*
X86445465Y-70903467D01*
X86322533Y-70780535D01*
X86181884Y-70678347D01*
X86139354Y-70656677D01*
X86026978Y-70599418D01*
X85861641Y-70545697D01*
X85732854Y-70525299D01*
X85689926Y-70518500D01*
X85516074Y-70518500D01*
X85458836Y-70527565D01*
X85344360Y-70545697D01*
X85344357Y-70545697D01*
X85203808Y-70591365D01*
X85133967Y-70593360D01*
X85077809Y-70561115D01*
X84748819Y-70232125D01*
X84715334Y-70170802D01*
X84712500Y-70144444D01*
X84712500Y-70044613D01*
X84732185Y-69977574D01*
X84784989Y-69931819D01*
X84854147Y-69921875D01*
X84909384Y-69944295D01*
X84924340Y-69955161D01*
X85024111Y-70027650D01*
X85024113Y-70027651D01*
X85024116Y-70027653D01*
X85066648Y-70049324D01*
X85179021Y-70106581D01*
X85344358Y-70160302D01*
X85344359Y-70160302D01*
X85344362Y-70160303D01*
X85516074Y-70187500D01*
X85516075Y-70187500D01*
X85689925Y-70187500D01*
X85689926Y-70187500D01*
X85861638Y-70160303D01*
X85861641Y-70160302D01*
X85861642Y-70160302D01*
X86026978Y-70106581D01*
X86026978Y-70106580D01*
X86026981Y-70106580D01*
X86181884Y-70027653D01*
X86322533Y-69925465D01*
X86322535Y-69925462D01*
X86326474Y-69922601D01*
X86328089Y-69924823D01*
X86380950Y-69900263D01*
X86450172Y-69909753D01*
X86503275Y-69955161D01*
X86516154Y-69984016D01*
X86516253Y-69983976D01*
X86517752Y-69987596D01*
X86519174Y-69990781D01*
X86519361Y-69991481D01*
X86519363Y-69991485D01*
X86569321Y-70078015D01*
X86569325Y-70078020D01*
X86647046Y-70155741D01*
X86647052Y-70155746D01*
X87072983Y-70581677D01*
X87072993Y-70581688D01*
X87077323Y-70586018D01*
X87077324Y-70586019D01*
X87147981Y-70656676D01*
X87147983Y-70656677D01*
X87147984Y-70656678D01*
X87177464Y-70673698D01*
X87234518Y-70706638D01*
X87235156Y-70706809D01*
X87235212Y-70706824D01*
X87235729Y-70707139D01*
X87242025Y-70709747D01*
X87241618Y-70710728D01*
X87294872Y-70743190D01*
X87325400Y-70806037D01*
X87317103Y-70875413D01*
X87302659Y-70898988D01*
X87303399Y-70899526D01*
X87300537Y-70903464D01*
X87300535Y-70903467D01*
X87281704Y-70929386D01*
X87198347Y-71044115D01*
X87119418Y-71199021D01*
X87065697Y-71364357D01*
X87065697Y-71364360D01*
X87038500Y-71536074D01*
X87038500Y-71709925D01*
X87065697Y-71881639D01*
X87065697Y-71881642D01*
X87119418Y-72046978D01*
X87198347Y-72201884D01*
X87300535Y-72342533D01*
X87423467Y-72465465D01*
X87564116Y-72567653D01*
X87719019Y-72646580D01*
X87719021Y-72646581D01*
X87884358Y-72700302D01*
X87884359Y-72700302D01*
X87884362Y-72700303D01*
X88056074Y-72727500D01*
X88056075Y-72727500D01*
X88229925Y-72727500D01*
X88229926Y-72727500D01*
X88401638Y-72700303D01*
X88401641Y-72700302D01*
X88401642Y-72700302D01*
X88566978Y-72646581D01*
X88566978Y-72646580D01*
X88566981Y-72646580D01*
X88721884Y-72567653D01*
X88862533Y-72465465D01*
X88985465Y-72342533D01*
X89087653Y-72201884D01*
X89166580Y-72046981D01*
X89198898Y-71947517D01*
X89220302Y-71881642D01*
X89220302Y-71881641D01*
X89220303Y-71881638D01*
X89247500Y-71709926D01*
X89247500Y-71536074D01*
X89220303Y-71364362D01*
X89220302Y-71364358D01*
X89220302Y-71364357D01*
X89166581Y-71199021D01*
X89148119Y-71162787D01*
X89087653Y-71044116D01*
X89004295Y-70929385D01*
X88980816Y-70863580D01*
X88996641Y-70795526D01*
X89046747Y-70746831D01*
X89104614Y-70732500D01*
X89204444Y-70732500D01*
X89271483Y-70752185D01*
X89292125Y-70768819D01*
X89621115Y-71097809D01*
X89654600Y-71159132D01*
X89651365Y-71223808D01*
X89605697Y-71364357D01*
X89605697Y-71364360D01*
X89578500Y-71536074D01*
X89578500Y-71709925D01*
X89605697Y-71881639D01*
X89605697Y-71881642D01*
X89659418Y-72046978D01*
X89738347Y-72201884D01*
X89840535Y-72342533D01*
X89963467Y-72465465D01*
X90104116Y-72567653D01*
X90259019Y-72646580D01*
X90259021Y-72646581D01*
X90424358Y-72700302D01*
X90424359Y-72700302D01*
X90424362Y-72700303D01*
X90596074Y-72727500D01*
X90596075Y-72727500D01*
X90769924Y-72727500D01*
X90769926Y-72727500D01*
X90822788Y-72719127D01*
X90892080Y-72728081D01*
X90945532Y-72773077D01*
X90966172Y-72839828D01*
X90947448Y-72907142D01*
X90929869Y-72929278D01*
X90913970Y-72945178D01*
X90852648Y-72978665D01*
X90826286Y-72981500D01*
X79675556Y-72981500D01*
X79608517Y-72961815D01*
X79587875Y-72945181D01*
X79581874Y-72939180D01*
X79548389Y-72877857D01*
X79553373Y-72808165D01*
X79595245Y-72752232D01*
X79660709Y-72727815D01*
X79669527Y-72727499D01*
X81398066Y-72727499D01*
X81472301Y-72712734D01*
X81556484Y-72656484D01*
X81612734Y-72572301D01*
X81627500Y-72498067D01*
X81627499Y-71536074D01*
X81958500Y-71536074D01*
X81958500Y-71709925D01*
X81985697Y-71881639D01*
X81985697Y-71881642D01*
X82039418Y-72046978D01*
X82118347Y-72201884D01*
X82220535Y-72342533D01*
X82343467Y-72465465D01*
X82484116Y-72567653D01*
X82639019Y-72646580D01*
X82639021Y-72646581D01*
X82804358Y-72700302D01*
X82804359Y-72700302D01*
X82804362Y-72700303D01*
X82976074Y-72727500D01*
X82976075Y-72727500D01*
X83149925Y-72727500D01*
X83149926Y-72727500D01*
X83321638Y-72700303D01*
X83321641Y-72700302D01*
X83321642Y-72700302D01*
X83486978Y-72646581D01*
X83486978Y-72646580D01*
X83486981Y-72646580D01*
X83641884Y-72567653D01*
X83782533Y-72465465D01*
X83905465Y-72342533D01*
X84007653Y-72201884D01*
X84086580Y-72046981D01*
X84118898Y-71947517D01*
X84140302Y-71881642D01*
X84140302Y-71881641D01*
X84140303Y-71881638D01*
X84167500Y-71709926D01*
X84167500Y-71536074D01*
X84140303Y-71364362D01*
X84140302Y-71364358D01*
X84140302Y-71364357D01*
X84086581Y-71199021D01*
X84068119Y-71162787D01*
X84007653Y-71044116D01*
X83905465Y-70903467D01*
X83782533Y-70780535D01*
X83641884Y-70678347D01*
X83599354Y-70656677D01*
X83486978Y-70599418D01*
X83321641Y-70545697D01*
X83192854Y-70525299D01*
X83149926Y-70518500D01*
X82976074Y-70518500D01*
X82918836Y-70527565D01*
X82804360Y-70545697D01*
X82804357Y-70545697D01*
X82639021Y-70599418D01*
X82484115Y-70678347D01*
X82409581Y-70732500D01*
X82343467Y-70780535D01*
X82343465Y-70780537D01*
X82343464Y-70780537D01*
X82220537Y-70903464D01*
X82220537Y-70903465D01*
X82220535Y-70903467D01*
X82201704Y-70929386D01*
X82118347Y-71044115D01*
X82039418Y-71199021D01*
X81985697Y-71364357D01*
X81985697Y-71364360D01*
X81958500Y-71536074D01*
X81627499Y-71536074D01*
X81627499Y-70747934D01*
X81612734Y-70673699D01*
X81563102Y-70599420D01*
X81556484Y-70589515D01*
X81490905Y-70545697D01*
X81472301Y-70533266D01*
X81472299Y-70533265D01*
X81472296Y-70533264D01*
X81398071Y-70518500D01*
X81398067Y-70518500D01*
X81195800Y-70518500D01*
X81128761Y-70498815D01*
X81083006Y-70446011D01*
X81073062Y-70376853D01*
X81102087Y-70313297D01*
X81139505Y-70284015D01*
X81230554Y-70237622D01*
X81284716Y-70198270D01*
X81284717Y-70198270D01*
X80652409Y-69565962D01*
X80715993Y-69548925D01*
X80830007Y-69483099D01*
X80923099Y-69390007D01*
X80988925Y-69275993D01*
X81005962Y-69212408D01*
X81638270Y-69844717D01*
G37*
%TD.AperFunction*%
%TA.AperFunction,Conductor*%
G36*
X82052897Y-67070624D02*
G01*
X82102827Y-67101057D01*
X82814574Y-67812804D01*
X82848059Y-67874127D01*
X82843075Y-67943819D01*
X82801203Y-67999752D01*
X82765212Y-68018416D01*
X82639020Y-68059419D01*
X82484115Y-68138347D01*
X82433472Y-68175142D01*
X82343467Y-68240535D01*
X82343465Y-68240537D01*
X82343464Y-68240537D01*
X82220537Y-68363464D01*
X82220537Y-68363465D01*
X82220535Y-68363467D01*
X82211830Y-68375449D01*
X82118347Y-68504115D01*
X82039417Y-68659024D01*
X82037554Y-68663522D01*
X82036118Y-68662927D01*
X82000529Y-68714939D01*
X81936162Y-68742116D01*
X81867319Y-68730180D01*
X81815858Y-68682919D01*
X81804135Y-68657237D01*
X81774096Y-68564784D01*
X81677624Y-68375449D01*
X81638270Y-68321282D01*
X81638269Y-68321282D01*
X81005962Y-68953590D01*
X80988925Y-68890007D01*
X80923099Y-68775993D01*
X80830007Y-68682901D01*
X80715993Y-68617075D01*
X80652407Y-68600036D01*
X81284716Y-67967728D01*
X81230550Y-67928375D01*
X81041217Y-67831904D01*
X80839128Y-67766242D01*
X80713783Y-67746389D01*
X80650648Y-67716460D01*
X80613717Y-67657148D01*
X80613451Y-67656173D01*
X80589712Y-67567577D01*
X80516711Y-67441135D01*
X80488819Y-67413243D01*
X80455334Y-67351920D01*
X80452500Y-67325562D01*
X80452500Y-67218956D01*
X80472185Y-67151917D01*
X80488819Y-67131275D01*
X80508875Y-67111219D01*
X80570198Y-67077734D01*
X80596556Y-67074900D01*
X81853362Y-67074900D01*
X81853378Y-67074901D01*
X81860974Y-67074901D01*
X81960897Y-67074901D01*
X81960898Y-67074901D01*
X81983049Y-67068965D01*
X82052897Y-67070624D01*
G37*
%TD.AperFunction*%
%TA.AperFunction,Conductor*%
G36*
X84459288Y-51655382D02*
G01*
X84542855Y-51697961D01*
X84542857Y-51697961D01*
X84542859Y-51697962D01*
X84634645Y-51712499D01*
X84634651Y-51712500D01*
X84971348Y-51712499D01*
X85063145Y-51697961D01*
X85063146Y-51697960D01*
X85072783Y-51696434D01*
X85073072Y-51698260D01*
X85131014Y-51696601D01*
X85190850Y-51732677D01*
X85221682Y-51795375D01*
X85223500Y-51816529D01*
X85223500Y-54039425D01*
X85223499Y-54039443D01*
X85223499Y-54047038D01*
X85223499Y-54146962D01*
X85224675Y-54151349D01*
X85242002Y-54216016D01*
X85249361Y-54243479D01*
X85249363Y-54243484D01*
X85299321Y-54330015D01*
X85299325Y-54330020D01*
X85377046Y-54407741D01*
X85377052Y-54407746D01*
X86520181Y-55550875D01*
X86553666Y-55612198D01*
X86556500Y-55638556D01*
X86556500Y-56138352D01*
X86536815Y-56205391D01*
X86520181Y-56226033D01*
X86492290Y-56253923D01*
X86492286Y-56253928D01*
X86419289Y-56380364D01*
X86419288Y-56380367D01*
X86381500Y-56521395D01*
X86381500Y-56667397D01*
X86417969Y-56803500D01*
X86419288Y-56808424D01*
X86419289Y-56808427D01*
X86492286Y-56934863D01*
X86492288Y-56934866D01*
X86492289Y-56934867D01*
X86595529Y-57038107D01*
X86721971Y-57111108D01*
X86862999Y-57148896D01*
X86863001Y-57148896D01*
X87008999Y-57148896D01*
X87009001Y-57148896D01*
X87150029Y-57111108D01*
X87276471Y-57038107D01*
X87379711Y-56934867D01*
X87452712Y-56808425D01*
X87490500Y-56667397D01*
X87490500Y-56521395D01*
X87452712Y-56380367D01*
X87379711Y-56253925D01*
X87351819Y-56226033D01*
X87318334Y-56164710D01*
X87315500Y-56138352D01*
X87315500Y-55489964D01*
X87315501Y-55489951D01*
X87315501Y-55380039D01*
X87311278Y-55364280D01*
X87289638Y-55283519D01*
X87289638Y-55283518D01*
X87289638Y-55283517D01*
X87239678Y-55196984D01*
X87239677Y-55196983D01*
X87239676Y-55196981D01*
X87169019Y-55126324D01*
X87169018Y-55126323D01*
X87164688Y-55121993D01*
X87164677Y-55121983D01*
X86018819Y-53976125D01*
X85985334Y-53914802D01*
X85982500Y-53888444D01*
X85982500Y-51827414D01*
X86002185Y-51760375D01*
X86054989Y-51714620D01*
X86124147Y-51704676D01*
X86187703Y-51733701D01*
X86194181Y-51739733D01*
X86234401Y-51779953D01*
X86267886Y-51841276D01*
X86270720Y-51867634D01*
X86270720Y-51907079D01*
X86302186Y-52024510D01*
X86308508Y-52048106D01*
X86308509Y-52048109D01*
X86381506Y-52174545D01*
X86381508Y-52174548D01*
X86381509Y-52174549D01*
X86484749Y-52277789D01*
X86611191Y-52350790D01*
X86752219Y-52388578D01*
X86752221Y-52388578D01*
X86898219Y-52388578D01*
X86898221Y-52388578D01*
X87039249Y-52350790D01*
X87163462Y-52279075D01*
X87231361Y-52262603D01*
X87287460Y-52279075D01*
X87355385Y-52318292D01*
X87496413Y-52356080D01*
X87496415Y-52356080D01*
X87642413Y-52356080D01*
X87642415Y-52356080D01*
X87783443Y-52318292D01*
X87909885Y-52245291D01*
X87909885Y-52245290D01*
X87911568Y-52244319D01*
X87979468Y-52227846D01*
X88045495Y-52250699D01*
X88061249Y-52264025D01*
X88064489Y-52267265D01*
X88064490Y-52267266D01*
X88064492Y-52267267D01*
X88084946Y-52279076D01*
X88190931Y-52340266D01*
X88331959Y-52378054D01*
X88331961Y-52378054D01*
X88477958Y-52378054D01*
X88477961Y-52378054D01*
X88618989Y-52340266D01*
X88618993Y-52340263D01*
X88621137Y-52339689D01*
X88690987Y-52341352D01*
X88748850Y-52380514D01*
X88776354Y-52444743D01*
X88764768Y-52513645D01*
X88760619Y-52521463D01*
X88730288Y-52573998D01*
X88730288Y-52573999D01*
X88692500Y-52715027D01*
X88692500Y-52861028D01*
X88730288Y-53002056D01*
X88730289Y-53002059D01*
X88803286Y-53128495D01*
X88803288Y-53128498D01*
X88803289Y-53128499D01*
X88906529Y-53231739D01*
X89032971Y-53304740D01*
X89050588Y-53309460D01*
X89110250Y-53345822D01*
X89140782Y-53408668D01*
X89142500Y-53429236D01*
X89142500Y-54192459D01*
X89122815Y-54259498D01*
X89070011Y-54305253D01*
X89042694Y-54314076D01*
X89024435Y-54317708D01*
X89024430Y-54317709D01*
X88905325Y-54367043D01*
X88905323Y-54367044D01*
X88798123Y-54438673D01*
X88798119Y-54438676D01*
X88706962Y-54529833D01*
X88706959Y-54529837D01*
X88635330Y-54637037D01*
X88635329Y-54637039D01*
X88585995Y-54756144D01*
X88585992Y-54756153D01*
X88560843Y-54882589D01*
X88560843Y-55011524D01*
X88585992Y-55137960D01*
X88585995Y-55137969D01*
X88635329Y-55257074D01*
X88635330Y-55257076D01*
X88706959Y-55364276D01*
X88706962Y-55364280D01*
X88798119Y-55455437D01*
X88798123Y-55455440D01*
X88905321Y-55527068D01*
X88905322Y-55527068D01*
X88905323Y-55527069D01*
X88905325Y-55527070D01*
X88940902Y-55541806D01*
X89024432Y-55576405D01*
X89120845Y-55595582D01*
X89182754Y-55627966D01*
X89184333Y-55629518D01*
X89610181Y-56055366D01*
X89643666Y-56116689D01*
X89646500Y-56143047D01*
X89646500Y-56643500D01*
X89626815Y-56710539D01*
X89574011Y-56756294D01*
X89522500Y-56767500D01*
X89371325Y-56767500D01*
X89249216Y-56800218D01*
X89249217Y-56800219D01*
X89243014Y-56801881D01*
X89243011Y-56801882D01*
X89127977Y-56868296D01*
X89127972Y-56868300D01*
X88346698Y-57649574D01*
X88318764Y-57697960D01*
X88318763Y-57697961D01*
X88280282Y-57764611D01*
X88280281Y-57764612D01*
X88271304Y-57798116D01*
X88245900Y-57892925D01*
X88245900Y-59403241D01*
X88277399Y-59520796D01*
X88280282Y-59531556D01*
X88280283Y-59531557D01*
X88298813Y-59563651D01*
X88298815Y-59563653D01*
X88346698Y-59646590D01*
X88346700Y-59646593D01*
X89541926Y-60841819D01*
X89575411Y-60903142D01*
X89570427Y-60972834D01*
X89528555Y-61028767D01*
X89463091Y-61053184D01*
X89454250Y-61053500D01*
X89434653Y-61053500D01*
X89342852Y-61068039D01*
X89259294Y-61110615D01*
X89190624Y-61123511D01*
X89146707Y-61110616D01*
X89063145Y-61068039D01*
X89063143Y-61068038D01*
X89063140Y-61068037D01*
X88971354Y-61053500D01*
X88634652Y-61053500D01*
X88542852Y-61068039D01*
X88459294Y-61110615D01*
X88390624Y-61123511D01*
X88346707Y-61110616D01*
X88263145Y-61068039D01*
X88263143Y-61068038D01*
X88263140Y-61068037D01*
X88171354Y-61053500D01*
X87834652Y-61053500D01*
X87742852Y-61068039D01*
X87659294Y-61110615D01*
X87590624Y-61123511D01*
X87546707Y-61110616D01*
X87463145Y-61068039D01*
X87463143Y-61068038D01*
X87463140Y-61068037D01*
X87371354Y-61053500D01*
X87034652Y-61053500D01*
X86942852Y-61068039D01*
X86859294Y-61110615D01*
X86790624Y-61123511D01*
X86746707Y-61110616D01*
X86663145Y-61068039D01*
X86663143Y-61068038D01*
X86663140Y-61068037D01*
X86571354Y-61053500D01*
X86301424Y-61053500D01*
X86234385Y-61033815D01*
X86213742Y-61017181D01*
X86134335Y-60937773D01*
X86134331Y-60937770D01*
X85995692Y-60855780D01*
X85995689Y-60855778D01*
X85853001Y-60814323D01*
X85853000Y-60814324D01*
X85853000Y-63276673D01*
X85995694Y-63235218D01*
X86115765Y-63164209D01*
X86183489Y-63147026D01*
X86249751Y-63169186D01*
X86266567Y-63183260D01*
X86730421Y-63647114D01*
X86730431Y-63647125D01*
X86734761Y-63651455D01*
X86734762Y-63651456D01*
X86805419Y-63722113D01*
X86891956Y-63772075D01*
X86891955Y-63772075D01*
X86901235Y-63774561D01*
X86912353Y-63777540D01*
X86988476Y-63797938D01*
X86988477Y-63797938D01*
X87095996Y-63797938D01*
X87096012Y-63797937D01*
X87503007Y-63797937D01*
X87570046Y-63817622D01*
X87590688Y-63834256D01*
X89811763Y-66055332D01*
X89845248Y-66116655D01*
X89840264Y-66186347D01*
X89811769Y-66230689D01*
X89801532Y-66240927D01*
X89728532Y-66367367D01*
X89728531Y-66367370D01*
X89690743Y-66508398D01*
X89690743Y-66654400D01*
X89723632Y-66777142D01*
X89728531Y-66795427D01*
X89728532Y-66795430D01*
X89801529Y-66921866D01*
X89801533Y-66921871D01*
X89829424Y-66949762D01*
X89862909Y-67011085D01*
X89865743Y-67037443D01*
X89865743Y-67367215D01*
X89846058Y-67434254D01*
X89829424Y-67454896D01*
X89501010Y-67783310D01*
X89439687Y-67816795D01*
X89413329Y-67819629D01*
X89373884Y-67819629D01*
X89232856Y-67857417D01*
X89232853Y-67857418D01*
X89106417Y-67930415D01*
X89106412Y-67930419D01*
X89003175Y-68033656D01*
X89003171Y-68033661D01*
X88946326Y-68132120D01*
X88895759Y-68180336D01*
X88827152Y-68193558D01*
X88766053Y-68170438D01*
X88721884Y-68138347D01*
X88566978Y-68059418D01*
X88401641Y-68005697D01*
X88272854Y-67985299D01*
X88229926Y-67978500D01*
X88056074Y-67978500D01*
X87998836Y-67987565D01*
X87884360Y-68005697D01*
X87884357Y-68005697D01*
X87719021Y-68059418D01*
X87564115Y-68138347D01*
X87513472Y-68175142D01*
X87423467Y-68240535D01*
X87423464Y-68240537D01*
X87419526Y-68243399D01*
X87418296Y-68241707D01*
X87361878Y-68266171D01*
X87292924Y-68254897D01*
X87241011Y-68208134D01*
X87226805Y-68175142D01*
X87226638Y-68174519D01*
X87226638Y-68174518D01*
X87176676Y-68087981D01*
X87106019Y-68017324D01*
X87106018Y-68017323D01*
X87101688Y-68012993D01*
X87101677Y-68012983D01*
X86786746Y-67698052D01*
X86786744Y-67698049D01*
X86709020Y-67620325D01*
X86709015Y-67620321D01*
X86622485Y-67570363D01*
X86622482Y-67570362D01*
X86602084Y-67564896D01*
X86525962Y-67544499D01*
X86426038Y-67544499D01*
X86418442Y-67544499D01*
X86418426Y-67544500D01*
X84204178Y-67544500D01*
X84137139Y-67524815D01*
X84116497Y-67508181D01*
X83338395Y-66730079D01*
X83304910Y-66668756D01*
X83309894Y-66599064D01*
X83322974Y-66573507D01*
X83326432Y-66568332D01*
X83362134Y-66514901D01*
X83362135Y-66514894D01*
X83366695Y-66503889D01*
X83410536Y-66449486D01*
X83476831Y-66427421D01*
X83544530Y-66444700D01*
X83586794Y-66486245D01*
X83637424Y-66568328D01*
X83637427Y-66568332D01*
X83757267Y-66688172D01*
X83757271Y-66688175D01*
X83901507Y-66777142D01*
X83901518Y-66777147D01*
X84062393Y-66830455D01*
X84161683Y-66840599D01*
X84710000Y-66840599D01*
X84758308Y-66840599D01*
X84758322Y-66840598D01*
X84857607Y-66830455D01*
X85018481Y-66777147D01*
X85018492Y-66777142D01*
X85162728Y-66688175D01*
X85162732Y-66688172D01*
X85282572Y-66568332D01*
X85282575Y-66568328D01*
X85371542Y-66424092D01*
X85371547Y-66424081D01*
X85424855Y-66263206D01*
X85434999Y-66163922D01*
X85435000Y-66163909D01*
X85435000Y-66140600D01*
X84710000Y-66140600D01*
X84710000Y-66840599D01*
X84161683Y-66840599D01*
X84209999Y-66840598D01*
X84210000Y-66840598D01*
X84210000Y-66014600D01*
X84229685Y-65947561D01*
X84282489Y-65901806D01*
X84334000Y-65890600D01*
X84460000Y-65890600D01*
X84460000Y-65764600D01*
X84479685Y-65697561D01*
X84532489Y-65651806D01*
X84584000Y-65640600D01*
X85434999Y-65640600D01*
X85434999Y-65617292D01*
X85434998Y-65617277D01*
X85424855Y-65517992D01*
X85371547Y-65357118D01*
X85371542Y-65357107D01*
X85342410Y-65309877D01*
X85323969Y-65242485D01*
X85344891Y-65175821D01*
X85398533Y-65131051D01*
X85467864Y-65122390D01*
X85530871Y-65152586D01*
X85535622Y-65157092D01*
X85707300Y-65328770D01*
X85801230Y-65422700D01*
X85916270Y-65489119D01*
X86044581Y-65523500D01*
X86581043Y-65523500D01*
X86648082Y-65543185D01*
X86649934Y-65544398D01*
X86666017Y-65555144D01*
X86731668Y-65599011D01*
X86731669Y-65599011D01*
X86731670Y-65599012D01*
X86731672Y-65599013D01*
X86798366Y-65626638D01*
X86850779Y-65648348D01*
X86850781Y-65648348D01*
X86850786Y-65648350D01*
X86977222Y-65673499D01*
X86977226Y-65673500D01*
X86977227Y-65673500D01*
X87106154Y-65673500D01*
X87106155Y-65673499D01*
X87174440Y-65659917D01*
X87232593Y-65648350D01*
X87232596Y-65648348D01*
X87232601Y-65648348D01*
X87351712Y-65599011D01*
X87458910Y-65527383D01*
X87550073Y-65436220D01*
X87621701Y-65329022D01*
X87671038Y-65209911D01*
X87696190Y-65083463D01*
X87696190Y-64954537D01*
X87682641Y-64886420D01*
X87671040Y-64828096D01*
X87671037Y-64828087D01*
X87621703Y-64708982D01*
X87621702Y-64708980D01*
X87550073Y-64601780D01*
X87550070Y-64601776D01*
X87458913Y-64510619D01*
X87458909Y-64510616D01*
X87351709Y-64438987D01*
X87351707Y-64438986D01*
X87232602Y-64389652D01*
X87232593Y-64389649D01*
X87106157Y-64364500D01*
X87106153Y-64364500D01*
X86977227Y-64364500D01*
X86977222Y-64364500D01*
X86850786Y-64389649D01*
X86850777Y-64389652D01*
X86731672Y-64438986D01*
X86731670Y-64438987D01*
X86649934Y-64493602D01*
X86583256Y-64514480D01*
X86581043Y-64514500D01*
X86371332Y-64514500D01*
X86304293Y-64494815D01*
X86283651Y-64478181D01*
X86024329Y-64218859D01*
X85742370Y-63936899D01*
X85649770Y-63883437D01*
X85649768Y-63883435D01*
X85634810Y-63874799D01*
X85627330Y-63870481D01*
X85499019Y-63836100D01*
X85499016Y-63836100D01*
X85161808Y-63836100D01*
X85094769Y-63816415D01*
X85062540Y-63786409D01*
X85052546Y-63773059D01*
X85052544Y-63773056D01*
X85045844Y-63768040D01*
X85007156Y-63739078D01*
X84965285Y-63683145D01*
X84961698Y-63671924D01*
X84952099Y-63636100D01*
X84930120Y-63554071D01*
X84863701Y-63439030D01*
X84673851Y-63249180D01*
X84640366Y-63187857D01*
X84645350Y-63118165D01*
X84687222Y-63062232D01*
X84752686Y-63037815D01*
X84761514Y-63037499D01*
X84904574Y-63037499D01*
X84971613Y-63057184D01*
X84992255Y-63073818D01*
X85071660Y-63153223D01*
X85071668Y-63153229D01*
X85210305Y-63235218D01*
X85353000Y-63276674D01*
X85353000Y-60814324D01*
X85352998Y-60814323D01*
X85210310Y-60855778D01*
X85210307Y-60855780D01*
X85124796Y-60906351D01*
X85057071Y-60923534D01*
X84990809Y-60901374D01*
X84973994Y-60887300D01*
X84920819Y-60834125D01*
X84887334Y-60772802D01*
X84884500Y-60746444D01*
X84884500Y-58983858D01*
X84904185Y-58916819D01*
X84956989Y-58871064D01*
X84976409Y-58864083D01*
X84994029Y-58859362D01*
X85120471Y-58786361D01*
X85223711Y-58683121D01*
X85296712Y-58556679D01*
X85334500Y-58415651D01*
X85334500Y-58269649D01*
X85296712Y-58128621D01*
X85223711Y-58002179D01*
X85120471Y-57898939D01*
X85120470Y-57898938D01*
X85120467Y-57898936D01*
X84994031Y-57825939D01*
X84994030Y-57825938D01*
X84994029Y-57825938D01*
X84853001Y-57788150D01*
X84706999Y-57788150D01*
X84706994Y-57788150D01*
X84663591Y-57799780D01*
X84593742Y-57798116D01*
X84535880Y-57758953D01*
X84508377Y-57694724D01*
X84507500Y-57680005D01*
X84507500Y-57481333D01*
X84527185Y-57414294D01*
X84543819Y-57393652D01*
X84699433Y-57238038D01*
X84872011Y-57065459D01*
X84933332Y-57031976D01*
X84935365Y-57031552D01*
X85031911Y-57012348D01*
X85151022Y-56963011D01*
X85258220Y-56891383D01*
X85349383Y-56800220D01*
X85421011Y-56693022D01*
X85470348Y-56573911D01*
X85474837Y-56551347D01*
X85495499Y-56447467D01*
X85495500Y-56447464D01*
X85495500Y-56318536D01*
X85495499Y-56318532D01*
X85470350Y-56192096D01*
X85470347Y-56192087D01*
X85421013Y-56072982D01*
X85421012Y-56072980D01*
X85403977Y-56047486D01*
X85349383Y-55965780D01*
X85349380Y-55965776D01*
X85258223Y-55874619D01*
X85258219Y-55874616D01*
X85151019Y-55802987D01*
X85151017Y-55802986D01*
X85031912Y-55753652D01*
X85031903Y-55753649D01*
X84905467Y-55728500D01*
X84905463Y-55728500D01*
X84776537Y-55728500D01*
X84776532Y-55728500D01*
X84650096Y-55753649D01*
X84650087Y-55753652D01*
X84530982Y-55802986D01*
X84530980Y-55802987D01*
X84423780Y-55874616D01*
X84423776Y-55874619D01*
X84332619Y-55965776D01*
X84332616Y-55965780D01*
X84260987Y-56072980D01*
X84260986Y-56072982D01*
X84211652Y-56192087D01*
X84211649Y-56192096D01*
X84192474Y-56288500D01*
X84160089Y-56350411D01*
X84158538Y-56351990D01*
X83599298Y-56911230D01*
X83569856Y-56962228D01*
X83569855Y-56962230D01*
X83540920Y-57012347D01*
X83532881Y-57026270D01*
X83498500Y-57154581D01*
X83498500Y-57154583D01*
X83498500Y-60929500D01*
X83478815Y-60996539D01*
X83426011Y-61042294D01*
X83374500Y-61053500D01*
X83034652Y-61053500D01*
X82942852Y-61068039D01*
X82859294Y-61110615D01*
X82790624Y-61123511D01*
X82746707Y-61110616D01*
X82663145Y-61068039D01*
X82663143Y-61068038D01*
X82663140Y-61068037D01*
X82571354Y-61053500D01*
X82234652Y-61053500D01*
X82142852Y-61068039D01*
X82059294Y-61110615D01*
X81990624Y-61123511D01*
X81946707Y-61110616D01*
X81863145Y-61068039D01*
X81863143Y-61068038D01*
X81863140Y-61068037D01*
X81771354Y-61053500D01*
X81434652Y-61053500D01*
X81342852Y-61068039D01*
X81267335Y-61106518D01*
X81232216Y-61124412D01*
X81232215Y-61124413D01*
X81232210Y-61124416D01*
X81144416Y-61212210D01*
X81144411Y-61212217D01*
X81088037Y-61322857D01*
X81073500Y-61414645D01*
X81073500Y-61986943D01*
X81053815Y-62053982D01*
X81037181Y-62074624D01*
X80794625Y-62317181D01*
X80733302Y-62350666D01*
X80706944Y-62353500D01*
X79050042Y-62353500D01*
X78983003Y-62333815D01*
X78937248Y-62281011D01*
X78935497Y-62276990D01*
X78917486Y-62233507D01*
X78802083Y-62060796D01*
X78802080Y-62060792D01*
X78655207Y-61913919D01*
X78655203Y-61913916D01*
X78482490Y-61798512D01*
X78482488Y-61798511D01*
X78290590Y-61719025D01*
X78290578Y-61719022D01*
X78086862Y-61678500D01*
X78086859Y-61678500D01*
X77879141Y-61678500D01*
X77879138Y-61678500D01*
X77675421Y-61719022D01*
X77675409Y-61719025D01*
X77483511Y-61798511D01*
X77483509Y-61798512D01*
X77310796Y-61913916D01*
X77310792Y-61913919D01*
X77225181Y-61999531D01*
X77163858Y-62033016D01*
X77094166Y-62028032D01*
X77038233Y-61986160D01*
X77013816Y-61920696D01*
X77013500Y-61911850D01*
X77013500Y-61014150D01*
X77033185Y-60947111D01*
X77085989Y-60901356D01*
X77155147Y-60891412D01*
X77218703Y-60920437D01*
X77225181Y-60926469D01*
X77310792Y-61012080D01*
X77310796Y-61012083D01*
X77483507Y-61127486D01*
X77483508Y-61127486D01*
X77483509Y-61127487D01*
X77483511Y-61127488D01*
X77671631Y-61205409D01*
X77675414Y-61206976D01*
X77879136Y-61247499D01*
X77879139Y-61247500D01*
X77879141Y-61247500D01*
X78086861Y-61247500D01*
X78086862Y-61247499D01*
X78290586Y-61206976D01*
X78362919Y-61177014D01*
X78488122Y-61125155D01*
X78488719Y-61126596D01*
X78549637Y-61113900D01*
X78614887Y-61138886D01*
X78656269Y-61195182D01*
X78659486Y-61205400D01*
X78692438Y-61328378D01*
X78692439Y-61328381D01*
X78765436Y-61454817D01*
X78765438Y-61454820D01*
X78765439Y-61454821D01*
X78868679Y-61558061D01*
X78995121Y-61631062D01*
X79136149Y-61668850D01*
X79136151Y-61668850D01*
X79282149Y-61668850D01*
X79282151Y-61668850D01*
X79423179Y-61631062D01*
X79549621Y-61558061D01*
X79652861Y-61454821D01*
X79725862Y-61328379D01*
X79763650Y-61187351D01*
X79763650Y-61147905D01*
X79783335Y-61080866D01*
X79799965Y-61060228D01*
X79911375Y-60948817D01*
X79972698Y-60915333D01*
X79999056Y-60912499D01*
X80571347Y-60912499D01*
X80571348Y-60912499D01*
X80663145Y-60897961D01*
X80773784Y-60841588D01*
X80861588Y-60753784D01*
X80917961Y-60643145D01*
X80917961Y-60643143D01*
X80917962Y-60643142D01*
X80933099Y-60547570D01*
X80963028Y-60484436D01*
X81022339Y-60447504D01*
X81087660Y-60447193D01*
X81211999Y-60480509D01*
X81212002Y-60480509D01*
X81357999Y-60480509D01*
X81358001Y-60480509D01*
X81499029Y-60442721D01*
X81625471Y-60369720D01*
X81728711Y-60266480D01*
X81801712Y-60140038D01*
X81839500Y-59999010D01*
X81839500Y-59853008D01*
X81801712Y-59711980D01*
X81728711Y-59585538D01*
X81693361Y-59550188D01*
X81659876Y-59488865D01*
X81664860Y-59419173D01*
X81693360Y-59374827D01*
X81728711Y-59339477D01*
X81801712Y-59213035D01*
X81839500Y-59072007D01*
X81839500Y-58926005D01*
X81801712Y-58784977D01*
X81742906Y-58683121D01*
X81728713Y-58658538D01*
X81728709Y-58658533D01*
X81687060Y-58616884D01*
X81653575Y-58555561D01*
X81658559Y-58485869D01*
X81687060Y-58441522D01*
X81728711Y-58399871D01*
X81801712Y-58273429D01*
X81839500Y-58132401D01*
X81839500Y-57986399D01*
X81801712Y-57845371D01*
X81728711Y-57718929D01*
X81630152Y-57620370D01*
X81610445Y-57594688D01*
X81588676Y-57556982D01*
X81555703Y-57524009D01*
X81522218Y-57462686D01*
X81527202Y-57392994D01*
X81569074Y-57337061D01*
X81581379Y-57328943D01*
X81620300Y-57306473D01*
X81723540Y-57203233D01*
X81796541Y-57076791D01*
X81834329Y-56935763D01*
X81834329Y-56789761D01*
X81796541Y-56648733D01*
X81740316Y-56551348D01*
X81719477Y-56515253D01*
X81721141Y-56514291D01*
X81699745Y-56458947D01*
X81713782Y-56390502D01*
X81735628Y-56360953D01*
X81804911Y-56291671D01*
X81877912Y-56165229D01*
X81915700Y-56024201D01*
X81915700Y-55878199D01*
X81877912Y-55737171D01*
X81814863Y-55627966D01*
X81804913Y-55610732D01*
X81804909Y-55610727D01*
X81701672Y-55507490D01*
X81701667Y-55507486D01*
X81575231Y-55434489D01*
X81575230Y-55434488D01*
X81575229Y-55434488D01*
X81434201Y-55396700D01*
X81434200Y-55396700D01*
X81394756Y-55396700D01*
X81327717Y-55377015D01*
X81307075Y-55360381D01*
X81303746Y-55357052D01*
X81303744Y-55357049D01*
X81226018Y-55279323D01*
X81213768Y-55272251D01*
X81202399Y-55265687D01*
X81154184Y-55215121D01*
X81140960Y-55146514D01*
X81145323Y-55123704D01*
X81175155Y-55021021D01*
X81175156Y-55021018D01*
X81177999Y-54984890D01*
X81178000Y-54984875D01*
X81178000Y-54983248D01*
X81178073Y-54982996D01*
X81178095Y-54982455D01*
X81178190Y-54982458D01*
X81178191Y-54982456D01*
X81178231Y-54982459D01*
X81197685Y-54916209D01*
X81250489Y-54870454D01*
X81269899Y-54863476D01*
X81319029Y-54850312D01*
X81445471Y-54777311D01*
X81473363Y-54749419D01*
X81534686Y-54715934D01*
X81561044Y-54713100D01*
X81839821Y-54713100D01*
X81906860Y-54732785D01*
X81915308Y-54738725D01*
X81916874Y-54739927D01*
X82003233Y-54789785D01*
X82043317Y-54812928D01*
X82184345Y-54850716D01*
X82184347Y-54850716D01*
X82330345Y-54850716D01*
X82330347Y-54850716D01*
X82471375Y-54812928D01*
X82597817Y-54739927D01*
X82701057Y-54636687D01*
X82774058Y-54510245D01*
X82811846Y-54369217D01*
X82811846Y-54223215D01*
X82774058Y-54082187D01*
X82737557Y-54018966D01*
X82701059Y-53955748D01*
X82701055Y-53955743D01*
X82597818Y-53852506D01*
X82597813Y-53852502D01*
X82471377Y-53779505D01*
X82471376Y-53779504D01*
X82471375Y-53779504D01*
X82330347Y-53741716D01*
X82184345Y-53741716D01*
X82043317Y-53779504D01*
X82043314Y-53779505D01*
X81916878Y-53852502D01*
X81916873Y-53852506D01*
X81851599Y-53917781D01*
X81790276Y-53951266D01*
X81763918Y-53954100D01*
X81561044Y-53954100D01*
X81494005Y-53934415D01*
X81473363Y-53917781D01*
X81445472Y-53889890D01*
X81445467Y-53889886D01*
X81342594Y-53830493D01*
X81294379Y-53779926D01*
X81281155Y-53711319D01*
X81307123Y-53646455D01*
X81316900Y-53635439D01*
X81529809Y-53422529D01*
X81529814Y-53422526D01*
X81540017Y-53412322D01*
X81540019Y-53412322D01*
X81610676Y-53341665D01*
X81660638Y-53255128D01*
X81686500Y-53158608D01*
X81686500Y-51984159D01*
X81686501Y-51984146D01*
X81686501Y-51874234D01*
X81686501Y-51874233D01*
X81684027Y-51865000D01*
X81685688Y-51795151D01*
X81724850Y-51737288D01*
X81784402Y-51710431D01*
X81863145Y-51697961D01*
X81946706Y-51655384D01*
X82015373Y-51642488D01*
X82059288Y-51655382D01*
X82142855Y-51697961D01*
X82142857Y-51697961D01*
X82142859Y-51697962D01*
X82234645Y-51712499D01*
X82234651Y-51712500D01*
X82571348Y-51712499D01*
X82663145Y-51697961D01*
X82746706Y-51655384D01*
X82815373Y-51642488D01*
X82859288Y-51655382D01*
X82942855Y-51697961D01*
X82942857Y-51697961D01*
X82942859Y-51697962D01*
X83034645Y-51712499D01*
X83034651Y-51712500D01*
X83371348Y-51712499D01*
X83463145Y-51697961D01*
X83546706Y-51655384D01*
X83615373Y-51642488D01*
X83659288Y-51655382D01*
X83742855Y-51697961D01*
X83742857Y-51697961D01*
X83742859Y-51697962D01*
X83834645Y-51712499D01*
X83834651Y-51712500D01*
X84171348Y-51712499D01*
X84263145Y-51697961D01*
X84346706Y-51655384D01*
X84415373Y-51642488D01*
X84459288Y-51655382D01*
G37*
%TD.AperFunction*%
%TA.AperFunction,Conductor*%
G36*
X94111834Y-63437968D02*
G01*
X94167767Y-63479840D01*
X94192184Y-63545304D01*
X94192500Y-63554150D01*
X94192500Y-64451850D01*
X94172815Y-64518889D01*
X94120011Y-64564644D01*
X94050853Y-64574588D01*
X93987297Y-64545563D01*
X93980819Y-64539531D01*
X93895207Y-64453919D01*
X93895203Y-64453916D01*
X93722490Y-64338512D01*
X93722488Y-64338511D01*
X93530590Y-64259025D01*
X93530578Y-64259022D01*
X93326862Y-64218500D01*
X93326859Y-64218500D01*
X93119141Y-64218500D01*
X93119138Y-64218500D01*
X92915421Y-64259022D01*
X92915409Y-64259025D01*
X92723511Y-64338511D01*
X92723510Y-64338512D01*
X92723507Y-64338513D01*
X92723507Y-64338514D01*
X92646975Y-64389652D01*
X92646451Y-64390002D01*
X92579774Y-64410880D01*
X92577560Y-64410900D01*
X92188732Y-64410900D01*
X92121693Y-64391215D01*
X92075938Y-64338411D01*
X92065968Y-64292584D01*
X92064732Y-64291348D01*
X91213732Y-64291348D01*
X91146693Y-64271663D01*
X91100938Y-64218859D01*
X91089732Y-64167348D01*
X91089732Y-63915348D01*
X91109417Y-63848309D01*
X91162221Y-63802554D01*
X91213732Y-63791348D01*
X92064731Y-63791348D01*
X92064731Y-63768040D01*
X92064730Y-63768022D01*
X92058747Y-63709449D01*
X92071517Y-63640756D01*
X92119398Y-63589872D01*
X92182105Y-63572848D01*
X92544258Y-63572848D01*
X92611297Y-63592533D01*
X92613132Y-63593735D01*
X92723507Y-63667486D01*
X92723510Y-63667487D01*
X92723511Y-63667488D01*
X92896346Y-63739078D01*
X92915414Y-63746976D01*
X93046542Y-63773059D01*
X93119136Y-63787499D01*
X93119139Y-63787500D01*
X93119141Y-63787500D01*
X93326861Y-63787500D01*
X93326862Y-63787499D01*
X93530586Y-63746976D01*
X93722493Y-63667486D01*
X93895204Y-63552083D01*
X93906473Y-63540814D01*
X93980819Y-63466469D01*
X94042142Y-63432984D01*
X94111834Y-63437968D01*
G37*
%TD.AperFunction*%
%TA.AperFunction,Conductor*%
G36*
X94111834Y-58357968D02*
G01*
X94167767Y-58399840D01*
X94192184Y-58465304D01*
X94192500Y-58474150D01*
X94192500Y-59371850D01*
X94172815Y-59438889D01*
X94120011Y-59484644D01*
X94050853Y-59494588D01*
X93987297Y-59465563D01*
X93980819Y-59459531D01*
X93895207Y-59373919D01*
X93895203Y-59373916D01*
X93722490Y-59258512D01*
X93722488Y-59258511D01*
X93530590Y-59179025D01*
X93530578Y-59179022D01*
X93326862Y-59138500D01*
X93326859Y-59138500D01*
X93119141Y-59138500D01*
X93119138Y-59138500D01*
X92915421Y-59179022D01*
X92915409Y-59179025D01*
X92723511Y-59258511D01*
X92723504Y-59258515D01*
X92643620Y-59311892D01*
X92576943Y-59332770D01*
X92509563Y-59314285D01*
X92462873Y-59262306D01*
X92451697Y-59193336D01*
X92455654Y-59174195D01*
X92496674Y-59033000D01*
X90034325Y-59033000D01*
X90037784Y-59044906D01*
X90037584Y-59114776D01*
X89999641Y-59173445D01*
X89936002Y-59202288D01*
X89918707Y-59203500D01*
X89915070Y-59203500D01*
X89848031Y-59183815D01*
X89827389Y-59167181D01*
X89668219Y-59008011D01*
X89634734Y-58946688D01*
X89631900Y-58920330D01*
X89631900Y-58682177D01*
X89651585Y-58615138D01*
X89704389Y-58569383D01*
X89727158Y-58562844D01*
X89726930Y-58561991D01*
X89734778Y-58559888D01*
X89734780Y-58559888D01*
X89875808Y-58522100D01*
X89885504Y-58516501D01*
X89953403Y-58500028D01*
X90019430Y-58522879D01*
X90029810Y-58533000D01*
X92513875Y-58533000D01*
X92530734Y-58520416D01*
X92600433Y-58515529D01*
X92642792Y-58533553D01*
X92723507Y-58587486D01*
X92723510Y-58587487D01*
X92723513Y-58587489D01*
X92915409Y-58666974D01*
X92915414Y-58666976D01*
X93109242Y-58705531D01*
X93119136Y-58707499D01*
X93119139Y-58707500D01*
X93119141Y-58707500D01*
X93326861Y-58707500D01*
X93326862Y-58707499D01*
X93530586Y-58666976D01*
X93722493Y-58587486D01*
X93895204Y-58472083D01*
X93925765Y-58441522D01*
X93980819Y-58386469D01*
X94042142Y-58352984D01*
X94111834Y-58357968D01*
G37*
%TD.AperFunction*%
%TA.AperFunction,Conductor*%
G36*
X91192739Y-45846485D02*
G01*
X91238494Y-45899289D01*
X91249700Y-45950800D01*
X91249700Y-46286400D01*
X91282681Y-46319381D01*
X91316166Y-46380704D01*
X91319000Y-46407062D01*
X91319000Y-49916138D01*
X91299315Y-49983177D01*
X91282681Y-50003819D01*
X90344180Y-50942320D01*
X90282857Y-50975805D01*
X90213165Y-50970821D01*
X90157232Y-50928949D01*
X90132815Y-50863485D01*
X90132499Y-50854639D01*
X90132499Y-50089652D01*
X90132499Y-50089651D01*
X90117961Y-49997855D01*
X90117960Y-49997853D01*
X90117960Y-49997852D01*
X90088476Y-49939988D01*
X90061588Y-49887216D01*
X90061584Y-49887212D01*
X90061583Y-49887210D01*
X89973788Y-49799415D01*
X89969281Y-49796141D01*
X89926612Y-49740813D01*
X89920629Y-49671200D01*
X89953232Y-49609404D01*
X89969771Y-49596839D01*
X89969062Y-49595891D01*
X89986292Y-49582991D01*
X90057910Y-49529379D01*
X90123372Y-49504962D01*
X90191646Y-49519813D01*
X90237758Y-49563547D01*
X90271428Y-49618133D01*
X90391267Y-49737972D01*
X90391271Y-49737975D01*
X90535507Y-49826942D01*
X90535518Y-49826947D01*
X90696393Y-49880255D01*
X90795683Y-49890399D01*
X90819000Y-49890398D01*
X90819000Y-46756800D01*
X90786019Y-46723819D01*
X90752534Y-46662496D01*
X90749700Y-46636138D01*
X90749700Y-45950800D01*
X90769385Y-45883761D01*
X90822189Y-45838006D01*
X90873700Y-45826800D01*
X91125700Y-45826800D01*
X91192739Y-45846485D01*
G37*
%TD.AperFunction*%
%TA.AperFunction,Conductor*%
G36*
X87282239Y-47411085D02*
G01*
X87327994Y-47463889D01*
X87339200Y-47515400D01*
X87339200Y-48791400D01*
X87319515Y-48858439D01*
X87266711Y-48904194D01*
X87215200Y-48915400D01*
X86963200Y-48915400D01*
X86896161Y-48895715D01*
X86850406Y-48842911D01*
X86839200Y-48791400D01*
X86839200Y-47515400D01*
X86858885Y-47448361D01*
X86911689Y-47402606D01*
X86963200Y-47391400D01*
X87215200Y-47391400D01*
X87282239Y-47411085D01*
G37*
%TD.AperFunction*%
%TA.AperFunction,Conductor*%
G36*
X88043483Y-45394815D02*
G01*
X88085647Y-45416299D01*
X88180361Y-45431300D01*
X88180366Y-45431300D01*
X88228041Y-45431300D01*
X88295080Y-45450985D01*
X88340835Y-45503789D01*
X88352041Y-45555300D01*
X88352041Y-45696532D01*
X88373389Y-45776205D01*
X88384273Y-45816824D01*
X88382610Y-45886674D01*
X88343447Y-45944536D01*
X88279219Y-45972040D01*
X88210316Y-45960453D01*
X88202499Y-45956305D01*
X88188615Y-45948289D01*
X88147185Y-45937188D01*
X88047587Y-45910501D01*
X87901585Y-45910501D01*
X87760557Y-45948289D01*
X87760554Y-45948290D01*
X87634118Y-46021287D01*
X87549305Y-46106100D01*
X87487981Y-46139584D01*
X87418290Y-46134600D01*
X87362356Y-46092728D01*
X87337940Y-46027263D01*
X87338166Y-46006840D01*
X87338395Y-46004392D01*
X87340500Y-45981949D01*
X87340499Y-45505299D01*
X87360183Y-45438261D01*
X87412987Y-45392506D01*
X87464499Y-45381300D01*
X87987188Y-45381300D01*
X88043483Y-45394815D01*
G37*
%TD.AperFunction*%
%TA.AperFunction,Conductor*%
G36*
X92089746Y-44711129D02*
G01*
X92145679Y-44753001D01*
X92170096Y-44818465D01*
X92168562Y-44843023D01*
X92169097Y-44843076D01*
X92168500Y-44849138D01*
X92168500Y-45056863D01*
X92177396Y-45101586D01*
X92171169Y-45171178D01*
X92128306Y-45226355D01*
X92062416Y-45249599D01*
X91994419Y-45233531D01*
X91968098Y-45213458D01*
X91913761Y-45159121D01*
X91913752Y-45159114D01*
X91816019Y-45101315D01*
X91768335Y-45050246D01*
X91755832Y-44981504D01*
X91782478Y-44916915D01*
X91791441Y-44906921D01*
X91958735Y-44739627D01*
X92020054Y-44706145D01*
X92089746Y-44711129D01*
G37*
%TD.AperFunction*%
%TA.AperFunction,Conductor*%
G36*
X81130739Y-43210533D02*
G01*
X81176494Y-43263337D01*
X81187700Y-43314848D01*
X81187700Y-43436349D01*
X81217473Y-43547462D01*
X81225488Y-43577376D01*
X81225489Y-43577379D01*
X81301277Y-43708648D01*
X81317750Y-43776548D01*
X81294897Y-43842575D01*
X81239976Y-43885766D01*
X81233664Y-43887867D01*
X81093421Y-43945957D01*
X80972248Y-44038937D01*
X80907079Y-44064131D01*
X80838634Y-44050092D01*
X80788645Y-44001278D01*
X80779721Y-43981516D01*
X80739169Y-43865628D01*
X80739169Y-43865627D01*
X80695944Y-43807059D01*
X80657810Y-43755389D01*
X80587934Y-43703819D01*
X80547573Y-43674031D01*
X80520343Y-43664502D01*
X80463569Y-43623781D01*
X80437822Y-43558828D01*
X80437300Y-43547462D01*
X80437300Y-43511529D01*
X80456985Y-43444490D01*
X80473619Y-43423848D01*
X80670300Y-43227167D01*
X80731623Y-43193682D01*
X80757981Y-43190848D01*
X81063700Y-43190848D01*
X81130739Y-43210533D01*
G37*
%TD.AperFunction*%
%TA.AperFunction,Conductor*%
G36*
X92468889Y-38923185D02*
G01*
X92514644Y-38975989D01*
X92524588Y-39045147D01*
X92495563Y-39108703D01*
X92489531Y-39115181D01*
X92403919Y-39200792D01*
X92403916Y-39200796D01*
X92288512Y-39373509D01*
X92251634Y-39462543D01*
X92207793Y-39516946D01*
X92141499Y-39539011D01*
X92073800Y-39521732D01*
X92037807Y-39489402D01*
X92012919Y-39456157D01*
X91897825Y-39369997D01*
X91897818Y-39369993D01*
X91763111Y-39319751D01*
X91763104Y-39319749D01*
X91703576Y-39313348D01*
X91505732Y-39313348D01*
X91505732Y-40841986D01*
X91486047Y-40909025D01*
X91469413Y-40929667D01*
X91455732Y-40943348D01*
X91455732Y-41583348D01*
X91469413Y-41597029D01*
X91502898Y-41658352D01*
X91505732Y-41684710D01*
X91505732Y-42339348D01*
X91486047Y-42406387D01*
X91433243Y-42452142D01*
X91381732Y-42463348D01*
X91129732Y-42463348D01*
X91062693Y-42443663D01*
X91016938Y-42390859D01*
X91005732Y-42339348D01*
X91005732Y-41684710D01*
X91025417Y-41617671D01*
X91042051Y-41597029D01*
X91055732Y-41583348D01*
X91055732Y-40943348D01*
X91042051Y-40929667D01*
X91008566Y-40868344D01*
X91005732Y-40841986D01*
X91005732Y-39313348D01*
X90807887Y-39313348D01*
X90748359Y-39319749D01*
X90748352Y-39319751D01*
X90613645Y-39369993D01*
X90613638Y-39369997D01*
X90591933Y-39386246D01*
X90526469Y-39410663D01*
X90485531Y-39406754D01*
X90401731Y-39384300D01*
X90255729Y-39384300D01*
X90114701Y-39422088D01*
X90114698Y-39422089D01*
X89988259Y-39495088D01*
X89960816Y-39522531D01*
X89899492Y-39556015D01*
X89873136Y-39558848D01*
X89030668Y-39558848D01*
X88956430Y-39573614D01*
X88956428Y-39573615D01*
X88944327Y-39581701D01*
X88877648Y-39602577D01*
X88810269Y-39584090D01*
X88769901Y-39543694D01*
X88734975Y-39487071D01*
X88734972Y-39487067D01*
X88615132Y-39367227D01*
X88615128Y-39367224D01*
X88470892Y-39278257D01*
X88470881Y-39278252D01*
X88310006Y-39224944D01*
X88210722Y-39214800D01*
X88162400Y-39214800D01*
X88162400Y-40040800D01*
X88142715Y-40107839D01*
X88089911Y-40153594D01*
X88038400Y-40164800D01*
X87912400Y-40164800D01*
X87912400Y-40290800D01*
X87892715Y-40357839D01*
X87839911Y-40403594D01*
X87788400Y-40414800D01*
X84736400Y-40414800D01*
X84669361Y-40395115D01*
X84623606Y-40342311D01*
X84612400Y-40290800D01*
X84612400Y-40164800D01*
X84486400Y-40164800D01*
X84419361Y-40145115D01*
X84373606Y-40092311D01*
X84362400Y-40040800D01*
X84362400Y-39214800D01*
X84862400Y-39214800D01*
X84862400Y-39914800D01*
X86012400Y-39914800D01*
X86012400Y-39214800D01*
X86512400Y-39214800D01*
X86512400Y-39914800D01*
X87662400Y-39914800D01*
X87662400Y-39214800D01*
X87662399Y-39214799D01*
X87614093Y-39214800D01*
X87614075Y-39214801D01*
X87514792Y-39224944D01*
X87353918Y-39278252D01*
X87353907Y-39278257D01*
X87209671Y-39367224D01*
X87209667Y-39367227D01*
X87175081Y-39401814D01*
X87113758Y-39435299D01*
X87044066Y-39430315D01*
X86999719Y-39401814D01*
X86965132Y-39367227D01*
X86965128Y-39367224D01*
X86820892Y-39278257D01*
X86820881Y-39278252D01*
X86660006Y-39224944D01*
X86560722Y-39214800D01*
X86512400Y-39214800D01*
X86012400Y-39214800D01*
X86012399Y-39214799D01*
X85964093Y-39214800D01*
X85964075Y-39214801D01*
X85864792Y-39224944D01*
X85703918Y-39278252D01*
X85703907Y-39278257D01*
X85559671Y-39367224D01*
X85559667Y-39367227D01*
X85525081Y-39401814D01*
X85463758Y-39435299D01*
X85394066Y-39430315D01*
X85349719Y-39401814D01*
X85315132Y-39367227D01*
X85315128Y-39367224D01*
X85170892Y-39278257D01*
X85170881Y-39278252D01*
X85010006Y-39224944D01*
X84910722Y-39214800D01*
X84862400Y-39214800D01*
X84362400Y-39214800D01*
X84362399Y-39214799D01*
X84314093Y-39214800D01*
X84314075Y-39214801D01*
X84214792Y-39224944D01*
X84053918Y-39278252D01*
X84053907Y-39278257D01*
X83909671Y-39367224D01*
X83909667Y-39367227D01*
X83789826Y-39487068D01*
X83741250Y-39565821D01*
X83689301Y-39612545D01*
X83620338Y-39623766D01*
X83556257Y-39595922D01*
X83519531Y-39544059D01*
X83490074Y-39465081D01*
X83446411Y-39406754D01*
X83403136Y-39348943D01*
X83308701Y-39278252D01*
X83286999Y-39262006D01*
X83151074Y-39211308D01*
X83151070Y-39211307D01*
X83090994Y-39204848D01*
X82194480Y-39204848D01*
X82194474Y-39204849D01*
X82134387Y-39211308D01*
X81998470Y-39262003D01*
X81998462Y-39262008D01*
X81882326Y-39348944D01*
X81837314Y-39409075D01*
X81781381Y-39450947D01*
X81711689Y-39455931D01*
X81650366Y-39422447D01*
X81631738Y-39395844D01*
X81630881Y-39396373D01*
X81535047Y-39241002D01*
X81409226Y-39115181D01*
X81375741Y-39053858D01*
X81380725Y-38984166D01*
X81422597Y-38928233D01*
X81488061Y-38903816D01*
X81496907Y-38903500D01*
X92401850Y-38903500D01*
X92468889Y-38923185D01*
G37*
%TD.AperFunction*%
%TA.AperFunction,Conductor*%
G36*
X83670577Y-40648851D02*
G01*
X83697205Y-40692019D01*
X83697803Y-40691741D01*
X83700183Y-40696847D01*
X83700602Y-40697525D01*
X83700852Y-40698281D01*
X83700857Y-40698292D01*
X83789824Y-40842528D01*
X83789827Y-40842532D01*
X83909667Y-40962372D01*
X83909671Y-40962375D01*
X83964251Y-40996041D01*
X84010976Y-41047989D01*
X84022197Y-41116951D01*
X83998421Y-41175888D01*
X83976801Y-41204770D01*
X83964793Y-41220811D01*
X83908859Y-41262682D01*
X83865526Y-41270500D01*
X83473202Y-41270500D01*
X83406163Y-41250815D01*
X83398909Y-41245780D01*
X83286999Y-41162006D01*
X83189199Y-41125528D01*
X83133269Y-41083658D01*
X83108852Y-41018194D01*
X83123704Y-40949921D01*
X83173110Y-40900516D01*
X83189192Y-40893170D01*
X83286999Y-40856690D01*
X83403136Y-40769752D01*
X83483630Y-40662223D01*
X83539562Y-40620352D01*
X83609254Y-40615366D01*
X83670577Y-40648851D01*
G37*
%TD.AperFunction*%
%TA.AperFunction,Conductor*%
G36*
X81805902Y-40680143D02*
G01*
X81837315Y-40709621D01*
X81882327Y-40769752D01*
X81932735Y-40807486D01*
X81998465Y-40856690D01*
X82096262Y-40893167D01*
X82152194Y-40935036D01*
X82176611Y-41000501D01*
X82161759Y-41068774D01*
X82112354Y-41118179D01*
X82096261Y-41125528D01*
X81990156Y-41165104D01*
X81988931Y-41161821D01*
X81937015Y-41173078D01*
X81883948Y-41156787D01*
X81779767Y-41096639D01*
X81779763Y-41096637D01*
X81779761Y-41096636D01*
X81638733Y-41058848D01*
X81638732Y-41058848D01*
X81630673Y-41057787D01*
X81631089Y-41054620D01*
X81578447Y-41039163D01*
X81532692Y-40986359D01*
X81522748Y-40917201D01*
X81539947Y-40869751D01*
X81630881Y-40722323D01*
X81632753Y-40723477D01*
X81671827Y-40679092D01*
X81739019Y-40659934D01*
X81805902Y-40680143D01*
G37*
%TD.AperFunction*%
%TA.AperFunction,Conductor*%
G36*
X79356039Y-39642685D02*
G01*
X79401794Y-39695489D01*
X79413000Y-39747000D01*
X79413000Y-39809348D01*
X80418732Y-39809348D01*
X80485771Y-39829033D01*
X80531526Y-39881837D01*
X80542732Y-39933348D01*
X80542732Y-40185348D01*
X80523047Y-40252387D01*
X80470243Y-40298142D01*
X80418732Y-40309348D01*
X79386732Y-40309348D01*
X79319693Y-40289663D01*
X79273938Y-40236859D01*
X79262732Y-40185348D01*
X79262732Y-40123000D01*
X78298686Y-40123000D01*
X78303080Y-40118606D01*
X78355741Y-40027394D01*
X78383000Y-39925661D01*
X78383000Y-39820339D01*
X78355741Y-39718606D01*
X78303080Y-39627394D01*
X78298686Y-39623000D01*
X79289000Y-39623000D01*
X79356039Y-39642685D01*
G37*
%TD.AperFunction*%
%TD*%
M02*
