%TF.GenerationSoftware,KiCad,Pcbnew,10.0.5*%
%TF.CreationDate,2026-07-31T20:33:21+01:00*%
%TF.ProjectId,BufferBoard,42756666-6572-4426-9f61-72642e6b6963,01*%
%TF.SameCoordinates,Original*%
%TF.FileFunction,Legend,Top*%
%TF.FilePolarity,Positive*%
%FSLAX46Y46*%
G04 Gerber Fmt 4.6, Leading zero omitted, Abs format (unit mm)*
G04 Created by KiCad (PCBNEW 10.0.5) date 2026-07-31 20:33:21*
%MOMM*%
%LPD*%
G01*
G04 APERTURE LIST*
%ADD10C,0.100000*%
%ADD11C,0.150000*%
%ADD12C,0.120000*%
G04 APERTURE END LIST*
D10*
X98055333Y-32348633D02*
X97822000Y-32015300D01*
X97655333Y-32348633D02*
X97655333Y-31648633D01*
X97655333Y-31648633D02*
X97922000Y-31648633D01*
X97922000Y-31648633D02*
X97988667Y-31681966D01*
X97988667Y-31681966D02*
X98022000Y-31715300D01*
X98022000Y-31715300D02*
X98055333Y-31781966D01*
X98055333Y-31781966D02*
X98055333Y-31881966D01*
X98055333Y-31881966D02*
X98022000Y-31948633D01*
X98022000Y-31948633D02*
X97988667Y-31981966D01*
X97988667Y-31981966D02*
X97922000Y-32015300D01*
X97922000Y-32015300D02*
X97655333Y-32015300D01*
X98722000Y-32348633D02*
X98322000Y-32348633D01*
X98522000Y-32348633D02*
X98522000Y-31648633D01*
X98522000Y-31648633D02*
X98455333Y-31748633D01*
X98455333Y-31748633D02*
X98388667Y-31815300D01*
X98388667Y-31815300D02*
X98322000Y-31848633D01*
X98055333Y-38952633D02*
X97822000Y-38619300D01*
X97655333Y-38952633D02*
X97655333Y-38252633D01*
X97655333Y-38252633D02*
X97922000Y-38252633D01*
X97922000Y-38252633D02*
X97988667Y-38285966D01*
X97988667Y-38285966D02*
X98022000Y-38319300D01*
X98022000Y-38319300D02*
X98055333Y-38385966D01*
X98055333Y-38385966D02*
X98055333Y-38485966D01*
X98055333Y-38485966D02*
X98022000Y-38552633D01*
X98022000Y-38552633D02*
X97988667Y-38585966D01*
X97988667Y-38585966D02*
X97922000Y-38619300D01*
X97922000Y-38619300D02*
X97655333Y-38619300D01*
X98722000Y-38952633D02*
X98322000Y-38952633D01*
X98522000Y-38952633D02*
X98522000Y-38252633D01*
X98522000Y-38252633D02*
X98455333Y-38352633D01*
X98455333Y-38352633D02*
X98388667Y-38419300D01*
X98388667Y-38419300D02*
X98322000Y-38452633D01*
X99495333Y-31648633D02*
X99495333Y-32215300D01*
X99495333Y-32215300D02*
X99528667Y-32281966D01*
X99528667Y-32281966D02*
X99562000Y-32315300D01*
X99562000Y-32315300D02*
X99628667Y-32348633D01*
X99628667Y-32348633D02*
X99762000Y-32348633D01*
X99762000Y-32348633D02*
X99828667Y-32315300D01*
X99828667Y-32315300D02*
X99862000Y-32281966D01*
X99862000Y-32281966D02*
X99895333Y-32215300D01*
X99895333Y-32215300D02*
X99895333Y-31648633D01*
X100595333Y-32348633D02*
X100195333Y-32348633D01*
X100395333Y-32348633D02*
X100395333Y-31648633D01*
X100395333Y-31648633D02*
X100328666Y-31748633D01*
X100328666Y-31748633D02*
X100262000Y-31815300D01*
X100262000Y-31815300D02*
X100195333Y-31848633D01*
X101195333Y-32348633D02*
X101195333Y-31981966D01*
X101195333Y-31981966D02*
X101162000Y-31915300D01*
X101162000Y-31915300D02*
X101095333Y-31881966D01*
X101095333Y-31881966D02*
X100962000Y-31881966D01*
X100962000Y-31881966D02*
X100895333Y-31915300D01*
X101195333Y-32315300D02*
X101128667Y-32348633D01*
X101128667Y-32348633D02*
X100962000Y-32348633D01*
X100962000Y-32348633D02*
X100895333Y-32315300D01*
X100895333Y-32315300D02*
X100862000Y-32248633D01*
X100862000Y-32248633D02*
X100862000Y-32181966D01*
X100862000Y-32181966D02*
X100895333Y-32115300D01*
X100895333Y-32115300D02*
X100962000Y-32081966D01*
X100962000Y-32081966D02*
X101128667Y-32081966D01*
X101128667Y-32081966D02*
X101195333Y-32048633D01*
X101662000Y-31648633D02*
X101795333Y-31648633D01*
X101795333Y-31648633D02*
X101862000Y-31681966D01*
X101862000Y-31681966D02*
X101928666Y-31748633D01*
X101928666Y-31748633D02*
X101962000Y-31881966D01*
X101962000Y-31881966D02*
X101962000Y-32115300D01*
X101962000Y-32115300D02*
X101928666Y-32248633D01*
X101928666Y-32248633D02*
X101862000Y-32315300D01*
X101862000Y-32315300D02*
X101795333Y-32348633D01*
X101795333Y-32348633D02*
X101662000Y-32348633D01*
X101662000Y-32348633D02*
X101595333Y-32315300D01*
X101595333Y-32315300D02*
X101528666Y-32248633D01*
X101528666Y-32248633D02*
X101495333Y-32115300D01*
X101495333Y-32115300D02*
X101495333Y-31881966D01*
X101495333Y-31881966D02*
X101528666Y-31748633D01*
X101528666Y-31748633D02*
X101595333Y-31681966D01*
X101595333Y-31681966D02*
X101662000Y-31648633D01*
X99695333Y-38252633D02*
X99695333Y-38819300D01*
X99695333Y-38819300D02*
X99728667Y-38885966D01*
X99728667Y-38885966D02*
X99762000Y-38919300D01*
X99762000Y-38919300D02*
X99828667Y-38952633D01*
X99828667Y-38952633D02*
X99962000Y-38952633D01*
X99962000Y-38952633D02*
X100028667Y-38919300D01*
X100028667Y-38919300D02*
X100062000Y-38885966D01*
X100062000Y-38885966D02*
X100095333Y-38819300D01*
X100095333Y-38819300D02*
X100095333Y-38252633D01*
X100795333Y-38952633D02*
X100395333Y-38952633D01*
X100595333Y-38952633D02*
X100595333Y-38252633D01*
X100595333Y-38252633D02*
X100528666Y-38352633D01*
X100528666Y-38352633D02*
X100462000Y-38419300D01*
X100462000Y-38419300D02*
X100395333Y-38452633D01*
X101395333Y-38952633D02*
X101395333Y-38585966D01*
X101395333Y-38585966D02*
X101362000Y-38519300D01*
X101362000Y-38519300D02*
X101295333Y-38485966D01*
X101295333Y-38485966D02*
X101162000Y-38485966D01*
X101162000Y-38485966D02*
X101095333Y-38519300D01*
X101395333Y-38919300D02*
X101328667Y-38952633D01*
X101328667Y-38952633D02*
X101162000Y-38952633D01*
X101162000Y-38952633D02*
X101095333Y-38919300D01*
X101095333Y-38919300D02*
X101062000Y-38852633D01*
X101062000Y-38852633D02*
X101062000Y-38785966D01*
X101062000Y-38785966D02*
X101095333Y-38719300D01*
X101095333Y-38719300D02*
X101162000Y-38685966D01*
X101162000Y-38685966D02*
X101328667Y-38685966D01*
X101328667Y-38685966D02*
X101395333Y-38652633D01*
X101728666Y-38952633D02*
X101728666Y-38252633D01*
X103135333Y-32348633D02*
X102902000Y-32015300D01*
X102735333Y-32348633D02*
X102735333Y-31648633D01*
X102735333Y-31648633D02*
X103002000Y-31648633D01*
X103002000Y-31648633D02*
X103068667Y-31681966D01*
X103068667Y-31681966D02*
X103102000Y-31715300D01*
X103102000Y-31715300D02*
X103135333Y-31781966D01*
X103135333Y-31781966D02*
X103135333Y-31881966D01*
X103135333Y-31881966D02*
X103102000Y-31948633D01*
X103102000Y-31948633D02*
X103068667Y-31981966D01*
X103068667Y-31981966D02*
X103002000Y-32015300D01*
X103002000Y-32015300D02*
X102735333Y-32015300D01*
X103402000Y-31715300D02*
X103435333Y-31681966D01*
X103435333Y-31681966D02*
X103502000Y-31648633D01*
X103502000Y-31648633D02*
X103668667Y-31648633D01*
X103668667Y-31648633D02*
X103735333Y-31681966D01*
X103735333Y-31681966D02*
X103768667Y-31715300D01*
X103768667Y-31715300D02*
X103802000Y-31781966D01*
X103802000Y-31781966D02*
X103802000Y-31848633D01*
X103802000Y-31848633D02*
X103768667Y-31948633D01*
X103768667Y-31948633D02*
X103368667Y-32348633D01*
X103368667Y-32348633D02*
X103802000Y-32348633D01*
X103135333Y-38952633D02*
X102902000Y-38619300D01*
X102735333Y-38952633D02*
X102735333Y-38252633D01*
X102735333Y-38252633D02*
X103002000Y-38252633D01*
X103002000Y-38252633D02*
X103068667Y-38285966D01*
X103068667Y-38285966D02*
X103102000Y-38319300D01*
X103102000Y-38319300D02*
X103135333Y-38385966D01*
X103135333Y-38385966D02*
X103135333Y-38485966D01*
X103135333Y-38485966D02*
X103102000Y-38552633D01*
X103102000Y-38552633D02*
X103068667Y-38585966D01*
X103068667Y-38585966D02*
X103002000Y-38619300D01*
X103002000Y-38619300D02*
X102735333Y-38619300D01*
X103402000Y-38319300D02*
X103435333Y-38285966D01*
X103435333Y-38285966D02*
X103502000Y-38252633D01*
X103502000Y-38252633D02*
X103668667Y-38252633D01*
X103668667Y-38252633D02*
X103735333Y-38285966D01*
X103735333Y-38285966D02*
X103768667Y-38319300D01*
X103768667Y-38319300D02*
X103802000Y-38385966D01*
X103802000Y-38385966D02*
X103802000Y-38452633D01*
X103802000Y-38452633D02*
X103768667Y-38552633D01*
X103768667Y-38552633D02*
X103368667Y-38952633D01*
X103368667Y-38952633D02*
X103802000Y-38952633D01*
X105258667Y-31681966D02*
X105192000Y-31648633D01*
X105192000Y-31648633D02*
X105092000Y-31648633D01*
X105092000Y-31648633D02*
X104992000Y-31681966D01*
X104992000Y-31681966D02*
X104925334Y-31748633D01*
X104925334Y-31748633D02*
X104892000Y-31815300D01*
X104892000Y-31815300D02*
X104858667Y-31948633D01*
X104858667Y-31948633D02*
X104858667Y-32048633D01*
X104858667Y-32048633D02*
X104892000Y-32181966D01*
X104892000Y-32181966D02*
X104925334Y-32248633D01*
X104925334Y-32248633D02*
X104992000Y-32315300D01*
X104992000Y-32315300D02*
X105092000Y-32348633D01*
X105092000Y-32348633D02*
X105158667Y-32348633D01*
X105158667Y-32348633D02*
X105258667Y-32315300D01*
X105258667Y-32315300D02*
X105292000Y-32281966D01*
X105292000Y-32281966D02*
X105292000Y-32048633D01*
X105292000Y-32048633D02*
X105158667Y-32048633D01*
X105592000Y-32348633D02*
X105592000Y-31648633D01*
X105592000Y-31648633D02*
X105992000Y-32348633D01*
X105992000Y-32348633D02*
X105992000Y-31648633D01*
X106325333Y-32348633D02*
X106325333Y-31648633D01*
X106325333Y-31648633D02*
X106492000Y-31648633D01*
X106492000Y-31648633D02*
X106592000Y-31681966D01*
X106592000Y-31681966D02*
X106658667Y-31748633D01*
X106658667Y-31748633D02*
X106692000Y-31815300D01*
X106692000Y-31815300D02*
X106725333Y-31948633D01*
X106725333Y-31948633D02*
X106725333Y-32048633D01*
X106725333Y-32048633D02*
X106692000Y-32181966D01*
X106692000Y-32181966D02*
X106658667Y-32248633D01*
X106658667Y-32248633D02*
X106592000Y-32315300D01*
X106592000Y-32315300D02*
X106492000Y-32348633D01*
X106492000Y-32348633D02*
X106325333Y-32348633D01*
X105258667Y-38285966D02*
X105192000Y-38252633D01*
X105192000Y-38252633D02*
X105092000Y-38252633D01*
X105092000Y-38252633D02*
X104992000Y-38285966D01*
X104992000Y-38285966D02*
X104925334Y-38352633D01*
X104925334Y-38352633D02*
X104892000Y-38419300D01*
X104892000Y-38419300D02*
X104858667Y-38552633D01*
X104858667Y-38552633D02*
X104858667Y-38652633D01*
X104858667Y-38652633D02*
X104892000Y-38785966D01*
X104892000Y-38785966D02*
X104925334Y-38852633D01*
X104925334Y-38852633D02*
X104992000Y-38919300D01*
X104992000Y-38919300D02*
X105092000Y-38952633D01*
X105092000Y-38952633D02*
X105158667Y-38952633D01*
X105158667Y-38952633D02*
X105258667Y-38919300D01*
X105258667Y-38919300D02*
X105292000Y-38885966D01*
X105292000Y-38885966D02*
X105292000Y-38652633D01*
X105292000Y-38652633D02*
X105158667Y-38652633D01*
X105592000Y-38952633D02*
X105592000Y-38252633D01*
X105592000Y-38252633D02*
X105992000Y-38952633D01*
X105992000Y-38952633D02*
X105992000Y-38252633D01*
X106325333Y-38952633D02*
X106325333Y-38252633D01*
X106325333Y-38252633D02*
X106492000Y-38252633D01*
X106492000Y-38252633D02*
X106592000Y-38285966D01*
X106592000Y-38285966D02*
X106658667Y-38352633D01*
X106658667Y-38352633D02*
X106692000Y-38419300D01*
X106692000Y-38419300D02*
X106725333Y-38552633D01*
X106725333Y-38552633D02*
X106725333Y-38652633D01*
X106725333Y-38652633D02*
X106692000Y-38785966D01*
X106692000Y-38785966D02*
X106658667Y-38852633D01*
X106658667Y-38852633D02*
X106592000Y-38919300D01*
X106592000Y-38919300D02*
X106492000Y-38952633D01*
X106492000Y-38952633D02*
X106325333Y-38952633D01*
D11*
X95771819Y-66380077D02*
X96771819Y-66046744D01*
X96771819Y-66046744D02*
X95771819Y-65713411D01*
X96771819Y-65380077D02*
X96105152Y-65380077D01*
X95771819Y-65380077D02*
X95819438Y-65427696D01*
X95819438Y-65427696D02*
X95867057Y-65380077D01*
X95867057Y-65380077D02*
X95819438Y-65332458D01*
X95819438Y-65332458D02*
X95771819Y-65380077D01*
X95771819Y-65380077D02*
X95867057Y-65380077D01*
X96771819Y-64475316D02*
X95771819Y-64475316D01*
X96724200Y-64475316D02*
X96771819Y-64570554D01*
X96771819Y-64570554D02*
X96771819Y-64761030D01*
X96771819Y-64761030D02*
X96724200Y-64856268D01*
X96724200Y-64856268D02*
X96676580Y-64903887D01*
X96676580Y-64903887D02*
X96581342Y-64951506D01*
X96581342Y-64951506D02*
X96295628Y-64951506D01*
X96295628Y-64951506D02*
X96200390Y-64903887D01*
X96200390Y-64903887D02*
X96152771Y-64856268D01*
X96152771Y-64856268D02*
X96105152Y-64761030D01*
X96105152Y-64761030D02*
X96105152Y-64570554D01*
X96105152Y-64570554D02*
X96152771Y-64475316D01*
X96724200Y-63618173D02*
X96771819Y-63713411D01*
X96771819Y-63713411D02*
X96771819Y-63903887D01*
X96771819Y-63903887D02*
X96724200Y-63999125D01*
X96724200Y-63999125D02*
X96628961Y-64046744D01*
X96628961Y-64046744D02*
X96248009Y-64046744D01*
X96248009Y-64046744D02*
X96152771Y-63999125D01*
X96152771Y-63999125D02*
X96105152Y-63903887D01*
X96105152Y-63903887D02*
X96105152Y-63713411D01*
X96105152Y-63713411D02*
X96152771Y-63618173D01*
X96152771Y-63618173D02*
X96248009Y-63570554D01*
X96248009Y-63570554D02*
X96343247Y-63570554D01*
X96343247Y-63570554D02*
X96438485Y-64046744D01*
X96771819Y-62999125D02*
X96724200Y-63094363D01*
X96724200Y-63094363D02*
X96676580Y-63141982D01*
X96676580Y-63141982D02*
X96581342Y-63189601D01*
X96581342Y-63189601D02*
X96295628Y-63189601D01*
X96295628Y-63189601D02*
X96200390Y-63141982D01*
X96200390Y-63141982D02*
X96152771Y-63094363D01*
X96152771Y-63094363D02*
X96105152Y-62999125D01*
X96105152Y-62999125D02*
X96105152Y-62856268D01*
X96105152Y-62856268D02*
X96152771Y-62761030D01*
X96152771Y-62761030D02*
X96200390Y-62713411D01*
X96200390Y-62713411D02*
X96295628Y-62665792D01*
X96295628Y-62665792D02*
X96581342Y-62665792D01*
X96581342Y-62665792D02*
X96676580Y-62713411D01*
X96676580Y-62713411D02*
X96724200Y-62761030D01*
X96724200Y-62761030D02*
X96771819Y-62856268D01*
X96771819Y-62856268D02*
X96771819Y-62999125D01*
X95771819Y-62237220D02*
X96581342Y-62237220D01*
X96581342Y-62237220D02*
X96676580Y-62189601D01*
X96676580Y-62189601D02*
X96724200Y-62141982D01*
X96724200Y-62141982D02*
X96771819Y-62046744D01*
X96771819Y-62046744D02*
X96771819Y-61856268D01*
X96771819Y-61856268D02*
X96724200Y-61761030D01*
X96724200Y-61761030D02*
X96676580Y-61713411D01*
X96676580Y-61713411D02*
X96581342Y-61665792D01*
X96581342Y-61665792D02*
X95771819Y-61665792D01*
X96771819Y-60713411D02*
X96771819Y-61189601D01*
X96771819Y-61189601D02*
X95771819Y-61189601D01*
X96486104Y-60427696D02*
X96486104Y-59951506D01*
X96771819Y-60522934D02*
X95771819Y-60189601D01*
X95771819Y-60189601D02*
X96771819Y-59856268D01*
X96248009Y-58427696D02*
X96295628Y-58284839D01*
X96295628Y-58284839D02*
X96343247Y-58237220D01*
X96343247Y-58237220D02*
X96438485Y-58189601D01*
X96438485Y-58189601D02*
X96581342Y-58189601D01*
X96581342Y-58189601D02*
X96676580Y-58237220D01*
X96676580Y-58237220D02*
X96724200Y-58284839D01*
X96724200Y-58284839D02*
X96771819Y-58380077D01*
X96771819Y-58380077D02*
X96771819Y-58761029D01*
X96771819Y-58761029D02*
X95771819Y-58761029D01*
X95771819Y-58761029D02*
X95771819Y-58427696D01*
X95771819Y-58427696D02*
X95819438Y-58332458D01*
X95819438Y-58332458D02*
X95867057Y-58284839D01*
X95867057Y-58284839D02*
X95962295Y-58237220D01*
X95962295Y-58237220D02*
X96057533Y-58237220D01*
X96057533Y-58237220D02*
X96152771Y-58284839D01*
X96152771Y-58284839D02*
X96200390Y-58332458D01*
X96200390Y-58332458D02*
X96248009Y-58427696D01*
X96248009Y-58427696D02*
X96248009Y-58761029D01*
X96105152Y-57332458D02*
X96771819Y-57332458D01*
X96105152Y-57761029D02*
X96628961Y-57761029D01*
X96628961Y-57761029D02*
X96724200Y-57713410D01*
X96724200Y-57713410D02*
X96771819Y-57618172D01*
X96771819Y-57618172D02*
X96771819Y-57475315D01*
X96771819Y-57475315D02*
X96724200Y-57380077D01*
X96724200Y-57380077D02*
X96676580Y-57332458D01*
X96105152Y-56999124D02*
X96105152Y-56618172D01*
X96771819Y-56856267D02*
X95914676Y-56856267D01*
X95914676Y-56856267D02*
X95819438Y-56808648D01*
X95819438Y-56808648D02*
X95771819Y-56713410D01*
X95771819Y-56713410D02*
X95771819Y-56618172D01*
X96105152Y-56427695D02*
X96105152Y-56046743D01*
X96771819Y-56284838D02*
X95914676Y-56284838D01*
X95914676Y-56284838D02*
X95819438Y-56237219D01*
X95819438Y-56237219D02*
X95771819Y-56141981D01*
X95771819Y-56141981D02*
X95771819Y-56046743D01*
X96724200Y-55332457D02*
X96771819Y-55427695D01*
X96771819Y-55427695D02*
X96771819Y-55618171D01*
X96771819Y-55618171D02*
X96724200Y-55713409D01*
X96724200Y-55713409D02*
X96628961Y-55761028D01*
X96628961Y-55761028D02*
X96248009Y-55761028D01*
X96248009Y-55761028D02*
X96152771Y-55713409D01*
X96152771Y-55713409D02*
X96105152Y-55618171D01*
X96105152Y-55618171D02*
X96105152Y-55427695D01*
X96105152Y-55427695D02*
X96152771Y-55332457D01*
X96152771Y-55332457D02*
X96248009Y-55284838D01*
X96248009Y-55284838D02*
X96343247Y-55284838D01*
X96343247Y-55284838D02*
X96438485Y-55761028D01*
X96771819Y-54856266D02*
X96105152Y-54856266D01*
X96295628Y-54856266D02*
X96200390Y-54808647D01*
X96200390Y-54808647D02*
X96152771Y-54761028D01*
X96152771Y-54761028D02*
X96105152Y-54665790D01*
X96105152Y-54665790D02*
X96105152Y-54570552D01*
X96248009Y-53141980D02*
X96295628Y-52999123D01*
X96295628Y-52999123D02*
X96343247Y-52951504D01*
X96343247Y-52951504D02*
X96438485Y-52903885D01*
X96438485Y-52903885D02*
X96581342Y-52903885D01*
X96581342Y-52903885D02*
X96676580Y-52951504D01*
X96676580Y-52951504D02*
X96724200Y-52999123D01*
X96724200Y-52999123D02*
X96771819Y-53094361D01*
X96771819Y-53094361D02*
X96771819Y-53475313D01*
X96771819Y-53475313D02*
X95771819Y-53475313D01*
X95771819Y-53475313D02*
X95771819Y-53141980D01*
X95771819Y-53141980D02*
X95819438Y-53046742D01*
X95819438Y-53046742D02*
X95867057Y-52999123D01*
X95867057Y-52999123D02*
X95962295Y-52951504D01*
X95962295Y-52951504D02*
X96057533Y-52951504D01*
X96057533Y-52951504D02*
X96152771Y-52999123D01*
X96152771Y-52999123D02*
X96200390Y-53046742D01*
X96200390Y-53046742D02*
X96248009Y-53141980D01*
X96248009Y-53141980D02*
X96248009Y-53475313D01*
X96771819Y-52332456D02*
X96724200Y-52427694D01*
X96724200Y-52427694D02*
X96676580Y-52475313D01*
X96676580Y-52475313D02*
X96581342Y-52522932D01*
X96581342Y-52522932D02*
X96295628Y-52522932D01*
X96295628Y-52522932D02*
X96200390Y-52475313D01*
X96200390Y-52475313D02*
X96152771Y-52427694D01*
X96152771Y-52427694D02*
X96105152Y-52332456D01*
X96105152Y-52332456D02*
X96105152Y-52189599D01*
X96105152Y-52189599D02*
X96152771Y-52094361D01*
X96152771Y-52094361D02*
X96200390Y-52046742D01*
X96200390Y-52046742D02*
X96295628Y-51999123D01*
X96295628Y-51999123D02*
X96581342Y-51999123D01*
X96581342Y-51999123D02*
X96676580Y-52046742D01*
X96676580Y-52046742D02*
X96724200Y-52094361D01*
X96724200Y-52094361D02*
X96771819Y-52189599D01*
X96771819Y-52189599D02*
X96771819Y-52332456D01*
X96771819Y-51141980D02*
X96248009Y-51141980D01*
X96248009Y-51141980D02*
X96152771Y-51189599D01*
X96152771Y-51189599D02*
X96105152Y-51284837D01*
X96105152Y-51284837D02*
X96105152Y-51475313D01*
X96105152Y-51475313D02*
X96152771Y-51570551D01*
X96724200Y-51141980D02*
X96771819Y-51237218D01*
X96771819Y-51237218D02*
X96771819Y-51475313D01*
X96771819Y-51475313D02*
X96724200Y-51570551D01*
X96724200Y-51570551D02*
X96628961Y-51618170D01*
X96628961Y-51618170D02*
X96533723Y-51618170D01*
X96533723Y-51618170D02*
X96438485Y-51570551D01*
X96438485Y-51570551D02*
X96390866Y-51475313D01*
X96390866Y-51475313D02*
X96390866Y-51237218D01*
X96390866Y-51237218D02*
X96343247Y-51141980D01*
X96771819Y-50665789D02*
X96105152Y-50665789D01*
X96295628Y-50665789D02*
X96200390Y-50618170D01*
X96200390Y-50618170D02*
X96152771Y-50570551D01*
X96152771Y-50570551D02*
X96105152Y-50475313D01*
X96105152Y-50475313D02*
X96105152Y-50380075D01*
X96771819Y-49618170D02*
X95771819Y-49618170D01*
X96724200Y-49618170D02*
X96771819Y-49713408D01*
X96771819Y-49713408D02*
X96771819Y-49903884D01*
X96771819Y-49903884D02*
X96724200Y-49999122D01*
X96724200Y-49999122D02*
X96676580Y-50046741D01*
X96676580Y-50046741D02*
X96581342Y-50094360D01*
X96581342Y-50094360D02*
X96295628Y-50094360D01*
X96295628Y-50094360D02*
X96200390Y-50046741D01*
X96200390Y-50046741D02*
X96152771Y-49999122D01*
X96152771Y-49999122D02*
X96105152Y-49903884D01*
X96105152Y-49903884D02*
X96105152Y-49713408D01*
X96105152Y-49713408D02*
X96152771Y-49618170D01*
X98172095Y-47696819D02*
X98172095Y-48506342D01*
X98172095Y-48506342D02*
X98219714Y-48601580D01*
X98219714Y-48601580D02*
X98267333Y-48649200D01*
X98267333Y-48649200D02*
X98362571Y-48696819D01*
X98362571Y-48696819D02*
X98553047Y-48696819D01*
X98553047Y-48696819D02*
X98648285Y-48649200D01*
X98648285Y-48649200D02*
X98695904Y-48601580D01*
X98695904Y-48601580D02*
X98743523Y-48506342D01*
X98743523Y-48506342D02*
X98743523Y-47696819D01*
X99743523Y-48696819D02*
X99172095Y-48696819D01*
X99457809Y-48696819D02*
X99457809Y-47696819D01*
X99457809Y-47696819D02*
X99362571Y-47839676D01*
X99362571Y-47839676D02*
X99267333Y-47934914D01*
X99267333Y-47934914D02*
X99172095Y-47982533D01*
X99783333Y-46867580D02*
X99735714Y-46915200D01*
X99735714Y-46915200D02*
X99592857Y-46962819D01*
X99592857Y-46962819D02*
X99497619Y-46962819D01*
X99497619Y-46962819D02*
X99354762Y-46915200D01*
X99354762Y-46915200D02*
X99259524Y-46819961D01*
X99259524Y-46819961D02*
X99211905Y-46724723D01*
X99211905Y-46724723D02*
X99164286Y-46534247D01*
X99164286Y-46534247D02*
X99164286Y-46391390D01*
X99164286Y-46391390D02*
X99211905Y-46200914D01*
X99211905Y-46200914D02*
X99259524Y-46105676D01*
X99259524Y-46105676D02*
X99354762Y-46010438D01*
X99354762Y-46010438D02*
X99497619Y-45962819D01*
X99497619Y-45962819D02*
X99592857Y-45962819D01*
X99592857Y-45962819D02*
X99735714Y-46010438D01*
X99735714Y-46010438D02*
X99783333Y-46058057D01*
X100735714Y-46962819D02*
X100164286Y-46962819D01*
X100450000Y-46962819D02*
X100450000Y-45962819D01*
X100450000Y-45962819D02*
X100354762Y-46105676D01*
X100354762Y-46105676D02*
X100259524Y-46200914D01*
X100259524Y-46200914D02*
X100164286Y-46248533D01*
X96989333Y-43025819D02*
X96656000Y-42549628D01*
X96417905Y-43025819D02*
X96417905Y-42025819D01*
X96417905Y-42025819D02*
X96798857Y-42025819D01*
X96798857Y-42025819D02*
X96894095Y-42073438D01*
X96894095Y-42073438D02*
X96941714Y-42121057D01*
X96941714Y-42121057D02*
X96989333Y-42216295D01*
X96989333Y-42216295D02*
X96989333Y-42359152D01*
X96989333Y-42359152D02*
X96941714Y-42454390D01*
X96941714Y-42454390D02*
X96894095Y-42502009D01*
X96894095Y-42502009D02*
X96798857Y-42549628D01*
X96798857Y-42549628D02*
X96417905Y-42549628D01*
X97941714Y-43025819D02*
X97370286Y-43025819D01*
X97656000Y-43025819D02*
X97656000Y-42025819D01*
X97656000Y-42025819D02*
X97560762Y-42168676D01*
X97560762Y-42168676D02*
X97465524Y-42263914D01*
X97465524Y-42263914D02*
X97370286Y-42311533D01*
X96989333Y-46327819D02*
X96656000Y-45851628D01*
X96417905Y-46327819D02*
X96417905Y-45327819D01*
X96417905Y-45327819D02*
X96798857Y-45327819D01*
X96798857Y-45327819D02*
X96894095Y-45375438D01*
X96894095Y-45375438D02*
X96941714Y-45423057D01*
X96941714Y-45423057D02*
X96989333Y-45518295D01*
X96989333Y-45518295D02*
X96989333Y-45661152D01*
X96989333Y-45661152D02*
X96941714Y-45756390D01*
X96941714Y-45756390D02*
X96894095Y-45804009D01*
X96894095Y-45804009D02*
X96798857Y-45851628D01*
X96798857Y-45851628D02*
X96417905Y-45851628D01*
X97370286Y-45423057D02*
X97417905Y-45375438D01*
X97417905Y-45375438D02*
X97513143Y-45327819D01*
X97513143Y-45327819D02*
X97751238Y-45327819D01*
X97751238Y-45327819D02*
X97846476Y-45375438D01*
X97846476Y-45375438D02*
X97894095Y-45423057D01*
X97894095Y-45423057D02*
X97941714Y-45518295D01*
X97941714Y-45518295D02*
X97941714Y-45613533D01*
X97941714Y-45613533D02*
X97894095Y-45756390D01*
X97894095Y-45756390D02*
X97322667Y-46327819D01*
X97322667Y-46327819D02*
X97941714Y-46327819D01*
%TO.C,IC1*%
D12*
X77488000Y-31462000D02*
X77488000Y-67142000D01*
X77488000Y-67142000D02*
X90408000Y-67142000D01*
X82948000Y-31462000D02*
X77488000Y-31462000D01*
X90408000Y-31462000D02*
X84948000Y-31462000D01*
X90408000Y-67142000D02*
X90408000Y-31462000D01*
X74998000Y-31402000D02*
X92898000Y-31402000D01*
X92898000Y-67202000D01*
X74998000Y-67202000D01*
X74998000Y-31402000D01*
X84948000Y-31462000D02*
G75*
G02*
X82948000Y-31462000I-1000000J0D01*
G01*
%TO.C,U1*%
X100348000Y-49242000D02*
X100348000Y-67142000D01*
X100348000Y-67142000D02*
X105648000Y-67142000D01*
X101998000Y-49242000D02*
X100348000Y-49242000D01*
X105648000Y-49242000D02*
X103998000Y-49242000D01*
X105648000Y-67142000D02*
X105648000Y-49242000D01*
X97858000Y-49182000D02*
X108138000Y-49182000D01*
X108138000Y-67202000D01*
X97858000Y-67202000D01*
X97858000Y-49182000D01*
X103998000Y-49242000D02*
G75*
G02*
X101998000Y-49242000I-1000000J0D01*
G01*
%TO.C,J4*%
X96792000Y-32682000D02*
X107172000Y-32682000D01*
X96792000Y-35332000D02*
X96792000Y-32682000D01*
X96792000Y-37982000D02*
X96792000Y-36602000D01*
X98172000Y-37982000D02*
X96792000Y-37982000D01*
X99442000Y-35332000D02*
X96792000Y-35332000D01*
X99442000Y-37982000D02*
X99442000Y-35332000D01*
X99442000Y-37982000D02*
X107172000Y-37982000D01*
X107172000Y-37982000D02*
X107172000Y-32682000D01*
%TO.C,C1*%
X102038000Y-46200000D02*
X106578000Y-46200000D01*
X102038000Y-46256000D02*
X102038000Y-46200000D01*
X106578000Y-48284000D02*
X106578000Y-48340000D01*
X106578000Y-48340000D02*
X102038000Y-48340000D01*
%TO.C,R1*%
X97688000Y-40920000D02*
X98458000Y-40920000D01*
X105768000Y-40920000D02*
X104998000Y-40920000D01*
X98458000Y-39550000D02*
X104998000Y-39550000D01*
X104998000Y-42290000D01*
X98458000Y-42290000D01*
X98458000Y-39550000D01*
%TO.C,R2*%
X97688000Y-44222000D02*
X98458000Y-44222000D01*
X105768000Y-44222000D02*
X104998000Y-44222000D01*
X98458000Y-42852000D02*
X104998000Y-42852000D01*
X104998000Y-45592000D01*
X98458000Y-45592000D01*
X98458000Y-42852000D01*
%TO.C,J3*%
X68598000Y-31412000D02*
X69978000Y-31412000D01*
X68598000Y-32792000D02*
X68598000Y-31412000D01*
X68598000Y-34062000D02*
X68598000Y-67192000D01*
X68598000Y-34062000D02*
X71248000Y-34062000D01*
X68598000Y-67192000D02*
X73898000Y-67192000D01*
X71248000Y-31412000D02*
X73898000Y-31412000D01*
X71248000Y-34062000D02*
X71248000Y-31412000D01*
X73898000Y-31412000D02*
X73898000Y-67192000D01*
%TD*%
M02*
