%TF.GenerationSoftware,KiCad,Pcbnew,10.0.5*%
%TF.CreationDate,2026-07-31T20:33:21+01:00*%
%TF.ProjectId,BufferBoard,42756666-6572-4426-9f61-72642e6b6963,01*%
%TF.SameCoordinates,Original*%
%TF.FileFunction,Legend,Bot*%
%TF.FilePolarity,Positive*%
%FSLAX46Y46*%
G04 Gerber Fmt 4.6, Leading zero omitted, Abs format (unit mm)*
G04 Created by KiCad (PCBNEW 10.0.5) date 2026-07-31 20:33:21*
%MOMM*%
%LPD*%
G01*
G04 APERTURE LIST*
%ADD10C,0.150000*%
%ADD11C,0.120000*%
G04 APERTURE END LIST*
D10*
X81328000Y-35792000D02*
X89328000Y-35792000D01*
X89328000Y-43792000D01*
X81328000Y-43792000D01*
X81328000Y-35792000D01*
G36*
X81328000Y-35792000D02*
G01*
X89328000Y-35792000D01*
X89328000Y-43792000D01*
X81328000Y-43792000D01*
X81328000Y-35792000D01*
G37*
X96517914Y-47400303D02*
X96470295Y-47305064D01*
X96470295Y-47305064D02*
X96470295Y-47114588D01*
X96470295Y-47114588D02*
X96517914Y-47019350D01*
X96517914Y-47019350D02*
X96613152Y-46924112D01*
X96613152Y-46924112D02*
X96708390Y-46876493D01*
X96708390Y-46876493D02*
X96898866Y-46876493D01*
X96898866Y-46876493D02*
X96994104Y-46924112D01*
X96994104Y-46924112D02*
X97089342Y-47019350D01*
X97089342Y-47019350D02*
X97136961Y-47114588D01*
X97136961Y-47114588D02*
X97136961Y-47305064D01*
X97136961Y-47305064D02*
X97089342Y-47400303D01*
X96136961Y-47209826D02*
X96184580Y-46971731D01*
X96184580Y-46971731D02*
X96327438Y-46733636D01*
X96327438Y-46733636D02*
X96565533Y-46590779D01*
X96565533Y-46590779D02*
X96803628Y-46543160D01*
X96803628Y-46543160D02*
X97041723Y-46590779D01*
X97041723Y-46590779D02*
X97279819Y-46733636D01*
X97279819Y-46733636D02*
X97422676Y-46971731D01*
X97422676Y-46971731D02*
X97470295Y-47209826D01*
X97470295Y-47209826D02*
X97422676Y-47447922D01*
X97422676Y-47447922D02*
X97279819Y-47686017D01*
X97279819Y-47686017D02*
X97041723Y-47828874D01*
X97041723Y-47828874D02*
X96803628Y-47876493D01*
X96803628Y-47876493D02*
X96565533Y-47828874D01*
X96565533Y-47828874D02*
X96327438Y-47686017D01*
X96327438Y-47686017D02*
X96184580Y-47447922D01*
X96184580Y-47447922D02*
X96136961Y-47209826D01*
X97279819Y-49066970D02*
X96279819Y-49066970D01*
X97279819Y-49638398D02*
X96708390Y-49209827D01*
X96279819Y-49638398D02*
X96851247Y-49066970D01*
X97232200Y-50447922D02*
X97279819Y-50352684D01*
X97279819Y-50352684D02*
X97279819Y-50162208D01*
X97279819Y-50162208D02*
X97232200Y-50066970D01*
X97232200Y-50066970D02*
X97136961Y-50019351D01*
X97136961Y-50019351D02*
X96756009Y-50019351D01*
X96756009Y-50019351D02*
X96660771Y-50066970D01*
X96660771Y-50066970D02*
X96613152Y-50162208D01*
X96613152Y-50162208D02*
X96613152Y-50352684D01*
X96613152Y-50352684D02*
X96660771Y-50447922D01*
X96660771Y-50447922D02*
X96756009Y-50495541D01*
X96756009Y-50495541D02*
X96851247Y-50495541D01*
X96851247Y-50495541D02*
X96946485Y-50019351D01*
X96613152Y-50924113D02*
X97279819Y-50924113D01*
X96708390Y-50924113D02*
X96660771Y-50971732D01*
X96660771Y-50971732D02*
X96613152Y-51066970D01*
X96613152Y-51066970D02*
X96613152Y-51209827D01*
X96613152Y-51209827D02*
X96660771Y-51305065D01*
X96660771Y-51305065D02*
X96756009Y-51352684D01*
X96756009Y-51352684D02*
X97279819Y-51352684D01*
X97279819Y-53066970D02*
X97279819Y-52590780D01*
X97279819Y-52590780D02*
X96279819Y-52590780D01*
X97279819Y-53543161D02*
X97232200Y-53447923D01*
X97232200Y-53447923D02*
X97184580Y-53400304D01*
X97184580Y-53400304D02*
X97089342Y-53352685D01*
X97089342Y-53352685D02*
X96803628Y-53352685D01*
X96803628Y-53352685D02*
X96708390Y-53400304D01*
X96708390Y-53400304D02*
X96660771Y-53447923D01*
X96660771Y-53447923D02*
X96613152Y-53543161D01*
X96613152Y-53543161D02*
X96613152Y-53686018D01*
X96613152Y-53686018D02*
X96660771Y-53781256D01*
X96660771Y-53781256D02*
X96708390Y-53828875D01*
X96708390Y-53828875D02*
X96803628Y-53876494D01*
X96803628Y-53876494D02*
X97089342Y-53876494D01*
X97089342Y-53876494D02*
X97184580Y-53828875D01*
X97184580Y-53828875D02*
X97232200Y-53781256D01*
X97232200Y-53781256D02*
X97279819Y-53686018D01*
X97279819Y-53686018D02*
X97279819Y-53543161D01*
X96613152Y-54209828D02*
X97279819Y-54400304D01*
X97279819Y-54400304D02*
X96803628Y-54590780D01*
X96803628Y-54590780D02*
X97279819Y-54781256D01*
X97279819Y-54781256D02*
X96613152Y-54971732D01*
X97232200Y-55733637D02*
X97279819Y-55638399D01*
X97279819Y-55638399D02*
X97279819Y-55447923D01*
X97279819Y-55447923D02*
X97232200Y-55352685D01*
X97232200Y-55352685D02*
X97136961Y-55305066D01*
X97136961Y-55305066D02*
X96756009Y-55305066D01*
X96756009Y-55305066D02*
X96660771Y-55352685D01*
X96660771Y-55352685D02*
X96613152Y-55447923D01*
X96613152Y-55447923D02*
X96613152Y-55638399D01*
X96613152Y-55638399D02*
X96660771Y-55733637D01*
X96660771Y-55733637D02*
X96756009Y-55781256D01*
X96756009Y-55781256D02*
X96851247Y-55781256D01*
X96851247Y-55781256D02*
X96946485Y-55305066D01*
X96898866Y-56971733D02*
X96898866Y-57733638D01*
X96994104Y-58924114D02*
X96994104Y-59400304D01*
X97279819Y-58828876D02*
X96279819Y-59162209D01*
X96279819Y-59162209D02*
X97279819Y-59495542D01*
X96613152Y-60257447D02*
X97279819Y-60257447D01*
X96613152Y-59828876D02*
X97136961Y-59828876D01*
X97136961Y-59828876D02*
X97232200Y-59876495D01*
X97232200Y-59876495D02*
X97279819Y-59971733D01*
X97279819Y-59971733D02*
X97279819Y-60114590D01*
X97279819Y-60114590D02*
X97232200Y-60209828D01*
X97232200Y-60209828D02*
X97184580Y-60257447D01*
X96613152Y-61162209D02*
X97422676Y-61162209D01*
X97422676Y-61162209D02*
X97517914Y-61114590D01*
X97517914Y-61114590D02*
X97565533Y-61066971D01*
X97565533Y-61066971D02*
X97613152Y-60971733D01*
X97613152Y-60971733D02*
X97613152Y-60828876D01*
X97613152Y-60828876D02*
X97565533Y-60733638D01*
X97232200Y-61162209D02*
X97279819Y-61066971D01*
X97279819Y-61066971D02*
X97279819Y-60876495D01*
X97279819Y-60876495D02*
X97232200Y-60781257D01*
X97232200Y-60781257D02*
X97184580Y-60733638D01*
X97184580Y-60733638D02*
X97089342Y-60686019D01*
X97089342Y-60686019D02*
X96803628Y-60686019D01*
X96803628Y-60686019D02*
X96708390Y-60733638D01*
X96708390Y-60733638D02*
X96660771Y-60781257D01*
X96660771Y-60781257D02*
X96613152Y-60876495D01*
X96613152Y-60876495D02*
X96613152Y-61066971D01*
X96613152Y-61066971D02*
X96660771Y-61162209D01*
X96375057Y-62352686D02*
X96327438Y-62400305D01*
X96327438Y-62400305D02*
X96279819Y-62495543D01*
X96279819Y-62495543D02*
X96279819Y-62733638D01*
X96279819Y-62733638D02*
X96327438Y-62828876D01*
X96327438Y-62828876D02*
X96375057Y-62876495D01*
X96375057Y-62876495D02*
X96470295Y-62924114D01*
X96470295Y-62924114D02*
X96565533Y-62924114D01*
X96565533Y-62924114D02*
X96708390Y-62876495D01*
X96708390Y-62876495D02*
X97279819Y-62305067D01*
X97279819Y-62305067D02*
X97279819Y-62924114D01*
X96279819Y-63543162D02*
X96279819Y-63638400D01*
X96279819Y-63638400D02*
X96327438Y-63733638D01*
X96327438Y-63733638D02*
X96375057Y-63781257D01*
X96375057Y-63781257D02*
X96470295Y-63828876D01*
X96470295Y-63828876D02*
X96660771Y-63876495D01*
X96660771Y-63876495D02*
X96898866Y-63876495D01*
X96898866Y-63876495D02*
X97089342Y-63828876D01*
X97089342Y-63828876D02*
X97184580Y-63781257D01*
X97184580Y-63781257D02*
X97232200Y-63733638D01*
X97232200Y-63733638D02*
X97279819Y-63638400D01*
X97279819Y-63638400D02*
X97279819Y-63543162D01*
X97279819Y-63543162D02*
X97232200Y-63447924D01*
X97232200Y-63447924D02*
X97184580Y-63400305D01*
X97184580Y-63400305D02*
X97089342Y-63352686D01*
X97089342Y-63352686D02*
X96898866Y-63305067D01*
X96898866Y-63305067D02*
X96660771Y-63305067D01*
X96660771Y-63305067D02*
X96470295Y-63352686D01*
X96470295Y-63352686D02*
X96375057Y-63400305D01*
X96375057Y-63400305D02*
X96327438Y-63447924D01*
X96327438Y-63447924D02*
X96279819Y-63543162D01*
X96375057Y-64257448D02*
X96327438Y-64305067D01*
X96327438Y-64305067D02*
X96279819Y-64400305D01*
X96279819Y-64400305D02*
X96279819Y-64638400D01*
X96279819Y-64638400D02*
X96327438Y-64733638D01*
X96327438Y-64733638D02*
X96375057Y-64781257D01*
X96375057Y-64781257D02*
X96470295Y-64828876D01*
X96470295Y-64828876D02*
X96565533Y-64828876D01*
X96565533Y-64828876D02*
X96708390Y-64781257D01*
X96708390Y-64781257D02*
X97279819Y-64209829D01*
X97279819Y-64209829D02*
X97279819Y-64828876D01*
X96279819Y-65686019D02*
X96279819Y-65495543D01*
X96279819Y-65495543D02*
X96327438Y-65400305D01*
X96327438Y-65400305D02*
X96375057Y-65352686D01*
X96375057Y-65352686D02*
X96517914Y-65257448D01*
X96517914Y-65257448D02*
X96708390Y-65209829D01*
X96708390Y-65209829D02*
X97089342Y-65209829D01*
X97089342Y-65209829D02*
X97184580Y-65257448D01*
X97184580Y-65257448D02*
X97232200Y-65305067D01*
X97232200Y-65305067D02*
X97279819Y-65400305D01*
X97279819Y-65400305D02*
X97279819Y-65590781D01*
X97279819Y-65590781D02*
X97232200Y-65686019D01*
X97232200Y-65686019D02*
X97184580Y-65733638D01*
X97184580Y-65733638D02*
X97089342Y-65781257D01*
X97089342Y-65781257D02*
X96851247Y-65781257D01*
X96851247Y-65781257D02*
X96756009Y-65733638D01*
X96756009Y-65733638D02*
X96708390Y-65686019D01*
X96708390Y-65686019D02*
X96660771Y-65590781D01*
X96660771Y-65590781D02*
X96660771Y-65400305D01*
X96660771Y-65400305D02*
X96708390Y-65305067D01*
X96708390Y-65305067D02*
X96756009Y-65257448D01*
X96756009Y-65257448D02*
X96851247Y-65209829D01*
X105153819Y-61640207D02*
X104677628Y-61306874D01*
X105153819Y-61068779D02*
X104153819Y-61068779D01*
X104153819Y-61068779D02*
X104153819Y-61449731D01*
X104153819Y-61449731D02*
X104201438Y-61544969D01*
X104201438Y-61544969D02*
X104249057Y-61592588D01*
X104249057Y-61592588D02*
X104344295Y-61640207D01*
X104344295Y-61640207D02*
X104487152Y-61640207D01*
X104487152Y-61640207D02*
X104582390Y-61592588D01*
X104582390Y-61592588D02*
X104630009Y-61544969D01*
X104630009Y-61544969D02*
X104677628Y-61449731D01*
X104677628Y-61449731D02*
X104677628Y-61068779D01*
X105106200Y-62449731D02*
X105153819Y-62354493D01*
X105153819Y-62354493D02*
X105153819Y-62164017D01*
X105153819Y-62164017D02*
X105106200Y-62068779D01*
X105106200Y-62068779D02*
X105010961Y-62021160D01*
X105010961Y-62021160D02*
X104630009Y-62021160D01*
X104630009Y-62021160D02*
X104534771Y-62068779D01*
X104534771Y-62068779D02*
X104487152Y-62164017D01*
X104487152Y-62164017D02*
X104487152Y-62354493D01*
X104487152Y-62354493D02*
X104534771Y-62449731D01*
X104534771Y-62449731D02*
X104630009Y-62497350D01*
X104630009Y-62497350D02*
X104725247Y-62497350D01*
X104725247Y-62497350D02*
X104820485Y-62021160D01*
X104487152Y-62830684D02*
X105153819Y-63068779D01*
X105153819Y-63068779D02*
X104487152Y-63306874D01*
X104153819Y-64640208D02*
X104153819Y-64735446D01*
X104153819Y-64735446D02*
X104201438Y-64830684D01*
X104201438Y-64830684D02*
X104249057Y-64878303D01*
X104249057Y-64878303D02*
X104344295Y-64925922D01*
X104344295Y-64925922D02*
X104534771Y-64973541D01*
X104534771Y-64973541D02*
X104772866Y-64973541D01*
X104772866Y-64973541D02*
X104963342Y-64925922D01*
X104963342Y-64925922D02*
X105058580Y-64878303D01*
X105058580Y-64878303D02*
X105106200Y-64830684D01*
X105106200Y-64830684D02*
X105153819Y-64735446D01*
X105153819Y-64735446D02*
X105153819Y-64640208D01*
X105153819Y-64640208D02*
X105106200Y-64544970D01*
X105106200Y-64544970D02*
X105058580Y-64497351D01*
X105058580Y-64497351D02*
X104963342Y-64449732D01*
X104963342Y-64449732D02*
X104772866Y-64402113D01*
X104772866Y-64402113D02*
X104534771Y-64402113D01*
X104534771Y-64402113D02*
X104344295Y-64449732D01*
X104344295Y-64449732D02*
X104249057Y-64497351D01*
X104249057Y-64497351D02*
X104201438Y-64544970D01*
X104201438Y-64544970D02*
X104153819Y-64640208D01*
X105153819Y-65925922D02*
X105153819Y-65354494D01*
X105153819Y-65640208D02*
X104153819Y-65640208D01*
X104153819Y-65640208D02*
X104296676Y-65544970D01*
X104296676Y-65544970D02*
X104391914Y-65449732D01*
X104391914Y-65449732D02*
X104439533Y-65354494D01*
%TO.C,J2*%
D11*
X92728000Y-31412000D02*
X95488000Y-31412000D01*
X92728000Y-64542000D02*
X92728000Y-31412000D01*
X92728000Y-64542000D02*
X95488000Y-64542000D01*
X92728000Y-65812000D02*
X92728000Y-67192000D01*
X92728000Y-67192000D02*
X94108000Y-67192000D01*
X95488000Y-64542000D02*
X95488000Y-31412000D01*
%TO.C,J1*%
X77488000Y-34062000D02*
X77488000Y-67192000D01*
X80248000Y-31412000D02*
X78868000Y-31412000D01*
X80248000Y-32792000D02*
X80248000Y-31412000D01*
X80248000Y-34062000D02*
X77488000Y-34062000D01*
X80248000Y-34062000D02*
X80248000Y-67192000D01*
X80248000Y-67192000D02*
X77488000Y-67192000D01*
%TD*%
M02*
