%TF.GenerationSoftware,KiCad,Pcbnew,10.0.5*%
%TF.CreationDate,2026-07-31T20:33:21+01:00*%
%TF.ProjectId,BufferBoard,42756666-6572-4426-9f61-72642e6b6963,01*%
%TF.SameCoordinates,Original*%
%TF.FileFunction,Copper,L1,Top*%
%TF.FilePolarity,Positive*%
%FSLAX46Y46*%
G04 Gerber Fmt 4.6, Leading zero omitted, Abs format (unit mm)*
G04 Created by KiCad (PCBNEW 10.0.5) date 2026-07-31 20:33:21*
%MOMM*%
%LPD*%
G01*
G04 APERTURE LIST*
G04 Aperture macros list*
%AMRoundRect*
0 Rectangle with rounded corners*
0 $1 Rounding radius*
0 $2 $3 $4 $5 $6 $7 $8 $9 X,Y pos of 4 corners*
0 Add a 4 corners polygon primitive as box body*
4,1,4,$2,$3,$4,$5,$6,$7,$8,$9,$2,$3,0*
0 Add four circle primitives for the rounded corners*
1,1,$1+$1,$2,$3*
1,1,$1+$1,$4,$5*
1,1,$1+$1,$6,$7*
1,1,$1+$1,$8,$9*
0 Add four rect primitives between the rounded corners*
20,1,$1+$1,$2,$3,$4,$5,0*
20,1,$1+$1,$4,$5,$6,$7,0*
20,1,$1+$1,$6,$7,$8,$9,0*
20,1,$1+$1,$8,$9,$2,$3,0*%
G04 Aperture macros list end*
%TA.AperFunction,ComponentPad*%
%ADD10RoundRect,0.250000X-0.550000X-0.550000X0.550000X-0.550000X0.550000X0.550000X-0.550000X0.550000X0*%
%TD*%
%TA.AperFunction,ComponentPad*%
%ADD11C,1.600000*%
%TD*%
%TA.AperFunction,ComponentPad*%
%ADD12R,1.700000X1.700000*%
%TD*%
%TA.AperFunction,ComponentPad*%
%ADD13C,1.700000*%
%TD*%
%TA.AperFunction,Conductor*%
%ADD14C,0.250000*%
%TD*%
%TA.AperFunction,Conductor*%
%ADD15C,0.500000*%
%TD*%
%TA.AperFunction,Conductor*%
%ADD16C,0.400000*%
%TD*%
G04 APERTURE END LIST*
D10*
%TO.P,IC1,1,GND_1*%
%TO.N,GND*%
X76328000Y-32792000D03*
D11*
%TO.P,IC1,2,A0_2*%
%TO.N,/A0*%
X76328000Y-35332000D03*
%TO.P,IC1,3,CS_3*%
%TO.N,/~{CS}*%
X76328000Y-37872000D03*
%TO.P,IC1,4,1MHz_CLK_4*%
%TO.N,/1MHz_CLK*%
X76328000Y-40412000D03*
%TO.P,IC1,5,2MHz_CLK_5*%
%TO.N,/2MHz_CLK*%
X76328000Y-42952000D03*
%TO.P,IC1,6,4MHz_CLK_6*%
%TO.N,/4MHz_CLK*%
X76328000Y-45492000D03*
%TO.P,IC1,7,8MHz_CLK_7*%
%TO.N,/8MHz_CLK*%
X76328000Y-48032000D03*
%TO.P,IC1,8,16MHz_CLK_8*%
%TO.N,/16MHz_BUF*%
X76328000Y-50572000D03*
%TO.P,IC1,9,B_IN_9*%
%TO.N,/B_IN*%
X76328000Y-53112000D03*
%TO.P,IC1,10,B_10*%
%TO.N,/B*%
X76328000Y-55652000D03*
%TO.P,IC1,11,G_IN_11*%
%TO.N,/G_IN*%
X76328000Y-58192000D03*
%TO.P,IC1,12,G_12*%
%TO.N,/G*%
X76328000Y-60732000D03*
%TO.P,IC1,13,R_IN_13*%
%TO.N,/R_IN*%
X76328000Y-63272000D03*
%TO.P,IC1,14,R_14*%
%TO.N,/R*%
X76328000Y-65812000D03*
%TO.P,IC1,15*%
%TO.N,/Pin15*%
X91568000Y-65812000D03*
%TO.P,IC1,16,VCC_16*%
%TO.N,+5V*%
X91568000Y-63272000D03*
%TO.P,IC1,17,D0_17*%
%TO.N,/D0*%
X91568000Y-60732000D03*
%TO.P,IC1,18,D1_18*%
%TO.N,/D1*%
X91568000Y-58192000D03*
%TO.P,IC1,19,D2_19*%
%TO.N,/D2*%
X91568000Y-55652000D03*
%TO.P,IC1,20,D3_20*%
%TO.N,/D3*%
X91568000Y-53112000D03*
%TO.P,IC1,21,D4_21*%
%TO.N,/D4*%
X91568000Y-50572000D03*
%TO.P,IC1,22,D5_22*%
%TO.N,/D5*%
X91568000Y-48032000D03*
%TO.P,IC1,23,D6_23*%
%TO.N,/D6*%
X91568000Y-45492000D03*
%TO.P,IC1,24,D7_24*%
%TO.N,/D7*%
X91568000Y-42952000D03*
%TO.P,IC1,25,CURSOR_25*%
%TO.N,/CURSOR*%
X91568000Y-40412000D03*
%TO.P,IC1,26,DISEN_26*%
%TO.N,/DISEN*%
X91568000Y-37872000D03*
%TO.P,IC1,27*%
%TO.N,/Pin27*%
X91568000Y-35332000D03*
%TO.P,IC1,28,CRTC_CLK_28*%
%TO.N,/CRTC_CLK*%
X91568000Y-32792000D03*
%TD*%
D10*
%TO.P,U1,1*%
%TO.N,/U1aI*%
X99188000Y-50572000D03*
D11*
%TO.P,U1,2*%
%TO.N,/U1a0*%
X99188000Y-53112000D03*
%TO.P,U1,3*%
%TO.N,GND*%
X99188000Y-55652000D03*
%TO.P,U1,4*%
%TO.N,unconnected-(U1-Pad4)*%
X99188000Y-58192000D03*
%TO.P,U1,5*%
%TO.N,GND*%
X99188000Y-60732000D03*
%TO.P,U1,6*%
%TO.N,unconnected-(U1-Pad6)*%
X99188000Y-63272000D03*
%TO.P,U1,7,GND_7*%
%TO.N,GND*%
X99188000Y-65812000D03*
%TO.P,U1,8*%
%TO.N,unconnected-(U1-Pad8)*%
X106808000Y-65812000D03*
%TO.P,U1,9*%
%TO.N,GND*%
X106808000Y-63272000D03*
%TO.P,U1,10*%
%TO.N,unconnected-(U1-Pad10)*%
X106808000Y-60732000D03*
%TO.P,U1,11*%
%TO.N,GND*%
X106808000Y-58192000D03*
%TO.P,U1,12*%
%TO.N,unconnected-(U1-Pad12)*%
X106808000Y-55652000D03*
%TO.P,U1,13*%
%TO.N,GND*%
X106808000Y-53112000D03*
%TO.P,U1,14,VCC_14*%
%TO.N,+5V*%
X106808000Y-50572000D03*
%TD*%
D12*
%TO.P,J4,1,Pin_1_1*%
%TO.N,/U1a0*%
X98172000Y-36602000D03*
D13*
%TO.P,J4,2,Pin_2_2*%
%TO.N,/16MHz_BUF*%
X98172000Y-34062000D03*
%TO.P,J4,3,Pin_3_3*%
%TO.N,/U1aI*%
X100712000Y-36602000D03*
%TO.P,J4,4,Pin_4_4*%
%TO.N,/U1a0*%
X100712000Y-34062000D03*
%TO.P,J4,5,Pin_5_5*%
%TO.N,/16MHz_CLK*%
X103252000Y-36602000D03*
%TO.P,J4,6,Pin_6_6*%
%TO.N,/U1aI*%
X103252000Y-34062000D03*
%TO.P,J4,7,Pin_7_7*%
%TO.N,GND*%
X105792000Y-36602000D03*
%TO.P,J4,8,Pin_8_8*%
X105792000Y-34062000D03*
%TD*%
D11*
%TO.P,C1,1*%
%TO.N,+5V*%
X106808000Y-47270000D03*
%TO.P,C1,2*%
%TO.N,GND*%
X101808000Y-47270000D03*
%TD*%
%TO.P,R1,1*%
%TO.N,/U1a0*%
X96648000Y-40920000D03*
%TO.P,R1,2*%
%TO.N,/16MHz_BUF*%
X106808000Y-40920000D03*
%TD*%
%TO.P,R2,1*%
%TO.N,/16MHz_CLK*%
X96648000Y-44222000D03*
%TO.P,R2,2*%
%TO.N,/U1aI*%
X106808000Y-44222000D03*
%TD*%
D12*
%TO.P,J3,1,Pin_1_1*%
%TO.N,GND*%
X69978000Y-32792000D03*
D13*
%TO.P,J3,2,Pin_2_2*%
%TO.N,/CRTC_CLK*%
X72518000Y-32792000D03*
%TO.P,J3,3,Pin_3_3*%
%TO.N,/A0*%
X69978000Y-35332000D03*
%TO.P,J3,4,Pin_4_4*%
%TO.N,/Pin27*%
X72518000Y-35332000D03*
%TO.P,J3,5,Pin_5_5*%
%TO.N,/~{CS}*%
X69978000Y-37872000D03*
%TO.P,J3,6,Pin_6_6*%
%TO.N,/DISEN*%
X72518000Y-37872000D03*
%TO.P,J3,7,Pin_7_7*%
%TO.N,/1MHz_CLK*%
X69978000Y-40412000D03*
%TO.P,J3,8,Pin_8_8*%
%TO.N,/CURSOR*%
X72518000Y-40412000D03*
%TO.P,J3,9,Pin_9_9*%
%TO.N,/2MHz_CLK*%
X69978000Y-42952000D03*
%TO.P,J3,10,Pin_10_10*%
%TO.N,/D7*%
X72518000Y-42952000D03*
%TO.P,J3,11,Pin_11_11*%
%TO.N,/4MHz_CLK*%
X69978000Y-45492000D03*
%TO.P,J3,12,Pin_12_12*%
%TO.N,/D6*%
X72518000Y-45492000D03*
%TO.P,J3,13,Pin_13_13*%
%TO.N,/8MHz_CLK*%
X69978000Y-48032000D03*
%TO.P,J3,14,Pin_14_14*%
%TO.N,/D5*%
X72518000Y-48032000D03*
%TO.P,J3,15,Pin_15_15*%
%TO.N,/16MHz_CLK*%
X69978000Y-50572000D03*
%TO.P,J3,16,Pin_16_16*%
%TO.N,/D4*%
X72518000Y-50572000D03*
%TO.P,J3,17,Pin_17_17*%
%TO.N,/B_IN*%
X69978000Y-53112000D03*
%TO.P,J3,18,Pin_18_18*%
%TO.N,/D3*%
X72518000Y-53112000D03*
%TO.P,J3,19,Pin_19_19*%
%TO.N,/B*%
X69978000Y-55652000D03*
%TO.P,J3,20,Pin_20_20*%
%TO.N,/D2*%
X72518000Y-55652000D03*
%TO.P,J3,21,Pin_21_21*%
%TO.N,/G_IN*%
X69978000Y-58192000D03*
%TO.P,J3,22,Pin_22_22*%
%TO.N,/D1*%
X72518000Y-58192000D03*
%TO.P,J3,23,Pin_23_23*%
%TO.N,/G*%
X69978000Y-60732000D03*
%TO.P,J3,24,Pin_24_24*%
%TO.N,/D0*%
X72518000Y-60732000D03*
%TO.P,J3,25,Pin_25_25*%
%TO.N,/R_IN*%
X69978000Y-63272000D03*
%TO.P,J3,26,Pin_26_26*%
%TO.N,+5V*%
X72518000Y-63272000D03*
%TO.P,J3,27,Pin_27_27*%
%TO.N,/R*%
X69978000Y-65812000D03*
%TO.P,J3,28,Pin_28_28*%
%TO.N,/Pin15*%
X72518000Y-65812000D03*
%TD*%
%TO.P,J2,1,Pin_1_1*%
%TO.N,/Pin15*%
X94108000Y-65812000D03*
%TO.P,J2,2,Pin_2_2*%
%TO.N,+5V*%
X94108000Y-63272000D03*
%TO.P,J2,3,Pin_3_3*%
%TO.N,/D0*%
X94108000Y-60732000D03*
%TO.P,J2,4,Pin_4_4*%
%TO.N,/D1*%
X94108000Y-58192000D03*
%TO.P,J2,5,Pin_5_5*%
%TO.N,/D2*%
X94108000Y-55652000D03*
%TO.P,J2,6,Pin_6_6*%
%TO.N,/D3*%
X94108000Y-53112000D03*
%TO.P,J2,7,Pin_7_7*%
%TO.N,/D4*%
X94108000Y-50572000D03*
%TO.P,J2,8,Pin_8_8*%
%TO.N,/D5*%
X94108000Y-48032000D03*
%TO.P,J2,9,Pin_9_9*%
%TO.N,/D6*%
X94108000Y-45492000D03*
%TO.P,J2,10,Pin_10_10*%
%TO.N,/D7*%
X94108000Y-42952000D03*
%TO.P,J2,11,Pin_11_11*%
%TO.N,/CURSOR*%
X94108000Y-40412000D03*
%TO.P,J2,12,Pin_12_12*%
%TO.N,/DISEN*%
X94108000Y-37872000D03*
%TO.P,J2,13,Pin_13_13*%
%TO.N,/Pin27*%
X94108000Y-35332000D03*
%TO.P,J2,14,Pin_14_14*%
%TO.N,/CRTC_CLK*%
X94108000Y-32792000D03*
%TD*%
D12*
%TO.P,J1,1,Pin_1_1*%
%TO.N,GND*%
X78868000Y-32792000D03*
D13*
%TO.P,J1,2,Pin_2_2*%
%TO.N,/A0*%
X78868000Y-35332000D03*
%TO.P,J1,3,Pin_3_3*%
%TO.N,/~{CS}*%
X78868000Y-37872000D03*
%TO.P,J1,4,Pin_4_4*%
%TO.N,/1MHz_CLK*%
X78868000Y-40412000D03*
%TO.P,J1,5,Pin_5_5*%
%TO.N,/2MHz_CLK*%
X78868000Y-42952000D03*
%TO.P,J1,6,Pin_6_6*%
%TO.N,/4MHz_CLK*%
X78868000Y-45492000D03*
%TO.P,J1,7,Pin_7_7*%
%TO.N,/8MHz_CLK*%
X78868000Y-48032000D03*
%TO.P,J1,8,Pin_8_8*%
%TO.N,/16MHz_CLK*%
X78868000Y-50572000D03*
%TO.P,J1,9,Pin_9_9*%
%TO.N,/B_IN*%
X78868000Y-53112000D03*
%TO.P,J1,10,Pin_10_10*%
%TO.N,/B*%
X78868000Y-55652000D03*
%TO.P,J1,11,Pin_11_11*%
%TO.N,/G_IN*%
X78868000Y-58192000D03*
%TO.P,J1,12,Pin_12_12*%
%TO.N,/G*%
X78868000Y-60732000D03*
%TO.P,J1,13,Pin_13_13*%
%TO.N,/R_IN*%
X78868000Y-63272000D03*
%TO.P,J1,14,Pin_14_14*%
%TO.N,/R*%
X78868000Y-65812000D03*
%TD*%
%TO.N,/CRTC_CLK*%
D14*
X73788000Y-32792000D02*
X72518000Y-32792000D01*
X89028000Y-31566000D02*
X75014000Y-31566000D01*
X90254000Y-32792000D02*
X89028000Y-31566000D01*
X91568000Y-32792000D02*
X90254000Y-32792000D01*
X75014000Y-31566000D02*
X73788000Y-32792000D01*
%TO.N,+5V*%
D15*
X102998000Y-62002000D02*
X104268000Y-60732000D01*
X106808000Y-47270000D02*
X106808000Y-50572000D01*
X95378000Y-63272000D02*
X94108000Y-63272000D01*
X105538000Y-50572000D02*
X104268000Y-51842000D01*
X106808000Y-50572000D02*
X105538000Y-50572000D01*
X104268000Y-51842000D02*
X104268000Y-60732000D01*
X73788000Y-63272000D02*
X72518000Y-63272000D01*
X89028000Y-62002000D02*
X75058000Y-62002000D01*
X96648000Y-62002000D02*
X102998000Y-62002000D01*
X75058000Y-62002000D02*
X73788000Y-63272000D01*
X95378000Y-63272000D02*
X96648000Y-62002000D01*
X90298000Y-63272000D02*
X89028000Y-62002000D01*
X91568000Y-63272000D02*
X94108000Y-63272000D01*
X91568000Y-63272000D02*
X90298000Y-63272000D01*
%TO.N,GND*%
D16*
X100458000Y-56922000D02*
X99188000Y-55652000D01*
X104522000Y-32792000D02*
X97410000Y-32792000D01*
X101808000Y-47270000D02*
X104522000Y-44556000D01*
X97410000Y-32792000D02*
X96140000Y-34062000D01*
X75058000Y-32792000D02*
X73788000Y-34062000D01*
X100712000Y-54128000D02*
X100712000Y-48366000D01*
X99188000Y-60732000D02*
X100458000Y-59462000D01*
X105538000Y-54382000D02*
X106808000Y-53112000D01*
X106808000Y-63272000D02*
X105538000Y-62002000D01*
X105538000Y-62002000D02*
X105538000Y-59462000D01*
X100458000Y-64542000D02*
X105538000Y-64542000D01*
X90298000Y-34062000D02*
X89028000Y-32792000D01*
X105538000Y-64542000D02*
X106808000Y-63272000D01*
X104522000Y-44556000D02*
X104522000Y-37872000D01*
X106808000Y-58192000D02*
X105538000Y-56922000D01*
X100458000Y-59462000D02*
X100458000Y-56922000D01*
X73788000Y-34062000D02*
X71248000Y-34062000D01*
X76328000Y-32792000D02*
X75058000Y-32792000D01*
X96140000Y-34062000D02*
X90298000Y-34062000D01*
X105538000Y-56922000D02*
X105538000Y-54382000D01*
X78868000Y-32792000D02*
X76328000Y-32792000D01*
X104522000Y-37872000D02*
X105792000Y-36602000D01*
X89028000Y-32792000D02*
X78868000Y-32792000D01*
X99188000Y-55652000D02*
X100712000Y-54128000D01*
X100712000Y-48366000D02*
X101808000Y-47270000D01*
X105792000Y-34062000D02*
X104522000Y-32792000D01*
X71248000Y-34062000D02*
X69978000Y-32792000D01*
X99188000Y-65812000D02*
X100458000Y-64542000D01*
X105538000Y-59462000D02*
X106808000Y-58192000D01*
X105792000Y-34062000D02*
X105792000Y-36602000D01*
%TO.N,/4MHz_CLK*%
D14*
X71248000Y-46762000D02*
X73788000Y-46762000D01*
X73788000Y-46762000D02*
X75058000Y-45492000D01*
X69978000Y-45492000D02*
X71248000Y-46762000D01*
X76328000Y-45492000D02*
X78868000Y-45492000D01*
X75058000Y-45492000D02*
X76328000Y-45492000D01*
%TO.N,/8MHz_CLK*%
X73788000Y-49302000D02*
X71248000Y-49302000D01*
X76328000Y-48032000D02*
X75058000Y-48032000D01*
X75058000Y-48032000D02*
X73788000Y-49302000D01*
X71248000Y-49302000D02*
X69978000Y-48032000D01*
X76328000Y-48032000D02*
X78868000Y-48032000D01*
%TO.N,/R_IN*%
X75058000Y-63272000D02*
X73788000Y-64542000D01*
X71248000Y-64542000D02*
X69978000Y-63272000D01*
X73788000Y-64542000D02*
X71248000Y-64542000D01*
X76328000Y-63272000D02*
X78868000Y-63272000D01*
X76328000Y-63272000D02*
X75058000Y-63272000D01*
%TO.N,/R*%
X76328000Y-65812000D02*
X75058000Y-65812000D01*
X73956000Y-66914000D02*
X71080000Y-66914000D01*
X76328000Y-65812000D02*
X78868000Y-65812000D01*
X71080000Y-66914000D02*
X69978000Y-65812000D01*
X75058000Y-65812000D02*
X73956000Y-66914000D01*
%TO.N,/G_IN*%
X73788000Y-59462000D02*
X71248000Y-59462000D01*
X76328000Y-58192000D02*
X75058000Y-58192000D01*
X75058000Y-58192000D02*
X73788000Y-59462000D01*
X71248000Y-59462000D02*
X69978000Y-58192000D01*
X76328000Y-58192000D02*
X78868000Y-58192000D01*
%TO.N,/G*%
X75058000Y-60732000D02*
X73788000Y-62002000D01*
X71248000Y-62002000D02*
X69978000Y-60732000D01*
X73788000Y-62002000D02*
X71248000Y-62002000D01*
X76328000Y-60732000D02*
X78868000Y-60732000D01*
X76328000Y-60732000D02*
X75058000Y-60732000D01*
%TO.N,/B_IN*%
X75058000Y-53112000D02*
X73788000Y-54382000D01*
X73788000Y-54382000D02*
X71248000Y-54382000D01*
X76328000Y-53112000D02*
X78868000Y-53112000D01*
X71248000Y-54382000D02*
X69978000Y-53112000D01*
X76328000Y-53112000D02*
X75058000Y-53112000D01*
%TO.N,/B*%
X76328000Y-55652000D02*
X75058000Y-55652000D01*
X75058000Y-55652000D02*
X73788000Y-56922000D01*
X73788000Y-56922000D02*
X71248000Y-56922000D01*
X76328000Y-55652000D02*
X78868000Y-55652000D01*
X71248000Y-56922000D02*
X69978000Y-55652000D01*
%TO.N,/D0*%
X89028000Y-59462000D02*
X90298000Y-60732000D01*
X72518000Y-60732000D02*
X73788000Y-60732000D01*
X75058000Y-59462000D02*
X89028000Y-59462000D01*
X90298000Y-60732000D02*
X91568000Y-60732000D01*
X91568000Y-60732000D02*
X94108000Y-60732000D01*
X73788000Y-60732000D02*
X75058000Y-59462000D01*
%TO.N,/D1*%
X73788000Y-58192000D02*
X75058000Y-56922000D01*
X72518000Y-58192000D02*
X73788000Y-58192000D01*
X91568000Y-58192000D02*
X94108000Y-58192000D01*
X75058000Y-56922000D02*
X89028000Y-56922000D01*
X89028000Y-56922000D02*
X90298000Y-58192000D01*
X90298000Y-58192000D02*
X91568000Y-58192000D01*
%TO.N,/D2*%
X90298000Y-55652000D02*
X91568000Y-55652000D01*
X72518000Y-55652000D02*
X73788000Y-55652000D01*
X73788000Y-55652000D02*
X75058000Y-54382000D01*
X91568000Y-55652000D02*
X94108000Y-55652000D01*
X89028000Y-54382000D02*
X90298000Y-55652000D01*
X75058000Y-54382000D02*
X89028000Y-54382000D01*
%TO.N,/D3*%
X89028000Y-51842000D02*
X90298000Y-53112000D01*
X72518000Y-53112000D02*
X73788000Y-53112000D01*
X75058000Y-51842000D02*
X89028000Y-51842000D01*
X90298000Y-53112000D02*
X91568000Y-53112000D01*
X91568000Y-53112000D02*
X94108000Y-53112000D01*
X73788000Y-53112000D02*
X75058000Y-51842000D01*
%TO.N,/D4*%
X91568000Y-50572000D02*
X94108000Y-50572000D01*
X73788000Y-50572000D02*
X75058000Y-49302000D01*
X72518000Y-50572000D02*
X73788000Y-50572000D01*
X90298000Y-50572000D02*
X91568000Y-50572000D01*
X75058000Y-49302000D02*
X89028000Y-49302000D01*
X89028000Y-49302000D02*
X90298000Y-50572000D01*
%TO.N,/D5*%
X89028000Y-46762000D02*
X90298000Y-48032000D01*
X72518000Y-48032000D02*
X73788000Y-48032000D01*
X90298000Y-48032000D02*
X91568000Y-48032000D01*
X75058000Y-46762000D02*
X89028000Y-46762000D01*
X73788000Y-48032000D02*
X75058000Y-46762000D01*
X91568000Y-48032000D02*
X94108000Y-48032000D01*
%TO.N,/CURSOR*%
X89028000Y-39142000D02*
X90298000Y-40412000D01*
X75058000Y-39142000D02*
X89028000Y-39142000D01*
X73788000Y-40412000D02*
X75058000Y-39142000D01*
X90298000Y-40412000D02*
X91568000Y-40412000D01*
X91568000Y-40412000D02*
X94108000Y-40412000D01*
X72518000Y-40412000D02*
X73788000Y-40412000D01*
%TO.N,/D6*%
X89028000Y-44222000D02*
X90298000Y-45492000D01*
X90298000Y-45492000D02*
X91568000Y-45492000D01*
X75058000Y-44222000D02*
X89028000Y-44222000D01*
X72518000Y-45492000D02*
X73788000Y-45492000D01*
X73788000Y-45492000D02*
X75058000Y-44222000D01*
X91568000Y-45492000D02*
X94108000Y-45492000D01*
%TO.N,/D7*%
X90298000Y-42952000D02*
X91568000Y-42952000D01*
X73788000Y-42952000D02*
X75058000Y-41682000D01*
X89028000Y-41682000D02*
X90298000Y-42952000D01*
X91568000Y-42952000D02*
X94108000Y-42952000D01*
X72518000Y-42952000D02*
X73788000Y-42952000D01*
X75058000Y-41682000D02*
X89028000Y-41682000D01*
%TO.N,/DISEN*%
X75058000Y-36602000D02*
X89028000Y-36602000D01*
X89028000Y-36602000D02*
X90298000Y-37872000D01*
X90298000Y-37872000D02*
X91568000Y-37872000D01*
X73788000Y-37872000D02*
X75058000Y-36602000D01*
X72518000Y-37872000D02*
X73788000Y-37872000D01*
X91568000Y-37872000D02*
X94108000Y-37872000D01*
%TO.N,/CRTC_CLK*%
X94108000Y-32792000D02*
X91568000Y-32792000D01*
%TO.N,/A0*%
X76328000Y-35332000D02*
X78868000Y-35332000D01*
X73788000Y-36602000D02*
X71248000Y-36602000D01*
X76328000Y-35332000D02*
X75058000Y-35332000D01*
X75058000Y-35332000D02*
X73788000Y-36602000D01*
X71248000Y-36602000D02*
X69978000Y-35332000D01*
%TO.N,/~{CS}*%
X76328000Y-37872000D02*
X78868000Y-37872000D01*
X76328000Y-37872000D02*
X75058000Y-37872000D01*
X73956000Y-38974000D02*
X71080000Y-38974000D01*
X75058000Y-37872000D02*
X73956000Y-38974000D01*
X71080000Y-38974000D02*
X69978000Y-37872000D01*
%TO.N,/1MHz_CLK*%
X71248000Y-41682000D02*
X73788000Y-41682000D01*
X76328000Y-40412000D02*
X78868000Y-40412000D01*
X75058000Y-40412000D02*
X76328000Y-40412000D01*
X73788000Y-41682000D02*
X75058000Y-40412000D01*
X69978000Y-40412000D02*
X71248000Y-41682000D01*
%TO.N,/2MHz_CLK*%
X69978000Y-42952000D02*
X71248000Y-44222000D01*
X75058000Y-42952000D02*
X76328000Y-42952000D01*
X76328000Y-42952000D02*
X78868000Y-42952000D01*
X73788000Y-44222000D02*
X75058000Y-42952000D01*
X71248000Y-44222000D02*
X73788000Y-44222000D01*
%TO.N,/16MHz_CLK*%
X95886000Y-51842000D02*
X90298000Y-51842000D01*
X102236000Y-44222000D02*
X103252000Y-43206000D01*
X90298000Y-51842000D02*
X89028000Y-50572000D01*
X96648000Y-51080000D02*
X95886000Y-51842000D01*
X96648000Y-44222000D02*
X102236000Y-44222000D01*
X103252000Y-43206000D02*
X103252000Y-36602000D01*
X96648000Y-44222000D02*
X96648000Y-51080000D01*
X89028000Y-50572000D02*
X78868000Y-50572000D01*
%TO.N,/Pin15*%
X72518000Y-65812000D02*
X73788000Y-65812000D01*
X94108000Y-65812000D02*
X91568000Y-65812000D01*
X90298000Y-65812000D02*
X91568000Y-65812000D01*
X73788000Y-65812000D02*
X75058000Y-64542000D01*
X75058000Y-64542000D02*
X89028000Y-64542000D01*
X89028000Y-64542000D02*
X90298000Y-65812000D01*
%TO.N,/Pin27*%
X75058000Y-34062000D02*
X89028000Y-34062000D01*
X73788000Y-35332000D02*
X75058000Y-34062000D01*
X91568000Y-35332000D02*
X90298000Y-35332000D01*
X90298000Y-35332000D02*
X89028000Y-34062000D01*
X94108000Y-35332000D02*
X91568000Y-35332000D01*
X72518000Y-35332000D02*
X73788000Y-35332000D01*
%TO.N,/U1aI*%
X100712000Y-36602000D02*
X103252000Y-34062000D01*
%TO.N,/U1a0*%
X98172000Y-36602000D02*
X100712000Y-34062000D01*
%TD*%
%TA.AperFunction,Conductor*%
%TO.N,GND*%
G36*
X88834706Y-62526185D02*
G01*
X88855348Y-62542819D01*
X89988230Y-63675701D01*
X89988231Y-63675702D01*
X89988233Y-63675703D01*
X90023351Y-63695978D01*
X90103270Y-63742119D01*
X90231581Y-63776500D01*
X90570581Y-63776500D01*
X90637620Y-63796185D01*
X90673683Y-63831609D01*
X90748916Y-63944203D01*
X90748919Y-63944207D01*
X90895792Y-64091080D01*
X90895796Y-64091083D01*
X91068507Y-64206486D01*
X91068508Y-64206486D01*
X91068509Y-64206487D01*
X91068511Y-64206488D01*
X91232339Y-64274347D01*
X91260414Y-64285976D01*
X91411601Y-64316049D01*
X91464136Y-64326499D01*
X91464139Y-64326500D01*
X91464141Y-64326500D01*
X91671861Y-64326500D01*
X91671862Y-64326499D01*
X91875586Y-64285976D01*
X92067493Y-64206486D01*
X92240204Y-64091083D01*
X92387083Y-63944204D01*
X92462317Y-63831608D01*
X92515929Y-63786804D01*
X92565419Y-63776500D01*
X93049459Y-63776500D01*
X93116498Y-63796185D01*
X93159943Y-63844204D01*
X93163347Y-63850884D01*
X93265535Y-63991533D01*
X93388467Y-64114465D01*
X93529116Y-64216653D01*
X93571648Y-64238324D01*
X93684021Y-64295581D01*
X93849358Y-64349302D01*
X93849359Y-64349302D01*
X93849362Y-64349303D01*
X94021074Y-64376500D01*
X94021075Y-64376500D01*
X94194925Y-64376500D01*
X94194926Y-64376500D01*
X94366638Y-64349303D01*
X94366641Y-64349302D01*
X94366642Y-64349302D01*
X94531978Y-64295581D01*
X94531978Y-64295580D01*
X94531981Y-64295580D01*
X94686884Y-64216653D01*
X94827533Y-64114465D01*
X94950465Y-63991533D01*
X95052653Y-63850884D01*
X95056056Y-63844204D01*
X95104031Y-63793409D01*
X95166541Y-63776500D01*
X95444416Y-63776500D01*
X95444419Y-63776500D01*
X95572730Y-63742119D01*
X95614837Y-63717808D01*
X95687770Y-63675701D01*
X96820652Y-62542819D01*
X96881975Y-62509334D01*
X96908333Y-62506500D01*
X98199267Y-62506500D01*
X98266306Y-62526185D01*
X98312061Y-62578989D01*
X98322005Y-62648147D01*
X98302369Y-62699391D01*
X98253512Y-62772509D01*
X98253511Y-62772511D01*
X98174025Y-62964409D01*
X98174022Y-62964421D01*
X98133500Y-63168136D01*
X98133500Y-63375863D01*
X98174022Y-63579578D01*
X98174025Y-63579590D01*
X98253511Y-63771488D01*
X98253512Y-63771490D01*
X98368916Y-63944203D01*
X98368919Y-63944207D01*
X98515792Y-64091080D01*
X98515796Y-64091083D01*
X98688507Y-64206486D01*
X98688508Y-64206486D01*
X98688509Y-64206487D01*
X98688511Y-64206488D01*
X98852339Y-64274347D01*
X98880414Y-64285976D01*
X98880418Y-64285976D01*
X98880419Y-64285977D01*
X98922968Y-64294441D01*
X98984879Y-64326826D01*
X99019453Y-64387542D01*
X99015713Y-64457311D01*
X98974846Y-64513983D01*
X98918174Y-64538531D01*
X98883582Y-64544009D01*
X98688968Y-64607244D01*
X98506644Y-64700143D01*
X98462077Y-64732523D01*
X98462077Y-64732524D01*
X99141554Y-65412000D01*
X99135339Y-65412000D01*
X99033606Y-65439259D01*
X98942394Y-65491920D01*
X98867920Y-65566394D01*
X98815259Y-65657606D01*
X98788000Y-65759339D01*
X98788000Y-65765553D01*
X98108524Y-65086077D01*
X98108523Y-65086077D01*
X98076143Y-65130644D01*
X97983244Y-65312968D01*
X97920009Y-65507582D01*
X97888000Y-65709682D01*
X97888000Y-65914317D01*
X97920009Y-66116417D01*
X97983244Y-66311031D01*
X98076141Y-66493350D01*
X98076147Y-66493359D01*
X98108523Y-66537921D01*
X98108524Y-66537922D01*
X98788000Y-65858446D01*
X98788000Y-65864661D01*
X98815259Y-65966394D01*
X98867920Y-66057606D01*
X98942394Y-66132080D01*
X99033606Y-66184741D01*
X99135339Y-66212000D01*
X99141553Y-66212000D01*
X98462076Y-66891474D01*
X98506650Y-66923859D01*
X98514806Y-66928015D01*
X98565602Y-66975989D01*
X98582397Y-67043810D01*
X98559860Y-67109945D01*
X98505145Y-67153397D01*
X98458511Y-67162500D01*
X94217309Y-67162500D01*
X94150270Y-67142815D01*
X94106087Y-67091825D01*
X94078547Y-67133363D01*
X94014584Y-67161477D01*
X93998691Y-67162500D01*
X74543555Y-67162500D01*
X74476516Y-67142815D01*
X74430761Y-67090011D01*
X74420817Y-67020853D01*
X74449842Y-66957297D01*
X74455874Y-66950819D01*
X74660207Y-66746486D01*
X75174918Y-66231775D01*
X75236239Y-66198292D01*
X75305931Y-66203276D01*
X75361864Y-66245148D01*
X75377158Y-66272006D01*
X75393511Y-66311487D01*
X75393515Y-66311494D01*
X75508916Y-66484203D01*
X75508919Y-66484207D01*
X75655792Y-66631080D01*
X75655796Y-66631083D01*
X75828507Y-66746486D01*
X75828508Y-66746486D01*
X75828509Y-66746487D01*
X75828511Y-66746488D01*
X75853052Y-66756653D01*
X76020414Y-66825976D01*
X76224136Y-66866499D01*
X76224139Y-66866500D01*
X76224141Y-66866500D01*
X76431861Y-66866500D01*
X76431862Y-66866499D01*
X76635586Y-66825976D01*
X76827493Y-66746486D01*
X77000204Y-66631083D01*
X77147083Y-66484204D01*
X77262486Y-66311493D01*
X77280481Y-66268046D01*
X77324321Y-66213645D01*
X77390615Y-66191579D01*
X77395042Y-66191500D01*
X77745768Y-66191500D01*
X77812807Y-66211185D01*
X77856253Y-66259205D01*
X77864743Y-66275868D01*
X77923347Y-66390884D01*
X78025535Y-66531533D01*
X78148467Y-66654465D01*
X78289116Y-66756653D01*
X78402347Y-66814347D01*
X78444021Y-66835581D01*
X78609358Y-66889302D01*
X78609359Y-66889302D01*
X78609362Y-66889303D01*
X78781074Y-66916500D01*
X78954926Y-66916500D01*
X79126638Y-66889303D01*
X79126641Y-66889302D01*
X79126642Y-66889302D01*
X79291978Y-66835581D01*
X79291978Y-66835580D01*
X79291981Y-66835580D01*
X79446884Y-66756653D01*
X79587533Y-66654465D01*
X79710465Y-66531533D01*
X79812653Y-66390884D01*
X79891580Y-66235981D01*
X79900539Y-66208409D01*
X79945302Y-66070642D01*
X79945302Y-66070641D01*
X79945303Y-66070638D01*
X79972500Y-65898926D01*
X79972500Y-65725074D01*
X79945303Y-65553362D01*
X79945302Y-65553358D01*
X79945302Y-65553357D01*
X79891581Y-65388021D01*
X79884791Y-65374694D01*
X79812653Y-65233116D01*
X79729295Y-65118385D01*
X79705816Y-65052580D01*
X79721641Y-64984526D01*
X79771747Y-64935831D01*
X79829614Y-64921500D01*
X88819444Y-64921500D01*
X88886483Y-64941185D01*
X88907125Y-64957819D01*
X89989983Y-66040677D01*
X89989993Y-66040688D01*
X89994323Y-66045018D01*
X89994324Y-66045019D01*
X90064981Y-66115676D01*
X90064983Y-66115677D01*
X90064984Y-66115678D01*
X90108249Y-66140657D01*
X90151518Y-66165638D01*
X90248038Y-66191501D01*
X90248040Y-66191501D01*
X90355558Y-66191501D01*
X90355574Y-66191500D01*
X90500958Y-66191500D01*
X90567997Y-66211185D01*
X90613752Y-66263989D01*
X90615502Y-66268009D01*
X90633514Y-66311493D01*
X90633515Y-66311494D01*
X90748916Y-66484203D01*
X90748919Y-66484207D01*
X90895792Y-66631080D01*
X90895796Y-66631083D01*
X91068507Y-66746486D01*
X91068508Y-66746486D01*
X91068509Y-66746487D01*
X91068511Y-66746488D01*
X91093052Y-66756653D01*
X91260414Y-66825976D01*
X91464136Y-66866499D01*
X91464139Y-66866500D01*
X91464141Y-66866500D01*
X91671861Y-66866500D01*
X91671862Y-66866499D01*
X91875586Y-66825976D01*
X92067493Y-66746486D01*
X92240204Y-66631083D01*
X92387083Y-66484204D01*
X92502486Y-66311493D01*
X92520481Y-66268046D01*
X92564321Y-66213645D01*
X92630615Y-66191579D01*
X92635042Y-66191500D01*
X92985768Y-66191500D01*
X93052807Y-66211185D01*
X93096253Y-66259205D01*
X93104743Y-66275868D01*
X93163347Y-66390884D01*
X93265535Y-66531533D01*
X93388467Y-66654465D01*
X93529116Y-66756653D01*
X93642347Y-66814347D01*
X93684021Y-66835581D01*
X93849358Y-66889302D01*
X93849359Y-66889302D01*
X93849362Y-66889303D01*
X94018089Y-66916027D01*
X94081224Y-66945956D01*
X94108655Y-66990011D01*
X94123596Y-66957297D01*
X94182374Y-66919523D01*
X94197907Y-66916027D01*
X94366638Y-66889303D01*
X94366641Y-66889302D01*
X94366642Y-66889302D01*
X94531978Y-66835581D01*
X94531978Y-66835580D01*
X94531981Y-66835580D01*
X94686884Y-66756653D01*
X94827533Y-66654465D01*
X94950465Y-66531533D01*
X95052653Y-66390884D01*
X95131580Y-66235981D01*
X95140539Y-66208409D01*
X95185302Y-66070642D01*
X95185302Y-66070641D01*
X95185303Y-66070638D01*
X95212500Y-65898926D01*
X95212500Y-65725074D01*
X95185303Y-65553362D01*
X95185302Y-65553358D01*
X95185302Y-65553357D01*
X95131581Y-65388021D01*
X95124791Y-65374694D01*
X95052653Y-65233116D01*
X94950465Y-65092467D01*
X94827533Y-64969535D01*
X94686884Y-64867347D01*
X94644354Y-64845677D01*
X94531978Y-64788418D01*
X94366641Y-64734697D01*
X94237854Y-64714299D01*
X94194926Y-64707500D01*
X94021074Y-64707500D01*
X93963836Y-64716565D01*
X93849360Y-64734697D01*
X93849357Y-64734697D01*
X93684021Y-64788418D01*
X93529115Y-64867347D01*
X93482655Y-64901103D01*
X93388467Y-64969535D01*
X93388465Y-64969537D01*
X93388464Y-64969537D01*
X93265537Y-65092464D01*
X93265537Y-65092465D01*
X93265535Y-65092467D01*
X93235954Y-65133182D01*
X93163347Y-65233115D01*
X93096253Y-65364795D01*
X93048278Y-65415591D01*
X92985768Y-65432500D01*
X92635042Y-65432500D01*
X92568003Y-65412815D01*
X92522248Y-65360011D01*
X92520497Y-65355990D01*
X92502486Y-65312507D01*
X92387083Y-65139796D01*
X92387080Y-65139792D01*
X92240207Y-64992919D01*
X92240203Y-64992916D01*
X92067490Y-64877512D01*
X92067488Y-64877511D01*
X91875590Y-64798025D01*
X91875578Y-64798022D01*
X91671862Y-64757500D01*
X91671859Y-64757500D01*
X91464141Y-64757500D01*
X91464138Y-64757500D01*
X91260421Y-64798022D01*
X91260409Y-64798025D01*
X91068511Y-64877511D01*
X91068509Y-64877512D01*
X90895796Y-64992916D01*
X90895792Y-64992919D01*
X90748919Y-65139792D01*
X90748916Y-65139796D01*
X90633515Y-65312505D01*
X90633513Y-65312509D01*
X90617158Y-65351994D01*
X90573317Y-65406397D01*
X90507022Y-65428462D01*
X90439323Y-65411183D01*
X90414916Y-65392222D01*
X89338746Y-64316052D01*
X89338744Y-64316049D01*
X89261020Y-64238325D01*
X89261015Y-64238321D01*
X89174485Y-64188363D01*
X89174482Y-64188362D01*
X89154084Y-64182896D01*
X89077962Y-64162499D01*
X88978038Y-64162499D01*
X88970442Y-64162499D01*
X88970426Y-64162500D01*
X79829614Y-64162500D01*
X79762575Y-64142815D01*
X79716820Y-64090011D01*
X79706876Y-64020853D01*
X79729296Y-63965614D01*
X79735339Y-63957297D01*
X79812653Y-63850884D01*
X79891580Y-63695981D01*
X79899637Y-63671185D01*
X79945302Y-63530642D01*
X79945302Y-63530641D01*
X79945303Y-63530638D01*
X79972500Y-63358926D01*
X79972500Y-63185074D01*
X79945303Y-63013362D01*
X79945302Y-63013358D01*
X79945302Y-63013357D01*
X79891581Y-62848021D01*
X79877309Y-62820011D01*
X79812653Y-62693116D01*
X79812652Y-62693115D01*
X79810441Y-62688775D01*
X79812004Y-62687978D01*
X79795742Y-62627828D01*
X79816866Y-62561229D01*
X79870644Y-62516622D01*
X79919713Y-62506500D01*
X88767667Y-62506500D01*
X88834706Y-62526185D01*
G37*
%TD.AperFunction*%
%TA.AperFunction,Conductor*%
G36*
X105877620Y-51096185D02*
G01*
X105913683Y-51131609D01*
X105988916Y-51244203D01*
X105988919Y-51244207D01*
X106135792Y-51391080D01*
X106135796Y-51391083D01*
X106308507Y-51506486D01*
X106308508Y-51506486D01*
X106308509Y-51506487D01*
X106308511Y-51506488D01*
X106500409Y-51585974D01*
X106500414Y-51585976D01*
X106500418Y-51585976D01*
X106500419Y-51585977D01*
X106542968Y-51594441D01*
X106604879Y-51626826D01*
X106639453Y-51687542D01*
X106635713Y-51757311D01*
X106594846Y-51813983D01*
X106538174Y-51838531D01*
X106503582Y-51844009D01*
X106308968Y-51907244D01*
X106126644Y-52000143D01*
X106082077Y-52032523D01*
X106082077Y-52032524D01*
X106761554Y-52712000D01*
X106755339Y-52712000D01*
X106653606Y-52739259D01*
X106562394Y-52791920D01*
X106487920Y-52866394D01*
X106435259Y-52957606D01*
X106408000Y-53059339D01*
X106408000Y-53065553D01*
X105728524Y-52386077D01*
X105728523Y-52386077D01*
X105696143Y-52430644D01*
X105603244Y-52612968D01*
X105540009Y-52807582D01*
X105508000Y-53009682D01*
X105508000Y-53214317D01*
X105540009Y-53416417D01*
X105603244Y-53611031D01*
X105696141Y-53793350D01*
X105696147Y-53793359D01*
X105728523Y-53837921D01*
X105728524Y-53837922D01*
X106408000Y-53158446D01*
X106408000Y-53164661D01*
X106435259Y-53266394D01*
X106487920Y-53357606D01*
X106562394Y-53432080D01*
X106653606Y-53484741D01*
X106755339Y-53512000D01*
X106761553Y-53512000D01*
X106082076Y-54191474D01*
X106126650Y-54223859D01*
X106308968Y-54316755D01*
X106503578Y-54379988D01*
X106538171Y-54385467D01*
X106601307Y-54415395D01*
X106638239Y-54474706D01*
X106637243Y-54544569D01*
X106598634Y-54602802D01*
X106542970Y-54629558D01*
X106500416Y-54638023D01*
X106500409Y-54638025D01*
X106308511Y-54717511D01*
X106308509Y-54717512D01*
X106135796Y-54832916D01*
X106135792Y-54832919D01*
X105988919Y-54979792D01*
X105988916Y-54979796D01*
X105873512Y-55152509D01*
X105873511Y-55152511D01*
X105794025Y-55344409D01*
X105794022Y-55344421D01*
X105753500Y-55548136D01*
X105753500Y-55755863D01*
X105794022Y-55959578D01*
X105794025Y-55959590D01*
X105873511Y-56151488D01*
X105873512Y-56151490D01*
X105988916Y-56324203D01*
X105988919Y-56324207D01*
X106135792Y-56471080D01*
X106135796Y-56471083D01*
X106308507Y-56586486D01*
X106308508Y-56586486D01*
X106308509Y-56586487D01*
X106308511Y-56586488D01*
X106472339Y-56654347D01*
X106500414Y-56665976D01*
X106500418Y-56665976D01*
X106500419Y-56665977D01*
X106542968Y-56674441D01*
X106604879Y-56706826D01*
X106639453Y-56767542D01*
X106635713Y-56837311D01*
X106594846Y-56893983D01*
X106538174Y-56918531D01*
X106503582Y-56924009D01*
X106308968Y-56987244D01*
X106126644Y-57080143D01*
X106082077Y-57112523D01*
X106082077Y-57112524D01*
X106761554Y-57792000D01*
X106755339Y-57792000D01*
X106653606Y-57819259D01*
X106562394Y-57871920D01*
X106487920Y-57946394D01*
X106435259Y-58037606D01*
X106408000Y-58139339D01*
X106408000Y-58145553D01*
X105728524Y-57466077D01*
X105728523Y-57466077D01*
X105696143Y-57510644D01*
X105603244Y-57692968D01*
X105540009Y-57887582D01*
X105508000Y-58089682D01*
X105508000Y-58294317D01*
X105540009Y-58496417D01*
X105603244Y-58691031D01*
X105696141Y-58873350D01*
X105696147Y-58873359D01*
X105728523Y-58917921D01*
X105728524Y-58917922D01*
X106408000Y-58238446D01*
X106408000Y-58244661D01*
X106435259Y-58346394D01*
X106487920Y-58437606D01*
X106562394Y-58512080D01*
X106653606Y-58564741D01*
X106755339Y-58592000D01*
X106761553Y-58592000D01*
X106082076Y-59271474D01*
X106126650Y-59303859D01*
X106308968Y-59396755D01*
X106503578Y-59459988D01*
X106538171Y-59465467D01*
X106601307Y-59495395D01*
X106638239Y-59554706D01*
X106637243Y-59624569D01*
X106598634Y-59682802D01*
X106542970Y-59709558D01*
X106500416Y-59718023D01*
X106500409Y-59718025D01*
X106308511Y-59797511D01*
X106308509Y-59797512D01*
X106135796Y-59912916D01*
X106135792Y-59912919D01*
X105988919Y-60059792D01*
X105988916Y-60059796D01*
X105873512Y-60232509D01*
X105873511Y-60232511D01*
X105794025Y-60424409D01*
X105794022Y-60424421D01*
X105753500Y-60628136D01*
X105753500Y-60835863D01*
X105794022Y-61039578D01*
X105794025Y-61039590D01*
X105873511Y-61231488D01*
X105873512Y-61231490D01*
X105988916Y-61404203D01*
X105988919Y-61404207D01*
X106135792Y-61551080D01*
X106135796Y-61551083D01*
X106308507Y-61666486D01*
X106308508Y-61666486D01*
X106308509Y-61666487D01*
X106308511Y-61666488D01*
X106333052Y-61676653D01*
X106500414Y-61745976D01*
X106500418Y-61745976D01*
X106500419Y-61745977D01*
X106542968Y-61754441D01*
X106604879Y-61786826D01*
X106639453Y-61847542D01*
X106635713Y-61917311D01*
X106594846Y-61973983D01*
X106538174Y-61998531D01*
X106503582Y-62004009D01*
X106308968Y-62067244D01*
X106126644Y-62160143D01*
X106082077Y-62192523D01*
X106082077Y-62192524D01*
X106761554Y-62872000D01*
X106755339Y-62872000D01*
X106653606Y-62899259D01*
X106562394Y-62951920D01*
X106487920Y-63026394D01*
X106435259Y-63117606D01*
X106408000Y-63219339D01*
X106408000Y-63225553D01*
X105728524Y-62546077D01*
X105728523Y-62546077D01*
X105696143Y-62590644D01*
X105603244Y-62772968D01*
X105540009Y-62967582D01*
X105508000Y-63169682D01*
X105508000Y-63374317D01*
X105540009Y-63576417D01*
X105603244Y-63771031D01*
X105696141Y-63953350D01*
X105696147Y-63953359D01*
X105728523Y-63997921D01*
X105728524Y-63997922D01*
X106408000Y-63318446D01*
X106408000Y-63324661D01*
X106435259Y-63426394D01*
X106487920Y-63517606D01*
X106562394Y-63592080D01*
X106653606Y-63644741D01*
X106755339Y-63672000D01*
X106761553Y-63672000D01*
X106082076Y-64351474D01*
X106126650Y-64383859D01*
X106308968Y-64476755D01*
X106503578Y-64539988D01*
X106538171Y-64545467D01*
X106601307Y-64575395D01*
X106638239Y-64634706D01*
X106637243Y-64704569D01*
X106598634Y-64762802D01*
X106542970Y-64789558D01*
X106500416Y-64798023D01*
X106500409Y-64798025D01*
X106308511Y-64877511D01*
X106308509Y-64877512D01*
X106135796Y-64992916D01*
X106135792Y-64992919D01*
X105988919Y-65139792D01*
X105988916Y-65139796D01*
X105873512Y-65312509D01*
X105873511Y-65312511D01*
X105794025Y-65504409D01*
X105794022Y-65504421D01*
X105753500Y-65708136D01*
X105753500Y-65915863D01*
X105794022Y-66119578D01*
X105794025Y-66119590D01*
X105873511Y-66311488D01*
X105873512Y-66311490D01*
X105988916Y-66484203D01*
X105988919Y-66484207D01*
X106135792Y-66631080D01*
X106135796Y-66631083D01*
X106308507Y-66746486D01*
X106308508Y-66746486D01*
X106308509Y-66746487D01*
X106308511Y-66746488D01*
X106333052Y-66756653D01*
X106500414Y-66825976D01*
X106704136Y-66866499D01*
X106704139Y-66866500D01*
X106704141Y-66866500D01*
X106911861Y-66866500D01*
X106911862Y-66866499D01*
X107115586Y-66825976D01*
X107307493Y-66746486D01*
X107480204Y-66631083D01*
X107627083Y-66484204D01*
X107742486Y-66311493D01*
X107821976Y-66119586D01*
X107862500Y-65915859D01*
X107862500Y-65708141D01*
X107862500Y-65708138D01*
X107862499Y-65708136D01*
X107836808Y-65578981D01*
X107821976Y-65504414D01*
X107794988Y-65439259D01*
X107742488Y-65312511D01*
X107742487Y-65312509D01*
X107742484Y-65312505D01*
X107627083Y-65139796D01*
X107627080Y-65139792D01*
X107480207Y-64992919D01*
X107480203Y-64992916D01*
X107307490Y-64877512D01*
X107307488Y-64877511D01*
X107115590Y-64798025D01*
X107115583Y-64798023D01*
X107073029Y-64789558D01*
X107011119Y-64757172D01*
X106976546Y-64696455D01*
X106980287Y-64626686D01*
X107021154Y-64570015D01*
X107077828Y-64545467D01*
X107112421Y-64539988D01*
X107307031Y-64476755D01*
X107489349Y-64383859D01*
X107533921Y-64351474D01*
X106854447Y-63672000D01*
X106860661Y-63672000D01*
X106962394Y-63644741D01*
X107053606Y-63592080D01*
X107128080Y-63517606D01*
X107180741Y-63426394D01*
X107208000Y-63324661D01*
X107208000Y-63318448D01*
X107887474Y-63997922D01*
X107887474Y-63997921D01*
X107919859Y-63953349D01*
X107924015Y-63945194D01*
X107971989Y-63894398D01*
X108039810Y-63877603D01*
X108105945Y-63900140D01*
X108149397Y-63954855D01*
X108158500Y-64001489D01*
X108158500Y-67038500D01*
X108138815Y-67105539D01*
X108086011Y-67151294D01*
X108034500Y-67162500D01*
X99917489Y-67162500D01*
X99850450Y-67142815D01*
X99804695Y-67090011D01*
X99794751Y-67020853D01*
X99823776Y-66957297D01*
X99861194Y-66928015D01*
X99869349Y-66923859D01*
X99913921Y-66891474D01*
X99234447Y-66212000D01*
X99240661Y-66212000D01*
X99342394Y-66184741D01*
X99433606Y-66132080D01*
X99508080Y-66057606D01*
X99560741Y-65966394D01*
X99588000Y-65864661D01*
X99588000Y-65858448D01*
X100267474Y-66537922D01*
X100267474Y-66537921D01*
X100299859Y-66493349D01*
X100392755Y-66311031D01*
X100455990Y-66116417D01*
X100488000Y-65914317D01*
X100488000Y-65709691D01*
X100487998Y-65709674D01*
X100455990Y-65507582D01*
X100392755Y-65312968D01*
X100299859Y-65130650D01*
X100267474Y-65086077D01*
X100267474Y-65086076D01*
X99588000Y-65765551D01*
X99588000Y-65759339D01*
X99560741Y-65657606D01*
X99508080Y-65566394D01*
X99433606Y-65491920D01*
X99342394Y-65439259D01*
X99240661Y-65412000D01*
X99234446Y-65412000D01*
X99913922Y-64732524D01*
X99913921Y-64732523D01*
X99869359Y-64700147D01*
X99869350Y-64700141D01*
X99687031Y-64607244D01*
X99492417Y-64544009D01*
X99457825Y-64538531D01*
X99394690Y-64508602D01*
X99357759Y-64449290D01*
X99358757Y-64379428D01*
X99397367Y-64321195D01*
X99453032Y-64294441D01*
X99471313Y-64290804D01*
X99495586Y-64285976D01*
X99687493Y-64206486D01*
X99860204Y-64091083D01*
X100007083Y-63944204D01*
X100122486Y-63771493D01*
X100201976Y-63579586D01*
X100242500Y-63375859D01*
X100242500Y-63168141D01*
X100242500Y-63168138D01*
X100242499Y-63168136D01*
X100216808Y-63038981D01*
X100201976Y-62964414D01*
X100174988Y-62899259D01*
X100122488Y-62772511D01*
X100122487Y-62772509D01*
X100122484Y-62772505D01*
X100073631Y-62699391D01*
X100052753Y-62632713D01*
X100071238Y-62565333D01*
X100123216Y-62518643D01*
X100176733Y-62506500D01*
X103064416Y-62506500D01*
X103064419Y-62506500D01*
X103192730Y-62472119D01*
X103234837Y-62447808D01*
X103307770Y-62405701D01*
X104671701Y-61041770D01*
X104738119Y-60926730D01*
X104751047Y-60878481D01*
X104772500Y-60798419D01*
X104772500Y-52102333D01*
X104792185Y-52035294D01*
X104808819Y-52014652D01*
X105710652Y-51112819D01*
X105771975Y-51079334D01*
X105798333Y-51076500D01*
X105810581Y-51076500D01*
X105877620Y-51096185D01*
G37*
%TD.AperFunction*%
%TA.AperFunction,Conductor*%
G36*
X107887474Y-58917922D02*
G01*
X107887474Y-58917921D01*
X107919859Y-58873349D01*
X107924015Y-58865194D01*
X107971989Y-58814398D01*
X108039810Y-58797603D01*
X108105945Y-58820140D01*
X108149397Y-58874855D01*
X108158500Y-58921489D01*
X108158500Y-62542510D01*
X108138815Y-62609549D01*
X108086011Y-62655304D01*
X108016853Y-62665248D01*
X107953297Y-62636223D01*
X107924017Y-62598808D01*
X107919861Y-62590653D01*
X107887474Y-62546077D01*
X107887474Y-62546076D01*
X107208000Y-63225551D01*
X107208000Y-63219339D01*
X107180741Y-63117606D01*
X107128080Y-63026394D01*
X107053606Y-62951920D01*
X106962394Y-62899259D01*
X106860661Y-62872000D01*
X106854446Y-62872000D01*
X107533922Y-62192524D01*
X107533921Y-62192523D01*
X107489359Y-62160147D01*
X107489350Y-62160141D01*
X107307031Y-62067244D01*
X107112417Y-62004009D01*
X107077825Y-61998531D01*
X107014690Y-61968602D01*
X106977759Y-61909290D01*
X106978757Y-61839428D01*
X107017367Y-61781195D01*
X107073032Y-61754441D01*
X107091313Y-61750804D01*
X107115586Y-61745976D01*
X107307493Y-61666486D01*
X107480204Y-61551083D01*
X107627083Y-61404204D01*
X107742486Y-61231493D01*
X107821976Y-61039586D01*
X107862500Y-60835859D01*
X107862500Y-60628141D01*
X107862500Y-60628138D01*
X107862499Y-60628136D01*
X107836808Y-60498981D01*
X107821976Y-60424414D01*
X107794988Y-60359259D01*
X107742488Y-60232511D01*
X107742487Y-60232509D01*
X107742484Y-60232505D01*
X107627083Y-60059796D01*
X107627080Y-60059792D01*
X107480207Y-59912919D01*
X107480203Y-59912916D01*
X107307490Y-59797512D01*
X107307488Y-59797511D01*
X107115590Y-59718025D01*
X107115583Y-59718023D01*
X107073029Y-59709558D01*
X107011119Y-59677172D01*
X106976546Y-59616455D01*
X106980287Y-59546686D01*
X107021154Y-59490015D01*
X107077828Y-59465467D01*
X107112421Y-59459988D01*
X107307031Y-59396755D01*
X107489349Y-59303859D01*
X107533921Y-59271474D01*
X106854447Y-58592000D01*
X106860661Y-58592000D01*
X106962394Y-58564741D01*
X107053606Y-58512080D01*
X107128080Y-58437606D01*
X107180741Y-58346394D01*
X107208000Y-58244661D01*
X107208000Y-58238448D01*
X107887474Y-58917922D01*
G37*
%TD.AperFunction*%
%TA.AperFunction,Conductor*%
G36*
X108101539Y-31461185D02*
G01*
X108147294Y-31513989D01*
X108158500Y-31565500D01*
X108158500Y-52382510D01*
X108138815Y-52449549D01*
X108086011Y-52495304D01*
X108016853Y-52505248D01*
X107953297Y-52476223D01*
X107924017Y-52438808D01*
X107919861Y-52430653D01*
X107887474Y-52386077D01*
X107887474Y-52386076D01*
X107208000Y-53065551D01*
X107208000Y-53059339D01*
X107180741Y-52957606D01*
X107128080Y-52866394D01*
X107053606Y-52791920D01*
X106962394Y-52739259D01*
X106860661Y-52712000D01*
X106854446Y-52712000D01*
X107533922Y-52032524D01*
X107533921Y-52032523D01*
X107489359Y-52000147D01*
X107489350Y-52000141D01*
X107307031Y-51907244D01*
X107112417Y-51844009D01*
X107077825Y-51838531D01*
X107014690Y-51808602D01*
X106977759Y-51749290D01*
X106978757Y-51679428D01*
X107017367Y-51621195D01*
X107073032Y-51594441D01*
X107091313Y-51590804D01*
X107115586Y-51585976D01*
X107307493Y-51506486D01*
X107480204Y-51391083D01*
X107627083Y-51244204D01*
X107742486Y-51071493D01*
X107821976Y-50879586D01*
X107862500Y-50675859D01*
X107862500Y-50468141D01*
X107862500Y-50468138D01*
X107862499Y-50468136D01*
X107831711Y-50313357D01*
X107821976Y-50264414D01*
X107800637Y-50212896D01*
X107742488Y-50072511D01*
X107742487Y-50072509D01*
X107742484Y-50072505D01*
X107627083Y-49899796D01*
X107627080Y-49899792D01*
X107480211Y-49752923D01*
X107480206Y-49752919D01*
X107480204Y-49752917D01*
X107410338Y-49706233D01*
X107367608Y-49677681D01*
X107322804Y-49624069D01*
X107312500Y-49574580D01*
X107312500Y-48267419D01*
X107332185Y-48200380D01*
X107367609Y-48164317D01*
X107416645Y-48131552D01*
X107480204Y-48089083D01*
X107627083Y-47942204D01*
X107742486Y-47769493D01*
X107821976Y-47577586D01*
X107862500Y-47373859D01*
X107862500Y-47166141D01*
X107862500Y-47166138D01*
X107862499Y-47166136D01*
X107848849Y-47097512D01*
X107821976Y-46962414D01*
X107742486Y-46770507D01*
X107627083Y-46597796D01*
X107627080Y-46597792D01*
X107480207Y-46450919D01*
X107480203Y-46450916D01*
X107307490Y-46335512D01*
X107307488Y-46335511D01*
X107115590Y-46256025D01*
X107115578Y-46256022D01*
X106911862Y-46215500D01*
X106911859Y-46215500D01*
X106704141Y-46215500D01*
X106704138Y-46215500D01*
X106500421Y-46256022D01*
X106500409Y-46256025D01*
X106308511Y-46335511D01*
X106308509Y-46335512D01*
X106135796Y-46450916D01*
X106135792Y-46450919D01*
X105988919Y-46597792D01*
X105988916Y-46597796D01*
X105873512Y-46770509D01*
X105873511Y-46770511D01*
X105794025Y-46962409D01*
X105794022Y-46962421D01*
X105753500Y-47166136D01*
X105753500Y-47373863D01*
X105794022Y-47577578D01*
X105794025Y-47577590D01*
X105873511Y-47769488D01*
X105873512Y-47769490D01*
X105988916Y-47942203D01*
X105988919Y-47942207D01*
X106135792Y-48089080D01*
X106135796Y-48089083D01*
X106248391Y-48164317D01*
X106293196Y-48217929D01*
X106303500Y-48267419D01*
X106303500Y-49574580D01*
X106283815Y-49641619D01*
X106248392Y-49677681D01*
X106135796Y-49752917D01*
X106135789Y-49752923D01*
X105988919Y-49899792D01*
X105988916Y-49899796D01*
X105913683Y-50012391D01*
X105860071Y-50057196D01*
X105810581Y-50067500D01*
X105471581Y-50067500D01*
X105394594Y-50088128D01*
X105343268Y-50101881D01*
X105343267Y-50101882D01*
X105228233Y-50168296D01*
X105228228Y-50168300D01*
X103864301Y-51532227D01*
X103864295Y-51532236D01*
X103822190Y-51605160D01*
X103822191Y-51605161D01*
X103797882Y-51647265D01*
X103797336Y-51649303D01*
X103763500Y-51775581D01*
X103763500Y-51775583D01*
X103763500Y-60471667D01*
X103743815Y-60538706D01*
X103727181Y-60559348D01*
X102825348Y-61461181D01*
X102764025Y-61494666D01*
X102737667Y-61497500D01*
X100459332Y-61497500D01*
X100392293Y-61477815D01*
X100346538Y-61425011D01*
X100336594Y-61355853D01*
X100348847Y-61317205D01*
X100392755Y-61231031D01*
X100455990Y-61036417D01*
X100488000Y-60834317D01*
X100488000Y-60629682D01*
X100455990Y-60427582D01*
X100392755Y-60232968D01*
X100299859Y-60050650D01*
X100267474Y-60006077D01*
X100267474Y-60006076D01*
X99588000Y-60685551D01*
X99588000Y-60679339D01*
X99560741Y-60577606D01*
X99508080Y-60486394D01*
X99433606Y-60411920D01*
X99342394Y-60359259D01*
X99240661Y-60332000D01*
X99234446Y-60332000D01*
X99913922Y-59652524D01*
X99913921Y-59652523D01*
X99869359Y-59620147D01*
X99869350Y-59620141D01*
X99687031Y-59527244D01*
X99492417Y-59464009D01*
X99457825Y-59458531D01*
X99394690Y-59428602D01*
X99357759Y-59369290D01*
X99358757Y-59299428D01*
X99397367Y-59241195D01*
X99453032Y-59214441D01*
X99471313Y-59210804D01*
X99495586Y-59205976D01*
X99687493Y-59126486D01*
X99860204Y-59011083D01*
X100007083Y-58864204D01*
X100122486Y-58691493D01*
X100201976Y-58499586D01*
X100242500Y-58295859D01*
X100242500Y-58088141D01*
X100242500Y-58088138D01*
X100242499Y-58088136D01*
X100216808Y-57958981D01*
X100201976Y-57884414D01*
X100174988Y-57819259D01*
X100122488Y-57692511D01*
X100122487Y-57692509D01*
X100122484Y-57692505D01*
X100007083Y-57519796D01*
X100007080Y-57519792D01*
X99860207Y-57372919D01*
X99860203Y-57372916D01*
X99687490Y-57257512D01*
X99687488Y-57257511D01*
X99495590Y-57178025D01*
X99495583Y-57178023D01*
X99453029Y-57169558D01*
X99391119Y-57137172D01*
X99356546Y-57076455D01*
X99360287Y-57006686D01*
X99401154Y-56950015D01*
X99457828Y-56925467D01*
X99492421Y-56919988D01*
X99687031Y-56856755D01*
X99869349Y-56763859D01*
X99913921Y-56731474D01*
X99234447Y-56052000D01*
X99240661Y-56052000D01*
X99342394Y-56024741D01*
X99433606Y-55972080D01*
X99508080Y-55897606D01*
X99560741Y-55806394D01*
X99588000Y-55704661D01*
X99588000Y-55698448D01*
X100267474Y-56377922D01*
X100267474Y-56377921D01*
X100299859Y-56333349D01*
X100392755Y-56151031D01*
X100455990Y-55956417D01*
X100488000Y-55754317D01*
X100488000Y-55549682D01*
X100455990Y-55347582D01*
X100392755Y-55152968D01*
X100299859Y-54970650D01*
X100267474Y-54926077D01*
X100267474Y-54926076D01*
X99588000Y-55605551D01*
X99588000Y-55599339D01*
X99560741Y-55497606D01*
X99508080Y-55406394D01*
X99433606Y-55331920D01*
X99342394Y-55279259D01*
X99240661Y-55252000D01*
X99234446Y-55252000D01*
X99913922Y-54572524D01*
X99913921Y-54572523D01*
X99869359Y-54540147D01*
X99869350Y-54540141D01*
X99687031Y-54447244D01*
X99492417Y-54384009D01*
X99457825Y-54378531D01*
X99394690Y-54348602D01*
X99357759Y-54289290D01*
X99358757Y-54219428D01*
X99397367Y-54161195D01*
X99453032Y-54134441D01*
X99471313Y-54130804D01*
X99495586Y-54125976D01*
X99687493Y-54046486D01*
X99860204Y-53931083D01*
X100007083Y-53784204D01*
X100122486Y-53611493D01*
X100201976Y-53419586D01*
X100242500Y-53215859D01*
X100242500Y-53008141D01*
X100242500Y-53008138D01*
X100242499Y-53008136D01*
X100216808Y-52878981D01*
X100201976Y-52804414D01*
X100174988Y-52739259D01*
X100122488Y-52612511D01*
X100122487Y-52612509D01*
X100122484Y-52612505D01*
X100007083Y-52439796D01*
X100007080Y-52439792D01*
X99860207Y-52292919D01*
X99860203Y-52292916D01*
X99687490Y-52177512D01*
X99687488Y-52177511D01*
X99495590Y-52098025D01*
X99495578Y-52098022D01*
X99291862Y-52057500D01*
X99291859Y-52057500D01*
X99084141Y-52057500D01*
X99084138Y-52057500D01*
X98880421Y-52098022D01*
X98880409Y-52098025D01*
X98688511Y-52177511D01*
X98688509Y-52177512D01*
X98515796Y-52292916D01*
X98515792Y-52292919D01*
X98368919Y-52439792D01*
X98368916Y-52439796D01*
X98253512Y-52612509D01*
X98253511Y-52612511D01*
X98174025Y-52804409D01*
X98174022Y-52804421D01*
X98133500Y-53008136D01*
X98133500Y-53215863D01*
X98174022Y-53419578D01*
X98174025Y-53419590D01*
X98253511Y-53611488D01*
X98253512Y-53611490D01*
X98368916Y-53784203D01*
X98368919Y-53784207D01*
X98515792Y-53931080D01*
X98515796Y-53931083D01*
X98688507Y-54046486D01*
X98688508Y-54046486D01*
X98688509Y-54046487D01*
X98688511Y-54046488D01*
X98852339Y-54114347D01*
X98880414Y-54125976D01*
X98880418Y-54125976D01*
X98880419Y-54125977D01*
X98922968Y-54134441D01*
X98984879Y-54166826D01*
X99019453Y-54227542D01*
X99015713Y-54297311D01*
X98974846Y-54353983D01*
X98918174Y-54378531D01*
X98883582Y-54384009D01*
X98688968Y-54447244D01*
X98506644Y-54540143D01*
X98462077Y-54572523D01*
X98462077Y-54572524D01*
X99141554Y-55252000D01*
X99135339Y-55252000D01*
X99033606Y-55279259D01*
X98942394Y-55331920D01*
X98867920Y-55406394D01*
X98815259Y-55497606D01*
X98788000Y-55599339D01*
X98788000Y-55605553D01*
X98108524Y-54926077D01*
X98108523Y-54926077D01*
X98076143Y-54970644D01*
X97983244Y-55152968D01*
X97920009Y-55347582D01*
X97888000Y-55549682D01*
X97888000Y-55754317D01*
X97920009Y-55956417D01*
X97983244Y-56151031D01*
X98076141Y-56333350D01*
X98076147Y-56333359D01*
X98108523Y-56377921D01*
X98108524Y-56377922D01*
X98788000Y-55698446D01*
X98788000Y-55704661D01*
X98815259Y-55806394D01*
X98867920Y-55897606D01*
X98942394Y-55972080D01*
X99033606Y-56024741D01*
X99135339Y-56052000D01*
X99141553Y-56052000D01*
X98462076Y-56731474D01*
X98506650Y-56763859D01*
X98688968Y-56856755D01*
X98883578Y-56919988D01*
X98918171Y-56925467D01*
X98981307Y-56955395D01*
X99018239Y-57014706D01*
X99017243Y-57084569D01*
X98978634Y-57142802D01*
X98922970Y-57169558D01*
X98880416Y-57178023D01*
X98880409Y-57178025D01*
X98688511Y-57257511D01*
X98688509Y-57257512D01*
X98515796Y-57372916D01*
X98515792Y-57372919D01*
X98368919Y-57519792D01*
X98368916Y-57519796D01*
X98253512Y-57692509D01*
X98253511Y-57692511D01*
X98174025Y-57884409D01*
X98174022Y-57884421D01*
X98133500Y-58088136D01*
X98133500Y-58295863D01*
X98174022Y-58499578D01*
X98174025Y-58499590D01*
X98253511Y-58691488D01*
X98253512Y-58691490D01*
X98368916Y-58864203D01*
X98368919Y-58864207D01*
X98515792Y-59011080D01*
X98515796Y-59011083D01*
X98688507Y-59126486D01*
X98688508Y-59126486D01*
X98688509Y-59126487D01*
X98688511Y-59126488D01*
X98852339Y-59194347D01*
X98880414Y-59205976D01*
X98880418Y-59205976D01*
X98880419Y-59205977D01*
X98922968Y-59214441D01*
X98984879Y-59246826D01*
X99019453Y-59307542D01*
X99015713Y-59377311D01*
X98974846Y-59433983D01*
X98918174Y-59458531D01*
X98883582Y-59464009D01*
X98688968Y-59527244D01*
X98506644Y-59620143D01*
X98462077Y-59652523D01*
X98462077Y-59652524D01*
X99141554Y-60332000D01*
X99135339Y-60332000D01*
X99033606Y-60359259D01*
X98942394Y-60411920D01*
X98867920Y-60486394D01*
X98815259Y-60577606D01*
X98788000Y-60679339D01*
X98788000Y-60685553D01*
X98108524Y-60006077D01*
X98108523Y-60006077D01*
X98076143Y-60050644D01*
X97983244Y-60232968D01*
X97920009Y-60427582D01*
X97888000Y-60629682D01*
X97888000Y-60834317D01*
X97920009Y-61036417D01*
X97983244Y-61231031D01*
X98027153Y-61317205D01*
X98040049Y-61385874D01*
X98013773Y-61450615D01*
X97956666Y-61490872D01*
X97916668Y-61497500D01*
X96581581Y-61497500D01*
X96504594Y-61518128D01*
X96453268Y-61531881D01*
X96453267Y-61531882D01*
X96338233Y-61598296D01*
X96338228Y-61598300D01*
X95235587Y-62700941D01*
X95174264Y-62734426D01*
X95104572Y-62729442D01*
X95048639Y-62687570D01*
X95047588Y-62686145D01*
X95032405Y-62665248D01*
X94950465Y-62552467D01*
X94827533Y-62429535D01*
X94686884Y-62327347D01*
X94644354Y-62305677D01*
X94531978Y-62248418D01*
X94366641Y-62194697D01*
X94237854Y-62174299D01*
X94194926Y-62167500D01*
X94021074Y-62167500D01*
X93963836Y-62176565D01*
X93849360Y-62194697D01*
X93849357Y-62194697D01*
X93684021Y-62248418D01*
X93529115Y-62327347D01*
X93482655Y-62361103D01*
X93388467Y-62429535D01*
X93388465Y-62429537D01*
X93388464Y-62429537D01*
X93265537Y-62552464D01*
X93265537Y-62552465D01*
X93265535Y-62552467D01*
X93246704Y-62578386D01*
X93163347Y-62693115D01*
X93159944Y-62699795D01*
X93111969Y-62750591D01*
X93049459Y-62767500D01*
X92565419Y-62767500D01*
X92498380Y-62747815D01*
X92462317Y-62712391D01*
X92424172Y-62655304D01*
X92387083Y-62599796D01*
X92387080Y-62599792D01*
X92240207Y-62452919D01*
X92240203Y-62452916D01*
X92067490Y-62337512D01*
X92067488Y-62337511D01*
X91875590Y-62258025D01*
X91875578Y-62258022D01*
X91671862Y-62217500D01*
X91671859Y-62217500D01*
X91464141Y-62217500D01*
X91464138Y-62217500D01*
X91260421Y-62258022D01*
X91260409Y-62258025D01*
X91068511Y-62337511D01*
X91068509Y-62337512D01*
X90895796Y-62452916D01*
X90895792Y-62452919D01*
X90748919Y-62599792D01*
X90748916Y-62599796D01*
X90673683Y-62712391D01*
X90620071Y-62757196D01*
X90570581Y-62767500D01*
X90558333Y-62767500D01*
X90491294Y-62747815D01*
X90470652Y-62731181D01*
X89337772Y-61598301D01*
X89337770Y-61598299D01*
X89312320Y-61583605D01*
X89264838Y-61556191D01*
X89264837Y-61556191D01*
X89222730Y-61531881D01*
X89222731Y-61531881D01*
X89190652Y-61523285D01*
X89094419Y-61497500D01*
X89094416Y-61497500D01*
X79919713Y-61497500D01*
X79852674Y-61477815D01*
X79806919Y-61425011D01*
X79796975Y-61355853D01*
X79811446Y-61315737D01*
X79810441Y-61315225D01*
X79853104Y-61231494D01*
X79891580Y-61155981D01*
X79914436Y-61085637D01*
X79945302Y-60990642D01*
X79945302Y-60990641D01*
X79945303Y-60990638D01*
X79972500Y-60818926D01*
X79972500Y-60645074D01*
X79945303Y-60473362D01*
X79945302Y-60473358D01*
X79945302Y-60473357D01*
X79891581Y-60308021D01*
X79884791Y-60294694D01*
X79812653Y-60153116D01*
X79729295Y-60038385D01*
X79705816Y-59972580D01*
X79721641Y-59904526D01*
X79771747Y-59855831D01*
X79829614Y-59841500D01*
X88819444Y-59841500D01*
X88886483Y-59861185D01*
X88907125Y-59877819D01*
X89989983Y-60960677D01*
X89989993Y-60960688D01*
X89994323Y-60965018D01*
X89994324Y-60965019D01*
X90064981Y-61035676D01*
X90064983Y-61035677D01*
X90064984Y-61035678D01*
X90108249Y-61060657D01*
X90151518Y-61085638D01*
X90248038Y-61111501D01*
X90248040Y-61111501D01*
X90355558Y-61111501D01*
X90355574Y-61111500D01*
X90500958Y-61111500D01*
X90567997Y-61131185D01*
X90613752Y-61183989D01*
X90615502Y-61188009D01*
X90633514Y-61231493D01*
X90633515Y-61231494D01*
X90748916Y-61404203D01*
X90748919Y-61404207D01*
X90895792Y-61551080D01*
X90895796Y-61551083D01*
X91068507Y-61666486D01*
X91068508Y-61666486D01*
X91068509Y-61666487D01*
X91068511Y-61666488D01*
X91093052Y-61676653D01*
X91260414Y-61745976D01*
X91437471Y-61781195D01*
X91464136Y-61786499D01*
X91464139Y-61786500D01*
X91464141Y-61786500D01*
X91671861Y-61786500D01*
X91671862Y-61786499D01*
X91875586Y-61745976D01*
X92067493Y-61666486D01*
X92240204Y-61551083D01*
X92387083Y-61404204D01*
X92502486Y-61231493D01*
X92520481Y-61188046D01*
X92564321Y-61133645D01*
X92630615Y-61111579D01*
X92635042Y-61111500D01*
X92985768Y-61111500D01*
X93052807Y-61131185D01*
X93096253Y-61179205D01*
X93163347Y-61310884D01*
X93265535Y-61451533D01*
X93388467Y-61574465D01*
X93529116Y-61676653D01*
X93642347Y-61734347D01*
X93684021Y-61755581D01*
X93849358Y-61809302D01*
X93849359Y-61809302D01*
X93849362Y-61809303D01*
X94021074Y-61836500D01*
X94021075Y-61836500D01*
X94194925Y-61836500D01*
X94194926Y-61836500D01*
X94366638Y-61809303D01*
X94366641Y-61809302D01*
X94366642Y-61809302D01*
X94531978Y-61755581D01*
X94531978Y-61755580D01*
X94531981Y-61755580D01*
X94686884Y-61676653D01*
X94827533Y-61574465D01*
X94950465Y-61451533D01*
X95052653Y-61310884D01*
X95131580Y-61155981D01*
X95154436Y-61085637D01*
X95185302Y-60990642D01*
X95185302Y-60990641D01*
X95185303Y-60990638D01*
X95212500Y-60818926D01*
X95212500Y-60645074D01*
X95185303Y-60473362D01*
X95185302Y-60473358D01*
X95185302Y-60473357D01*
X95131581Y-60308021D01*
X95124791Y-60294694D01*
X95052653Y-60153116D01*
X94950465Y-60012467D01*
X94827533Y-59889535D01*
X94686884Y-59787347D01*
X94644354Y-59765677D01*
X94531978Y-59708418D01*
X94366641Y-59654697D01*
X94237854Y-59634299D01*
X94194926Y-59627500D01*
X94021074Y-59627500D01*
X93963836Y-59636565D01*
X93849360Y-59654697D01*
X93849357Y-59654697D01*
X93684021Y-59708418D01*
X93529115Y-59787347D01*
X93482655Y-59821103D01*
X93388467Y-59889535D01*
X93388465Y-59889537D01*
X93388464Y-59889537D01*
X93265537Y-60012464D01*
X93265537Y-60012465D01*
X93265535Y-60012467D01*
X93235954Y-60053182D01*
X93163347Y-60153115D01*
X93096253Y-60284795D01*
X93048278Y-60335591D01*
X92985768Y-60352500D01*
X92635042Y-60352500D01*
X92568003Y-60332815D01*
X92522248Y-60280011D01*
X92520497Y-60275990D01*
X92502486Y-60232507D01*
X92387083Y-60059796D01*
X92387080Y-60059792D01*
X92240207Y-59912919D01*
X92240203Y-59912916D01*
X92067490Y-59797512D01*
X92067488Y-59797511D01*
X91875590Y-59718025D01*
X91875578Y-59718022D01*
X91671862Y-59677500D01*
X91671859Y-59677500D01*
X91464141Y-59677500D01*
X91464138Y-59677500D01*
X91260421Y-59718022D01*
X91260409Y-59718025D01*
X91068511Y-59797511D01*
X91068509Y-59797512D01*
X90895796Y-59912916D01*
X90895792Y-59912919D01*
X90748919Y-60059792D01*
X90748916Y-60059796D01*
X90633515Y-60232505D01*
X90633513Y-60232509D01*
X90617158Y-60271994D01*
X90573317Y-60326397D01*
X90507022Y-60348462D01*
X90439323Y-60331183D01*
X90414916Y-60312222D01*
X89338746Y-59236052D01*
X89338744Y-59236049D01*
X89261020Y-59158325D01*
X89261015Y-59158321D01*
X89174485Y-59108363D01*
X89174482Y-59108362D01*
X89154084Y-59102896D01*
X89077962Y-59082499D01*
X88978038Y-59082499D01*
X88970442Y-59082499D01*
X88970426Y-59082500D01*
X79829614Y-59082500D01*
X79762575Y-59062815D01*
X79716820Y-59010011D01*
X79706876Y-58940853D01*
X79729296Y-58885614D01*
X79735339Y-58877297D01*
X79812653Y-58770884D01*
X79891580Y-58615981D01*
X79900539Y-58588409D01*
X79945302Y-58450642D01*
X79945302Y-58450641D01*
X79945303Y-58450638D01*
X79972500Y-58278926D01*
X79972500Y-58105074D01*
X79945303Y-57933362D01*
X79945302Y-57933358D01*
X79945302Y-57933357D01*
X79891581Y-57768021D01*
X79884791Y-57754694D01*
X79812653Y-57613116D01*
X79729295Y-57498385D01*
X79705816Y-57432580D01*
X79721641Y-57364526D01*
X79771747Y-57315831D01*
X79829614Y-57301500D01*
X88819444Y-57301500D01*
X88886483Y-57321185D01*
X88907125Y-57337819D01*
X89989983Y-58420677D01*
X89989993Y-58420688D01*
X89994323Y-58425018D01*
X89994324Y-58425019D01*
X90064981Y-58495676D01*
X90064983Y-58495677D01*
X90064984Y-58495678D01*
X90108249Y-58520657D01*
X90151518Y-58545638D01*
X90248038Y-58571501D01*
X90248040Y-58571501D01*
X90355558Y-58571501D01*
X90355574Y-58571500D01*
X90500958Y-58571500D01*
X90567997Y-58591185D01*
X90613752Y-58643989D01*
X90615502Y-58648009D01*
X90633514Y-58691493D01*
X90633515Y-58691494D01*
X90748916Y-58864203D01*
X90748919Y-58864207D01*
X90895792Y-59011080D01*
X90895796Y-59011083D01*
X91068507Y-59126486D01*
X91068508Y-59126486D01*
X91068509Y-59126487D01*
X91068511Y-59126488D01*
X91232339Y-59194347D01*
X91260414Y-59205976D01*
X91411601Y-59236049D01*
X91464136Y-59246499D01*
X91464139Y-59246500D01*
X91464141Y-59246500D01*
X91671861Y-59246500D01*
X91671862Y-59246499D01*
X91875586Y-59205976D01*
X92067493Y-59126486D01*
X92240204Y-59011083D01*
X92387083Y-58864204D01*
X92502486Y-58691493D01*
X92520481Y-58648046D01*
X92564321Y-58593645D01*
X92630615Y-58571579D01*
X92635042Y-58571500D01*
X92985768Y-58571500D01*
X93052807Y-58591185D01*
X93096253Y-58639205D01*
X93104743Y-58655868D01*
X93163347Y-58770884D01*
X93265535Y-58911533D01*
X93388467Y-59034465D01*
X93529116Y-59136653D01*
X93571648Y-59158324D01*
X93684021Y-59215581D01*
X93849358Y-59269302D01*
X93849359Y-59269302D01*
X93849362Y-59269303D01*
X94021074Y-59296500D01*
X94021075Y-59296500D01*
X94194925Y-59296500D01*
X94194926Y-59296500D01*
X94366638Y-59269303D01*
X94366641Y-59269302D01*
X94366642Y-59269302D01*
X94531978Y-59215581D01*
X94531978Y-59215580D01*
X94531981Y-59215580D01*
X94686884Y-59136653D01*
X94827533Y-59034465D01*
X94950465Y-58911533D01*
X95052653Y-58770884D01*
X95131580Y-58615981D01*
X95140539Y-58588409D01*
X95185302Y-58450642D01*
X95185302Y-58450641D01*
X95185303Y-58450638D01*
X95212500Y-58278926D01*
X95212500Y-58105074D01*
X95185303Y-57933362D01*
X95185302Y-57933358D01*
X95185302Y-57933357D01*
X95131581Y-57768021D01*
X95124791Y-57754694D01*
X95052653Y-57613116D01*
X94950465Y-57472467D01*
X94827533Y-57349535D01*
X94686884Y-57247347D01*
X94644354Y-57225677D01*
X94531978Y-57168418D01*
X94366641Y-57114697D01*
X94237854Y-57094299D01*
X94194926Y-57087500D01*
X94021074Y-57087500D01*
X93963836Y-57096565D01*
X93849360Y-57114697D01*
X93849357Y-57114697D01*
X93684021Y-57168418D01*
X93529115Y-57247347D01*
X93482655Y-57281103D01*
X93388467Y-57349535D01*
X93388465Y-57349537D01*
X93388464Y-57349537D01*
X93265537Y-57472464D01*
X93265537Y-57472465D01*
X93265535Y-57472467D01*
X93235954Y-57513182D01*
X93163347Y-57613115D01*
X93096253Y-57744795D01*
X93048278Y-57795591D01*
X92985768Y-57812500D01*
X92635042Y-57812500D01*
X92568003Y-57792815D01*
X92522248Y-57740011D01*
X92520497Y-57735990D01*
X92502486Y-57692507D01*
X92387083Y-57519796D01*
X92387080Y-57519792D01*
X92240207Y-57372919D01*
X92240203Y-57372916D01*
X92067490Y-57257512D01*
X92067488Y-57257511D01*
X91875590Y-57178025D01*
X91875578Y-57178022D01*
X91671862Y-57137500D01*
X91671859Y-57137500D01*
X91464141Y-57137500D01*
X91464138Y-57137500D01*
X91260421Y-57178022D01*
X91260409Y-57178025D01*
X91068511Y-57257511D01*
X91068509Y-57257512D01*
X90895796Y-57372916D01*
X90895792Y-57372919D01*
X90748919Y-57519792D01*
X90748916Y-57519796D01*
X90633515Y-57692505D01*
X90633513Y-57692509D01*
X90617158Y-57731994D01*
X90573317Y-57786397D01*
X90507022Y-57808462D01*
X90439323Y-57791183D01*
X90414916Y-57772222D01*
X89338746Y-56696052D01*
X89338744Y-56696049D01*
X89261020Y-56618325D01*
X89261015Y-56618321D01*
X89174485Y-56568363D01*
X89174482Y-56568362D01*
X89154084Y-56562896D01*
X89077962Y-56542499D01*
X88978038Y-56542499D01*
X88970442Y-56542499D01*
X88970426Y-56542500D01*
X79829614Y-56542500D01*
X79762575Y-56522815D01*
X79716820Y-56470011D01*
X79706876Y-56400853D01*
X79729296Y-56345614D01*
X79735339Y-56337297D01*
X79812653Y-56230884D01*
X79891580Y-56075981D01*
X79900539Y-56048409D01*
X79945302Y-55910642D01*
X79945302Y-55910641D01*
X79945303Y-55910638D01*
X79972500Y-55738926D01*
X79972500Y-55565074D01*
X79945303Y-55393362D01*
X79945302Y-55393358D01*
X79945302Y-55393357D01*
X79891581Y-55228021D01*
X79884791Y-55214694D01*
X79812653Y-55073116D01*
X79729295Y-54958385D01*
X79705816Y-54892580D01*
X79721641Y-54824526D01*
X79771747Y-54775831D01*
X79829614Y-54761500D01*
X88819444Y-54761500D01*
X88886483Y-54781185D01*
X88907125Y-54797819D01*
X89989983Y-55880677D01*
X89989993Y-55880688D01*
X89994323Y-55885018D01*
X89994324Y-55885019D01*
X90064981Y-55955676D01*
X90064983Y-55955677D01*
X90064984Y-55955678D01*
X90108249Y-55980657D01*
X90151518Y-56005638D01*
X90248038Y-56031501D01*
X90248040Y-56031501D01*
X90355558Y-56031501D01*
X90355574Y-56031500D01*
X90500958Y-56031500D01*
X90567997Y-56051185D01*
X90613752Y-56103989D01*
X90615502Y-56108009D01*
X90633514Y-56151493D01*
X90633515Y-56151494D01*
X90748916Y-56324203D01*
X90748919Y-56324207D01*
X90895792Y-56471080D01*
X90895796Y-56471083D01*
X91068507Y-56586486D01*
X91068508Y-56586486D01*
X91068509Y-56586487D01*
X91068511Y-56586488D01*
X91232339Y-56654347D01*
X91260414Y-56665976D01*
X91411601Y-56696049D01*
X91464136Y-56706499D01*
X91464139Y-56706500D01*
X91464141Y-56706500D01*
X91671861Y-56706500D01*
X91671862Y-56706499D01*
X91875586Y-56665976D01*
X92067493Y-56586486D01*
X92240204Y-56471083D01*
X92387083Y-56324204D01*
X92502486Y-56151493D01*
X92520481Y-56108046D01*
X92564321Y-56053645D01*
X92630615Y-56031579D01*
X92635042Y-56031500D01*
X92985768Y-56031500D01*
X93052807Y-56051185D01*
X93096253Y-56099205D01*
X93104743Y-56115868D01*
X93163347Y-56230884D01*
X93265535Y-56371533D01*
X93388467Y-56494465D01*
X93529116Y-56596653D01*
X93571648Y-56618324D01*
X93684021Y-56675581D01*
X93849358Y-56729302D01*
X93849359Y-56729302D01*
X93849362Y-56729303D01*
X94021074Y-56756500D01*
X94021075Y-56756500D01*
X94194925Y-56756500D01*
X94194926Y-56756500D01*
X94366638Y-56729303D01*
X94366641Y-56729302D01*
X94366642Y-56729302D01*
X94531978Y-56675581D01*
X94531978Y-56675580D01*
X94531981Y-56675580D01*
X94686884Y-56596653D01*
X94827533Y-56494465D01*
X94950465Y-56371533D01*
X95052653Y-56230884D01*
X95131580Y-56075981D01*
X95140539Y-56048409D01*
X95185302Y-55910642D01*
X95185302Y-55910641D01*
X95185303Y-55910638D01*
X95212500Y-55738926D01*
X95212500Y-55565074D01*
X95185303Y-55393362D01*
X95185302Y-55393358D01*
X95185302Y-55393357D01*
X95131581Y-55228021D01*
X95124791Y-55214694D01*
X95052653Y-55073116D01*
X94950465Y-54932467D01*
X94827533Y-54809535D01*
X94686884Y-54707347D01*
X94644354Y-54685677D01*
X94531978Y-54628418D01*
X94366641Y-54574697D01*
X94237854Y-54554299D01*
X94194926Y-54547500D01*
X94021074Y-54547500D01*
X93963836Y-54556565D01*
X93849360Y-54574697D01*
X93849357Y-54574697D01*
X93684021Y-54628418D01*
X93529115Y-54707347D01*
X93482655Y-54741103D01*
X93388467Y-54809535D01*
X93388465Y-54809537D01*
X93388464Y-54809537D01*
X93265537Y-54932464D01*
X93265537Y-54932465D01*
X93265535Y-54932467D01*
X93235954Y-54973182D01*
X93163347Y-55073115D01*
X93096253Y-55204795D01*
X93048278Y-55255591D01*
X92985768Y-55272500D01*
X92635042Y-55272500D01*
X92568003Y-55252815D01*
X92522248Y-55200011D01*
X92520497Y-55195990D01*
X92502486Y-55152507D01*
X92387083Y-54979796D01*
X92387080Y-54979792D01*
X92240207Y-54832919D01*
X92240203Y-54832916D01*
X92067490Y-54717512D01*
X92067488Y-54717511D01*
X91875590Y-54638025D01*
X91875578Y-54638022D01*
X91671862Y-54597500D01*
X91671859Y-54597500D01*
X91464141Y-54597500D01*
X91464138Y-54597500D01*
X91260421Y-54638022D01*
X91260409Y-54638025D01*
X91068511Y-54717511D01*
X91068509Y-54717512D01*
X90895796Y-54832916D01*
X90895792Y-54832919D01*
X90748919Y-54979792D01*
X90748916Y-54979796D01*
X90633515Y-55152505D01*
X90633513Y-55152509D01*
X90617158Y-55191994D01*
X90573317Y-55246397D01*
X90507022Y-55268462D01*
X90439323Y-55251183D01*
X90414916Y-55232222D01*
X89338746Y-54156052D01*
X89338744Y-54156049D01*
X89261020Y-54078325D01*
X89261015Y-54078321D01*
X89174485Y-54028363D01*
X89174482Y-54028362D01*
X89154084Y-54022896D01*
X89077962Y-54002499D01*
X88978038Y-54002499D01*
X88970442Y-54002499D01*
X88970426Y-54002500D01*
X79829614Y-54002500D01*
X79762575Y-53982815D01*
X79716820Y-53930011D01*
X79706876Y-53860853D01*
X79729296Y-53805614D01*
X79735339Y-53797297D01*
X79812653Y-53690884D01*
X79891580Y-53535981D01*
X79900539Y-53508409D01*
X79945302Y-53370642D01*
X79945302Y-53370641D01*
X79945303Y-53370638D01*
X79972500Y-53198926D01*
X79972500Y-53025074D01*
X79945303Y-52853362D01*
X79945302Y-52853358D01*
X79945302Y-52853357D01*
X79891581Y-52688021D01*
X79877309Y-52660010D01*
X79812653Y-52533116D01*
X79729295Y-52418385D01*
X79705816Y-52352580D01*
X79721641Y-52284526D01*
X79771747Y-52235831D01*
X79829614Y-52221500D01*
X88819444Y-52221500D01*
X88886483Y-52241185D01*
X88907125Y-52257819D01*
X89989983Y-53340677D01*
X89989993Y-53340688D01*
X89994323Y-53345018D01*
X89994324Y-53345019D01*
X90064981Y-53415676D01*
X90064983Y-53415677D01*
X90064984Y-53415678D01*
X90108249Y-53440657D01*
X90151518Y-53465638D01*
X90248038Y-53491501D01*
X90248040Y-53491501D01*
X90355558Y-53491501D01*
X90355574Y-53491500D01*
X90500958Y-53491500D01*
X90567997Y-53511185D01*
X90613752Y-53563989D01*
X90615502Y-53568009D01*
X90633514Y-53611493D01*
X90633515Y-53611494D01*
X90748916Y-53784203D01*
X90748919Y-53784207D01*
X90895792Y-53931080D01*
X90895796Y-53931083D01*
X91068507Y-54046486D01*
X91068508Y-54046486D01*
X91068509Y-54046487D01*
X91068511Y-54046488D01*
X91232339Y-54114347D01*
X91260414Y-54125976D01*
X91411601Y-54156049D01*
X91464136Y-54166499D01*
X91464139Y-54166500D01*
X91464141Y-54166500D01*
X91671861Y-54166500D01*
X91671862Y-54166499D01*
X91875586Y-54125976D01*
X92067493Y-54046486D01*
X92240204Y-53931083D01*
X92387083Y-53784204D01*
X92502486Y-53611493D01*
X92520481Y-53568046D01*
X92564321Y-53513645D01*
X92630615Y-53491579D01*
X92635042Y-53491500D01*
X92985768Y-53491500D01*
X93052807Y-53511185D01*
X93096253Y-53559205D01*
X93104743Y-53575868D01*
X93163347Y-53690884D01*
X93265535Y-53831533D01*
X93388467Y-53954465D01*
X93529116Y-54056653D01*
X93571648Y-54078324D01*
X93684021Y-54135581D01*
X93849358Y-54189302D01*
X93849359Y-54189302D01*
X93849362Y-54189303D01*
X94021074Y-54216500D01*
X94021075Y-54216500D01*
X94194925Y-54216500D01*
X94194926Y-54216500D01*
X94366638Y-54189303D01*
X94366641Y-54189302D01*
X94366642Y-54189302D01*
X94531978Y-54135581D01*
X94531978Y-54135580D01*
X94531981Y-54135580D01*
X94686884Y-54056653D01*
X94827533Y-53954465D01*
X94950465Y-53831533D01*
X95052653Y-53690884D01*
X95131580Y-53535981D01*
X95140539Y-53508409D01*
X95185302Y-53370642D01*
X95185302Y-53370641D01*
X95185303Y-53370638D01*
X95212500Y-53198926D01*
X95212500Y-53025074D01*
X95185303Y-52853362D01*
X95185302Y-52853358D01*
X95185302Y-52853357D01*
X95131581Y-52688021D01*
X95117309Y-52660010D01*
X95052653Y-52533116D01*
X94969295Y-52418385D01*
X94945816Y-52352580D01*
X94961641Y-52284526D01*
X95011747Y-52235831D01*
X95069614Y-52221500D01*
X95828426Y-52221500D01*
X95828442Y-52221501D01*
X95836038Y-52221501D01*
X95935961Y-52221501D01*
X95935962Y-52221501D01*
X96012080Y-52201104D01*
X96012082Y-52201104D01*
X96025015Y-52197638D01*
X96032482Y-52195638D01*
X96119019Y-52145676D01*
X96189676Y-52075019D01*
X96189676Y-52075017D01*
X96199880Y-52064814D01*
X96199884Y-52064809D01*
X96870809Y-51393884D01*
X96870814Y-51393880D01*
X96881017Y-51383676D01*
X96881019Y-51383676D01*
X96951676Y-51313019D01*
X97001638Y-51226482D01*
X97019972Y-51158059D01*
X97027501Y-51129962D01*
X97027501Y-51030038D01*
X97027501Y-51022443D01*
X97027500Y-51022425D01*
X97027500Y-49973728D01*
X98133500Y-49973728D01*
X98133500Y-51170251D01*
X98133501Y-51170257D01*
X98139960Y-51230344D01*
X98190655Y-51366261D01*
X98190656Y-51366264D01*
X98190658Y-51366267D01*
X98209233Y-51391080D01*
X98277595Y-51482404D01*
X98323348Y-51516653D01*
X98393733Y-51569342D01*
X98529658Y-51620040D01*
X98589745Y-51626500D01*
X99786254Y-51626499D01*
X99846342Y-51620040D01*
X99982267Y-51569342D01*
X100098404Y-51482404D01*
X100185342Y-51366267D01*
X100236040Y-51230342D01*
X100238800Y-51204664D01*
X100242499Y-51170271D01*
X100242499Y-51170264D01*
X100242500Y-51170255D01*
X100242499Y-49973746D01*
X100236040Y-49913658D01*
X100228403Y-49893182D01*
X100185344Y-49777738D01*
X100185343Y-49777737D01*
X100185342Y-49777733D01*
X100141707Y-49719443D01*
X100098404Y-49661595D01*
X100021126Y-49603747D01*
X99982267Y-49574658D01*
X99846342Y-49523960D01*
X99846338Y-49523959D01*
X99786262Y-49517500D01*
X98589748Y-49517500D01*
X98589742Y-49517501D01*
X98529655Y-49523960D01*
X98393738Y-49574655D01*
X98393730Y-49574660D01*
X98277595Y-49661595D01*
X98202311Y-49762166D01*
X98190658Y-49777733D01*
X98139960Y-49913658D01*
X98139959Y-49913662D01*
X98133500Y-49973728D01*
X97027500Y-49973728D01*
X97027500Y-47167682D01*
X100508000Y-47167682D01*
X100508000Y-47372317D01*
X100540009Y-47574417D01*
X100603244Y-47769031D01*
X100696141Y-47951350D01*
X100696147Y-47951359D01*
X100728523Y-47995921D01*
X100728524Y-47995922D01*
X101408000Y-47316446D01*
X101408000Y-47322661D01*
X101435259Y-47424394D01*
X101487920Y-47515606D01*
X101562394Y-47590080D01*
X101653606Y-47642741D01*
X101755339Y-47670000D01*
X101761553Y-47670000D01*
X101082076Y-48349474D01*
X101126650Y-48381859D01*
X101308968Y-48474755D01*
X101503582Y-48537990D01*
X101705683Y-48570000D01*
X101910317Y-48570000D01*
X102112417Y-48537990D01*
X102307031Y-48474755D01*
X102489349Y-48381859D01*
X102533921Y-48349474D01*
X101854447Y-47670000D01*
X101860661Y-47670000D01*
X101962394Y-47642741D01*
X102053606Y-47590080D01*
X102128080Y-47515606D01*
X102180741Y-47424394D01*
X102208000Y-47322661D01*
X102208000Y-47316447D01*
X102887474Y-47995921D01*
X102919859Y-47951349D01*
X103012755Y-47769031D01*
X103075990Y-47574417D01*
X103108000Y-47372317D01*
X103108000Y-47167682D01*
X103075990Y-46965582D01*
X103012755Y-46770968D01*
X102919859Y-46588650D01*
X102887474Y-46544077D01*
X102887474Y-46544076D01*
X102208000Y-47223551D01*
X102208000Y-47217339D01*
X102180741Y-47115606D01*
X102128080Y-47024394D01*
X102053606Y-46949920D01*
X101962394Y-46897259D01*
X101860661Y-46870000D01*
X101854446Y-46870000D01*
X102533922Y-46190524D01*
X102533921Y-46190523D01*
X102489359Y-46158147D01*
X102489350Y-46158141D01*
X102307031Y-46065244D01*
X102112417Y-46002009D01*
X101910317Y-45970000D01*
X101705683Y-45970000D01*
X101503582Y-46002009D01*
X101308968Y-46065244D01*
X101126644Y-46158143D01*
X101082077Y-46190523D01*
X101082077Y-46190524D01*
X101761554Y-46870000D01*
X101755339Y-46870000D01*
X101653606Y-46897259D01*
X101562394Y-46949920D01*
X101487920Y-47024394D01*
X101435259Y-47115606D01*
X101408000Y-47217339D01*
X101408000Y-47223553D01*
X100728524Y-46544077D01*
X100728523Y-46544077D01*
X100696143Y-46588644D01*
X100603244Y-46770968D01*
X100540009Y-46965582D01*
X100508000Y-47167682D01*
X97027500Y-47167682D01*
X97027500Y-45289042D01*
X97047185Y-45222003D01*
X97099989Y-45176248D01*
X97104009Y-45174497D01*
X97147493Y-45156486D01*
X97320204Y-45041083D01*
X97467083Y-44894204D01*
X97582486Y-44721493D01*
X97600481Y-44678046D01*
X97644321Y-44623645D01*
X97710615Y-44601579D01*
X97715042Y-44601500D01*
X102178426Y-44601500D01*
X102178442Y-44601501D01*
X102186038Y-44601501D01*
X102285961Y-44601501D01*
X102285962Y-44601501D01*
X102362080Y-44581104D01*
X102362082Y-44581104D01*
X102375015Y-44577638D01*
X102382482Y-44575638D01*
X102469019Y-44525676D01*
X102539676Y-44455019D01*
X102539676Y-44455017D01*
X102549880Y-44444814D01*
X102549883Y-44444809D01*
X102876557Y-44118136D01*
X105753500Y-44118136D01*
X105753500Y-44325863D01*
X105794022Y-44529578D01*
X105794025Y-44529590D01*
X105873511Y-44721488D01*
X105873512Y-44721490D01*
X105988916Y-44894203D01*
X105988919Y-44894207D01*
X106135792Y-45041080D01*
X106135796Y-45041083D01*
X106308507Y-45156486D01*
X106308508Y-45156486D01*
X106308509Y-45156487D01*
X106308511Y-45156488D01*
X106466680Y-45222003D01*
X106500414Y-45235976D01*
X106704136Y-45276499D01*
X106704139Y-45276500D01*
X106704141Y-45276500D01*
X106911861Y-45276500D01*
X106911862Y-45276499D01*
X107115586Y-45235976D01*
X107307493Y-45156486D01*
X107480204Y-45041083D01*
X107627083Y-44894204D01*
X107742486Y-44721493D01*
X107821976Y-44529586D01*
X107862500Y-44325859D01*
X107862500Y-44118141D01*
X107862500Y-44118138D01*
X107862499Y-44118136D01*
X107834143Y-43975581D01*
X107821976Y-43914414D01*
X107800637Y-43862896D01*
X107742488Y-43722511D01*
X107742487Y-43722509D01*
X107742484Y-43722505D01*
X107627083Y-43549796D01*
X107627080Y-43549792D01*
X107480207Y-43402919D01*
X107480203Y-43402916D01*
X107307490Y-43287512D01*
X107307488Y-43287511D01*
X107115590Y-43208025D01*
X107115578Y-43208022D01*
X106911862Y-43167500D01*
X106911859Y-43167500D01*
X106704141Y-43167500D01*
X106704138Y-43167500D01*
X106500421Y-43208022D01*
X106500409Y-43208025D01*
X106308511Y-43287511D01*
X106308509Y-43287512D01*
X106135796Y-43402916D01*
X106135792Y-43402919D01*
X105988919Y-43549792D01*
X105988916Y-43549796D01*
X105873512Y-43722509D01*
X105873511Y-43722511D01*
X105794025Y-43914409D01*
X105794022Y-43914421D01*
X105753500Y-44118136D01*
X102876557Y-44118136D01*
X103555676Y-43439019D01*
X103556400Y-43437764D01*
X103576519Y-43402919D01*
X103576519Y-43402917D01*
X103578662Y-43399205D01*
X103605638Y-43352482D01*
X103611260Y-43331500D01*
X103631501Y-43255962D01*
X103631501Y-43156038D01*
X103631501Y-43148443D01*
X103631500Y-43148425D01*
X103631500Y-40816136D01*
X105753500Y-40816136D01*
X105753500Y-41023863D01*
X105794022Y-41227578D01*
X105794025Y-41227590D01*
X105873511Y-41419488D01*
X105873512Y-41419490D01*
X105988916Y-41592203D01*
X105988919Y-41592207D01*
X106135792Y-41739080D01*
X106135796Y-41739083D01*
X106308507Y-41854486D01*
X106308508Y-41854486D01*
X106308509Y-41854487D01*
X106308511Y-41854488D01*
X106500409Y-41933974D01*
X106500414Y-41933976D01*
X106704136Y-41974499D01*
X106704139Y-41974500D01*
X106704141Y-41974500D01*
X106911861Y-41974500D01*
X106911862Y-41974499D01*
X107115586Y-41933976D01*
X107307493Y-41854486D01*
X107480204Y-41739083D01*
X107627083Y-41592204D01*
X107742486Y-41419493D01*
X107821976Y-41227586D01*
X107862500Y-41023859D01*
X107862500Y-40816141D01*
X107862500Y-40816138D01*
X107862499Y-40816136D01*
X107852454Y-40765636D01*
X107821976Y-40612414D01*
X107821974Y-40612409D01*
X107742488Y-40420511D01*
X107742487Y-40420509D01*
X107718909Y-40385223D01*
X107627083Y-40247796D01*
X107627080Y-40247792D01*
X107480207Y-40100919D01*
X107480203Y-40100916D01*
X107307490Y-39985512D01*
X107307488Y-39985511D01*
X107115590Y-39906025D01*
X107115578Y-39906022D01*
X106911862Y-39865500D01*
X106911859Y-39865500D01*
X106704141Y-39865500D01*
X106704138Y-39865500D01*
X106500421Y-39906022D01*
X106500409Y-39906025D01*
X106308511Y-39985511D01*
X106308509Y-39985512D01*
X106135796Y-40100916D01*
X106135792Y-40100919D01*
X105988919Y-40247792D01*
X105988916Y-40247796D01*
X105873512Y-40420509D01*
X105873511Y-40420511D01*
X105794025Y-40612409D01*
X105794022Y-40612421D01*
X105753500Y-40816136D01*
X103631500Y-40816136D01*
X103631500Y-37724231D01*
X103635787Y-37709628D01*
X103635136Y-37694423D01*
X103645431Y-37676784D01*
X103651185Y-37657192D01*
X103663229Y-37646295D01*
X103670359Y-37634081D01*
X103699204Y-37613746D01*
X103830884Y-37546653D01*
X103971533Y-37444465D01*
X104094465Y-37321533D01*
X104196653Y-37180884D01*
X104275580Y-37025981D01*
X104275582Y-37025975D01*
X104277446Y-37021478D01*
X104278891Y-37022076D01*
X104314430Y-36970093D01*
X104378786Y-36942889D01*
X104447633Y-36954796D01*
X104499114Y-37002035D01*
X104510864Y-37027761D01*
X104540904Y-37120217D01*
X104637375Y-37309550D01*
X104676728Y-37363716D01*
X105309037Y-36731408D01*
X105326075Y-36794993D01*
X105391901Y-36909007D01*
X105484993Y-37002099D01*
X105599007Y-37067925D01*
X105662590Y-37084962D01*
X105030282Y-37717269D01*
X105030282Y-37717270D01*
X105084449Y-37756624D01*
X105273782Y-37853095D01*
X105475870Y-37918757D01*
X105685754Y-37952000D01*
X105898246Y-37952000D01*
X106108127Y-37918757D01*
X106108130Y-37918757D01*
X106310217Y-37853095D01*
X106499554Y-37756622D01*
X106553716Y-37717270D01*
X106553717Y-37717270D01*
X105921408Y-37084962D01*
X105984993Y-37067925D01*
X106099007Y-37002099D01*
X106192099Y-36909007D01*
X106257925Y-36794993D01*
X106274962Y-36731409D01*
X106907270Y-37363717D01*
X106907270Y-37363716D01*
X106946622Y-37309554D01*
X107043095Y-37120217D01*
X107108757Y-36918130D01*
X107108757Y-36918127D01*
X107142000Y-36708246D01*
X107142000Y-36495753D01*
X107108757Y-36285872D01*
X107108757Y-36285869D01*
X107043095Y-36083782D01*
X106946624Y-35894449D01*
X106907270Y-35840282D01*
X106907269Y-35840282D01*
X106274962Y-36472590D01*
X106257925Y-36409007D01*
X106192099Y-36294993D01*
X106099007Y-36201901D01*
X105984993Y-36136075D01*
X105921409Y-36119037D01*
X106553716Y-35486728D01*
X106499550Y-35447375D01*
X106489954Y-35442486D01*
X106439157Y-35394512D01*
X106422361Y-35326692D01*
X106444897Y-35260556D01*
X106489954Y-35221514D01*
X106499554Y-35216622D01*
X106553716Y-35177270D01*
X106553717Y-35177270D01*
X105921408Y-34544962D01*
X105984993Y-34527925D01*
X106099007Y-34462099D01*
X106192099Y-34369007D01*
X106257925Y-34254993D01*
X106274962Y-34191409D01*
X106907270Y-34823717D01*
X106907270Y-34823716D01*
X106946622Y-34769554D01*
X107043095Y-34580217D01*
X107108757Y-34378130D01*
X107108757Y-34378127D01*
X107142000Y-34168246D01*
X107142000Y-33955753D01*
X107108757Y-33745872D01*
X107108757Y-33745869D01*
X107043095Y-33543782D01*
X106946624Y-33354449D01*
X106907270Y-33300282D01*
X106907269Y-33300282D01*
X106274962Y-33932590D01*
X106257925Y-33869007D01*
X106192099Y-33754993D01*
X106099007Y-33661901D01*
X105984993Y-33596075D01*
X105921409Y-33579037D01*
X106553716Y-32946728D01*
X106499550Y-32907375D01*
X106310217Y-32810904D01*
X106108129Y-32745242D01*
X105898246Y-32712000D01*
X105685754Y-32712000D01*
X105475872Y-32745242D01*
X105475869Y-32745242D01*
X105273782Y-32810904D01*
X105084439Y-32907380D01*
X105030282Y-32946727D01*
X105030282Y-32946728D01*
X105662591Y-33579037D01*
X105599007Y-33596075D01*
X105484993Y-33661901D01*
X105391901Y-33754993D01*
X105326075Y-33869007D01*
X105309037Y-33932591D01*
X104676728Y-33300282D01*
X104676727Y-33300282D01*
X104637380Y-33354439D01*
X104540904Y-33543782D01*
X104510864Y-33636238D01*
X104471427Y-33693913D01*
X104407068Y-33721112D01*
X104338222Y-33709197D01*
X104286746Y-33661953D01*
X104277804Y-33642373D01*
X104277446Y-33642522D01*
X104275582Y-33638024D01*
X104275580Y-33638021D01*
X104275580Y-33638019D01*
X104196653Y-33483116D01*
X104094465Y-33342467D01*
X103971533Y-33219535D01*
X103830884Y-33117347D01*
X103767654Y-33085129D01*
X103675978Y-33038418D01*
X103510641Y-32984697D01*
X103381854Y-32964299D01*
X103338926Y-32957500D01*
X103165074Y-32957500D01*
X103107836Y-32966565D01*
X102993360Y-32984697D01*
X102993357Y-32984697D01*
X102828021Y-33038418D01*
X102673115Y-33117347D01*
X102607884Y-33164741D01*
X102532467Y-33219535D01*
X102532465Y-33219537D01*
X102532464Y-33219537D01*
X102409537Y-33342464D01*
X102409537Y-33342465D01*
X102409535Y-33342467D01*
X102404377Y-33349567D01*
X102307347Y-33483115D01*
X102228418Y-33638021D01*
X102174697Y-33803357D01*
X102174697Y-33803360D01*
X102147500Y-33975074D01*
X102147500Y-34148925D01*
X102174697Y-34320639D01*
X102174697Y-34320642D01*
X102220364Y-34461191D01*
X102222359Y-34531033D01*
X102190114Y-34587190D01*
X101237190Y-35540114D01*
X101175867Y-35573599D01*
X101111191Y-35570364D01*
X100970641Y-35524697D01*
X100841854Y-35504299D01*
X100798926Y-35497500D01*
X100625074Y-35497500D01*
X100567836Y-35506565D01*
X100453360Y-35524697D01*
X100453357Y-35524697D01*
X100288021Y-35578418D01*
X100133115Y-35657347D01*
X100058581Y-35711500D01*
X99992467Y-35759535D01*
X99992465Y-35759537D01*
X99992464Y-35759537D01*
X99869537Y-35882464D01*
X99869537Y-35882465D01*
X99869535Y-35882467D01*
X99860837Y-35894439D01*
X99767347Y-36023115D01*
X99688418Y-36178021D01*
X99634697Y-36343357D01*
X99634697Y-36343360D01*
X99607500Y-36515074D01*
X99607500Y-36688925D01*
X99634697Y-36860639D01*
X99634697Y-36860642D01*
X99688418Y-37025978D01*
X99737929Y-37123148D01*
X99767347Y-37180884D01*
X99869535Y-37321533D01*
X99992467Y-37444465D01*
X100133116Y-37546653D01*
X100288019Y-37625580D01*
X100288021Y-37625581D01*
X100453358Y-37679302D01*
X100453359Y-37679302D01*
X100453362Y-37679303D01*
X100625074Y-37706500D01*
X100625075Y-37706500D01*
X100798925Y-37706500D01*
X100798926Y-37706500D01*
X100970638Y-37679303D01*
X100970641Y-37679302D01*
X100970642Y-37679302D01*
X101135978Y-37625581D01*
X101135978Y-37625580D01*
X101135981Y-37625580D01*
X101290884Y-37546653D01*
X101431533Y-37444465D01*
X101554465Y-37321533D01*
X101656653Y-37180884D01*
X101735580Y-37025981D01*
X101738232Y-37017819D01*
X101789302Y-36860642D01*
X101789302Y-36860641D01*
X101789303Y-36860638D01*
X101816500Y-36688926D01*
X101816500Y-36515074D01*
X101789303Y-36343362D01*
X101789302Y-36343360D01*
X101764325Y-36266487D01*
X101743633Y-36202806D01*
X101741639Y-36132966D01*
X101773882Y-36076810D01*
X102726810Y-35123882D01*
X102788131Y-35090399D01*
X102852806Y-35093633D01*
X102930774Y-35118967D01*
X102993361Y-35139303D01*
X103079218Y-35152901D01*
X103165074Y-35166500D01*
X103165075Y-35166500D01*
X103338925Y-35166500D01*
X103338926Y-35166500D01*
X103510638Y-35139303D01*
X103510641Y-35139302D01*
X103510642Y-35139302D01*
X103675978Y-35085581D01*
X103675978Y-35085580D01*
X103675981Y-35085580D01*
X103830884Y-35006653D01*
X103971533Y-34904465D01*
X104094465Y-34781533D01*
X104196653Y-34640884D01*
X104275580Y-34485981D01*
X104275582Y-34485975D01*
X104277446Y-34481478D01*
X104278891Y-34482076D01*
X104314430Y-34430093D01*
X104378786Y-34402889D01*
X104447633Y-34414796D01*
X104499114Y-34462035D01*
X104510864Y-34487761D01*
X104540904Y-34580217D01*
X104637375Y-34769550D01*
X104676728Y-34823716D01*
X105309037Y-34191408D01*
X105326075Y-34254993D01*
X105391901Y-34369007D01*
X105484993Y-34462099D01*
X105599007Y-34527925D01*
X105662591Y-34544962D01*
X105061971Y-35145581D01*
X105140711Y-35262895D01*
X105141920Y-35266729D01*
X105144844Y-35269491D01*
X105152343Y-35299778D01*
X105161727Y-35329529D01*
X105160671Y-35333408D01*
X105161638Y-35337312D01*
X105151573Y-35366844D01*
X105143383Y-35396947D01*
X105140397Y-35399640D01*
X105139100Y-35403447D01*
X105094051Y-35442483D01*
X105084440Y-35447380D01*
X105030282Y-35486727D01*
X105030282Y-35486728D01*
X105662591Y-36119037D01*
X105599007Y-36136075D01*
X105484993Y-36201901D01*
X105391901Y-36294993D01*
X105326075Y-36409007D01*
X105309037Y-36472591D01*
X104676728Y-35840282D01*
X104676727Y-35840282D01*
X104637380Y-35894439D01*
X104540904Y-36083782D01*
X104510864Y-36176238D01*
X104471427Y-36233913D01*
X104407068Y-36261112D01*
X104338222Y-36249197D01*
X104286746Y-36201953D01*
X104277804Y-36182373D01*
X104277446Y-36182522D01*
X104275582Y-36178024D01*
X104275580Y-36178021D01*
X104275580Y-36178019D01*
X104196653Y-36023116D01*
X104094465Y-35882467D01*
X103971533Y-35759535D01*
X103830884Y-35657347D01*
X103788354Y-35635677D01*
X103675978Y-35578418D01*
X103510641Y-35524697D01*
X103381854Y-35504299D01*
X103338926Y-35497500D01*
X103165074Y-35497500D01*
X103107836Y-35506565D01*
X102993360Y-35524697D01*
X102993357Y-35524697D01*
X102828021Y-35578418D01*
X102673115Y-35657347D01*
X102598581Y-35711500D01*
X102532467Y-35759535D01*
X102532465Y-35759537D01*
X102532464Y-35759537D01*
X102409537Y-35882464D01*
X102409537Y-35882465D01*
X102409535Y-35882467D01*
X102400837Y-35894439D01*
X102307347Y-36023115D01*
X102228418Y-36178021D01*
X102174697Y-36343357D01*
X102174697Y-36343360D01*
X102147500Y-36515074D01*
X102147500Y-36688925D01*
X102174697Y-36860639D01*
X102174697Y-36860642D01*
X102228418Y-37025978D01*
X102277929Y-37123148D01*
X102307347Y-37180884D01*
X102409535Y-37321533D01*
X102532467Y-37444465D01*
X102634177Y-37518362D01*
X102673117Y-37546654D01*
X102757539Y-37589668D01*
X102804794Y-37613746D01*
X102855591Y-37661720D01*
X102872500Y-37724231D01*
X102872500Y-42997443D01*
X102852815Y-43064482D01*
X102836181Y-43085124D01*
X102115125Y-43806181D01*
X102053802Y-43839666D01*
X102027444Y-43842500D01*
X97715042Y-43842500D01*
X97648003Y-43822815D01*
X97602248Y-43770011D01*
X97600497Y-43765990D01*
X97582486Y-43722507D01*
X97467083Y-43549796D01*
X97467080Y-43549792D01*
X97320207Y-43402919D01*
X97320203Y-43402916D01*
X97147490Y-43287512D01*
X97147488Y-43287511D01*
X96955590Y-43208025D01*
X96955578Y-43208022D01*
X96751862Y-43167500D01*
X96751859Y-43167500D01*
X96544141Y-43167500D01*
X96544138Y-43167500D01*
X96340421Y-43208022D01*
X96340409Y-43208025D01*
X96148511Y-43287511D01*
X96148509Y-43287512D01*
X95975796Y-43402916D01*
X95975792Y-43402919D01*
X95828919Y-43549792D01*
X95828916Y-43549796D01*
X95713512Y-43722509D01*
X95713511Y-43722511D01*
X95634025Y-43914409D01*
X95634022Y-43914421D01*
X95593500Y-44118136D01*
X95593500Y-44325863D01*
X95634022Y-44529578D01*
X95634025Y-44529590D01*
X95713511Y-44721488D01*
X95713512Y-44721490D01*
X95828916Y-44894203D01*
X95828919Y-44894207D01*
X95975792Y-45041080D01*
X95975796Y-45041083D01*
X96148507Y-45156486D01*
X96191953Y-45174481D01*
X96246355Y-45218321D01*
X96268421Y-45284615D01*
X96268500Y-45289042D01*
X96268500Y-50871444D01*
X96248815Y-50938483D01*
X96232181Y-50959125D01*
X95765125Y-51426181D01*
X95703802Y-51459666D01*
X95677444Y-51462500D01*
X95069614Y-51462500D01*
X95002575Y-51442815D01*
X94956820Y-51390011D01*
X94946876Y-51320853D01*
X94969296Y-51265614D01*
X94975339Y-51257297D01*
X95052653Y-51150884D01*
X95131580Y-50995981D01*
X95154436Y-50925637D01*
X95185302Y-50830642D01*
X95185302Y-50830641D01*
X95185303Y-50830638D01*
X95212500Y-50658926D01*
X95212500Y-50485074D01*
X95185303Y-50313362D01*
X95185302Y-50313358D01*
X95185302Y-50313357D01*
X95131581Y-50148021D01*
X95124791Y-50134694D01*
X95052653Y-49993116D01*
X94950465Y-49852467D01*
X94827533Y-49729535D01*
X94686884Y-49627347D01*
X94644354Y-49605677D01*
X94531978Y-49548418D01*
X94366641Y-49494697D01*
X94237854Y-49474299D01*
X94194926Y-49467500D01*
X94021074Y-49467500D01*
X93963836Y-49476565D01*
X93849360Y-49494697D01*
X93849357Y-49494697D01*
X93684021Y-49548418D01*
X93529115Y-49627347D01*
X93454581Y-49681500D01*
X93388467Y-49729535D01*
X93388465Y-49729537D01*
X93388464Y-49729537D01*
X93265537Y-49852464D01*
X93265537Y-49852465D01*
X93265535Y-49852467D01*
X93235954Y-49893182D01*
X93163347Y-49993115D01*
X93096253Y-50124795D01*
X93048278Y-50175591D01*
X92985768Y-50192500D01*
X92635042Y-50192500D01*
X92568003Y-50172815D01*
X92522248Y-50120011D01*
X92520497Y-50115990D01*
X92502486Y-50072507D01*
X92387083Y-49899796D01*
X92387080Y-49899792D01*
X92240207Y-49752919D01*
X92240203Y-49752916D01*
X92067490Y-49637512D01*
X92067488Y-49637511D01*
X91875590Y-49558025D01*
X91875578Y-49558022D01*
X91671862Y-49517500D01*
X91671859Y-49517500D01*
X91464141Y-49517500D01*
X91464138Y-49517500D01*
X91260421Y-49558022D01*
X91260409Y-49558025D01*
X91068511Y-49637511D01*
X91068509Y-49637512D01*
X90895796Y-49752916D01*
X90895792Y-49752919D01*
X90748919Y-49899792D01*
X90748916Y-49899796D01*
X90633515Y-50072505D01*
X90633513Y-50072509D01*
X90617158Y-50111994D01*
X90573317Y-50166397D01*
X90507022Y-50188462D01*
X90439323Y-50171183D01*
X90414916Y-50152222D01*
X89338746Y-49076052D01*
X89338744Y-49076049D01*
X89261020Y-48998325D01*
X89261015Y-48998321D01*
X89174485Y-48948363D01*
X89174482Y-48948362D01*
X89154084Y-48942896D01*
X89077962Y-48922499D01*
X88978038Y-48922499D01*
X88970442Y-48922499D01*
X88970426Y-48922500D01*
X79829614Y-48922500D01*
X79762575Y-48902815D01*
X79716820Y-48850011D01*
X79706876Y-48780853D01*
X79729296Y-48725614D01*
X79735339Y-48717297D01*
X79812653Y-48610884D01*
X79891580Y-48455981D01*
X79900539Y-48428409D01*
X79945302Y-48290642D01*
X79945302Y-48290641D01*
X79945303Y-48290638D01*
X79972500Y-48118926D01*
X79972500Y-47945074D01*
X79945303Y-47773362D01*
X79945302Y-47773358D01*
X79945302Y-47773357D01*
X79891581Y-47608021D01*
X79884791Y-47594694D01*
X79812653Y-47453116D01*
X79729295Y-47338385D01*
X79705816Y-47272580D01*
X79721641Y-47204526D01*
X79771747Y-47155831D01*
X79829614Y-47141500D01*
X88819444Y-47141500D01*
X88886483Y-47161185D01*
X88907125Y-47177819D01*
X89989983Y-48260677D01*
X89989993Y-48260688D01*
X89994323Y-48265018D01*
X89994324Y-48265019D01*
X90064981Y-48335676D01*
X90151518Y-48385638D01*
X90248038Y-48411501D01*
X90248040Y-48411501D01*
X90355558Y-48411501D01*
X90355574Y-48411500D01*
X90500958Y-48411500D01*
X90567997Y-48431185D01*
X90613752Y-48483989D01*
X90615502Y-48488009D01*
X90633514Y-48531493D01*
X90647984Y-48553148D01*
X90748916Y-48704203D01*
X90748919Y-48704207D01*
X90895792Y-48851080D01*
X90895796Y-48851083D01*
X91068507Y-48966486D01*
X91068508Y-48966486D01*
X91068509Y-48966487D01*
X91068511Y-48966488D01*
X91232339Y-49034347D01*
X91260414Y-49045976D01*
X91411601Y-49076049D01*
X91464136Y-49086499D01*
X91464139Y-49086500D01*
X91464141Y-49086500D01*
X91671861Y-49086500D01*
X91671862Y-49086499D01*
X91875586Y-49045976D01*
X92067493Y-48966486D01*
X92240204Y-48851083D01*
X92387083Y-48704204D01*
X92502486Y-48531493D01*
X92520481Y-48488046D01*
X92564321Y-48433645D01*
X92630615Y-48411579D01*
X92635042Y-48411500D01*
X92985768Y-48411500D01*
X93052807Y-48431185D01*
X93096253Y-48479205D01*
X93163347Y-48610884D01*
X93265535Y-48751533D01*
X93388467Y-48874465D01*
X93529116Y-48976653D01*
X93571648Y-48998324D01*
X93684021Y-49055581D01*
X93849358Y-49109302D01*
X93849359Y-49109302D01*
X93849362Y-49109303D01*
X94021074Y-49136500D01*
X94021075Y-49136500D01*
X94194925Y-49136500D01*
X94194926Y-49136500D01*
X94366638Y-49109303D01*
X94366641Y-49109302D01*
X94366642Y-49109302D01*
X94531978Y-49055581D01*
X94531978Y-49055580D01*
X94531981Y-49055580D01*
X94686884Y-48976653D01*
X94827533Y-48874465D01*
X94950465Y-48751533D01*
X95052653Y-48610884D01*
X95131580Y-48455981D01*
X95140539Y-48428409D01*
X95185302Y-48290642D01*
X95185302Y-48290641D01*
X95185303Y-48290638D01*
X95212500Y-48118926D01*
X95212500Y-47945074D01*
X95185303Y-47773362D01*
X95185302Y-47773358D01*
X95185302Y-47773357D01*
X95131581Y-47608021D01*
X95124791Y-47594694D01*
X95052653Y-47453116D01*
X94950465Y-47312467D01*
X94827533Y-47189535D01*
X94686884Y-47087347D01*
X94644354Y-47065677D01*
X94531978Y-47008418D01*
X94366641Y-46954697D01*
X94237854Y-46934299D01*
X94194926Y-46927500D01*
X94021074Y-46927500D01*
X93963836Y-46936565D01*
X93849360Y-46954697D01*
X93849357Y-46954697D01*
X93684021Y-47008418D01*
X93529115Y-47087347D01*
X93482655Y-47121103D01*
X93388467Y-47189535D01*
X93388465Y-47189537D01*
X93388464Y-47189537D01*
X93265537Y-47312464D01*
X93265537Y-47312465D01*
X93265535Y-47312467D01*
X93235954Y-47353182D01*
X93163347Y-47453115D01*
X93096253Y-47584795D01*
X93048278Y-47635591D01*
X92985768Y-47652500D01*
X92635042Y-47652500D01*
X92568003Y-47632815D01*
X92522248Y-47580011D01*
X92520497Y-47575990D01*
X92502486Y-47532507D01*
X92387083Y-47359796D01*
X92387080Y-47359792D01*
X92240207Y-47212919D01*
X92240203Y-47212916D01*
X92067490Y-47097512D01*
X92067488Y-47097511D01*
X91875590Y-47018025D01*
X91875578Y-47018022D01*
X91671862Y-46977500D01*
X91671859Y-46977500D01*
X91464141Y-46977500D01*
X91464138Y-46977500D01*
X91260421Y-47018022D01*
X91260409Y-47018025D01*
X91068511Y-47097511D01*
X91068509Y-47097512D01*
X90895796Y-47212916D01*
X90895792Y-47212919D01*
X90748919Y-47359792D01*
X90748916Y-47359796D01*
X90633515Y-47532505D01*
X90633513Y-47532509D01*
X90617158Y-47571994D01*
X90573317Y-47626397D01*
X90507022Y-47648462D01*
X90439323Y-47631183D01*
X90414916Y-47612222D01*
X89338746Y-46536052D01*
X89338744Y-46536049D01*
X89261020Y-46458325D01*
X89261015Y-46458321D01*
X89174485Y-46408363D01*
X89174482Y-46408362D01*
X89154084Y-46402896D01*
X89077962Y-46382499D01*
X88978038Y-46382499D01*
X88970442Y-46382499D01*
X88970426Y-46382500D01*
X79829614Y-46382500D01*
X79762575Y-46362815D01*
X79716820Y-46310011D01*
X79706876Y-46240853D01*
X79729296Y-46185614D01*
X79735339Y-46177297D01*
X79812653Y-46070884D01*
X79891580Y-45915981D01*
X79900539Y-45888409D01*
X79945302Y-45750642D01*
X79945302Y-45750641D01*
X79945303Y-45750638D01*
X79972500Y-45578926D01*
X79972500Y-45405074D01*
X79945303Y-45233362D01*
X79945302Y-45233358D01*
X79945302Y-45233357D01*
X79891581Y-45068021D01*
X79884791Y-45054694D01*
X79812653Y-44913116D01*
X79729295Y-44798385D01*
X79705816Y-44732580D01*
X79721641Y-44664526D01*
X79771747Y-44615831D01*
X79829614Y-44601500D01*
X88819444Y-44601500D01*
X88886483Y-44621185D01*
X88907125Y-44637819D01*
X89989983Y-45720677D01*
X89989993Y-45720688D01*
X89994323Y-45725018D01*
X89994324Y-45725019D01*
X90064981Y-45795676D01*
X90151518Y-45845638D01*
X90248038Y-45871501D01*
X90248040Y-45871501D01*
X90355558Y-45871501D01*
X90355574Y-45871500D01*
X90500958Y-45871500D01*
X90567997Y-45891185D01*
X90613752Y-45943989D01*
X90615502Y-45948009D01*
X90633514Y-45991493D01*
X90633515Y-45991494D01*
X90748916Y-46164203D01*
X90748919Y-46164207D01*
X90895792Y-46311080D01*
X90895796Y-46311083D01*
X91068507Y-46426486D01*
X91068508Y-46426486D01*
X91068509Y-46426487D01*
X91068511Y-46426488D01*
X91232339Y-46494347D01*
X91260414Y-46505976D01*
X91411601Y-46536049D01*
X91464136Y-46546499D01*
X91464139Y-46546500D01*
X91464141Y-46546500D01*
X91671861Y-46546500D01*
X91671862Y-46546499D01*
X91875586Y-46505976D01*
X92067493Y-46426486D01*
X92240204Y-46311083D01*
X92387083Y-46164204D01*
X92502486Y-45991493D01*
X92520481Y-45948046D01*
X92564321Y-45893645D01*
X92630615Y-45871579D01*
X92635042Y-45871500D01*
X92985768Y-45871500D01*
X93052807Y-45891185D01*
X93096253Y-45939205D01*
X93104743Y-45955868D01*
X93163347Y-46070884D01*
X93265535Y-46211533D01*
X93388467Y-46334465D01*
X93529116Y-46436653D01*
X93571648Y-46458324D01*
X93684021Y-46515581D01*
X93849358Y-46569302D01*
X93849359Y-46569302D01*
X93849362Y-46569303D01*
X94021074Y-46596500D01*
X94021075Y-46596500D01*
X94194925Y-46596500D01*
X94194926Y-46596500D01*
X94366638Y-46569303D01*
X94366641Y-46569302D01*
X94366642Y-46569302D01*
X94531978Y-46515581D01*
X94531978Y-46515580D01*
X94531981Y-46515580D01*
X94686884Y-46436653D01*
X94827533Y-46334465D01*
X94950465Y-46211533D01*
X95052653Y-46070884D01*
X95131580Y-45915981D01*
X95140539Y-45888409D01*
X95185302Y-45750642D01*
X95185302Y-45750641D01*
X95185303Y-45750638D01*
X95212500Y-45578926D01*
X95212500Y-45405074D01*
X95185303Y-45233362D01*
X95185302Y-45233358D01*
X95185302Y-45233357D01*
X95131581Y-45068021D01*
X95124791Y-45054694D01*
X95052653Y-44913116D01*
X94950465Y-44772467D01*
X94827533Y-44649535D01*
X94686884Y-44547347D01*
X94652026Y-44529586D01*
X94531978Y-44468418D01*
X94366641Y-44414697D01*
X94237854Y-44394299D01*
X94194926Y-44387500D01*
X94021074Y-44387500D01*
X93963836Y-44396565D01*
X93849360Y-44414697D01*
X93849357Y-44414697D01*
X93684021Y-44468418D01*
X93529115Y-44547347D01*
X93454581Y-44601500D01*
X93388467Y-44649535D01*
X93388465Y-44649537D01*
X93388464Y-44649537D01*
X93265537Y-44772464D01*
X93265537Y-44772465D01*
X93265535Y-44772467D01*
X93235954Y-44813182D01*
X93163347Y-44913115D01*
X93096253Y-45044795D01*
X93048278Y-45095591D01*
X92985768Y-45112500D01*
X92635042Y-45112500D01*
X92568003Y-45092815D01*
X92522248Y-45040011D01*
X92520497Y-45035990D01*
X92502486Y-44992507D01*
X92387083Y-44819796D01*
X92387080Y-44819792D01*
X92240207Y-44672919D01*
X92240203Y-44672916D01*
X92067490Y-44557512D01*
X92067488Y-44557511D01*
X91875590Y-44478025D01*
X91875578Y-44478022D01*
X91671862Y-44437500D01*
X91671859Y-44437500D01*
X91464141Y-44437500D01*
X91464138Y-44437500D01*
X91260421Y-44478022D01*
X91260409Y-44478025D01*
X91068511Y-44557511D01*
X91068509Y-44557512D01*
X90895796Y-44672916D01*
X90895792Y-44672919D01*
X90748919Y-44819792D01*
X90748916Y-44819796D01*
X90633515Y-44992505D01*
X90633513Y-44992509D01*
X90617158Y-45031994D01*
X90573317Y-45086397D01*
X90507022Y-45108462D01*
X90439323Y-45091183D01*
X90414916Y-45072222D01*
X89338746Y-43996052D01*
X89338744Y-43996049D01*
X89261020Y-43918325D01*
X89261015Y-43918321D01*
X89174485Y-43868363D01*
X89174482Y-43868362D01*
X89154084Y-43862896D01*
X89077962Y-43842499D01*
X88978038Y-43842499D01*
X88970442Y-43842499D01*
X88970426Y-43842500D01*
X79829614Y-43842500D01*
X79762575Y-43822815D01*
X79716820Y-43770011D01*
X79706876Y-43700853D01*
X79729296Y-43645614D01*
X79735339Y-43637297D01*
X79812653Y-43530884D01*
X79891580Y-43375981D01*
X79900539Y-43348409D01*
X79945302Y-43210642D01*
X79945302Y-43210641D01*
X79945303Y-43210638D01*
X79972500Y-43038926D01*
X79972500Y-42865074D01*
X79945303Y-42693362D01*
X79945302Y-42693358D01*
X79945302Y-42693357D01*
X79891581Y-42528021D01*
X79884791Y-42514694D01*
X79812653Y-42373116D01*
X79729295Y-42258385D01*
X79705816Y-42192580D01*
X79721641Y-42124526D01*
X79771747Y-42075831D01*
X79829614Y-42061500D01*
X88819444Y-42061500D01*
X88886483Y-42081185D01*
X88907125Y-42097819D01*
X89989983Y-43180677D01*
X89989993Y-43180688D01*
X89994323Y-43185018D01*
X89994324Y-43185019D01*
X90064981Y-43255676D01*
X90064983Y-43255677D01*
X90064984Y-43255678D01*
X90065476Y-43255962D01*
X90151518Y-43305638D01*
X90248038Y-43331501D01*
X90248040Y-43331501D01*
X90355558Y-43331501D01*
X90355574Y-43331500D01*
X90500958Y-43331500D01*
X90567997Y-43351185D01*
X90613752Y-43403989D01*
X90615502Y-43408009D01*
X90633514Y-43451493D01*
X90633515Y-43451494D01*
X90748916Y-43624203D01*
X90748919Y-43624207D01*
X90895792Y-43771080D01*
X90895796Y-43771083D01*
X91068507Y-43886486D01*
X91068508Y-43886486D01*
X91068509Y-43886487D01*
X91068511Y-43886488D01*
X91232339Y-43954347D01*
X91260414Y-43965976D01*
X91411601Y-43996049D01*
X91464136Y-44006499D01*
X91464139Y-44006500D01*
X91464141Y-44006500D01*
X91671861Y-44006500D01*
X91671862Y-44006499D01*
X91875586Y-43965976D01*
X92067493Y-43886486D01*
X92240204Y-43771083D01*
X92387083Y-43624204D01*
X92502486Y-43451493D01*
X92520481Y-43408046D01*
X92564321Y-43353645D01*
X92630615Y-43331579D01*
X92635042Y-43331500D01*
X92985768Y-43331500D01*
X93052807Y-43351185D01*
X93096253Y-43399205D01*
X93104743Y-43415868D01*
X93163347Y-43530884D01*
X93265535Y-43671533D01*
X93388467Y-43794465D01*
X93529116Y-43896653D01*
X93571648Y-43918324D01*
X93684021Y-43975581D01*
X93849358Y-44029302D01*
X93849359Y-44029302D01*
X93849362Y-44029303D01*
X94021074Y-44056500D01*
X94021075Y-44056500D01*
X94194925Y-44056500D01*
X94194926Y-44056500D01*
X94366638Y-44029303D01*
X94366641Y-44029302D01*
X94366642Y-44029302D01*
X94531978Y-43975581D01*
X94531978Y-43975580D01*
X94531981Y-43975580D01*
X94686884Y-43896653D01*
X94827533Y-43794465D01*
X94950465Y-43671533D01*
X95052653Y-43530884D01*
X95131580Y-43375981D01*
X95140539Y-43348409D01*
X95185302Y-43210642D01*
X95185302Y-43210641D01*
X95185303Y-43210638D01*
X95212500Y-43038926D01*
X95212500Y-42865074D01*
X95185303Y-42693362D01*
X95185302Y-42693358D01*
X95185302Y-42693357D01*
X95131581Y-42528021D01*
X95124791Y-42514694D01*
X95052653Y-42373116D01*
X94950465Y-42232467D01*
X94827533Y-42109535D01*
X94686884Y-42007347D01*
X94644354Y-41985677D01*
X94531978Y-41928418D01*
X94366641Y-41874697D01*
X94237854Y-41854299D01*
X94194926Y-41847500D01*
X94021074Y-41847500D01*
X93963836Y-41856565D01*
X93849360Y-41874697D01*
X93849357Y-41874697D01*
X93684021Y-41928418D01*
X93529115Y-42007347D01*
X93482655Y-42041103D01*
X93388467Y-42109535D01*
X93388465Y-42109537D01*
X93388464Y-42109537D01*
X93265537Y-42232464D01*
X93265537Y-42232465D01*
X93265535Y-42232467D01*
X93235954Y-42273182D01*
X93163347Y-42373115D01*
X93096253Y-42504795D01*
X93048278Y-42555591D01*
X92985768Y-42572500D01*
X92635042Y-42572500D01*
X92568003Y-42552815D01*
X92522248Y-42500011D01*
X92520497Y-42495990D01*
X92502486Y-42452507D01*
X92387083Y-42279796D01*
X92387080Y-42279792D01*
X92240207Y-42132919D01*
X92240203Y-42132916D01*
X92067490Y-42017512D01*
X92067488Y-42017511D01*
X91875590Y-41938025D01*
X91875578Y-41938022D01*
X91671862Y-41897500D01*
X91671859Y-41897500D01*
X91464141Y-41897500D01*
X91464138Y-41897500D01*
X91260421Y-41938022D01*
X91260409Y-41938025D01*
X91068511Y-42017511D01*
X91068509Y-42017512D01*
X90895796Y-42132916D01*
X90895792Y-42132919D01*
X90748919Y-42279792D01*
X90748916Y-42279796D01*
X90633515Y-42452505D01*
X90633513Y-42452509D01*
X90617158Y-42491994D01*
X90573317Y-42546397D01*
X90507022Y-42568462D01*
X90439323Y-42551183D01*
X90414916Y-42532222D01*
X89338746Y-41456052D01*
X89338744Y-41456049D01*
X89261020Y-41378325D01*
X89261015Y-41378321D01*
X89174485Y-41328363D01*
X89174482Y-41328362D01*
X89154084Y-41322896D01*
X89077962Y-41302499D01*
X88978038Y-41302499D01*
X88970442Y-41302499D01*
X88970426Y-41302500D01*
X79829614Y-41302500D01*
X79762575Y-41282815D01*
X79716820Y-41230011D01*
X79706876Y-41160853D01*
X79729296Y-41105614D01*
X79735339Y-41097297D01*
X79812653Y-40990884D01*
X79891580Y-40835981D01*
X79900539Y-40808409D01*
X79945302Y-40670642D01*
X79945302Y-40670641D01*
X79945303Y-40670638D01*
X79972500Y-40498926D01*
X79972500Y-40325074D01*
X79945303Y-40153362D01*
X79945302Y-40153358D01*
X79945302Y-40153357D01*
X79891581Y-39988021D01*
X79877309Y-39960010D01*
X79812653Y-39833116D01*
X79729295Y-39718385D01*
X79705816Y-39652580D01*
X79721641Y-39584526D01*
X79771747Y-39535831D01*
X79829614Y-39521500D01*
X88819444Y-39521500D01*
X88886483Y-39541185D01*
X88907125Y-39557819D01*
X89989983Y-40640677D01*
X89989993Y-40640688D01*
X89994323Y-40645018D01*
X89994324Y-40645019D01*
X90064981Y-40715676D01*
X90151518Y-40765638D01*
X90248038Y-40791501D01*
X90248040Y-40791501D01*
X90355558Y-40791501D01*
X90355574Y-40791500D01*
X90500958Y-40791500D01*
X90567997Y-40811185D01*
X90613752Y-40863989D01*
X90615502Y-40868009D01*
X90633514Y-40911493D01*
X90633515Y-40911494D01*
X90748916Y-41084203D01*
X90748919Y-41084207D01*
X90895792Y-41231080D01*
X90895796Y-41231083D01*
X91068507Y-41346486D01*
X91068508Y-41346486D01*
X91068509Y-41346487D01*
X91068511Y-41346488D01*
X91260409Y-41425974D01*
X91260414Y-41425976D01*
X91411601Y-41456049D01*
X91464136Y-41466499D01*
X91464139Y-41466500D01*
X91464141Y-41466500D01*
X91671861Y-41466500D01*
X91671862Y-41466499D01*
X91875586Y-41425976D01*
X92067493Y-41346486D01*
X92240204Y-41231083D01*
X92387083Y-41084204D01*
X92502486Y-40911493D01*
X92520481Y-40868046D01*
X92564321Y-40813645D01*
X92630615Y-40791579D01*
X92635042Y-40791500D01*
X92985768Y-40791500D01*
X93052807Y-40811185D01*
X93096253Y-40859205D01*
X93104743Y-40875868D01*
X93163347Y-40990884D01*
X93265535Y-41131533D01*
X93388467Y-41254465D01*
X93529116Y-41356653D01*
X93665166Y-41425974D01*
X93684021Y-41435581D01*
X93849358Y-41489302D01*
X93849359Y-41489302D01*
X93849362Y-41489303D01*
X94021074Y-41516500D01*
X94021075Y-41516500D01*
X94194925Y-41516500D01*
X94194926Y-41516500D01*
X94366638Y-41489303D01*
X94366641Y-41489302D01*
X94366642Y-41489302D01*
X94531978Y-41435581D01*
X94531978Y-41435580D01*
X94531981Y-41435580D01*
X94686884Y-41356653D01*
X94827533Y-41254465D01*
X94950465Y-41131533D01*
X95052653Y-40990884D01*
X95131580Y-40835981D01*
X95132946Y-40831777D01*
X95138028Y-40816136D01*
X95593500Y-40816136D01*
X95593500Y-41023863D01*
X95634022Y-41227578D01*
X95634025Y-41227590D01*
X95713511Y-41419488D01*
X95713512Y-41419490D01*
X95828916Y-41592203D01*
X95828919Y-41592207D01*
X95975792Y-41739080D01*
X95975796Y-41739083D01*
X96148507Y-41854486D01*
X96148508Y-41854486D01*
X96148509Y-41854487D01*
X96148511Y-41854488D01*
X96340409Y-41933974D01*
X96340414Y-41933976D01*
X96544136Y-41974499D01*
X96544139Y-41974500D01*
X96544141Y-41974500D01*
X96751861Y-41974500D01*
X96751862Y-41974499D01*
X96955586Y-41933976D01*
X97147493Y-41854486D01*
X97320204Y-41739083D01*
X97467083Y-41592204D01*
X97582486Y-41419493D01*
X97661976Y-41227586D01*
X97702500Y-41023859D01*
X97702500Y-40816141D01*
X97702500Y-40816138D01*
X97702499Y-40816136D01*
X97692454Y-40765636D01*
X97661976Y-40612414D01*
X97661974Y-40612409D01*
X97582488Y-40420511D01*
X97582487Y-40420509D01*
X97558909Y-40385223D01*
X97467083Y-40247796D01*
X97467080Y-40247792D01*
X97320207Y-40100919D01*
X97320203Y-40100916D01*
X97147490Y-39985512D01*
X97147488Y-39985511D01*
X96955590Y-39906025D01*
X96955578Y-39906022D01*
X96751862Y-39865500D01*
X96751859Y-39865500D01*
X96544141Y-39865500D01*
X96544138Y-39865500D01*
X96340421Y-39906022D01*
X96340409Y-39906025D01*
X96148511Y-39985511D01*
X96148509Y-39985512D01*
X95975796Y-40100916D01*
X95975792Y-40100919D01*
X95828919Y-40247792D01*
X95828916Y-40247796D01*
X95713512Y-40420509D01*
X95713511Y-40420511D01*
X95634025Y-40612409D01*
X95634022Y-40612421D01*
X95593500Y-40816136D01*
X95138028Y-40816136D01*
X95152457Y-40771731D01*
X95185302Y-40670642D01*
X95185302Y-40670641D01*
X95185303Y-40670638D01*
X95212500Y-40498926D01*
X95212500Y-40325074D01*
X95185303Y-40153362D01*
X95185302Y-40153358D01*
X95185302Y-40153357D01*
X95131581Y-39988021D01*
X95117309Y-39960010D01*
X95052653Y-39833116D01*
X94950465Y-39692467D01*
X94827533Y-39569535D01*
X94686884Y-39467347D01*
X94531978Y-39388418D01*
X94366641Y-39334697D01*
X94237854Y-39314299D01*
X94194926Y-39307500D01*
X94021074Y-39307500D01*
X93963836Y-39316565D01*
X93849360Y-39334697D01*
X93849357Y-39334697D01*
X93684021Y-39388418D01*
X93529115Y-39467347D01*
X93490851Y-39495148D01*
X93388467Y-39569535D01*
X93388465Y-39569537D01*
X93388464Y-39569537D01*
X93265537Y-39692464D01*
X93265537Y-39692465D01*
X93265535Y-39692467D01*
X93231151Y-39739792D01*
X93163347Y-39833115D01*
X93096253Y-39964795D01*
X93048278Y-40015591D01*
X92985768Y-40032500D01*
X92635042Y-40032500D01*
X92568003Y-40012815D01*
X92522248Y-39960011D01*
X92520497Y-39955990D01*
X92502486Y-39912507D01*
X92387083Y-39739796D01*
X92387080Y-39739792D01*
X92240207Y-39592919D01*
X92240203Y-39592916D01*
X92067490Y-39477512D01*
X92067488Y-39477511D01*
X91875590Y-39398025D01*
X91875578Y-39398022D01*
X91671862Y-39357500D01*
X91671859Y-39357500D01*
X91464141Y-39357500D01*
X91464138Y-39357500D01*
X91260421Y-39398022D01*
X91260409Y-39398025D01*
X91068511Y-39477511D01*
X91068509Y-39477512D01*
X90895796Y-39592916D01*
X90895792Y-39592919D01*
X90748919Y-39739792D01*
X90748916Y-39739796D01*
X90633515Y-39912505D01*
X90633513Y-39912509D01*
X90617158Y-39951994D01*
X90573317Y-40006397D01*
X90507022Y-40028462D01*
X90439323Y-40011183D01*
X90414916Y-39992222D01*
X89338746Y-38916052D01*
X89338744Y-38916049D01*
X89261020Y-38838325D01*
X89261015Y-38838321D01*
X89174485Y-38788363D01*
X89174482Y-38788362D01*
X89154084Y-38782896D01*
X89077962Y-38762499D01*
X88978038Y-38762499D01*
X88970442Y-38762499D01*
X88970426Y-38762500D01*
X79829614Y-38762500D01*
X79762575Y-38742815D01*
X79716820Y-38690011D01*
X79706876Y-38620853D01*
X79729296Y-38565614D01*
X79812653Y-38450884D01*
X79891580Y-38295981D01*
X79900539Y-38268409D01*
X79945302Y-38130642D01*
X79945302Y-38130641D01*
X79945303Y-38130638D01*
X79972500Y-37958926D01*
X79972500Y-37785074D01*
X79945303Y-37613362D01*
X79945302Y-37613358D01*
X79945302Y-37613357D01*
X79891581Y-37448021D01*
X79884791Y-37434694D01*
X79812653Y-37293116D01*
X79729295Y-37178385D01*
X79705816Y-37112580D01*
X79721641Y-37044526D01*
X79771747Y-36995831D01*
X79829614Y-36981500D01*
X88819444Y-36981500D01*
X88886483Y-37001185D01*
X88907125Y-37017819D01*
X89989983Y-38100677D01*
X89989993Y-38100688D01*
X89994323Y-38105018D01*
X89994324Y-38105019D01*
X90064981Y-38175676D01*
X90151518Y-38225638D01*
X90248038Y-38251501D01*
X90248040Y-38251501D01*
X90355558Y-38251501D01*
X90355574Y-38251500D01*
X90500958Y-38251500D01*
X90567997Y-38271185D01*
X90613752Y-38323989D01*
X90615502Y-38328009D01*
X90633514Y-38371493D01*
X90633515Y-38371494D01*
X90748916Y-38544203D01*
X90748919Y-38544207D01*
X90895792Y-38691080D01*
X90895796Y-38691083D01*
X91068507Y-38806486D01*
X91068508Y-38806486D01*
X91068509Y-38806487D01*
X91068511Y-38806488D01*
X91232339Y-38874347D01*
X91260414Y-38885976D01*
X91411601Y-38916049D01*
X91464136Y-38926499D01*
X91464139Y-38926500D01*
X91464141Y-38926500D01*
X91671861Y-38926500D01*
X91671862Y-38926499D01*
X91875586Y-38885976D01*
X92067493Y-38806486D01*
X92240204Y-38691083D01*
X92387083Y-38544204D01*
X92502486Y-38371493D01*
X92520481Y-38328046D01*
X92564321Y-38273645D01*
X92630615Y-38251579D01*
X92635042Y-38251500D01*
X92985768Y-38251500D01*
X93052807Y-38271185D01*
X93096253Y-38319205D01*
X93104743Y-38335868D01*
X93163347Y-38450884D01*
X93265535Y-38591533D01*
X93388467Y-38714465D01*
X93529116Y-38816653D01*
X93571648Y-38838324D01*
X93684021Y-38895581D01*
X93849358Y-38949302D01*
X93849359Y-38949302D01*
X93849362Y-38949303D01*
X94021074Y-38976500D01*
X94021075Y-38976500D01*
X94194925Y-38976500D01*
X94194926Y-38976500D01*
X94366638Y-38949303D01*
X94366641Y-38949302D01*
X94366642Y-38949302D01*
X94531978Y-38895581D01*
X94531978Y-38895580D01*
X94531981Y-38895580D01*
X94686884Y-38816653D01*
X94827533Y-38714465D01*
X94950465Y-38591533D01*
X95052653Y-38450884D01*
X95131580Y-38295981D01*
X95140539Y-38268409D01*
X95185302Y-38130642D01*
X95185302Y-38130641D01*
X95185303Y-38130638D01*
X95212500Y-37958926D01*
X95212500Y-37785074D01*
X95185303Y-37613362D01*
X95185302Y-37613358D01*
X95185302Y-37613357D01*
X95131581Y-37448021D01*
X95124791Y-37434694D01*
X95052653Y-37293116D01*
X94950465Y-37152467D01*
X94827533Y-37029535D01*
X94686884Y-36927347D01*
X94644354Y-36905677D01*
X94531978Y-36848418D01*
X94366641Y-36794697D01*
X94237854Y-36774299D01*
X94194926Y-36767500D01*
X94021074Y-36767500D01*
X93963836Y-36776565D01*
X93849360Y-36794697D01*
X93849357Y-36794697D01*
X93684021Y-36848418D01*
X93529115Y-36927347D01*
X93470281Y-36970093D01*
X93388467Y-37029535D01*
X93388465Y-37029537D01*
X93388464Y-37029537D01*
X93265537Y-37152464D01*
X93265537Y-37152465D01*
X93265535Y-37152467D01*
X93235954Y-37193182D01*
X93163347Y-37293115D01*
X93096253Y-37424795D01*
X93048278Y-37475591D01*
X92985768Y-37492500D01*
X92635042Y-37492500D01*
X92568003Y-37472815D01*
X92522248Y-37420011D01*
X92520497Y-37415990D01*
X92502486Y-37372507D01*
X92387083Y-37199796D01*
X92387080Y-37199792D01*
X92240207Y-37052919D01*
X92240203Y-37052916D01*
X92067490Y-36937512D01*
X92067488Y-36937511D01*
X91875590Y-36858025D01*
X91875578Y-36858022D01*
X91671862Y-36817500D01*
X91671859Y-36817500D01*
X91464141Y-36817500D01*
X91464138Y-36817500D01*
X91260421Y-36858022D01*
X91260409Y-36858025D01*
X91068511Y-36937511D01*
X91068509Y-36937512D01*
X90895796Y-37052916D01*
X90895792Y-37052919D01*
X90748919Y-37199792D01*
X90748916Y-37199796D01*
X90633515Y-37372505D01*
X90633513Y-37372509D01*
X90617158Y-37411994D01*
X90573317Y-37466397D01*
X90507022Y-37488462D01*
X90439323Y-37471183D01*
X90414916Y-37452222D01*
X89338746Y-36376052D01*
X89338744Y-36376049D01*
X89261020Y-36298325D01*
X89261015Y-36298321D01*
X89174485Y-36248363D01*
X89174482Y-36248362D01*
X89154084Y-36242896D01*
X89077962Y-36222499D01*
X88978038Y-36222499D01*
X88970442Y-36222499D01*
X88970426Y-36222500D01*
X79829614Y-36222500D01*
X79762575Y-36202815D01*
X79716820Y-36150011D01*
X79706876Y-36080853D01*
X79729296Y-36025614D01*
X79735339Y-36017297D01*
X79812653Y-35910884D01*
X79891580Y-35755981D01*
X79901020Y-35726928D01*
X79945302Y-35590642D01*
X79945302Y-35590641D01*
X79945303Y-35590638D01*
X79972500Y-35418926D01*
X79972500Y-35245074D01*
X79945303Y-35073362D01*
X79945302Y-35073358D01*
X79945302Y-35073357D01*
X79891581Y-34908021D01*
X79877309Y-34880010D01*
X79812653Y-34753116D01*
X79729295Y-34638385D01*
X79705816Y-34572580D01*
X79721641Y-34504526D01*
X79771747Y-34455831D01*
X79829614Y-34441500D01*
X88819444Y-34441500D01*
X88886483Y-34461185D01*
X88907125Y-34477819D01*
X89989983Y-35560677D01*
X89989993Y-35560688D01*
X89994323Y-35565018D01*
X89994324Y-35565019D01*
X90064981Y-35635676D01*
X90151518Y-35685638D01*
X90248038Y-35711501D01*
X90248040Y-35711501D01*
X90355558Y-35711501D01*
X90355574Y-35711500D01*
X90500958Y-35711500D01*
X90567997Y-35731185D01*
X90613752Y-35783989D01*
X90615502Y-35788009D01*
X90633514Y-35831493D01*
X90633515Y-35831494D01*
X90748916Y-36004203D01*
X90748919Y-36004207D01*
X90895792Y-36151080D01*
X90895796Y-36151083D01*
X91068507Y-36266486D01*
X91068508Y-36266486D01*
X91068509Y-36266487D01*
X91068511Y-36266488D01*
X91232339Y-36334347D01*
X91260414Y-36345976D01*
X91411601Y-36376049D01*
X91464136Y-36386499D01*
X91464139Y-36386500D01*
X91464141Y-36386500D01*
X91671861Y-36386500D01*
X91671862Y-36386499D01*
X91875586Y-36345976D01*
X92067493Y-36266486D01*
X92240204Y-36151083D01*
X92387083Y-36004204D01*
X92502486Y-35831493D01*
X92520481Y-35788046D01*
X92564321Y-35733645D01*
X92630615Y-35711579D01*
X92635042Y-35711500D01*
X92985768Y-35711500D01*
X93052807Y-35731185D01*
X93096253Y-35779205D01*
X93104743Y-35795868D01*
X93163347Y-35910884D01*
X93265535Y-36051533D01*
X93388467Y-36174465D01*
X93529116Y-36276653D01*
X93571648Y-36298324D01*
X93684021Y-36355581D01*
X93849358Y-36409302D01*
X93849359Y-36409302D01*
X93849362Y-36409303D01*
X94021074Y-36436500D01*
X94021075Y-36436500D01*
X94194925Y-36436500D01*
X94194926Y-36436500D01*
X94366638Y-36409303D01*
X94366641Y-36409302D01*
X94366642Y-36409302D01*
X94531978Y-36355581D01*
X94531978Y-36355580D01*
X94531981Y-36355580D01*
X94686884Y-36276653D01*
X94827533Y-36174465D01*
X94950465Y-36051533D01*
X95052653Y-35910884D01*
X95131580Y-35755981D01*
X95141020Y-35726928D01*
X97067500Y-35726928D01*
X97067500Y-37477063D01*
X97082266Y-37551301D01*
X97138515Y-37635484D01*
X97171004Y-37657192D01*
X97222699Y-37691734D01*
X97222702Y-37691734D01*
X97222703Y-37691735D01*
X97247666Y-37696700D01*
X97296933Y-37706500D01*
X99047066Y-37706499D01*
X99121301Y-37691734D01*
X99205484Y-37635484D01*
X99261734Y-37551301D01*
X99276500Y-37477067D01*
X99276499Y-36085554D01*
X99296184Y-36018516D01*
X99312813Y-35997879D01*
X100186810Y-35123882D01*
X100248131Y-35090399D01*
X100312806Y-35093633D01*
X100390774Y-35118967D01*
X100453361Y-35139303D01*
X100539218Y-35152901D01*
X100625074Y-35166500D01*
X100625075Y-35166500D01*
X100798925Y-35166500D01*
X100798926Y-35166500D01*
X100970638Y-35139303D01*
X100970641Y-35139302D01*
X100970642Y-35139302D01*
X101135978Y-35085581D01*
X101135978Y-35085580D01*
X101135981Y-35085580D01*
X101290884Y-35006653D01*
X101431533Y-34904465D01*
X101554465Y-34781533D01*
X101656653Y-34640884D01*
X101735580Y-34485981D01*
X101738232Y-34477819D01*
X101789302Y-34320642D01*
X101789302Y-34320641D01*
X101789303Y-34320638D01*
X101816500Y-34148926D01*
X101816500Y-33975074D01*
X101789303Y-33803362D01*
X101789302Y-33803358D01*
X101789302Y-33803357D01*
X101735581Y-33638021D01*
X101671133Y-33511535D01*
X101656653Y-33483116D01*
X101554465Y-33342467D01*
X101431533Y-33219535D01*
X101290884Y-33117347D01*
X101280547Y-33112080D01*
X101135978Y-33038418D01*
X100970641Y-32984697D01*
X100841854Y-32964299D01*
X100798926Y-32957500D01*
X100625074Y-32957500D01*
X100567836Y-32966565D01*
X100453360Y-32984697D01*
X100453357Y-32984697D01*
X100288021Y-33038418D01*
X100133115Y-33117347D01*
X100067884Y-33164741D01*
X99992467Y-33219535D01*
X99992465Y-33219537D01*
X99992464Y-33219537D01*
X99869537Y-33342464D01*
X99869537Y-33342465D01*
X99869535Y-33342467D01*
X99864377Y-33349567D01*
X99767347Y-33483115D01*
X99688418Y-33638021D01*
X99634697Y-33803357D01*
X99634697Y-33803360D01*
X99607500Y-33975074D01*
X99607500Y-34148925D01*
X99634697Y-34320639D01*
X99634697Y-34320642D01*
X99680364Y-34461191D01*
X99682359Y-34531033D01*
X99650114Y-34587190D01*
X98776123Y-35461181D01*
X98714800Y-35494666D01*
X98688442Y-35497500D01*
X97296936Y-35497500D01*
X97222698Y-35512266D01*
X97138515Y-35568515D01*
X97082266Y-35652699D01*
X97082264Y-35652703D01*
X97067500Y-35726928D01*
X95141020Y-35726928D01*
X95146007Y-35711579D01*
X95155449Y-35682522D01*
X95155450Y-35682520D01*
X95185301Y-35590646D01*
X95185301Y-35590642D01*
X95185303Y-35590638D01*
X95212500Y-35418926D01*
X95212500Y-35245074D01*
X95185303Y-35073362D01*
X95185302Y-35073358D01*
X95185302Y-35073357D01*
X95131581Y-34908021D01*
X95117309Y-34880010D01*
X95052653Y-34753116D01*
X94950465Y-34612467D01*
X94827533Y-34489535D01*
X94686884Y-34387347D01*
X94608097Y-34347203D01*
X94531978Y-34308418D01*
X94366641Y-34254697D01*
X94237854Y-34234299D01*
X94194926Y-34227500D01*
X94021074Y-34227500D01*
X93963836Y-34236565D01*
X93849360Y-34254697D01*
X93849357Y-34254697D01*
X93684021Y-34308418D01*
X93529115Y-34387347D01*
X93470281Y-34430093D01*
X93388467Y-34489535D01*
X93388465Y-34489537D01*
X93388464Y-34489537D01*
X93265537Y-34612464D01*
X93265537Y-34612465D01*
X93265535Y-34612467D01*
X93231151Y-34659792D01*
X93163347Y-34753115D01*
X93096253Y-34884795D01*
X93048278Y-34935591D01*
X92985768Y-34952500D01*
X92635042Y-34952500D01*
X92568003Y-34932815D01*
X92522248Y-34880011D01*
X92520497Y-34875990D01*
X92502486Y-34832507D01*
X92387083Y-34659796D01*
X92387080Y-34659792D01*
X92240207Y-34512919D01*
X92240203Y-34512916D01*
X92067490Y-34397512D01*
X92067488Y-34397511D01*
X91875590Y-34318025D01*
X91875578Y-34318022D01*
X91671862Y-34277500D01*
X91671859Y-34277500D01*
X91464141Y-34277500D01*
X91464138Y-34277500D01*
X91260421Y-34318022D01*
X91260409Y-34318025D01*
X91068511Y-34397511D01*
X91068509Y-34397512D01*
X90895796Y-34512916D01*
X90895792Y-34512919D01*
X90748919Y-34659792D01*
X90748916Y-34659796D01*
X90633515Y-34832505D01*
X90633513Y-34832509D01*
X90617158Y-34871994D01*
X90573317Y-34926397D01*
X90507022Y-34948462D01*
X90439323Y-34931183D01*
X90414916Y-34912222D01*
X89477768Y-33975074D01*
X97067500Y-33975074D01*
X97067500Y-34148925D01*
X97094697Y-34320639D01*
X97094697Y-34320642D01*
X97148418Y-34485978D01*
X97202367Y-34591858D01*
X97227347Y-34640884D01*
X97329535Y-34781533D01*
X97452467Y-34904465D01*
X97593116Y-35006653D01*
X97635648Y-35028324D01*
X97748021Y-35085581D01*
X97913358Y-35139302D01*
X97913359Y-35139302D01*
X97913362Y-35139303D01*
X98085074Y-35166500D01*
X98085075Y-35166500D01*
X98258925Y-35166500D01*
X98258926Y-35166500D01*
X98430638Y-35139303D01*
X98430641Y-35139302D01*
X98430642Y-35139302D01*
X98595978Y-35085581D01*
X98595978Y-35085580D01*
X98595981Y-35085580D01*
X98750884Y-35006653D01*
X98891533Y-34904465D01*
X99014465Y-34781533D01*
X99116653Y-34640884D01*
X99195580Y-34485981D01*
X99198232Y-34477819D01*
X99249302Y-34320642D01*
X99249302Y-34320641D01*
X99249303Y-34320638D01*
X99276500Y-34148926D01*
X99276500Y-33975074D01*
X99249303Y-33803362D01*
X99249302Y-33803358D01*
X99249302Y-33803357D01*
X99195581Y-33638021D01*
X99131133Y-33511535D01*
X99116653Y-33483116D01*
X99014465Y-33342467D01*
X98891533Y-33219535D01*
X98750884Y-33117347D01*
X98740547Y-33112080D01*
X98595978Y-33038418D01*
X98430641Y-32984697D01*
X98301854Y-32964299D01*
X98258926Y-32957500D01*
X98085074Y-32957500D01*
X98027836Y-32966565D01*
X97913360Y-32984697D01*
X97913357Y-32984697D01*
X97748021Y-33038418D01*
X97593115Y-33117347D01*
X97527884Y-33164741D01*
X97452467Y-33219535D01*
X97452465Y-33219537D01*
X97452464Y-33219537D01*
X97329537Y-33342464D01*
X97329537Y-33342465D01*
X97329535Y-33342467D01*
X97324377Y-33349567D01*
X97227347Y-33483115D01*
X97148418Y-33638021D01*
X97094697Y-33803357D01*
X97094697Y-33803360D01*
X97067500Y-33975074D01*
X89477768Y-33975074D01*
X89338746Y-33836052D01*
X89338744Y-33836049D01*
X89261020Y-33758325D01*
X89261015Y-33758321D01*
X89174485Y-33708363D01*
X89174482Y-33708362D01*
X89174478Y-33708361D01*
X89154084Y-33702896D01*
X89077962Y-33682499D01*
X88978038Y-33682499D01*
X88970442Y-33682499D01*
X88970426Y-33682500D01*
X80342000Y-33682500D01*
X80274961Y-33662815D01*
X80229206Y-33610011D01*
X80218000Y-33558500D01*
X80218000Y-33042000D01*
X79301012Y-33042000D01*
X79333925Y-32984993D01*
X79368000Y-32857826D01*
X79368000Y-32726174D01*
X79333925Y-32599007D01*
X79301012Y-32542000D01*
X80218000Y-32542000D01*
X80218000Y-32069500D01*
X80237685Y-32002461D01*
X80290489Y-31956706D01*
X80342000Y-31945500D01*
X88819444Y-31945500D01*
X88886483Y-31965185D01*
X88907125Y-31981819D01*
X89945983Y-33020677D01*
X89945993Y-33020688D01*
X89950323Y-33025018D01*
X89950324Y-33025019D01*
X90020981Y-33095676D01*
X90020983Y-33095677D01*
X90020984Y-33095678D01*
X90058516Y-33117347D01*
X90107518Y-33145638D01*
X90121521Y-33149390D01*
X90204038Y-33171501D01*
X90204040Y-33171501D01*
X90311558Y-33171501D01*
X90311574Y-33171500D01*
X90500958Y-33171500D01*
X90567997Y-33191185D01*
X90613752Y-33243989D01*
X90615502Y-33248009D01*
X90633514Y-33291493D01*
X90633515Y-33291494D01*
X90748916Y-33464203D01*
X90748919Y-33464207D01*
X90895792Y-33611080D01*
X90895796Y-33611083D01*
X91068507Y-33726486D01*
X91068508Y-33726486D01*
X91068509Y-33726487D01*
X91068511Y-33726488D01*
X91254091Y-33803357D01*
X91260414Y-33805976D01*
X91411601Y-33836049D01*
X91464136Y-33846499D01*
X91464139Y-33846500D01*
X91464141Y-33846500D01*
X91671861Y-33846500D01*
X91671862Y-33846499D01*
X91875586Y-33805976D01*
X92067493Y-33726486D01*
X92240204Y-33611083D01*
X92387083Y-33464204D01*
X92502486Y-33291493D01*
X92520481Y-33248046D01*
X92564321Y-33193645D01*
X92630615Y-33171579D01*
X92635042Y-33171500D01*
X92985768Y-33171500D01*
X93052807Y-33191185D01*
X93096253Y-33239205D01*
X93123697Y-33293066D01*
X93163347Y-33370884D01*
X93265535Y-33511533D01*
X93388467Y-33634465D01*
X93529116Y-33736653D01*
X93571648Y-33758324D01*
X93684021Y-33815581D01*
X93849358Y-33869302D01*
X93849359Y-33869302D01*
X93849362Y-33869303D01*
X94021074Y-33896500D01*
X94021075Y-33896500D01*
X94194925Y-33896500D01*
X94194926Y-33896500D01*
X94366638Y-33869303D01*
X94366641Y-33869302D01*
X94366642Y-33869302D01*
X94419059Y-33852271D01*
X94531978Y-33815581D01*
X94531978Y-33815580D01*
X94531981Y-33815580D01*
X94686884Y-33736653D01*
X94827533Y-33634465D01*
X94950465Y-33511533D01*
X95052653Y-33370884D01*
X95131580Y-33215981D01*
X95154436Y-33145637D01*
X95185302Y-33050642D01*
X95185302Y-33050641D01*
X95185303Y-33050638D01*
X95212500Y-32878926D01*
X95212500Y-32705074D01*
X95185303Y-32533362D01*
X95185302Y-32533358D01*
X95185302Y-32533357D01*
X95131581Y-32368021D01*
X95117309Y-32340011D01*
X95052653Y-32213116D01*
X94950465Y-32072467D01*
X94827533Y-31949535D01*
X94686884Y-31847347D01*
X94661906Y-31834620D01*
X94531978Y-31768418D01*
X94366641Y-31714697D01*
X94255001Y-31697015D01*
X94194926Y-31687500D01*
X94021074Y-31687500D01*
X93946510Y-31699309D01*
X93849360Y-31714697D01*
X93849357Y-31714697D01*
X93684021Y-31768418D01*
X93529115Y-31847347D01*
X93464667Y-31894172D01*
X93388467Y-31949535D01*
X93388465Y-31949537D01*
X93388464Y-31949537D01*
X93265537Y-32072464D01*
X93265537Y-32072465D01*
X93265535Y-32072467D01*
X93231151Y-32119792D01*
X93163347Y-32213115D01*
X93096253Y-32344795D01*
X93048278Y-32395591D01*
X92985768Y-32412500D01*
X92635042Y-32412500D01*
X92568003Y-32392815D01*
X92522248Y-32340011D01*
X92520497Y-32335990D01*
X92502486Y-32292507D01*
X92387083Y-32119796D01*
X92387080Y-32119792D01*
X92240207Y-31972919D01*
X92240203Y-31972916D01*
X92067490Y-31857512D01*
X92067488Y-31857511D01*
X91875590Y-31778025D01*
X91875578Y-31778022D01*
X91671862Y-31737500D01*
X91671859Y-31737500D01*
X91464141Y-31737500D01*
X91464138Y-31737500D01*
X91260421Y-31778022D01*
X91260409Y-31778025D01*
X91068511Y-31857511D01*
X91068509Y-31857512D01*
X90895796Y-31972916D01*
X90895792Y-31972919D01*
X90748919Y-32119792D01*
X90748916Y-32119796D01*
X90633515Y-32292505D01*
X90633514Y-32292507D01*
X90615518Y-32335953D01*
X90571679Y-32390355D01*
X90505385Y-32412421D01*
X90500958Y-32412500D01*
X90462556Y-32412500D01*
X90395517Y-32392815D01*
X90374875Y-32376181D01*
X89651875Y-31653181D01*
X89618390Y-31591858D01*
X89623374Y-31522166D01*
X89665246Y-31466233D01*
X89730710Y-31441816D01*
X89739556Y-31441500D01*
X108034500Y-31441500D01*
X108101539Y-31461185D01*
G37*
%TD.AperFunction*%
%TA.AperFunction,Conductor*%
G36*
X107887474Y-53837922D02*
G01*
X107887474Y-53837921D01*
X107919859Y-53793349D01*
X107924015Y-53785194D01*
X107971989Y-53734398D01*
X108039810Y-53717603D01*
X108105945Y-53740140D01*
X108149397Y-53794855D01*
X108158500Y-53841489D01*
X108158500Y-57462510D01*
X108138815Y-57529549D01*
X108086011Y-57575304D01*
X108016853Y-57585248D01*
X107953297Y-57556223D01*
X107924017Y-57518808D01*
X107919861Y-57510653D01*
X107887474Y-57466077D01*
X107887474Y-57466076D01*
X107208000Y-58145551D01*
X107208000Y-58139339D01*
X107180741Y-58037606D01*
X107128080Y-57946394D01*
X107053606Y-57871920D01*
X106962394Y-57819259D01*
X106860661Y-57792000D01*
X106854446Y-57792000D01*
X107533922Y-57112524D01*
X107533921Y-57112523D01*
X107489359Y-57080147D01*
X107489350Y-57080141D01*
X107307031Y-56987244D01*
X107112417Y-56924009D01*
X107077825Y-56918531D01*
X107014690Y-56888602D01*
X106977759Y-56829290D01*
X106978757Y-56759428D01*
X107017367Y-56701195D01*
X107073032Y-56674441D01*
X107091313Y-56670804D01*
X107115586Y-56665976D01*
X107307493Y-56586486D01*
X107480204Y-56471083D01*
X107627083Y-56324204D01*
X107742486Y-56151493D01*
X107821976Y-55959586D01*
X107862500Y-55755859D01*
X107862500Y-55548141D01*
X107862500Y-55548138D01*
X107862499Y-55548136D01*
X107836808Y-55418981D01*
X107821976Y-55344414D01*
X107794988Y-55279259D01*
X107742488Y-55152511D01*
X107742487Y-55152509D01*
X107742484Y-55152505D01*
X107627083Y-54979796D01*
X107627080Y-54979792D01*
X107480207Y-54832919D01*
X107480203Y-54832916D01*
X107307490Y-54717512D01*
X107307488Y-54717511D01*
X107115590Y-54638025D01*
X107115583Y-54638023D01*
X107073029Y-54629558D01*
X107011119Y-54597172D01*
X106976546Y-54536455D01*
X106980287Y-54466686D01*
X107021154Y-54410015D01*
X107077828Y-54385467D01*
X107112421Y-54379988D01*
X107307031Y-54316755D01*
X107489349Y-54223859D01*
X107533921Y-54191474D01*
X106854447Y-53512000D01*
X106860661Y-53512000D01*
X106962394Y-53484741D01*
X107053606Y-53432080D01*
X107128080Y-53357606D01*
X107180741Y-53266394D01*
X107208000Y-53164661D01*
X107208000Y-53158448D01*
X107887474Y-53837922D01*
G37*
%TD.AperFunction*%
%TA.AperFunction,Conductor*%
G36*
X74947334Y-32271873D02*
G01*
X75003267Y-32313745D01*
X75027684Y-32379209D01*
X75028000Y-32388055D01*
X75028000Y-32542000D01*
X76012314Y-32542000D01*
X76007920Y-32546394D01*
X75955259Y-32637606D01*
X75928000Y-32739339D01*
X75928000Y-32844661D01*
X75955259Y-32946394D01*
X76007920Y-33037606D01*
X76012314Y-33042000D01*
X75028001Y-33042000D01*
X75028001Y-33391986D01*
X75038494Y-33494697D01*
X75051825Y-33534927D01*
X75054227Y-33604755D01*
X75018495Y-33664797D01*
X74966215Y-33693705D01*
X74911520Y-33708361D01*
X74911515Y-33708363D01*
X74824984Y-33758321D01*
X74824979Y-33758325D01*
X73707394Y-34875911D01*
X73646071Y-34909396D01*
X73576379Y-34904412D01*
X73520446Y-34862540D01*
X73509228Y-34844525D01*
X73503106Y-34832509D01*
X73462653Y-34753116D01*
X73360465Y-34612467D01*
X73237533Y-34489535D01*
X73096884Y-34387347D01*
X73018097Y-34347203D01*
X72941978Y-34308418D01*
X72776641Y-34254697D01*
X72647854Y-34234299D01*
X72604926Y-34227500D01*
X72431074Y-34227500D01*
X72373836Y-34236565D01*
X72259360Y-34254697D01*
X72259357Y-34254697D01*
X72094021Y-34308418D01*
X71939115Y-34387347D01*
X71880281Y-34430093D01*
X71798467Y-34489535D01*
X71798465Y-34489537D01*
X71798464Y-34489537D01*
X71675537Y-34612464D01*
X71675537Y-34612465D01*
X71675535Y-34612467D01*
X71641151Y-34659792D01*
X71573347Y-34753115D01*
X71494418Y-34908021D01*
X71440697Y-35073357D01*
X71440697Y-35073360D01*
X71413500Y-35245074D01*
X71413500Y-35418925D01*
X71440697Y-35590639D01*
X71440697Y-35590642D01*
X71494418Y-35755978D01*
X71514743Y-35795868D01*
X71573347Y-35910884D01*
X71650660Y-36017296D01*
X71656704Y-36025614D01*
X71680184Y-36091420D01*
X71664359Y-36159474D01*
X71614253Y-36208169D01*
X71556386Y-36222500D01*
X71456556Y-36222500D01*
X71389517Y-36202815D01*
X71368875Y-36186181D01*
X71039885Y-35857191D01*
X71006400Y-35795868D01*
X71009635Y-35731192D01*
X71055302Y-35590642D01*
X71055302Y-35590641D01*
X71055303Y-35590638D01*
X71082500Y-35418926D01*
X71082500Y-35245074D01*
X71055303Y-35073362D01*
X71055302Y-35073358D01*
X71055302Y-35073357D01*
X71001581Y-34908021D01*
X70987309Y-34880010D01*
X70922653Y-34753116D01*
X70820465Y-34612467D01*
X70697533Y-34489535D01*
X70556884Y-34387347D01*
X70535565Y-34376484D01*
X70484770Y-34328510D01*
X70467975Y-34260689D01*
X70490513Y-34194554D01*
X70545228Y-34151103D01*
X70591861Y-34142000D01*
X70875828Y-34142000D01*
X70875844Y-34141999D01*
X70935372Y-34135598D01*
X70935379Y-34135596D01*
X71070086Y-34085354D01*
X71070093Y-34085350D01*
X71185187Y-33999190D01*
X71185190Y-33999187D01*
X71271350Y-33884093D01*
X71271354Y-33884086D01*
X71321596Y-33749379D01*
X71321598Y-33749372D01*
X71327999Y-33689844D01*
X71328000Y-33689827D01*
X71328000Y-33405860D01*
X71347685Y-33338821D01*
X71400489Y-33293066D01*
X71469647Y-33283122D01*
X71533203Y-33312147D01*
X71562484Y-33349564D01*
X71573347Y-33370884D01*
X71675535Y-33511533D01*
X71798467Y-33634465D01*
X71939116Y-33736653D01*
X71981648Y-33758324D01*
X72094021Y-33815581D01*
X72259358Y-33869302D01*
X72259359Y-33869302D01*
X72259362Y-33869303D01*
X72431074Y-33896500D01*
X72431075Y-33896500D01*
X72604925Y-33896500D01*
X72604926Y-33896500D01*
X72776638Y-33869303D01*
X72776641Y-33869302D01*
X72776642Y-33869302D01*
X72941978Y-33815581D01*
X72941978Y-33815580D01*
X72941981Y-33815580D01*
X73096884Y-33736653D01*
X73237533Y-33634465D01*
X73360465Y-33511533D01*
X73462653Y-33370884D01*
X73517831Y-33262589D01*
X73529747Y-33239205D01*
X73577722Y-33188409D01*
X73640232Y-33171500D01*
X73730426Y-33171500D01*
X73730442Y-33171501D01*
X73738038Y-33171501D01*
X73837960Y-33171501D01*
X73837962Y-33171501D01*
X73920479Y-33149390D01*
X73934482Y-33145638D01*
X74021019Y-33095676D01*
X74091676Y-33025019D01*
X74091676Y-33025017D01*
X74101880Y-33014814D01*
X74101883Y-33014809D01*
X74816320Y-32300373D01*
X74877642Y-32266889D01*
X74947334Y-32271873D01*
G37*
%TD.AperFunction*%
%TA.AperFunction,Conductor*%
G36*
X78402075Y-32599007D02*
G01*
X78368000Y-32726174D01*
X78368000Y-32857826D01*
X78402075Y-32984993D01*
X78434988Y-33042000D01*
X76643686Y-33042000D01*
X76648080Y-33037606D01*
X76700741Y-32946394D01*
X76728000Y-32844661D01*
X76728000Y-32739339D01*
X76700741Y-32637606D01*
X76648080Y-32546394D01*
X76643686Y-32542000D01*
X78434988Y-32542000D01*
X78402075Y-32599007D01*
G37*
%TD.AperFunction*%
%TD*%
M02*
