M48
; DRILL file KiCad 10.0.5 date 2026-07-31T20:33:19
; FORMAT={-:-/ absolute / metric / decimal}
; #@! TF.CreationDate,2026-07-31T20:33:19+01:00
; #@! TF.GenerationSoftware,Kicad,Pcbnew,10.0.5
; #@! TF.FileFunction,Plated,1,2,PTH
FMAT,2
METRIC
; #@! TA.AperFunction,Plated,PTH,ComponentDrill
T1C0.800
; #@! TA.AperFunction,Plated,PTH,ComponentDrill
T2C1.000
%
G90
G05
T1
X76.328Y-32.792
X76.328Y-35.332
X76.328Y-37.872
X76.328Y-40.412
X76.328Y-42.952
X76.328Y-45.492
X76.328Y-48.032
X76.328Y-50.572
X76.328Y-53.112
X76.328Y-55.652
X76.328Y-58.192
X76.328Y-60.732
X76.328Y-63.272
X76.328Y-65.812
X91.568Y-32.792
X91.568Y-35.332
X91.568Y-37.872
X91.568Y-40.412
X91.568Y-42.952
X91.568Y-45.492
X91.568Y-48.032
X91.568Y-50.572
X91.568Y-53.112
X91.568Y-55.652
X91.568Y-58.192
X91.568Y-60.732
X91.568Y-63.272
X91.568Y-65.812
X96.648Y-40.92
X96.648Y-44.222
X99.188Y-50.572
X99.188Y-53.112
X99.188Y-55.652
X99.188Y-58.192
X99.188Y-60.732
X99.188Y-63.272
X99.188Y-65.812
X101.808Y-47.27
X106.808Y-40.92
X106.808Y-44.222
X106.808Y-47.27
X106.808Y-50.572
X106.808Y-53.112
X106.808Y-55.652
X106.808Y-58.192
X106.808Y-60.732
X106.808Y-63.272
X106.808Y-65.812
T2
X69.978Y-32.792
X69.978Y-35.332
X69.978Y-37.872
X69.978Y-40.412
X69.978Y-42.952
X69.978Y-45.492
X69.978Y-48.032
X69.978Y-50.572
X69.978Y-53.112
X69.978Y-55.652
X69.978Y-58.192
X69.978Y-60.732
X69.978Y-63.272
X69.978Y-65.812
X72.518Y-32.792
X72.518Y-35.332
X72.518Y-37.872
X72.518Y-40.412
X72.518Y-42.952
X72.518Y-45.492
X72.518Y-48.032
X72.518Y-50.572
X72.518Y-53.112
X72.518Y-55.652
X72.518Y-58.192
X72.518Y-60.732
X72.518Y-63.272
X72.518Y-65.812
X78.868Y-32.792
X78.868Y-35.332
X78.868Y-37.872
X78.868Y-40.412
X78.868Y-42.952
X78.868Y-45.492
X78.868Y-48.032
X78.868Y-50.572
X78.868Y-53.112
X78.868Y-55.652
X78.868Y-58.192
X78.868Y-60.732
X78.868Y-63.272
X78.868Y-65.812
X94.108Y-32.792
X94.108Y-35.332
X94.108Y-37.872
X94.108Y-40.412
X94.108Y-42.952
X94.108Y-45.492
X94.108Y-48.032
X94.108Y-50.572
X94.108Y-53.112
X94.108Y-55.652
X94.108Y-58.192
X94.108Y-60.732
X94.108Y-63.272
X94.108Y-65.812
X98.172Y-34.062
X98.172Y-36.602
X100.712Y-34.062
X100.712Y-36.602
X103.252Y-34.062
X103.252Y-36.602
X105.792Y-34.062
X105.792Y-36.602
M30
