%TF.GenerationSoftware,KiCad,Pcbnew,10.0.6*%
%TF.CreationDate,2026-09-04T00:34:00+01:00*%
%TF.ProjectId,VideoULA,56696465-6f55-44c4-912e-6b696361645f,04*%
%TF.SameCoordinates,Original*%
%TF.FileFunction,Copper,L2,Bot*%
%TF.FilePolarity,Positive*%
%FSLAX46Y46*%
G04 Gerber Fmt 4.6, Leading zero omitted, Abs format (unit mm)*
G04 Created by KiCad (PCBNEW 10.0.6) date 2026-09-04 00:34:00*
%MOMM*%
%LPD*%
G01*
G04 APERTURE LIST*
G04 Aperture macros list*
%AMRoundRect*
0 Rectangle with rounded corners*
0 $1 Rounding radius*
0 $2 $3 $4 $5 $6 $7 $8 $9 X,Y pos of 4 corners*
0 Add a 4 corners polygon primitive as box body*
4,1,4,$2,$3,$4,$5,$6,$7,$8,$9,$2,$3,0*
0 Add four circle primitives for the rounded corners*
1,1,$1+$1,$2,$3*
1,1,$1+$1,$4,$5*
1,1,$1+$1,$6,$7*
1,1,$1+$1,$8,$9*
0 Add four rect primitives between the rounded corners*
20,1,$1+$1,$2,$3,$4,$5,0*
20,1,$1+$1,$4,$5,$6,$7,0*
20,1,$1+$1,$6,$7,$8,$9,0*
20,1,$1+$1,$8,$9,$2,$3,0*%
%AMFreePoly0*
4,1,23,0.550000,-0.750000,0.000000,-0.750000,0.000000,-0.745722,-0.065263,-0.745722,-0.191342,-0.711940,-0.304381,-0.646677,-0.396677,-0.554381,-0.461940,-0.441342,-0.495722,-0.315263,-0.495722,-0.250000,-0.500000,-0.250000,-0.500000,0.250000,-0.495722,0.250000,-0.495722,0.315263,-0.461940,0.441342,-0.396677,0.554381,-0.304381,0.646677,-0.191342,0.711940,-0.065263,0.745722,0.000000,0.745722,
0.000000,0.750000,0.550000,0.750000,0.550000,-0.750000,0.550000,-0.750000,$1*%
%AMFreePoly1*
4,1,23,0.000000,0.745722,0.065263,0.745722,0.191342,0.711940,0.304381,0.646677,0.396677,0.554381,0.461940,0.441342,0.495722,0.315263,0.495722,0.250000,0.500000,0.250000,0.500000,-0.250000,0.495722,-0.250000,0.495722,-0.315263,0.461940,-0.441342,0.396677,-0.554381,0.304381,-0.646677,0.191342,-0.711940,0.065263,-0.745722,0.000000,-0.745722,0.000000,-0.750000,-0.550000,-0.750000,
-0.550000,0.750000,0.000000,0.750000,0.000000,0.745722,0.000000,0.745722,$1*%
G04 Aperture macros list end*
%TA.AperFunction,EtchedComponent*%
%ADD10C,0.000000*%
%TD*%
%TA.AperFunction,HeatsinkPad*%
%ADD11C,0.500000*%
%TD*%
%TA.AperFunction,HeatsinkPad*%
%ADD12R,1.500000X0.500000*%
%TD*%
%TA.AperFunction,ComponentPad*%
%ADD13R,1.700000X1.700000*%
%TD*%
%TA.AperFunction,ComponentPad*%
%ADD14C,1.700000*%
%TD*%
%TA.AperFunction,ComponentPad*%
%ADD15RoundRect,0.250000X-0.550000X-0.550000X0.550000X-0.550000X0.550000X0.550000X-0.550000X0.550000X0*%
%TD*%
%TA.AperFunction,ComponentPad*%
%ADD16C,1.600000*%
%TD*%
%TA.AperFunction,SMDPad,CuDef*%
%ADD17R,0.380000X1.870000*%
%TD*%
%TA.AperFunction,SMDPad,CuDef*%
%ADD18FreePoly0,270.000000*%
%TD*%
%TA.AperFunction,SMDPad,CuDef*%
%ADD19R,1.500000X1.000000*%
%TD*%
%TA.AperFunction,SMDPad,CuDef*%
%ADD20FreePoly1,270.000000*%
%TD*%
%TA.AperFunction,SMDPad,CuDef*%
%ADD21FreePoly0,180.000000*%
%TD*%
%TA.AperFunction,SMDPad,CuDef*%
%ADD22R,1.000000X1.500000*%
%TD*%
%TA.AperFunction,SMDPad,CuDef*%
%ADD23FreePoly1,180.000000*%
%TD*%
%TA.AperFunction,SMDPad,CuDef*%
%ADD24RoundRect,0.225000X-0.225000X-0.250000X0.225000X-0.250000X0.225000X0.250000X-0.225000X0.250000X0*%
%TD*%
%TA.AperFunction,ViaPad*%
%ADD25C,0.600000*%
%TD*%
%TA.AperFunction,ViaPad*%
%ADD26C,0.800000*%
%TD*%
%TA.AperFunction,ViaPad*%
%ADD27C,0.500000*%
%TD*%
%TA.AperFunction,Conductor*%
%ADD28C,0.380000*%
%TD*%
%TA.AperFunction,Conductor*%
%ADD29C,0.250000*%
%TD*%
%TA.AperFunction,Conductor*%
%ADD30C,0.500000*%
%TD*%
%TA.AperFunction,Conductor*%
%ADD31C,0.400000*%
%TD*%
G04 APERTURE END LIST*
D10*
%TA.AperFunction,EtchedComponent*%
%TO.C,JP1*%
G36*
X83848532Y-42057148D02*
G01*
X83248532Y-42057148D01*
X83248532Y-41557148D01*
X83848532Y-41557148D01*
X83848532Y-42057148D01*
G37*
%TD.AperFunction*%
%TA.AperFunction,EtchedComponent*%
%TO.C,JP3*%
G36*
X89222400Y-65152400D02*
G01*
X88622400Y-65152400D01*
X88622400Y-64652400D01*
X89222400Y-64652400D01*
X89222400Y-65152400D01*
G37*
%TD.AperFunction*%
%TA.AperFunction,EtchedComponent*%
%TO.C,JP2*%
G36*
X88006200Y-40223800D02*
G01*
X87506200Y-40223800D01*
X87506200Y-39623800D01*
X88006200Y-39623800D01*
X88006200Y-40223800D01*
G37*
%TD.AperFunction*%
%TD*%
D11*
%TO.P,U3,15,GND_15*%
%TO.N,unconnected-(U3G-GND-Pad15)*%
X83664600Y-44749800D03*
D12*
%TO.N,unconnected-(U3G-GND-Pad15)_1*%
X83164600Y-44749800D03*
D11*
%TO.N,unconnected-(U3G-GND-Pad15)_2*%
X82664600Y-44749800D03*
%TD*%
D13*
%TO.P,J1,1,Pin_1_1*%
%TO.N,/TCK*%
X80523000Y-72893000D03*
D14*
%TO.P,J1,2,Pin_2_2*%
%TO.N,GND*%
X80523000Y-70353000D03*
%TO.P,J1,3,Pin_3_3*%
%TO.N,/TDO*%
X83063000Y-72893000D03*
%TO.P,J1,4,Pin_4_4*%
%TO.N,+3.3V*%
X83063000Y-70353000D03*
%TO.P,J1,5,Pin_5_5*%
%TO.N,/TMS*%
X85603000Y-72893000D03*
%TO.P,J1,6,Pin_6_6*%
%TO.N,unconnected-(J1-Pin_6-Pad6)*%
X85603000Y-70353000D03*
%TO.P,J1,7,Pin_7_7*%
%TO.N,unconnected-(J1-Pin_7-Pad7)*%
X88143000Y-72893000D03*
%TO.P,J1,8,Pin_8_8*%
%TO.N,unconnected-(J1-Pin_8-Pad8)*%
X88143000Y-70353000D03*
%TO.P,J1,9,Pin_9_9*%
%TO.N,/TDI*%
X90683000Y-72893000D03*
%TO.P,J1,10,Pin_10_10*%
%TO.N,GND*%
X90683000Y-70353000D03*
%TD*%
D15*
%TO.P,IC6,1,GND_1*%
%TO.N,GND*%
X77983000Y-39873000D03*
D16*
%TO.P,IC6,2,A0_2*%
%TO.N,/A*%
X77983000Y-42413000D03*
%TO.P,IC6,3,CS_3*%
%TO.N,/~{CS}*%
X77983000Y-44953000D03*
%TO.P,IC6,4,1MHz_CLK_4*%
%TO.N,/CLK_1M_BUF*%
X77983000Y-47493000D03*
%TO.P,IC6,5,2MHz_CLK_5*%
%TO.N,/CLK_2M_BUF*%
X77983000Y-50033000D03*
%TO.P,IC6,6,4MHz_CLK_6*%
%TO.N,/CLK_4M_BUF*%
X77983000Y-52573000D03*
%TO.P,IC6,7,8MHz_CLK_7*%
%TO.N,/CLK_8M_BUF*%
X77983000Y-55113000D03*
%TO.P,IC6,8,16MHz_CLK_8*%
%TO.N,/CLK_16M*%
X77983000Y-57653000D03*
%TO.P,IC6,9,B_IN_9*%
%TO.N,/B_IN*%
X77983000Y-60193000D03*
%TO.P,IC6,10,B_10*%
%TO.N,/B*%
X77983000Y-62733000D03*
%TO.P,IC6,11,G_IN_11*%
%TO.N,/G_IN*%
X77983000Y-65273000D03*
%TO.P,IC6,12,G_12*%
%TO.N,/G*%
X77983000Y-67813000D03*
%TO.P,IC6,13,R_IN_13*%
%TO.N,/R_IN*%
X77983000Y-70353000D03*
%TO.P,IC6,14,R_14*%
%TO.N,/R*%
X77983000Y-72893000D03*
%TO.P,IC6,15*%
%TO.N,unconnected-(IC6-Pad15)*%
X93223000Y-72893000D03*
%TO.P,IC6,16,VCC_16*%
%TO.N,+5V*%
X93223000Y-70353000D03*
%TO.P,IC6,17,D0_17*%
%TO.N,/D0*%
X93223000Y-67813000D03*
%TO.P,IC6,18,D1_18*%
%TO.N,/D1*%
X93223000Y-65273000D03*
%TO.P,IC6,19,D2_19*%
%TO.N,/D2*%
X93223000Y-62733000D03*
%TO.P,IC6,20,D3_20*%
%TO.N,/D3*%
X93223000Y-60193000D03*
%TO.P,IC6,21,D4_21*%
%TO.N,/D4*%
X93223000Y-57653000D03*
%TO.P,IC6,22,D5_22*%
%TO.N,/D5*%
X93223000Y-55113000D03*
%TO.P,IC6,23,D6_23*%
%TO.N,/D6*%
X93223000Y-52573000D03*
%TO.P,IC6,24,D7_24*%
%TO.N,/D7*%
X93223000Y-50033000D03*
%TO.P,IC6,25,CURSOR_25*%
%TO.N,/CURSOR*%
X93223000Y-47493000D03*
%TO.P,IC6,26,DISEN_26*%
%TO.N,/DISEN*%
X93223000Y-44953000D03*
%TO.P,IC6,27*%
%TO.N,unconnected-(IC6-Pad27)*%
X93223000Y-42413000D03*
%TO.P,IC6,28,CRTC_CLK_28*%
%TO.N,/CLK_CRTC_BUF*%
X93223000Y-39873000D03*
%TD*%
D13*
%TO.P,J2,1,Pin_1_1*%
%TO.N,/CLK_6M*%
X80523000Y-48763000D03*
%TD*%
D17*
%TO.P,U4,1,A14_1*%
%TO.N,GND*%
X85836000Y-60367000D03*
%TO.P,U4,2,A12_2*%
X85286000Y-60367000D03*
%TO.P,U4,3,A7_3*%
%TO.N,/SRAM_A3*%
X84736000Y-60367000D03*
%TO.P,U4,4,A6_4*%
%TO.N,/SRAM_A2*%
X84186000Y-60367000D03*
%TO.P,U4,5,A5_5*%
%TO.N,/SRAM_A1*%
X83636000Y-60367000D03*
%TO.P,U4,6,A4_6*%
%TO.N,/SRAM_A0*%
X83086000Y-60367000D03*
%TO.P,U4,7,A3_7*%
%TO.N,GND*%
X82536000Y-60367000D03*
%TO.P,U4,8,A2_8*%
X82536000Y-47827000D03*
%TO.P,U4,9,A1_9*%
X83086000Y-47827000D03*
%TO.P,U4,10,A0_10*%
X83636000Y-47827000D03*
%TO.P,U4,11,Q0_11*%
%TO.N,/SRAM_Q0*%
X84186000Y-47827000D03*
%TO.P,U4,12,Q1_12*%
%TO.N,/SRAM_Q1*%
X84736000Y-47827000D03*
%TO.P,U4,13,Q2_13*%
%TO.N,/SRAM_Q2*%
X85286000Y-47827000D03*
%TO.P,U4,14,GND_14*%
%TO.N,GND*%
X85836000Y-47827000D03*
%TO.P,U4,15,Q3_15*%
%TO.N,/SRAM_Q3*%
X86386000Y-47827000D03*
%TO.P,U4,16,Q4_16*%
%TO.N,/SRAM_D3*%
X86936000Y-47827000D03*
%TO.P,U4,17,Q5_17*%
%TO.N,/SRAM_D2*%
X87486000Y-47827000D03*
%TO.P,U4,18,Q6_18*%
%TO.N,/SRAM_D1*%
X88036000Y-47827000D03*
%TO.P,U4,19,Q7_19*%
%TO.N,/SRAM_D0*%
X88586000Y-47827000D03*
%TO.P,U4,20,~{CS}_20*%
%TO.N,GND*%
X89136000Y-47827000D03*
%TO.P,U4,21,A10_21*%
X89686000Y-47827000D03*
%TO.P,U4,22,~{OE}_22*%
X89686000Y-60367000D03*
%TO.P,U4,23,A11_23*%
X89136000Y-60367000D03*
%TO.P,U4,24,A9_24*%
X88586000Y-60367000D03*
%TO.P,U4,25,A8_25*%
X88036000Y-60367000D03*
%TO.P,U4,26,A13_26*%
X87486000Y-60367000D03*
%TO.P,U4,27,~{WE}_27*%
%TO.N,/SRAM_~{WE}*%
X86936000Y-60367000D03*
%TO.P,U4,28,VCC_28*%
%TO.N,/SRAM_VCC*%
X86386000Y-60367000D03*
%TD*%
D18*
%TO.P,JP1,1,A_1*%
%TO.N,/CLK_48M*%
X83548532Y-41157148D03*
D19*
%TO.P,JP1,2,C_2*%
%TO.N,/CLK_IN*%
X83548532Y-42457148D03*
D20*
%TO.P,JP1,3,B_3*%
%TO.N,/CLK_16M_BUF*%
X83548532Y-43757148D03*
%TD*%
D18*
%TO.P,JP3,1,A_1*%
%TO.N,+3.3V*%
X88922400Y-64252400D03*
D19*
%TO.P,JP3,2,C_2*%
%TO.N,/SRAM_VCC*%
X88922400Y-65552400D03*
D20*
%TO.P,JP3,3,B_3*%
%TO.N,+5V*%
X88922400Y-66852400D03*
%TD*%
D21*
%TO.P,JP2,1,A_1*%
%TO.N,+3.3V*%
X88406200Y-39923800D03*
D22*
%TO.P,JP2,2,C_2*%
%TO.N,/CLK_SEL*%
X87106200Y-39923800D03*
D23*
%TO.P,JP2,3,B_3*%
%TO.N,GND*%
X85806200Y-39923800D03*
%TD*%
D24*
%TO.P,C4,1*%
%TO.N,/SRAM_VCC*%
X88107532Y-62421548D03*
%TO.P,C4,2*%
%TO.N,GND*%
X89657532Y-62421548D03*
%TD*%
D25*
%TO.N,/TDO*%
X89700131Y-58043976D03*
D26*
%TO.N,GND*%
X89904400Y-58923000D03*
%TO.N,+3.3V*%
X84841000Y-56383000D03*
X87041690Y-65019000D03*
X89922544Y-43622847D03*
X89215343Y-54947057D03*
X89826489Y-46125368D03*
%TO.N,GND*%
X91867422Y-67898578D03*
X86619000Y-64003000D03*
X91953000Y-39365000D03*
X88389000Y-56281400D03*
X87627000Y-53741400D03*
X92461000Y-64003000D03*
X80882672Y-61091026D03*
X91902200Y-71572200D03*
X84540900Y-54812900D03*
X92461000Y-58923000D03*
X81793000Y-71623000D03*
X91921767Y-45213247D03*
X82331700Y-58923700D03*
D25*
X80638201Y-43503218D03*
D26*
X90569000Y-50280348D03*
X86659400Y-66433000D03*
X85836000Y-57399000D03*
D25*
X88105812Y-45719612D03*
D26*
%TO.N,+5V*%
X89913000Y-44549800D03*
D25*
%TO.N,/TCK*%
X78745000Y-68956000D03*
X79209150Y-61114350D03*
%TO.N,/TMS*%
X83977268Y-69286068D03*
X79987448Y-67761771D03*
X88380384Y-68659984D03*
X81285000Y-59926009D03*
X86873000Y-69845000D03*
%TO.N,/TDI*%
X81285000Y-58999006D03*
X88913784Y-68126584D03*
X79587000Y-68368543D03*
X81742200Y-69803000D03*
X89413000Y-69718000D03*
%TO.N,/CLK_8M*%
X85457400Y-44472800D03*
X84715696Y-45553392D03*
%TO.N,/CLK_8M_BUF*%
X81879109Y-47236662D03*
X81105000Y-54333600D03*
X82257346Y-54296216D03*
X84768817Y-43449800D03*
X81613333Y-45556135D03*
%TO.N,/CLK_CRTC*%
X87692400Y-44191000D03*
X87974586Y-46465001D03*
%TO.N,/CLK_CRTC_BUF*%
X88418064Y-44146932D03*
X88906541Y-45623531D03*
%TO.N,/CLK_16M_BUF*%
X81742200Y-43363348D03*
%TO.N,/CLK_1M_BUF*%
X79718611Y-45105724D03*
D27*
%TO.N,/CLK_4M_BUF*%
X82656600Y-46514998D03*
%TO.N,/CLK_2M_BUF*%
X83672600Y-46514998D03*
D25*
%TO.N,/SRAM_~{WE}*%
X86936000Y-56594396D03*
%TO.N,/CLK_SEL*%
X85457400Y-43683000D03*
%TO.N,/CLK_48M*%
X81565732Y-41613348D03*
%TO.N,/SRAM_Q0*%
X90328730Y-39938800D03*
%TO.N,/SRAM_Q1*%
X90328730Y-40865803D03*
%TO.N,/SRAM_Q2*%
X90328730Y-41792806D03*
%TO.N,/SRAM_Q3*%
X90328730Y-42719809D03*
%TO.N,/TDO*%
X90245243Y-66581399D03*
%TO.N,/CLK_16M*%
X80167400Y-47485998D03*
%TO.N,/SRAM_A2*%
X81361200Y-55951200D03*
%TO.N,/SRAM_A1*%
X81279829Y-56862762D03*
%TO.N,/SRAM_A0*%
X81285000Y-58059400D03*
%TO.N,/SRAM_A3*%
X84780000Y-58342650D03*
%TO.N,/SRAM_D0*%
X89247000Y-52788028D03*
%TO.N,/SRAM_D1*%
X88404960Y-51823554D03*
%TO.N,/SRAM_D2*%
X87569414Y-51801580D03*
%TO.N,/SRAM_D3*%
X86825220Y-51834078D03*
%TO.N,/CLK_IN*%
X80894788Y-45445583D03*
%TD*%
%TO.N,GND*%
D28*
X89904400Y-58923000D02*
X89650400Y-58669000D01*
X89650400Y-58669000D02*
X88389000Y-58669000D01*
X88389000Y-58669000D02*
X88389000Y-56281400D01*
X88389000Y-59078802D02*
X88389000Y-58669000D01*
%TO.N,/TDO*%
D29*
X89947444Y-58043976D02*
X89700131Y-58043976D01*
X90556400Y-58652932D02*
X89947444Y-58043976D01*
X90556400Y-59304000D02*
X90556400Y-58652932D01*
X90556400Y-65273000D02*
X90556400Y-59304000D01*
X90245243Y-65584157D02*
X90556400Y-65273000D01*
X90245243Y-66581399D02*
X90245243Y-65584157D01*
%TO.N,/SRAM_VCC*%
D28*
X87231548Y-62421548D02*
X88107532Y-62421548D01*
X86386000Y-61576000D02*
X87231548Y-62421548D01*
X86386000Y-60367000D02*
X86386000Y-61576000D01*
%TO.N,+3.3V*%
D30*
X90675000Y-39153000D02*
X89177000Y-39153000D01*
X90841968Y-46125368D02*
X91346000Y-46629400D01*
X87808290Y-64252400D02*
X87041690Y-65019000D01*
X89741109Y-43622847D02*
X89922544Y-43622847D01*
X89922544Y-43622847D02*
X90824953Y-43622847D01*
X91105730Y-43342070D02*
X91105730Y-39583730D01*
X86364759Y-69126000D02*
X87436400Y-68054359D01*
X89826489Y-46125368D02*
X89826489Y-45562133D01*
X85094759Y-69126000D02*
X86364759Y-69126000D01*
X89826489Y-46125368D02*
X90841968Y-46125368D01*
X89826489Y-45562133D02*
X89136000Y-44871644D01*
X83063000Y-70353000D02*
X83867759Y-70353000D01*
X89177000Y-39153000D02*
X88406200Y-39923800D01*
X90775343Y-54947057D02*
X89215343Y-54947057D01*
X84841000Y-56383000D02*
X86276943Y-54947057D01*
X88922400Y-64252400D02*
X87808290Y-64252400D01*
X91105730Y-39583730D02*
X90675000Y-39153000D01*
X87436400Y-68054359D02*
X87436400Y-65413710D01*
X89136000Y-44227956D02*
X89741109Y-43622847D01*
X90824953Y-43622847D02*
X91105730Y-43342070D01*
X86276943Y-54947057D02*
X89215343Y-54947057D01*
X91346000Y-54376400D02*
X90775343Y-54947057D01*
X83867759Y-70353000D02*
X85094759Y-69126000D01*
X89136000Y-44871644D02*
X89136000Y-44227956D01*
X91346000Y-46629400D02*
X91346000Y-54376400D01*
X87436400Y-65413710D02*
X87041690Y-65019000D01*
%TO.N,GND*%
D31*
X80638201Y-43474382D02*
X80638201Y-43503218D01*
X80523000Y-70353000D02*
X81793000Y-71623000D01*
X86659400Y-66433000D02*
X82536000Y-66433000D01*
D29*
X84688600Y-40685800D02*
X83875800Y-39873000D01*
D31*
X83621800Y-55732000D02*
X84540900Y-54812900D01*
X89913000Y-53741400D02*
X90421000Y-53233400D01*
X77983000Y-40819181D02*
X80638201Y-43474382D01*
X89413000Y-71623000D02*
X90683000Y-70353000D01*
D28*
X88105812Y-45719612D02*
X89136000Y-46749800D01*
D31*
X91953000Y-45182014D02*
X91921767Y-45213247D01*
X91867422Y-67898578D02*
X91867422Y-64596578D01*
X84368000Y-57399000D02*
X85836000Y-57399000D01*
D28*
X88586000Y-60367000D02*
X88586000Y-59275802D01*
D31*
X82536000Y-66433000D02*
X82536000Y-63749000D01*
D28*
X88389000Y-59078802D02*
X88586000Y-59275802D01*
X82536000Y-60367000D02*
X82536000Y-59128000D01*
D31*
X91867422Y-64596578D02*
X92461000Y-64003000D01*
X92096000Y-63638000D02*
X92461000Y-64003000D01*
D28*
X89686000Y-60367000D02*
X89686000Y-62393080D01*
D29*
X85806200Y-39923800D02*
X85044200Y-40685800D01*
D31*
X88105812Y-45719612D02*
X88115910Y-45719612D01*
X81390672Y-63749000D02*
X80882672Y-63241000D01*
D28*
X82536000Y-60367000D02*
X82536000Y-63749000D01*
D31*
X82536000Y-63749000D02*
X84206000Y-63749000D01*
X84540900Y-54812900D02*
X85612400Y-53741400D01*
D28*
X89136000Y-46749800D02*
X89136000Y-47827000D01*
D31*
X90421000Y-50428348D02*
X90569000Y-50280348D01*
X77983000Y-40819181D02*
X77983000Y-39873000D01*
X90421000Y-53233400D02*
X90421000Y-50428348D01*
X83621800Y-56652800D02*
X83621800Y-55732000D01*
X86619000Y-64003000D02*
X84460000Y-64003000D01*
X85612400Y-53741400D02*
X87627000Y-53741400D01*
X87627000Y-53741400D02*
X89913000Y-53741400D01*
X83621800Y-56652800D02*
X84368000Y-57399000D01*
X92461000Y-58923000D02*
X92096000Y-59288000D01*
D28*
X85836000Y-47827000D02*
X85836000Y-51950400D01*
D31*
X92096000Y-59288000D02*
X92096000Y-63638000D01*
X80882672Y-61091026D02*
X80882672Y-63241000D01*
X84206000Y-63749000D02*
X84460000Y-64003000D01*
X91953000Y-39365000D02*
X91953000Y-45182014D01*
D29*
X77983000Y-39873000D02*
X83875800Y-39873000D01*
D31*
X90569000Y-50280348D02*
X90562348Y-50287000D01*
D29*
X85044200Y-40685800D02*
X84688600Y-40685800D01*
D28*
X85836000Y-51950400D02*
X87627000Y-53741400D01*
D31*
X81793000Y-71623000D02*
X89413000Y-71623000D01*
D28*
X82536000Y-59128000D02*
X82331700Y-58923700D01*
D31*
X82536000Y-63749000D02*
X81390672Y-63749000D01*
%TO.N,+5V*%
D30*
X90228399Y-67358399D02*
X90556000Y-67358399D01*
X91058400Y-55550712D02*
X91058400Y-66855999D01*
X90228399Y-67358399D02*
X93223000Y-70353000D01*
X88922400Y-66852400D02*
X89428399Y-67358399D01*
X89913000Y-44549800D02*
X90153112Y-44549800D01*
X91973000Y-46369688D02*
X91973000Y-54636112D01*
X90556000Y-67358399D02*
X91058400Y-66855999D01*
X91973000Y-54636112D02*
X91058400Y-55550712D01*
X90153112Y-44549800D02*
X91973000Y-46369688D01*
X89428399Y-67358399D02*
X90228399Y-67358399D01*
%TO.N,/TCK*%
D29*
X79035000Y-61288500D02*
X79035000Y-68666000D01*
X79035000Y-68666000D02*
X78745000Y-68956000D01*
X79209150Y-61114350D02*
X79035000Y-61288500D01*
X79035000Y-61202998D02*
X79104496Y-61133502D01*
X79035000Y-71405000D02*
X80523000Y-72893000D01*
X79035000Y-69047000D02*
X79035000Y-71405000D01*
%TO.N,/TMS*%
X80753562Y-59926009D02*
X80168000Y-60511571D01*
X79789000Y-67563323D02*
X79987448Y-67761771D01*
X79789000Y-61904224D02*
X79789000Y-67563323D01*
X79987448Y-67761771D02*
X80139000Y-67913323D01*
X80168000Y-60511571D02*
X80168000Y-61525224D01*
X81285000Y-59926009D02*
X80753562Y-59926009D01*
X83942200Y-69251000D02*
X83977268Y-69286068D01*
X81723358Y-69251000D02*
X83942200Y-69251000D01*
X81288779Y-68816421D02*
X81723358Y-69251000D01*
X88058016Y-68659984D02*
X88380384Y-68659984D01*
X80523000Y-68816421D02*
X81288779Y-68816421D01*
X80139000Y-68432421D02*
X80523000Y-68816421D01*
X86873000Y-69845000D02*
X88058016Y-68659984D01*
X80139000Y-67913323D02*
X80139000Y-68432421D01*
X80168000Y-61525224D02*
X79789000Y-61904224D01*
%TO.N,/TDI*%
X88913784Y-68126584D02*
X89413000Y-68625800D01*
X79791000Y-61369066D02*
X79412000Y-61748066D01*
X79412000Y-61748066D02*
X79412000Y-68193543D01*
X79587000Y-68426159D02*
X80123131Y-68962290D01*
X89413000Y-68625800D02*
X89413000Y-69718000D01*
X80123131Y-68962290D02*
X80135711Y-68962290D01*
X79412000Y-68193543D02*
X79587000Y-68368543D01*
X79587000Y-68368543D02*
X79587000Y-68426159D01*
X81190200Y-69251000D02*
X81742200Y-69803000D01*
X80424421Y-69251000D02*
X81190200Y-69251000D01*
X81147407Y-58999006D02*
X79791000Y-60355413D01*
X81285000Y-58999006D02*
X81147407Y-58999006D01*
X79791000Y-60355413D02*
X79791000Y-61369066D01*
X80135711Y-68962290D02*
X80424421Y-69251000D01*
%TO.N,/CLK_8M*%
X85457400Y-44811688D02*
X84715696Y-45553392D01*
X85457400Y-44472800D02*
X85457400Y-44811688D01*
%TO.N,/CLK_8M_BUF*%
X84768817Y-44517183D02*
X84768817Y-43449800D01*
X82082346Y-54121216D02*
X82082346Y-47439899D01*
X81105000Y-54333600D02*
X78762400Y-54333600D01*
X83726911Y-45559089D02*
X83723957Y-45556135D01*
X82082346Y-47439899D02*
X81879109Y-47236662D01*
X78762400Y-54333600D02*
X77983000Y-55113000D01*
X83723957Y-45556135D02*
X81613333Y-45556135D01*
X82257346Y-54296216D02*
X82082346Y-54121216D01*
X83726911Y-45559089D02*
X84768817Y-44517183D01*
%TO.N,/CLK_CRTC*%
X87553812Y-46044227D02*
X87974586Y-46465001D01*
X87584200Y-44191000D02*
X87517400Y-44257800D01*
X87692400Y-44191000D02*
X87584200Y-44191000D01*
X87692400Y-44191000D02*
X87553812Y-44329588D01*
X87553812Y-44329588D02*
X87553812Y-46044227D01*
%TO.N,/CLK_CRTC_BUF*%
X88418064Y-45135054D02*
X88906541Y-45623531D01*
X88418064Y-44146932D02*
X88418064Y-45135054D01*
%TO.N,/CLK_16M_BUF*%
X82136000Y-43757148D02*
X81742200Y-43363348D01*
X83548532Y-43757148D02*
X82136000Y-43757148D01*
%TO.N,/CLK_1M_BUF*%
X79718611Y-45757389D02*
X77983000Y-47493000D01*
X79718611Y-45105724D02*
X79718611Y-45757389D01*
%TO.N,/CLK_4M_BUF*%
X82313802Y-46514998D02*
X82144138Y-46684662D01*
X82656600Y-46514998D02*
X82313802Y-46514998D01*
X79412000Y-47130316D02*
X79412000Y-51144000D01*
X82144138Y-46684662D02*
X79857654Y-46684662D01*
X79412000Y-51144000D02*
X77983000Y-52573000D01*
X79857654Y-46684662D02*
X79412000Y-47130316D01*
%TO.N,/CLK_2M_BUF*%
X83672600Y-46514998D02*
X83170600Y-46012998D01*
X79701496Y-46307662D02*
X79035000Y-46974158D01*
X82257002Y-46012998D02*
X81962338Y-46307662D01*
X83170600Y-46012998D02*
X82257002Y-46012998D01*
X81962338Y-46307662D02*
X79701496Y-46307662D01*
X79035000Y-48981000D02*
X77983000Y-50033000D01*
X79035000Y-46974158D02*
X79035000Y-48981000D01*
%TO.N,/SRAM_~{WE}*%
X86936000Y-60367000D02*
X86936000Y-56594396D01*
%TO.N,/CLK_SEL*%
X87106200Y-41793238D02*
X87106200Y-39923800D01*
X87106200Y-41793238D02*
X85457400Y-43442038D01*
X85457400Y-43442038D02*
X85457400Y-43683000D01*
%TO.N,/CLK_48M*%
X82021932Y-41157148D02*
X81565732Y-41613348D01*
X83548532Y-41157148D02*
X82021932Y-41157148D01*
%TO.N,/SRAM_Q0*%
X87843787Y-41588809D02*
X86009400Y-43423196D01*
X86009400Y-43423196D02*
X86009400Y-45040334D01*
X84186000Y-46863734D02*
X84186000Y-47827000D01*
X90328730Y-39938800D02*
X88678721Y-41588809D01*
X86009400Y-45040334D02*
X84186000Y-46863734D01*
X88678721Y-41588809D02*
X87843787Y-41588809D01*
%TO.N,/SRAM_Q1*%
X90328730Y-40865803D02*
X89228724Y-41965809D01*
X86386400Y-45196493D02*
X84736000Y-46846892D01*
X84736000Y-46846892D02*
X84736000Y-47827000D01*
X89228724Y-41965809D02*
X87999945Y-41965809D01*
X86386400Y-43579354D02*
X86386400Y-45196493D01*
X87999945Y-41965809D02*
X86386400Y-43579354D01*
%TO.N,/SRAM_Q2*%
X86763400Y-43735512D02*
X86763400Y-45352652D01*
X86763400Y-45352652D02*
X85286000Y-46830050D01*
X89778727Y-42342809D02*
X88156103Y-42342809D01*
X88156103Y-42342809D02*
X86763400Y-43735512D01*
X85286000Y-46830050D02*
X85286000Y-47827000D01*
X90328730Y-41792806D02*
X89778727Y-42342809D01*
%TO.N,/SRAM_Q3*%
X88312261Y-42719809D02*
X90328730Y-42719809D01*
X86386000Y-46263209D02*
X87140400Y-45508810D01*
X87140400Y-45508810D02*
X87140400Y-43891670D01*
X86386000Y-47827000D02*
X86386000Y-46263209D01*
X87140400Y-43891670D02*
X88312261Y-42719809D01*
%TO.N,/CLK_16M*%
X81347799Y-47485998D02*
X81705346Y-47843545D01*
X78614592Y-57653000D02*
X81705346Y-54562246D01*
X81705346Y-54562246D02*
X81705346Y-47843545D01*
X80167400Y-47485998D02*
X81347799Y-47485998D01*
%TO.N,/SRAM_A2*%
X84186000Y-58789616D02*
X84186000Y-60367000D01*
X81361200Y-55951200D02*
X81361200Y-55964816D01*
X81361200Y-55964816D02*
X84186000Y-58789616D01*
%TO.N,/SRAM_A1*%
X81725988Y-56862762D02*
X83636000Y-58772774D01*
X81279829Y-56862762D02*
X81725988Y-56862762D01*
X83636000Y-58772774D02*
X83636000Y-60367000D01*
%TO.N,/SRAM_A0*%
X83086000Y-58755932D02*
X83086000Y-60367000D01*
X82389468Y-58059400D02*
X83086000Y-58755932D01*
X81285000Y-58059400D02*
X82389468Y-58059400D01*
%TO.N,/SRAM_A3*%
X84736000Y-58386650D02*
X84780000Y-58342650D01*
X84736000Y-60367000D02*
X84736000Y-58386650D01*
%TO.N,/SRAM_D0*%
X88586000Y-47827000D02*
X88586000Y-50865048D01*
X89435884Y-51714932D02*
X89435884Y-52599144D01*
X89435884Y-52599144D02*
X89247000Y-52788028D01*
X88586000Y-50865048D02*
X89435884Y-51714932D01*
%TO.N,/SRAM_D1*%
X88036000Y-51454594D02*
X88404960Y-51823554D01*
X88036000Y-47827000D02*
X88036000Y-51454594D01*
%TO.N,/SRAM_D2*%
X87569414Y-51801580D02*
X87486000Y-51718166D01*
X87486000Y-51718166D02*
X87486000Y-47827000D01*
%TO.N,/SRAM_D3*%
X86936000Y-51723298D02*
X86936000Y-47827000D01*
X86825220Y-51834078D02*
X86936000Y-51723298D01*
%TO.N,/CLK_IN*%
X83548532Y-42457148D02*
X81867754Y-42457148D01*
X81190200Y-43134702D02*
X81190201Y-45150170D01*
X81190201Y-45150170D02*
X80894788Y-45445583D01*
X81867754Y-42457148D02*
X81190200Y-43134702D01*
%TO.N,/SRAM_VCC*%
D30*
X89056384Y-63370400D02*
X89537736Y-63370400D01*
X89462632Y-65552400D02*
X90054400Y-64960632D01*
X89537736Y-63370400D02*
X90054400Y-63887064D01*
X90054400Y-64960632D02*
X90054400Y-63887064D01*
X88922400Y-65552400D02*
X89462632Y-65552400D01*
X88107532Y-62421548D02*
X89056384Y-63370400D01*
%TD*%
%TA.AperFunction,Conductor*%
%TO.N,GND*%
G36*
X86993231Y-70419185D02*
G01*
X87038986Y-70471989D01*
X87048665Y-70504102D01*
X87065697Y-70611639D01*
X87065697Y-70611642D01*
X87119418Y-70776978D01*
X87198347Y-70931884D01*
X87300535Y-71072533D01*
X87423467Y-71195465D01*
X87564116Y-71297653D01*
X87719019Y-71376580D01*
X87719021Y-71376581D01*
X87884358Y-71430302D01*
X87884359Y-71430302D01*
X87884362Y-71430303D01*
X88056074Y-71457500D01*
X88056075Y-71457500D01*
X88229925Y-71457500D01*
X88229926Y-71457500D01*
X88401638Y-71430303D01*
X88401641Y-71430302D01*
X88401642Y-71430302D01*
X88566978Y-71376581D01*
X88566978Y-71376580D01*
X88566981Y-71376580D01*
X88721884Y-71297653D01*
X88862533Y-71195465D01*
X88985465Y-71072533D01*
X89087653Y-70931884D01*
X89166580Y-70776981D01*
X89166582Y-70776975D01*
X89168446Y-70772478D01*
X89169891Y-70773076D01*
X89205430Y-70721093D01*
X89269786Y-70693889D01*
X89338633Y-70705796D01*
X89390114Y-70753035D01*
X89401864Y-70778761D01*
X89431904Y-70871217D01*
X89528375Y-71060550D01*
X89567728Y-71114716D01*
X90200036Y-70482407D01*
X90217075Y-70545993D01*
X90282901Y-70660007D01*
X90375993Y-70753099D01*
X90490007Y-70818925D01*
X90553590Y-70835962D01*
X89921282Y-71468269D01*
X89921282Y-71468270D01*
X89975449Y-71507624D01*
X90164784Y-71604096D01*
X90257237Y-71634135D01*
X90314913Y-71673571D01*
X90342112Y-71737930D01*
X90330198Y-71806776D01*
X90282954Y-71858253D01*
X90263374Y-71867198D01*
X90263522Y-71867554D01*
X90259024Y-71869417D01*
X90104115Y-71948347D01*
X90090122Y-71958514D01*
X89963467Y-72050535D01*
X89963465Y-72050537D01*
X89963464Y-72050537D01*
X89840537Y-72173464D01*
X89840537Y-72173465D01*
X89840535Y-72173467D01*
X89829953Y-72188032D01*
X89738347Y-72314115D01*
X89659418Y-72469021D01*
X89605697Y-72634357D01*
X89605697Y-72634360D01*
X89578500Y-72806074D01*
X89578500Y-72979925D01*
X89605697Y-73151639D01*
X89605697Y-73151642D01*
X89659418Y-73316978D01*
X89697894Y-73392490D01*
X89738347Y-73471884D01*
X89840535Y-73612533D01*
X89840537Y-73612535D01*
X89878821Y-73650819D01*
X89912306Y-73712142D01*
X89907322Y-73781834D01*
X89865450Y-73837767D01*
X89799986Y-73862184D01*
X89791140Y-73862500D01*
X89034860Y-73862500D01*
X88967821Y-73842815D01*
X88922066Y-73790011D01*
X88912122Y-73720853D01*
X88941147Y-73657297D01*
X88947179Y-73650819D01*
X88985465Y-73612533D01*
X89087653Y-73471884D01*
X89166580Y-73316981D01*
X89204399Y-73200586D01*
X89220302Y-73151642D01*
X89220302Y-73151641D01*
X89220303Y-73151638D01*
X89247500Y-72979926D01*
X89247500Y-72806074D01*
X89220303Y-72634362D01*
X89220302Y-72634358D01*
X89220302Y-72634357D01*
X89166581Y-72469021D01*
X89128107Y-72393511D01*
X89087653Y-72314116D01*
X88985465Y-72173467D01*
X88862533Y-72050535D01*
X88721884Y-71948347D01*
X88712760Y-71943698D01*
X88566978Y-71869418D01*
X88401641Y-71815697D01*
X88272854Y-71795299D01*
X88229926Y-71788500D01*
X88056074Y-71788500D01*
X87998836Y-71797565D01*
X87884360Y-71815697D01*
X87884357Y-71815697D01*
X87719021Y-71869418D01*
X87564115Y-71948347D01*
X87550122Y-71958514D01*
X87423467Y-72050535D01*
X87423465Y-72050537D01*
X87423464Y-72050537D01*
X87300537Y-72173464D01*
X87300537Y-72173465D01*
X87300535Y-72173467D01*
X87289953Y-72188032D01*
X87198347Y-72314115D01*
X87119418Y-72469021D01*
X87065697Y-72634357D01*
X87065697Y-72634360D01*
X87038500Y-72806074D01*
X87038500Y-72979925D01*
X87065697Y-73151639D01*
X87065697Y-73151642D01*
X87119418Y-73316978D01*
X87157894Y-73392490D01*
X87198347Y-73471884D01*
X87300535Y-73612533D01*
X87300537Y-73612535D01*
X87338821Y-73650819D01*
X87372306Y-73712142D01*
X87367322Y-73781834D01*
X87325450Y-73837767D01*
X87259986Y-73862184D01*
X87251140Y-73862500D01*
X86494860Y-73862500D01*
X86427821Y-73842815D01*
X86382066Y-73790011D01*
X86372122Y-73720853D01*
X86401147Y-73657297D01*
X86407179Y-73650819D01*
X86445465Y-73612533D01*
X86547653Y-73471884D01*
X86626580Y-73316981D01*
X86664399Y-73200586D01*
X86680302Y-73151642D01*
X86680302Y-73151641D01*
X86680303Y-73151638D01*
X86707500Y-72979926D01*
X86707500Y-72806074D01*
X86680303Y-72634362D01*
X86680302Y-72634358D01*
X86680302Y-72634357D01*
X86626581Y-72469021D01*
X86588107Y-72393511D01*
X86547653Y-72314116D01*
X86445465Y-72173467D01*
X86322533Y-72050535D01*
X86181884Y-71948347D01*
X86172760Y-71943698D01*
X86026978Y-71869418D01*
X85861641Y-71815697D01*
X85732854Y-71795299D01*
X85689926Y-71788500D01*
X85516074Y-71788500D01*
X85458836Y-71797565D01*
X85344360Y-71815697D01*
X85344357Y-71815697D01*
X85179021Y-71869418D01*
X85024115Y-71948347D01*
X85010122Y-71958514D01*
X84883467Y-72050535D01*
X84883465Y-72050537D01*
X84883464Y-72050537D01*
X84760537Y-72173464D01*
X84760537Y-72173465D01*
X84760535Y-72173467D01*
X84749953Y-72188032D01*
X84658347Y-72314115D01*
X84579418Y-72469021D01*
X84525697Y-72634357D01*
X84525697Y-72634360D01*
X84498500Y-72806074D01*
X84498500Y-72979925D01*
X84525697Y-73151639D01*
X84525697Y-73151642D01*
X84579418Y-73316978D01*
X84617894Y-73392490D01*
X84658347Y-73471884D01*
X84760535Y-73612533D01*
X84760537Y-73612535D01*
X84798821Y-73650819D01*
X84832306Y-73712142D01*
X84827322Y-73781834D01*
X84785450Y-73837767D01*
X84719986Y-73862184D01*
X84711140Y-73862500D01*
X83954860Y-73862500D01*
X83887821Y-73842815D01*
X83842066Y-73790011D01*
X83832122Y-73720853D01*
X83861147Y-73657297D01*
X83867179Y-73650819D01*
X83905465Y-73612533D01*
X84007653Y-73471884D01*
X84086580Y-73316981D01*
X84124399Y-73200586D01*
X84140302Y-73151642D01*
X84140302Y-73151641D01*
X84140303Y-73151638D01*
X84167500Y-72979926D01*
X84167500Y-72806074D01*
X84140303Y-72634362D01*
X84140302Y-72634358D01*
X84140302Y-72634357D01*
X84086581Y-72469021D01*
X84048107Y-72393511D01*
X84007653Y-72314116D01*
X83905465Y-72173467D01*
X83782533Y-72050535D01*
X83641884Y-71948347D01*
X83632760Y-71943698D01*
X83486978Y-71869418D01*
X83321641Y-71815697D01*
X83192854Y-71795299D01*
X83149926Y-71788500D01*
X82976074Y-71788500D01*
X82918836Y-71797565D01*
X82804360Y-71815697D01*
X82804357Y-71815697D01*
X82639021Y-71869418D01*
X82484115Y-71948347D01*
X82470122Y-71958514D01*
X82343467Y-72050535D01*
X82343465Y-72050537D01*
X82343464Y-72050537D01*
X82220537Y-72173464D01*
X82220537Y-72173465D01*
X82220535Y-72173467D01*
X82209953Y-72188032D01*
X82118347Y-72314115D01*
X82039418Y-72469021D01*
X81985697Y-72634357D01*
X81985697Y-72634360D01*
X81958500Y-72806074D01*
X81958500Y-72979925D01*
X81985697Y-73151639D01*
X81985697Y-73151642D01*
X82039418Y-73316978D01*
X82077894Y-73392490D01*
X82118347Y-73471884D01*
X82220535Y-73612533D01*
X82220537Y-73612535D01*
X82258821Y-73650819D01*
X82292306Y-73712142D01*
X82287322Y-73781834D01*
X82245450Y-73837767D01*
X82179986Y-73862184D01*
X82171140Y-73862500D01*
X81751500Y-73862500D01*
X81684461Y-73842815D01*
X81638706Y-73790011D01*
X81627500Y-73738500D01*
X81627499Y-72017936D01*
X81627499Y-72017934D01*
X81612734Y-71943699D01*
X81563102Y-71869420D01*
X81556484Y-71859515D01*
X81490905Y-71815697D01*
X81472301Y-71803266D01*
X81472299Y-71803265D01*
X81472296Y-71803264D01*
X81398071Y-71788500D01*
X81398067Y-71788500D01*
X81195800Y-71788500D01*
X81128761Y-71768815D01*
X81083006Y-71716011D01*
X81073062Y-71646853D01*
X81102087Y-71583297D01*
X81139505Y-71554015D01*
X81230554Y-71507622D01*
X81284716Y-71468270D01*
X81284717Y-71468270D01*
X80652408Y-70835962D01*
X80715993Y-70818925D01*
X80830007Y-70753099D01*
X80923099Y-70660007D01*
X80988925Y-70545993D01*
X81005962Y-70482408D01*
X81638270Y-71114717D01*
X81638270Y-71114716D01*
X81677622Y-71060554D01*
X81774093Y-70871221D01*
X81804134Y-70778762D01*
X81843571Y-70721086D01*
X81907929Y-70693887D01*
X81976776Y-70705801D01*
X82028252Y-70753044D01*
X82037197Y-70772625D01*
X82037554Y-70772478D01*
X82039417Y-70776975D01*
X82039419Y-70776978D01*
X82039420Y-70776981D01*
X82118347Y-70931884D01*
X82220535Y-71072533D01*
X82343467Y-71195465D01*
X82484116Y-71297653D01*
X82639019Y-71376580D01*
X82639021Y-71376581D01*
X82804358Y-71430302D01*
X82804359Y-71430302D01*
X82804362Y-71430303D01*
X82976074Y-71457500D01*
X82976075Y-71457500D01*
X83149925Y-71457500D01*
X83149926Y-71457500D01*
X83321638Y-71430303D01*
X83321641Y-71430302D01*
X83321642Y-71430302D01*
X83486978Y-71376581D01*
X83486978Y-71376580D01*
X83486981Y-71376580D01*
X83641884Y-71297653D01*
X83782533Y-71195465D01*
X83905465Y-71072533D01*
X84007653Y-70931884D01*
X84046640Y-70855366D01*
X84094611Y-70804573D01*
X84094667Y-70804540D01*
X84104596Y-70798808D01*
X84177529Y-70756701D01*
X84332807Y-70601422D01*
X84394127Y-70567940D01*
X84463818Y-70572924D01*
X84519752Y-70614795D01*
X84538416Y-70650787D01*
X84578151Y-70773076D01*
X84579420Y-70776981D01*
X84658347Y-70931884D01*
X84760535Y-71072533D01*
X84883467Y-71195465D01*
X85024116Y-71297653D01*
X85179019Y-71376580D01*
X85179021Y-71376581D01*
X85344358Y-71430302D01*
X85344359Y-71430302D01*
X85344362Y-71430303D01*
X85516074Y-71457500D01*
X85516075Y-71457500D01*
X85689925Y-71457500D01*
X85689926Y-71457500D01*
X85861638Y-71430303D01*
X85861641Y-71430302D01*
X85861642Y-71430302D01*
X86026978Y-71376581D01*
X86026978Y-71376580D01*
X86026981Y-71376580D01*
X86181884Y-71297653D01*
X86322533Y-71195465D01*
X86445465Y-71072533D01*
X86547653Y-70931884D01*
X86626580Y-70776981D01*
X86634358Y-70753044D01*
X86680302Y-70611642D01*
X86680302Y-70611641D01*
X86680303Y-70611638D01*
X86697335Y-70504100D01*
X86727264Y-70440968D01*
X86786575Y-70404036D01*
X86819808Y-70399500D01*
X86926192Y-70399500D01*
X86993231Y-70419185D01*
G37*
%TD.AperFunction*%
%TA.AperFunction,Conductor*%
G36*
X91798270Y-71114717D02*
G01*
X91798270Y-71114716D01*
X91837622Y-71060554D01*
X91934095Y-70871217D01*
X91989440Y-70700883D01*
X92028877Y-70643208D01*
X92093236Y-70616009D01*
X92162082Y-70627923D01*
X92213558Y-70675167D01*
X92221932Y-70691749D01*
X92288511Y-70852488D01*
X92288512Y-70852490D01*
X92403916Y-71025203D01*
X92403919Y-71025207D01*
X92550792Y-71172080D01*
X92550796Y-71172083D01*
X92723507Y-71287486D01*
X92723508Y-71287486D01*
X92723509Y-71287487D01*
X92723511Y-71287488D01*
X92748052Y-71297653D01*
X92915414Y-71366976D01*
X93119136Y-71407499D01*
X93119139Y-71407500D01*
X93119141Y-71407500D01*
X93326861Y-71407500D01*
X93326862Y-71407499D01*
X93530586Y-71366976D01*
X93722493Y-71287486D01*
X93895204Y-71172083D01*
X93901983Y-71165304D01*
X93980819Y-71086469D01*
X94042142Y-71052984D01*
X94111834Y-71057968D01*
X94167767Y-71099840D01*
X94192184Y-71165304D01*
X94192500Y-71174150D01*
X94192500Y-72071850D01*
X94172815Y-72138889D01*
X94120011Y-72184644D01*
X94050853Y-72194588D01*
X93987297Y-72165563D01*
X93980819Y-72159531D01*
X93895207Y-72073919D01*
X93895203Y-72073916D01*
X93722490Y-71958512D01*
X93722488Y-71958511D01*
X93530590Y-71879025D01*
X93530578Y-71879022D01*
X93326862Y-71838500D01*
X93326859Y-71838500D01*
X93119141Y-71838500D01*
X93119138Y-71838500D01*
X92915421Y-71879022D01*
X92915409Y-71879025D01*
X92723511Y-71958511D01*
X92723509Y-71958512D01*
X92550796Y-72073916D01*
X92550792Y-72073919D01*
X92403919Y-72220792D01*
X92403916Y-72220796D01*
X92288512Y-72393509D01*
X92288511Y-72393511D01*
X92209025Y-72585409D01*
X92209022Y-72585421D01*
X92168500Y-72789136D01*
X92168500Y-72996863D01*
X92209022Y-73200578D01*
X92209025Y-73200590D01*
X92288511Y-73392488D01*
X92288512Y-73392490D01*
X92403916Y-73565203D01*
X92403919Y-73565207D01*
X92489531Y-73650819D01*
X92523016Y-73712142D01*
X92518032Y-73781834D01*
X92476160Y-73837767D01*
X92410696Y-73862184D01*
X92401850Y-73862500D01*
X91574860Y-73862500D01*
X91507821Y-73842815D01*
X91462066Y-73790011D01*
X91452122Y-73720853D01*
X91481147Y-73657297D01*
X91487179Y-73650819D01*
X91525465Y-73612533D01*
X91627653Y-73471884D01*
X91706580Y-73316981D01*
X91744399Y-73200586D01*
X91760302Y-73151642D01*
X91760302Y-73151641D01*
X91760303Y-73151638D01*
X91787500Y-72979926D01*
X91787500Y-72806074D01*
X91760303Y-72634362D01*
X91760302Y-72634358D01*
X91760302Y-72634357D01*
X91706581Y-72469021D01*
X91668107Y-72393511D01*
X91627653Y-72314116D01*
X91525465Y-72173467D01*
X91402533Y-72050535D01*
X91261884Y-71948347D01*
X91106981Y-71869420D01*
X91106980Y-71869419D01*
X91106975Y-71869417D01*
X91102478Y-71867554D01*
X91103073Y-71866115D01*
X91051069Y-71830539D01*
X91023884Y-71766174D01*
X91035813Y-71697331D01*
X91083069Y-71645865D01*
X91108762Y-71634134D01*
X91201221Y-71604093D01*
X91390554Y-71507622D01*
X91444716Y-71468270D01*
X91444717Y-71468270D01*
X90812408Y-70835962D01*
X90875993Y-70818925D01*
X90990007Y-70753099D01*
X91083099Y-70660007D01*
X91148925Y-70545993D01*
X91165962Y-70482409D01*
X91798270Y-71114717D01*
G37*
%TD.AperFunction*%
%TA.AperFunction,Conductor*%
G36*
X79619703Y-68996002D02*
G01*
X79626181Y-69002034D01*
X79728199Y-69104052D01*
X79761684Y-69165375D01*
X79764136Y-69201462D01*
X79761281Y-69237727D01*
X80393591Y-69870037D01*
X80330007Y-69887075D01*
X80215993Y-69952901D01*
X80122901Y-70045993D01*
X80057075Y-70160007D01*
X80040037Y-70223591D01*
X79450819Y-69634373D01*
X79417334Y-69573050D01*
X79414500Y-69546692D01*
X79414500Y-69089715D01*
X79434185Y-69022676D01*
X79486989Y-68976921D01*
X79556147Y-68966977D01*
X79619703Y-68996002D01*
G37*
%TD.AperFunction*%
%TA.AperFunction,Conductor*%
G36*
X82247951Y-58458585D02*
G01*
X82268593Y-58475219D01*
X82670181Y-58876807D01*
X82703666Y-58938130D01*
X82706500Y-58964488D01*
X82706500Y-59219904D01*
X82686815Y-59286943D01*
X82685602Y-59288795D01*
X82656265Y-59332700D01*
X82656264Y-59332701D01*
X82641500Y-59406928D01*
X82641500Y-59406931D01*
X82641500Y-59406933D01*
X82641501Y-61327066D01*
X82655896Y-61399442D01*
X82656266Y-61401301D01*
X82705102Y-61474388D01*
X82725980Y-61541065D01*
X82726000Y-61543279D01*
X82726000Y-61802000D01*
X82773828Y-61802000D01*
X82773844Y-61801999D01*
X82833372Y-61795598D01*
X82833379Y-61795596D01*
X82968086Y-61745354D01*
X82968088Y-61745352D01*
X83083186Y-61659190D01*
X83083187Y-61659189D01*
X83122865Y-61606188D01*
X83178799Y-61564317D01*
X83222130Y-61556499D01*
X83301066Y-61556499D01*
X83301067Y-61556499D01*
X83301068Y-61556498D01*
X83316199Y-61553488D01*
X83336808Y-61549390D01*
X83385190Y-61549390D01*
X83420933Y-61556500D01*
X83851066Y-61556499D01*
X83866199Y-61553488D01*
X83886808Y-61549390D01*
X83935190Y-61549390D01*
X83970933Y-61556500D01*
X84401066Y-61556499D01*
X84416199Y-61553488D01*
X84436808Y-61549390D01*
X84485190Y-61549390D01*
X84520933Y-61556500D01*
X84599868Y-61556499D01*
X84666905Y-61576183D01*
X84699133Y-61606188D01*
X84738805Y-61659182D01*
X84738814Y-61659191D01*
X84853906Y-61745350D01*
X84853913Y-61745354D01*
X84988620Y-61795596D01*
X84988627Y-61795598D01*
X85048155Y-61801999D01*
X85048172Y-61802000D01*
X85096000Y-61802000D01*
X85096000Y-61543279D01*
X85115685Y-61476240D01*
X85116898Y-61474388D01*
X85121401Y-61467649D01*
X85165734Y-61401301D01*
X85180500Y-61327067D01*
X85180500Y-60723400D01*
X85200185Y-60656361D01*
X85252989Y-60610606D01*
X85304500Y-60599400D01*
X85352000Y-60599400D01*
X85419039Y-60619085D01*
X85464794Y-60671889D01*
X85476000Y-60723400D01*
X85476000Y-61802000D01*
X85523821Y-61802000D01*
X85523828Y-61801999D01*
X85547741Y-61799428D01*
X85574259Y-61799428D01*
X85598171Y-61801999D01*
X85598179Y-61802000D01*
X85646000Y-61802000D01*
X85646000Y-60723400D01*
X85665685Y-60656361D01*
X85718489Y-60610606D01*
X85770000Y-60599400D01*
X85817500Y-60599400D01*
X85884539Y-60619085D01*
X85930294Y-60671889D01*
X85941500Y-60723400D01*
X85941500Y-61509868D01*
X85941499Y-61509886D01*
X85941499Y-61517481D01*
X85941499Y-61634519D01*
X85958537Y-61698104D01*
X85958536Y-61698104D01*
X85971790Y-61747566D01*
X85971792Y-61747571D01*
X86001202Y-61798512D01*
X86030310Y-61848928D01*
X86030312Y-61848931D01*
X86120135Y-61938754D01*
X86120141Y-61938759D01*
X86871518Y-62690136D01*
X86871528Y-62690147D01*
X86875858Y-62694477D01*
X86875859Y-62694478D01*
X86958618Y-62777237D01*
X87059977Y-62835756D01*
X87173028Y-62866048D01*
X87290067Y-62866048D01*
X87367093Y-62866048D01*
X87434132Y-62885733D01*
X87466358Y-62915735D01*
X87539988Y-63014092D01*
X87650369Y-63096723D01*
X87650371Y-63096724D01*
X87779554Y-63144906D01*
X87779553Y-63144906D01*
X87779559Y-63144908D01*
X87836668Y-63151048D01*
X88072199Y-63151048D01*
X88139238Y-63170733D01*
X88159880Y-63187367D01*
X88352418Y-63379905D01*
X88385903Y-63441228D01*
X88380919Y-63510920D01*
X88339047Y-63566853D01*
X88326738Y-63574973D01*
X88235638Y-63627569D01*
X88181906Y-63668800D01*
X88181897Y-63668808D01*
X88139125Y-63711581D01*
X88077802Y-63745066D01*
X88051444Y-63747900D01*
X87741871Y-63747900D01*
X87664884Y-63768528D01*
X87613558Y-63782281D01*
X87613557Y-63782282D01*
X87498523Y-63848696D01*
X87498518Y-63848700D01*
X87010680Y-64336538D01*
X86949357Y-64370023D01*
X86947190Y-64370474D01*
X86850786Y-64389649D01*
X86850777Y-64389652D01*
X86731672Y-64438986D01*
X86731670Y-64438987D01*
X86624470Y-64510616D01*
X86624466Y-64510619D01*
X86533309Y-64601776D01*
X86533306Y-64601780D01*
X86461677Y-64708980D01*
X86461676Y-64708982D01*
X86412342Y-64828087D01*
X86412339Y-64828096D01*
X86387190Y-64954532D01*
X86387190Y-65083467D01*
X86412339Y-65209903D01*
X86412342Y-65209912D01*
X86461676Y-65329017D01*
X86461677Y-65329019D01*
X86533306Y-65436219D01*
X86533309Y-65436223D01*
X86624466Y-65527380D01*
X86624470Y-65527383D01*
X86731668Y-65599011D01*
X86731669Y-65599011D01*
X86731670Y-65599012D01*
X86731672Y-65599013D01*
X86855352Y-65650242D01*
X86909756Y-65694082D01*
X86931821Y-65760376D01*
X86931900Y-65764803D01*
X86931900Y-67794026D01*
X86912215Y-67861065D01*
X86895581Y-67881707D01*
X86192107Y-68585181D01*
X86130784Y-68618666D01*
X86104426Y-68621500D01*
X85028340Y-68621500D01*
X84938146Y-68645667D01*
X84900024Y-68655882D01*
X84857920Y-68680191D01*
X84784995Y-68722295D01*
X84784990Y-68722298D01*
X84579015Y-68928272D01*
X84517692Y-68961756D01*
X84448000Y-68956772D01*
X84403653Y-68928271D01*
X84317740Y-68842358D01*
X84317735Y-68842354D01*
X84191299Y-68769357D01*
X84191298Y-68769356D01*
X84191297Y-68769356D01*
X84050269Y-68731568D01*
X83904267Y-68731568D01*
X83763239Y-68769356D01*
X83763236Y-68769357D01*
X83636795Y-68842357D01*
X83632213Y-68845874D01*
X83567044Y-68871070D01*
X83556725Y-68871500D01*
X81931914Y-68871500D01*
X81864875Y-68851815D01*
X81844233Y-68835181D01*
X81599525Y-68590473D01*
X81599523Y-68590470D01*
X81521799Y-68512746D01*
X81521794Y-68512742D01*
X81435264Y-68462784D01*
X81435261Y-68462783D01*
X81414863Y-68457317D01*
X81338741Y-68436920D01*
X81238817Y-68436920D01*
X81231221Y-68436920D01*
X81231205Y-68436921D01*
X80731556Y-68436921D01*
X80664517Y-68417236D01*
X80643875Y-68400602D01*
X80554819Y-68311546D01*
X80521334Y-68250223D01*
X80518500Y-68223865D01*
X80518500Y-67973287D01*
X80518501Y-67973274D01*
X80518501Y-67938602D01*
X80522726Y-67906509D01*
X80524680Y-67899218D01*
X80541948Y-67834772D01*
X80541948Y-67688770D01*
X80504160Y-67547742D01*
X80463451Y-67477232D01*
X80431161Y-67421303D01*
X80431157Y-67421298D01*
X80327918Y-67318059D01*
X80230499Y-67261814D01*
X80182284Y-67211247D01*
X80168500Y-67154427D01*
X80168500Y-62112780D01*
X80188185Y-62045741D01*
X80204819Y-62025099D01*
X80318068Y-61911850D01*
X80471676Y-61758243D01*
X80494319Y-61719024D01*
X80521638Y-61671706D01*
X80531602Y-61634519D01*
X80547501Y-61575186D01*
X80547501Y-61475262D01*
X80547501Y-61467667D01*
X80547500Y-61467649D01*
X80547500Y-61349844D01*
X81846000Y-61349844D01*
X81852401Y-61409372D01*
X81852403Y-61409379D01*
X81902645Y-61544086D01*
X81902649Y-61544093D01*
X81988809Y-61659187D01*
X81988812Y-61659190D01*
X82103906Y-61745350D01*
X82103913Y-61745354D01*
X82238620Y-61795596D01*
X82238627Y-61795598D01*
X82298155Y-61801999D01*
X82298172Y-61802000D01*
X82346000Y-61802000D01*
X82346000Y-60557000D01*
X81846000Y-60557000D01*
X81846000Y-61349844D01*
X80547500Y-61349844D01*
X80547500Y-60720127D01*
X80567185Y-60653088D01*
X80583819Y-60632446D01*
X80676100Y-60540165D01*
X80815131Y-60401133D01*
X80876452Y-60367650D01*
X80946143Y-60372634D01*
X80964808Y-60381428D01*
X81070971Y-60442721D01*
X81211999Y-60480509D01*
X81212001Y-60480509D01*
X81357999Y-60480509D01*
X81358001Y-60480509D01*
X81499029Y-60442721D01*
X81563709Y-60405378D01*
X81576054Y-60398251D01*
X81605190Y-60381429D01*
X81625471Y-60369720D01*
X81728711Y-60266480D01*
X81744577Y-60239000D01*
X81795144Y-60190784D01*
X81851964Y-60177000D01*
X82346000Y-60177000D01*
X82346000Y-58932000D01*
X82298155Y-58932000D01*
X82238627Y-58938401D01*
X82238620Y-58938403D01*
X82103913Y-58988645D01*
X82103910Y-58988647D01*
X82037811Y-59038129D01*
X81972346Y-59062546D01*
X81904073Y-59047694D01*
X81854668Y-58998289D01*
X81839500Y-58938862D01*
X81839500Y-58926007D01*
X81839500Y-58926005D01*
X81801712Y-58784977D01*
X81742906Y-58683121D01*
X81728713Y-58658538D01*
X81728709Y-58658533D01*
X81720757Y-58650581D01*
X81687272Y-58589258D01*
X81692256Y-58519566D01*
X81734128Y-58463633D01*
X81799592Y-58439216D01*
X81808438Y-58438900D01*
X82180912Y-58438900D01*
X82247951Y-58458585D01*
G37*
%TD.AperFunction*%
%TA.AperFunction,Conductor*%
G36*
X92125058Y-55300037D02*
G01*
X92180992Y-55341908D01*
X92203342Y-55392025D01*
X92209023Y-55420582D01*
X92209025Y-55420590D01*
X92288511Y-55612488D01*
X92288512Y-55612490D01*
X92403916Y-55785203D01*
X92403919Y-55785207D01*
X92550792Y-55932080D01*
X92550796Y-55932083D01*
X92723507Y-56047486D01*
X92723508Y-56047486D01*
X92723509Y-56047487D01*
X92723511Y-56047488D01*
X92796414Y-56077685D01*
X92915414Y-56126976D01*
X93094658Y-56162630D01*
X93119136Y-56167499D01*
X93119139Y-56167500D01*
X93119141Y-56167500D01*
X93326861Y-56167500D01*
X93326862Y-56167499D01*
X93530586Y-56126976D01*
X93722493Y-56047486D01*
X93895204Y-55932083D01*
X93901983Y-55925304D01*
X93980819Y-55846469D01*
X94042142Y-55812984D01*
X94111834Y-55817968D01*
X94167767Y-55859840D01*
X94192184Y-55925304D01*
X94192500Y-55934150D01*
X94192500Y-56831850D01*
X94172815Y-56898889D01*
X94120011Y-56944644D01*
X94050853Y-56954588D01*
X93987297Y-56925563D01*
X93980819Y-56919531D01*
X93895207Y-56833919D01*
X93895203Y-56833916D01*
X93722490Y-56718512D01*
X93722488Y-56718511D01*
X93530590Y-56639025D01*
X93530578Y-56639022D01*
X93326862Y-56598500D01*
X93326859Y-56598500D01*
X93119141Y-56598500D01*
X93119138Y-56598500D01*
X92915421Y-56639022D01*
X92915409Y-56639025D01*
X92723511Y-56718511D01*
X92723509Y-56718512D01*
X92550796Y-56833916D01*
X92550792Y-56833919D01*
X92403919Y-56980792D01*
X92403916Y-56980796D01*
X92288512Y-57153509D01*
X92288511Y-57153511D01*
X92209025Y-57345409D01*
X92209022Y-57345421D01*
X92168500Y-57549136D01*
X92168500Y-57756863D01*
X92209022Y-57960578D01*
X92209025Y-57960590D01*
X92288511Y-58152488D01*
X92288512Y-58152490D01*
X92403916Y-58325203D01*
X92403919Y-58325207D01*
X92550792Y-58472080D01*
X92550796Y-58472083D01*
X92723507Y-58587486D01*
X92723508Y-58587486D01*
X92723509Y-58587487D01*
X92723511Y-58587488D01*
X92895035Y-58658535D01*
X92915414Y-58666976D01*
X93119136Y-58707499D01*
X93119139Y-58707500D01*
X93119141Y-58707500D01*
X93326861Y-58707500D01*
X93326862Y-58707499D01*
X93530586Y-58666976D01*
X93722493Y-58587486D01*
X93895204Y-58472083D01*
X93928387Y-58438900D01*
X93980819Y-58386469D01*
X94042142Y-58352984D01*
X94111834Y-58357968D01*
X94167767Y-58399840D01*
X94192184Y-58465304D01*
X94192500Y-58474150D01*
X94192500Y-59371850D01*
X94172815Y-59438889D01*
X94120011Y-59484644D01*
X94050853Y-59494588D01*
X93987297Y-59465563D01*
X93980819Y-59459531D01*
X93895207Y-59373919D01*
X93895203Y-59373916D01*
X93722490Y-59258512D01*
X93722488Y-59258511D01*
X93530590Y-59179025D01*
X93530578Y-59179022D01*
X93326862Y-59138500D01*
X93326859Y-59138500D01*
X93119141Y-59138500D01*
X93119138Y-59138500D01*
X92915421Y-59179022D01*
X92915409Y-59179025D01*
X92723511Y-59258511D01*
X92723509Y-59258512D01*
X92550796Y-59373916D01*
X92550792Y-59373919D01*
X92403919Y-59520792D01*
X92403916Y-59520796D01*
X92288512Y-59693509D01*
X92288511Y-59693511D01*
X92209025Y-59885409D01*
X92209022Y-59885421D01*
X92168500Y-60089136D01*
X92168500Y-60296863D01*
X92209022Y-60500578D01*
X92209025Y-60500590D01*
X92288511Y-60692488D01*
X92288512Y-60692490D01*
X92403916Y-60865203D01*
X92403919Y-60865207D01*
X92550792Y-61012080D01*
X92550796Y-61012083D01*
X92723507Y-61127486D01*
X92723508Y-61127486D01*
X92723509Y-61127487D01*
X92723511Y-61127488D01*
X92875683Y-61190519D01*
X92915414Y-61206976D01*
X93119136Y-61247499D01*
X93119139Y-61247500D01*
X93119141Y-61247500D01*
X93326861Y-61247500D01*
X93326862Y-61247499D01*
X93530586Y-61206976D01*
X93722493Y-61127486D01*
X93895204Y-61012083D01*
X93905160Y-61002127D01*
X93980819Y-60926469D01*
X94042142Y-60892984D01*
X94111834Y-60897968D01*
X94167767Y-60939840D01*
X94192184Y-61005304D01*
X94192500Y-61014150D01*
X94192500Y-61911850D01*
X94172815Y-61978889D01*
X94120011Y-62024644D01*
X94050853Y-62034588D01*
X93987297Y-62005563D01*
X93980819Y-61999531D01*
X93895207Y-61913919D01*
X93895203Y-61913916D01*
X93722490Y-61798512D01*
X93722488Y-61798511D01*
X93530590Y-61719025D01*
X93530578Y-61719022D01*
X93326862Y-61678500D01*
X93326859Y-61678500D01*
X93119141Y-61678500D01*
X93119138Y-61678500D01*
X92915421Y-61719022D01*
X92915409Y-61719025D01*
X92723511Y-61798511D01*
X92723509Y-61798512D01*
X92550796Y-61913916D01*
X92550792Y-61913919D01*
X92403919Y-62060792D01*
X92403916Y-62060796D01*
X92288512Y-62233509D01*
X92288511Y-62233511D01*
X92209025Y-62425409D01*
X92209022Y-62425421D01*
X92168500Y-62629136D01*
X92168500Y-62836863D01*
X92209022Y-63040578D01*
X92209025Y-63040590D01*
X92288511Y-63232488D01*
X92288512Y-63232490D01*
X92403916Y-63405203D01*
X92403919Y-63405207D01*
X92550792Y-63552080D01*
X92550796Y-63552083D01*
X92723507Y-63667486D01*
X92723508Y-63667486D01*
X92723509Y-63667487D01*
X92723511Y-63667488D01*
X92779425Y-63690648D01*
X92915414Y-63746976D01*
X93119136Y-63787499D01*
X93119139Y-63787500D01*
X93119141Y-63787500D01*
X93326861Y-63787500D01*
X93326862Y-63787499D01*
X93530586Y-63746976D01*
X93722493Y-63667486D01*
X93895204Y-63552083D01*
X93936367Y-63510920D01*
X93980819Y-63466469D01*
X94042142Y-63432984D01*
X94111834Y-63437968D01*
X94167767Y-63479840D01*
X94192184Y-63545304D01*
X94192500Y-63554150D01*
X94192500Y-64451850D01*
X94172815Y-64518889D01*
X94120011Y-64564644D01*
X94050853Y-64574588D01*
X93987297Y-64545563D01*
X93980819Y-64539531D01*
X93895207Y-64453919D01*
X93895203Y-64453916D01*
X93722490Y-64338512D01*
X93722488Y-64338511D01*
X93530590Y-64259025D01*
X93530578Y-64259022D01*
X93326862Y-64218500D01*
X93326859Y-64218500D01*
X93119141Y-64218500D01*
X93119138Y-64218500D01*
X92915421Y-64259022D01*
X92915409Y-64259025D01*
X92723511Y-64338511D01*
X92723509Y-64338512D01*
X92550796Y-64453916D01*
X92550792Y-64453919D01*
X92403919Y-64600792D01*
X92403916Y-64600796D01*
X92288512Y-64773509D01*
X92288511Y-64773511D01*
X92209025Y-64965409D01*
X92209022Y-64965421D01*
X92168500Y-65169136D01*
X92168500Y-65376863D01*
X92209022Y-65580578D01*
X92209025Y-65580590D01*
X92288511Y-65772488D01*
X92288512Y-65772490D01*
X92403916Y-65945203D01*
X92403919Y-65945207D01*
X92550792Y-66092080D01*
X92550796Y-66092083D01*
X92723507Y-66207486D01*
X92723508Y-66207486D01*
X92723509Y-66207487D01*
X92723511Y-66207488D01*
X92779425Y-66230648D01*
X92915414Y-66286976D01*
X93119136Y-66327499D01*
X93119139Y-66327500D01*
X93119141Y-66327500D01*
X93326861Y-66327500D01*
X93326862Y-66327499D01*
X93530586Y-66286976D01*
X93722493Y-66207486D01*
X93895204Y-66092083D01*
X93901983Y-66085304D01*
X93980819Y-66006469D01*
X94042142Y-65972984D01*
X94111834Y-65977968D01*
X94167767Y-66019840D01*
X94192184Y-66085304D01*
X94192500Y-66094150D01*
X94192500Y-66991850D01*
X94172815Y-67058889D01*
X94120011Y-67104644D01*
X94050853Y-67114588D01*
X93987297Y-67085563D01*
X93980819Y-67079531D01*
X93895207Y-66993919D01*
X93895203Y-66993916D01*
X93722490Y-66878512D01*
X93722488Y-66878511D01*
X93530590Y-66799025D01*
X93530578Y-66799022D01*
X93326862Y-66758500D01*
X93326859Y-66758500D01*
X93119141Y-66758500D01*
X93119138Y-66758500D01*
X92915421Y-66799022D01*
X92915409Y-66799025D01*
X92723511Y-66878511D01*
X92723509Y-66878512D01*
X92550796Y-66993916D01*
X92550792Y-66993919D01*
X92403919Y-67140792D01*
X92403916Y-67140796D01*
X92288512Y-67313509D01*
X92288511Y-67313511D01*
X92209025Y-67505409D01*
X92209022Y-67505421D01*
X92168500Y-67709136D01*
X92168500Y-67916863D01*
X92209022Y-68120578D01*
X92209025Y-68120590D01*
X92288511Y-68312488D01*
X92288512Y-68312489D01*
X92288514Y-68312493D01*
X92347387Y-68400602D01*
X92379525Y-68448699D01*
X92400403Y-68515376D01*
X92381919Y-68582756D01*
X92329940Y-68629447D01*
X92260970Y-68640623D01*
X92196906Y-68612738D01*
X92188742Y-68605271D01*
X91193351Y-67609880D01*
X91159866Y-67548557D01*
X91164850Y-67478865D01*
X91193351Y-67434518D01*
X91256251Y-67371618D01*
X91462101Y-67165769D01*
X91504208Y-67092836D01*
X91528519Y-67050729D01*
X91562900Y-66922418D01*
X91562900Y-55811045D01*
X91582585Y-55744006D01*
X91599219Y-55723364D01*
X91795515Y-55527068D01*
X91994046Y-55328536D01*
X92055367Y-55295053D01*
X92125058Y-55300037D01*
G37*
%TD.AperFunction*%
%TA.AperFunction,Conductor*%
G36*
X90648674Y-46649553D02*
G01*
X90669316Y-46666187D01*
X90805181Y-46802052D01*
X90838666Y-46863375D01*
X90841500Y-46889733D01*
X90841500Y-54116067D01*
X90821815Y-54183106D01*
X90805181Y-54203748D01*
X90602691Y-54406238D01*
X90541368Y-54439723D01*
X90515010Y-54442557D01*
X89675990Y-54442557D01*
X89608951Y-54422872D01*
X89607099Y-54421659D01*
X89525362Y-54367044D01*
X89525360Y-54367043D01*
X89406255Y-54317709D01*
X89406246Y-54317706D01*
X89279810Y-54292557D01*
X89279806Y-54292557D01*
X89150880Y-54292557D01*
X89150875Y-54292557D01*
X89024439Y-54317706D01*
X89024430Y-54317709D01*
X88905325Y-54367043D01*
X88905323Y-54367044D01*
X88823587Y-54421659D01*
X88756909Y-54442537D01*
X88754696Y-54442557D01*
X86210524Y-54442557D01*
X86082213Y-54476938D01*
X86082211Y-54476938D01*
X86082211Y-54476939D01*
X86041031Y-54500715D01*
X86041029Y-54500716D01*
X85967174Y-54543355D01*
X85967171Y-54543357D01*
X84809990Y-55700538D01*
X84748667Y-55734023D01*
X84746500Y-55734474D01*
X84650096Y-55753649D01*
X84650087Y-55753652D01*
X84530982Y-55802986D01*
X84530980Y-55802987D01*
X84423780Y-55874616D01*
X84423776Y-55874619D01*
X84332619Y-55965776D01*
X84332616Y-55965780D01*
X84260987Y-56072980D01*
X84260986Y-56072982D01*
X84211652Y-56192087D01*
X84211649Y-56192096D01*
X84186500Y-56318532D01*
X84186500Y-56447467D01*
X84211649Y-56573903D01*
X84211652Y-56573912D01*
X84260986Y-56693017D01*
X84260987Y-56693019D01*
X84332616Y-56800219D01*
X84332619Y-56800223D01*
X84423776Y-56891380D01*
X84423780Y-56891383D01*
X84530978Y-56963011D01*
X84530979Y-56963011D01*
X84530980Y-56963012D01*
X84530982Y-56963013D01*
X84573905Y-56980792D01*
X84650089Y-57012348D01*
X84650091Y-57012348D01*
X84650096Y-57012350D01*
X84776532Y-57037499D01*
X84776536Y-57037500D01*
X84776537Y-57037500D01*
X84905464Y-57037500D01*
X84905465Y-57037499D01*
X84947612Y-57029116D01*
X85031903Y-57012350D01*
X85031906Y-57012348D01*
X85031911Y-57012348D01*
X85151022Y-56963011D01*
X85258220Y-56891383D01*
X85349383Y-56800220D01*
X85421011Y-56693022D01*
X85470348Y-56573911D01*
X85489526Y-56477496D01*
X85521909Y-56415589D01*
X85523405Y-56414065D01*
X86449595Y-55487876D01*
X86510918Y-55454391D01*
X86537276Y-55451557D01*
X88754696Y-55451557D01*
X88821735Y-55471242D01*
X88823587Y-55472455D01*
X88865834Y-55500683D01*
X88905321Y-55527068D01*
X88905322Y-55527068D01*
X88905323Y-55527069D01*
X88905325Y-55527070D01*
X88984728Y-55559959D01*
X89024432Y-55576405D01*
X89024434Y-55576405D01*
X89024439Y-55576407D01*
X89150875Y-55601556D01*
X89150879Y-55601557D01*
X89150880Y-55601557D01*
X89279807Y-55601557D01*
X89279808Y-55601556D01*
X89321955Y-55593173D01*
X89406246Y-55576407D01*
X89406249Y-55576405D01*
X89406254Y-55576405D01*
X89525365Y-55527068D01*
X89589382Y-55484293D01*
X89607099Y-55472455D01*
X89673777Y-55451577D01*
X89675990Y-55451557D01*
X90429900Y-55451557D01*
X90496939Y-55471242D01*
X90542694Y-55524046D01*
X90553900Y-55575557D01*
X90553900Y-57814376D01*
X90534215Y-57881415D01*
X90481411Y-57927170D01*
X90412253Y-57937114D01*
X90348697Y-57908089D01*
X90342219Y-57902057D01*
X90258190Y-57818028D01*
X90258188Y-57818025D01*
X90180465Y-57740302D01*
X90180463Y-57740300D01*
X90180460Y-57740298D01*
X90174014Y-57735352D01*
X90175714Y-57733136D01*
X90150909Y-57708325D01*
X90148789Y-57709953D01*
X90143844Y-57703508D01*
X90143842Y-57703505D01*
X90040602Y-57600265D01*
X90040601Y-57600264D01*
X90040598Y-57600262D01*
X89914162Y-57527265D01*
X89914161Y-57527264D01*
X89914160Y-57527264D01*
X89773132Y-57489476D01*
X89627130Y-57489476D01*
X89486102Y-57527264D01*
X89486099Y-57527265D01*
X89359663Y-57600262D01*
X89359658Y-57600266D01*
X89256421Y-57703503D01*
X89256417Y-57703508D01*
X89183420Y-57829944D01*
X89183419Y-57829947D01*
X89145631Y-57970975D01*
X89145631Y-58116977D01*
X89158416Y-58164689D01*
X89183419Y-58258004D01*
X89183420Y-58258007D01*
X89256417Y-58384443D01*
X89256419Y-58384446D01*
X89256420Y-58384447D01*
X89359660Y-58487687D01*
X89359661Y-58487688D01*
X89359663Y-58487689D01*
X89386375Y-58503111D01*
X89486102Y-58560688D01*
X89627130Y-58598476D01*
X89627132Y-58598476D01*
X89773129Y-58598476D01*
X89773132Y-58598476D01*
X89855502Y-58576405D01*
X89925348Y-58578068D01*
X89975273Y-58608499D01*
X90095966Y-58729192D01*
X90129451Y-58790515D01*
X90124467Y-58860207D01*
X90082595Y-58916140D01*
X90017131Y-58940557D01*
X89991168Y-58938468D01*
X89991087Y-58939231D01*
X89923844Y-58932000D01*
X89876000Y-58932000D01*
X89876000Y-61320527D01*
X89904698Y-61373084D01*
X89907532Y-61399442D01*
X89907532Y-62297548D01*
X89887847Y-62364587D01*
X89835043Y-62410342D01*
X89783532Y-62421548D01*
X89531532Y-62421548D01*
X89464493Y-62401863D01*
X89418738Y-62349059D01*
X89407532Y-62297548D01*
X89407532Y-61440548D01*
X89427217Y-61373509D01*
X89480021Y-61327754D01*
X89486121Y-61326426D01*
X89496000Y-61316548D01*
X89496000Y-60694762D01*
X89515685Y-60627723D01*
X89532319Y-60607081D01*
X89540000Y-60599400D01*
X89540000Y-60142200D01*
X89532319Y-60134519D01*
X89498834Y-60073196D01*
X89496000Y-60046838D01*
X89496000Y-58932000D01*
X89448167Y-58932000D01*
X89424253Y-58934571D01*
X89397747Y-58934571D01*
X89373832Y-58932000D01*
X89326000Y-58932000D01*
X89326000Y-60018200D01*
X89306315Y-60085239D01*
X89253511Y-60130994D01*
X89202000Y-60142200D01*
X89070000Y-60142200D01*
X89002961Y-60122515D01*
X88957206Y-60069711D01*
X88946000Y-60018200D01*
X88946000Y-58932000D01*
X88898167Y-58932000D01*
X88874253Y-58934571D01*
X88847747Y-58934571D01*
X88823832Y-58932000D01*
X88776000Y-58932000D01*
X88776000Y-60018200D01*
X88756315Y-60085239D01*
X88703511Y-60130994D01*
X88652000Y-60142200D01*
X88520000Y-60142200D01*
X88452961Y-60122515D01*
X88407206Y-60069711D01*
X88396000Y-60018200D01*
X88396000Y-58932000D01*
X88348167Y-58932000D01*
X88324253Y-58934571D01*
X88297747Y-58934571D01*
X88273832Y-58932000D01*
X88226000Y-58932000D01*
X88226000Y-60018200D01*
X88206315Y-60085239D01*
X88153511Y-60130994D01*
X88102000Y-60142200D01*
X87970000Y-60142200D01*
X87902961Y-60122515D01*
X87857206Y-60069711D01*
X87846000Y-60018200D01*
X87846000Y-58932000D01*
X87798167Y-58932000D01*
X87774253Y-58934571D01*
X87747747Y-58934571D01*
X87723832Y-58932000D01*
X87676000Y-58932000D01*
X87676000Y-60018200D01*
X87656315Y-60085239D01*
X87603511Y-60130994D01*
X87552000Y-60142200D01*
X87504499Y-60142200D01*
X87437460Y-60122515D01*
X87391705Y-60069711D01*
X87380499Y-60018200D01*
X87380499Y-59406936D01*
X87380499Y-59406934D01*
X87365734Y-59332699D01*
X87365733Y-59332697D01*
X87365732Y-59332695D01*
X87336398Y-59288794D01*
X87315520Y-59222117D01*
X87315500Y-59219903D01*
X87315500Y-57050440D01*
X87335185Y-56983401D01*
X87351819Y-56962759D01*
X87361562Y-56953016D01*
X87379711Y-56934867D01*
X87452712Y-56808425D01*
X87490500Y-56667397D01*
X87490500Y-56521395D01*
X87452712Y-56380367D01*
X87379711Y-56253925D01*
X87276471Y-56150685D01*
X87276470Y-56150684D01*
X87276467Y-56150682D01*
X87150031Y-56077685D01*
X87150030Y-56077684D01*
X87150029Y-56077684D01*
X87009001Y-56039896D01*
X86862999Y-56039896D01*
X86721971Y-56077684D01*
X86721968Y-56077685D01*
X86595532Y-56150682D01*
X86595527Y-56150686D01*
X86492290Y-56253923D01*
X86492286Y-56253928D01*
X86419289Y-56380364D01*
X86419288Y-56380367D01*
X86381500Y-56521395D01*
X86381500Y-56667397D01*
X86417091Y-56800223D01*
X86419288Y-56808424D01*
X86419289Y-56808427D01*
X86492286Y-56934863D01*
X86492290Y-56934868D01*
X86520181Y-56962759D01*
X86553666Y-57024082D01*
X86556500Y-57050440D01*
X86556500Y-58956829D01*
X86536815Y-59023868D01*
X86484011Y-59069623D01*
X86414853Y-59079567D01*
X86358189Y-59056096D01*
X86268088Y-58988646D01*
X86268086Y-58988645D01*
X86133379Y-58938403D01*
X86133372Y-58938401D01*
X86073844Y-58932000D01*
X86026000Y-58932000D01*
X86026000Y-59190721D01*
X86006315Y-59257760D01*
X86005102Y-59259612D01*
X85956265Y-59332699D01*
X85956264Y-59332703D01*
X85941500Y-59406928D01*
X85941500Y-60018200D01*
X85921815Y-60085239D01*
X85869011Y-60130994D01*
X85817500Y-60142200D01*
X85770000Y-60142200D01*
X85702961Y-60122515D01*
X85657206Y-60069711D01*
X85646000Y-60018200D01*
X85646000Y-58932000D01*
X85598167Y-58932000D01*
X85574253Y-58934571D01*
X85547747Y-58934571D01*
X85523832Y-58932000D01*
X85476000Y-58932000D01*
X85476000Y-60018200D01*
X85456315Y-60085239D01*
X85403511Y-60130994D01*
X85352000Y-60142200D01*
X85304499Y-60142200D01*
X85237460Y-60122515D01*
X85191705Y-60069711D01*
X85180499Y-60018200D01*
X85180499Y-59406936D01*
X85180499Y-59406934D01*
X85165734Y-59332699D01*
X85165733Y-59332697D01*
X85165732Y-59332695D01*
X85136398Y-59288794D01*
X85115520Y-59222117D01*
X85115500Y-59219903D01*
X85115500Y-58842694D01*
X85135185Y-58775655D01*
X85151819Y-58755013D01*
X85177640Y-58729192D01*
X85223711Y-58683121D01*
X85296712Y-58556679D01*
X85334500Y-58415651D01*
X85334500Y-58269649D01*
X85296712Y-58128621D01*
X85223711Y-58002179D01*
X85120471Y-57898939D01*
X85120470Y-57898938D01*
X85120467Y-57898936D01*
X84994031Y-57825939D01*
X84994030Y-57825938D01*
X84994029Y-57825938D01*
X84853001Y-57788150D01*
X84706999Y-57788150D01*
X84565971Y-57825938D01*
X84565968Y-57825939D01*
X84439532Y-57898936D01*
X84439527Y-57898940D01*
X84336288Y-58002179D01*
X84270300Y-58116474D01*
X84219732Y-58164689D01*
X84151125Y-58177911D01*
X84086261Y-58151943D01*
X84075232Y-58142154D01*
X81952019Y-56018941D01*
X81918534Y-55957618D01*
X81915700Y-55931260D01*
X81915700Y-55878201D01*
X81915700Y-55878199D01*
X81877912Y-55737171D01*
X81841411Y-55673950D01*
X81804913Y-55610732D01*
X81804909Y-55610727D01*
X81701672Y-55507490D01*
X81701667Y-55507486D01*
X81584940Y-55440094D01*
X81536724Y-55389527D01*
X81523501Y-55320920D01*
X81549469Y-55256055D01*
X81559253Y-55245032D01*
X81928155Y-54876129D01*
X81928160Y-54876126D01*
X81938363Y-54865922D01*
X81938365Y-54865922D01*
X81951716Y-54852570D01*
X82013036Y-54819085D01*
X82071486Y-54820475D01*
X82184345Y-54850716D01*
X82184348Y-54850716D01*
X82330345Y-54850716D01*
X82330347Y-54850716D01*
X82471375Y-54812928D01*
X82597817Y-54739927D01*
X82701057Y-54636687D01*
X82774058Y-54510245D01*
X82811846Y-54369217D01*
X82811846Y-54223215D01*
X82774058Y-54082187D01*
X82715039Y-53979962D01*
X82701059Y-53955748D01*
X82701055Y-53955743D01*
X82597818Y-53852506D01*
X82597813Y-53852502D01*
X82523846Y-53809797D01*
X82475630Y-53759230D01*
X82461846Y-53702410D01*
X82461846Y-48156408D01*
X82481531Y-48089369D01*
X82534335Y-48043614D01*
X82603493Y-48033670D01*
X82667049Y-48062695D01*
X82673527Y-48068727D01*
X82689681Y-48084881D01*
X82723166Y-48146204D01*
X82726000Y-48172562D01*
X82726000Y-49262000D01*
X82773821Y-49262000D01*
X82773828Y-49261999D01*
X82797741Y-49259428D01*
X82824259Y-49259428D01*
X82848171Y-49261999D01*
X82848179Y-49262000D01*
X82896000Y-49262000D01*
X82896000Y-48175800D01*
X82915685Y-48108761D01*
X82968489Y-48063006D01*
X83020000Y-48051800D01*
X83152000Y-48051800D01*
X83219039Y-48071485D01*
X83264794Y-48124289D01*
X83276000Y-48175800D01*
X83276000Y-49262000D01*
X83323821Y-49262000D01*
X83323828Y-49261999D01*
X83347741Y-49259428D01*
X83374259Y-49259428D01*
X83398171Y-49261999D01*
X83398179Y-49262000D01*
X83446000Y-49262000D01*
X83446000Y-48175800D01*
X83465685Y-48108761D01*
X83518489Y-48063006D01*
X83570000Y-48051800D01*
X83617501Y-48051800D01*
X83684540Y-48071485D01*
X83730295Y-48124289D01*
X83741501Y-48175800D01*
X83741501Y-48787066D01*
X83754176Y-48850793D01*
X83756266Y-48861301D01*
X83805102Y-48934388D01*
X83825980Y-49001065D01*
X83826000Y-49003279D01*
X83826000Y-49262000D01*
X83873828Y-49262000D01*
X83873844Y-49261999D01*
X83933372Y-49255598D01*
X83933379Y-49255596D01*
X84068086Y-49205354D01*
X84068088Y-49205352D01*
X84183186Y-49119190D01*
X84183187Y-49119189D01*
X84222865Y-49066188D01*
X84278799Y-49024317D01*
X84322130Y-49016499D01*
X84401066Y-49016499D01*
X84401067Y-49016499D01*
X84401068Y-49016498D01*
X84416199Y-49013488D01*
X84436808Y-49009390D01*
X84485190Y-49009390D01*
X84520933Y-49016500D01*
X84951066Y-49016499D01*
X84966199Y-49013488D01*
X84986808Y-49009390D01*
X85035190Y-49009390D01*
X85070933Y-49016500D01*
X85149868Y-49016499D01*
X85216905Y-49036183D01*
X85249133Y-49066188D01*
X85288805Y-49119182D01*
X85288814Y-49119191D01*
X85403906Y-49205350D01*
X85403913Y-49205354D01*
X85538620Y-49255596D01*
X85538627Y-49255598D01*
X85598155Y-49261999D01*
X85598172Y-49262000D01*
X85646000Y-49262000D01*
X85646000Y-49003279D01*
X85648550Y-48994593D01*
X85647262Y-48985632D01*
X85664034Y-48941860D01*
X85665685Y-48936240D01*
X85666438Y-48935587D01*
X85666898Y-48934388D01*
X85710336Y-48869379D01*
X85715734Y-48861301D01*
X85715734Y-48861299D01*
X85720409Y-48850015D01*
X85723229Y-48851183D01*
X85746762Y-48806190D01*
X85807475Y-48771611D01*
X85877245Y-48775347D01*
X85933920Y-48816209D01*
X85949715Y-48850793D01*
X85951592Y-48850016D01*
X85956266Y-48861301D01*
X86005102Y-48934388D01*
X86008139Y-48944088D01*
X86014794Y-48951768D01*
X86018402Y-48976865D01*
X86025980Y-49001065D01*
X86026000Y-49003279D01*
X86026000Y-49262000D01*
X86073828Y-49262000D01*
X86073844Y-49261999D01*
X86133372Y-49255598D01*
X86133379Y-49255596D01*
X86268086Y-49205354D01*
X86268088Y-49205353D01*
X86358189Y-49137904D01*
X86423653Y-49113487D01*
X86491926Y-49128338D01*
X86541332Y-49177743D01*
X86556500Y-49237171D01*
X86556500Y-51277350D01*
X86536815Y-51344389D01*
X86494501Y-51384736D01*
X86484755Y-51390362D01*
X86484746Y-51390369D01*
X86381510Y-51493605D01*
X86381506Y-51493610D01*
X86308509Y-51620046D01*
X86308508Y-51620049D01*
X86270720Y-51761077D01*
X86270720Y-51907078D01*
X86308508Y-52048106D01*
X86308509Y-52048109D01*
X86381506Y-52174545D01*
X86381508Y-52174548D01*
X86381509Y-52174549D01*
X86484749Y-52277789D01*
X86611191Y-52350790D01*
X86752219Y-52388578D01*
X86752221Y-52388578D01*
X86898219Y-52388578D01*
X86898221Y-52388578D01*
X87039249Y-52350790D01*
X87163462Y-52279075D01*
X87231361Y-52262603D01*
X87287460Y-52279075D01*
X87355385Y-52318292D01*
X87496413Y-52356080D01*
X87496415Y-52356080D01*
X87642413Y-52356080D01*
X87642415Y-52356080D01*
X87783443Y-52318292D01*
X87909885Y-52245291D01*
X87909885Y-52245290D01*
X87911568Y-52244319D01*
X87979468Y-52227846D01*
X88045495Y-52250699D01*
X88061249Y-52264025D01*
X88064489Y-52267265D01*
X88064490Y-52267266D01*
X88064492Y-52267267D01*
X88084946Y-52279076D01*
X88190931Y-52340266D01*
X88331959Y-52378054D01*
X88331961Y-52378054D01*
X88477958Y-52378054D01*
X88477961Y-52378054D01*
X88618989Y-52340266D01*
X88618993Y-52340263D01*
X88621137Y-52339689D01*
X88690987Y-52341352D01*
X88748850Y-52380514D01*
X88776354Y-52444743D01*
X88764768Y-52513645D01*
X88760619Y-52521463D01*
X88730288Y-52573998D01*
X88730288Y-52573999D01*
X88692500Y-52715027D01*
X88692500Y-52861029D01*
X88697742Y-52880590D01*
X88730288Y-53002056D01*
X88730289Y-53002059D01*
X88803286Y-53128495D01*
X88803288Y-53128498D01*
X88803289Y-53128499D01*
X88906529Y-53231739D01*
X89032971Y-53304740D01*
X89173999Y-53342528D01*
X89174001Y-53342528D01*
X89319999Y-53342528D01*
X89320001Y-53342528D01*
X89461029Y-53304740D01*
X89587471Y-53231739D01*
X89690711Y-53128499D01*
X89763712Y-53002057D01*
X89801500Y-52861029D01*
X89801500Y-52717246D01*
X89805725Y-52685152D01*
X89807947Y-52676859D01*
X89815384Y-52649106D01*
X89815384Y-51664970D01*
X89789522Y-51568450D01*
X89746312Y-51493607D01*
X89739562Y-51481916D01*
X89739561Y-51481915D01*
X89739560Y-51481913D01*
X89668903Y-51411256D01*
X89668902Y-51411255D01*
X89664572Y-51406925D01*
X89664561Y-51406915D01*
X89001819Y-50744173D01*
X88968334Y-50682850D01*
X88965500Y-50656492D01*
X88965500Y-48974096D01*
X88985185Y-48907057D01*
X88986398Y-48905205D01*
X89010341Y-48869372D01*
X89015734Y-48861301D01*
X89015734Y-48861299D01*
X89015735Y-48861299D01*
X89030499Y-48787071D01*
X89030500Y-48787068D01*
X89030500Y-48175800D01*
X89050185Y-48108761D01*
X89102989Y-48063006D01*
X89154500Y-48051800D01*
X89202000Y-48051800D01*
X89269039Y-48071485D01*
X89314794Y-48124289D01*
X89326000Y-48175800D01*
X89326000Y-49262000D01*
X89373821Y-49262000D01*
X89373828Y-49261999D01*
X89397741Y-49259428D01*
X89424259Y-49259428D01*
X89448171Y-49261999D01*
X89448179Y-49262000D01*
X89496000Y-49262000D01*
X89876000Y-49262000D01*
X89923828Y-49262000D01*
X89923844Y-49261999D01*
X89983372Y-49255598D01*
X89983379Y-49255596D01*
X90118086Y-49205354D01*
X90118093Y-49205350D01*
X90233187Y-49119190D01*
X90233190Y-49119187D01*
X90319350Y-49004093D01*
X90319354Y-49004086D01*
X90369596Y-48869379D01*
X90369598Y-48869372D01*
X90375999Y-48809844D01*
X90376000Y-48809827D01*
X90376000Y-48017000D01*
X89876000Y-48017000D01*
X89876000Y-49262000D01*
X89496000Y-49262000D01*
X89496000Y-48172562D01*
X89502436Y-48133132D01*
X89529714Y-48051800D01*
X89565400Y-48051800D01*
X89565400Y-47945397D01*
X89571836Y-47926208D01*
X89573292Y-47924119D01*
X89585085Y-47883961D01*
X89637889Y-47838206D01*
X89685054Y-47827945D01*
X89686000Y-47827000D01*
X89686000Y-47761000D01*
X89705685Y-47693961D01*
X89758489Y-47648206D01*
X89810000Y-47637000D01*
X90376000Y-47637000D01*
X90376000Y-46844172D01*
X90375999Y-46844155D01*
X90369598Y-46784626D01*
X90369068Y-46782382D01*
X90369164Y-46780588D01*
X90368769Y-46776913D01*
X90369364Y-46776848D01*
X90372809Y-46712613D01*
X90413676Y-46655942D01*
X90478695Y-46630361D01*
X90489745Y-46629868D01*
X90581635Y-46629868D01*
X90648674Y-46649553D01*
G37*
%TD.AperFunction*%
%TA.AperFunction,Conductor*%
G36*
X92468889Y-38923185D02*
G01*
X92514644Y-38975989D01*
X92524588Y-39045147D01*
X92495563Y-39108703D01*
X92489531Y-39115181D01*
X92403919Y-39200792D01*
X92403916Y-39200796D01*
X92288514Y-39373507D01*
X92288511Y-39373511D01*
X92209025Y-39565409D01*
X92209022Y-39565421D01*
X92168500Y-39769136D01*
X92168500Y-39976863D01*
X92209022Y-40180578D01*
X92209025Y-40180590D01*
X92288511Y-40372488D01*
X92288512Y-40372490D01*
X92403916Y-40545203D01*
X92403919Y-40545207D01*
X92550792Y-40692080D01*
X92550796Y-40692083D01*
X92723507Y-40807486D01*
X92723508Y-40807486D01*
X92723509Y-40807487D01*
X92723511Y-40807488D01*
X92915409Y-40886974D01*
X92915414Y-40886976D01*
X93102194Y-40924129D01*
X93119136Y-40927499D01*
X93119139Y-40927500D01*
X93119141Y-40927500D01*
X93326861Y-40927500D01*
X93326862Y-40927499D01*
X93530586Y-40886976D01*
X93722493Y-40807486D01*
X93895204Y-40692083D01*
X93922986Y-40664301D01*
X93980819Y-40606469D01*
X94042142Y-40572984D01*
X94111834Y-40577968D01*
X94167767Y-40619840D01*
X94192184Y-40685304D01*
X94192500Y-40694150D01*
X94192500Y-41591850D01*
X94172815Y-41658889D01*
X94120011Y-41704644D01*
X94050853Y-41714588D01*
X93987297Y-41685563D01*
X93980819Y-41679531D01*
X93895207Y-41593919D01*
X93895203Y-41593916D01*
X93722490Y-41478512D01*
X93722488Y-41478511D01*
X93530590Y-41399025D01*
X93530578Y-41399022D01*
X93326862Y-41358500D01*
X93326859Y-41358500D01*
X93119141Y-41358500D01*
X93119138Y-41358500D01*
X92915421Y-41399022D01*
X92915409Y-41399025D01*
X92723511Y-41478511D01*
X92723509Y-41478512D01*
X92550796Y-41593916D01*
X92550792Y-41593919D01*
X92403919Y-41740792D01*
X92403916Y-41740796D01*
X92288512Y-41913509D01*
X92288511Y-41913511D01*
X92209025Y-42105409D01*
X92209022Y-42105421D01*
X92168500Y-42309136D01*
X92168500Y-42516863D01*
X92209022Y-42720578D01*
X92209025Y-42720590D01*
X92288511Y-42912488D01*
X92288512Y-42912490D01*
X92403916Y-43085203D01*
X92403919Y-43085207D01*
X92550792Y-43232080D01*
X92550796Y-43232083D01*
X92723507Y-43347486D01*
X92723508Y-43347486D01*
X92723509Y-43347487D01*
X92723511Y-43347488D01*
X92850686Y-43400165D01*
X92915414Y-43426976D01*
X93119136Y-43467499D01*
X93119139Y-43467500D01*
X93119141Y-43467500D01*
X93326861Y-43467500D01*
X93326862Y-43467499D01*
X93530586Y-43426976D01*
X93722493Y-43347486D01*
X93895204Y-43232083D01*
X93932634Y-43194653D01*
X93980819Y-43146469D01*
X94042142Y-43112984D01*
X94111834Y-43117968D01*
X94167767Y-43159840D01*
X94192184Y-43225304D01*
X94192500Y-43234150D01*
X94192500Y-44131850D01*
X94172815Y-44198889D01*
X94120011Y-44244644D01*
X94050853Y-44254588D01*
X93987297Y-44225563D01*
X93980819Y-44219531D01*
X93895207Y-44133919D01*
X93895203Y-44133916D01*
X93722490Y-44018512D01*
X93722488Y-44018511D01*
X93530590Y-43939025D01*
X93530578Y-43939022D01*
X93326862Y-43898500D01*
X93326859Y-43898500D01*
X93119141Y-43898500D01*
X93119138Y-43898500D01*
X92915421Y-43939022D01*
X92915409Y-43939025D01*
X92723511Y-44018511D01*
X92723509Y-44018512D01*
X92550796Y-44133916D01*
X92550792Y-44133919D01*
X92403919Y-44280792D01*
X92403916Y-44280796D01*
X92288512Y-44453509D01*
X92288511Y-44453511D01*
X92209025Y-44645409D01*
X92209022Y-44645421D01*
X92168500Y-44849136D01*
X92168500Y-45056863D01*
X92209022Y-45260578D01*
X92209025Y-45260590D01*
X92288511Y-45452488D01*
X92288512Y-45452490D01*
X92403916Y-45625203D01*
X92403919Y-45625207D01*
X92550792Y-45772080D01*
X92550796Y-45772083D01*
X92723507Y-45887486D01*
X92723508Y-45887486D01*
X92723509Y-45887487D01*
X92723511Y-45887488D01*
X92870299Y-45948289D01*
X92915414Y-45966976D01*
X93119136Y-46007499D01*
X93119139Y-46007500D01*
X93119141Y-46007500D01*
X93326861Y-46007500D01*
X93326862Y-46007499D01*
X93530586Y-45966976D01*
X93722493Y-45887486D01*
X93895204Y-45772083D01*
X93910192Y-45757095D01*
X93980819Y-45686469D01*
X94042142Y-45652984D01*
X94111834Y-45657968D01*
X94167767Y-45699840D01*
X94192184Y-45765304D01*
X94192500Y-45774150D01*
X94192500Y-46671850D01*
X94172815Y-46738889D01*
X94120011Y-46784644D01*
X94050853Y-46794588D01*
X93987297Y-46765563D01*
X93980819Y-46759531D01*
X93895207Y-46673919D01*
X93895203Y-46673916D01*
X93722490Y-46558512D01*
X93722488Y-46558511D01*
X93530590Y-46479025D01*
X93530578Y-46479022D01*
X93326862Y-46438500D01*
X93326859Y-46438500D01*
X93119141Y-46438500D01*
X93119138Y-46438500D01*
X92915421Y-46479022D01*
X92915409Y-46479025D01*
X92723511Y-46558511D01*
X92723504Y-46558515D01*
X92670390Y-46594005D01*
X92603713Y-46614883D01*
X92536333Y-46596398D01*
X92489643Y-46544419D01*
X92477500Y-46490903D01*
X92477500Y-46303271D01*
X92477500Y-46303269D01*
X92443119Y-46174958D01*
X92376700Y-46059918D01*
X92282770Y-45965988D01*
X91493417Y-45176635D01*
X90655811Y-44339028D01*
X90622326Y-44277705D01*
X90627310Y-44208013D01*
X90669182Y-44152080D01*
X90734646Y-44127663D01*
X90743492Y-44127347D01*
X90891369Y-44127347D01*
X90891372Y-44127347D01*
X91019683Y-44092966D01*
X91076896Y-44059934D01*
X91134723Y-44026548D01*
X91509431Y-43651840D01*
X91564516Y-43556429D01*
X91575849Y-43536800D01*
X91610230Y-43408489D01*
X91610230Y-39517311D01*
X91575849Y-39389000D01*
X91566904Y-39373507D01*
X91509431Y-39273960D01*
X91350652Y-39115181D01*
X91317167Y-39053858D01*
X91322151Y-38984166D01*
X91364023Y-38928233D01*
X91429487Y-38903816D01*
X91438333Y-38903500D01*
X92401850Y-38903500D01*
X92468889Y-38923185D01*
G37*
%TD.AperFunction*%
%TA.AperFunction,Conductor*%
G36*
X88138515Y-45392646D02*
G01*
X88144993Y-45398678D01*
X88192110Y-45445795D01*
X88192116Y-45445800D01*
X88315722Y-45569406D01*
X88324068Y-45584691D01*
X88336467Y-45596923D01*
X88341622Y-45616838D01*
X88349207Y-45630729D01*
X88348343Y-45642803D01*
X88352041Y-45657087D01*
X88352041Y-45696532D01*
X88377650Y-45792108D01*
X88384273Y-45816824D01*
X88382610Y-45886674D01*
X88343447Y-45944536D01*
X88279219Y-45972040D01*
X88210316Y-45960453D01*
X88202499Y-45956305D01*
X88188615Y-45948289D01*
X88047580Y-45910499D01*
X88041121Y-45909649D01*
X88020592Y-45900566D01*
X87998625Y-45895944D01*
X87989258Y-45886703D01*
X87977226Y-45881380D01*
X87964865Y-45862639D01*
X87948886Y-45846875D01*
X87946002Y-45834039D01*
X87938757Y-45823054D01*
X87933312Y-45786711D01*
X87933312Y-45486359D01*
X87952997Y-45419320D01*
X88005801Y-45373565D01*
X88074959Y-45363621D01*
X88138515Y-45392646D01*
G37*
%TD.AperFunction*%
%TA.AperFunction,Conductor*%
G36*
X84946097Y-38923185D02*
G01*
X84991852Y-38975989D01*
X85001796Y-39045147D01*
X84977434Y-39102987D01*
X84968760Y-39114289D01*
X84902932Y-39228306D01*
X84902927Y-39228316D01*
X84852484Y-39350097D01*
X84818407Y-39477271D01*
X84801200Y-39607966D01*
X84801200Y-40239633D01*
X84818407Y-40370328D01*
X84852482Y-40497497D01*
X84852484Y-40497502D01*
X84867556Y-40533889D01*
X85619519Y-39781927D01*
X85680842Y-39748442D01*
X85750534Y-39753426D01*
X85806467Y-39795298D01*
X85830884Y-39860762D01*
X85831200Y-39869608D01*
X85831200Y-40225990D01*
X85811515Y-40293029D01*
X85794881Y-40313671D01*
X85162168Y-40946383D01*
X85162168Y-40946384D01*
X85246693Y-41011242D01*
X85360699Y-41077064D01*
X85360716Y-41077072D01*
X85482497Y-41127515D01*
X85609671Y-41161592D01*
X85740366Y-41178799D01*
X85740381Y-41178800D01*
X86356200Y-41178800D01*
X86356202Y-41178799D01*
X86428069Y-41173660D01*
X86567764Y-41132641D01*
X86637634Y-41132641D01*
X86696412Y-41170415D01*
X86725438Y-41233970D01*
X86726700Y-41251618D01*
X86726700Y-41584681D01*
X86707015Y-41651720D01*
X86690381Y-41672362D01*
X85320652Y-43042091D01*
X85259329Y-43075576D01*
X85189637Y-43070592D01*
X85145290Y-43042091D01*
X85109289Y-43006090D01*
X85109284Y-43006086D01*
X84982848Y-42933089D01*
X84982847Y-42933088D01*
X84982846Y-42933088D01*
X84841818Y-42895300D01*
X84695816Y-42895300D01*
X84695813Y-42895300D01*
X84693215Y-42895642D01*
X84691022Y-42895300D01*
X84687689Y-42895300D01*
X84687689Y-42894780D01*
X84624179Y-42884876D01*
X84571924Y-42838495D01*
X84553031Y-42772703D01*
X84553031Y-41932084D01*
X84553031Y-41932082D01*
X84538266Y-41857847D01*
X84538264Y-41857844D01*
X84537972Y-41856374D01*
X84537973Y-41807993D01*
X84556552Y-41714588D01*
X84558032Y-41707148D01*
X84558032Y-41091322D01*
X84549189Y-41024157D01*
X84515114Y-40896990D01*
X84489191Y-40834405D01*
X84489187Y-40834398D01*
X84423364Y-40720389D01*
X84382131Y-40666654D01*
X84382123Y-40666645D01*
X84289034Y-40573556D01*
X84289025Y-40573548D01*
X84235290Y-40532315D01*
X84121281Y-40466492D01*
X84121277Y-40466490D01*
X84121275Y-40466489D01*
X84115163Y-40463957D01*
X84058694Y-40440567D01*
X84031813Y-40433364D01*
X83931523Y-40406491D01*
X83864358Y-40397648D01*
X83232706Y-40397648D01*
X83165549Y-40406490D01*
X83165541Y-40406491D01*
X83038369Y-40440567D01*
X82975793Y-40466487D01*
X82975782Y-40466492D01*
X82861773Y-40532315D01*
X82808038Y-40573548D01*
X82808029Y-40573556D01*
X82714938Y-40666647D01*
X82673690Y-40720401D01*
X82672263Y-40722538D01*
X82671672Y-40723031D01*
X82671227Y-40723612D01*
X82671097Y-40723512D01*
X82618651Y-40767344D01*
X82569161Y-40777648D01*
X82079506Y-40777648D01*
X82079490Y-40777647D01*
X82071894Y-40777647D01*
X81971970Y-40777647D01*
X81923710Y-40790578D01*
X81875448Y-40803510D01*
X81875447Y-40803511D01*
X81788916Y-40853469D01*
X81788911Y-40853473D01*
X81619856Y-41022529D01*
X81558533Y-41056014D01*
X81532175Y-41058848D01*
X81492731Y-41058848D01*
X81351703Y-41096636D01*
X81351700Y-41096637D01*
X81225264Y-41169634D01*
X81225259Y-41169638D01*
X81122022Y-41272875D01*
X81122018Y-41272880D01*
X81049021Y-41399316D01*
X81049020Y-41399319D01*
X81011232Y-41540347D01*
X81011232Y-41686349D01*
X81018378Y-41713016D01*
X81049020Y-41827376D01*
X81049021Y-41827379D01*
X81122018Y-41953815D01*
X81122020Y-41953818D01*
X81122021Y-41953819D01*
X81225261Y-42057059D01*
X81225262Y-42057060D01*
X81225264Y-42057061D01*
X81260922Y-42077648D01*
X81351703Y-42130060D01*
X81385931Y-42139231D01*
X81445592Y-42175596D01*
X81476121Y-42238443D01*
X81467826Y-42307819D01*
X81441519Y-42346687D01*
X80957183Y-42831024D01*
X80886525Y-42901681D01*
X80886521Y-42901686D01*
X80836561Y-42988219D01*
X80836562Y-42988219D01*
X80836562Y-42988220D01*
X80810699Y-43084741D01*
X80810699Y-43194653D01*
X80810700Y-43194666D01*
X80810700Y-44798904D01*
X80791015Y-44865943D01*
X80738211Y-44911698D01*
X80718796Y-44918678D01*
X80680762Y-44928870D01*
X80680756Y-44928872D01*
X80554320Y-45001869D01*
X80477885Y-45078304D01*
X80416561Y-45111788D01*
X80346870Y-45106804D01*
X80290936Y-45064932D01*
X80270429Y-45022715D01*
X80235323Y-44891695D01*
X80181750Y-44798904D01*
X80162324Y-44765256D01*
X80162320Y-44765251D01*
X80059083Y-44662014D01*
X80059078Y-44662010D01*
X79932642Y-44589013D01*
X79932641Y-44589012D01*
X79932640Y-44589012D01*
X79791612Y-44551224D01*
X79645610Y-44551224D01*
X79504582Y-44589012D01*
X79504579Y-44589013D01*
X79378143Y-44662010D01*
X79378138Y-44662014D01*
X79274899Y-44765253D01*
X79250651Y-44807253D01*
X79200083Y-44855468D01*
X79131476Y-44868690D01*
X79066612Y-44842722D01*
X79026084Y-44785808D01*
X79021647Y-44769443D01*
X79020813Y-44765251D01*
X78996976Y-44645414D01*
X78969966Y-44580206D01*
X78917488Y-44453511D01*
X78917487Y-44453509D01*
X78854998Y-44359989D01*
X78802083Y-44280796D01*
X78802080Y-44280792D01*
X78655207Y-44133919D01*
X78655203Y-44133916D01*
X78482490Y-44018512D01*
X78482488Y-44018511D01*
X78290590Y-43939025D01*
X78290578Y-43939022D01*
X78086862Y-43898500D01*
X78086859Y-43898500D01*
X77879141Y-43898500D01*
X77879138Y-43898500D01*
X77675421Y-43939022D01*
X77675409Y-43939025D01*
X77483511Y-44018511D01*
X77483509Y-44018512D01*
X77310796Y-44133916D01*
X77310792Y-44133919D01*
X77225181Y-44219531D01*
X77163858Y-44253016D01*
X77094166Y-44248032D01*
X77038233Y-44206160D01*
X77013816Y-44140696D01*
X77013500Y-44131850D01*
X77013500Y-43234150D01*
X77033185Y-43167111D01*
X77085989Y-43121356D01*
X77155147Y-43111412D01*
X77218703Y-43140437D01*
X77225181Y-43146469D01*
X77310792Y-43232080D01*
X77310796Y-43232083D01*
X77483507Y-43347486D01*
X77483508Y-43347486D01*
X77483509Y-43347487D01*
X77483511Y-43347488D01*
X77610686Y-43400165D01*
X77675414Y-43426976D01*
X77879136Y-43467499D01*
X77879139Y-43467500D01*
X77879141Y-43467500D01*
X78086861Y-43467500D01*
X78086862Y-43467499D01*
X78290586Y-43426976D01*
X78482493Y-43347486D01*
X78655204Y-43232083D01*
X78802083Y-43085204D01*
X78917486Y-42912493D01*
X78996976Y-42720586D01*
X79037500Y-42516859D01*
X79037500Y-42309141D01*
X79037500Y-42309138D01*
X79037499Y-42309136D01*
X79009395Y-42167848D01*
X78996976Y-42105414D01*
X78934113Y-41953648D01*
X78917488Y-41913511D01*
X78917487Y-41913509D01*
X78879310Y-41856374D01*
X78802083Y-41740796D01*
X78802080Y-41740792D01*
X78655207Y-41593919D01*
X78655203Y-41593916D01*
X78482490Y-41478512D01*
X78482488Y-41478511D01*
X78320851Y-41411560D01*
X78266447Y-41367719D01*
X78244382Y-41301425D01*
X78261661Y-41233726D01*
X78312798Y-41186115D01*
X78368303Y-41172999D01*
X78582971Y-41172999D01*
X78582987Y-41172998D01*
X78685697Y-41162505D01*
X78852119Y-41107358D01*
X78852124Y-41107356D01*
X79001345Y-41015315D01*
X79125315Y-40891345D01*
X79217356Y-40742124D01*
X79217358Y-40742119D01*
X79272505Y-40575697D01*
X79272506Y-40575690D01*
X79282999Y-40472986D01*
X79283000Y-40472973D01*
X79283000Y-40123000D01*
X78298686Y-40123000D01*
X78303080Y-40118606D01*
X78355741Y-40027394D01*
X78383000Y-39925661D01*
X78383000Y-39820339D01*
X78355741Y-39718606D01*
X78303080Y-39627394D01*
X78298686Y-39623000D01*
X79282999Y-39623000D01*
X79282999Y-39273028D01*
X79282998Y-39273013D01*
X79272505Y-39170302D01*
X79238110Y-39066504D01*
X79235708Y-38996676D01*
X79271440Y-38936634D01*
X79333960Y-38905441D01*
X79355816Y-38903500D01*
X84879058Y-38903500D01*
X84946097Y-38923185D01*
G37*
%TD.AperFunction*%
%TD*%
M02*
