%TF.GenerationSoftware,KiCad,Pcbnew,10.0.6*%
%TF.CreationDate,2026-09-03T23:09:49+01:00*%
%TF.ProjectId,VideoULA,56696465-6f55-44c4-912e-6b696361645f,02*%
%TF.SameCoordinates,Original*%
%TF.FileFunction,Copper,L2,Bot*%
%TF.FilePolarity,Positive*%
%FSLAX46Y46*%
G04 Gerber Fmt 4.6, Leading zero omitted, Abs format (unit mm)*
G04 Created by KiCad (PCBNEW 10.0.6) date 2026-09-03 23:09:49*
%MOMM*%
%LPD*%
G01*
G04 APERTURE LIST*
G04 Aperture macros list*
%AMRoundRect*
0 Rectangle with rounded corners*
0 $1 Rounding radius*
0 $2 $3 $4 $5 $6 $7 $8 $9 X,Y pos of 4 corners*
0 Add a 4 corners polygon primitive as box body*
4,1,4,$2,$3,$4,$5,$6,$7,$8,$9,$2,$3,0*
0 Add four circle primitives for the rounded corners*
1,1,$1+$1,$2,$3*
1,1,$1+$1,$4,$5*
1,1,$1+$1,$6,$7*
1,1,$1+$1,$8,$9*
0 Add four rect primitives between the rounded corners*
20,1,$1+$1,$2,$3,$4,$5,0*
20,1,$1+$1,$4,$5,$6,$7,0*
20,1,$1+$1,$6,$7,$8,$9,0*
20,1,$1+$1,$8,$9,$2,$3,0*%
%AMFreePoly0*
4,1,23,0.550000,-0.750000,0.000000,-0.750000,0.000000,-0.745722,-0.065263,-0.745722,-0.191342,-0.711940,-0.304381,-0.646677,-0.396677,-0.554381,-0.461940,-0.441342,-0.495722,-0.315263,-0.495722,-0.250000,-0.500000,-0.250000,-0.500000,0.250000,-0.495722,0.250000,-0.495722,0.315263,-0.461940,0.441342,-0.396677,0.554381,-0.304381,0.646677,-0.191342,0.711940,-0.065263,0.745722,0.000000,0.745722,
0.000000,0.750000,0.550000,0.750000,0.550000,-0.750000,0.550000,-0.750000,$1*%
%AMFreePoly1*
4,1,23,0.000000,0.745722,0.065263,0.745722,0.191342,0.711940,0.304381,0.646677,0.396677,0.554381,0.461940,0.441342,0.495722,0.315263,0.495722,0.250000,0.500000,0.250000,0.500000,-0.250000,0.495722,-0.250000,0.495722,-0.315263,0.461940,-0.441342,0.396677,-0.554381,0.304381,-0.646677,0.191342,-0.711940,0.065263,-0.745722,0.000000,-0.745722,0.000000,-0.750000,-0.550000,-0.750000,
-0.550000,0.750000,0.000000,0.750000,0.000000,0.745722,0.000000,0.745722,$1*%
G04 Aperture macros list end*
%TA.AperFunction,EtchedComponent*%
%ADD10C,0.000000*%
%TD*%
%TA.AperFunction,ComponentPad*%
%ADD11R,1.700000X1.700000*%
%TD*%
%TA.AperFunction,ComponentPad*%
%ADD12C,1.700000*%
%TD*%
%TA.AperFunction,ComponentPad*%
%ADD13RoundRect,0.250000X-0.550000X-0.550000X0.550000X-0.550000X0.550000X0.550000X-0.550000X0.550000X0*%
%TD*%
%TA.AperFunction,ComponentPad*%
%ADD14C,1.600000*%
%TD*%
%TA.AperFunction,SMDPad,CuDef*%
%ADD15R,0.380000X1.870000*%
%TD*%
%TA.AperFunction,SMDPad,CuDef*%
%ADD16FreePoly0,270.000000*%
%TD*%
%TA.AperFunction,SMDPad,CuDef*%
%ADD17R,1.500000X1.000000*%
%TD*%
%TA.AperFunction,SMDPad,CuDef*%
%ADD18FreePoly1,270.000000*%
%TD*%
%TA.AperFunction,SMDPad,CuDef*%
%ADD19FreePoly0,180.000000*%
%TD*%
%TA.AperFunction,SMDPad,CuDef*%
%ADD20R,1.000000X1.500000*%
%TD*%
%TA.AperFunction,SMDPad,CuDef*%
%ADD21FreePoly1,180.000000*%
%TD*%
%TA.AperFunction,SMDPad,CuDef*%
%ADD22RoundRect,0.225000X-0.225000X-0.250000X0.225000X-0.250000X0.225000X0.250000X-0.225000X0.250000X0*%
%TD*%
%TA.AperFunction,ViaPad*%
%ADD23C,0.800000*%
%TD*%
%TA.AperFunction,ViaPad*%
%ADD24C,0.600000*%
%TD*%
%TA.AperFunction,Conductor*%
%ADD25C,0.400000*%
%TD*%
%TA.AperFunction,Conductor*%
%ADD26C,0.380000*%
%TD*%
%TA.AperFunction,Conductor*%
%ADD27C,0.250000*%
%TD*%
%TA.AperFunction,Conductor*%
%ADD28C,0.500000*%
%TD*%
G04 APERTURE END LIST*
D10*
%TA.AperFunction,EtchedComponent*%
%TO.C,JP1*%
G36*
X83848532Y-42768348D02*
G01*
X83248532Y-42768348D01*
X83248532Y-42268348D01*
X83848532Y-42268348D01*
X83848532Y-42768348D01*
G37*
%TD.AperFunction*%
%TA.AperFunction,EtchedComponent*%
%TO.C,JP3*%
G36*
X89222400Y-65152400D02*
G01*
X88622400Y-65152400D01*
X88622400Y-64652400D01*
X89222400Y-64652400D01*
X89222400Y-65152400D01*
G37*
%TD.AperFunction*%
%TA.AperFunction,EtchedComponent*%
%TO.C,JP2*%
G36*
X88006200Y-40223800D02*
G01*
X87506200Y-40223800D01*
X87506200Y-39623800D01*
X88006200Y-39623800D01*
X88006200Y-40223800D01*
G37*
%TD.AperFunction*%
%TD*%
D11*
%TO.P,J1,1,Pin_1_1*%
%TO.N,/TCK*%
X80523000Y-71623000D03*
D12*
%TO.P,J1,2,Pin_2_2*%
%TO.N,GND*%
X80523000Y-69083000D03*
%TO.P,J1,3,Pin_3_3*%
%TO.N,/TDO*%
X83063000Y-71623000D03*
%TO.P,J1,4,Pin_4_4*%
%TO.N,+3.3V*%
X83063000Y-69083000D03*
%TO.P,J1,5,Pin_5_5*%
%TO.N,/TMS*%
X85603000Y-71623000D03*
%TO.P,J1,6,Pin_6_6*%
%TO.N,unconnected-(J1-Pin_6-Pad6)*%
X85603000Y-69083000D03*
%TO.P,J1,7,Pin_7_7*%
%TO.N,unconnected-(J1-Pin_7-Pad7)*%
X88143000Y-71623000D03*
%TO.P,J1,8,Pin_8_8*%
%TO.N,unconnected-(J1-Pin_8-Pad8)*%
X88143000Y-69083000D03*
%TO.P,J1,9,Pin_9_9*%
%TO.N,/TDI*%
X90683000Y-71623000D03*
%TO.P,J1,10,Pin_10_10*%
%TO.N,GND*%
X90683000Y-69083000D03*
%TD*%
D13*
%TO.P,IC6,1,GND_1*%
%TO.N,GND*%
X77983000Y-39873000D03*
D14*
%TO.P,IC6,2,A0_2*%
%TO.N,/A*%
X77983000Y-42413000D03*
%TO.P,IC6,3,CS_3*%
%TO.N,/~{CS}*%
X77983000Y-44953000D03*
%TO.P,IC6,4,1MHz_CLK_4*%
%TO.N,/CLK_1M*%
X77983000Y-47493000D03*
%TO.P,IC6,5,2MHz_CLK_5*%
%TO.N,/CLK_2M*%
X77983000Y-50033000D03*
%TO.P,IC6,6,4MHz_CLK_6*%
%TO.N,/CLK_4M*%
X77983000Y-52573000D03*
%TO.P,IC6,7,8MHz_CLK_7*%
%TO.N,/CLK_8M*%
X77983000Y-55113000D03*
%TO.P,IC6,8,16MHz_CLK_8*%
%TO.N,/CLK_16M*%
X77983000Y-57653000D03*
%TO.P,IC6,9,B_IN_9*%
%TO.N,/B_IN*%
X77983000Y-60193000D03*
%TO.P,IC6,10,B_10*%
%TO.N,/B*%
X77983000Y-62733000D03*
%TO.P,IC6,11,G_IN_11*%
%TO.N,/G_IN*%
X77983000Y-65273000D03*
%TO.P,IC6,12,G_12*%
%TO.N,/G*%
X77983000Y-67813000D03*
%TO.P,IC6,13,R_IN_13*%
%TO.N,/R_IN*%
X77983000Y-70353000D03*
%TO.P,IC6,14,R_14*%
%TO.N,/R*%
X77983000Y-72893000D03*
%TO.P,IC6,15*%
%TO.N,unconnected-(IC6-Pad15)*%
X93223000Y-72893000D03*
%TO.P,IC6,16,VCC_16*%
%TO.N,+5V*%
X93223000Y-70353000D03*
%TO.P,IC6,17,D0_17*%
%TO.N,/D0*%
X93223000Y-67813000D03*
%TO.P,IC6,18,D1_18*%
%TO.N,/D1*%
X93223000Y-65273000D03*
%TO.P,IC6,19,D2_19*%
%TO.N,/D2*%
X93223000Y-62733000D03*
%TO.P,IC6,20,D3_20*%
%TO.N,/D3*%
X93223000Y-60193000D03*
%TO.P,IC6,21,D4_21*%
%TO.N,/D4*%
X93223000Y-57653000D03*
%TO.P,IC6,22,D5_22*%
%TO.N,/D5*%
X93223000Y-55113000D03*
%TO.P,IC6,23,D6_23*%
%TO.N,/D6*%
X93223000Y-52573000D03*
%TO.P,IC6,24,D7_24*%
%TO.N,/D7*%
X93223000Y-50033000D03*
%TO.P,IC6,25,CURSOR_25*%
%TO.N,/CURSOR*%
X93223000Y-47493000D03*
%TO.P,IC6,26,DISEN_26*%
%TO.N,/DISEN*%
X93223000Y-44953000D03*
%TO.P,IC6,27*%
%TO.N,unconnected-(IC6-Pad27)*%
X93223000Y-42413000D03*
%TO.P,IC6,28,CRTC_CLK_28*%
%TO.N,/CLK_CRTC*%
X93223000Y-39873000D03*
%TD*%
D11*
%TO.P,J2,1,Pin_1_1*%
%TO.N,/CLK_6M*%
X80523000Y-48763000D03*
%TD*%
D15*
%TO.P,U4,1,A14_1*%
%TO.N,GND*%
X85836000Y-60367000D03*
%TO.P,U4,2,A12_2*%
X85286000Y-60367000D03*
%TO.P,U4,3,A7_3*%
%TO.N,/SRAM_A3*%
X84736000Y-60367000D03*
%TO.P,U4,4,A6_4*%
%TO.N,/SRAM_A2*%
X84186000Y-60367000D03*
%TO.P,U4,5,A5_5*%
%TO.N,/SRAM_A1*%
X83636000Y-60367000D03*
%TO.P,U4,6,A4_6*%
%TO.N,/SRAM_A0*%
X83086000Y-60367000D03*
%TO.P,U4,7,A3_7*%
%TO.N,GND*%
X82536000Y-60367000D03*
%TO.P,U4,8,A2_8*%
X82536000Y-47827000D03*
%TO.P,U4,9,A1_9*%
X83086000Y-47827000D03*
%TO.P,U4,10,A0_10*%
X83636000Y-47827000D03*
%TO.P,U4,11,Q0_11*%
%TO.N,/SRAM_Q0*%
X84186000Y-47827000D03*
%TO.P,U4,12,Q1_12*%
%TO.N,/SRAM_Q1*%
X84736000Y-47827000D03*
%TO.P,U4,13,Q2_13*%
%TO.N,/SRAM_Q2*%
X85286000Y-47827000D03*
%TO.P,U4,14,GND_14*%
%TO.N,GND*%
X85836000Y-47827000D03*
%TO.P,U4,15,Q3_15*%
%TO.N,/SRAM_Q3*%
X86386000Y-47827000D03*
%TO.P,U4,16,Q4_16*%
%TO.N,/SRAM_D3*%
X86936000Y-47827000D03*
%TO.P,U4,17,Q5_17*%
%TO.N,/SRAM_D2*%
X87486000Y-47827000D03*
%TO.P,U4,18,Q6_18*%
%TO.N,/SRAM_D1*%
X88036000Y-47827000D03*
%TO.P,U4,19,Q7_19*%
%TO.N,/SRAM_D0*%
X88586000Y-47827000D03*
%TO.P,U4,20,~{CS}_20*%
%TO.N,GND*%
X89136000Y-47827000D03*
%TO.P,U4,21,A10_21*%
X89686000Y-47827000D03*
%TO.P,U4,22,~{OE}_22*%
X89686000Y-60367000D03*
%TO.P,U4,23,A11_23*%
X89136000Y-60367000D03*
%TO.P,U4,24,A9_24*%
X88586000Y-60367000D03*
%TO.P,U4,25,A8_25*%
X88036000Y-60367000D03*
%TO.P,U4,26,A13_26*%
X87486000Y-60367000D03*
%TO.P,U4,27,~{WE}_27*%
%TO.N,/SRAM_~{WE}*%
X86936000Y-60367000D03*
%TO.P,U4,28,VCC_28*%
%TO.N,/SRAM_VCC*%
X86386000Y-60367000D03*
%TD*%
D16*
%TO.P,JP1,1,A_1*%
%TO.N,/CLK_48M*%
X83548532Y-41868348D03*
D17*
%TO.P,JP1,2,C_2*%
%TO.N,/CLK_IN*%
X83548532Y-43168348D03*
D18*
%TO.P,JP1,3,B_3*%
%TO.N,/CLK_16M_BUF*%
X83548532Y-44468348D03*
%TD*%
D16*
%TO.P,JP3,1,A_1*%
%TO.N,+3.3V*%
X88922400Y-64252400D03*
D17*
%TO.P,JP3,2,C_2*%
%TO.N,/SRAM_VCC*%
X88922400Y-65552400D03*
D18*
%TO.P,JP3,3,B_3*%
%TO.N,+5V*%
X88922400Y-66852400D03*
%TD*%
D19*
%TO.P,JP2,1,A_1*%
%TO.N,+3.3V*%
X88406200Y-39923800D03*
D20*
%TO.P,JP2,2,C_2*%
%TO.N,/CLK_SEL*%
X87106200Y-39923800D03*
D21*
%TO.P,JP2,3,B_3*%
%TO.N,GND*%
X85806200Y-39923800D03*
%TD*%
D22*
%TO.P,C4,1*%
%TO.N,/SRAM_VCC*%
X88107532Y-62421548D03*
%TO.P,C4,2*%
%TO.N,GND*%
X89657532Y-62421548D03*
%TD*%
D23*
%TO.N,GND*%
X89904400Y-58857643D03*
%TO.N,/TDO*%
X89532950Y-58008317D03*
%TO.N,+3.3V*%
X84841000Y-56383000D03*
X87041690Y-65019000D03*
X89922544Y-43622847D03*
X89215343Y-54947057D03*
X89826489Y-46125368D03*
%TO.N,GND*%
X83621800Y-53090037D03*
X83855003Y-49456000D03*
X86619000Y-64003000D03*
X91953000Y-39365000D03*
D24*
X81729500Y-67876500D03*
D23*
X83621800Y-55732000D03*
X88389000Y-56281400D03*
X87627000Y-53741400D03*
X92461000Y-64003000D03*
X85349000Y-44064000D03*
X81204998Y-54097000D03*
X80882672Y-61091026D03*
X81204998Y-53069871D03*
X92461000Y-58923000D03*
X91921767Y-45213247D03*
X82331700Y-58923700D03*
X90569000Y-50280348D03*
X86659400Y-66433000D03*
X85836000Y-57399000D03*
D24*
X81793000Y-72766000D03*
X89921000Y-72766000D03*
D23*
X87330200Y-46223000D03*
%TO.N,+5V*%
X89913000Y-44549800D03*
%TO.N,/TCK*%
X79104496Y-61133502D03*
%TO.N,/TMS*%
X80073000Y-67781606D03*
X81285000Y-59926009D03*
%TO.N,/TDI*%
X81285000Y-58999006D03*
%TO.N,/SRAM_~{WE}*%
X86936000Y-56594396D03*
%TO.N,/CLK_SEL*%
X87087400Y-42552000D03*
%TO.N,/CLK_48M*%
X81887200Y-43004378D03*
%TO.N,/SRAM_Q0*%
X90328730Y-39938800D03*
%TO.N,/SRAM_Q1*%
X90328730Y-40865803D03*
%TO.N,/SRAM_Q2*%
X90328730Y-41792806D03*
%TO.N,/SRAM_Q3*%
X90328730Y-42719809D03*
%TO.N,/TDO*%
X90245243Y-66581399D03*
X89446885Y-68374129D03*
%TO.N,/CLK_16M*%
X81398467Y-47009000D03*
%TO.N,/SRAM_A2*%
X82577426Y-56258974D03*
%TO.N,/SRAM_A1*%
X81279829Y-56862762D03*
%TO.N,/SRAM_A0*%
X81285000Y-58059400D03*
%TO.N,/SRAM_A3*%
X84780000Y-58342650D03*
%TO.N,/SRAM_D0*%
X89247000Y-52788028D03*
%TO.N,/SRAM_D1*%
X88783884Y-51985000D03*
%TO.N,/SRAM_D2*%
X87856882Y-51985004D03*
%TO.N,/SRAM_D3*%
X86929934Y-51974930D03*
%TO.N,/CLK_IN*%
X82359000Y-49503548D03*
%TO.N,/CLK_16M_BUF*%
X82936000Y-45461000D03*
%TD*%
%TO.N,GND*%
D25*
X83173000Y-66433000D02*
X81729500Y-67876500D01*
X86659400Y-66433000D02*
X83173000Y-66433000D01*
X80882672Y-67029672D02*
X81729500Y-67876500D01*
X80882672Y-63241000D02*
X80882672Y-67029672D01*
D26*
X85836000Y-50875837D02*
X83621800Y-53090037D01*
X85836000Y-47827000D02*
X85836000Y-50875837D01*
%TO.N,/SRAM_VCC*%
X87069548Y-62421548D02*
X88107532Y-62421548D01*
X86386000Y-60367000D02*
X86386000Y-61738000D01*
X86386000Y-61738000D02*
X87069548Y-62421548D01*
%TO.N,GND*%
X88036000Y-60367000D02*
X88036000Y-56634400D01*
X88036000Y-56634400D02*
X88389000Y-56281400D01*
X89686000Y-62393080D02*
X89657532Y-62421548D01*
X89686000Y-60367000D02*
X89686000Y-62393080D01*
%TO.N,/TDO*%
D27*
X90245243Y-65584157D02*
X90245243Y-66581399D01*
X90556400Y-65273000D02*
X90245243Y-65584157D01*
X90556400Y-58587575D02*
X90556400Y-65273000D01*
X89977142Y-58008317D02*
X90556400Y-58587575D01*
X89532950Y-58008317D02*
X89977142Y-58008317D01*
%TO.N,+3.3V*%
D28*
X90675000Y-39153000D02*
X89177000Y-39153000D01*
X86873000Y-69845000D02*
X86365000Y-70353000D01*
X90841968Y-46125368D02*
X91346000Y-46629400D01*
X87808290Y-64252400D02*
X87041690Y-65019000D01*
X87436400Y-68054359D02*
X87436400Y-65413710D01*
X89922544Y-43622847D02*
X90824953Y-43622847D01*
X89826489Y-46125368D02*
X89136000Y-45434879D01*
X89741109Y-43622847D02*
X89922544Y-43622847D01*
X91105730Y-43342070D02*
X91105730Y-39583730D01*
X89136000Y-45434879D02*
X89136000Y-44227956D01*
X89136000Y-44227956D02*
X89741109Y-43622847D01*
X89826489Y-46125368D02*
X90841968Y-46125368D01*
X89177000Y-39153000D02*
X88406200Y-39923800D01*
X84333000Y-70353000D02*
X83063000Y-69083000D01*
X87436400Y-65413710D02*
X87041690Y-65019000D01*
X90775343Y-54947057D02*
X89215343Y-54947057D01*
X84841000Y-56383000D02*
X86276943Y-54947057D01*
X88922400Y-64252400D02*
X87808290Y-64252400D01*
X91105730Y-39583730D02*
X90675000Y-39153000D01*
X86873000Y-68617759D02*
X86873000Y-69845000D01*
X90824953Y-43622847D02*
X91105730Y-43342070D01*
X86276943Y-54947057D02*
X89215343Y-54947057D01*
X86365000Y-70353000D02*
X84333000Y-70353000D01*
X87436400Y-68054359D02*
X86873000Y-68617759D01*
X91346000Y-54376400D02*
X90775343Y-54947057D01*
X91346000Y-46629400D02*
X91346000Y-54376400D01*
%TO.N,GND*%
D25*
X91860000Y-70260000D02*
X91860000Y-72110530D01*
X89955000Y-72800000D02*
X89921000Y-72766000D01*
X91170530Y-72800000D02*
X89955000Y-72800000D01*
X91860000Y-72110530D02*
X91170530Y-72800000D01*
X79110000Y-52684000D02*
X79110000Y-53700000D01*
X84942600Y-40787400D02*
X85806200Y-39923800D01*
X89913000Y-53741400D02*
X90421000Y-53233400D01*
X77983000Y-39873000D02*
X77983000Y-40819181D01*
X91953000Y-45182014D02*
X91921767Y-45213247D01*
X84368000Y-57399000D02*
X85836000Y-57399000D01*
X79456200Y-39873000D02*
X77983000Y-39873000D01*
X83621800Y-55732000D02*
X83563000Y-55790800D01*
X92096000Y-63638000D02*
X92461000Y-64003000D01*
X90683000Y-69083000D02*
X91860000Y-70260000D01*
X80370600Y-40787400D02*
X84942600Y-40787400D01*
X77983000Y-40819181D02*
X79110000Y-41946181D01*
X83621800Y-49689203D02*
X83855003Y-49456000D01*
X83621800Y-55732000D02*
X85612400Y-53741400D01*
X79110000Y-52684000D02*
X79495871Y-53069871D01*
X79507000Y-54097000D02*
X81204998Y-54097000D01*
X83621800Y-53090037D02*
X83621800Y-49689203D01*
X90421000Y-50428348D02*
X90569000Y-50280348D01*
X80370600Y-40787400D02*
X79456200Y-39873000D01*
X90421000Y-53233400D02*
X90421000Y-50428348D01*
X80523000Y-69083000D02*
X81729500Y-67876500D01*
X85612400Y-53741400D02*
X87627000Y-53741400D01*
X87627000Y-53741400D02*
X89913000Y-53741400D01*
X83621800Y-56652800D02*
X84368000Y-57399000D01*
X92461000Y-58923000D02*
X92096000Y-59288000D01*
X92096000Y-59288000D02*
X92096000Y-63638000D01*
X80882672Y-61091026D02*
X80882672Y-63241000D01*
X91953000Y-39365000D02*
X91953000Y-45182014D01*
X79110000Y-41946181D02*
X79110000Y-52684000D01*
X83621800Y-55732000D02*
X83621800Y-56652800D01*
X79495871Y-53069871D02*
X81204998Y-53069871D01*
X90569000Y-50280348D02*
X90562348Y-50287000D01*
X79110000Y-53700000D02*
X79507000Y-54097000D01*
%TO.N,+5V*%
D28*
X91973000Y-54636112D02*
X91058400Y-55550712D01*
X91101680Y-45498368D02*
X91973000Y-46369688D01*
X91968922Y-68268921D02*
X91058400Y-67358399D01*
X88922400Y-66852400D02*
X89428399Y-67358399D01*
X93223000Y-70353000D02*
X91968922Y-69098922D01*
X90298333Y-45498368D02*
X91101680Y-45498368D01*
X91058400Y-55550712D02*
X91058400Y-67358399D01*
X89913000Y-44549800D02*
X89913000Y-45113035D01*
X91968922Y-69098922D02*
X91968922Y-68268921D01*
X89913000Y-45113035D02*
X90298333Y-45498368D01*
X91973000Y-46369688D02*
X91973000Y-54636112D01*
X89428399Y-67358399D02*
X91058400Y-67358399D01*
%TO.N,/TCK*%
D27*
X79035000Y-70135000D02*
X79035000Y-61202998D01*
X79035000Y-61202998D02*
X79104496Y-61133502D01*
X80523000Y-71623000D02*
X79035000Y-70135000D01*
%TO.N,/TMS*%
X80168000Y-61525224D02*
X79789000Y-61904224D01*
X79789000Y-61904224D02*
X79789000Y-67497606D01*
X80753562Y-59926009D02*
X80168000Y-60511571D01*
X81285000Y-59926009D02*
X80753562Y-59926009D01*
X80168000Y-60511571D02*
X80168000Y-61525224D01*
X79789000Y-67497606D02*
X80073000Y-67781606D01*
%TO.N,/TDI*%
X79412000Y-61748066D02*
X79412000Y-69530464D01*
X79791000Y-61369066D02*
X79412000Y-61748066D01*
X80234536Y-70353000D02*
X81457000Y-70353000D01*
X81793000Y-70689000D02*
X81793000Y-71911464D01*
X82983536Y-73102000D02*
X88755622Y-73102000D01*
X81793000Y-71911464D02*
X82983536Y-73102000D01*
X81147407Y-58999006D02*
X79791000Y-60355413D01*
X81285000Y-58999006D02*
X81147407Y-58999006D01*
X79412000Y-69530464D02*
X80234536Y-70353000D01*
X88755622Y-73102000D02*
X90234623Y-71623000D01*
X81457000Y-70353000D02*
X81793000Y-70689000D01*
X79791000Y-60355413D02*
X79791000Y-61369066D01*
%TO.N,/SRAM_~{WE}*%
X86936000Y-60367000D02*
X86936000Y-56594396D01*
%TO.N,/CLK_SEL*%
X87087400Y-42552000D02*
X87106200Y-42533200D01*
X87106200Y-42533200D02*
X87106200Y-39923800D01*
%TO.N,/CLK_48M*%
X81887200Y-43004378D02*
X83023230Y-41868348D01*
%TO.N,/SRAM_Q0*%
X84186000Y-46837848D02*
X84186000Y-47827000D01*
X90328730Y-39938800D02*
X89299730Y-40967800D01*
X89299730Y-41724118D02*
X84186000Y-46837848D01*
X89299730Y-40967800D02*
X89299730Y-41724118D01*
%TO.N,/SRAM_Q1*%
X90328730Y-40865803D02*
X89676730Y-41517804D01*
X89676730Y-41880276D02*
X84736000Y-46821006D01*
X84736000Y-46821006D02*
X84736000Y-47827000D01*
X89676730Y-41517804D02*
X89676730Y-41880276D01*
%TO.N,/SRAM_Q2*%
X85286000Y-46804165D02*
X85286000Y-47827000D01*
X90297358Y-41792806D02*
X85286000Y-46804165D01*
X90328730Y-41792806D02*
X90297358Y-41792806D01*
%TO.N,/SRAM_Q3*%
X86386000Y-46237323D02*
X86386000Y-47827000D01*
X90328730Y-42719809D02*
X89903514Y-42719809D01*
X89903514Y-42719809D02*
X86386000Y-46237323D01*
%TO.N,/TDO*%
X83063000Y-71623000D02*
X84165000Y-72725000D01*
X89446885Y-68374129D02*
X89413000Y-68408014D01*
X89413000Y-68408014D02*
X89413000Y-71911464D01*
X88599464Y-72725000D02*
X89413000Y-71911464D01*
X84165000Y-72725000D02*
X88599464Y-72725000D01*
%TO.N,/CLK_16M*%
X81707000Y-51852000D02*
X82071813Y-52216813D01*
X80269000Y-55367000D02*
X77983000Y-57653000D01*
X82071813Y-52216813D02*
X82071813Y-54580187D01*
X81285000Y-55367000D02*
X80269000Y-55367000D01*
X82071813Y-54580187D02*
X81285000Y-55367000D01*
X81707000Y-47317533D02*
X81707000Y-51852000D01*
X81398467Y-47009000D02*
X81707000Y-47317533D01*
%TO.N,/SRAM_A2*%
X84186000Y-58789616D02*
X84186000Y-60367000D01*
X82577426Y-57181042D02*
X84186000Y-58789616D01*
X82577426Y-56258974D02*
X82577426Y-57181042D01*
%TO.N,/SRAM_A1*%
X81725988Y-56862762D02*
X83636000Y-58772774D01*
X81279829Y-56862762D02*
X81725988Y-56862762D01*
X83636000Y-58772774D02*
X83636000Y-60367000D01*
%TO.N,/SRAM_A0*%
X83086000Y-58755932D02*
X83086000Y-60367000D01*
X82389468Y-58059400D02*
X83086000Y-58755932D01*
X81285000Y-58059400D02*
X82389468Y-58059400D01*
%TO.N,/SRAM_A3*%
X84736000Y-58386650D02*
X84780000Y-58342650D01*
X84736000Y-60367000D02*
X84736000Y-58386650D01*
%TO.N,/SRAM_D0*%
X88586000Y-47827000D02*
X88586000Y-50865048D01*
X89435884Y-51714932D02*
X89435884Y-52599144D01*
X89435884Y-52599144D02*
X89247000Y-52788028D01*
X88586000Y-50865048D02*
X89435884Y-51714932D01*
%TO.N,/SRAM_D1*%
X88036000Y-47827000D02*
X88036000Y-51237116D01*
X88036000Y-51237116D02*
X88783884Y-51985000D01*
%TO.N,/SRAM_D2*%
X87486000Y-51614122D02*
X87856882Y-51985004D01*
X87486000Y-47827000D02*
X87486000Y-51614122D01*
%TO.N,/SRAM_D3*%
X86936000Y-47827000D02*
X86936000Y-51968864D01*
X86936000Y-51968864D02*
X86929934Y-51974930D01*
%TO.N,/CLK_IN*%
X82084000Y-44064000D02*
X82979652Y-43168348D01*
X82084000Y-49228548D02*
X82359000Y-49503548D01*
X82084000Y-44064000D02*
X82084000Y-49228548D01*
%TO.N,/CLK_16M_BUF*%
X82936000Y-45461000D02*
X82936000Y-45080880D01*
X82936000Y-45080880D02*
X83548532Y-44468348D01*
%TO.N,/SRAM_VCC*%
D28*
X89056384Y-63370400D02*
X89537736Y-63370400D01*
X89462632Y-65552400D02*
X90054400Y-64960632D01*
X89537736Y-63370400D02*
X90054400Y-63887064D01*
X90054400Y-64960632D02*
X90054400Y-63887064D01*
X88922400Y-65552400D02*
X89462632Y-65552400D01*
X88107532Y-62421548D02*
X89056384Y-63370400D01*
%TD*%
%TA.AperFunction,Conductor*%
%TO.N,GND*%
G36*
X91798270Y-69844717D02*
G01*
X91798270Y-69844716D01*
X91798347Y-69844612D01*
X91853677Y-69801947D01*
X91923291Y-69795968D01*
X91985086Y-69828574D01*
X91986346Y-69829817D01*
X92160982Y-70004453D01*
X92194467Y-70065776D01*
X92194918Y-70116325D01*
X92168500Y-70249136D01*
X92168500Y-70456863D01*
X92209022Y-70660578D01*
X92209025Y-70660590D01*
X92288511Y-70852488D01*
X92288512Y-70852490D01*
X92403916Y-71025203D01*
X92403919Y-71025207D01*
X92550792Y-71172080D01*
X92550796Y-71172083D01*
X92723507Y-71287486D01*
X92723508Y-71287486D01*
X92723509Y-71287487D01*
X92723511Y-71287488D01*
X92909091Y-71364357D01*
X92915414Y-71366976D01*
X93119136Y-71407499D01*
X93119139Y-71407500D01*
X93119141Y-71407500D01*
X93326861Y-71407500D01*
X93326862Y-71407499D01*
X93530586Y-71366976D01*
X93722493Y-71287486D01*
X93895204Y-71172083D01*
X93901983Y-71165304D01*
X93980819Y-71086469D01*
X94042142Y-71052984D01*
X94111834Y-71057968D01*
X94167767Y-71099840D01*
X94192184Y-71165304D01*
X94192500Y-71174150D01*
X94192500Y-72071850D01*
X94172815Y-72138889D01*
X94120011Y-72184644D01*
X94050853Y-72194588D01*
X93987297Y-72165563D01*
X93980819Y-72159531D01*
X93895207Y-72073919D01*
X93895203Y-72073916D01*
X93722490Y-71958512D01*
X93722488Y-71958511D01*
X93530590Y-71879025D01*
X93530578Y-71879022D01*
X93326862Y-71838500D01*
X93326859Y-71838500D01*
X93119141Y-71838500D01*
X93119138Y-71838500D01*
X92915421Y-71879022D01*
X92915409Y-71879025D01*
X92723511Y-71958511D01*
X92723509Y-71958512D01*
X92550796Y-72073916D01*
X92550792Y-72073919D01*
X92403919Y-72220792D01*
X92403916Y-72220796D01*
X92288512Y-72393509D01*
X92288511Y-72393511D01*
X92209025Y-72585409D01*
X92209022Y-72585421D01*
X92168500Y-72789136D01*
X92168500Y-72996863D01*
X92209022Y-73200578D01*
X92209025Y-73200590D01*
X92288511Y-73392488D01*
X92288512Y-73392490D01*
X92403916Y-73565203D01*
X92403919Y-73565207D01*
X92489531Y-73650819D01*
X92523016Y-73712142D01*
X92518032Y-73781834D01*
X92476160Y-73837767D01*
X92410696Y-73862184D01*
X92401850Y-73862500D01*
X78804150Y-73862500D01*
X78737111Y-73842815D01*
X78691356Y-73790011D01*
X78681412Y-73720853D01*
X78710437Y-73657297D01*
X78716469Y-73650819D01*
X78802080Y-73565207D01*
X78802083Y-73565204D01*
X78917486Y-73392493D01*
X78996976Y-73200586D01*
X79037500Y-72996859D01*
X79037500Y-72789141D01*
X79037500Y-72789138D01*
X79037499Y-72789136D01*
X79025239Y-72727500D01*
X78996976Y-72585414D01*
X78996974Y-72585409D01*
X78917488Y-72393511D01*
X78917487Y-72393509D01*
X78883426Y-72342534D01*
X78802083Y-72220796D01*
X78802080Y-72220792D01*
X78655207Y-72073919D01*
X78655203Y-72073916D01*
X78482490Y-71958512D01*
X78482488Y-71958511D01*
X78290590Y-71879025D01*
X78290578Y-71879022D01*
X78086862Y-71838500D01*
X78086859Y-71838500D01*
X77879141Y-71838500D01*
X77879138Y-71838500D01*
X77675421Y-71879022D01*
X77675409Y-71879025D01*
X77483511Y-71958511D01*
X77483509Y-71958512D01*
X77310796Y-72073916D01*
X77310792Y-72073919D01*
X77225181Y-72159531D01*
X77163858Y-72193016D01*
X77094166Y-72188032D01*
X77038233Y-72146160D01*
X77013816Y-72080696D01*
X77013500Y-72071850D01*
X77013500Y-71174150D01*
X77033185Y-71107111D01*
X77085989Y-71061356D01*
X77155147Y-71051412D01*
X77218703Y-71080437D01*
X77225181Y-71086469D01*
X77310792Y-71172080D01*
X77310796Y-71172083D01*
X77483507Y-71287486D01*
X77483508Y-71287486D01*
X77483509Y-71287487D01*
X77483511Y-71287488D01*
X77669091Y-71364357D01*
X77675414Y-71366976D01*
X77879136Y-71407499D01*
X77879139Y-71407500D01*
X77879141Y-71407500D01*
X78086861Y-71407500D01*
X78086862Y-71407499D01*
X78290586Y-71366976D01*
X78482493Y-71287486D01*
X78655204Y-71172083D01*
X78802083Y-71025204D01*
X78917486Y-70852493D01*
X78929653Y-70823119D01*
X78933842Y-70813007D01*
X78977683Y-70758603D01*
X79043977Y-70736538D01*
X79111676Y-70753817D01*
X79136084Y-70772778D01*
X79382181Y-71018875D01*
X79415666Y-71080198D01*
X79418500Y-71106556D01*
X79418500Y-72498063D01*
X79433266Y-72572301D01*
X79489515Y-72656484D01*
X79523234Y-72679014D01*
X79573699Y-72712734D01*
X79573702Y-72712734D01*
X79573703Y-72712735D01*
X79598666Y-72717700D01*
X79647933Y-72727500D01*
X81398066Y-72727499D01*
X81472301Y-72712734D01*
X81556484Y-72656484D01*
X81612734Y-72572301D01*
X81617980Y-72545926D01*
X81650362Y-72484017D01*
X81711077Y-72449441D01*
X81780847Y-72453179D01*
X81827278Y-72482436D01*
X82675519Y-73330677D01*
X82675529Y-73330688D01*
X82679859Y-73335018D01*
X82679860Y-73335019D01*
X82750517Y-73405676D01*
X82837054Y-73455638D01*
X82933574Y-73481501D01*
X82933576Y-73481501D01*
X83041094Y-73481501D01*
X83041110Y-73481500D01*
X88698048Y-73481500D01*
X88698064Y-73481501D01*
X88705660Y-73481501D01*
X88805583Y-73481501D01*
X88805584Y-73481501D01*
X88881702Y-73461104D01*
X88881704Y-73461104D01*
X88894637Y-73457638D01*
X88902104Y-73455638D01*
X88988641Y-73405676D01*
X89059298Y-73335019D01*
X89059298Y-73335017D01*
X89069502Y-73324814D01*
X89069505Y-73324809D01*
X89868532Y-72525783D01*
X89929853Y-72492300D01*
X89999545Y-72497284D01*
X90029095Y-72513147D01*
X90104116Y-72567653D01*
X90138988Y-72585421D01*
X90259021Y-72646581D01*
X90424358Y-72700302D01*
X90424359Y-72700302D01*
X90424362Y-72700303D01*
X90596074Y-72727500D01*
X90596075Y-72727500D01*
X90769925Y-72727500D01*
X90769926Y-72727500D01*
X90941638Y-72700303D01*
X90941641Y-72700302D01*
X90941642Y-72700302D01*
X91106978Y-72646581D01*
X91106978Y-72646580D01*
X91106981Y-72646580D01*
X91261884Y-72567653D01*
X91402533Y-72465465D01*
X91525465Y-72342533D01*
X91627653Y-72201884D01*
X91706580Y-72046981D01*
X91760303Y-71881638D01*
X91787500Y-71709926D01*
X91787500Y-71536074D01*
X91760303Y-71364362D01*
X91760302Y-71364358D01*
X91760302Y-71364357D01*
X91706581Y-71199021D01*
X91689401Y-71165304D01*
X91627653Y-71044116D01*
X91525465Y-70903467D01*
X91402533Y-70780535D01*
X91261884Y-70678347D01*
X91106981Y-70599420D01*
X91106980Y-70599419D01*
X91106975Y-70599417D01*
X91102478Y-70597554D01*
X91103073Y-70596115D01*
X91051069Y-70560539D01*
X91023884Y-70496174D01*
X91035813Y-70427331D01*
X91083069Y-70375865D01*
X91108762Y-70364134D01*
X91201221Y-70334093D01*
X91390554Y-70237622D01*
X91444716Y-70198270D01*
X91444717Y-70198270D01*
X90812409Y-69565962D01*
X90875993Y-69548925D01*
X90990007Y-69483099D01*
X91083099Y-69390007D01*
X91148925Y-69275993D01*
X91165962Y-69212409D01*
X91798270Y-69844717D01*
G37*
%TD.AperFunction*%
%TA.AperFunction,Conductor*%
G36*
X80875337Y-60443439D02*
G01*
X80900895Y-60456519D01*
X80974978Y-60506020D01*
X80974979Y-60506020D01*
X80974980Y-60506021D01*
X80974982Y-60506022D01*
X81000984Y-60516792D01*
X81094089Y-60555357D01*
X81094091Y-60555357D01*
X81094096Y-60555359D01*
X81220532Y-60580508D01*
X81220536Y-60580509D01*
X81220537Y-60580509D01*
X81349464Y-60580509D01*
X81349465Y-60580508D01*
X81400742Y-60570309D01*
X81475903Y-60555359D01*
X81475906Y-60555357D01*
X81475911Y-60555357D01*
X81595022Y-60506020D01*
X81653109Y-60467206D01*
X81719786Y-60446329D01*
X81787167Y-60464813D01*
X81833857Y-60516792D01*
X81846000Y-60570309D01*
X81846000Y-61349844D01*
X81852401Y-61409372D01*
X81852403Y-61409379D01*
X81902645Y-61544086D01*
X81902649Y-61544093D01*
X81988809Y-61659187D01*
X81988812Y-61659190D01*
X82103906Y-61745350D01*
X82103913Y-61745354D01*
X82238620Y-61795596D01*
X82238627Y-61795598D01*
X82298155Y-61801999D01*
X82298172Y-61802000D01*
X82346000Y-61802000D01*
X82346000Y-60791362D01*
X82365685Y-60724323D01*
X82418489Y-60678568D01*
X82487647Y-60668624D01*
X82551203Y-60697649D01*
X82557681Y-60703681D01*
X82570588Y-60716588D01*
X82584540Y-60720685D01*
X82630295Y-60773489D01*
X82641501Y-60825000D01*
X82641501Y-61327066D01*
X82652853Y-61384140D01*
X82656266Y-61401301D01*
X82705102Y-61474388D01*
X82725980Y-61541065D01*
X82726000Y-61543279D01*
X82726000Y-61802000D01*
X82773828Y-61802000D01*
X82773844Y-61801999D01*
X82833372Y-61795598D01*
X82833379Y-61795596D01*
X82968086Y-61745354D01*
X82968088Y-61745352D01*
X83083186Y-61659190D01*
X83083187Y-61659189D01*
X83122865Y-61606188D01*
X83178799Y-61564317D01*
X83222130Y-61556499D01*
X83301066Y-61556499D01*
X83301067Y-61556499D01*
X83301068Y-61556498D01*
X83316199Y-61553488D01*
X83336808Y-61549390D01*
X83385190Y-61549390D01*
X83420933Y-61556500D01*
X83851066Y-61556499D01*
X83866199Y-61553488D01*
X83886808Y-61549390D01*
X83935190Y-61549390D01*
X83970933Y-61556500D01*
X84401066Y-61556499D01*
X84416199Y-61553488D01*
X84436808Y-61549390D01*
X84485190Y-61549390D01*
X84520933Y-61556500D01*
X84599868Y-61556499D01*
X84666905Y-61576183D01*
X84699133Y-61606188D01*
X84738805Y-61659182D01*
X84738814Y-61659191D01*
X84853906Y-61745350D01*
X84853913Y-61745354D01*
X84988620Y-61795596D01*
X84988627Y-61795598D01*
X85048155Y-61801999D01*
X85048172Y-61802000D01*
X85096000Y-61802000D01*
X85096000Y-61543279D01*
X85115685Y-61476240D01*
X85116898Y-61474388D01*
X85137524Y-61443519D01*
X85165734Y-61401301D01*
X85180500Y-61327067D01*
X85180500Y-60825000D01*
X85200185Y-60757961D01*
X85252989Y-60712206D01*
X85304500Y-60701000D01*
X85352000Y-60701000D01*
X85419039Y-60720685D01*
X85464794Y-60773489D01*
X85476000Y-60825000D01*
X85476000Y-61802000D01*
X85523821Y-61802000D01*
X85523828Y-61801999D01*
X85547741Y-61799428D01*
X85574259Y-61799428D01*
X85598171Y-61801999D01*
X85598179Y-61802000D01*
X85646000Y-61802000D01*
X85646000Y-60825000D01*
X85665685Y-60757961D01*
X85718489Y-60712206D01*
X85770000Y-60701000D01*
X85817500Y-60701000D01*
X85884539Y-60720685D01*
X85930294Y-60773489D01*
X85941500Y-60825000D01*
X85941500Y-61671868D01*
X85941499Y-61671886D01*
X85941499Y-61796520D01*
X85942027Y-61798489D01*
X85942030Y-61798514D01*
X85942034Y-61798514D01*
X85971792Y-61909571D01*
X86027212Y-62005563D01*
X86030310Y-62010928D01*
X86030312Y-62010931D01*
X86120135Y-62100754D01*
X86120141Y-62100759D01*
X86709518Y-62690136D01*
X86709528Y-62690147D01*
X86713858Y-62694477D01*
X86713859Y-62694478D01*
X86796618Y-62777237D01*
X86897977Y-62835756D01*
X86928270Y-62843873D01*
X87011029Y-62866049D01*
X87011031Y-62866049D01*
X87135664Y-62866049D01*
X87135680Y-62866048D01*
X87367093Y-62866048D01*
X87434132Y-62885733D01*
X87466358Y-62915735D01*
X87539988Y-63014092D01*
X87650369Y-63096723D01*
X87650371Y-63096724D01*
X87779554Y-63144906D01*
X87779553Y-63144906D01*
X87779559Y-63144908D01*
X87836668Y-63151048D01*
X88072199Y-63151048D01*
X88139238Y-63170733D01*
X88159880Y-63187367D01*
X88352418Y-63379905D01*
X88385903Y-63441228D01*
X88380919Y-63510920D01*
X88339047Y-63566853D01*
X88326738Y-63574973D01*
X88235638Y-63627569D01*
X88181906Y-63668800D01*
X88181897Y-63668808D01*
X88139125Y-63711581D01*
X88077802Y-63745066D01*
X88051444Y-63747900D01*
X87741871Y-63747900D01*
X87664884Y-63768528D01*
X87613558Y-63782281D01*
X87613557Y-63782282D01*
X87498523Y-63848696D01*
X87498518Y-63848700D01*
X87010680Y-64336538D01*
X86949357Y-64370023D01*
X86947190Y-64370474D01*
X86850786Y-64389649D01*
X86850777Y-64389652D01*
X86731672Y-64438986D01*
X86731670Y-64438987D01*
X86624470Y-64510616D01*
X86624466Y-64510619D01*
X86533309Y-64601776D01*
X86533306Y-64601780D01*
X86461677Y-64708980D01*
X86461676Y-64708982D01*
X86412342Y-64828087D01*
X86412339Y-64828096D01*
X86387190Y-64954532D01*
X86387190Y-65083467D01*
X86412339Y-65209903D01*
X86412342Y-65209912D01*
X86461676Y-65329017D01*
X86461677Y-65329019D01*
X86533306Y-65436219D01*
X86533309Y-65436223D01*
X86624466Y-65527380D01*
X86624470Y-65527383D01*
X86731668Y-65599011D01*
X86731669Y-65599011D01*
X86731670Y-65599012D01*
X86731672Y-65599013D01*
X86855352Y-65650242D01*
X86909756Y-65694082D01*
X86931821Y-65760376D01*
X86931900Y-65764803D01*
X86931900Y-67794026D01*
X86912215Y-67861065D01*
X86895581Y-67881707D01*
X86517324Y-68259964D01*
X86456001Y-68293449D01*
X86386309Y-68288465D01*
X86341962Y-68259964D01*
X86322535Y-68240537D01*
X86322533Y-68240535D01*
X86181884Y-68138347D01*
X86156692Y-68125511D01*
X86026978Y-68059418D01*
X85861641Y-68005697D01*
X85732854Y-67985299D01*
X85689926Y-67978500D01*
X85516074Y-67978500D01*
X85458836Y-67987565D01*
X85344360Y-68005697D01*
X85344357Y-68005697D01*
X85179021Y-68059418D01*
X85024115Y-68138347D01*
X84943869Y-68196649D01*
X84883467Y-68240535D01*
X84883465Y-68240537D01*
X84883464Y-68240537D01*
X84760537Y-68363464D01*
X84760537Y-68363465D01*
X84760535Y-68363467D01*
X84716649Y-68423869D01*
X84658347Y-68504115D01*
X84579418Y-68659021D01*
X84525697Y-68824357D01*
X84525697Y-68824360D01*
X84498500Y-68996074D01*
X84498500Y-69169925D01*
X84525697Y-69341639D01*
X84525697Y-69341642D01*
X84579418Y-69506978D01*
X84617676Y-69582063D01*
X84630572Y-69650732D01*
X84604296Y-69715473D01*
X84547189Y-69755730D01*
X84477384Y-69758722D01*
X84419510Y-69726039D01*
X84168236Y-69474765D01*
X84134751Y-69413442D01*
X84137987Y-69348763D01*
X84140303Y-69341638D01*
X84167500Y-69169926D01*
X84167500Y-68996074D01*
X84140303Y-68824362D01*
X84140302Y-68824358D01*
X84140302Y-68824357D01*
X84086581Y-68659021D01*
X84047846Y-68583000D01*
X84007653Y-68504116D01*
X83905465Y-68363467D01*
X83782533Y-68240535D01*
X83641884Y-68138347D01*
X83616692Y-68125511D01*
X83486978Y-68059418D01*
X83321641Y-68005697D01*
X83192854Y-67985299D01*
X83149926Y-67978500D01*
X82976074Y-67978500D01*
X82918836Y-67987565D01*
X82804360Y-68005697D01*
X82804357Y-68005697D01*
X82639021Y-68059418D01*
X82484115Y-68138347D01*
X82403869Y-68196649D01*
X82343467Y-68240535D01*
X82343465Y-68240537D01*
X82343464Y-68240537D01*
X82220537Y-68363464D01*
X82220537Y-68363465D01*
X82220535Y-68363467D01*
X82176649Y-68423869D01*
X82118347Y-68504115D01*
X82039417Y-68659024D01*
X82037554Y-68663522D01*
X82036118Y-68662927D01*
X82000529Y-68714939D01*
X81936162Y-68742116D01*
X81867319Y-68730180D01*
X81815858Y-68682919D01*
X81804135Y-68657237D01*
X81774096Y-68564784D01*
X81677624Y-68375449D01*
X81638270Y-68321282D01*
X81638269Y-68321282D01*
X81005962Y-68953589D01*
X80988925Y-68890007D01*
X80923099Y-68775993D01*
X80830007Y-68682901D01*
X80715993Y-68617075D01*
X80652407Y-68600036D01*
X81284716Y-67967728D01*
X81230550Y-67928375D01*
X81041215Y-67831903D01*
X80839125Y-67766241D01*
X80819310Y-67763103D01*
X80756176Y-67733172D01*
X80719246Y-67673860D01*
X80717093Y-67664821D01*
X80702350Y-67590702D01*
X80702347Y-67590693D01*
X80653013Y-67471588D01*
X80653012Y-67471586D01*
X80629233Y-67435999D01*
X80581383Y-67364386D01*
X80581380Y-67364382D01*
X80490223Y-67273225D01*
X80490219Y-67273222D01*
X80383019Y-67201593D01*
X80383017Y-67201592D01*
X80263915Y-67152259D01*
X80258079Y-67150489D01*
X80258786Y-67148157D01*
X80206381Y-67120731D01*
X80171818Y-67060008D01*
X80168500Y-67031515D01*
X80168500Y-62112780D01*
X80188185Y-62045741D01*
X80204819Y-62025099D01*
X80318068Y-61911850D01*
X80471676Y-61758243D01*
X80494319Y-61719024D01*
X80521638Y-61671706D01*
X80540427Y-61601584D01*
X80547501Y-61575186D01*
X80547501Y-61475262D01*
X80547501Y-61467667D01*
X80547500Y-61467649D01*
X80547500Y-60720126D01*
X80567185Y-60653087D01*
X80583810Y-60632454D01*
X80744327Y-60471937D01*
X80805646Y-60438455D01*
X80875337Y-60443439D01*
G37*
%TD.AperFunction*%
%TA.AperFunction,Conductor*%
G36*
X92125058Y-55300037D02*
G01*
X92180992Y-55341908D01*
X92203342Y-55392025D01*
X92209023Y-55420582D01*
X92209025Y-55420590D01*
X92288511Y-55612488D01*
X92288512Y-55612490D01*
X92403916Y-55785203D01*
X92403919Y-55785207D01*
X92550792Y-55932080D01*
X92550796Y-55932083D01*
X92723507Y-56047486D01*
X92723508Y-56047486D01*
X92723509Y-56047487D01*
X92723511Y-56047488D01*
X92915409Y-56126974D01*
X92915414Y-56126976D01*
X93119136Y-56167499D01*
X93119139Y-56167500D01*
X93119141Y-56167500D01*
X93326861Y-56167500D01*
X93326862Y-56167499D01*
X93530586Y-56126976D01*
X93722493Y-56047486D01*
X93895204Y-55932083D01*
X93901983Y-55925304D01*
X93980819Y-55846469D01*
X94042142Y-55812984D01*
X94111834Y-55817968D01*
X94167767Y-55859840D01*
X94192184Y-55925304D01*
X94192500Y-55934150D01*
X94192500Y-56831850D01*
X94172815Y-56898889D01*
X94120011Y-56944644D01*
X94050853Y-56954588D01*
X93987297Y-56925563D01*
X93980819Y-56919531D01*
X93895207Y-56833919D01*
X93895203Y-56833916D01*
X93722490Y-56718512D01*
X93722488Y-56718511D01*
X93530590Y-56639025D01*
X93530578Y-56639022D01*
X93326862Y-56598500D01*
X93326859Y-56598500D01*
X93119141Y-56598500D01*
X93119138Y-56598500D01*
X92915421Y-56639022D01*
X92915409Y-56639025D01*
X92723511Y-56718511D01*
X92723509Y-56718512D01*
X92550796Y-56833916D01*
X92550792Y-56833919D01*
X92403919Y-56980792D01*
X92403916Y-56980796D01*
X92288512Y-57153509D01*
X92288511Y-57153511D01*
X92209025Y-57345409D01*
X92209022Y-57345421D01*
X92168500Y-57549136D01*
X92168500Y-57756863D01*
X92209022Y-57960578D01*
X92209025Y-57960590D01*
X92288511Y-58152488D01*
X92288512Y-58152490D01*
X92403916Y-58325203D01*
X92403919Y-58325207D01*
X92550792Y-58472080D01*
X92550796Y-58472083D01*
X92723507Y-58587486D01*
X92723508Y-58587486D01*
X92723509Y-58587487D01*
X92723511Y-58587488D01*
X92880881Y-58652672D01*
X92915414Y-58666976D01*
X93119136Y-58707499D01*
X93119139Y-58707500D01*
X93119141Y-58707500D01*
X93326861Y-58707500D01*
X93326862Y-58707499D01*
X93530586Y-58666976D01*
X93722493Y-58587486D01*
X93895204Y-58472083D01*
X93928387Y-58438900D01*
X93980819Y-58386469D01*
X94042142Y-58352984D01*
X94111834Y-58357968D01*
X94167767Y-58399840D01*
X94192184Y-58465304D01*
X94192500Y-58474150D01*
X94192500Y-59371850D01*
X94172815Y-59438889D01*
X94120011Y-59484644D01*
X94050853Y-59494588D01*
X93987297Y-59465563D01*
X93980819Y-59459531D01*
X93895207Y-59373919D01*
X93895203Y-59373916D01*
X93722490Y-59258512D01*
X93722488Y-59258511D01*
X93530590Y-59179025D01*
X93530578Y-59179022D01*
X93326862Y-59138500D01*
X93326859Y-59138500D01*
X93119141Y-59138500D01*
X93119138Y-59138500D01*
X92915421Y-59179022D01*
X92915409Y-59179025D01*
X92723511Y-59258511D01*
X92723509Y-59258512D01*
X92550796Y-59373916D01*
X92550792Y-59373919D01*
X92403919Y-59520792D01*
X92403916Y-59520796D01*
X92288512Y-59693509D01*
X92288511Y-59693511D01*
X92209025Y-59885409D01*
X92209022Y-59885421D01*
X92168500Y-60089136D01*
X92168500Y-60296863D01*
X92209022Y-60500578D01*
X92209025Y-60500590D01*
X92288511Y-60692488D01*
X92288512Y-60692490D01*
X92403916Y-60865203D01*
X92403919Y-60865207D01*
X92550792Y-61012080D01*
X92550796Y-61012083D01*
X92723507Y-61127486D01*
X92723508Y-61127486D01*
X92723509Y-61127487D01*
X92723511Y-61127488D01*
X92888039Y-61195637D01*
X92915414Y-61206976D01*
X93119136Y-61247499D01*
X93119139Y-61247500D01*
X93119141Y-61247500D01*
X93326861Y-61247500D01*
X93326862Y-61247499D01*
X93530586Y-61206976D01*
X93722493Y-61127486D01*
X93895204Y-61012083D01*
X93901983Y-61005304D01*
X93980819Y-60926469D01*
X94042142Y-60892984D01*
X94111834Y-60897968D01*
X94167767Y-60939840D01*
X94192184Y-61005304D01*
X94192500Y-61014150D01*
X94192500Y-61911850D01*
X94172815Y-61978889D01*
X94120011Y-62024644D01*
X94050853Y-62034588D01*
X93987297Y-62005563D01*
X93980819Y-61999531D01*
X93895207Y-61913919D01*
X93895203Y-61913916D01*
X93722490Y-61798512D01*
X93722488Y-61798511D01*
X93530590Y-61719025D01*
X93530578Y-61719022D01*
X93326862Y-61678500D01*
X93326859Y-61678500D01*
X93119141Y-61678500D01*
X93119138Y-61678500D01*
X92915421Y-61719022D01*
X92915409Y-61719025D01*
X92723511Y-61798511D01*
X92723509Y-61798512D01*
X92550796Y-61913916D01*
X92550792Y-61913919D01*
X92403919Y-62060792D01*
X92403916Y-62060796D01*
X92288512Y-62233509D01*
X92288511Y-62233511D01*
X92209025Y-62425409D01*
X92209022Y-62425421D01*
X92168500Y-62629136D01*
X92168500Y-62836863D01*
X92209022Y-63040578D01*
X92209025Y-63040590D01*
X92288511Y-63232488D01*
X92288512Y-63232490D01*
X92403916Y-63405203D01*
X92403919Y-63405207D01*
X92550792Y-63552080D01*
X92550796Y-63552083D01*
X92723507Y-63667486D01*
X92723508Y-63667486D01*
X92723509Y-63667487D01*
X92723511Y-63667488D01*
X92779425Y-63690648D01*
X92915414Y-63746976D01*
X93119136Y-63787499D01*
X93119139Y-63787500D01*
X93119141Y-63787500D01*
X93326861Y-63787500D01*
X93326862Y-63787499D01*
X93530586Y-63746976D01*
X93722493Y-63667486D01*
X93895204Y-63552083D01*
X93936367Y-63510920D01*
X93980819Y-63466469D01*
X94042142Y-63432984D01*
X94111834Y-63437968D01*
X94167767Y-63479840D01*
X94192184Y-63545304D01*
X94192500Y-63554150D01*
X94192500Y-64451850D01*
X94172815Y-64518889D01*
X94120011Y-64564644D01*
X94050853Y-64574588D01*
X93987297Y-64545563D01*
X93980819Y-64539531D01*
X93895207Y-64453919D01*
X93895203Y-64453916D01*
X93722490Y-64338512D01*
X93722488Y-64338511D01*
X93530590Y-64259025D01*
X93530578Y-64259022D01*
X93326862Y-64218500D01*
X93326859Y-64218500D01*
X93119141Y-64218500D01*
X93119138Y-64218500D01*
X92915421Y-64259022D01*
X92915409Y-64259025D01*
X92723511Y-64338511D01*
X92723509Y-64338512D01*
X92550796Y-64453916D01*
X92550792Y-64453919D01*
X92403919Y-64600792D01*
X92403916Y-64600796D01*
X92288512Y-64773509D01*
X92288511Y-64773511D01*
X92209025Y-64965409D01*
X92209022Y-64965421D01*
X92168500Y-65169136D01*
X92168500Y-65376863D01*
X92209022Y-65580578D01*
X92209025Y-65580590D01*
X92288511Y-65772488D01*
X92288512Y-65772490D01*
X92403916Y-65945203D01*
X92403919Y-65945207D01*
X92550792Y-66092080D01*
X92550796Y-66092083D01*
X92723507Y-66207486D01*
X92723508Y-66207486D01*
X92723509Y-66207487D01*
X92723511Y-66207488D01*
X92779425Y-66230648D01*
X92915414Y-66286976D01*
X93119136Y-66327499D01*
X93119139Y-66327500D01*
X93119141Y-66327500D01*
X93326861Y-66327500D01*
X93326862Y-66327499D01*
X93530586Y-66286976D01*
X93722493Y-66207486D01*
X93895204Y-66092083D01*
X93901983Y-66085304D01*
X93980819Y-66006469D01*
X94042142Y-65972984D01*
X94111834Y-65977968D01*
X94167767Y-66019840D01*
X94192184Y-66085304D01*
X94192500Y-66094150D01*
X94192500Y-66991850D01*
X94172815Y-67058889D01*
X94120011Y-67104644D01*
X94050853Y-67114588D01*
X93987297Y-67085563D01*
X93980819Y-67079531D01*
X93895207Y-66993919D01*
X93895203Y-66993916D01*
X93722490Y-66878512D01*
X93722488Y-66878511D01*
X93530590Y-66799025D01*
X93530578Y-66799022D01*
X93326862Y-66758500D01*
X93326859Y-66758500D01*
X93119141Y-66758500D01*
X93119138Y-66758500D01*
X92915421Y-66799022D01*
X92915409Y-66799025D01*
X92723511Y-66878511D01*
X92723509Y-66878512D01*
X92550796Y-66993916D01*
X92550792Y-66993919D01*
X92403919Y-67140792D01*
X92403916Y-67140796D01*
X92288512Y-67313509D01*
X92288511Y-67313511D01*
X92209025Y-67505409D01*
X92209022Y-67505421D01*
X92206145Y-67519885D01*
X92173760Y-67581796D01*
X92113044Y-67616370D01*
X92043275Y-67612631D01*
X91996847Y-67583375D01*
X91599219Y-67185747D01*
X91565734Y-67124424D01*
X91562900Y-67098066D01*
X91562900Y-55811045D01*
X91582585Y-55744006D01*
X91599219Y-55723364D01*
X91795515Y-55527068D01*
X91994046Y-55328536D01*
X92055367Y-55295053D01*
X92125058Y-55300037D01*
G37*
%TD.AperFunction*%
%TA.AperFunction,Conductor*%
G36*
X89795334Y-60675180D02*
G01*
X89851267Y-60717052D01*
X89875684Y-60782516D01*
X89876000Y-60791362D01*
X89876000Y-61320527D01*
X89904698Y-61373084D01*
X89907532Y-61399442D01*
X89907532Y-62297548D01*
X89887847Y-62364587D01*
X89835043Y-62410342D01*
X89783532Y-62421548D01*
X89531532Y-62421548D01*
X89464493Y-62401863D01*
X89418738Y-62349059D01*
X89407532Y-62297548D01*
X89407532Y-61440548D01*
X89414425Y-61417071D01*
X89417115Y-61392749D01*
X89424095Y-61384140D01*
X89427217Y-61373509D01*
X89445707Y-61357486D01*
X89461121Y-61338478D01*
X89476410Y-61330882D01*
X89480021Y-61327754D01*
X89484802Y-61326713D01*
X89486852Y-61325695D01*
X89496000Y-61316548D01*
X89496000Y-60825000D01*
X89515685Y-60757961D01*
X89568489Y-60712206D01*
X89620000Y-60701000D01*
X89669229Y-60701000D01*
X89725642Y-60670196D01*
X89795334Y-60675180D01*
G37*
%TD.AperFunction*%
%TA.AperFunction,Conductor*%
G36*
X90648674Y-46649553D02*
G01*
X90669316Y-46666187D01*
X90805181Y-46802052D01*
X90838666Y-46863375D01*
X90841500Y-46889733D01*
X90841500Y-54116067D01*
X90821815Y-54183106D01*
X90805181Y-54203748D01*
X90602691Y-54406238D01*
X90541368Y-54439723D01*
X90515010Y-54442557D01*
X89675990Y-54442557D01*
X89608951Y-54422872D01*
X89607099Y-54421659D01*
X89525362Y-54367044D01*
X89525360Y-54367043D01*
X89406255Y-54317709D01*
X89406246Y-54317706D01*
X89279810Y-54292557D01*
X89279806Y-54292557D01*
X89150880Y-54292557D01*
X89150875Y-54292557D01*
X89024439Y-54317706D01*
X89024430Y-54317709D01*
X88905325Y-54367043D01*
X88905323Y-54367044D01*
X88823587Y-54421659D01*
X88756909Y-54442537D01*
X88754696Y-54442557D01*
X86210524Y-54442557D01*
X86120330Y-54466724D01*
X86082208Y-54476939D01*
X86040104Y-54501248D01*
X85967179Y-54543352D01*
X85967170Y-54543358D01*
X84809990Y-55700538D01*
X84748667Y-55734023D01*
X84746500Y-55734474D01*
X84650096Y-55753649D01*
X84650087Y-55753652D01*
X84530982Y-55802986D01*
X84530980Y-55802987D01*
X84423780Y-55874616D01*
X84423776Y-55874619D01*
X84332619Y-55965776D01*
X84332616Y-55965780D01*
X84260987Y-56072980D01*
X84260986Y-56072982D01*
X84211652Y-56192087D01*
X84211649Y-56192096D01*
X84186500Y-56318532D01*
X84186500Y-56447467D01*
X84211649Y-56573903D01*
X84211652Y-56573912D01*
X84260986Y-56693017D01*
X84260987Y-56693019D01*
X84332616Y-56800219D01*
X84332619Y-56800223D01*
X84423776Y-56891380D01*
X84423780Y-56891383D01*
X84530978Y-56963011D01*
X84530979Y-56963011D01*
X84530980Y-56963012D01*
X84530982Y-56963013D01*
X84573905Y-56980792D01*
X84650089Y-57012348D01*
X84650091Y-57012348D01*
X84650096Y-57012350D01*
X84776532Y-57037499D01*
X84776536Y-57037500D01*
X84776537Y-57037500D01*
X84905464Y-57037500D01*
X84905465Y-57037499D01*
X84947612Y-57029116D01*
X85031903Y-57012350D01*
X85031906Y-57012348D01*
X85031911Y-57012348D01*
X85151022Y-56963011D01*
X85258220Y-56891383D01*
X85349383Y-56800220D01*
X85421011Y-56693022D01*
X85470348Y-56573911D01*
X85489526Y-56477496D01*
X85521909Y-56415589D01*
X85523405Y-56414065D01*
X86449595Y-55487876D01*
X86510918Y-55454391D01*
X86537276Y-55451557D01*
X88754696Y-55451557D01*
X88821735Y-55471242D01*
X88823587Y-55472455D01*
X88865834Y-55500683D01*
X88905321Y-55527068D01*
X88905322Y-55527068D01*
X88905323Y-55527069D01*
X88905325Y-55527070D01*
X88984728Y-55559959D01*
X89024432Y-55576405D01*
X89024434Y-55576405D01*
X89024439Y-55576407D01*
X89150875Y-55601556D01*
X89150879Y-55601557D01*
X89150880Y-55601557D01*
X89279807Y-55601557D01*
X89279808Y-55601556D01*
X89321955Y-55593173D01*
X89406246Y-55576407D01*
X89406249Y-55576405D01*
X89406254Y-55576405D01*
X89525365Y-55527068D01*
X89589382Y-55484293D01*
X89607099Y-55472455D01*
X89673777Y-55451577D01*
X89675990Y-55451557D01*
X90429900Y-55451557D01*
X90496939Y-55471242D01*
X90542694Y-55524046D01*
X90553900Y-55575557D01*
X90553900Y-57749019D01*
X90534215Y-57816058D01*
X90481411Y-57861813D01*
X90412253Y-57871757D01*
X90348697Y-57842732D01*
X90342219Y-57836700D01*
X90287888Y-57782369D01*
X90287886Y-57782366D01*
X90210162Y-57704642D01*
X90210157Y-57704638D01*
X90123627Y-57654680D01*
X90123616Y-57654675D01*
X90120207Y-57653762D01*
X90117656Y-57652207D01*
X90116118Y-57651570D01*
X90116217Y-57651329D01*
X90060549Y-57617393D01*
X90049209Y-57602884D01*
X90048562Y-57601916D01*
X90041333Y-57591097D01*
X90041329Y-57591093D01*
X90041327Y-57591090D01*
X89950173Y-57499936D01*
X89950169Y-57499933D01*
X89842969Y-57428304D01*
X89842967Y-57428303D01*
X89723862Y-57378969D01*
X89723853Y-57378966D01*
X89597417Y-57353817D01*
X89597413Y-57353817D01*
X89468487Y-57353817D01*
X89468482Y-57353817D01*
X89342046Y-57378966D01*
X89342037Y-57378969D01*
X89222932Y-57428303D01*
X89222930Y-57428304D01*
X89115730Y-57499933D01*
X89115726Y-57499936D01*
X89024569Y-57591093D01*
X89024566Y-57591097D01*
X88952937Y-57698297D01*
X88952936Y-57698299D01*
X88903602Y-57817404D01*
X88903599Y-57817413D01*
X88878450Y-57943849D01*
X88878450Y-58072784D01*
X88903599Y-58199220D01*
X88903602Y-58199229D01*
X88952936Y-58318334D01*
X88952937Y-58318336D01*
X89024566Y-58425536D01*
X89024569Y-58425540D01*
X89115726Y-58516697D01*
X89115730Y-58516700D01*
X89222928Y-58588328D01*
X89222929Y-58588328D01*
X89222930Y-58588329D01*
X89222932Y-58588330D01*
X89246505Y-58598094D01*
X89342039Y-58637665D01*
X89342041Y-58637665D01*
X89342046Y-58637667D01*
X89468482Y-58662816D01*
X89468486Y-58662817D01*
X89468487Y-58662817D01*
X89597414Y-58662817D01*
X89597415Y-58662816D01*
X89648441Y-58652667D01*
X89723853Y-58637667D01*
X89723856Y-58637665D01*
X89723861Y-58637665D01*
X89842972Y-58588328D01*
X89864753Y-58573773D01*
X89931427Y-58552895D01*
X89998808Y-58571378D01*
X90021325Y-58589194D01*
X90140581Y-58708450D01*
X90174066Y-58769773D01*
X90176900Y-58796131D01*
X90176900Y-58831988D01*
X90157215Y-58899027D01*
X90104411Y-58944782D01*
X90035253Y-58954726D01*
X90009568Y-58948170D01*
X89983383Y-58938404D01*
X89983372Y-58938401D01*
X89923844Y-58932000D01*
X89876000Y-58932000D01*
X89876000Y-59975638D01*
X89856315Y-60042677D01*
X89803511Y-60088432D01*
X89734353Y-60098376D01*
X89670797Y-60069351D01*
X89667198Y-60066000D01*
X89667000Y-60066000D01*
X89620000Y-60066000D01*
X89552961Y-60046315D01*
X89507206Y-59993511D01*
X89496000Y-59942000D01*
X89496000Y-58932000D01*
X89448167Y-58932000D01*
X89424253Y-58934571D01*
X89397747Y-58934571D01*
X89373832Y-58932000D01*
X89326000Y-58932000D01*
X89326000Y-59942000D01*
X89306315Y-60009039D01*
X89253511Y-60054794D01*
X89202000Y-60066000D01*
X89070000Y-60066000D01*
X89002961Y-60046315D01*
X88957206Y-59993511D01*
X88946000Y-59942000D01*
X88946000Y-58932000D01*
X88898167Y-58932000D01*
X88874253Y-58934571D01*
X88847747Y-58934571D01*
X88823832Y-58932000D01*
X88776000Y-58932000D01*
X88776000Y-59942000D01*
X88756315Y-60009039D01*
X88703511Y-60054794D01*
X88652000Y-60066000D01*
X88520000Y-60066000D01*
X88452961Y-60046315D01*
X88407206Y-59993511D01*
X88396000Y-59942000D01*
X88396000Y-58932000D01*
X88348167Y-58932000D01*
X88324253Y-58934571D01*
X88297747Y-58934571D01*
X88273832Y-58932000D01*
X88226000Y-58932000D01*
X88226000Y-59942000D01*
X88206315Y-60009039D01*
X88153511Y-60054794D01*
X88102000Y-60066000D01*
X87970000Y-60066000D01*
X87902961Y-60046315D01*
X87857206Y-59993511D01*
X87846000Y-59942000D01*
X87846000Y-58932000D01*
X87798167Y-58932000D01*
X87774253Y-58934571D01*
X87747747Y-58934571D01*
X87723832Y-58932000D01*
X87676000Y-58932000D01*
X87676000Y-59942000D01*
X87656315Y-60009039D01*
X87603511Y-60054794D01*
X87552000Y-60066000D01*
X87504499Y-60066000D01*
X87437460Y-60046315D01*
X87391705Y-59993511D01*
X87380499Y-59942000D01*
X87380499Y-59406936D01*
X87380499Y-59406934D01*
X87365734Y-59332699D01*
X87365733Y-59332697D01*
X87365732Y-59332695D01*
X87336398Y-59288794D01*
X87315520Y-59222117D01*
X87315500Y-59219903D01*
X87315500Y-57191861D01*
X87335185Y-57124822D01*
X87351819Y-57104179D01*
X87353216Y-57102781D01*
X87353220Y-57102779D01*
X87444383Y-57011616D01*
X87516011Y-56904418D01*
X87565348Y-56785307D01*
X87566087Y-56781596D01*
X87590499Y-56658863D01*
X87590500Y-56658860D01*
X87590500Y-56529932D01*
X87590499Y-56529928D01*
X87565350Y-56403492D01*
X87565347Y-56403483D01*
X87561289Y-56393687D01*
X87516011Y-56284374D01*
X87444383Y-56177176D01*
X87444380Y-56177172D01*
X87353223Y-56086015D01*
X87353219Y-56086012D01*
X87246019Y-56014383D01*
X87246017Y-56014382D01*
X87126912Y-55965048D01*
X87126903Y-55965045D01*
X87000467Y-55939896D01*
X87000463Y-55939896D01*
X86871537Y-55939896D01*
X86871532Y-55939896D01*
X86745096Y-55965045D01*
X86745087Y-55965048D01*
X86625982Y-56014382D01*
X86625980Y-56014383D01*
X86518780Y-56086012D01*
X86518776Y-56086015D01*
X86427619Y-56177172D01*
X86427616Y-56177176D01*
X86355987Y-56284376D01*
X86355986Y-56284378D01*
X86306652Y-56403483D01*
X86306649Y-56403492D01*
X86281500Y-56529928D01*
X86281500Y-56658863D01*
X86306649Y-56785299D01*
X86306652Y-56785308D01*
X86355986Y-56904413D01*
X86355987Y-56904415D01*
X86427615Y-57011614D01*
X86427616Y-57011615D01*
X86427617Y-57011616D01*
X86518780Y-57102779D01*
X86518782Y-57102780D01*
X86520181Y-57104179D01*
X86553666Y-57165502D01*
X86556500Y-57191861D01*
X86556500Y-58956829D01*
X86536815Y-59023868D01*
X86484011Y-59069623D01*
X86414853Y-59079567D01*
X86358189Y-59056096D01*
X86268088Y-58988646D01*
X86268086Y-58988645D01*
X86133379Y-58938403D01*
X86133372Y-58938401D01*
X86073844Y-58932000D01*
X86026000Y-58932000D01*
X86026000Y-59190721D01*
X86006315Y-59257760D01*
X86005102Y-59259612D01*
X85956265Y-59332699D01*
X85956264Y-59332703D01*
X85941500Y-59406928D01*
X85941500Y-59942000D01*
X85921815Y-60009039D01*
X85869011Y-60054794D01*
X85817500Y-60066000D01*
X85770000Y-60066000D01*
X85702961Y-60046315D01*
X85657206Y-59993511D01*
X85646000Y-59942000D01*
X85646000Y-58932000D01*
X85598167Y-58932000D01*
X85574253Y-58934571D01*
X85547747Y-58934571D01*
X85523832Y-58932000D01*
X85476000Y-58932000D01*
X85476000Y-59942000D01*
X85456315Y-60009039D01*
X85403511Y-60054794D01*
X85352000Y-60066000D01*
X85304499Y-60066000D01*
X85237460Y-60046315D01*
X85191705Y-59993511D01*
X85180499Y-59942000D01*
X85180499Y-59406936D01*
X85180499Y-59406934D01*
X85165734Y-59332699D01*
X85165733Y-59332697D01*
X85165732Y-59332695D01*
X85136398Y-59288794D01*
X85115520Y-59222117D01*
X85115500Y-59219903D01*
X85115500Y-58971916D01*
X85135185Y-58904877D01*
X85170608Y-58868814D01*
X85197220Y-58851033D01*
X85288383Y-58759870D01*
X85360011Y-58652672D01*
X85409348Y-58533561D01*
X85412596Y-58517236D01*
X85434499Y-58407117D01*
X85434500Y-58407111D01*
X85434500Y-58278186D01*
X85434499Y-58278182D01*
X85409350Y-58151746D01*
X85409347Y-58151737D01*
X85360013Y-58032632D01*
X85360012Y-58032630D01*
X85288383Y-57925430D01*
X85288380Y-57925426D01*
X85197223Y-57834269D01*
X85197219Y-57834266D01*
X85090019Y-57762637D01*
X85090017Y-57762636D01*
X84970912Y-57713302D01*
X84970903Y-57713299D01*
X84844467Y-57688150D01*
X84844463Y-57688150D01*
X84715537Y-57688150D01*
X84715532Y-57688150D01*
X84589096Y-57713299D01*
X84589087Y-57713302D01*
X84469982Y-57762636D01*
X84469980Y-57762637D01*
X84362780Y-57834266D01*
X84362776Y-57834269D01*
X84271619Y-57925426D01*
X84271616Y-57925430D01*
X84199989Y-58032628D01*
X84197191Y-58037862D01*
X84148223Y-58087701D01*
X84080084Y-58103155D01*
X84014407Y-58079317D01*
X84000157Y-58067079D01*
X82993245Y-57060167D01*
X82959760Y-56998844D01*
X82956926Y-56972486D01*
X82956926Y-56856439D01*
X82976611Y-56789400D01*
X82993245Y-56768757D01*
X82994642Y-56767359D01*
X82994646Y-56767357D01*
X83085809Y-56676194D01*
X83157437Y-56568996D01*
X83206774Y-56449885D01*
X83208349Y-56441971D01*
X83231925Y-56323441D01*
X83231926Y-56323438D01*
X83231926Y-56194510D01*
X83231925Y-56194506D01*
X83206776Y-56068070D01*
X83206773Y-56068061D01*
X83157439Y-55948956D01*
X83157438Y-55948954D01*
X83147546Y-55934150D01*
X83085809Y-55841754D01*
X83085806Y-55841750D01*
X82994649Y-55750593D01*
X82994645Y-55750590D01*
X82887445Y-55678961D01*
X82887443Y-55678960D01*
X82768338Y-55629626D01*
X82768329Y-55629623D01*
X82641893Y-55604474D01*
X82641889Y-55604474D01*
X82512963Y-55604474D01*
X82512958Y-55604474D01*
X82386522Y-55629623D01*
X82386513Y-55629626D01*
X82267408Y-55678960D01*
X82267406Y-55678961D01*
X82160206Y-55750590D01*
X82160202Y-55750593D01*
X82069045Y-55841750D01*
X82069042Y-55841754D01*
X81997413Y-55948954D01*
X81997412Y-55948956D01*
X81948078Y-56068061D01*
X81948075Y-56068070D01*
X81922926Y-56194506D01*
X81922926Y-56280893D01*
X81903241Y-56347932D01*
X81850437Y-56393687D01*
X81781279Y-56403631D01*
X81717723Y-56374606D01*
X81711245Y-56368574D01*
X81697052Y-56354381D01*
X81697048Y-56354378D01*
X81589848Y-56282749D01*
X81589846Y-56282748D01*
X81470741Y-56233414D01*
X81470732Y-56233411D01*
X81344296Y-56208262D01*
X81344292Y-56208262D01*
X81215366Y-56208262D01*
X81215361Y-56208262D01*
X81088925Y-56233411D01*
X81088916Y-56233414D01*
X80969811Y-56282748D01*
X80969809Y-56282749D01*
X80862609Y-56354378D01*
X80862605Y-56354381D01*
X80771448Y-56445538D01*
X80771445Y-56445542D01*
X80699816Y-56552742D01*
X80699815Y-56552744D01*
X80650481Y-56671849D01*
X80650478Y-56671858D01*
X80625329Y-56798294D01*
X80625329Y-56927229D01*
X80650478Y-57053665D01*
X80650481Y-57053674D01*
X80699815Y-57172779D01*
X80699816Y-57172781D01*
X80771445Y-57279981D01*
X80771448Y-57279985D01*
X80866916Y-57375453D01*
X80865029Y-57377339D01*
X80897846Y-57425594D01*
X80899665Y-57495440D01*
X80867501Y-57551295D01*
X80776616Y-57642180D01*
X80704987Y-57749380D01*
X80704986Y-57749382D01*
X80655652Y-57868487D01*
X80655649Y-57868496D01*
X80630500Y-57994932D01*
X80630500Y-58123867D01*
X80655649Y-58250303D01*
X80655652Y-58250312D01*
X80704986Y-58369417D01*
X80704987Y-58369419D01*
X80765720Y-58460312D01*
X80786598Y-58526990D01*
X80768113Y-58594370D01*
X80765720Y-58598094D01*
X80704987Y-58688986D01*
X80704986Y-58688988D01*
X80655652Y-58808093D01*
X80655649Y-58808102D01*
X80630499Y-58934543D01*
X80629966Y-58939955D01*
X80603801Y-59004740D01*
X80594245Y-59015473D01*
X79487325Y-60122392D01*
X79487321Y-60122397D01*
X79437362Y-60208930D01*
X79437362Y-60208931D01*
X79424430Y-60257191D01*
X79413802Y-60296859D01*
X79411499Y-60305452D01*
X79411499Y-60376151D01*
X79391814Y-60443190D01*
X79339010Y-60488945D01*
X79269852Y-60498889D01*
X79263309Y-60497769D01*
X79204517Y-60486075D01*
X79168959Y-60479002D01*
X79152364Y-60479002D01*
X79133297Y-60473403D01*
X79113437Y-60472733D01*
X79100460Y-60463761D01*
X79085325Y-60459317D01*
X79072312Y-60444299D01*
X79055966Y-60432998D01*
X79049899Y-60418434D01*
X79039570Y-60406513D01*
X79036741Y-60386844D01*
X79029101Y-60368500D01*
X79031871Y-60352970D01*
X79029626Y-60337355D01*
X79030747Y-60330810D01*
X79037500Y-60296861D01*
X79037500Y-60089138D01*
X79037499Y-60089136D01*
X79037359Y-60088432D01*
X78996976Y-59885414D01*
X78952500Y-59778038D01*
X78917488Y-59693511D01*
X78917487Y-59693509D01*
X78802083Y-59520796D01*
X78802080Y-59520792D01*
X78655207Y-59373919D01*
X78655203Y-59373916D01*
X78482490Y-59258512D01*
X78482488Y-59258511D01*
X78290590Y-59179025D01*
X78290578Y-59179022D01*
X78086862Y-59138500D01*
X78086859Y-59138500D01*
X77879141Y-59138500D01*
X77879138Y-59138500D01*
X77675421Y-59179022D01*
X77675409Y-59179025D01*
X77483511Y-59258511D01*
X77483509Y-59258512D01*
X77310796Y-59373916D01*
X77310792Y-59373919D01*
X77225181Y-59459531D01*
X77163858Y-59493016D01*
X77094166Y-59488032D01*
X77038233Y-59446160D01*
X77013816Y-59380696D01*
X77013500Y-59371850D01*
X77013500Y-58474150D01*
X77033185Y-58407111D01*
X77085989Y-58361356D01*
X77155147Y-58351412D01*
X77218703Y-58380437D01*
X77225181Y-58386469D01*
X77310792Y-58472080D01*
X77310796Y-58472083D01*
X77483507Y-58587486D01*
X77483508Y-58587486D01*
X77483509Y-58587487D01*
X77483511Y-58587488D01*
X77640881Y-58652672D01*
X77675414Y-58666976D01*
X77879136Y-58707499D01*
X77879139Y-58707500D01*
X77879141Y-58707500D01*
X78086861Y-58707500D01*
X78086862Y-58707499D01*
X78290586Y-58666976D01*
X78482493Y-58587486D01*
X78655204Y-58472083D01*
X78802083Y-58325204D01*
X78917486Y-58152493D01*
X78996976Y-57960586D01*
X79037500Y-57756859D01*
X79037500Y-57549141D01*
X79037500Y-57549138D01*
X79037499Y-57549136D01*
X79023625Y-57479389D01*
X78996976Y-57345414D01*
X78978978Y-57301964D01*
X78971510Y-57232498D01*
X79002784Y-57170019D01*
X79005830Y-57166862D01*
X80389875Y-55782819D01*
X80451198Y-55749334D01*
X80477556Y-55746500D01*
X81227426Y-55746500D01*
X81227442Y-55746501D01*
X81235038Y-55746501D01*
X81334961Y-55746501D01*
X81334962Y-55746501D01*
X81411080Y-55726104D01*
X81411082Y-55726104D01*
X81424015Y-55722638D01*
X81431482Y-55720638D01*
X81518019Y-55670676D01*
X81588676Y-55600019D01*
X81588676Y-55600017D01*
X81598880Y-55589814D01*
X81598884Y-55589809D01*
X82294622Y-54894071D01*
X82294627Y-54894067D01*
X82304830Y-54883863D01*
X82304832Y-54883863D01*
X82375489Y-54813206D01*
X82410637Y-54752328D01*
X82425452Y-54726668D01*
X82451314Y-54630149D01*
X82451314Y-54530225D01*
X82451314Y-54522630D01*
X82451313Y-54522612D01*
X82451313Y-52166853D01*
X82451313Y-52166851D01*
X82425451Y-52070331D01*
X82375489Y-51983794D01*
X82304832Y-51913137D01*
X82304831Y-51913136D01*
X82300501Y-51908806D01*
X82300490Y-51908796D01*
X82122819Y-51731125D01*
X82089334Y-51669802D01*
X82086500Y-51643444D01*
X82086500Y-50267761D01*
X82106185Y-50200722D01*
X82158989Y-50154967D01*
X82228147Y-50145023D01*
X82234687Y-50146143D01*
X82294535Y-50158047D01*
X82294536Y-50158048D01*
X82294537Y-50158048D01*
X82423464Y-50158048D01*
X82423465Y-50158047D01*
X82483309Y-50146144D01*
X82549903Y-50132898D01*
X82549906Y-50132896D01*
X82549911Y-50132896D01*
X82669022Y-50083559D01*
X82776220Y-50011931D01*
X82867383Y-49920768D01*
X82939011Y-49813570D01*
X82988348Y-49694459D01*
X83013500Y-49568011D01*
X83013500Y-49439085D01*
X83013275Y-49437957D01*
X82988350Y-49312644D01*
X82988347Y-49312635D01*
X82939013Y-49193530D01*
X82939012Y-49193528D01*
X82916898Y-49160432D01*
X82896020Y-49093754D01*
X82896000Y-49091541D01*
X82896000Y-48252000D01*
X82915685Y-48184961D01*
X82968489Y-48139206D01*
X83020000Y-48128000D01*
X83152000Y-48128000D01*
X83219039Y-48147685D01*
X83264794Y-48200489D01*
X83276000Y-48252000D01*
X83276000Y-49262000D01*
X83323821Y-49262000D01*
X83323828Y-49261999D01*
X83347741Y-49259428D01*
X83374259Y-49259428D01*
X83398171Y-49261999D01*
X83398179Y-49262000D01*
X83446000Y-49262000D01*
X83446000Y-48252000D01*
X83465685Y-48184961D01*
X83518489Y-48139206D01*
X83570000Y-48128000D01*
X83617501Y-48128000D01*
X83684540Y-48147685D01*
X83730295Y-48200489D01*
X83741501Y-48252000D01*
X83741501Y-48787066D01*
X83754176Y-48850793D01*
X83756266Y-48861301D01*
X83805102Y-48934388D01*
X83825980Y-49001065D01*
X83826000Y-49003279D01*
X83826000Y-49262000D01*
X83873828Y-49262000D01*
X83873844Y-49261999D01*
X83933372Y-49255598D01*
X83933379Y-49255596D01*
X84068086Y-49205354D01*
X84068088Y-49205352D01*
X84183186Y-49119190D01*
X84183187Y-49119189D01*
X84222865Y-49066188D01*
X84278799Y-49024317D01*
X84322130Y-49016499D01*
X84401066Y-49016499D01*
X84401067Y-49016499D01*
X84401068Y-49016498D01*
X84416199Y-49013488D01*
X84436808Y-49009390D01*
X84485190Y-49009390D01*
X84520933Y-49016500D01*
X84951066Y-49016499D01*
X84966199Y-49013488D01*
X84986808Y-49009390D01*
X85035190Y-49009390D01*
X85070933Y-49016500D01*
X85149868Y-49016499D01*
X85216905Y-49036183D01*
X85249133Y-49066188D01*
X85288805Y-49119182D01*
X85288814Y-49119191D01*
X85403906Y-49205350D01*
X85403913Y-49205354D01*
X85538620Y-49255596D01*
X85538627Y-49255598D01*
X85598155Y-49261999D01*
X85598172Y-49262000D01*
X85646000Y-49262000D01*
X85646000Y-49003279D01*
X85648550Y-48994593D01*
X85647262Y-48985632D01*
X85664034Y-48941860D01*
X85665685Y-48936240D01*
X85666438Y-48935587D01*
X85666898Y-48934388D01*
X85715734Y-48861301D01*
X85715734Y-48861299D01*
X85720409Y-48850015D01*
X85723229Y-48851183D01*
X85746762Y-48806190D01*
X85807475Y-48771611D01*
X85877245Y-48775347D01*
X85933920Y-48816209D01*
X85949715Y-48850793D01*
X85951592Y-48850016D01*
X85956266Y-48861301D01*
X86005102Y-48934388D01*
X86008139Y-48944088D01*
X86014794Y-48951768D01*
X86018402Y-48976865D01*
X86025980Y-49001065D01*
X86026000Y-49003279D01*
X86026000Y-49262000D01*
X86073828Y-49262000D01*
X86073844Y-49261999D01*
X86133372Y-49255598D01*
X86133379Y-49255596D01*
X86268086Y-49205354D01*
X86268088Y-49205353D01*
X86358189Y-49137904D01*
X86423653Y-49113487D01*
X86491926Y-49128338D01*
X86541332Y-49177743D01*
X86556500Y-49237171D01*
X86556500Y-51371965D01*
X86536815Y-51439004D01*
X86516551Y-51461771D01*
X86517021Y-51462241D01*
X86512716Y-51466545D01*
X86512714Y-51466547D01*
X86469285Y-51509976D01*
X86421549Y-51557711D01*
X86349921Y-51664910D01*
X86349920Y-51664912D01*
X86300586Y-51784017D01*
X86300583Y-51784026D01*
X86275434Y-51910462D01*
X86275434Y-52039397D01*
X86300583Y-52165833D01*
X86300586Y-52165842D01*
X86349920Y-52284947D01*
X86349921Y-52284949D01*
X86421550Y-52392149D01*
X86421553Y-52392153D01*
X86512710Y-52483310D01*
X86512714Y-52483313D01*
X86619912Y-52554941D01*
X86619913Y-52554941D01*
X86619914Y-52554942D01*
X86619916Y-52554943D01*
X86688947Y-52583536D01*
X86739023Y-52604278D01*
X86739025Y-52604278D01*
X86739030Y-52604280D01*
X86865466Y-52629429D01*
X86865470Y-52629430D01*
X86865471Y-52629430D01*
X86994398Y-52629430D01*
X86994399Y-52629429D01*
X87036546Y-52621046D01*
X87120837Y-52604280D01*
X87120840Y-52604278D01*
X87120845Y-52604278D01*
X87239956Y-52554941D01*
X87316982Y-52503473D01*
X87383654Y-52482597D01*
X87451035Y-52501081D01*
X87454750Y-52503468D01*
X87546860Y-52565015D01*
X87546863Y-52565016D01*
X87546864Y-52565017D01*
X87591574Y-52583536D01*
X87665971Y-52614352D01*
X87665973Y-52614352D01*
X87665978Y-52614354D01*
X87792414Y-52639503D01*
X87792418Y-52639504D01*
X87792419Y-52639504D01*
X87921346Y-52639504D01*
X87921347Y-52639503D01*
X87982312Y-52627377D01*
X88047785Y-52614354D01*
X88047788Y-52614352D01*
X88047793Y-52614352D01*
X88166904Y-52565015D01*
X88251495Y-52508492D01*
X88318170Y-52487614D01*
X88385551Y-52506098D01*
X88389276Y-52508492D01*
X88391847Y-52510210D01*
X88473862Y-52565011D01*
X88518588Y-52583537D01*
X88572991Y-52627377D01*
X88595057Y-52693671D01*
X88592754Y-52722284D01*
X88592500Y-52723558D01*
X88592500Y-52852495D01*
X88617649Y-52978931D01*
X88617652Y-52978940D01*
X88666986Y-53098045D01*
X88666987Y-53098047D01*
X88738616Y-53205247D01*
X88738619Y-53205251D01*
X88829776Y-53296408D01*
X88829780Y-53296411D01*
X88936978Y-53368039D01*
X88936979Y-53368039D01*
X88936980Y-53368040D01*
X88936982Y-53368041D01*
X88995026Y-53392083D01*
X89056089Y-53417376D01*
X89056091Y-53417376D01*
X89056096Y-53417378D01*
X89182532Y-53442527D01*
X89182536Y-53442528D01*
X89182537Y-53442528D01*
X89311464Y-53442528D01*
X89311465Y-53442527D01*
X89353612Y-53434144D01*
X89437903Y-53417378D01*
X89437906Y-53417376D01*
X89437911Y-53417376D01*
X89557022Y-53368039D01*
X89664220Y-53296411D01*
X89755383Y-53205248D01*
X89827011Y-53098050D01*
X89876348Y-52978939D01*
X89901500Y-52852491D01*
X89901500Y-52723565D01*
X89895554Y-52693671D01*
X89876350Y-52597124D01*
X89876347Y-52597115D01*
X89824823Y-52472722D01*
X89815384Y-52425270D01*
X89815384Y-51664972D01*
X89815384Y-51664970D01*
X89789522Y-51568450D01*
X89739560Y-51481913D01*
X89668903Y-51411256D01*
X89668902Y-51411255D01*
X89664572Y-51406925D01*
X89664561Y-51406915D01*
X89001819Y-50744173D01*
X88968334Y-50682850D01*
X88965500Y-50656492D01*
X88965500Y-48974096D01*
X88985185Y-48907057D01*
X88986398Y-48905205D01*
X89010341Y-48869372D01*
X89015734Y-48861301D01*
X89015734Y-48861299D01*
X89015735Y-48861299D01*
X89030499Y-48787071D01*
X89030500Y-48787068D01*
X89030500Y-48252000D01*
X89050185Y-48184961D01*
X89102989Y-48139206D01*
X89154500Y-48128000D01*
X89202000Y-48128000D01*
X89269039Y-48147685D01*
X89314794Y-48200489D01*
X89326000Y-48252000D01*
X89326000Y-49262000D01*
X89373821Y-49262000D01*
X89373828Y-49261999D01*
X89397741Y-49259428D01*
X89424259Y-49259428D01*
X89448171Y-49261999D01*
X89448179Y-49262000D01*
X89496000Y-49262000D01*
X89496000Y-48252000D01*
X89515685Y-48184961D01*
X89568489Y-48139206D01*
X89620000Y-48128000D01*
X89669229Y-48128000D01*
X89725642Y-48097196D01*
X89795334Y-48102180D01*
X89851267Y-48144052D01*
X89875684Y-48209516D01*
X89876000Y-48218362D01*
X89876000Y-49262000D01*
X89923828Y-49262000D01*
X89923844Y-49261999D01*
X89983372Y-49255598D01*
X89983379Y-49255596D01*
X90118086Y-49205354D01*
X90118093Y-49205350D01*
X90233187Y-49119190D01*
X90233190Y-49119187D01*
X90319350Y-49004093D01*
X90319354Y-49004086D01*
X90369596Y-48869379D01*
X90369598Y-48869372D01*
X90375999Y-48809844D01*
X90376000Y-48809827D01*
X90376000Y-48017000D01*
X89873771Y-48017000D01*
X89817358Y-48047804D01*
X89747666Y-48042820D01*
X89691733Y-48000948D01*
X89667316Y-47935484D01*
X89667000Y-47926638D01*
X89667000Y-47897362D01*
X89686000Y-47832655D01*
X89686000Y-47761000D01*
X89705685Y-47693961D01*
X89758489Y-47648206D01*
X89810000Y-47637000D01*
X90376000Y-47637000D01*
X90376000Y-46844172D01*
X90375999Y-46844155D01*
X90369598Y-46784626D01*
X90369068Y-46782382D01*
X90369164Y-46780588D01*
X90368769Y-46776913D01*
X90369364Y-46776848D01*
X90372809Y-46712613D01*
X90413676Y-46655942D01*
X90478695Y-46630361D01*
X90489745Y-46629868D01*
X90581635Y-46629868D01*
X90648674Y-46649553D01*
G37*
%TD.AperFunction*%
%TA.AperFunction,Conductor*%
G36*
X82247951Y-58458585D02*
G01*
X82268593Y-58475219D01*
X82670181Y-58876807D01*
X82703666Y-58938130D01*
X82706500Y-58964488D01*
X82706500Y-59219904D01*
X82686815Y-59286943D01*
X82685602Y-59288795D01*
X82656265Y-59332700D01*
X82656264Y-59332701D01*
X82641500Y-59406928D01*
X82641500Y-59942000D01*
X82621815Y-60009039D01*
X82569011Y-60054794D01*
X82565426Y-60055573D01*
X82557681Y-60063319D01*
X82496358Y-60096804D01*
X82426666Y-60091820D01*
X82370733Y-60049948D01*
X82346316Y-59984484D01*
X82346000Y-59975638D01*
X82346000Y-58932000D01*
X82298155Y-58932000D01*
X82238627Y-58938401D01*
X82238617Y-58938403D01*
X82097396Y-58991075D01*
X82027705Y-58996059D01*
X81966382Y-58962573D01*
X81932898Y-58901250D01*
X81932447Y-58899084D01*
X81914350Y-58808102D01*
X81914347Y-58808093D01*
X81865013Y-58688988D01*
X81865012Y-58688986D01*
X81865011Y-58688984D01*
X81830722Y-58637667D01*
X81826795Y-58631790D01*
X81805918Y-58565113D01*
X81824403Y-58497733D01*
X81876382Y-58451043D01*
X81929898Y-58438900D01*
X82180912Y-58438900D01*
X82247951Y-58458585D01*
G37*
%TD.AperFunction*%
%TA.AperFunction,Conductor*%
G36*
X84946097Y-38923185D02*
G01*
X84991852Y-38975989D01*
X85001796Y-39045147D01*
X84977434Y-39102987D01*
X84968760Y-39114289D01*
X84902932Y-39228306D01*
X84902927Y-39228316D01*
X84852484Y-39350097D01*
X84818407Y-39477271D01*
X84801200Y-39607966D01*
X84801200Y-40239633D01*
X84818407Y-40370328D01*
X84852482Y-40497497D01*
X84852484Y-40497502D01*
X84867556Y-40533889D01*
X85619519Y-39781927D01*
X85680842Y-39748442D01*
X85750534Y-39753426D01*
X85806467Y-39795298D01*
X85830884Y-39860762D01*
X85831200Y-39869608D01*
X85831200Y-40225990D01*
X85811515Y-40293029D01*
X85794881Y-40313671D01*
X85162168Y-40946383D01*
X85162168Y-40946384D01*
X85246693Y-41011242D01*
X85360699Y-41077064D01*
X85360716Y-41077072D01*
X85482497Y-41127515D01*
X85609671Y-41161592D01*
X85740366Y-41178799D01*
X85740381Y-41178800D01*
X86356200Y-41178800D01*
X86356202Y-41178799D01*
X86428069Y-41173660D01*
X86567764Y-41132641D01*
X86637634Y-41132641D01*
X86696412Y-41170415D01*
X86725438Y-41233970D01*
X86726700Y-41251618D01*
X86726700Y-41939572D01*
X86707015Y-42006611D01*
X86674688Y-42039523D01*
X86674882Y-42039759D01*
X86672692Y-42041555D01*
X86671600Y-42042668D01*
X86670181Y-42043615D01*
X86670173Y-42043623D01*
X86579019Y-42134776D01*
X86579016Y-42134780D01*
X86507387Y-42241980D01*
X86507386Y-42241982D01*
X86458052Y-42361087D01*
X86458049Y-42361096D01*
X86432900Y-42487532D01*
X86432900Y-42616467D01*
X86458049Y-42742903D01*
X86458052Y-42742912D01*
X86507386Y-42862017D01*
X86507387Y-42862019D01*
X86579016Y-42969219D01*
X86579019Y-42969223D01*
X86670176Y-43060380D01*
X86670180Y-43060383D01*
X86777378Y-43132011D01*
X86777379Y-43132011D01*
X86777380Y-43132012D01*
X86777382Y-43132013D01*
X86797720Y-43140437D01*
X86896489Y-43181348D01*
X87010367Y-43203999D01*
X87072276Y-43236383D01*
X87106850Y-43297099D01*
X87103111Y-43366868D01*
X87073855Y-43413297D01*
X84102891Y-46384260D01*
X84041568Y-46417745D01*
X83971879Y-46412762D01*
X83933378Y-46398402D01*
X83933372Y-46398401D01*
X83873844Y-46392000D01*
X83826000Y-46392000D01*
X83826000Y-46650720D01*
X83806315Y-46717759D01*
X83805102Y-46719611D01*
X83756266Y-46792699D01*
X83756264Y-46792703D01*
X83741500Y-46866928D01*
X83741500Y-47369000D01*
X83721815Y-47436039D01*
X83669011Y-47481794D01*
X83617500Y-47493000D01*
X83570000Y-47493000D01*
X83502961Y-47473315D01*
X83457206Y-47420511D01*
X83446000Y-47369000D01*
X83446000Y-46392000D01*
X83398167Y-46392000D01*
X83374253Y-46394571D01*
X83347747Y-46394571D01*
X83323832Y-46392000D01*
X83276000Y-46392000D01*
X83276000Y-47369000D01*
X83256315Y-47436039D01*
X83203511Y-47481794D01*
X83152000Y-47493000D01*
X83020000Y-47493000D01*
X82952961Y-47473315D01*
X82907206Y-47420511D01*
X82896000Y-47369000D01*
X82896000Y-46392000D01*
X82848167Y-46392000D01*
X82824253Y-46394571D01*
X82797747Y-46394571D01*
X82773832Y-46392000D01*
X82726000Y-46392000D01*
X82726000Y-47369000D01*
X82706315Y-47436039D01*
X82653511Y-47481794D01*
X82602000Y-47493000D01*
X82587500Y-47493000D01*
X82520461Y-47473315D01*
X82474706Y-47420511D01*
X82463500Y-47369000D01*
X82463500Y-46159289D01*
X82483185Y-46092250D01*
X82535989Y-46046495D01*
X82605147Y-46036551D01*
X82634951Y-46044727D01*
X82745089Y-46090348D01*
X82745091Y-46090348D01*
X82745096Y-46090350D01*
X82871532Y-46115499D01*
X82871536Y-46115500D01*
X82871537Y-46115500D01*
X83000464Y-46115500D01*
X83000465Y-46115499D01*
X83042612Y-46107116D01*
X83126903Y-46090350D01*
X83126906Y-46090348D01*
X83126911Y-46090348D01*
X83246022Y-46041011D01*
X83353220Y-45969383D01*
X83444383Y-45878220D01*
X83516011Y-45771022D01*
X83565348Y-45651911D01*
X83565448Y-45651412D01*
X83590499Y-45525467D01*
X83590500Y-45525464D01*
X83590500Y-45396536D01*
X83590499Y-45396535D01*
X83586423Y-45376040D01*
X83592650Y-45306448D01*
X83635513Y-45251271D01*
X83701402Y-45228026D01*
X83708040Y-45227848D01*
X83864358Y-45227848D01*
X83931523Y-45219005D01*
X84058690Y-45184930D01*
X84121275Y-45159007D01*
X84235289Y-45093181D01*
X84289033Y-45051941D01*
X84382125Y-44958849D01*
X84423365Y-44905105D01*
X84489191Y-44791091D01*
X84515114Y-44728506D01*
X84549189Y-44601339D01*
X84558032Y-44534174D01*
X84558032Y-43918348D01*
X84538279Y-43819042D01*
X84538278Y-43819041D01*
X84537973Y-43817505D01*
X84537973Y-43769121D01*
X84546044Y-43728544D01*
X84553032Y-43693415D01*
X84553031Y-42643282D01*
X84538266Y-42569047D01*
X84538264Y-42569044D01*
X84537972Y-42567574D01*
X84537973Y-42519193D01*
X84546770Y-42474964D01*
X84558032Y-42418348D01*
X84558032Y-41802522D01*
X84549189Y-41735357D01*
X84515114Y-41608190D01*
X84489191Y-41545605D01*
X84423365Y-41431591D01*
X84423364Y-41431589D01*
X84382131Y-41377854D01*
X84382123Y-41377845D01*
X84289034Y-41284756D01*
X84289025Y-41284748D01*
X84235290Y-41243515D01*
X84121281Y-41177692D01*
X84121277Y-41177690D01*
X84121275Y-41177689D01*
X84103714Y-41170415D01*
X84058694Y-41151767D01*
X83987316Y-41132641D01*
X83931523Y-41117691D01*
X83864358Y-41108848D01*
X83232706Y-41108848D01*
X83165549Y-41117690D01*
X83165541Y-41117691D01*
X83038369Y-41151767D01*
X82975793Y-41177687D01*
X82975782Y-41177692D01*
X82861773Y-41243515D01*
X82808038Y-41284748D01*
X82808029Y-41284756D01*
X82714940Y-41377845D01*
X82714932Y-41377854D01*
X82673699Y-41431589D01*
X82607876Y-41545598D01*
X82607871Y-41545609D01*
X82581951Y-41608185D01*
X82547875Y-41735357D01*
X82547874Y-41735363D01*
X82542505Y-41776142D01*
X82514237Y-41840038D01*
X82507247Y-41847636D01*
X82041324Y-42313559D01*
X81980001Y-42347044D01*
X81953643Y-42349878D01*
X81822732Y-42349878D01*
X81696296Y-42375027D01*
X81696287Y-42375030D01*
X81577182Y-42424364D01*
X81577180Y-42424365D01*
X81469980Y-42495994D01*
X81469976Y-42495997D01*
X81378819Y-42587154D01*
X81378816Y-42587158D01*
X81307187Y-42694358D01*
X81307186Y-42694360D01*
X81257852Y-42813465D01*
X81257849Y-42813474D01*
X81232700Y-42939910D01*
X81232700Y-43068845D01*
X81257849Y-43195281D01*
X81257852Y-43195290D01*
X81307186Y-43314395D01*
X81307187Y-43314397D01*
X81378816Y-43421597D01*
X81378819Y-43421601D01*
X81469976Y-43512758D01*
X81469980Y-43512761D01*
X81577178Y-43584389D01*
X81577179Y-43584389D01*
X81577180Y-43584390D01*
X81577182Y-43584391D01*
X81621180Y-43602615D01*
X81696289Y-43633726D01*
X81704934Y-43635445D01*
X81766845Y-43667829D01*
X81801420Y-43728544D01*
X81797682Y-43798314D01*
X81783930Y-43823679D01*
X81784387Y-43823943D01*
X81730361Y-43917517D01*
X81730362Y-43917517D01*
X81730362Y-43917518D01*
X81704499Y-44014039D01*
X81704499Y-44123951D01*
X81704500Y-44123964D01*
X81704500Y-46251456D01*
X81684815Y-46318495D01*
X81632011Y-46364250D01*
X81562853Y-46374194D01*
X81556310Y-46373074D01*
X81481521Y-46358198D01*
X81462930Y-46354500D01*
X81334004Y-46354500D01*
X81333999Y-46354500D01*
X81207563Y-46379649D01*
X81207554Y-46379652D01*
X81088449Y-46428986D01*
X81088447Y-46428987D01*
X80981247Y-46500616D01*
X80981243Y-46500619D01*
X80890086Y-46591776D01*
X80890083Y-46591780D01*
X80818454Y-46698980D01*
X80818453Y-46698982D01*
X80769119Y-46818087D01*
X80769116Y-46818096D01*
X80743967Y-46944532D01*
X80743967Y-47073467D01*
X80769116Y-47199903D01*
X80769119Y-47199912D01*
X80818453Y-47319017D01*
X80818454Y-47319019D01*
X80890083Y-47426219D01*
X80890086Y-47426223D01*
X80910682Y-47446819D01*
X80944167Y-47508142D01*
X80939183Y-47577834D01*
X80897311Y-47633767D01*
X80831847Y-47658184D01*
X80823001Y-47658500D01*
X79647936Y-47658500D01*
X79573698Y-47673266D01*
X79489515Y-47729515D01*
X79433266Y-47813699D01*
X79433264Y-47813703D01*
X79418500Y-47887928D01*
X79418500Y-49638063D01*
X79433266Y-49712301D01*
X79489515Y-49796484D01*
X79523234Y-49819014D01*
X79573699Y-49852734D01*
X79573702Y-49852734D01*
X79573703Y-49852735D01*
X79598666Y-49857700D01*
X79647933Y-49867500D01*
X81203500Y-49867499D01*
X81270539Y-49887184D01*
X81316294Y-49939987D01*
X81327500Y-49991499D01*
X81327500Y-51794425D01*
X81327499Y-51794443D01*
X81327499Y-51802038D01*
X81327499Y-51901962D01*
X81339822Y-51947949D01*
X81339822Y-51947956D01*
X81353360Y-51998477D01*
X81353363Y-51998484D01*
X81403321Y-52085015D01*
X81403325Y-52085020D01*
X81481046Y-52162741D01*
X81481052Y-52162746D01*
X81655994Y-52337688D01*
X81689479Y-52399011D01*
X81692313Y-52425369D01*
X81692313Y-54371631D01*
X81672628Y-54438670D01*
X81655994Y-54459312D01*
X81164125Y-54951181D01*
X81102802Y-54984666D01*
X81076444Y-54987500D01*
X80326574Y-54987500D01*
X80326558Y-54987499D01*
X80318962Y-54987499D01*
X80219038Y-54987499D01*
X80170778Y-55000430D01*
X80122516Y-55013362D01*
X80122515Y-55013363D01*
X80035984Y-55063321D01*
X80035979Y-55063325D01*
X79965322Y-55133983D01*
X78469165Y-56630139D01*
X78407842Y-56663624D01*
X78338150Y-56658640D01*
X78334033Y-56657020D01*
X78290588Y-56639025D01*
X78290586Y-56639024D01*
X78290584Y-56639023D01*
X78290583Y-56639023D01*
X78290578Y-56639021D01*
X78086862Y-56598500D01*
X78086859Y-56598500D01*
X77879141Y-56598500D01*
X77879138Y-56598500D01*
X77675421Y-56639022D01*
X77675409Y-56639025D01*
X77483511Y-56718511D01*
X77483509Y-56718512D01*
X77310796Y-56833916D01*
X77310792Y-56833919D01*
X77225181Y-56919531D01*
X77163858Y-56953016D01*
X77094166Y-56948032D01*
X77038233Y-56906160D01*
X77013816Y-56840696D01*
X77013500Y-56831850D01*
X77013500Y-55934150D01*
X77033185Y-55867111D01*
X77085989Y-55821356D01*
X77155147Y-55811412D01*
X77218703Y-55840437D01*
X77225181Y-55846469D01*
X77310792Y-55932080D01*
X77310796Y-55932083D01*
X77483507Y-56047486D01*
X77483508Y-56047486D01*
X77483509Y-56047487D01*
X77483511Y-56047488D01*
X77675409Y-56126974D01*
X77675414Y-56126976D01*
X77879136Y-56167499D01*
X77879139Y-56167500D01*
X77879141Y-56167500D01*
X78086861Y-56167500D01*
X78086862Y-56167499D01*
X78290586Y-56126976D01*
X78482493Y-56047486D01*
X78655204Y-55932083D01*
X78802083Y-55785204D01*
X78917486Y-55612493D01*
X78996976Y-55420586D01*
X79037500Y-55216859D01*
X79037500Y-55009141D01*
X79037500Y-55009138D01*
X79037499Y-55009136D01*
X79012581Y-54883864D01*
X78996976Y-54805414D01*
X78952500Y-54698038D01*
X78917488Y-54613511D01*
X78917487Y-54613509D01*
X78826232Y-54476938D01*
X78802083Y-54440796D01*
X78802080Y-54440792D01*
X78655207Y-54293919D01*
X78655203Y-54293916D01*
X78482490Y-54178512D01*
X78482488Y-54178511D01*
X78290590Y-54099025D01*
X78290578Y-54099022D01*
X78086862Y-54058500D01*
X78086859Y-54058500D01*
X77879141Y-54058500D01*
X77879138Y-54058500D01*
X77675421Y-54099022D01*
X77675409Y-54099025D01*
X77483511Y-54178511D01*
X77483509Y-54178512D01*
X77310796Y-54293916D01*
X77310792Y-54293919D01*
X77225181Y-54379531D01*
X77163858Y-54413016D01*
X77094166Y-54408032D01*
X77038233Y-54366160D01*
X77013816Y-54300696D01*
X77013500Y-54291850D01*
X77013500Y-53394150D01*
X77033185Y-53327111D01*
X77085989Y-53281356D01*
X77155147Y-53271412D01*
X77218703Y-53300437D01*
X77225181Y-53306469D01*
X77310792Y-53392080D01*
X77310796Y-53392083D01*
X77483507Y-53507486D01*
X77483508Y-53507486D01*
X77483509Y-53507487D01*
X77483511Y-53507488D01*
X77646733Y-53575096D01*
X77675414Y-53586976D01*
X77879136Y-53627499D01*
X77879139Y-53627500D01*
X77879141Y-53627500D01*
X78086861Y-53627500D01*
X78086862Y-53627499D01*
X78290586Y-53586976D01*
X78482493Y-53507486D01*
X78655204Y-53392083D01*
X78802083Y-53245204D01*
X78917486Y-53072493D01*
X78996976Y-52880586D01*
X79037500Y-52676859D01*
X79037500Y-52469141D01*
X79037500Y-52469138D01*
X79037499Y-52469136D01*
X79022185Y-52392149D01*
X78996976Y-52265414D01*
X78955732Y-52165841D01*
X78917488Y-52073511D01*
X78917487Y-52073509D01*
X78894691Y-52039393D01*
X78802083Y-51900796D01*
X78802080Y-51900792D01*
X78655207Y-51753919D01*
X78655203Y-51753916D01*
X78482490Y-51638512D01*
X78482488Y-51638511D01*
X78290590Y-51559025D01*
X78290578Y-51559022D01*
X78086862Y-51518500D01*
X78086859Y-51518500D01*
X77879141Y-51518500D01*
X77879138Y-51518500D01*
X77675421Y-51559022D01*
X77675409Y-51559025D01*
X77483511Y-51638511D01*
X77483509Y-51638512D01*
X77310796Y-51753916D01*
X77310792Y-51753919D01*
X77225181Y-51839531D01*
X77163858Y-51873016D01*
X77094166Y-51868032D01*
X77038233Y-51826160D01*
X77013816Y-51760696D01*
X77013500Y-51751850D01*
X77013500Y-50854150D01*
X77033185Y-50787111D01*
X77085989Y-50741356D01*
X77155147Y-50731412D01*
X77218703Y-50760437D01*
X77225181Y-50766469D01*
X77310792Y-50852080D01*
X77310796Y-50852083D01*
X77483507Y-50967486D01*
X77483508Y-50967486D01*
X77483509Y-50967487D01*
X77483511Y-50967488D01*
X77646733Y-51035096D01*
X77675414Y-51046976D01*
X77879136Y-51087499D01*
X77879139Y-51087500D01*
X77879141Y-51087500D01*
X78086861Y-51087500D01*
X78086862Y-51087499D01*
X78290586Y-51046976D01*
X78482493Y-50967486D01*
X78655204Y-50852083D01*
X78802083Y-50705204D01*
X78917486Y-50532493D01*
X78996976Y-50340586D01*
X79037500Y-50136859D01*
X79037500Y-49929141D01*
X79037500Y-49929138D01*
X79037499Y-49929136D01*
X79025239Y-49867500D01*
X78996976Y-49725414D01*
X78996974Y-49725409D01*
X78917488Y-49533511D01*
X78917487Y-49533509D01*
X78854394Y-49439085D01*
X78802083Y-49360796D01*
X78802080Y-49360792D01*
X78655207Y-49213919D01*
X78655203Y-49213916D01*
X78482490Y-49098512D01*
X78482488Y-49098511D01*
X78290590Y-49019025D01*
X78290578Y-49019022D01*
X78086862Y-48978500D01*
X78086859Y-48978500D01*
X77879141Y-48978500D01*
X77879138Y-48978500D01*
X77675421Y-49019022D01*
X77675409Y-49019025D01*
X77483511Y-49098511D01*
X77483509Y-49098512D01*
X77310796Y-49213916D01*
X77310792Y-49213919D01*
X77225181Y-49299531D01*
X77163858Y-49333016D01*
X77094166Y-49328032D01*
X77038233Y-49286160D01*
X77013816Y-49220696D01*
X77013500Y-49211850D01*
X77013500Y-48314150D01*
X77033185Y-48247111D01*
X77085989Y-48201356D01*
X77155147Y-48191412D01*
X77218703Y-48220437D01*
X77225181Y-48226469D01*
X77310792Y-48312080D01*
X77310796Y-48312083D01*
X77483507Y-48427486D01*
X77483508Y-48427486D01*
X77483509Y-48427487D01*
X77483511Y-48427488D01*
X77646733Y-48495096D01*
X77675414Y-48506976D01*
X77879136Y-48547499D01*
X77879139Y-48547500D01*
X77879141Y-48547500D01*
X78086861Y-48547500D01*
X78086862Y-48547499D01*
X78290586Y-48506976D01*
X78482493Y-48427486D01*
X78655204Y-48312083D01*
X78802083Y-48165204D01*
X78917486Y-47992493D01*
X78996976Y-47800586D01*
X79037500Y-47596859D01*
X79037500Y-47389141D01*
X79037500Y-47389138D01*
X79037499Y-47389136D01*
X79023551Y-47319017D01*
X78996976Y-47185414D01*
X78952500Y-47078038D01*
X78917488Y-46993511D01*
X78917487Y-46993509D01*
X78884761Y-46944532D01*
X78802083Y-46820796D01*
X78802080Y-46820792D01*
X78655207Y-46673919D01*
X78655203Y-46673916D01*
X78482490Y-46558512D01*
X78482488Y-46558511D01*
X78290590Y-46479025D01*
X78290578Y-46479022D01*
X78086862Y-46438500D01*
X78086859Y-46438500D01*
X77879141Y-46438500D01*
X77879138Y-46438500D01*
X77675421Y-46479022D01*
X77675409Y-46479025D01*
X77483511Y-46558511D01*
X77483509Y-46558512D01*
X77310796Y-46673916D01*
X77310792Y-46673919D01*
X77225181Y-46759531D01*
X77163858Y-46793016D01*
X77094166Y-46788032D01*
X77038233Y-46746160D01*
X77013816Y-46680696D01*
X77013500Y-46671850D01*
X77013500Y-45774150D01*
X77033185Y-45707111D01*
X77085989Y-45661356D01*
X77155147Y-45651412D01*
X77218703Y-45680437D01*
X77225181Y-45686469D01*
X77310792Y-45772080D01*
X77310796Y-45772083D01*
X77483507Y-45887486D01*
X77483508Y-45887486D01*
X77483509Y-45887487D01*
X77483511Y-45887488D01*
X77675409Y-45966974D01*
X77675414Y-45966976D01*
X77879136Y-46007499D01*
X77879139Y-46007500D01*
X77879141Y-46007500D01*
X78086861Y-46007500D01*
X78086862Y-46007499D01*
X78290586Y-45966976D01*
X78482493Y-45887486D01*
X78655204Y-45772083D01*
X78802083Y-45625204D01*
X78917486Y-45452493D01*
X78996976Y-45260586D01*
X79037500Y-45056859D01*
X79037500Y-44849141D01*
X79037500Y-44849138D01*
X79037499Y-44849136D01*
X79013504Y-44728506D01*
X78996976Y-44645414D01*
X78948556Y-44528517D01*
X78917488Y-44453511D01*
X78917487Y-44453509D01*
X78854263Y-44358889D01*
X78802083Y-44280796D01*
X78802080Y-44280792D01*
X78655207Y-44133919D01*
X78655203Y-44133916D01*
X78482490Y-44018512D01*
X78482488Y-44018511D01*
X78290590Y-43939025D01*
X78290578Y-43939022D01*
X78086862Y-43898500D01*
X78086859Y-43898500D01*
X77879141Y-43898500D01*
X77879138Y-43898500D01*
X77675421Y-43939022D01*
X77675409Y-43939025D01*
X77483511Y-44018511D01*
X77483509Y-44018512D01*
X77310796Y-44133916D01*
X77310792Y-44133919D01*
X77225181Y-44219531D01*
X77163858Y-44253016D01*
X77094166Y-44248032D01*
X77038233Y-44206160D01*
X77013816Y-44140696D01*
X77013500Y-44131850D01*
X77013500Y-43234150D01*
X77033185Y-43167111D01*
X77085989Y-43121356D01*
X77155147Y-43111412D01*
X77218703Y-43140437D01*
X77225181Y-43146469D01*
X77310792Y-43232080D01*
X77310796Y-43232083D01*
X77483507Y-43347486D01*
X77483508Y-43347486D01*
X77483509Y-43347487D01*
X77483511Y-43347488D01*
X77675409Y-43426974D01*
X77675414Y-43426976D01*
X77879136Y-43467499D01*
X77879139Y-43467500D01*
X77879141Y-43467500D01*
X78086861Y-43467500D01*
X78086862Y-43467499D01*
X78290586Y-43426976D01*
X78482493Y-43347486D01*
X78655204Y-43232083D01*
X78802083Y-43085204D01*
X78917486Y-42912493D01*
X78996976Y-42720586D01*
X79037500Y-42516859D01*
X79037500Y-42309141D01*
X79037500Y-42309138D01*
X79037499Y-42309136D01*
X78996977Y-42105421D01*
X78996976Y-42105414D01*
X78996974Y-42105409D01*
X78917488Y-41913511D01*
X78917487Y-41913509D01*
X78802083Y-41740796D01*
X78802080Y-41740792D01*
X78655207Y-41593919D01*
X78655203Y-41593916D01*
X78482490Y-41478512D01*
X78482488Y-41478511D01*
X78320851Y-41411560D01*
X78266447Y-41367719D01*
X78244382Y-41301425D01*
X78261661Y-41233726D01*
X78312798Y-41186115D01*
X78368303Y-41172999D01*
X78582971Y-41172999D01*
X78582987Y-41172998D01*
X78685697Y-41162505D01*
X78852119Y-41107358D01*
X78852124Y-41107356D01*
X79001345Y-41015315D01*
X79125315Y-40891345D01*
X79217356Y-40742124D01*
X79217358Y-40742119D01*
X79272505Y-40575697D01*
X79272506Y-40575690D01*
X79282999Y-40472986D01*
X79283000Y-40472973D01*
X79283000Y-40123000D01*
X78298686Y-40123000D01*
X78303080Y-40118606D01*
X78355741Y-40027394D01*
X78383000Y-39925661D01*
X78383000Y-39820339D01*
X78355741Y-39718606D01*
X78303080Y-39627394D01*
X78298686Y-39623000D01*
X79282999Y-39623000D01*
X79282999Y-39273028D01*
X79282998Y-39273013D01*
X79272505Y-39170302D01*
X79238110Y-39066504D01*
X79235708Y-38996676D01*
X79271440Y-38936634D01*
X79333960Y-38905441D01*
X79355816Y-38903500D01*
X84879058Y-38903500D01*
X84946097Y-38923185D01*
G37*
%TD.AperFunction*%
%TA.AperFunction,Conductor*%
G36*
X88550834Y-44711697D02*
G01*
X88606767Y-44753569D01*
X88631184Y-44819033D01*
X88631500Y-44827879D01*
X88631500Y-45501298D01*
X88663062Y-45619091D01*
X88665882Y-45629613D01*
X88665883Y-45629614D01*
X88689698Y-45670862D01*
X88689699Y-45670864D01*
X88689702Y-45670868D01*
X88706429Y-45699840D01*
X88732298Y-45744648D01*
X89144027Y-46156377D01*
X89177512Y-46217700D01*
X89177963Y-46219867D01*
X89197138Y-46316271D01*
X89197141Y-46316280D01*
X89246475Y-46435385D01*
X89246476Y-46435386D01*
X89246478Y-46435390D01*
X89283571Y-46490903D01*
X89305102Y-46523126D01*
X89310932Y-46541747D01*
X89321318Y-46558266D01*
X89325464Y-46588156D01*
X89325980Y-46589803D01*
X89325789Y-46590498D01*
X89326000Y-46592017D01*
X89326000Y-47369000D01*
X89306315Y-47436039D01*
X89253511Y-47481794D01*
X89202000Y-47493000D01*
X89154499Y-47493000D01*
X89087460Y-47473315D01*
X89041705Y-47420511D01*
X89030499Y-47369000D01*
X89030499Y-46866936D01*
X89030499Y-46866934D01*
X89015734Y-46792699D01*
X88966897Y-46719611D01*
X88961067Y-46700990D01*
X88950682Y-46684472D01*
X88950842Y-46668335D01*
X88946020Y-46652935D01*
X88946000Y-46650721D01*
X88946000Y-46392000D01*
X88898155Y-46392000D01*
X88838627Y-46398401D01*
X88838620Y-46398403D01*
X88703913Y-46448645D01*
X88703906Y-46448649D01*
X88588814Y-46534808D01*
X88588807Y-46534814D01*
X88549133Y-46587812D01*
X88493198Y-46629683D01*
X88449868Y-46637500D01*
X88370936Y-46637500D01*
X88370935Y-46637500D01*
X88370934Y-46637501D01*
X88361539Y-46639369D01*
X88335187Y-46644610D01*
X88286815Y-46644609D01*
X88251069Y-46637500D01*
X87820936Y-46637500D01*
X87785187Y-46644610D01*
X87736815Y-46644609D01*
X87701069Y-46637500D01*
X87270936Y-46637500D01*
X87235187Y-46644610D01*
X87186815Y-46644609D01*
X87151070Y-46637500D01*
X87151067Y-46637500D01*
X86889500Y-46637500D01*
X86822461Y-46617815D01*
X86776706Y-46565011D01*
X86765500Y-46513500D01*
X86765500Y-46445879D01*
X86785185Y-46378840D01*
X86801819Y-46358198D01*
X88419819Y-44740198D01*
X88481142Y-44706713D01*
X88550834Y-44711697D01*
G37*
%TD.AperFunction*%
%TA.AperFunction,Conductor*%
G36*
X92468889Y-38923185D02*
G01*
X92514644Y-38975989D01*
X92524588Y-39045147D01*
X92495563Y-39108703D01*
X92489531Y-39115181D01*
X92403919Y-39200792D01*
X92403916Y-39200796D01*
X92288514Y-39373507D01*
X92288511Y-39373511D01*
X92209025Y-39565409D01*
X92209022Y-39565421D01*
X92168500Y-39769136D01*
X92168500Y-39976863D01*
X92209022Y-40180578D01*
X92209025Y-40180590D01*
X92288511Y-40372488D01*
X92288512Y-40372490D01*
X92403916Y-40545203D01*
X92403919Y-40545207D01*
X92550792Y-40692080D01*
X92550796Y-40692083D01*
X92723507Y-40807486D01*
X92723508Y-40807486D01*
X92723509Y-40807487D01*
X92723511Y-40807488D01*
X92861055Y-40864460D01*
X92915414Y-40886976D01*
X93095040Y-40922706D01*
X93119136Y-40927499D01*
X93119139Y-40927500D01*
X93119141Y-40927500D01*
X93326861Y-40927500D01*
X93326862Y-40927499D01*
X93530586Y-40886976D01*
X93722493Y-40807486D01*
X93895204Y-40692083D01*
X93923165Y-40664122D01*
X93980819Y-40606469D01*
X94042142Y-40572984D01*
X94111834Y-40577968D01*
X94167767Y-40619840D01*
X94192184Y-40685304D01*
X94192500Y-40694150D01*
X94192500Y-41591850D01*
X94172815Y-41658889D01*
X94120011Y-41704644D01*
X94050853Y-41714588D01*
X93987297Y-41685563D01*
X93980819Y-41679531D01*
X93895207Y-41593919D01*
X93895203Y-41593916D01*
X93722490Y-41478512D01*
X93722488Y-41478511D01*
X93530590Y-41399025D01*
X93530578Y-41399022D01*
X93326862Y-41358500D01*
X93326859Y-41358500D01*
X93119141Y-41358500D01*
X93119138Y-41358500D01*
X92915421Y-41399022D01*
X92915409Y-41399025D01*
X92723511Y-41478511D01*
X92723509Y-41478512D01*
X92550796Y-41593916D01*
X92550792Y-41593919D01*
X92403919Y-41740792D01*
X92403916Y-41740796D01*
X92288512Y-41913509D01*
X92288511Y-41913511D01*
X92209025Y-42105409D01*
X92209022Y-42105421D01*
X92168500Y-42309136D01*
X92168500Y-42516863D01*
X92209022Y-42720578D01*
X92209025Y-42720590D01*
X92288511Y-42912488D01*
X92288512Y-42912490D01*
X92403916Y-43085203D01*
X92403919Y-43085207D01*
X92550792Y-43232080D01*
X92550796Y-43232083D01*
X92723507Y-43347486D01*
X92723508Y-43347486D01*
X92723509Y-43347487D01*
X92723511Y-43347488D01*
X92915409Y-43426974D01*
X92915414Y-43426976D01*
X93119136Y-43467499D01*
X93119139Y-43467500D01*
X93119141Y-43467500D01*
X93326861Y-43467500D01*
X93326862Y-43467499D01*
X93530586Y-43426976D01*
X93722493Y-43347486D01*
X93895204Y-43232083D01*
X93932006Y-43195281D01*
X93980819Y-43146469D01*
X94042142Y-43112984D01*
X94111834Y-43117968D01*
X94167767Y-43159840D01*
X94192184Y-43225304D01*
X94192500Y-43234150D01*
X94192500Y-44131850D01*
X94172815Y-44198889D01*
X94120011Y-44244644D01*
X94050853Y-44254588D01*
X93987297Y-44225563D01*
X93980819Y-44219531D01*
X93895207Y-44133919D01*
X93895203Y-44133916D01*
X93722490Y-44018512D01*
X93722488Y-44018511D01*
X93530590Y-43939025D01*
X93530578Y-43939022D01*
X93326862Y-43898500D01*
X93326859Y-43898500D01*
X93119141Y-43898500D01*
X93119138Y-43898500D01*
X92915421Y-43939022D01*
X92915409Y-43939025D01*
X92723511Y-44018511D01*
X92723509Y-44018512D01*
X92550796Y-44133916D01*
X92550792Y-44133919D01*
X92403919Y-44280792D01*
X92403916Y-44280796D01*
X92288512Y-44453509D01*
X92288511Y-44453511D01*
X92209025Y-44645409D01*
X92209022Y-44645421D01*
X92168500Y-44849136D01*
X92168500Y-45056863D01*
X92209022Y-45260578D01*
X92209025Y-45260590D01*
X92288511Y-45452488D01*
X92288512Y-45452490D01*
X92403916Y-45625203D01*
X92403919Y-45625207D01*
X92550792Y-45772080D01*
X92550796Y-45772083D01*
X92723507Y-45887486D01*
X92723508Y-45887486D01*
X92723509Y-45887487D01*
X92723511Y-45887488D01*
X92915409Y-45966974D01*
X92915414Y-45966976D01*
X93119136Y-46007499D01*
X93119139Y-46007500D01*
X93119141Y-46007500D01*
X93326861Y-46007500D01*
X93326862Y-46007499D01*
X93530586Y-45966976D01*
X93722493Y-45887486D01*
X93895204Y-45772083D01*
X93922639Y-45744648D01*
X93980819Y-45686469D01*
X94042142Y-45652984D01*
X94111834Y-45657968D01*
X94167767Y-45699840D01*
X94192184Y-45765304D01*
X94192500Y-45774150D01*
X94192500Y-46671850D01*
X94172815Y-46738889D01*
X94120011Y-46784644D01*
X94050853Y-46794588D01*
X93987297Y-46765563D01*
X93980819Y-46759531D01*
X93895207Y-46673919D01*
X93895203Y-46673916D01*
X93722490Y-46558512D01*
X93722488Y-46558511D01*
X93530590Y-46479025D01*
X93530578Y-46479022D01*
X93326862Y-46438500D01*
X93326859Y-46438500D01*
X93119141Y-46438500D01*
X93119138Y-46438500D01*
X92915421Y-46479022D01*
X92915409Y-46479025D01*
X92723511Y-46558511D01*
X92723504Y-46558515D01*
X92670390Y-46594005D01*
X92603713Y-46614883D01*
X92536333Y-46596398D01*
X92489643Y-46544419D01*
X92477500Y-46490903D01*
X92477500Y-46303268D01*
X92468287Y-46268888D01*
X92468286Y-46268884D01*
X92443120Y-46174960D01*
X92443120Y-46174959D01*
X92376701Y-46059918D01*
X91411450Y-45094667D01*
X91411449Y-45094666D01*
X91382018Y-45077674D01*
X91312386Y-45037473D01*
X91296410Y-45028249D01*
X91168099Y-44993868D01*
X91168096Y-44993868D01*
X90623066Y-44993868D01*
X90556027Y-44974183D01*
X90510272Y-44921379D01*
X90500328Y-44852221D01*
X90508505Y-44822416D01*
X90511189Y-44815934D01*
X90542348Y-44740711D01*
X90567500Y-44614263D01*
X90567500Y-44485337D01*
X90567275Y-44484209D01*
X90542350Y-44358896D01*
X90542347Y-44358887D01*
X90517458Y-44298799D01*
X90509989Y-44229330D01*
X90541264Y-44166851D01*
X90601353Y-44131199D01*
X90632019Y-44127347D01*
X90891369Y-44127347D01*
X90891372Y-44127347D01*
X91019683Y-44092966D01*
X91061790Y-44068655D01*
X91134723Y-44026548D01*
X91509431Y-43651840D01*
X91564516Y-43556429D01*
X91575849Y-43536800D01*
X91610230Y-43408489D01*
X91610230Y-39517311D01*
X91575849Y-39389000D01*
X91566904Y-39373507D01*
X91509431Y-39273960D01*
X91350652Y-39115181D01*
X91317167Y-39053858D01*
X91322151Y-38984166D01*
X91364023Y-38928233D01*
X91429487Y-38903816D01*
X91438333Y-38903500D01*
X92401850Y-38903500D01*
X92468889Y-38923185D01*
G37*
%TD.AperFunction*%
%TD*%
M02*
