M48
; DRILL file KiCad 10.0.6 date 2026-09-03T23:09:46
; FORMAT={-:-/ absolute / metric / decimal}
; #@! TF.CreationDate,2026-09-03T23:09:46+01:00
; #@! TF.GenerationSoftware,Kicad,Pcbnew,10.0.6
; #@! TF.FileFunction,Plated,1,2,PTH
FMAT,2
METRIC
; #@! TA.AperFunction,Plated,PTH,ViaDrill
T1C0.300
; #@! TA.AperFunction,Plated,PTH,ViaDrill
T2C0.400
; #@! TA.AperFunction,Plated,PTH,ComponentDrill
T3C0.800
; #@! TA.AperFunction,Plated,PTH,ComponentDrill
T4C1.000
%
G90
G05
T1
X81.73Y-67.876
X81.793Y-72.766
X89.921Y-72.766
T2
X79.104Y-61.134
X80.073Y-67.782
X80.883Y-61.091
X81.205Y-53.07
X81.205Y-54.097
X81.28Y-56.863
X81.285Y-58.059
X81.285Y-58.999
X81.285Y-59.926
X81.398Y-47.009
X81.887Y-43.004
X82.332Y-58.924
X82.359Y-49.504
X82.577Y-56.259
X82.936Y-45.461
X83.622Y-53.09
X83.622Y-55.732
X83.855Y-49.456
X84.78Y-58.343
X84.841Y-56.383
X85.349Y-44.064
X85.836Y-57.399
X86.619Y-64.003
X86.659Y-66.433
X86.93Y-51.975
X86.936Y-56.594
X87.042Y-65.019
X87.087Y-42.552
X87.33Y-46.223
X87.627Y-53.741
X87.857Y-51.985
X88.389Y-56.281
X88.784Y-51.985
X89.215Y-54.947
X89.247Y-52.788
X89.447Y-68.374
X89.533Y-58.008
X89.826Y-46.125
X89.904Y-58.858
X89.913Y-44.55
X89.923Y-43.623
X90.245Y-66.581
X90.329Y-39.939
X90.329Y-40.866
X90.329Y-41.793
X90.329Y-42.72
X90.569Y-50.28
X91.922Y-45.213
X91.953Y-39.365
X92.461Y-58.923
X92.461Y-64.003
T3
X77.983Y-39.873
X77.983Y-42.413
X77.983Y-44.953
X77.983Y-47.493
X77.983Y-50.033
X77.983Y-52.573
X77.983Y-55.113
X77.983Y-57.653
X77.983Y-60.193
X77.983Y-62.733
X77.983Y-65.273
X77.983Y-67.813
X77.983Y-70.353
X77.983Y-72.893
X93.223Y-39.873
X93.223Y-42.413
X93.223Y-44.953
X93.223Y-47.493
X93.223Y-50.033
X93.223Y-52.573
X93.223Y-55.113
X93.223Y-57.653
X93.223Y-60.193
X93.223Y-62.733
X93.223Y-65.273
X93.223Y-67.813
X93.223Y-70.353
X93.223Y-72.893
T4
X80.523Y-48.763
X80.523Y-69.083
X80.523Y-71.623
X83.063Y-69.083
X83.063Y-71.623
X85.603Y-69.083
X85.603Y-71.623
X88.143Y-69.083
X88.143Y-71.623
X90.683Y-69.083
X90.683Y-71.623
M30
