%TF.GenerationSoftware,KiCad,Pcbnew,10.0.6*%
%TF.CreationDate,2026-09-03T23:09:49+01:00*%
%TF.ProjectId,VideoULA,56696465-6f55-44c4-912e-6b696361645f,02*%
%TF.SameCoordinates,Original*%
%TF.FileFunction,Copper,L1,Top*%
%TF.FilePolarity,Positive*%
%FSLAX46Y46*%
G04 Gerber Fmt 4.6, Leading zero omitted, Abs format (unit mm)*
G04 Created by KiCad (PCBNEW 10.0.6) date 2026-09-03 23:09:49*
%MOMM*%
%LPD*%
G01*
G04 APERTURE LIST*
G04 Aperture macros list*
%AMRoundRect*
0 Rectangle with rounded corners*
0 $1 Rounding radius*
0 $2 $3 $4 $5 $6 $7 $8 $9 X,Y pos of 4 corners*
0 Add a 4 corners polygon primitive as box body*
4,1,4,$2,$3,$4,$5,$6,$7,$8,$9,$2,$3,0*
0 Add four circle primitives for the rounded corners*
1,1,$1+$1,$2,$3*
1,1,$1+$1,$4,$5*
1,1,$1+$1,$6,$7*
1,1,$1+$1,$8,$9*
0 Add four rect primitives between the rounded corners*
20,1,$1+$1,$2,$3,$4,$5,0*
20,1,$1+$1,$4,$5,$6,$7,0*
20,1,$1+$1,$6,$7,$8,$9,0*
20,1,$1+$1,$8,$9,$2,$3,0*%
G04 Aperture macros list end*
%TA.AperFunction,SMDPad,CuDef*%
%ADD10RoundRect,0.225000X0.250000X-0.225000X0.250000X0.225000X-0.250000X0.225000X-0.250000X-0.225000X0*%
%TD*%
%TA.AperFunction,SMDPad,CuDef*%
%ADD11RoundRect,0.225000X0.225000X0.250000X-0.225000X0.250000X-0.225000X-0.250000X0.225000X-0.250000X0*%
%TD*%
%TA.AperFunction,SMDPad,CuDef*%
%ADD12R,0.500000X0.800000*%
%TD*%
%TA.AperFunction,SMDPad,CuDef*%
%ADD13R,0.400000X0.800000*%
%TD*%
%TA.AperFunction,SMDPad,CuDef*%
%ADD14RoundRect,0.225000X-0.250000X0.225000X-0.250000X-0.225000X0.250000X-0.225000X0.250000X0.225000X0*%
%TD*%
%TA.AperFunction,SMDPad,CuDef*%
%ADD15RoundRect,0.200000X0.275000X-0.200000X0.275000X0.200000X-0.275000X0.200000X-0.275000X-0.200000X0*%
%TD*%
%TA.AperFunction,SMDPad,CuDef*%
%ADD16RoundRect,0.250000X0.400000X0.350000X-0.400000X0.350000X-0.400000X-0.350000X0.400000X-0.350000X0*%
%TD*%
%TA.AperFunction,SMDPad,CuDef*%
%ADD17R,0.800000X0.500000*%
%TD*%
%TA.AperFunction,SMDPad,CuDef*%
%ADD18R,0.800000X0.400000*%
%TD*%
%TA.AperFunction,ComponentPad*%
%ADD19R,1.700000X1.700000*%
%TD*%
%TA.AperFunction,ComponentPad*%
%ADD20C,1.700000*%
%TD*%
%TA.AperFunction,SMDPad,CuDef*%
%ADD21RoundRect,0.137500X-0.600000X-0.137500X0.600000X-0.137500X0.600000X0.137500X-0.600000X0.137500X0*%
%TD*%
%TA.AperFunction,SMDPad,CuDef*%
%ADD22RoundRect,0.137500X-0.137500X-0.600000X0.137500X-0.600000X0.137500X0.600000X-0.137500X0.600000X0*%
%TD*%
%TA.AperFunction,SMDPad,CuDef*%
%ADD23RoundRect,0.225000X-0.225000X-0.250000X0.225000X-0.250000X0.225000X0.250000X-0.225000X0.250000X0*%
%TD*%
%TA.AperFunction,SMDPad,CuDef*%
%ADD24RoundRect,0.150000X-0.512500X-0.150000X0.512500X-0.150000X0.512500X0.150000X-0.512500X0.150000X0*%
%TD*%
%TA.AperFunction,ComponentPad*%
%ADD25RoundRect,0.250000X-0.550000X-0.550000X0.550000X-0.550000X0.550000X0.550000X-0.550000X0.550000X0*%
%TD*%
%TA.AperFunction,ComponentPad*%
%ADD26C,1.600000*%
%TD*%
%TA.AperFunction,SMDPad,CuDef*%
%ADD27RoundRect,0.150000X0.512500X0.150000X-0.512500X0.150000X-0.512500X-0.150000X0.512500X-0.150000X0*%
%TD*%
%TA.AperFunction,ViaPad*%
%ADD28C,0.800000*%
%TD*%
%TA.AperFunction,ViaPad*%
%ADD29C,0.600000*%
%TD*%
%TA.AperFunction,Conductor*%
%ADD30C,0.500000*%
%TD*%
%TA.AperFunction,Conductor*%
%ADD31C,0.250000*%
%TD*%
%TA.AperFunction,Conductor*%
%ADD32C,0.400000*%
%TD*%
G04 APERTURE END LIST*
D10*
%TO.P,C9,1*%
%TO.N,+3.3V*%
X87912400Y-41775000D03*
%TO.P,C9,2*%
%TO.N,GND*%
X87912400Y-40225000D03*
%TD*%
D11*
%TO.P,C5,1*%
%TO.N,+5V*%
X86378000Y-47391400D03*
%TO.P,C5,2*%
%TO.N,GND*%
X84828000Y-47391400D03*
%TD*%
D10*
%TO.P,C7,1*%
%TO.N,+3.3V*%
X84612400Y-41775000D03*
%TO.P,C7,2*%
%TO.N,GND*%
X84612400Y-40225000D03*
%TD*%
D12*
%TO.P,RN2,1,R1.1_1*%
%TO.N,+3.3V*%
X82872400Y-64215600D03*
D13*
%TO.P,RN2,2,R2.1_2*%
X82072400Y-64215600D03*
%TO.P,RN2,3,R3.1_3*%
X81272400Y-64215600D03*
D12*
%TO.P,RN2,4,R4.1_4*%
X80472400Y-64215600D03*
%TO.P,RN2,5,R4.2_5*%
%TO.N,/TCK*%
X80472400Y-66015600D03*
D13*
%TO.P,RN2,6,R3.2_6*%
%TO.N,unconnected-(RN2-R3.2-Pad6)*%
X81272400Y-66015600D03*
%TO.P,RN2,7,R2.2_7*%
%TO.N,/TMS*%
X82072400Y-66015600D03*
D12*
%TO.P,RN2,8,R1.2_8*%
%TO.N,/TDI*%
X82872400Y-66015600D03*
%TD*%
D10*
%TO.P,C8,1*%
%TO.N,+3.3V*%
X86262400Y-41775000D03*
%TO.P,C8,2*%
%TO.N,GND*%
X86262400Y-40225000D03*
%TD*%
D14*
%TO.P,C1,1*%
%TO.N,+3.3V*%
X84460000Y-64340600D03*
%TO.P,C1,2*%
%TO.N,GND*%
X84460000Y-65890600D03*
%TD*%
D15*
%TO.P,R2,1*%
%TO.N,/SRAM_~{WE}*%
X86357000Y-45422400D03*
%TO.P,R2,2*%
%TO.N,/CLK_SEL*%
X86357000Y-43772400D03*
%TD*%
D16*
%TO.P,X1,1,E/B_1*%
%TO.N,unconnected-(X1-E{slash}B-Pad1)*%
X82642732Y-40059348D03*
%TO.P,X1,2,GND_2*%
%TO.N,GND*%
X80542732Y-40059348D03*
%TO.P,X1,3,OUT_3*%
%TO.N,/CLK_48M*%
X80542732Y-41959348D03*
%TO.P,X1,4,V+_4*%
%TO.N,+3.3V*%
X82642732Y-41959348D03*
%TD*%
D17*
%TO.P,RN1,1,R1.1_1*%
%TO.N,GND*%
X91255732Y-42463348D03*
D18*
%TO.P,RN1,2,R2.1_2*%
X91255732Y-41663348D03*
%TO.P,RN1,3,R3.1_3*%
X91255732Y-40863348D03*
D17*
%TO.P,RN1,4,R4.1_4*%
X91255732Y-40063348D03*
%TO.P,RN1,5,R4.2_5*%
%TO.N,/SRAM_Q0*%
X89455732Y-40063348D03*
D18*
%TO.P,RN1,6,R3.2_6*%
%TO.N,/SRAM_Q1*%
X89455732Y-40863348D03*
%TO.P,RN1,7,R2.2_7*%
%TO.N,/SRAM_Q2*%
X89455732Y-41663348D03*
D17*
%TO.P,RN1,8,R1.2_8*%
%TO.N,/SRAM_Q3*%
X89455732Y-42463348D03*
%TD*%
D19*
%TO.P,J1,1,Pin_1_1*%
%TO.N,/TCK*%
X80523000Y-71623000D03*
D20*
%TO.P,J1,2,Pin_2_2*%
%TO.N,GND*%
X80523000Y-69083000D03*
%TO.P,J1,3,Pin_3_3*%
%TO.N,/TDO*%
X83063000Y-71623000D03*
%TO.P,J1,4,Pin_4_4*%
%TO.N,+3.3V*%
X83063000Y-69083000D03*
%TO.P,J1,5,Pin_5_5*%
%TO.N,/TMS*%
X85603000Y-71623000D03*
%TO.P,J1,6,Pin_6_6*%
%TO.N,unconnected-(J1-Pin_6-Pad6)*%
X85603000Y-69083000D03*
%TO.P,J1,7,Pin_7_7*%
%TO.N,unconnected-(J1-Pin_7-Pad7)*%
X88143000Y-71623000D03*
%TO.P,J1,8,Pin_8_8*%
%TO.N,unconnected-(J1-Pin_8-Pad8)*%
X88143000Y-69083000D03*
%TO.P,J1,9,Pin_9_9*%
%TO.N,/TDI*%
X90683000Y-71623000D03*
%TO.P,J1,10,Pin_10_10*%
%TO.N,GND*%
X90683000Y-69083000D03*
%TD*%
D15*
%TO.P,R1,1*%
%TO.N,/CLK_16M*%
X80007000Y-45949148D03*
%TO.P,R1,2*%
%TO.N,/CLK_16M_R*%
X80007000Y-44299148D03*
%TD*%
D21*
%TO.P,U1,1,I/O/GCK3_1*%
%TO.N,/CLK_2M*%
X79940500Y-52383000D03*
%TO.P,U1,2,P2_2*%
%TO.N,/CLK_4M*%
X79940500Y-53183000D03*
%TO.P,U1,3,P3_3*%
%TO.N,/CLK_8M*%
X79940500Y-53983000D03*
%TO.P,U1,4,GND_4*%
%TO.N,GND*%
X79940500Y-54783000D03*
%TO.P,U1,5,P5_5*%
%TO.N,/SRAM_A2*%
X79940500Y-55583000D03*
%TO.P,U1,6,P6_6*%
%TO.N,/SRAM_A1*%
X79940500Y-56383000D03*
%TO.P,U1,7,P7_7*%
%TO.N,/SRAM_A0*%
X79940500Y-57183000D03*
%TO.P,U1,8,P8_8*%
%TO.N,/B_IN*%
X79940500Y-57983000D03*
%TO.P,U1,9,TDI_9*%
%TO.N,/TDI*%
X79940500Y-58783000D03*
%TO.P,U1,10,TMS_10*%
%TO.N,/TMS*%
X79940500Y-59583000D03*
%TO.P,U1,11,TCK_11*%
%TO.N,/TCK*%
X79940500Y-60383000D03*
D22*
%TO.P,U1,12,P12_12*%
%TO.N,/B*%
X81603000Y-62045500D03*
%TO.P,U1,13,P13_13*%
%TO.N,/G_IN*%
X82403000Y-62045500D03*
%TO.P,U1,14,P14_14*%
%TO.N,/G*%
X83203000Y-62045500D03*
%TO.P,U1,15,VCC_15*%
%TO.N,+3.3V*%
X84003000Y-62045500D03*
%TO.P,U1,16,P16_16*%
%TO.N,/SRAM_A3*%
X84803000Y-62045500D03*
%TO.P,U1,17,GND_17*%
%TO.N,GND*%
X85603000Y-62045500D03*
%TO.P,U1,18,P18_18*%
%TO.N,/R_IN*%
X86403000Y-62045500D03*
%TO.P,U1,19,P19_19*%
%TO.N,/R*%
X87203000Y-62045500D03*
%TO.P,U1,20,P20_20*%
%TO.N,/D0*%
X88003000Y-62045500D03*
%TO.P,U1,21,P21_21*%
%TO.N,/D1*%
X88803000Y-62045500D03*
%TO.P,U1,22,P22_22*%
%TO.N,/D2*%
X89603000Y-62045500D03*
D21*
%TO.P,U1,23,P23_23*%
%TO.N,/D3*%
X91265500Y-60383000D03*
%TO.P,U1,24,TDO_24*%
%TO.N,/TDO*%
X91265500Y-59583000D03*
%TO.P,U1,25,GND_25*%
%TO.N,GND*%
X91265500Y-58783000D03*
%TO.P,U1,26,VCCIO_26*%
%TO.N,+3.3V*%
X91265500Y-57983000D03*
%TO.P,U1,27,P27_27*%
%TO.N,/D4*%
X91265500Y-57183000D03*
%TO.P,U1,28,P28_28*%
%TO.N,/D5*%
X91265500Y-56383000D03*
%TO.P,U1,29,P29_29*%
%TO.N,/SRAM_D0*%
X91265500Y-55583000D03*
%TO.P,U1,30,P30_30*%
%TO.N,/DISEN*%
X91265500Y-54783000D03*
%TO.P,U1,31,P31_31*%
%TO.N,/CURSOR*%
X91265500Y-53983000D03*
%TO.P,U1,32,P32_32*%
%TO.N,/D6*%
X91265500Y-53183000D03*
%TO.P,U1,33,I/O/GSR_33*%
%TO.N,/D7*%
X91265500Y-52383000D03*
D22*
%TO.P,U1,34,I/O/GTS2_34*%
%TO.N,/SRAM_D1*%
X89603000Y-50720500D03*
%TO.P,U1,35,VCC_35*%
%TO.N,+3.3V*%
X88803000Y-50720500D03*
%TO.P,U1,36,I/O/GTS1_36*%
%TO.N,/CLK_CRTC*%
X88003000Y-50720500D03*
%TO.P,U1,37,P37_37*%
%TO.N,/SRAM_D2*%
X87203000Y-50720500D03*
%TO.P,U1,38,P38_38*%
%TO.N,/SRAM_D3*%
X86403000Y-50720500D03*
%TO.P,U1,39,P39_39*%
%TO.N,/SRAM_~{WE}*%
X85603000Y-50720500D03*
%TO.P,U1,40,P40_40*%
%TO.N,/CLK_1M*%
X84803000Y-50720500D03*
%TO.P,U1,41,P41_41*%
%TO.N,/~{CS}*%
X84003000Y-50720500D03*
%TO.P,U1,42,P42_42*%
%TO.N,/A*%
X83203000Y-50720500D03*
%TO.P,U1,43,I/O/GCK1_43*%
%TO.N,/CLK_IN*%
X82403000Y-50720500D03*
%TO.P,U1,44,I/O/GCK2_44*%
%TO.N,/CLK_6M*%
X81603000Y-50720500D03*
%TD*%
D23*
%TO.P,C6,1*%
%TO.N,+3.3V*%
X89519000Y-47391400D03*
%TO.P,C6,2*%
%TO.N,GND*%
X91069000Y-47391400D03*
%TD*%
D24*
%TO.P,U3,1,NC_1*%
%TO.N,unconnected-(U3-NC-Pad1)*%
X81722300Y-43850600D03*
%TO.P,U3,2*%
%TO.N,/CLK_16M_R*%
X81722300Y-44800600D03*
%TO.P,U3,3,GND_3*%
%TO.N,GND*%
X81722300Y-45750600D03*
%TO.P,U3,4*%
%TO.N,/CLK_16M_BUF*%
X83997300Y-45750600D03*
%TO.P,U3,5,VCC_5*%
%TO.N,+3.3V*%
X83997300Y-43850600D03*
%TD*%
D14*
%TO.P,C2,1*%
%TO.N,+3.3V*%
X91089732Y-62491348D03*
%TO.P,C2,2*%
%TO.N,GND*%
X91089732Y-64041348D03*
%TD*%
D25*
%TO.P,IC6,1,GND_1*%
%TO.N,GND*%
X77983000Y-39873000D03*
D26*
%TO.P,IC6,2,A0_2*%
%TO.N,/A*%
X77983000Y-42413000D03*
%TO.P,IC6,3,CS_3*%
%TO.N,/~{CS}*%
X77983000Y-44953000D03*
%TO.P,IC6,4,1MHz_CLK_4*%
%TO.N,/CLK_1M*%
X77983000Y-47493000D03*
%TO.P,IC6,5,2MHz_CLK_5*%
%TO.N,/CLK_2M*%
X77983000Y-50033000D03*
%TO.P,IC6,6,4MHz_CLK_6*%
%TO.N,/CLK_4M*%
X77983000Y-52573000D03*
%TO.P,IC6,7,8MHz_CLK_7*%
%TO.N,/CLK_8M*%
X77983000Y-55113000D03*
%TO.P,IC6,8,16MHz_CLK_8*%
%TO.N,/CLK_16M*%
X77983000Y-57653000D03*
%TO.P,IC6,9,B_IN_9*%
%TO.N,/B_IN*%
X77983000Y-60193000D03*
%TO.P,IC6,10,B_10*%
%TO.N,/B*%
X77983000Y-62733000D03*
%TO.P,IC6,11,G_IN_11*%
%TO.N,/G_IN*%
X77983000Y-65273000D03*
%TO.P,IC6,12,G_12*%
%TO.N,/G*%
X77983000Y-67813000D03*
%TO.P,IC6,13,R_IN_13*%
%TO.N,/R_IN*%
X77983000Y-70353000D03*
%TO.P,IC6,14,R_14*%
%TO.N,/R*%
X77983000Y-72893000D03*
%TO.P,IC6,15*%
%TO.N,unconnected-(IC6-Pad15)*%
X93223000Y-72893000D03*
%TO.P,IC6,16,VCC_16*%
%TO.N,+5V*%
X93223000Y-70353000D03*
%TO.P,IC6,17,D0_17*%
%TO.N,/D0*%
X93223000Y-67813000D03*
%TO.P,IC6,18,D1_18*%
%TO.N,/D1*%
X93223000Y-65273000D03*
%TO.P,IC6,19,D2_19*%
%TO.N,/D2*%
X93223000Y-62733000D03*
%TO.P,IC6,20,D3_20*%
%TO.N,/D3*%
X93223000Y-60193000D03*
%TO.P,IC6,21,D4_21*%
%TO.N,/D4*%
X93223000Y-57653000D03*
%TO.P,IC6,22,D5_22*%
%TO.N,/D5*%
X93223000Y-55113000D03*
%TO.P,IC6,23,D6_23*%
%TO.N,/D6*%
X93223000Y-52573000D03*
%TO.P,IC6,24,D7_24*%
%TO.N,/D7*%
X93223000Y-50033000D03*
%TO.P,IC6,25,CURSOR_25*%
%TO.N,/CURSOR*%
X93223000Y-47493000D03*
%TO.P,IC6,26,DISEN_26*%
%TO.N,/DISEN*%
X93223000Y-44953000D03*
%TO.P,IC6,27*%
%TO.N,unconnected-(IC6-Pad27)*%
X93223000Y-42413000D03*
%TO.P,IC6,28,CRTC_CLK_28*%
%TO.N,/CLK_CRTC*%
X93223000Y-39873000D03*
%TD*%
D27*
%TO.P,U2,1,GND_1*%
%TO.N,GND*%
X90999700Y-45826800D03*
%TO.P,U2,2,VO_2*%
%TO.N,+3.3V*%
X90999700Y-43926800D03*
%TO.P,U2,3,VI_3*%
%TO.N,+5V*%
X88724700Y-44876800D03*
%TD*%
D23*
%TO.P,C3,1*%
%TO.N,+3.3V*%
X89519000Y-48915400D03*
%TO.P,C3,2*%
%TO.N,GND*%
X91069000Y-48915400D03*
%TD*%
D11*
%TO.P,C10,1*%
%TO.N,+5V*%
X86378000Y-48915400D03*
%TO.P,C10,2*%
%TO.N,GND*%
X84828000Y-48915400D03*
%TD*%
D19*
%TO.P,J2,1,Pin_1_1*%
%TO.N,/CLK_6M*%
X80523000Y-48763000D03*
%TD*%
D28*
%TO.N,GND*%
X89904400Y-58857643D03*
%TO.N,/TDO*%
X89532950Y-58008317D03*
%TO.N,+3.3V*%
X84841000Y-56383000D03*
X87041690Y-65019000D03*
X89922544Y-43622847D03*
X89215343Y-54947057D03*
X89826489Y-46125368D03*
%TO.N,GND*%
X83621800Y-53090037D03*
X83855003Y-49456000D03*
X86619000Y-64003000D03*
X91953000Y-39365000D03*
D29*
X81729500Y-67876500D03*
D28*
X83621800Y-55732000D03*
X88389000Y-56281400D03*
X87627000Y-53741400D03*
X92461000Y-64003000D03*
X85349000Y-44064000D03*
X81204998Y-54097000D03*
X80882672Y-61091026D03*
X81204998Y-53069871D03*
X92461000Y-58923000D03*
X91921767Y-45213247D03*
X82331700Y-58923700D03*
X90569000Y-50280348D03*
X86659400Y-66433000D03*
X85836000Y-57399000D03*
D29*
X81793000Y-72766000D03*
X89921000Y-72766000D03*
D28*
X87330200Y-46223000D03*
%TO.N,+5V*%
X89913000Y-44549800D03*
%TO.N,/TCK*%
X79104496Y-61133502D03*
%TO.N,/TMS*%
X80073000Y-67781606D03*
X81285000Y-59926009D03*
%TO.N,/TDI*%
X81285000Y-58999006D03*
%TO.N,/SRAM_~{WE}*%
X86936000Y-56594396D03*
%TO.N,/CLK_SEL*%
X87087400Y-42552000D03*
%TO.N,/CLK_48M*%
X81887200Y-43004378D03*
%TO.N,/SRAM_Q0*%
X90328730Y-39938800D03*
%TO.N,/SRAM_Q1*%
X90328730Y-40865803D03*
%TO.N,/SRAM_Q2*%
X90328730Y-41792806D03*
%TO.N,/SRAM_Q3*%
X90328730Y-42719809D03*
%TO.N,/TDO*%
X90245243Y-66581399D03*
X89446885Y-68374129D03*
%TO.N,/CLK_16M*%
X81398467Y-47009000D03*
%TO.N,/SRAM_A2*%
X82577426Y-56258974D03*
%TO.N,/SRAM_A1*%
X81279829Y-56862762D03*
%TO.N,/SRAM_A0*%
X81285000Y-58059400D03*
%TO.N,/SRAM_A3*%
X84780000Y-58342650D03*
%TO.N,/SRAM_D0*%
X89247000Y-52788028D03*
%TO.N,/SRAM_D1*%
X88783884Y-51985000D03*
%TO.N,/SRAM_D2*%
X87856882Y-51985004D03*
%TO.N,/SRAM_D3*%
X86929934Y-51974930D03*
%TO.N,/CLK_IN*%
X82359000Y-49503548D03*
%TO.N,/CLK_16M_BUF*%
X82936000Y-45461000D03*
%TD*%
%TO.N,+3.3V*%
D30*
X88750400Y-59335647D02*
X88750400Y-57692023D01*
X89099753Y-59685000D02*
X88750400Y-59335647D01*
X89551422Y-56891000D02*
X90151000Y-56891000D01*
X89099753Y-59686175D02*
X89099753Y-59685000D01*
X88750400Y-57692023D02*
X89551422Y-56891000D01*
X91089732Y-62491348D02*
X91089732Y-61676154D01*
X91089732Y-61676154D02*
X89099753Y-59686175D01*
%TO.N,/TDO*%
D31*
X89707689Y-59583000D02*
X89252400Y-59127711D01*
X89252400Y-58288867D02*
X89532950Y-58008317D01*
X91265500Y-59583000D02*
X89707689Y-59583000D01*
%TO.N,GND*%
D32*
X89979043Y-58783000D02*
X89904400Y-58857643D01*
X91265500Y-58783000D02*
X89979043Y-58783000D01*
%TO.N,+3.3V*%
D30*
X90151000Y-56891000D02*
X90151000Y-55882714D01*
X84612400Y-41775000D02*
X86262400Y-41775000D01*
X82997400Y-64340600D02*
X82872400Y-64215600D01*
X83997300Y-43680398D02*
X84591649Y-43086049D01*
X91265500Y-57983000D02*
X90596578Y-57983000D01*
X89211231Y-43622847D02*
X87912400Y-42324016D01*
X90596578Y-57983000D02*
X90151000Y-57537422D01*
X90151000Y-55882714D02*
X89215343Y-54947057D01*
X83997300Y-43850600D02*
X83997300Y-43680398D01*
X87041690Y-65019000D02*
X86111000Y-65019000D01*
X90695747Y-43622847D02*
X89922544Y-43622847D01*
X86262400Y-42376000D02*
X86262400Y-41775000D01*
X84003000Y-57221000D02*
X84841000Y-56383000D01*
X90999700Y-43926800D02*
X90695747Y-43622847D01*
X86262400Y-41775000D02*
X87912400Y-41775000D01*
X85432600Y-64340600D02*
X84460000Y-64340600D01*
X90151000Y-57537422D02*
X90151000Y-56891000D01*
X84003000Y-62045500D02*
X84003000Y-63291800D01*
X86111000Y-65019000D02*
X85432600Y-64340600D01*
X84460000Y-64340600D02*
X84460000Y-63748800D01*
X87912400Y-42324016D02*
X87912400Y-41775000D01*
X84460000Y-64340600D02*
X82997400Y-64340600D01*
X84612400Y-41775000D02*
X82827080Y-41775000D01*
X84591649Y-43086049D02*
X85552351Y-43086049D01*
X89922544Y-43622847D02*
X89211231Y-43622847D01*
X82072400Y-64215600D02*
X81272400Y-64215600D01*
X88803000Y-49631400D02*
X89519000Y-48915400D01*
X84003000Y-62045500D02*
X84003000Y-57221000D01*
X89519000Y-47391400D02*
X89519000Y-48915400D01*
X85552351Y-43086049D02*
X86262400Y-42376000D01*
X81272400Y-64215600D02*
X80472400Y-64215600D01*
X84460000Y-63748800D02*
X84003000Y-63291800D01*
X88803000Y-50720500D02*
X88803000Y-49631400D01*
X89519000Y-47391400D02*
X89519000Y-46432857D01*
X89519000Y-46432857D02*
X89826489Y-46125368D01*
%TO.N,GND*%
D32*
X82331700Y-58923700D02*
X82331700Y-60568700D01*
X92321000Y-58783000D02*
X92461000Y-58923000D01*
X81204998Y-53069871D02*
X81225163Y-53090037D01*
X81204998Y-53069871D02*
X83601634Y-53069871D01*
X81171098Y-60802600D02*
X80882672Y-61091026D01*
X80772748Y-40986348D02*
X80542732Y-40756332D01*
X82809000Y-47391400D02*
X81722300Y-46304700D01*
X84040660Y-40234348D02*
X83288660Y-40986348D01*
X81722300Y-46304700D02*
X81722300Y-45750600D01*
X83621800Y-55732000D02*
X83621800Y-56484600D01*
X86117000Y-65890600D02*
X86659400Y-66433000D01*
X91714200Y-45826800D02*
X90999700Y-45826800D01*
X90569000Y-50280348D02*
X91069000Y-49780348D01*
X80548200Y-54783000D02*
X81234200Y-54097000D01*
X91720348Y-39132348D02*
X91953000Y-39365000D01*
X82809000Y-47391400D02*
X84828000Y-47391400D01*
X77983000Y-39873000D02*
X79186384Y-39873000D01*
X91255732Y-39132348D02*
X91720348Y-39132348D01*
X92461000Y-64003000D02*
X91128080Y-64003000D01*
X83288660Y-40986348D02*
X80772748Y-40986348D01*
X87627000Y-53741400D02*
X87627000Y-55519400D01*
X81204998Y-54097000D02*
X81986800Y-54097000D01*
X91069000Y-49780348D02*
X91069000Y-48915400D01*
X84828000Y-48915400D02*
X84828000Y-47391400D01*
X81793000Y-72766000D02*
X81827000Y-72800000D01*
X91921767Y-45213247D02*
X91921767Y-45619233D01*
X83601634Y-53069871D02*
X83621800Y-53090037D01*
X84612400Y-40225000D02*
X86262400Y-40225000D01*
X84612400Y-40234348D02*
X84612400Y-39132348D01*
X84395603Y-48915400D02*
X83855003Y-49456000D01*
X79186384Y-39873000D02*
X79927036Y-39132348D01*
X81986800Y-54097000D02*
X83621800Y-55732000D01*
X91255732Y-40863348D02*
X91255732Y-41663348D01*
X84612400Y-39132348D02*
X87912400Y-39132348D01*
X80542732Y-40756332D02*
X80542732Y-40059348D01*
X79927036Y-39132348D02*
X84612400Y-39132348D01*
X91255732Y-40063348D02*
X91255732Y-40863348D01*
X86262400Y-40225000D02*
X87912400Y-40225000D01*
X82331700Y-60568700D02*
X82097800Y-60802600D01*
X83621800Y-56484600D02*
X82331700Y-57774700D01*
X84460000Y-65890600D02*
X86117000Y-65890600D01*
X82331000Y-58923000D02*
X82331700Y-58923700D01*
X87912400Y-40234348D02*
X87912400Y-39132348D01*
X84612400Y-40234348D02*
X84040660Y-40234348D01*
X82097800Y-60802600D02*
X81171098Y-60802600D01*
X83621800Y-53090037D02*
X83621800Y-55732000D01*
X90999700Y-45826800D02*
X90999700Y-47322100D01*
X87912400Y-39132348D02*
X91255732Y-39132348D01*
X91069000Y-47391400D02*
X91069000Y-48915400D01*
X87627000Y-55519400D02*
X88389000Y-56281400D01*
X91265500Y-58783000D02*
X92321000Y-58783000D01*
X91921767Y-45619233D02*
X91714200Y-45826800D01*
X82331700Y-57774700D02*
X82331700Y-58923700D01*
X89887000Y-72800000D02*
X89921000Y-72766000D01*
X79940500Y-54783000D02*
X80548200Y-54783000D01*
X81827000Y-72800000D02*
X89887000Y-72800000D01*
X84828000Y-48915400D02*
X84395603Y-48915400D01*
X91255732Y-39132348D02*
X91255732Y-40063348D01*
X91255732Y-41663348D02*
X91255732Y-42463348D01*
X81793000Y-70353000D02*
X81793000Y-72766000D01*
X80523000Y-69083000D02*
X81793000Y-70353000D01*
%TO.N,+5V*%
D30*
X88724700Y-44876800D02*
X89051700Y-44549800D01*
X88188001Y-46131853D02*
X88188001Y-48508999D01*
X88597700Y-44876800D02*
X88597700Y-45722154D01*
X88188001Y-48508999D02*
X87781600Y-48915400D01*
X88597700Y-45722154D02*
X88188001Y-46131853D01*
X87781600Y-48915400D02*
X86378000Y-48915400D01*
X89051700Y-44549800D02*
X89913000Y-44549800D01*
X86378000Y-48915400D02*
X86378000Y-47391400D01*
%TO.N,/TCK*%
D31*
X79421000Y-70521000D02*
X79421000Y-67067000D01*
X79421000Y-67067000D02*
X80472400Y-66015600D01*
X79104496Y-61133502D02*
X79189998Y-61133502D01*
X79421000Y-70521000D02*
X80523000Y-71623000D01*
X79189998Y-61133502D02*
X79940500Y-60383000D01*
%TO.N,/TMS*%
X82072400Y-66533936D02*
X84333000Y-68794536D01*
X81910936Y-66695400D02*
X82072400Y-66533936D01*
X82072400Y-66533936D02*
X82072400Y-66015600D01*
X80073000Y-67781606D02*
X80073000Y-67010400D01*
X79940500Y-59583000D02*
X80941991Y-59583000D01*
X84333000Y-70353000D02*
X85603000Y-71623000D01*
X84333000Y-68794536D02*
X84333000Y-70353000D01*
X80388000Y-66695400D02*
X81910936Y-66695400D01*
X80941991Y-59583000D02*
X81285000Y-59926009D01*
X80073000Y-67010400D02*
X80388000Y-66695400D01*
%TO.N,/TDI*%
X89413000Y-70353000D02*
X87381000Y-70353000D01*
X86873000Y-69845000D02*
X86873000Y-68321000D01*
X90683000Y-71623000D02*
X89413000Y-70353000D01*
X81068994Y-58783000D02*
X81285000Y-58999006D01*
X86873000Y-68321000D02*
X86476000Y-67924000D01*
X82872400Y-66800778D02*
X82872400Y-66015600D01*
X86476000Y-67924000D02*
X83995622Y-67924000D01*
X83995622Y-67924000D02*
X82872400Y-66800778D01*
X79940500Y-58783000D02*
X81068994Y-58783000D01*
X87381000Y-70353000D02*
X86873000Y-69845000D01*
%TO.N,/SRAM_~{WE}*%
X85603000Y-54097000D02*
X86936000Y-55430000D01*
X85603000Y-50720500D02*
X85603000Y-54097000D01*
X85603000Y-46176400D02*
X86357000Y-45422400D01*
X85603000Y-50720500D02*
X85603000Y-46176400D01*
X86936000Y-55430000D02*
X86936000Y-56594396D01*
%TO.N,/CLK_SEL*%
X86357000Y-43282400D02*
X87087400Y-42552000D01*
X86357000Y-43772400D02*
X86357000Y-43282400D01*
%TO.N,/CLK_48M*%
X81887200Y-43004378D02*
X80707978Y-43004378D01*
X80707978Y-43004378D02*
X80542732Y-42839132D01*
X80542732Y-42839132D02*
X80542732Y-41959348D01*
%TO.N,/SRAM_Q0*%
X90204182Y-40063348D02*
X90328730Y-39938800D01*
X89455732Y-40063348D02*
X90204182Y-40063348D01*
%TO.N,/SRAM_Q1*%
X90328730Y-40865803D02*
X89458187Y-40865803D01*
%TO.N,/SRAM_Q2*%
X90199272Y-41663348D02*
X90328730Y-41792806D01*
X89455732Y-41663348D02*
X90199272Y-41663348D01*
%TO.N,/SRAM_Q3*%
X90072269Y-42463348D02*
X90328730Y-42719809D01*
X89455732Y-42463348D02*
X90072269Y-42463348D01*
%TO.N,/TDO*%
X90245243Y-67575771D02*
X89446885Y-68374129D01*
X90245243Y-66581399D02*
X90245243Y-67575771D01*
%TO.N,/CLK_16M*%
X80007000Y-45949148D02*
X80007000Y-46629400D01*
X80386600Y-47009000D02*
X81398467Y-47009000D01*
X80007000Y-46629400D02*
X80386600Y-47009000D01*
%TO.N,/CLK_16M_R*%
X81722300Y-44800600D02*
X80508452Y-44800600D01*
X80508452Y-44800600D02*
X80007000Y-44299148D01*
%TO.N,/CLK_2M*%
X79940500Y-52383000D02*
X79940500Y-51450816D01*
X79940500Y-51450816D02*
X78522683Y-50033000D01*
%TO.N,/CLK_4M*%
X79940500Y-53183000D02*
X78593000Y-53183000D01*
X78593000Y-53183000D02*
X77983000Y-52573000D01*
%TO.N,/CLK_8M*%
X79113000Y-53983000D02*
X77983000Y-55113000D01*
X79940500Y-53983000D02*
X79113000Y-53983000D01*
%TO.N,/SRAM_A2*%
X79940500Y-55583000D02*
X80993000Y-55583000D01*
X81668974Y-56258974D02*
X82577426Y-56258974D01*
X80993000Y-55583000D02*
X81668974Y-56258974D01*
%TO.N,/SRAM_A1*%
X79940500Y-56383000D02*
X80800067Y-56383000D01*
X80800067Y-56383000D02*
X81279829Y-56862762D01*
%TO.N,/SRAM_A0*%
X81285000Y-57790001D02*
X81285000Y-58059400D01*
X80677999Y-57183000D02*
X81285000Y-57790001D01*
X79940500Y-57183000D02*
X80677999Y-57183000D01*
%TO.N,/B_IN*%
X77983000Y-60193000D02*
X78951000Y-59225000D01*
X78951000Y-58235001D02*
X79203001Y-57983000D01*
X79203001Y-57983000D02*
X79940500Y-57983000D01*
X78951000Y-59225000D02*
X78951000Y-58235001D01*
%TO.N,/B*%
X80915500Y-62733000D02*
X77983000Y-62733000D01*
X81603000Y-62045500D02*
X80915500Y-62733000D01*
%TO.N,/G_IN*%
X82403000Y-62782999D02*
X82403000Y-62045500D01*
X79858841Y-63110000D02*
X82075999Y-63110000D01*
X82075999Y-63110000D02*
X82403000Y-62782999D01*
X79114370Y-65273000D02*
X79371421Y-65015949D01*
X77983000Y-65273000D02*
X79114370Y-65273000D01*
X79371421Y-63597421D02*
X79858841Y-63110000D01*
X79371421Y-65015949D02*
X79371421Y-63597421D01*
%TO.N,/G*%
X79748421Y-66047579D02*
X79748421Y-63785579D01*
X80047000Y-63487000D02*
X82814000Y-63487000D01*
X79748421Y-63785579D02*
X80047000Y-63487000D01*
X77983000Y-67813000D02*
X79748421Y-66047579D01*
X82814000Y-63487000D02*
X83203000Y-63098000D01*
X83203000Y-63098000D02*
X83203000Y-62045500D01*
%TO.N,/SRAM_A3*%
X84803000Y-61253000D02*
X84505000Y-60955000D01*
X84803000Y-62045500D02*
X84803000Y-61253000D01*
X84505000Y-60955000D02*
X84505000Y-58617650D01*
X84505000Y-58617650D02*
X84780000Y-58342650D01*
%TO.N,/R_IN*%
X91785000Y-72610842D02*
X91034842Y-73361000D01*
X90222526Y-65929400D02*
X91325331Y-65929400D01*
X86403000Y-62045500D02*
X86403000Y-62782999D01*
X79035000Y-72929000D02*
X79035000Y-71405000D01*
X91785000Y-66389069D02*
X91785000Y-72610842D01*
X91325331Y-65929400D02*
X91785000Y-66389069D01*
X91034842Y-73361000D02*
X79467000Y-73361000D01*
X79035000Y-71405000D02*
X77983000Y-70353000D01*
X79467000Y-73361000D02*
X79035000Y-72929000D01*
X87711563Y-63418437D02*
X90222526Y-65929400D01*
X87038438Y-63418437D02*
X87711563Y-63418437D01*
X86403000Y-62782999D02*
X87038438Y-63418437D01*
%TO.N,/R*%
X87381000Y-63041437D02*
X87867721Y-63041437D01*
X78828000Y-73738000D02*
X77983000Y-72893000D01*
X87203000Y-62863437D02*
X87381000Y-63041437D01*
X91481489Y-65552400D02*
X92162000Y-66232911D01*
X92162000Y-66232911D02*
X92162000Y-72767000D01*
X87867721Y-63041437D02*
X90378683Y-65552400D01*
X92162000Y-72767000D02*
X91191000Y-73738000D01*
X87203000Y-62045500D02*
X87203000Y-62863437D01*
X91191000Y-73738000D02*
X78828000Y-73738000D01*
X90378683Y-65552400D02*
X91481489Y-65552400D01*
%TO.N,/D0*%
X93223000Y-67813000D02*
X92539000Y-67129000D01*
X90526841Y-65167400D02*
X88003000Y-62643559D01*
X92539000Y-67129000D02*
X92539000Y-66076752D01*
X92539000Y-66076752D02*
X91629647Y-65167400D01*
X91629647Y-65167400D02*
X90526841Y-65167400D01*
%TO.N,/D1*%
X88803000Y-62045500D02*
X88803000Y-62910400D01*
X92740400Y-64790400D02*
X93223000Y-65273000D01*
X90683000Y-64790400D02*
X92740400Y-64790400D01*
X88803000Y-62910400D02*
X90683000Y-64790400D01*
%TO.N,/D2*%
X90013349Y-63193348D02*
X89603000Y-62782999D01*
X92762652Y-63193348D02*
X90013349Y-63193348D01*
X89603000Y-62782999D02*
X89603000Y-62045500D01*
%TO.N,/D3*%
X91265500Y-60383000D02*
X93033000Y-60383000D01*
%TO.N,/D4*%
X92753000Y-57183000D02*
X91265500Y-57183000D01*
%TO.N,/D5*%
X91265500Y-56383000D02*
X91953000Y-56383000D01*
X91953000Y-56383000D02*
X93223000Y-55113000D01*
%TO.N,/SRAM_D0*%
X89522000Y-54331646D02*
X90773354Y-55583000D01*
X89522000Y-53063028D02*
X89522000Y-54331646D01*
X89247000Y-52788028D02*
X89522000Y-53063028D01*
%TO.N,/DISEN*%
X89899000Y-51924196D02*
X91794000Y-50029195D01*
X92171000Y-46009224D02*
X93223000Y-44957224D01*
X91794000Y-48174800D02*
X92171000Y-47797800D01*
X89899000Y-54175488D02*
X89899000Y-51924196D01*
X92171000Y-47797800D02*
X92171000Y-46009224D01*
X90506512Y-54783000D02*
X89899000Y-54175488D01*
X91794000Y-50029195D02*
X91794000Y-48174800D01*
X91265500Y-54783000D02*
X90506512Y-54783000D01*
%TO.N,/CURSOR*%
X90506512Y-53983000D02*
X90276000Y-53752488D01*
X92171000Y-50185354D02*
X92171000Y-48330958D01*
X90276000Y-53752488D02*
X90276000Y-52080354D01*
X90276000Y-52080354D02*
X92171000Y-50185354D01*
X91265500Y-53983000D02*
X90506512Y-53983000D01*
X92171000Y-48330958D02*
X93008958Y-47493000D01*
%TO.N,/D6*%
X92613000Y-53183000D02*
X93223000Y-52573000D01*
X91265500Y-53183000D02*
X92613000Y-53183000D01*
%TO.N,/D7*%
X91265500Y-51624012D02*
X92856512Y-50033000D01*
X91265500Y-52383000D02*
X91265500Y-51624012D01*
%TO.N,/SRAM_D1*%
X88783884Y-51985000D02*
X89075999Y-51985000D01*
X89075999Y-51985000D02*
X89603000Y-51457999D01*
X89603000Y-51457999D02*
X89603000Y-50720500D01*
%TO.N,/CLK_CRTC*%
X92098000Y-44063670D02*
X92098000Y-40998000D01*
X88003000Y-49403935D02*
X88690000Y-48716935D01*
X88690000Y-48716935D02*
X88690000Y-46339789D01*
X92098000Y-40998000D02*
X93223000Y-39873000D01*
X88003000Y-50720500D02*
X88003000Y-49403935D01*
X90869200Y-45274800D02*
X91445000Y-44699000D01*
X91462670Y-44699000D02*
X92098000Y-44063670D01*
X89754990Y-45274800D02*
X90869200Y-45274800D01*
X91445000Y-44699000D02*
X91462670Y-44699000D01*
X88690000Y-46339789D02*
X89754990Y-45274800D01*
%TO.N,/SRAM_D2*%
X87203000Y-51325928D02*
X87856882Y-51979810D01*
X87856882Y-51979810D02*
X87856882Y-51985004D01*
%TO.N,/SRAM_D3*%
X86403000Y-51447996D02*
X86403000Y-50720500D01*
X86929934Y-51974930D02*
X86403000Y-51447996D01*
%TO.N,/CLK_1M*%
X77983000Y-47493000D02*
X79044000Y-48554000D01*
X81109842Y-52087000D02*
X83928646Y-52087000D01*
X79044000Y-50021159D02*
X81109842Y-52087000D01*
X83928646Y-52087000D02*
X84803000Y-51212646D01*
X79044000Y-48554000D02*
X79044000Y-50021159D01*
%TO.N,/~{CS}*%
X79421000Y-49865000D02*
X81266000Y-51710000D01*
X77983000Y-45727540D02*
X79421000Y-47165540D01*
X81266000Y-51710000D02*
X83750999Y-51710000D01*
X83750999Y-51710000D02*
X84003000Y-51457999D01*
X77983000Y-44953000D02*
X77983000Y-45727540D01*
X79421000Y-47165540D02*
X79421000Y-49865000D01*
X84003000Y-51457999D02*
X84003000Y-50720500D01*
%TO.N,/A*%
X79035000Y-44517247D02*
X79035000Y-46246382D01*
X83203000Y-49238998D02*
X83203000Y-50720500D01*
X81625002Y-47661000D02*
X83203000Y-49238998D01*
X79035000Y-46246382D02*
X80449618Y-47661000D01*
X77983000Y-43465247D02*
X79035000Y-44517247D01*
X80449618Y-47661000D02*
X81625002Y-47661000D01*
X77983000Y-42413000D02*
X77983000Y-43465247D01*
%TO.N,/CLK_IN*%
X82403000Y-50720500D02*
X82403000Y-49547548D01*
X82403000Y-49547548D02*
X82359000Y-49503548D01*
%TO.N,/CLK_6M*%
X80523000Y-48763000D02*
X80523000Y-50399488D01*
X80844012Y-50720500D02*
X81603000Y-50720500D01*
X80523000Y-50399488D02*
X80844012Y-50720500D01*
%TO.N,/CLK_16M_BUF*%
X83997300Y-45750600D02*
X83225600Y-45750600D01*
X83225600Y-45750600D02*
X82936000Y-45461000D01*
%TO.N,/TDO*%
X89252400Y-59127711D02*
X89252400Y-58288867D01*
%TO.N,+3.3V*%
D30*
X82872400Y-64215600D02*
X82072400Y-64215600D01*
%TD*%
%TA.AperFunction,Conductor*%
%TO.N,GND*%
G36*
X81638270Y-69844717D02*
G01*
X81638270Y-69844716D01*
X81677622Y-69790554D01*
X81774093Y-69601221D01*
X81804134Y-69508762D01*
X81843571Y-69451086D01*
X81907929Y-69423887D01*
X81976776Y-69435801D01*
X82028252Y-69483044D01*
X82037197Y-69502625D01*
X82037554Y-69502478D01*
X82039417Y-69506975D01*
X82039419Y-69506980D01*
X82039420Y-69506981D01*
X82118347Y-69661884D01*
X82220535Y-69802533D01*
X82343467Y-69925465D01*
X82484116Y-70027653D01*
X82526648Y-70049324D01*
X82639021Y-70106581D01*
X82804358Y-70160302D01*
X82804359Y-70160302D01*
X82804362Y-70160303D01*
X82976074Y-70187500D01*
X82976075Y-70187500D01*
X83149925Y-70187500D01*
X83149926Y-70187500D01*
X83321638Y-70160303D01*
X83321641Y-70160302D01*
X83321642Y-70160302D01*
X83486978Y-70106581D01*
X83486978Y-70106580D01*
X83486981Y-70106580D01*
X83641884Y-70027653D01*
X83756614Y-69944295D01*
X83822420Y-69920815D01*
X83890474Y-69936640D01*
X83939169Y-69986745D01*
X83953500Y-70044613D01*
X83953500Y-70295425D01*
X83953499Y-70295443D01*
X83953499Y-70303038D01*
X83953499Y-70402962D01*
X83973896Y-70479084D01*
X83973897Y-70479086D01*
X83979362Y-70499482D01*
X83979363Y-70499485D01*
X84029321Y-70586015D01*
X84029325Y-70586020D01*
X84107046Y-70663741D01*
X84107052Y-70663746D01*
X84541115Y-71097809D01*
X84574600Y-71159132D01*
X84571365Y-71223808D01*
X84525697Y-71364357D01*
X84525697Y-71364360D01*
X84498500Y-71536074D01*
X84498500Y-71709925D01*
X84525697Y-71881639D01*
X84525697Y-71881642D01*
X84579418Y-72046978D01*
X84658347Y-72201884D01*
X84760535Y-72342533D01*
X84883467Y-72465465D01*
X85024116Y-72567653D01*
X85179019Y-72646580D01*
X85179021Y-72646581D01*
X85344358Y-72700302D01*
X85344359Y-72700302D01*
X85344362Y-72700303D01*
X85516074Y-72727500D01*
X85516075Y-72727500D01*
X85689925Y-72727500D01*
X85689926Y-72727500D01*
X85861638Y-72700303D01*
X85861641Y-72700302D01*
X85861642Y-72700302D01*
X86026978Y-72646581D01*
X86026978Y-72646580D01*
X86026981Y-72646580D01*
X86181884Y-72567653D01*
X86322533Y-72465465D01*
X86445465Y-72342533D01*
X86547653Y-72201884D01*
X86626580Y-72046981D01*
X86658898Y-71947517D01*
X86680302Y-71881642D01*
X86680302Y-71881641D01*
X86680303Y-71881638D01*
X86707500Y-71709926D01*
X86707500Y-71536074D01*
X86680303Y-71364362D01*
X86680302Y-71364358D01*
X86680302Y-71364357D01*
X86626581Y-71199021D01*
X86608119Y-71162787D01*
X86547653Y-71044116D01*
X86445465Y-70903467D01*
X86322533Y-70780535D01*
X86181884Y-70678347D01*
X86139354Y-70656677D01*
X86026978Y-70599418D01*
X85861641Y-70545697D01*
X85732854Y-70525299D01*
X85689926Y-70518500D01*
X85516074Y-70518500D01*
X85458836Y-70527565D01*
X85344360Y-70545697D01*
X85344357Y-70545697D01*
X85203808Y-70591365D01*
X85133967Y-70593360D01*
X85077809Y-70561115D01*
X84748819Y-70232125D01*
X84715334Y-70170802D01*
X84712500Y-70144444D01*
X84712500Y-70044613D01*
X84732185Y-69977574D01*
X84784989Y-69931819D01*
X84854147Y-69921875D01*
X84909384Y-69944295D01*
X84924340Y-69955161D01*
X85024111Y-70027650D01*
X85024113Y-70027651D01*
X85024116Y-70027653D01*
X85066648Y-70049324D01*
X85179021Y-70106581D01*
X85344358Y-70160302D01*
X85344359Y-70160302D01*
X85344362Y-70160303D01*
X85516074Y-70187500D01*
X85516075Y-70187500D01*
X85689925Y-70187500D01*
X85689926Y-70187500D01*
X85861638Y-70160303D01*
X85861641Y-70160302D01*
X85861642Y-70160302D01*
X86026978Y-70106581D01*
X86026978Y-70106580D01*
X86026981Y-70106580D01*
X86181884Y-70027653D01*
X86322533Y-69925465D01*
X86322535Y-69925462D01*
X86326474Y-69922601D01*
X86328089Y-69924823D01*
X86380950Y-69900263D01*
X86450172Y-69909753D01*
X86503275Y-69955161D01*
X86516154Y-69984016D01*
X86516253Y-69983976D01*
X86517752Y-69987596D01*
X86519174Y-69990781D01*
X86519361Y-69991481D01*
X86519363Y-69991485D01*
X86569321Y-70078015D01*
X86569325Y-70078020D01*
X86647046Y-70155741D01*
X86647052Y-70155746D01*
X87072983Y-70581677D01*
X87072993Y-70581688D01*
X87077323Y-70586018D01*
X87077324Y-70586019D01*
X87147981Y-70656676D01*
X87147983Y-70656677D01*
X87147984Y-70656678D01*
X87177464Y-70673698D01*
X87234518Y-70706638D01*
X87235156Y-70706809D01*
X87235212Y-70706824D01*
X87235729Y-70707139D01*
X87242025Y-70709747D01*
X87241618Y-70710728D01*
X87294872Y-70743190D01*
X87325400Y-70806037D01*
X87317103Y-70875413D01*
X87302659Y-70898988D01*
X87303399Y-70899526D01*
X87300537Y-70903464D01*
X87300535Y-70903467D01*
X87281704Y-70929386D01*
X87198347Y-71044115D01*
X87119418Y-71199021D01*
X87065697Y-71364357D01*
X87065697Y-71364360D01*
X87038500Y-71536074D01*
X87038500Y-71709925D01*
X87065697Y-71881639D01*
X87065697Y-71881642D01*
X87119418Y-72046978D01*
X87198347Y-72201884D01*
X87300535Y-72342533D01*
X87423467Y-72465465D01*
X87564116Y-72567653D01*
X87719019Y-72646580D01*
X87719021Y-72646581D01*
X87884358Y-72700302D01*
X87884359Y-72700302D01*
X87884362Y-72700303D01*
X88056074Y-72727500D01*
X88056075Y-72727500D01*
X88229925Y-72727500D01*
X88229926Y-72727500D01*
X88401638Y-72700303D01*
X88401641Y-72700302D01*
X88401642Y-72700302D01*
X88566978Y-72646581D01*
X88566978Y-72646580D01*
X88566981Y-72646580D01*
X88721884Y-72567653D01*
X88862533Y-72465465D01*
X88985465Y-72342533D01*
X89087653Y-72201884D01*
X89166580Y-72046981D01*
X89198898Y-71947517D01*
X89220302Y-71881642D01*
X89220302Y-71881641D01*
X89220303Y-71881638D01*
X89247500Y-71709926D01*
X89247500Y-71536074D01*
X89220303Y-71364362D01*
X89220302Y-71364358D01*
X89220302Y-71364357D01*
X89166581Y-71199021D01*
X89148119Y-71162787D01*
X89087653Y-71044116D01*
X89004295Y-70929385D01*
X88980816Y-70863580D01*
X88996641Y-70795526D01*
X89046747Y-70746831D01*
X89104614Y-70732500D01*
X89204444Y-70732500D01*
X89271483Y-70752185D01*
X89292125Y-70768819D01*
X89621115Y-71097809D01*
X89654600Y-71159132D01*
X89651365Y-71223808D01*
X89605697Y-71364357D01*
X89605697Y-71364360D01*
X89578500Y-71536074D01*
X89578500Y-71709925D01*
X89605697Y-71881639D01*
X89605697Y-71881642D01*
X89659418Y-72046978D01*
X89738347Y-72201884D01*
X89840535Y-72342533D01*
X89963467Y-72465465D01*
X90104116Y-72567653D01*
X90259019Y-72646580D01*
X90259021Y-72646581D01*
X90424358Y-72700302D01*
X90424359Y-72700302D01*
X90424362Y-72700303D01*
X90596074Y-72727500D01*
X90596075Y-72727500D01*
X90769924Y-72727500D01*
X90769926Y-72727500D01*
X90822788Y-72719127D01*
X90892080Y-72728081D01*
X90945532Y-72773077D01*
X90966172Y-72839828D01*
X90947448Y-72907142D01*
X90929869Y-72929278D01*
X90913970Y-72945178D01*
X90852648Y-72978665D01*
X90826286Y-72981500D01*
X79675556Y-72981500D01*
X79608517Y-72961815D01*
X79587875Y-72945181D01*
X79581874Y-72939180D01*
X79548389Y-72877857D01*
X79553373Y-72808165D01*
X79595245Y-72752232D01*
X79660709Y-72727815D01*
X79669527Y-72727499D01*
X81398066Y-72727499D01*
X81472301Y-72712734D01*
X81556484Y-72656484D01*
X81612734Y-72572301D01*
X81627500Y-72498067D01*
X81627499Y-71536074D01*
X81958500Y-71536074D01*
X81958500Y-71709925D01*
X81985697Y-71881639D01*
X81985697Y-71881642D01*
X82039418Y-72046978D01*
X82118347Y-72201884D01*
X82220535Y-72342533D01*
X82343467Y-72465465D01*
X82484116Y-72567653D01*
X82639019Y-72646580D01*
X82639021Y-72646581D01*
X82804358Y-72700302D01*
X82804359Y-72700302D01*
X82804362Y-72700303D01*
X82976074Y-72727500D01*
X82976075Y-72727500D01*
X83149925Y-72727500D01*
X83149926Y-72727500D01*
X83321638Y-72700303D01*
X83321641Y-72700302D01*
X83321642Y-72700302D01*
X83486978Y-72646581D01*
X83486978Y-72646580D01*
X83486981Y-72646580D01*
X83641884Y-72567653D01*
X83782533Y-72465465D01*
X83905465Y-72342533D01*
X84007653Y-72201884D01*
X84086580Y-72046981D01*
X84118898Y-71947517D01*
X84140302Y-71881642D01*
X84140302Y-71881641D01*
X84140303Y-71881638D01*
X84167500Y-71709926D01*
X84167500Y-71536074D01*
X84140303Y-71364362D01*
X84140302Y-71364358D01*
X84140302Y-71364357D01*
X84086581Y-71199021D01*
X84068119Y-71162787D01*
X84007653Y-71044116D01*
X83905465Y-70903467D01*
X83782533Y-70780535D01*
X83641884Y-70678347D01*
X83599354Y-70656677D01*
X83486978Y-70599418D01*
X83321641Y-70545697D01*
X83192854Y-70525299D01*
X83149926Y-70518500D01*
X82976074Y-70518500D01*
X82918836Y-70527565D01*
X82804360Y-70545697D01*
X82804357Y-70545697D01*
X82639021Y-70599418D01*
X82484115Y-70678347D01*
X82409581Y-70732500D01*
X82343467Y-70780535D01*
X82343465Y-70780537D01*
X82343464Y-70780537D01*
X82220537Y-70903464D01*
X82220537Y-70903465D01*
X82220535Y-70903467D01*
X82201704Y-70929386D01*
X82118347Y-71044115D01*
X82039418Y-71199021D01*
X81985697Y-71364357D01*
X81985697Y-71364360D01*
X81958500Y-71536074D01*
X81627499Y-71536074D01*
X81627499Y-70747934D01*
X81612734Y-70673699D01*
X81563102Y-70599420D01*
X81556484Y-70589515D01*
X81490905Y-70545697D01*
X81472301Y-70533266D01*
X81472299Y-70533265D01*
X81472296Y-70533264D01*
X81398071Y-70518500D01*
X81398067Y-70518500D01*
X81195800Y-70518500D01*
X81128761Y-70498815D01*
X81083006Y-70446011D01*
X81073062Y-70376853D01*
X81102087Y-70313297D01*
X81139505Y-70284015D01*
X81230554Y-70237622D01*
X81284716Y-70198270D01*
X81284717Y-70198270D01*
X80652409Y-69565962D01*
X80715993Y-69548925D01*
X80830007Y-69483099D01*
X80923099Y-69390007D01*
X80988925Y-69275993D01*
X81005962Y-69212408D01*
X81638270Y-69844717D01*
G37*
%TD.AperFunction*%
%TA.AperFunction,Conductor*%
G36*
X82052897Y-67070624D02*
G01*
X82102827Y-67101057D01*
X82814574Y-67812804D01*
X82848059Y-67874127D01*
X82843075Y-67943819D01*
X82801203Y-67999752D01*
X82765212Y-68018416D01*
X82639020Y-68059419D01*
X82484115Y-68138347D01*
X82403869Y-68196649D01*
X82343467Y-68240535D01*
X82343465Y-68240537D01*
X82343464Y-68240537D01*
X82220537Y-68363464D01*
X82220537Y-68363465D01*
X82220535Y-68363467D01*
X82184358Y-68413260D01*
X82118347Y-68504115D01*
X82039417Y-68659024D01*
X82037554Y-68663522D01*
X82036118Y-68662927D01*
X82000529Y-68714939D01*
X81936162Y-68742116D01*
X81867319Y-68730180D01*
X81815858Y-68682919D01*
X81804135Y-68657237D01*
X81774096Y-68564784D01*
X81677624Y-68375449D01*
X81638270Y-68321282D01*
X81638269Y-68321282D01*
X81005962Y-68953590D01*
X80988925Y-68890007D01*
X80923099Y-68775993D01*
X80830007Y-68682901D01*
X80715993Y-68617075D01*
X80652407Y-68600036D01*
X81284716Y-67967728D01*
X81230550Y-67928375D01*
X81041215Y-67831903D01*
X80839125Y-67766241D01*
X80819310Y-67763103D01*
X80756176Y-67733172D01*
X80719246Y-67673860D01*
X80717093Y-67664821D01*
X80702350Y-67590702D01*
X80702347Y-67590693D01*
X80653013Y-67471588D01*
X80653012Y-67471586D01*
X80641859Y-67454895D01*
X80581383Y-67364386D01*
X80581380Y-67364382D01*
X80506227Y-67289229D01*
X80472742Y-67227906D01*
X80477726Y-67158214D01*
X80506227Y-67113867D01*
X80508875Y-67111219D01*
X80570198Y-67077734D01*
X80596556Y-67074900D01*
X81853362Y-67074900D01*
X81853378Y-67074901D01*
X81860974Y-67074901D01*
X81960897Y-67074901D01*
X81960898Y-67074901D01*
X81983049Y-67068965D01*
X82052897Y-67070624D01*
G37*
%TD.AperFunction*%
%TA.AperFunction,Conductor*%
G36*
X85073072Y-51698260D02*
G01*
X85131014Y-51696601D01*
X85190850Y-51732677D01*
X85221682Y-51795375D01*
X85223500Y-51816529D01*
X85223500Y-54039425D01*
X85223499Y-54039443D01*
X85223499Y-54146966D01*
X85224670Y-54151332D01*
X85224672Y-54151349D01*
X85224675Y-54151349D01*
X85249362Y-54243483D01*
X85249363Y-54243484D01*
X85299321Y-54330015D01*
X85299325Y-54330020D01*
X85377046Y-54407741D01*
X85377052Y-54407746D01*
X86520181Y-55550875D01*
X86553666Y-55612198D01*
X86556500Y-55638556D01*
X86556500Y-55996930D01*
X86536815Y-56063969D01*
X86520181Y-56084611D01*
X86427619Y-56177172D01*
X86427616Y-56177176D01*
X86355987Y-56284376D01*
X86355986Y-56284378D01*
X86306652Y-56403483D01*
X86306649Y-56403492D01*
X86281500Y-56529928D01*
X86281500Y-56658863D01*
X86306649Y-56785299D01*
X86306652Y-56785308D01*
X86355986Y-56904413D01*
X86355987Y-56904415D01*
X86427616Y-57011615D01*
X86427619Y-57011619D01*
X86518776Y-57102776D01*
X86518780Y-57102779D01*
X86625978Y-57174407D01*
X86625979Y-57174407D01*
X86625980Y-57174408D01*
X86625982Y-57174409D01*
X86705385Y-57207298D01*
X86745089Y-57223744D01*
X86745091Y-57223744D01*
X86745096Y-57223746D01*
X86871532Y-57248895D01*
X86871536Y-57248896D01*
X86871537Y-57248896D01*
X87000464Y-57248896D01*
X87000465Y-57248895D01*
X87055050Y-57238038D01*
X87126903Y-57223746D01*
X87126906Y-57223744D01*
X87126911Y-57223744D01*
X87246022Y-57174407D01*
X87353220Y-57102779D01*
X87444383Y-57011616D01*
X87516011Y-56904418D01*
X87565348Y-56785307D01*
X87568919Y-56767357D01*
X87590499Y-56658863D01*
X87590500Y-56658860D01*
X87590500Y-56529932D01*
X87590499Y-56529928D01*
X87565350Y-56403492D01*
X87565347Y-56403483D01*
X87516013Y-56284378D01*
X87516012Y-56284376D01*
X87444383Y-56177176D01*
X87444380Y-56177172D01*
X87351819Y-56084611D01*
X87318334Y-56023288D01*
X87315500Y-55996930D01*
X87315500Y-55489964D01*
X87315501Y-55489951D01*
X87315501Y-55380039D01*
X87311278Y-55364280D01*
X87289638Y-55283519D01*
X87289638Y-55283518D01*
X87289638Y-55283517D01*
X87239678Y-55196984D01*
X87239677Y-55196983D01*
X87239676Y-55196981D01*
X87169019Y-55126324D01*
X87169018Y-55126323D01*
X87164688Y-55121993D01*
X87164677Y-55121983D01*
X86018819Y-53976125D01*
X85985334Y-53914802D01*
X85982500Y-53888444D01*
X85982500Y-51863552D01*
X86002185Y-51796513D01*
X86054989Y-51750758D01*
X86124147Y-51740814D01*
X86187703Y-51769839D01*
X86194181Y-51775871D01*
X86239115Y-51820805D01*
X86272600Y-51882128D01*
X86275434Y-51908486D01*
X86275434Y-52039397D01*
X86300583Y-52165833D01*
X86300586Y-52165842D01*
X86349920Y-52284947D01*
X86349921Y-52284949D01*
X86421550Y-52392149D01*
X86421553Y-52392153D01*
X86512710Y-52483310D01*
X86512714Y-52483313D01*
X86619912Y-52554941D01*
X86619913Y-52554941D01*
X86619914Y-52554942D01*
X86619916Y-52554943D01*
X86688947Y-52583536D01*
X86739023Y-52604278D01*
X86739025Y-52604278D01*
X86739030Y-52604280D01*
X86865466Y-52629429D01*
X86865470Y-52629430D01*
X86865471Y-52629430D01*
X86994398Y-52629430D01*
X86994399Y-52629429D01*
X87036546Y-52621046D01*
X87120837Y-52604280D01*
X87120840Y-52604278D01*
X87120845Y-52604278D01*
X87239956Y-52554941D01*
X87316982Y-52503473D01*
X87383654Y-52482597D01*
X87451035Y-52501081D01*
X87454750Y-52503468D01*
X87546860Y-52565015D01*
X87546863Y-52565016D01*
X87546864Y-52565017D01*
X87591574Y-52583536D01*
X87665971Y-52614352D01*
X87665973Y-52614352D01*
X87665978Y-52614354D01*
X87792414Y-52639503D01*
X87792418Y-52639504D01*
X87792419Y-52639504D01*
X87921346Y-52639504D01*
X87921347Y-52639503D01*
X87982312Y-52627377D01*
X88047785Y-52614354D01*
X88047788Y-52614352D01*
X88047793Y-52614352D01*
X88166904Y-52565015D01*
X88251495Y-52508492D01*
X88318170Y-52487614D01*
X88385551Y-52506098D01*
X88389276Y-52508492D01*
X88391847Y-52510210D01*
X88473862Y-52565011D01*
X88518588Y-52583537D01*
X88572991Y-52627377D01*
X88595057Y-52693671D01*
X88592754Y-52722284D01*
X88592500Y-52723558D01*
X88592500Y-52852495D01*
X88617649Y-52978931D01*
X88617652Y-52978940D01*
X88666986Y-53098045D01*
X88666987Y-53098047D01*
X88738616Y-53205247D01*
X88738619Y-53205251D01*
X88829776Y-53296408D01*
X88829780Y-53296411D01*
X88936978Y-53368039D01*
X88936979Y-53368039D01*
X88936980Y-53368040D01*
X88936982Y-53368041D01*
X89061717Y-53419707D01*
X89061090Y-53421218D01*
X89112922Y-53455175D01*
X89141388Y-53518983D01*
X89142500Y-53535552D01*
X89142500Y-54192459D01*
X89122815Y-54259498D01*
X89070011Y-54305253D01*
X89042694Y-54314076D01*
X89024435Y-54317708D01*
X89024430Y-54317709D01*
X88905325Y-54367043D01*
X88905323Y-54367044D01*
X88798123Y-54438673D01*
X88798119Y-54438676D01*
X88706962Y-54529833D01*
X88706959Y-54529837D01*
X88635330Y-54637037D01*
X88635329Y-54637039D01*
X88585995Y-54756144D01*
X88585992Y-54756153D01*
X88560843Y-54882589D01*
X88560843Y-55011524D01*
X88585992Y-55137960D01*
X88585995Y-55137969D01*
X88635329Y-55257074D01*
X88635330Y-55257076D01*
X88706959Y-55364276D01*
X88706962Y-55364280D01*
X88798119Y-55455437D01*
X88798123Y-55455440D01*
X88905321Y-55527068D01*
X88905322Y-55527068D01*
X88905323Y-55527069D01*
X88905325Y-55527070D01*
X88940902Y-55541806D01*
X89024432Y-55576405D01*
X89120845Y-55595582D01*
X89182754Y-55627966D01*
X89184333Y-55629518D01*
X89610181Y-56055366D01*
X89643666Y-56116689D01*
X89646500Y-56143047D01*
X89646500Y-56262500D01*
X89626815Y-56329539D01*
X89574011Y-56375294D01*
X89522500Y-56386500D01*
X89485003Y-56386500D01*
X89408016Y-56407128D01*
X89356690Y-56420881D01*
X89356689Y-56420882D01*
X89241655Y-56487296D01*
X89241650Y-56487300D01*
X88346700Y-57382251D01*
X88346699Y-57382253D01*
X88305565Y-57453500D01*
X88280281Y-57497293D01*
X88245900Y-57625604D01*
X88245900Y-59402066D01*
X88249694Y-59416226D01*
X88280281Y-59530378D01*
X88280281Y-59530379D01*
X88284971Y-59538501D01*
X88284972Y-59538503D01*
X88346694Y-59645410D01*
X88346700Y-59645418D01*
X88686426Y-59985144D01*
X88694817Y-59994711D01*
X89541926Y-60841819D01*
X89575411Y-60903142D01*
X89570427Y-60972833D01*
X89528555Y-61028767D01*
X89463091Y-61053184D01*
X89454250Y-61053500D01*
X89434653Y-61053500D01*
X89342852Y-61068039D01*
X89259294Y-61110615D01*
X89190624Y-61123511D01*
X89146707Y-61110616D01*
X89063145Y-61068039D01*
X89063143Y-61068038D01*
X89063140Y-61068037D01*
X88971354Y-61053500D01*
X88634652Y-61053500D01*
X88542852Y-61068039D01*
X88459294Y-61110615D01*
X88390624Y-61123511D01*
X88346707Y-61110616D01*
X88263145Y-61068039D01*
X88263143Y-61068038D01*
X88263140Y-61068037D01*
X88171354Y-61053500D01*
X87834652Y-61053500D01*
X87742852Y-61068039D01*
X87659294Y-61110615D01*
X87590624Y-61123511D01*
X87546707Y-61110616D01*
X87463145Y-61068039D01*
X87463143Y-61068038D01*
X87463140Y-61068037D01*
X87371354Y-61053500D01*
X87034652Y-61053500D01*
X86942852Y-61068039D01*
X86859294Y-61110615D01*
X86790624Y-61123511D01*
X86746707Y-61110616D01*
X86663145Y-61068039D01*
X86663143Y-61068038D01*
X86663140Y-61068037D01*
X86571354Y-61053500D01*
X86301424Y-61053500D01*
X86234385Y-61033815D01*
X86213742Y-61017181D01*
X86134335Y-60937773D01*
X86134331Y-60937770D01*
X85995692Y-60855780D01*
X85995689Y-60855778D01*
X85853001Y-60814323D01*
X85853000Y-60814324D01*
X85853000Y-63276673D01*
X85995694Y-63235218D01*
X86115765Y-63164209D01*
X86183489Y-63147026D01*
X86249751Y-63169186D01*
X86266567Y-63183260D01*
X86730421Y-63647114D01*
X86730431Y-63647125D01*
X86734761Y-63651455D01*
X86734762Y-63651456D01*
X86805419Y-63722113D01*
X86891956Y-63772075D01*
X86891955Y-63772075D01*
X86901235Y-63774561D01*
X86912353Y-63777540D01*
X86988476Y-63797938D01*
X86988477Y-63797938D01*
X87095996Y-63797938D01*
X87096012Y-63797937D01*
X87503007Y-63797937D01*
X87570046Y-63817622D01*
X87590688Y-63834256D01*
X89741053Y-65984622D01*
X89774538Y-66045945D01*
X89769554Y-66115637D01*
X89741058Y-66159979D01*
X89736865Y-66164172D01*
X89736859Y-66164179D01*
X89665230Y-66271379D01*
X89665229Y-66271381D01*
X89615895Y-66390486D01*
X89615892Y-66390495D01*
X89590743Y-66516931D01*
X89590743Y-66645866D01*
X89615892Y-66772302D01*
X89615895Y-66772311D01*
X89665229Y-66891416D01*
X89665230Y-66891418D01*
X89736858Y-66998617D01*
X89736859Y-66998618D01*
X89736860Y-66998619D01*
X89828023Y-67089782D01*
X89828025Y-67089783D01*
X89829424Y-67091182D01*
X89862909Y-67152505D01*
X89865743Y-67178864D01*
X89865743Y-67367214D01*
X89846058Y-67434253D01*
X89829424Y-67454895D01*
X89601009Y-67683310D01*
X89539686Y-67716795D01*
X89513328Y-67719629D01*
X89382417Y-67719629D01*
X89255981Y-67744778D01*
X89255972Y-67744781D01*
X89136867Y-67794115D01*
X89136865Y-67794116D01*
X89029665Y-67865745D01*
X89029661Y-67865748D01*
X88938504Y-67956905D01*
X88938501Y-67956909D01*
X88866872Y-68064109D01*
X88863999Y-68069485D01*
X88862534Y-68068701D01*
X88823704Y-68116884D01*
X88757409Y-68138947D01*
X88696692Y-68125511D01*
X88566978Y-68059418D01*
X88401641Y-68005697D01*
X88272854Y-67985299D01*
X88229926Y-67978500D01*
X88056074Y-67978500D01*
X87998836Y-67987565D01*
X87884360Y-68005697D01*
X87884357Y-68005697D01*
X87719021Y-68059418D01*
X87564115Y-68138347D01*
X87513472Y-68175142D01*
X87423467Y-68240535D01*
X87423464Y-68240537D01*
X87419526Y-68243399D01*
X87418296Y-68241707D01*
X87361878Y-68266171D01*
X87292924Y-68254897D01*
X87241011Y-68208134D01*
X87226805Y-68175142D01*
X87226638Y-68174519D01*
X87226638Y-68174518D01*
X87176676Y-68087981D01*
X87106019Y-68017324D01*
X87106018Y-68017323D01*
X87101688Y-68012993D01*
X87101677Y-68012983D01*
X86786746Y-67698052D01*
X86786744Y-67698049D01*
X86709020Y-67620325D01*
X86709015Y-67620321D01*
X86622485Y-67570363D01*
X86622482Y-67570362D01*
X86602084Y-67564896D01*
X86525962Y-67544499D01*
X86426038Y-67544499D01*
X86418442Y-67544499D01*
X86418426Y-67544500D01*
X84204178Y-67544500D01*
X84137139Y-67524815D01*
X84116497Y-67508181D01*
X83338395Y-66730079D01*
X83304910Y-66668756D01*
X83309894Y-66599064D01*
X83322974Y-66573507D01*
X83326432Y-66568332D01*
X83362134Y-66514901D01*
X83362135Y-66514894D01*
X83366695Y-66503889D01*
X83410536Y-66449486D01*
X83476831Y-66427421D01*
X83544530Y-66444700D01*
X83586794Y-66486245D01*
X83637424Y-66568328D01*
X83637427Y-66568332D01*
X83757267Y-66688172D01*
X83757271Y-66688175D01*
X83901507Y-66777142D01*
X83901518Y-66777147D01*
X84062393Y-66830455D01*
X84161683Y-66840599D01*
X84710000Y-66840599D01*
X84758308Y-66840599D01*
X84758322Y-66840598D01*
X84857607Y-66830455D01*
X85018481Y-66777147D01*
X85018492Y-66777142D01*
X85162728Y-66688175D01*
X85162732Y-66688172D01*
X85282572Y-66568332D01*
X85282575Y-66568328D01*
X85371542Y-66424092D01*
X85371547Y-66424081D01*
X85424855Y-66263206D01*
X85434999Y-66163922D01*
X85435000Y-66163909D01*
X85435000Y-66140600D01*
X84710000Y-66140600D01*
X84710000Y-66840599D01*
X84161683Y-66840599D01*
X84209999Y-66840598D01*
X84210000Y-66840598D01*
X84210000Y-66014600D01*
X84229685Y-65947561D01*
X84282489Y-65901806D01*
X84334000Y-65890600D01*
X84460000Y-65890600D01*
X84460000Y-65764600D01*
X84479685Y-65697561D01*
X84532489Y-65651806D01*
X84584000Y-65640600D01*
X85434999Y-65640600D01*
X85434999Y-65617292D01*
X85434998Y-65617277D01*
X85424855Y-65517992D01*
X85371547Y-65357118D01*
X85371542Y-65357107D01*
X85342410Y-65309877D01*
X85323969Y-65242485D01*
X85344891Y-65175821D01*
X85398533Y-65131051D01*
X85467864Y-65122390D01*
X85530871Y-65152586D01*
X85535622Y-65157092D01*
X85707300Y-65328770D01*
X85801230Y-65422700D01*
X85916270Y-65489119D01*
X86044581Y-65523500D01*
X86581043Y-65523500D01*
X86648082Y-65543185D01*
X86649934Y-65544398D01*
X86666017Y-65555144D01*
X86731668Y-65599011D01*
X86731669Y-65599011D01*
X86731670Y-65599012D01*
X86731672Y-65599013D01*
X86798366Y-65626638D01*
X86850779Y-65648348D01*
X86850781Y-65648348D01*
X86850786Y-65648350D01*
X86977222Y-65673499D01*
X86977226Y-65673500D01*
X86977227Y-65673500D01*
X87106154Y-65673500D01*
X87106155Y-65673499D01*
X87174440Y-65659917D01*
X87232593Y-65648350D01*
X87232596Y-65648348D01*
X87232601Y-65648348D01*
X87351712Y-65599011D01*
X87458910Y-65527383D01*
X87550073Y-65436220D01*
X87621701Y-65329022D01*
X87671038Y-65209911D01*
X87696190Y-65083463D01*
X87696190Y-64954537D01*
X87682641Y-64886420D01*
X87671040Y-64828096D01*
X87671037Y-64828087D01*
X87621703Y-64708982D01*
X87621702Y-64708980D01*
X87550073Y-64601780D01*
X87550070Y-64601776D01*
X87458913Y-64510619D01*
X87458909Y-64510616D01*
X87351709Y-64438987D01*
X87351707Y-64438986D01*
X87232602Y-64389652D01*
X87232593Y-64389649D01*
X87106157Y-64364500D01*
X87106153Y-64364500D01*
X86977227Y-64364500D01*
X86977222Y-64364500D01*
X86850786Y-64389649D01*
X86850777Y-64389652D01*
X86731672Y-64438986D01*
X86731670Y-64438987D01*
X86649934Y-64493602D01*
X86583256Y-64514480D01*
X86581043Y-64514500D01*
X86371332Y-64514500D01*
X86304293Y-64494815D01*
X86283651Y-64478181D01*
X86024329Y-64218859D01*
X85742370Y-63936899D01*
X85649770Y-63883437D01*
X85649768Y-63883435D01*
X85634810Y-63874799D01*
X85627330Y-63870481D01*
X85499019Y-63836100D01*
X85499016Y-63836100D01*
X85161808Y-63836100D01*
X85094769Y-63816415D01*
X85062540Y-63786409D01*
X85052546Y-63773059D01*
X85052544Y-63773056D01*
X85045844Y-63768040D01*
X85007156Y-63739078D01*
X84965285Y-63683145D01*
X84961698Y-63671924D01*
X84952099Y-63636100D01*
X84930120Y-63554071D01*
X84863701Y-63439030D01*
X84673851Y-63249180D01*
X84640366Y-63187857D01*
X84645350Y-63118165D01*
X84687222Y-63062232D01*
X84752686Y-63037815D01*
X84761514Y-63037499D01*
X84904574Y-63037499D01*
X84971613Y-63057184D01*
X84992255Y-63073818D01*
X85071660Y-63153223D01*
X85071668Y-63153229D01*
X85210305Y-63235218D01*
X85353000Y-63276674D01*
X85353000Y-60814324D01*
X85352998Y-60814323D01*
X85210310Y-60855778D01*
X85210307Y-60855780D01*
X85124796Y-60906351D01*
X85057071Y-60923534D01*
X84990809Y-60901374D01*
X84973994Y-60887300D01*
X84920819Y-60834125D01*
X84887334Y-60772802D01*
X84884500Y-60746444D01*
X84884500Y-59090174D01*
X84904185Y-59023135D01*
X84956989Y-58977380D01*
X84967616Y-58973362D01*
X84970907Y-58971998D01*
X84970911Y-58971998D01*
X85090022Y-58922661D01*
X85197220Y-58851033D01*
X85288383Y-58759870D01*
X85360011Y-58652672D01*
X85409348Y-58533561D01*
X85409775Y-58531417D01*
X85426116Y-58449262D01*
X85434500Y-58407113D01*
X85434500Y-58278187D01*
X85427530Y-58243145D01*
X85409350Y-58151746D01*
X85409347Y-58151737D01*
X85360013Y-58032632D01*
X85360012Y-58032630D01*
X85288383Y-57925430D01*
X85288380Y-57925426D01*
X85197223Y-57834269D01*
X85197219Y-57834266D01*
X85090019Y-57762637D01*
X85090017Y-57762636D01*
X84970912Y-57713302D01*
X84970903Y-57713299D01*
X84844467Y-57688150D01*
X84844463Y-57688150D01*
X84715537Y-57688150D01*
X84690409Y-57693148D01*
X84655690Y-57700054D01*
X84586099Y-57693825D01*
X84530922Y-57650962D01*
X84507678Y-57585072D01*
X84507500Y-57578436D01*
X84507500Y-57481333D01*
X84527185Y-57414294D01*
X84543819Y-57393652D01*
X84699433Y-57238038D01*
X84872011Y-57065459D01*
X84933332Y-57031976D01*
X84935365Y-57031552D01*
X85031911Y-57012348D01*
X85151022Y-56963011D01*
X85258220Y-56891383D01*
X85349383Y-56800220D01*
X85421011Y-56693022D01*
X85470348Y-56573911D01*
X85471327Y-56568993D01*
X85495499Y-56447467D01*
X85495500Y-56447464D01*
X85495500Y-56318536D01*
X85495499Y-56318532D01*
X85470350Y-56192096D01*
X85470347Y-56192087D01*
X85421013Y-56072982D01*
X85421012Y-56072980D01*
X85417731Y-56068070D01*
X85349383Y-55965780D01*
X85349380Y-55965776D01*
X85258223Y-55874619D01*
X85258219Y-55874616D01*
X85151019Y-55802987D01*
X85151017Y-55802986D01*
X85031912Y-55753652D01*
X85031903Y-55753649D01*
X84905467Y-55728500D01*
X84905463Y-55728500D01*
X84776537Y-55728500D01*
X84776532Y-55728500D01*
X84650096Y-55753649D01*
X84650087Y-55753652D01*
X84530982Y-55802986D01*
X84530980Y-55802987D01*
X84423780Y-55874616D01*
X84423776Y-55874619D01*
X84332619Y-55965776D01*
X84332616Y-55965780D01*
X84260987Y-56072980D01*
X84260986Y-56072982D01*
X84211652Y-56192087D01*
X84211649Y-56192096D01*
X84192474Y-56288500D01*
X84160089Y-56350411D01*
X84158538Y-56351990D01*
X83599300Y-56911228D01*
X83599298Y-56911231D01*
X83569405Y-56963009D01*
X83569404Y-56963010D01*
X83532882Y-57026266D01*
X83532881Y-57026270D01*
X83498500Y-57154581D01*
X83498500Y-57154583D01*
X83498500Y-60929500D01*
X83478815Y-60996539D01*
X83426011Y-61042294D01*
X83374500Y-61053500D01*
X83034652Y-61053500D01*
X82942852Y-61068039D01*
X82859294Y-61110615D01*
X82790624Y-61123511D01*
X82746707Y-61110616D01*
X82663145Y-61068039D01*
X82663143Y-61068038D01*
X82663140Y-61068037D01*
X82571354Y-61053500D01*
X82234652Y-61053500D01*
X82142852Y-61068039D01*
X82059294Y-61110615D01*
X81990624Y-61123511D01*
X81946707Y-61110616D01*
X81863145Y-61068039D01*
X81863143Y-61068038D01*
X81863140Y-61068037D01*
X81771354Y-61053500D01*
X81434652Y-61053500D01*
X81342852Y-61068039D01*
X81277776Y-61101198D01*
X81232216Y-61124412D01*
X81232215Y-61124413D01*
X81232210Y-61124416D01*
X81144416Y-61212210D01*
X81144411Y-61212217D01*
X81088037Y-61322857D01*
X81073500Y-61414645D01*
X81073500Y-61986943D01*
X81053815Y-62053982D01*
X81037181Y-62074624D01*
X80794625Y-62317181D01*
X80733302Y-62350666D01*
X80706944Y-62353500D01*
X79050042Y-62353500D01*
X78983003Y-62333815D01*
X78937248Y-62281011D01*
X78935497Y-62276990D01*
X78917486Y-62233507D01*
X78802083Y-62060796D01*
X78802080Y-62060792D01*
X78663459Y-61922171D01*
X78663455Y-61922168D01*
X78655204Y-61913917D01*
X78524193Y-61826377D01*
X78524162Y-61826356D01*
X78482490Y-61798512D01*
X78482488Y-61798511D01*
X78290590Y-61719025D01*
X78290578Y-61719022D01*
X78086862Y-61678500D01*
X78086859Y-61678500D01*
X77879141Y-61678500D01*
X77879138Y-61678500D01*
X77675421Y-61719022D01*
X77675409Y-61719025D01*
X77483511Y-61798511D01*
X77483509Y-61798512D01*
X77310796Y-61913916D01*
X77310792Y-61913919D01*
X77225181Y-61999531D01*
X77163858Y-62033016D01*
X77094166Y-62028032D01*
X77038233Y-61986160D01*
X77013816Y-61920696D01*
X77013500Y-61911850D01*
X77013500Y-61014150D01*
X77033185Y-60947111D01*
X77085989Y-60901356D01*
X77155147Y-60891412D01*
X77218703Y-60920437D01*
X77225181Y-60926469D01*
X77310792Y-61012080D01*
X77310796Y-61012083D01*
X77483507Y-61127486D01*
X77483508Y-61127486D01*
X77483509Y-61127487D01*
X77483511Y-61127488D01*
X77648039Y-61195637D01*
X77675414Y-61206976D01*
X77879136Y-61247499D01*
X77879139Y-61247500D01*
X77879141Y-61247500D01*
X78086861Y-61247500D01*
X78086862Y-61247499D01*
X78290586Y-61206976D01*
X78299922Y-61203108D01*
X78369387Y-61195637D01*
X78431868Y-61226909D01*
X78467524Y-61286996D01*
X78468994Y-61293477D01*
X78475145Y-61324405D01*
X78475148Y-61324414D01*
X78524482Y-61443519D01*
X78524483Y-61443521D01*
X78596112Y-61550721D01*
X78596115Y-61550725D01*
X78673385Y-61627995D01*
X78673388Y-61627997D01*
X78687276Y-61641885D01*
X78794474Y-61713513D01*
X78802614Y-61716884D01*
X78802616Y-61716886D01*
X78885230Y-61751105D01*
X78913585Y-61762850D01*
X78913587Y-61762850D01*
X78913592Y-61762852D01*
X79040028Y-61788001D01*
X79040032Y-61788002D01*
X79040033Y-61788002D01*
X79168960Y-61788002D01*
X79168961Y-61788001D01*
X79232540Y-61775355D01*
X79295399Y-61762852D01*
X79295402Y-61762850D01*
X79295407Y-61762850D01*
X79414518Y-61713513D01*
X79521716Y-61641885D01*
X79612879Y-61550722D01*
X79684507Y-61443524D01*
X79733844Y-61324413D01*
X79758996Y-61197965D01*
X79758996Y-61152559D01*
X79778681Y-61085520D01*
X79795311Y-61064882D01*
X79911375Y-60948817D01*
X79972698Y-60915333D01*
X79999056Y-60912499D01*
X80571347Y-60912499D01*
X80571348Y-60912499D01*
X80663145Y-60897961D01*
X80773784Y-60841588D01*
X80861588Y-60753784D01*
X80917961Y-60643145D01*
X80917962Y-60643141D01*
X80920979Y-60633859D01*
X80923413Y-60634650D01*
X80947168Y-60584528D01*
X81006476Y-60547591D01*
X81076339Y-60548582D01*
X81087151Y-60552483D01*
X81094089Y-60555357D01*
X81094095Y-60555358D01*
X81094096Y-60555359D01*
X81220532Y-60580508D01*
X81220536Y-60580509D01*
X81220537Y-60580509D01*
X81349464Y-60580509D01*
X81349465Y-60580508D01*
X81391612Y-60572125D01*
X81475903Y-60555359D01*
X81475906Y-60555357D01*
X81475911Y-60555357D01*
X81595022Y-60506020D01*
X81702220Y-60434392D01*
X81793383Y-60343229D01*
X81865011Y-60236031D01*
X81914348Y-60116920D01*
X81939500Y-59990472D01*
X81939500Y-59861546D01*
X81923067Y-59778930D01*
X81914350Y-59735105D01*
X81914347Y-59735096D01*
X81865013Y-59615991D01*
X81865012Y-59615989D01*
X81865011Y-59615987D01*
X81828259Y-59560984D01*
X81808489Y-59531396D01*
X81787612Y-59464719D01*
X81806097Y-59397339D01*
X81808466Y-59393652D01*
X81865011Y-59309028D01*
X81914348Y-59189917D01*
X81916516Y-59179022D01*
X81939499Y-59063473D01*
X81939500Y-59063470D01*
X81939500Y-58934542D01*
X81939499Y-58934538D01*
X81914350Y-58808102D01*
X81914347Y-58808093D01*
X81865013Y-58688988D01*
X81865012Y-58688987D01*
X81865011Y-58688984D01*
X81804278Y-58598091D01*
X81783401Y-58531417D01*
X81801885Y-58464037D01*
X81804260Y-58460341D01*
X81865011Y-58369422D01*
X81914348Y-58250311D01*
X81915654Y-58243749D01*
X81933955Y-58151739D01*
X81939500Y-58123863D01*
X81939500Y-57994937D01*
X81939275Y-57993809D01*
X81914350Y-57868496D01*
X81914347Y-57868487D01*
X81865013Y-57749382D01*
X81865012Y-57749380D01*
X81840905Y-57713302D01*
X81793383Y-57642180D01*
X81793380Y-57642176D01*
X81697913Y-57546709D01*
X81699796Y-57544825D01*
X81666975Y-57496546D01*
X81665169Y-57426699D01*
X81697326Y-57370867D01*
X81788212Y-57279982D01*
X81859840Y-57172784D01*
X81909177Y-57053673D01*
X81934329Y-56927225D01*
X81934329Y-56840843D01*
X81954014Y-56773804D01*
X82006818Y-56728049D01*
X82075976Y-56718105D01*
X82139532Y-56747130D01*
X82146010Y-56753162D01*
X82160202Y-56767354D01*
X82160206Y-56767357D01*
X82267404Y-56838985D01*
X82267405Y-56838985D01*
X82267406Y-56838986D01*
X82267408Y-56838987D01*
X82346811Y-56871876D01*
X82386515Y-56888322D01*
X82386517Y-56888322D01*
X82386522Y-56888324D01*
X82512958Y-56913473D01*
X82512962Y-56913474D01*
X82512963Y-56913474D01*
X82641890Y-56913474D01*
X82641891Y-56913473D01*
X82687442Y-56904413D01*
X82768329Y-56888324D01*
X82768332Y-56888322D01*
X82768337Y-56888322D01*
X82887448Y-56838985D01*
X82994646Y-56767357D01*
X83085809Y-56676194D01*
X83157437Y-56568996D01*
X83206774Y-56449885D01*
X83212544Y-56420881D01*
X83226246Y-56351990D01*
X83231926Y-56323437D01*
X83231926Y-56194511D01*
X83221689Y-56143047D01*
X83206776Y-56068070D01*
X83206773Y-56068061D01*
X83157439Y-55948956D01*
X83157438Y-55948954D01*
X83147546Y-55934150D01*
X83085809Y-55841754D01*
X83085806Y-55841750D01*
X82994649Y-55750593D01*
X82994645Y-55750590D01*
X82887445Y-55678961D01*
X82887443Y-55678960D01*
X82768338Y-55629626D01*
X82768329Y-55629623D01*
X82641893Y-55604474D01*
X82641889Y-55604474D01*
X82512963Y-55604474D01*
X82512958Y-55604474D01*
X82386522Y-55629623D01*
X82386513Y-55629626D01*
X82267408Y-55678960D01*
X82267406Y-55678961D01*
X82160206Y-55750590D01*
X82160202Y-55750593D01*
X82067641Y-55843155D01*
X82006318Y-55876640D01*
X81979960Y-55879474D01*
X81877530Y-55879474D01*
X81810491Y-55859789D01*
X81789849Y-55843155D01*
X81303746Y-55357052D01*
X81303744Y-55357049D01*
X81226020Y-55279325D01*
X81226015Y-55279321D01*
X81202397Y-55265685D01*
X81154183Y-55215117D01*
X81140961Y-55146510D01*
X81145323Y-55123704D01*
X81171674Y-55033000D01*
X80064500Y-55033000D01*
X79997461Y-55013315D01*
X79951706Y-54960511D01*
X79940500Y-54909000D01*
X79940500Y-54657000D01*
X79960185Y-54589961D01*
X80012989Y-54544206D01*
X80064500Y-54533000D01*
X81171674Y-54533000D01*
X81130218Y-54390305D01*
X81130218Y-54390304D01*
X81048229Y-54251668D01*
X81048223Y-54251660D01*
X80968818Y-54172255D01*
X80935333Y-54110932D01*
X80932499Y-54084581D01*
X80932499Y-53814652D01*
X80917961Y-53722855D01*
X80917960Y-53722853D01*
X80917960Y-53722852D01*
X80917958Y-53722847D01*
X80875385Y-53639294D01*
X80862488Y-53570625D01*
X80875383Y-53526709D01*
X80917961Y-53443145D01*
X80922043Y-53417376D01*
X80929856Y-53368040D01*
X80932500Y-53351349D01*
X80932499Y-53014652D01*
X80917961Y-52922855D01*
X80917960Y-52922853D01*
X80917960Y-52922852D01*
X80917958Y-52922847D01*
X80875385Y-52839294D01*
X80862488Y-52770625D01*
X80875383Y-52726709D01*
X80917961Y-52643145D01*
X80918538Y-52639503D01*
X80929372Y-52571103D01*
X80959301Y-52507968D01*
X81018613Y-52471037D01*
X81051845Y-52466501D01*
X81167400Y-52466501D01*
X81167416Y-52466500D01*
X83871072Y-52466500D01*
X83871088Y-52466501D01*
X83878684Y-52466501D01*
X83978607Y-52466501D01*
X83978608Y-52466501D01*
X84054726Y-52446104D01*
X84054728Y-52446104D01*
X84069686Y-52442096D01*
X84075128Y-52440638D01*
X84161665Y-52390676D01*
X84232322Y-52320019D01*
X84232322Y-52320017D01*
X84242526Y-52309814D01*
X84242530Y-52309809D01*
X84803521Y-51748818D01*
X84864844Y-51715333D01*
X84891202Y-51712499D01*
X84971347Y-51712499D01*
X84971348Y-51712499D01*
X85063145Y-51697961D01*
X85063146Y-51697960D01*
X85072783Y-51696434D01*
X85073072Y-51698260D01*
G37*
%TD.AperFunction*%
%TA.AperFunction,Conductor*%
G36*
X94111834Y-63437968D02*
G01*
X94167767Y-63479840D01*
X94192184Y-63545304D01*
X94192500Y-63554150D01*
X94192500Y-64451850D01*
X94172815Y-64518889D01*
X94120011Y-64564644D01*
X94050853Y-64574588D01*
X93987297Y-64545563D01*
X93980819Y-64539531D01*
X93895207Y-64453919D01*
X93895203Y-64453916D01*
X93722490Y-64338512D01*
X93722488Y-64338511D01*
X93530590Y-64259025D01*
X93530578Y-64259022D01*
X93326862Y-64218500D01*
X93326859Y-64218500D01*
X93119141Y-64218500D01*
X93119138Y-64218500D01*
X92915421Y-64259022D01*
X92915409Y-64259025D01*
X92723511Y-64338511D01*
X92723510Y-64338512D01*
X92723507Y-64338513D01*
X92723507Y-64338514D01*
X92646975Y-64389652D01*
X92646451Y-64390002D01*
X92579774Y-64410880D01*
X92577560Y-64410900D01*
X92188732Y-64410900D01*
X92121693Y-64391215D01*
X92075938Y-64338411D01*
X92065968Y-64292584D01*
X92064732Y-64291348D01*
X91213732Y-64291348D01*
X91146693Y-64271663D01*
X91100938Y-64218859D01*
X91089732Y-64167348D01*
X91089732Y-63915348D01*
X91109417Y-63848309D01*
X91162221Y-63802554D01*
X91213732Y-63791348D01*
X92064731Y-63791348D01*
X92064731Y-63768040D01*
X92064730Y-63768022D01*
X92058747Y-63709449D01*
X92071517Y-63640756D01*
X92119398Y-63589872D01*
X92182105Y-63572848D01*
X92544258Y-63572848D01*
X92611297Y-63592533D01*
X92613132Y-63593735D01*
X92723507Y-63667486D01*
X92723510Y-63667487D01*
X92723511Y-63667488D01*
X92896346Y-63739078D01*
X92915414Y-63746976D01*
X93046542Y-63773059D01*
X93119136Y-63787499D01*
X93119139Y-63787500D01*
X93119141Y-63787500D01*
X93326861Y-63787500D01*
X93326862Y-63787499D01*
X93530586Y-63746976D01*
X93722493Y-63667486D01*
X93895204Y-63552083D01*
X93906473Y-63540814D01*
X93980819Y-63466469D01*
X94042142Y-63432984D01*
X94111834Y-63437968D01*
G37*
%TD.AperFunction*%
%TA.AperFunction,Conductor*%
G36*
X94111834Y-58357968D02*
G01*
X94167767Y-58399840D01*
X94192184Y-58465304D01*
X94192500Y-58474150D01*
X94192500Y-59371850D01*
X94172815Y-59438889D01*
X94120011Y-59484644D01*
X94050853Y-59494588D01*
X93987297Y-59465563D01*
X93980819Y-59459531D01*
X93895207Y-59373919D01*
X93895203Y-59373916D01*
X93722490Y-59258512D01*
X93722488Y-59258511D01*
X93530590Y-59179025D01*
X93530578Y-59179022D01*
X93326862Y-59138500D01*
X93326859Y-59138500D01*
X93119141Y-59138500D01*
X93119138Y-59138500D01*
X92915421Y-59179022D01*
X92915409Y-59179025D01*
X92723511Y-59258511D01*
X92723504Y-59258515D01*
X92643620Y-59311892D01*
X92576943Y-59332770D01*
X92509563Y-59314285D01*
X92462873Y-59262306D01*
X92451697Y-59193336D01*
X92455654Y-59174195D01*
X92496674Y-59033000D01*
X90034325Y-59033000D01*
X90037784Y-59044906D01*
X90037584Y-59114776D01*
X89999641Y-59173445D01*
X89936002Y-59202288D01*
X89918707Y-59203500D01*
X89916245Y-59203500D01*
X89849206Y-59183815D01*
X89828564Y-59167181D01*
X89668219Y-59006836D01*
X89634734Y-58945513D01*
X89631900Y-58919155D01*
X89631900Y-58757525D01*
X89651585Y-58690486D01*
X89704389Y-58644731D01*
X89719907Y-58638864D01*
X89723854Y-58637666D01*
X89723861Y-58637665D01*
X89842972Y-58588328D01*
X89900478Y-58549902D01*
X89967153Y-58529026D01*
X89981639Y-58533000D01*
X92513875Y-58533000D01*
X92530734Y-58520416D01*
X92600433Y-58515529D01*
X92642792Y-58533553D01*
X92723507Y-58587486D01*
X92723510Y-58587487D01*
X92723513Y-58587489D01*
X92915409Y-58666974D01*
X92915414Y-58666976D01*
X93109242Y-58705531D01*
X93119136Y-58707499D01*
X93119139Y-58707500D01*
X93119141Y-58707500D01*
X93326861Y-58707500D01*
X93326862Y-58707499D01*
X93530586Y-58666976D01*
X93722493Y-58587486D01*
X93895204Y-58472083D01*
X93925699Y-58441588D01*
X93980819Y-58386469D01*
X94042142Y-58352984D01*
X94111834Y-58357968D01*
G37*
%TD.AperFunction*%
%TA.AperFunction,Conductor*%
G36*
X91192739Y-45846485D02*
G01*
X91238494Y-45899289D01*
X91249700Y-45950800D01*
X91249700Y-46286400D01*
X91282681Y-46319381D01*
X91316166Y-46380704D01*
X91319000Y-46407062D01*
X91319000Y-49916138D01*
X91299315Y-49983177D01*
X91282681Y-50003819D01*
X90344180Y-50942320D01*
X90282857Y-50975805D01*
X90213165Y-50970821D01*
X90157232Y-50928949D01*
X90132815Y-50863485D01*
X90132499Y-50854639D01*
X90132499Y-50089652D01*
X90126347Y-50050806D01*
X90117961Y-49997855D01*
X90117960Y-49997853D01*
X90117960Y-49997852D01*
X90103201Y-49968888D01*
X90061588Y-49887216D01*
X90061584Y-49887212D01*
X90061583Y-49887210D01*
X89973788Y-49799415D01*
X89969281Y-49796141D01*
X89926612Y-49740813D01*
X89920629Y-49671200D01*
X89953232Y-49609404D01*
X89969771Y-49596839D01*
X89969062Y-49595891D01*
X89986292Y-49582991D01*
X90057910Y-49529379D01*
X90123372Y-49504962D01*
X90191646Y-49519813D01*
X90237758Y-49563547D01*
X90271428Y-49618133D01*
X90391267Y-49737972D01*
X90391271Y-49737975D01*
X90535507Y-49826942D01*
X90535518Y-49826947D01*
X90696393Y-49880255D01*
X90795683Y-49890399D01*
X90819000Y-49890398D01*
X90819000Y-46756800D01*
X90786019Y-46723819D01*
X90752534Y-46662496D01*
X90749700Y-46636138D01*
X90749700Y-45950800D01*
X90769385Y-45883761D01*
X90822189Y-45838006D01*
X90873700Y-45826800D01*
X91125700Y-45826800D01*
X91192739Y-45846485D01*
G37*
%TD.AperFunction*%
%TA.AperFunction,Conductor*%
G36*
X83977631Y-42299185D02*
G01*
X84009859Y-42329190D01*
X84019856Y-42342544D01*
X84116168Y-42414643D01*
X84130237Y-42425175D01*
X84248015Y-42469104D01*
X84303948Y-42510976D01*
X84328365Y-42576440D01*
X84313513Y-42644713D01*
X84286865Y-42675841D01*
X84287626Y-42676602D01*
X83704446Y-43259781D01*
X83643123Y-43293266D01*
X83616765Y-43296100D01*
X83452961Y-43296100D01*
X83358247Y-43311100D01*
X83286842Y-43347484D01*
X83244077Y-43369274D01*
X83244076Y-43369275D01*
X83244071Y-43369278D01*
X83153478Y-43459871D01*
X83153475Y-43459876D01*
X83153474Y-43459877D01*
X83139683Y-43486944D01*
X83095300Y-43574047D01*
X83080300Y-43668760D01*
X83080300Y-44032439D01*
X83095300Y-44127152D01*
X83113938Y-44163730D01*
X83153474Y-44241323D01*
X83153476Y-44241325D01*
X83153478Y-44241328D01*
X83244071Y-44331921D01*
X83244073Y-44331922D01*
X83244077Y-44331926D01*
X83358245Y-44390098D01*
X83358246Y-44390098D01*
X83358248Y-44390099D01*
X83358247Y-44390099D01*
X83452961Y-44405100D01*
X83452966Y-44405100D01*
X84541639Y-44405100D01*
X84636352Y-44390099D01*
X84636353Y-44390098D01*
X84636355Y-44390098D01*
X84750523Y-44331926D01*
X84841126Y-44241323D01*
X84899298Y-44127155D01*
X84899298Y-44127153D01*
X84899299Y-44127152D01*
X84914300Y-44032439D01*
X84914300Y-43714549D01*
X84933985Y-43647510D01*
X84986789Y-43601755D01*
X85038300Y-43590549D01*
X85503500Y-43590549D01*
X85570539Y-43610234D01*
X85616294Y-43663038D01*
X85627500Y-43714549D01*
X85627500Y-44027142D01*
X85627501Y-44027148D01*
X85630379Y-44057851D01*
X85630379Y-44057853D01*
X85630380Y-44057855D01*
X85661258Y-44146099D01*
X85675631Y-44187173D01*
X85695112Y-44213569D01*
X85756989Y-44297410D01*
X85803757Y-44331926D01*
X85867227Y-44378769D01*
X85899603Y-44390098D01*
X85996541Y-44424019D01*
X85996545Y-44424019D01*
X85996549Y-44424021D01*
X86027251Y-44426900D01*
X86686748Y-44426899D01*
X86717451Y-44424021D01*
X86846773Y-44378769D01*
X86957010Y-44297410D01*
X87038369Y-44187173D01*
X87067476Y-44103991D01*
X87083619Y-44057858D01*
X87083619Y-44057855D01*
X87083621Y-44057851D01*
X87086500Y-44027149D01*
X87086499Y-43517652D01*
X87083621Y-43486949D01*
X87043130Y-43371235D01*
X87039568Y-43301457D01*
X87074297Y-43240830D01*
X87136290Y-43208602D01*
X87148027Y-43206877D01*
X87151853Y-43206500D01*
X87151863Y-43206500D01*
X87155151Y-43205845D01*
X87278303Y-43181350D01*
X87278306Y-43181348D01*
X87278311Y-43181348D01*
X87397422Y-43132011D01*
X87504620Y-43060383D01*
X87595783Y-42969220D01*
X87611315Y-42945973D01*
X87664925Y-42901170D01*
X87734250Y-42892461D01*
X87797278Y-42922615D01*
X87802098Y-42927184D01*
X88804592Y-43929678D01*
X88838077Y-43991001D01*
X88833093Y-44060693D01*
X88791221Y-44116626D01*
X88778915Y-44124744D01*
X88741933Y-44146097D01*
X88741927Y-44146101D01*
X88602048Y-44285981D01*
X88540725Y-44319466D01*
X88514367Y-44322300D01*
X88180361Y-44322300D01*
X88085647Y-44337300D01*
X88009533Y-44376083D01*
X87971477Y-44395474D01*
X87971476Y-44395475D01*
X87971471Y-44395478D01*
X87880878Y-44486071D01*
X87880875Y-44486076D01*
X87822700Y-44600247D01*
X87807700Y-44694960D01*
X87807700Y-45058639D01*
X87822700Y-45153352D01*
X87829989Y-45167657D01*
X87880874Y-45267523D01*
X87880876Y-45267525D01*
X87880878Y-45267528D01*
X87971471Y-45358121D01*
X87971474Y-45358123D01*
X87971477Y-45358126D01*
X87974912Y-45359876D01*
X88002764Y-45374068D01*
X88053560Y-45422043D01*
X88070354Y-45489864D01*
X88047816Y-45555999D01*
X88034149Y-45572233D01*
X87784299Y-45822083D01*
X87760826Y-45862742D01*
X87746540Y-45887486D01*
X87717882Y-45937123D01*
X87683501Y-46065434D01*
X87683501Y-46065436D01*
X87683501Y-48248666D01*
X87663816Y-48315705D01*
X87647182Y-48336347D01*
X87608948Y-48374581D01*
X87547625Y-48408066D01*
X87521267Y-48410900D01*
X87073523Y-48410900D01*
X87006484Y-48391215D01*
X86974258Y-48361213D01*
X86945544Y-48322856D01*
X86945541Y-48322854D01*
X86945540Y-48322852D01*
X86932188Y-48312857D01*
X86890317Y-48256922D01*
X86882500Y-48213591D01*
X86882500Y-48093208D01*
X86902185Y-48026169D01*
X86932192Y-47993939D01*
X86934124Y-47992493D01*
X86945544Y-47983944D01*
X87028175Y-47873563D01*
X87076360Y-47744373D01*
X87082500Y-47687264D01*
X87082500Y-47095536D01*
X87076360Y-47038427D01*
X87041341Y-46944536D01*
X87028176Y-46909239D01*
X87028175Y-46909237D01*
X86945544Y-46798856D01*
X86862912Y-46736997D01*
X86835162Y-46716224D01*
X86835160Y-46716223D01*
X86705977Y-46668041D01*
X86705978Y-46668041D01*
X86705974Y-46668040D01*
X86705973Y-46668040D01*
X86648864Y-46661900D01*
X86107136Y-46661900D01*
X86106500Y-46661900D01*
X86039461Y-46642215D01*
X85993706Y-46589411D01*
X85982500Y-46537900D01*
X85982500Y-46384955D01*
X86002185Y-46317916D01*
X86018815Y-46297278D01*
X86202875Y-46113217D01*
X86264198Y-46079733D01*
X86290556Y-46076899D01*
X86686742Y-46076899D01*
X86686748Y-46076899D01*
X86717451Y-46074021D01*
X86846773Y-46028769D01*
X86957010Y-45947410D01*
X87038369Y-45837173D01*
X87065923Y-45758426D01*
X87083619Y-45707858D01*
X87083619Y-45707855D01*
X87083621Y-45707851D01*
X87086500Y-45677149D01*
X87086499Y-45167652D01*
X87083621Y-45136949D01*
X87038369Y-45007627D01*
X86996404Y-44950767D01*
X86957010Y-44897389D01*
X86882326Y-44842270D01*
X86846773Y-44816031D01*
X86846771Y-44816030D01*
X86717458Y-44770780D01*
X86717446Y-44770778D01*
X86686753Y-44767900D01*
X86027257Y-44767900D01*
X86011900Y-44769340D01*
X85996549Y-44770779D01*
X85996546Y-44770779D01*
X85996544Y-44770780D01*
X85867228Y-44816030D01*
X85756989Y-44897389D01*
X85675630Y-45007628D01*
X85630380Y-45136941D01*
X85630378Y-45136953D01*
X85627500Y-45167646D01*
X85627500Y-45563843D01*
X85607815Y-45630882D01*
X85591181Y-45651524D01*
X85299325Y-45943379D01*
X85299321Y-45943384D01*
X85249361Y-46029917D01*
X85249362Y-46029917D01*
X85249362Y-46029918D01*
X85249362Y-46029919D01*
X85224837Y-46121447D01*
X85223499Y-46126439D01*
X85223499Y-46236351D01*
X85223500Y-46236364D01*
X85223500Y-46292400D01*
X85203815Y-46359439D01*
X85151011Y-46405194D01*
X85099500Y-46416400D01*
X85078000Y-46416400D01*
X85078000Y-48791400D01*
X85058315Y-48858439D01*
X85005511Y-48904194D01*
X84954000Y-48915400D01*
X84828000Y-48915400D01*
X84828000Y-49041400D01*
X84808315Y-49108439D01*
X84755511Y-49154194D01*
X84704000Y-49165400D01*
X83878001Y-49165400D01*
X83878001Y-49213722D01*
X83888144Y-49313007D01*
X83941452Y-49473881D01*
X83941454Y-49473886D01*
X83981866Y-49539403D01*
X84000306Y-49606796D01*
X83979383Y-49673459D01*
X83925742Y-49718229D01*
X83876330Y-49728500D01*
X83834653Y-49728500D01*
X83779320Y-49737264D01*
X83742855Y-49743039D01*
X83742853Y-49743039D01*
X83733217Y-49744566D01*
X83732928Y-49742741D01*
X83674971Y-49744395D01*
X83615140Y-49708311D01*
X83584315Y-49645609D01*
X83582500Y-49624470D01*
X83582500Y-49298962D01*
X83582501Y-49298949D01*
X83582501Y-49189037D01*
X83582501Y-49189036D01*
X83556638Y-49092516D01*
X83543969Y-49070573D01*
X83506676Y-49005979D01*
X83436019Y-48935322D01*
X83436018Y-48935321D01*
X83431688Y-48930991D01*
X83431677Y-48930981D01*
X83117773Y-48617077D01*
X83878000Y-48617077D01*
X83878000Y-48665400D01*
X84578000Y-48665400D01*
X84578000Y-47641400D01*
X83878001Y-47641400D01*
X83878001Y-47689722D01*
X83888144Y-47789007D01*
X83941452Y-47949881D01*
X83941457Y-47949892D01*
X84026831Y-48088303D01*
X84045272Y-48155695D01*
X84026831Y-48218497D01*
X83941457Y-48356907D01*
X83941452Y-48356918D01*
X83888144Y-48517793D01*
X83878000Y-48617077D01*
X83117773Y-48617077D01*
X81986845Y-47486149D01*
X81953360Y-47424826D01*
X81958344Y-47355134D01*
X81971424Y-47329578D01*
X81978478Y-47319022D01*
X82027815Y-47199911D01*
X82052967Y-47073463D01*
X82052967Y-46944537D01*
X82045946Y-46909239D01*
X82027817Y-46818096D01*
X82027814Y-46818087D01*
X81988036Y-46722052D01*
X81980567Y-46652582D01*
X82011843Y-46590103D01*
X82071932Y-46554452D01*
X82102597Y-46550600D01*
X82300434Y-46550600D01*
X82300449Y-46550599D01*
X82337289Y-46547700D01*
X82337295Y-46547699D01*
X82494993Y-46501883D01*
X82494996Y-46501882D01*
X82636352Y-46418285D01*
X82636361Y-46418278D01*
X82752478Y-46302161D01*
X82752484Y-46302153D01*
X82826867Y-46176379D01*
X82877936Y-46128696D01*
X82933599Y-46115500D01*
X83000466Y-46115500D01*
X83024100Y-46110797D01*
X83041367Y-46107363D01*
X83097827Y-46109250D01*
X83098053Y-46109311D01*
X83098111Y-46109327D01*
X83153523Y-46141372D01*
X83244077Y-46231926D01*
X83358245Y-46290098D01*
X83358246Y-46290098D01*
X83358248Y-46290099D01*
X83358247Y-46290099D01*
X83452961Y-46305100D01*
X84140599Y-46305100D01*
X84207638Y-46324785D01*
X84253393Y-46377589D01*
X84263337Y-46446747D01*
X84234312Y-46510303D01*
X84205696Y-46534638D01*
X84150271Y-46568824D01*
X84150267Y-46568827D01*
X84030427Y-46688667D01*
X84030424Y-46688671D01*
X83941457Y-46832907D01*
X83941452Y-46832918D01*
X83888144Y-46993793D01*
X83878000Y-47093077D01*
X83878000Y-47141400D01*
X84578000Y-47141400D01*
X84578000Y-46395818D01*
X84597685Y-46328779D01*
X84645702Y-46285335D01*
X84750523Y-46231926D01*
X84841126Y-46141323D01*
X84899298Y-46027155D01*
X84899298Y-46027153D01*
X84899299Y-46027152D01*
X84914300Y-45932439D01*
X84914300Y-45568760D01*
X84899299Y-45474047D01*
X84899298Y-45474045D01*
X84841126Y-45359877D01*
X84841122Y-45359873D01*
X84841121Y-45359871D01*
X84750528Y-45269278D01*
X84750525Y-45269276D01*
X84750523Y-45269274D01*
X84636355Y-45211102D01*
X84636354Y-45211101D01*
X84636351Y-45211100D01*
X84636352Y-45211100D01*
X84541639Y-45196100D01*
X84541634Y-45196100D01*
X83612440Y-45196100D01*
X83545401Y-45176415D01*
X83509338Y-45140991D01*
X83444383Y-45043780D01*
X83444380Y-45043776D01*
X83353223Y-44952619D01*
X83353219Y-44952616D01*
X83246019Y-44880987D01*
X83246017Y-44880986D01*
X83126912Y-44831652D01*
X83126903Y-44831649D01*
X83000467Y-44806500D01*
X83000463Y-44806500D01*
X82871537Y-44806500D01*
X82871532Y-44806500D01*
X82787491Y-44823217D01*
X82717899Y-44816990D01*
X82662722Y-44774126D01*
X82639478Y-44708237D01*
X82639300Y-44701600D01*
X82639300Y-44618760D01*
X82624299Y-44524047D01*
X82604952Y-44486077D01*
X82566126Y-44409877D01*
X82566121Y-44409872D01*
X82560387Y-44401978D01*
X82562516Y-44400431D01*
X82536049Y-44351975D01*
X82541023Y-44282283D01*
X82561670Y-44250154D01*
X82560387Y-44249222D01*
X82566118Y-44241330D01*
X82566126Y-44241323D01*
X82624298Y-44127155D01*
X82624298Y-44127153D01*
X82624299Y-44127152D01*
X82639300Y-44032439D01*
X82639300Y-43668760D01*
X82624299Y-43574047D01*
X82618675Y-43563010D01*
X82566126Y-43459877D01*
X82566122Y-43459873D01*
X82566121Y-43459871D01*
X82512160Y-43405910D01*
X82478675Y-43344587D01*
X82483659Y-43274895D01*
X82485280Y-43270777D01*
X82499106Y-43237397D01*
X82516548Y-43195289D01*
X82519322Y-43181347D01*
X82533316Y-43110990D01*
X82541700Y-43068841D01*
X82541700Y-42939915D01*
X82541700Y-42939914D01*
X82541700Y-42937847D01*
X82561385Y-42870808D01*
X82614189Y-42825053D01*
X82665700Y-42813847D01*
X83090983Y-42813847D01*
X83090986Y-42813847D01*
X83151074Y-42807388D01*
X83286999Y-42756690D01*
X83403136Y-42669752D01*
X83490074Y-42553615D01*
X83540772Y-42417690D01*
X83543723Y-42390245D01*
X83570461Y-42325694D01*
X83627853Y-42285845D01*
X83667012Y-42279500D01*
X83910592Y-42279500D01*
X83977631Y-42299185D01*
G37*
%TD.AperFunction*%
%TA.AperFunction,Conductor*%
G36*
X92089746Y-44711130D02*
G01*
X92145679Y-44753002D01*
X92170096Y-44818466D01*
X92168561Y-44843023D01*
X92169097Y-44843076D01*
X92168500Y-44849138D01*
X92168500Y-45056863D01*
X92177396Y-45101586D01*
X92171169Y-45171178D01*
X92128306Y-45226355D01*
X92062416Y-45249599D01*
X91994419Y-45233531D01*
X91968098Y-45213458D01*
X91913761Y-45159121D01*
X91913753Y-45159115D01*
X91816019Y-45101316D01*
X91768336Y-45050247D01*
X91755832Y-44981506D01*
X91782477Y-44916916D01*
X91791450Y-44906912D01*
X91958733Y-44739629D01*
X92020054Y-44706146D01*
X92089746Y-44711130D01*
G37*
%TD.AperFunction*%
%TA.AperFunction,Conductor*%
G36*
X92468889Y-38923185D02*
G01*
X92514644Y-38975989D01*
X92524588Y-39045147D01*
X92495563Y-39108703D01*
X92489531Y-39115181D01*
X92403919Y-39200792D01*
X92403916Y-39200796D01*
X92288512Y-39373509D01*
X92251634Y-39462543D01*
X92207793Y-39516946D01*
X92141499Y-39539011D01*
X92073800Y-39521732D01*
X92037807Y-39489402D01*
X92012919Y-39456157D01*
X91897825Y-39369997D01*
X91897818Y-39369993D01*
X91763111Y-39319751D01*
X91763104Y-39319749D01*
X91703576Y-39313348D01*
X91505732Y-39313348D01*
X91505732Y-40841986D01*
X91486047Y-40909025D01*
X91469413Y-40929667D01*
X91455732Y-40943348D01*
X91455732Y-41583348D01*
X91469413Y-41597029D01*
X91502898Y-41658352D01*
X91505732Y-41684710D01*
X91505732Y-42339348D01*
X91486047Y-42406387D01*
X91433243Y-42452142D01*
X91381732Y-42463348D01*
X91129732Y-42463348D01*
X91062693Y-42443663D01*
X91016938Y-42390859D01*
X91005732Y-42339348D01*
X91005732Y-41684710D01*
X91025417Y-41617671D01*
X91042051Y-41597029D01*
X91055732Y-41583348D01*
X91055732Y-40943348D01*
X91042051Y-40929667D01*
X91008566Y-40868344D01*
X91005732Y-40841986D01*
X91005732Y-39313348D01*
X90807887Y-39313348D01*
X90748359Y-39319749D01*
X90748351Y-39319751D01*
X90686801Y-39342708D01*
X90617109Y-39347692D01*
X90596016Y-39341087D01*
X90519642Y-39309452D01*
X90519633Y-39309449D01*
X90393197Y-39284300D01*
X90393193Y-39284300D01*
X90264267Y-39284300D01*
X90264262Y-39284300D01*
X90137826Y-39309449D01*
X90137817Y-39309452D01*
X90018712Y-39358786D01*
X90018710Y-39358787D01*
X89911510Y-39430416D01*
X89819396Y-39522530D01*
X89758072Y-39556014D01*
X89731715Y-39558848D01*
X89030668Y-39558848D01*
X88956430Y-39573614D01*
X88918034Y-39599270D01*
X88851356Y-39620147D01*
X88783976Y-39601662D01*
X88743605Y-39561263D01*
X88734973Y-39547268D01*
X88615132Y-39427427D01*
X88615128Y-39427424D01*
X88470892Y-39338457D01*
X88470881Y-39338452D01*
X88310006Y-39285144D01*
X88210722Y-39275000D01*
X88162400Y-39275000D01*
X88162400Y-40101000D01*
X88142715Y-40168039D01*
X88089911Y-40213794D01*
X88038400Y-40225000D01*
X87912400Y-40225000D01*
X87912400Y-40351000D01*
X87892715Y-40418039D01*
X87839911Y-40463794D01*
X87788400Y-40475000D01*
X84736400Y-40475000D01*
X84669361Y-40455315D01*
X84623606Y-40402511D01*
X84612400Y-40351000D01*
X84612400Y-40225000D01*
X84486400Y-40225000D01*
X84419361Y-40205315D01*
X84373606Y-40152511D01*
X84362400Y-40101000D01*
X84362400Y-39275000D01*
X84862400Y-39275000D01*
X84862400Y-39975000D01*
X86012400Y-39975000D01*
X86012400Y-39275000D01*
X86512400Y-39275000D01*
X86512400Y-39975000D01*
X87662400Y-39975000D01*
X87662400Y-39275000D01*
X87662399Y-39274999D01*
X87614093Y-39275000D01*
X87614075Y-39275001D01*
X87514792Y-39285144D01*
X87353918Y-39338452D01*
X87353907Y-39338457D01*
X87209671Y-39427424D01*
X87209667Y-39427427D01*
X87175081Y-39462014D01*
X87113758Y-39495499D01*
X87044066Y-39490515D01*
X86999719Y-39462014D01*
X86965132Y-39427427D01*
X86965128Y-39427424D01*
X86820892Y-39338457D01*
X86820881Y-39338452D01*
X86660006Y-39285144D01*
X86560722Y-39275000D01*
X86512400Y-39275000D01*
X86012400Y-39275000D01*
X86012399Y-39274999D01*
X85964093Y-39275000D01*
X85964075Y-39275001D01*
X85864792Y-39285144D01*
X85703918Y-39338452D01*
X85703907Y-39338457D01*
X85559671Y-39427424D01*
X85559667Y-39427427D01*
X85525081Y-39462014D01*
X85463758Y-39495499D01*
X85394066Y-39490515D01*
X85349719Y-39462014D01*
X85315132Y-39427427D01*
X85315128Y-39427424D01*
X85170892Y-39338457D01*
X85170881Y-39338452D01*
X85010006Y-39285144D01*
X84910722Y-39275000D01*
X84862400Y-39275000D01*
X84362400Y-39275000D01*
X84362399Y-39274999D01*
X84314093Y-39275000D01*
X84314075Y-39275001D01*
X84214792Y-39285144D01*
X84053918Y-39338452D01*
X84053907Y-39338457D01*
X83909671Y-39427424D01*
X83909667Y-39427427D01*
X83789826Y-39547268D01*
X83755243Y-39603336D01*
X83703294Y-39650060D01*
X83634332Y-39661281D01*
X83570250Y-39633437D01*
X83533524Y-39581572D01*
X83490076Y-39465086D01*
X83490075Y-39465085D01*
X83490074Y-39465081D01*
X83446439Y-39406791D01*
X83403136Y-39348943D01*
X83316781Y-39284300D01*
X83286999Y-39262006D01*
X83151074Y-39211308D01*
X83151070Y-39211307D01*
X83090994Y-39204848D01*
X82194480Y-39204848D01*
X82194474Y-39204849D01*
X82134387Y-39211308D01*
X81998470Y-39262003D01*
X81998462Y-39262008D01*
X81882326Y-39348944D01*
X81837314Y-39409075D01*
X81781381Y-39450947D01*
X81711689Y-39455931D01*
X81650366Y-39422447D01*
X81631738Y-39395844D01*
X81630881Y-39396373D01*
X81535047Y-39241002D01*
X81409226Y-39115181D01*
X81375741Y-39053858D01*
X81380725Y-38984166D01*
X81422597Y-38928233D01*
X81488061Y-38903816D01*
X81496907Y-38903500D01*
X92401850Y-38903500D01*
X92468889Y-38923185D01*
G37*
%TD.AperFunction*%
%TA.AperFunction,Conductor*%
G36*
X81805902Y-40680143D02*
G01*
X81837315Y-40709621D01*
X81882327Y-40769752D01*
X81924525Y-40801340D01*
X81998465Y-40856690D01*
X82096262Y-40893167D01*
X82152194Y-40935036D01*
X82176611Y-41000501D01*
X82161759Y-41068774D01*
X82112354Y-41118179D01*
X82096262Y-41125528D01*
X81998468Y-41162004D01*
X81998462Y-41162008D01*
X81882327Y-41248943D01*
X81800316Y-41358500D01*
X81795390Y-41365081D01*
X81744692Y-41501006D01*
X81744691Y-41501010D01*
X81738232Y-41561076D01*
X81738232Y-42274802D01*
X81718547Y-42341841D01*
X81665743Y-42387596D01*
X81661683Y-42389364D01*
X81618682Y-42407175D01*
X81549213Y-42414643D01*
X81486734Y-42383367D01*
X81451082Y-42323278D01*
X81447231Y-42292620D01*
X81447231Y-41561094D01*
X81440772Y-41501006D01*
X81440771Y-41501003D01*
X81390076Y-41365086D01*
X81390075Y-41365085D01*
X81390074Y-41365081D01*
X81326282Y-41279864D01*
X81303135Y-41248942D01*
X81302263Y-41248070D01*
X81301671Y-41246986D01*
X81297821Y-41241843D01*
X81298560Y-41241289D01*
X81268778Y-41186747D01*
X81273762Y-41117055D01*
X81315634Y-41061122D01*
X81324848Y-41054850D01*
X81411075Y-41001665D01*
X81535047Y-40877693D01*
X81630881Y-40722323D01*
X81632753Y-40723477D01*
X81671827Y-40679092D01*
X81739019Y-40659934D01*
X81805902Y-40680143D01*
G37*
%TD.AperFunction*%
%TA.AperFunction,Conductor*%
G36*
X83656749Y-40667321D02*
G01*
X83686774Y-40715999D01*
X83700849Y-40758475D01*
X83700857Y-40758492D01*
X83789824Y-40902728D01*
X83789827Y-40902732D01*
X83909667Y-41022572D01*
X83909671Y-41022575D01*
X83939480Y-41040962D01*
X83986205Y-41092910D01*
X83997426Y-41161873D01*
X83969583Y-41225954D01*
X83911514Y-41264810D01*
X83874383Y-41270500D01*
X83473202Y-41270500D01*
X83406163Y-41250815D01*
X83398909Y-41245780D01*
X83286999Y-41162006D01*
X83189199Y-41125528D01*
X83133269Y-41083658D01*
X83108852Y-41018194D01*
X83123704Y-40949921D01*
X83173110Y-40900516D01*
X83189192Y-40893170D01*
X83286999Y-40856690D01*
X83403136Y-40769752D01*
X83469803Y-40680693D01*
X83525733Y-40638823D01*
X83595425Y-40633837D01*
X83656749Y-40667321D01*
G37*
%TD.AperFunction*%
%TA.AperFunction,Conductor*%
G36*
X79356039Y-39642685D02*
G01*
X79401794Y-39695489D01*
X79413000Y-39747000D01*
X79413000Y-39809348D01*
X80418732Y-39809348D01*
X80485771Y-39829033D01*
X80531526Y-39881837D01*
X80542732Y-39933348D01*
X80542732Y-40185348D01*
X80523047Y-40252387D01*
X80470243Y-40298142D01*
X80418732Y-40309348D01*
X79386732Y-40309348D01*
X79319693Y-40289663D01*
X79273938Y-40236859D01*
X79262732Y-40185348D01*
X79262732Y-40123000D01*
X78298686Y-40123000D01*
X78303080Y-40118606D01*
X78355741Y-40027394D01*
X78383000Y-39925661D01*
X78383000Y-39820339D01*
X78355741Y-39718606D01*
X78303080Y-39627394D01*
X78298686Y-39623000D01*
X79289000Y-39623000D01*
X79356039Y-39642685D01*
G37*
%TD.AperFunction*%
%TD*%
M02*
