%TF.GenerationSoftware,KiCad,Pcbnew,10.0.1*%
%TF.CreationDate,2026-07-17T19:56:13+01:00*%
%TF.ProjectId,VideoULA,56696465-6f55-44c4-912e-6b696361645f,01*%
%TF.SameCoordinates,Original*%
%TF.FileFunction,Legend,Top*%
%TF.FilePolarity,Positive*%
%FSLAX46Y46*%
G04 Gerber Fmt 4.6, Leading zero omitted, Abs format (unit mm)*
G04 Created by KiCad (PCBNEW 10.0.1) date 2026-07-17 19:56:13*
%MOMM*%
%LPD*%
G01*
G04 APERTURE LIST*
%ADD10C,0.100000*%
%ADD11C,0.120000*%
G04 APERTURE END LIST*
D10*
X79989667Y-66702966D02*
X79923000Y-66669633D01*
X79923000Y-66669633D02*
X79823000Y-66669633D01*
X79823000Y-66669633D02*
X79723000Y-66702966D01*
X79723000Y-66702966D02*
X79656334Y-66769633D01*
X79656334Y-66769633D02*
X79623000Y-66836300D01*
X79623000Y-66836300D02*
X79589667Y-66969633D01*
X79589667Y-66969633D02*
X79589667Y-67069633D01*
X79589667Y-67069633D02*
X79623000Y-67202966D01*
X79623000Y-67202966D02*
X79656334Y-67269633D01*
X79656334Y-67269633D02*
X79723000Y-67336300D01*
X79723000Y-67336300D02*
X79823000Y-67369633D01*
X79823000Y-67369633D02*
X79889667Y-67369633D01*
X79889667Y-67369633D02*
X79989667Y-67336300D01*
X79989667Y-67336300D02*
X80023000Y-67302966D01*
X80023000Y-67302966D02*
X80023000Y-67069633D01*
X80023000Y-67069633D02*
X79889667Y-67069633D01*
X80323000Y-67369633D02*
X80323000Y-66669633D01*
X80323000Y-66669633D02*
X80723000Y-67369633D01*
X80723000Y-67369633D02*
X80723000Y-66669633D01*
X81056333Y-67369633D02*
X81056333Y-66669633D01*
X81056333Y-66669633D02*
X81223000Y-66669633D01*
X81223000Y-66669633D02*
X81323000Y-66702966D01*
X81323000Y-66702966D02*
X81389667Y-66769633D01*
X81389667Y-66769633D02*
X81423000Y-66836300D01*
X81423000Y-66836300D02*
X81456333Y-66969633D01*
X81456333Y-66969633D02*
X81456333Y-67069633D01*
X81456333Y-67069633D02*
X81423000Y-67202966D01*
X81423000Y-67202966D02*
X81389667Y-67269633D01*
X81389667Y-67269633D02*
X81323000Y-67336300D01*
X81323000Y-67336300D02*
X81223000Y-67369633D01*
X81223000Y-67369633D02*
X81056333Y-67369633D01*
X79623000Y-73273633D02*
X80023000Y-73273633D01*
X79823000Y-73973633D02*
X79823000Y-73273633D01*
X80656333Y-73906966D02*
X80623000Y-73940300D01*
X80623000Y-73940300D02*
X80523000Y-73973633D01*
X80523000Y-73973633D02*
X80456333Y-73973633D01*
X80456333Y-73973633D02*
X80356333Y-73940300D01*
X80356333Y-73940300D02*
X80289667Y-73873633D01*
X80289667Y-73873633D02*
X80256333Y-73806966D01*
X80256333Y-73806966D02*
X80223000Y-73673633D01*
X80223000Y-73673633D02*
X80223000Y-73573633D01*
X80223000Y-73573633D02*
X80256333Y-73440300D01*
X80256333Y-73440300D02*
X80289667Y-73373633D01*
X80289667Y-73373633D02*
X80356333Y-73306966D01*
X80356333Y-73306966D02*
X80456333Y-73273633D01*
X80456333Y-73273633D02*
X80523000Y-73273633D01*
X80523000Y-73273633D02*
X80623000Y-73306966D01*
X80623000Y-73306966D02*
X80656333Y-73340300D01*
X80956333Y-73973633D02*
X80956333Y-73273633D01*
X81356333Y-73973633D02*
X81056333Y-73573633D01*
X81356333Y-73273633D02*
X80956333Y-73673633D01*
X82196333Y-66669633D02*
X82629666Y-66669633D01*
X82629666Y-66669633D02*
X82396333Y-66936300D01*
X82396333Y-66936300D02*
X82496333Y-66936300D01*
X82496333Y-66936300D02*
X82562999Y-66969633D01*
X82562999Y-66969633D02*
X82596333Y-67002966D01*
X82596333Y-67002966D02*
X82629666Y-67069633D01*
X82629666Y-67069633D02*
X82629666Y-67236300D01*
X82629666Y-67236300D02*
X82596333Y-67302966D01*
X82596333Y-67302966D02*
X82562999Y-67336300D01*
X82562999Y-67336300D02*
X82496333Y-67369633D01*
X82496333Y-67369633D02*
X82296333Y-67369633D01*
X82296333Y-67369633D02*
X82229666Y-67336300D01*
X82229666Y-67336300D02*
X82196333Y-67302966D01*
X82829666Y-66669633D02*
X83063000Y-67369633D01*
X83063000Y-67369633D02*
X83296333Y-66669633D01*
X83463000Y-66669633D02*
X83896333Y-66669633D01*
X83896333Y-66669633D02*
X83663000Y-66936300D01*
X83663000Y-66936300D02*
X83763000Y-66936300D01*
X83763000Y-66936300D02*
X83829666Y-66969633D01*
X83829666Y-66969633D02*
X83863000Y-67002966D01*
X83863000Y-67002966D02*
X83896333Y-67069633D01*
X83896333Y-67069633D02*
X83896333Y-67236300D01*
X83896333Y-67236300D02*
X83863000Y-67302966D01*
X83863000Y-67302966D02*
X83829666Y-67336300D01*
X83829666Y-67336300D02*
X83763000Y-67369633D01*
X83763000Y-67369633D02*
X83563000Y-67369633D01*
X83563000Y-67369633D02*
X83496333Y-67336300D01*
X83496333Y-67336300D02*
X83463000Y-67302966D01*
X82146333Y-73273633D02*
X82546333Y-73273633D01*
X82346333Y-73973633D02*
X82346333Y-73273633D01*
X82779666Y-73973633D02*
X82779666Y-73273633D01*
X82779666Y-73273633D02*
X82946333Y-73273633D01*
X82946333Y-73273633D02*
X83046333Y-73306966D01*
X83046333Y-73306966D02*
X83113000Y-73373633D01*
X83113000Y-73373633D02*
X83146333Y-73440300D01*
X83146333Y-73440300D02*
X83179666Y-73573633D01*
X83179666Y-73573633D02*
X83179666Y-73673633D01*
X83179666Y-73673633D02*
X83146333Y-73806966D01*
X83146333Y-73806966D02*
X83113000Y-73873633D01*
X83113000Y-73873633D02*
X83046333Y-73940300D01*
X83046333Y-73940300D02*
X82946333Y-73973633D01*
X82946333Y-73973633D02*
X82779666Y-73973633D01*
X83613000Y-73273633D02*
X83746333Y-73273633D01*
X83746333Y-73273633D02*
X83813000Y-73306966D01*
X83813000Y-73306966D02*
X83879666Y-73373633D01*
X83879666Y-73373633D02*
X83913000Y-73506966D01*
X83913000Y-73506966D02*
X83913000Y-73740300D01*
X83913000Y-73740300D02*
X83879666Y-73873633D01*
X83879666Y-73873633D02*
X83813000Y-73940300D01*
X83813000Y-73940300D02*
X83746333Y-73973633D01*
X83746333Y-73973633D02*
X83613000Y-73973633D01*
X83613000Y-73973633D02*
X83546333Y-73940300D01*
X83546333Y-73940300D02*
X83479666Y-73873633D01*
X83479666Y-73873633D02*
X83446333Y-73740300D01*
X83446333Y-73740300D02*
X83446333Y-73506966D01*
X83446333Y-73506966D02*
X83479666Y-73373633D01*
X83479666Y-73373633D02*
X83546333Y-73306966D01*
X83546333Y-73306966D02*
X83613000Y-73273633D01*
X81452999Y-65832966D02*
X81986333Y-65832966D01*
X82319666Y-65832966D02*
X82853000Y-65832966D01*
X83186333Y-65832966D02*
X83719667Y-65832966D01*
X84786333Y-65399633D02*
X84786333Y-65899633D01*
X84786333Y-65899633D02*
X84753000Y-65999633D01*
X84753000Y-65999633D02*
X84686333Y-66066300D01*
X84686333Y-66066300D02*
X84586333Y-66099633D01*
X84586333Y-66099633D02*
X84519667Y-66099633D01*
X85019666Y-65399633D02*
X85419666Y-65399633D01*
X85219666Y-66099633D02*
X85219666Y-65399633D01*
X85619666Y-65899633D02*
X85952999Y-65899633D01*
X85552999Y-66099633D02*
X85786333Y-65399633D01*
X85786333Y-65399633D02*
X86019666Y-66099633D01*
X86619666Y-65432966D02*
X86552999Y-65399633D01*
X86552999Y-65399633D02*
X86452999Y-65399633D01*
X86452999Y-65399633D02*
X86352999Y-65432966D01*
X86352999Y-65432966D02*
X86286333Y-65499633D01*
X86286333Y-65499633D02*
X86252999Y-65566300D01*
X86252999Y-65566300D02*
X86219666Y-65699633D01*
X86219666Y-65699633D02*
X86219666Y-65799633D01*
X86219666Y-65799633D02*
X86252999Y-65932966D01*
X86252999Y-65932966D02*
X86286333Y-65999633D01*
X86286333Y-65999633D02*
X86352999Y-66066300D01*
X86352999Y-66066300D02*
X86452999Y-66099633D01*
X86452999Y-66099633D02*
X86519666Y-66099633D01*
X86519666Y-66099633D02*
X86619666Y-66066300D01*
X86619666Y-66066300D02*
X86652999Y-66032966D01*
X86652999Y-66032966D02*
X86652999Y-65799633D01*
X86652999Y-65799633D02*
X86519666Y-65799633D01*
X87486332Y-65832966D02*
X88019666Y-65832966D01*
X88352999Y-65832966D02*
X88886333Y-65832966D01*
X89219666Y-65832966D02*
X89753000Y-65832966D01*
X84686333Y-67369633D02*
X84686333Y-66669633D01*
X84686333Y-66669633D02*
X85086333Y-67369633D01*
X85086333Y-67369633D02*
X85086333Y-66669633D01*
X85919666Y-66636300D02*
X85319666Y-67536300D01*
X86552999Y-67302966D02*
X86519666Y-67336300D01*
X86519666Y-67336300D02*
X86419666Y-67369633D01*
X86419666Y-67369633D02*
X86352999Y-67369633D01*
X86352999Y-67369633D02*
X86252999Y-67336300D01*
X86252999Y-67336300D02*
X86186333Y-67269633D01*
X86186333Y-67269633D02*
X86152999Y-67202966D01*
X86152999Y-67202966D02*
X86119666Y-67069633D01*
X86119666Y-67069633D02*
X86119666Y-66969633D01*
X86119666Y-66969633D02*
X86152999Y-66836300D01*
X86152999Y-66836300D02*
X86186333Y-66769633D01*
X86186333Y-66769633D02*
X86252999Y-66702966D01*
X86252999Y-66702966D02*
X86352999Y-66669633D01*
X86352999Y-66669633D02*
X86419666Y-66669633D01*
X86419666Y-66669633D02*
X86519666Y-66702966D01*
X86519666Y-66702966D02*
X86552999Y-66736300D01*
X84669666Y-73273633D02*
X85069666Y-73273633D01*
X84869666Y-73973633D02*
X84869666Y-73273633D01*
X85302999Y-73973633D02*
X85302999Y-73273633D01*
X85302999Y-73273633D02*
X85536333Y-73773633D01*
X85536333Y-73773633D02*
X85769666Y-73273633D01*
X85769666Y-73273633D02*
X85769666Y-73973633D01*
X86069666Y-73940300D02*
X86169666Y-73973633D01*
X86169666Y-73973633D02*
X86336333Y-73973633D01*
X86336333Y-73973633D02*
X86402999Y-73940300D01*
X86402999Y-73940300D02*
X86436333Y-73906966D01*
X86436333Y-73906966D02*
X86469666Y-73840300D01*
X86469666Y-73840300D02*
X86469666Y-73773633D01*
X86469666Y-73773633D02*
X86436333Y-73706966D01*
X86436333Y-73706966D02*
X86402999Y-73673633D01*
X86402999Y-73673633D02*
X86336333Y-73640300D01*
X86336333Y-73640300D02*
X86202999Y-73606966D01*
X86202999Y-73606966D02*
X86136333Y-73573633D01*
X86136333Y-73573633D02*
X86102999Y-73540300D01*
X86102999Y-73540300D02*
X86069666Y-73473633D01*
X86069666Y-73473633D02*
X86069666Y-73406966D01*
X86069666Y-73406966D02*
X86102999Y-73340300D01*
X86102999Y-73340300D02*
X86136333Y-73306966D01*
X86136333Y-73306966D02*
X86202999Y-73273633D01*
X86202999Y-73273633D02*
X86369666Y-73273633D01*
X86369666Y-73273633D02*
X86469666Y-73306966D01*
X87226333Y-67369633D02*
X87226333Y-66669633D01*
X87226333Y-66669633D02*
X87626333Y-67369633D01*
X87626333Y-67369633D02*
X87626333Y-66669633D01*
X88459666Y-66636300D02*
X87859666Y-67536300D01*
X89092999Y-67302966D02*
X89059666Y-67336300D01*
X89059666Y-67336300D02*
X88959666Y-67369633D01*
X88959666Y-67369633D02*
X88892999Y-67369633D01*
X88892999Y-67369633D02*
X88792999Y-67336300D01*
X88792999Y-67336300D02*
X88726333Y-67269633D01*
X88726333Y-67269633D02*
X88692999Y-67202966D01*
X88692999Y-67202966D02*
X88659666Y-67069633D01*
X88659666Y-67069633D02*
X88659666Y-66969633D01*
X88659666Y-66969633D02*
X88692999Y-66836300D01*
X88692999Y-66836300D02*
X88726333Y-66769633D01*
X88726333Y-66769633D02*
X88792999Y-66702966D01*
X88792999Y-66702966D02*
X88892999Y-66669633D01*
X88892999Y-66669633D02*
X88959666Y-66669633D01*
X88959666Y-66669633D02*
X89059666Y-66702966D01*
X89059666Y-66702966D02*
X89092999Y-66736300D01*
X87226333Y-73973633D02*
X87226333Y-73273633D01*
X87226333Y-73273633D02*
X87626333Y-73973633D01*
X87626333Y-73973633D02*
X87626333Y-73273633D01*
X88459666Y-73240300D02*
X87859666Y-74140300D01*
X89092999Y-73906966D02*
X89059666Y-73940300D01*
X89059666Y-73940300D02*
X88959666Y-73973633D01*
X88959666Y-73973633D02*
X88892999Y-73973633D01*
X88892999Y-73973633D02*
X88792999Y-73940300D01*
X88792999Y-73940300D02*
X88726333Y-73873633D01*
X88726333Y-73873633D02*
X88692999Y-73806966D01*
X88692999Y-73806966D02*
X88659666Y-73673633D01*
X88659666Y-73673633D02*
X88659666Y-73573633D01*
X88659666Y-73573633D02*
X88692999Y-73440300D01*
X88692999Y-73440300D02*
X88726333Y-73373633D01*
X88726333Y-73373633D02*
X88792999Y-73306966D01*
X88792999Y-73306966D02*
X88892999Y-73273633D01*
X88892999Y-73273633D02*
X88959666Y-73273633D01*
X88959666Y-73273633D02*
X89059666Y-73306966D01*
X89059666Y-73306966D02*
X89092999Y-73340300D01*
X90149667Y-66702966D02*
X90083000Y-66669633D01*
X90083000Y-66669633D02*
X89983000Y-66669633D01*
X89983000Y-66669633D02*
X89883000Y-66702966D01*
X89883000Y-66702966D02*
X89816334Y-66769633D01*
X89816334Y-66769633D02*
X89783000Y-66836300D01*
X89783000Y-66836300D02*
X89749667Y-66969633D01*
X89749667Y-66969633D02*
X89749667Y-67069633D01*
X89749667Y-67069633D02*
X89783000Y-67202966D01*
X89783000Y-67202966D02*
X89816334Y-67269633D01*
X89816334Y-67269633D02*
X89883000Y-67336300D01*
X89883000Y-67336300D02*
X89983000Y-67369633D01*
X89983000Y-67369633D02*
X90049667Y-67369633D01*
X90049667Y-67369633D02*
X90149667Y-67336300D01*
X90149667Y-67336300D02*
X90183000Y-67302966D01*
X90183000Y-67302966D02*
X90183000Y-67069633D01*
X90183000Y-67069633D02*
X90049667Y-67069633D01*
X90483000Y-67369633D02*
X90483000Y-66669633D01*
X90483000Y-66669633D02*
X90883000Y-67369633D01*
X90883000Y-67369633D02*
X90883000Y-66669633D01*
X91216333Y-67369633D02*
X91216333Y-66669633D01*
X91216333Y-66669633D02*
X91383000Y-66669633D01*
X91383000Y-66669633D02*
X91483000Y-66702966D01*
X91483000Y-66702966D02*
X91549667Y-66769633D01*
X91549667Y-66769633D02*
X91583000Y-66836300D01*
X91583000Y-66836300D02*
X91616333Y-66969633D01*
X91616333Y-66969633D02*
X91616333Y-67069633D01*
X91616333Y-67069633D02*
X91583000Y-67202966D01*
X91583000Y-67202966D02*
X91549667Y-67269633D01*
X91549667Y-67269633D02*
X91483000Y-67336300D01*
X91483000Y-67336300D02*
X91383000Y-67369633D01*
X91383000Y-67369633D02*
X91216333Y-67369633D01*
X89966333Y-73273633D02*
X90366333Y-73273633D01*
X90166333Y-73973633D02*
X90166333Y-73273633D01*
X90599666Y-73973633D02*
X90599666Y-73273633D01*
X90599666Y-73273633D02*
X90766333Y-73273633D01*
X90766333Y-73273633D02*
X90866333Y-73306966D01*
X90866333Y-73306966D02*
X90933000Y-73373633D01*
X90933000Y-73373633D02*
X90966333Y-73440300D01*
X90966333Y-73440300D02*
X90999666Y-73573633D01*
X90999666Y-73573633D02*
X90999666Y-73673633D01*
X90999666Y-73673633D02*
X90966333Y-73806966D01*
X90966333Y-73806966D02*
X90933000Y-73873633D01*
X90933000Y-73873633D02*
X90866333Y-73940300D01*
X90866333Y-73940300D02*
X90766333Y-73973633D01*
X90766333Y-73973633D02*
X90599666Y-73973633D01*
X91299666Y-73973633D02*
X91299666Y-73273633D01*
X84201065Y-40119981D02*
X84667731Y-40819981D01*
X84667731Y-40119981D02*
X84201065Y-40819981D01*
X85301065Y-40819981D02*
X84901065Y-40819981D01*
X85101065Y-40819981D02*
X85101065Y-40119981D01*
X85101065Y-40119981D02*
X85034398Y-40219981D01*
X85034398Y-40219981D02*
X84967732Y-40286648D01*
X84967732Y-40286648D02*
X84901065Y-40319981D01*
X87945065Y-49135314D02*
X87911732Y-49168648D01*
X87911732Y-49168648D02*
X87811732Y-49201981D01*
X87811732Y-49201981D02*
X87745065Y-49201981D01*
X87745065Y-49201981D02*
X87645065Y-49168648D01*
X87645065Y-49168648D02*
X87578399Y-49101981D01*
X87578399Y-49101981D02*
X87545065Y-49035314D01*
X87545065Y-49035314D02*
X87511732Y-48901981D01*
X87511732Y-48901981D02*
X87511732Y-48801981D01*
X87511732Y-48801981D02*
X87545065Y-48668648D01*
X87545065Y-48668648D02*
X87578399Y-48601981D01*
X87578399Y-48601981D02*
X87645065Y-48535314D01*
X87645065Y-48535314D02*
X87745065Y-48501981D01*
X87745065Y-48501981D02*
X87811732Y-48501981D01*
X87811732Y-48501981D02*
X87911732Y-48535314D01*
X87911732Y-48535314D02*
X87945065Y-48568648D01*
X88178399Y-48501981D02*
X88611732Y-48501981D01*
X88611732Y-48501981D02*
X88378399Y-48768648D01*
X88378399Y-48768648D02*
X88478399Y-48768648D01*
X88478399Y-48768648D02*
X88545065Y-48801981D01*
X88545065Y-48801981D02*
X88578399Y-48835314D01*
X88578399Y-48835314D02*
X88611732Y-48901981D01*
X88611732Y-48901981D02*
X88611732Y-49068648D01*
X88611732Y-49068648D02*
X88578399Y-49135314D01*
X88578399Y-49135314D02*
X88545065Y-49168648D01*
X88545065Y-49168648D02*
X88478399Y-49201981D01*
X88478399Y-49201981D02*
X88278399Y-49201981D01*
X88278399Y-49201981D02*
X88211732Y-49168648D01*
X88211732Y-49168648D02*
X88178399Y-49135314D01*
X90973065Y-65391314D02*
X90939732Y-65424648D01*
X90939732Y-65424648D02*
X90839732Y-65457981D01*
X90839732Y-65457981D02*
X90773065Y-65457981D01*
X90773065Y-65457981D02*
X90673065Y-65424648D01*
X90673065Y-65424648D02*
X90606399Y-65357981D01*
X90606399Y-65357981D02*
X90573065Y-65291314D01*
X90573065Y-65291314D02*
X90539732Y-65157981D01*
X90539732Y-65157981D02*
X90539732Y-65057981D01*
X90539732Y-65057981D02*
X90573065Y-64924648D01*
X90573065Y-64924648D02*
X90606399Y-64857981D01*
X90606399Y-64857981D02*
X90673065Y-64791314D01*
X90673065Y-64791314D02*
X90773065Y-64757981D01*
X90773065Y-64757981D02*
X90839732Y-64757981D01*
X90839732Y-64757981D02*
X90939732Y-64791314D01*
X90939732Y-64791314D02*
X90973065Y-64824648D01*
X91239732Y-64824648D02*
X91273065Y-64791314D01*
X91273065Y-64791314D02*
X91339732Y-64757981D01*
X91339732Y-64757981D02*
X91506399Y-64757981D01*
X91506399Y-64757981D02*
X91573065Y-64791314D01*
X91573065Y-64791314D02*
X91606399Y-64824648D01*
X91606399Y-64824648D02*
X91639732Y-64891314D01*
X91639732Y-64891314D02*
X91639732Y-64957981D01*
X91639732Y-64957981D02*
X91606399Y-65057981D01*
X91606399Y-65057981D02*
X91206399Y-65457981D01*
X91206399Y-65457981D02*
X91639732Y-65457981D01*
X81849065Y-64268314D02*
X81815732Y-64301648D01*
X81815732Y-64301648D02*
X81715732Y-64334981D01*
X81715732Y-64334981D02*
X81649065Y-64334981D01*
X81649065Y-64334981D02*
X81549065Y-64301648D01*
X81549065Y-64301648D02*
X81482399Y-64234981D01*
X81482399Y-64234981D02*
X81449065Y-64168314D01*
X81449065Y-64168314D02*
X81415732Y-64034981D01*
X81415732Y-64034981D02*
X81415732Y-63934981D01*
X81415732Y-63934981D02*
X81449065Y-63801648D01*
X81449065Y-63801648D02*
X81482399Y-63734981D01*
X81482399Y-63734981D02*
X81549065Y-63668314D01*
X81549065Y-63668314D02*
X81649065Y-63634981D01*
X81649065Y-63634981D02*
X81715732Y-63634981D01*
X81715732Y-63634981D02*
X81815732Y-63668314D01*
X81815732Y-63668314D02*
X81849065Y-63701648D01*
X82515732Y-64334981D02*
X82115732Y-64334981D01*
X82315732Y-64334981D02*
X82315732Y-63634981D01*
X82315732Y-63634981D02*
X82249065Y-63734981D01*
X82249065Y-63734981D02*
X82182399Y-63801648D01*
X82182399Y-63801648D02*
X82115732Y-63834981D01*
X86048065Y-43166314D02*
X86014732Y-43199648D01*
X86014732Y-43199648D02*
X85914732Y-43232981D01*
X85914732Y-43232981D02*
X85848065Y-43232981D01*
X85848065Y-43232981D02*
X85748065Y-43199648D01*
X85748065Y-43199648D02*
X85681399Y-43132981D01*
X85681399Y-43132981D02*
X85648065Y-43066314D01*
X85648065Y-43066314D02*
X85614732Y-42932981D01*
X85614732Y-42932981D02*
X85614732Y-42832981D01*
X85614732Y-42832981D02*
X85648065Y-42699648D01*
X85648065Y-42699648D02*
X85681399Y-42632981D01*
X85681399Y-42632981D02*
X85748065Y-42566314D01*
X85748065Y-42566314D02*
X85848065Y-42532981D01*
X85848065Y-42532981D02*
X85914732Y-42532981D01*
X85914732Y-42532981D02*
X86014732Y-42566314D01*
X86014732Y-42566314D02*
X86048065Y-42599648D01*
X86448065Y-42832981D02*
X86381399Y-42799648D01*
X86381399Y-42799648D02*
X86348065Y-42766314D01*
X86348065Y-42766314D02*
X86314732Y-42699648D01*
X86314732Y-42699648D02*
X86314732Y-42666314D01*
X86314732Y-42666314D02*
X86348065Y-42599648D01*
X86348065Y-42599648D02*
X86381399Y-42566314D01*
X86381399Y-42566314D02*
X86448065Y-42532981D01*
X86448065Y-42532981D02*
X86581399Y-42532981D01*
X86581399Y-42532981D02*
X86648065Y-42566314D01*
X86648065Y-42566314D02*
X86681399Y-42599648D01*
X86681399Y-42599648D02*
X86714732Y-42666314D01*
X86714732Y-42666314D02*
X86714732Y-42699648D01*
X86714732Y-42699648D02*
X86681399Y-42766314D01*
X86681399Y-42766314D02*
X86648065Y-42799648D01*
X86648065Y-42799648D02*
X86581399Y-42832981D01*
X86581399Y-42832981D02*
X86448065Y-42832981D01*
X86448065Y-42832981D02*
X86381399Y-42866314D01*
X86381399Y-42866314D02*
X86348065Y-42899648D01*
X86348065Y-42899648D02*
X86314732Y-42966314D01*
X86314732Y-42966314D02*
X86314732Y-43099648D01*
X86314732Y-43099648D02*
X86348065Y-43166314D01*
X86348065Y-43166314D02*
X86381399Y-43199648D01*
X86381399Y-43199648D02*
X86448065Y-43232981D01*
X86448065Y-43232981D02*
X86581399Y-43232981D01*
X86581399Y-43232981D02*
X86648065Y-43199648D01*
X86648065Y-43199648D02*
X86681399Y-43166314D01*
X86681399Y-43166314D02*
X86714732Y-43099648D01*
X86714732Y-43099648D02*
X86714732Y-42966314D01*
X86714732Y-42966314D02*
X86681399Y-42899648D01*
X86681399Y-42899648D02*
X86648065Y-42866314D01*
X86648065Y-42866314D02*
X86581399Y-42832981D01*
X83116117Y-46976016D02*
X83082784Y-47009350D01*
X83082784Y-47009350D02*
X82982784Y-47042683D01*
X82982784Y-47042683D02*
X82916117Y-47042683D01*
X82916117Y-47042683D02*
X82816117Y-47009350D01*
X82816117Y-47009350D02*
X82749451Y-46942683D01*
X82749451Y-46942683D02*
X82716117Y-46876016D01*
X82716117Y-46876016D02*
X82682784Y-46742683D01*
X82682784Y-46742683D02*
X82682784Y-46642683D01*
X82682784Y-46642683D02*
X82716117Y-46509350D01*
X82716117Y-46509350D02*
X82749451Y-46442683D01*
X82749451Y-46442683D02*
X82816117Y-46376016D01*
X82816117Y-46376016D02*
X82916117Y-46342683D01*
X82916117Y-46342683D02*
X82982784Y-46342683D01*
X82982784Y-46342683D02*
X83082784Y-46376016D01*
X83082784Y-46376016D02*
X83116117Y-46409350D01*
X83716117Y-46576016D02*
X83716117Y-47042683D01*
X83549451Y-46309350D02*
X83382784Y-46809350D01*
X83382784Y-46809350D02*
X83816117Y-46809350D01*
X87826065Y-43166314D02*
X87792732Y-43199648D01*
X87792732Y-43199648D02*
X87692732Y-43232981D01*
X87692732Y-43232981D02*
X87626065Y-43232981D01*
X87626065Y-43232981D02*
X87526065Y-43199648D01*
X87526065Y-43199648D02*
X87459399Y-43132981D01*
X87459399Y-43132981D02*
X87426065Y-43066314D01*
X87426065Y-43066314D02*
X87392732Y-42932981D01*
X87392732Y-42932981D02*
X87392732Y-42832981D01*
X87392732Y-42832981D02*
X87426065Y-42699648D01*
X87426065Y-42699648D02*
X87459399Y-42632981D01*
X87459399Y-42632981D02*
X87526065Y-42566314D01*
X87526065Y-42566314D02*
X87626065Y-42532981D01*
X87626065Y-42532981D02*
X87692732Y-42532981D01*
X87692732Y-42532981D02*
X87792732Y-42566314D01*
X87792732Y-42566314D02*
X87826065Y-42599648D01*
X88159399Y-43232981D02*
X88292732Y-43232981D01*
X88292732Y-43232981D02*
X88359399Y-43199648D01*
X88359399Y-43199648D02*
X88392732Y-43166314D01*
X88392732Y-43166314D02*
X88459399Y-43066314D01*
X88459399Y-43066314D02*
X88492732Y-42932981D01*
X88492732Y-42932981D02*
X88492732Y-42666314D01*
X88492732Y-42666314D02*
X88459399Y-42599648D01*
X88459399Y-42599648D02*
X88426065Y-42566314D01*
X88426065Y-42566314D02*
X88359399Y-42532981D01*
X88359399Y-42532981D02*
X88226065Y-42532981D01*
X88226065Y-42532981D02*
X88159399Y-42566314D01*
X88159399Y-42566314D02*
X88126065Y-42599648D01*
X88126065Y-42599648D02*
X88092732Y-42666314D01*
X88092732Y-42666314D02*
X88092732Y-42832981D01*
X88092732Y-42832981D02*
X88126065Y-42899648D01*
X88126065Y-42899648D02*
X88159399Y-42932981D01*
X88159399Y-42932981D02*
X88226065Y-42966314D01*
X88226065Y-42966314D02*
X88359399Y-42966314D01*
X88359399Y-42966314D02*
X88426065Y-42932981D01*
X88426065Y-42932981D02*
X88459399Y-42899648D01*
X88459399Y-42899648D02*
X88492732Y-42832981D01*
X79842465Y-47017581D02*
X79609132Y-46684248D01*
X79442465Y-47017581D02*
X79442465Y-46317581D01*
X79442465Y-46317581D02*
X79709132Y-46317581D01*
X79709132Y-46317581D02*
X79775799Y-46350914D01*
X79775799Y-46350914D02*
X79809132Y-46384248D01*
X79809132Y-46384248D02*
X79842465Y-46450914D01*
X79842465Y-46450914D02*
X79842465Y-46550914D01*
X79842465Y-46550914D02*
X79809132Y-46617581D01*
X79809132Y-46617581D02*
X79775799Y-46650914D01*
X79775799Y-46650914D02*
X79709132Y-46684248D01*
X79709132Y-46684248D02*
X79442465Y-46684248D01*
X80509132Y-47017581D02*
X80109132Y-47017581D01*
X80309132Y-47017581D02*
X80309132Y-46317581D01*
X80309132Y-46317581D02*
X80242465Y-46417581D01*
X80242465Y-46417581D02*
X80175799Y-46484248D01*
X80175799Y-46484248D02*
X80109132Y-46517581D01*
X89872398Y-44121981D02*
X89639065Y-43788648D01*
X89472398Y-44121981D02*
X89472398Y-43421981D01*
X89472398Y-43421981D02*
X89739065Y-43421981D01*
X89739065Y-43421981D02*
X89805732Y-43455314D01*
X89805732Y-43455314D02*
X89839065Y-43488648D01*
X89839065Y-43488648D02*
X89872398Y-43555314D01*
X89872398Y-43555314D02*
X89872398Y-43655314D01*
X89872398Y-43655314D02*
X89839065Y-43721981D01*
X89839065Y-43721981D02*
X89805732Y-43755314D01*
X89805732Y-43755314D02*
X89739065Y-43788648D01*
X89739065Y-43788648D02*
X89472398Y-43788648D01*
X90172398Y-44121981D02*
X90172398Y-43421981D01*
X90172398Y-43421981D02*
X90572398Y-44121981D01*
X90572398Y-44121981D02*
X90572398Y-43421981D01*
X91272398Y-44121981D02*
X90872398Y-44121981D01*
X91072398Y-44121981D02*
X91072398Y-43421981D01*
X91072398Y-43421981D02*
X91005731Y-43521981D01*
X91005731Y-43521981D02*
X90939065Y-43588648D01*
X90939065Y-43588648D02*
X90872398Y-43621981D01*
X79735666Y-61974633D02*
X79735666Y-62541300D01*
X79735666Y-62541300D02*
X79769000Y-62607966D01*
X79769000Y-62607966D02*
X79802333Y-62641300D01*
X79802333Y-62641300D02*
X79869000Y-62674633D01*
X79869000Y-62674633D02*
X80002333Y-62674633D01*
X80002333Y-62674633D02*
X80069000Y-62641300D01*
X80069000Y-62641300D02*
X80102333Y-62607966D01*
X80102333Y-62607966D02*
X80135666Y-62541300D01*
X80135666Y-62541300D02*
X80135666Y-61974633D01*
X80835666Y-62674633D02*
X80435666Y-62674633D01*
X80635666Y-62674633D02*
X80635666Y-61974633D01*
X80635666Y-61974633D02*
X80568999Y-62074633D01*
X80568999Y-62074633D02*
X80502333Y-62141300D01*
X80502333Y-62141300D02*
X80435666Y-62174633D01*
X89215065Y-47611314D02*
X89181732Y-47644648D01*
X89181732Y-47644648D02*
X89081732Y-47677981D01*
X89081732Y-47677981D02*
X89015065Y-47677981D01*
X89015065Y-47677981D02*
X88915065Y-47644648D01*
X88915065Y-47644648D02*
X88848399Y-47577981D01*
X88848399Y-47577981D02*
X88815065Y-47511314D01*
X88815065Y-47511314D02*
X88781732Y-47377981D01*
X88781732Y-47377981D02*
X88781732Y-47277981D01*
X88781732Y-47277981D02*
X88815065Y-47144648D01*
X88815065Y-47144648D02*
X88848399Y-47077981D01*
X88848399Y-47077981D02*
X88915065Y-47011314D01*
X88915065Y-47011314D02*
X89015065Y-46977981D01*
X89015065Y-46977981D02*
X89081732Y-46977981D01*
X89081732Y-46977981D02*
X89181732Y-47011314D01*
X89181732Y-47011314D02*
X89215065Y-47044648D01*
X89848399Y-46977981D02*
X89515065Y-46977981D01*
X89515065Y-46977981D02*
X89481732Y-47311314D01*
X89481732Y-47311314D02*
X89515065Y-47277981D01*
X89515065Y-47277981D02*
X89581732Y-47244648D01*
X89581732Y-47244648D02*
X89748399Y-47244648D01*
X89748399Y-47244648D02*
X89815065Y-47277981D01*
X89815065Y-47277981D02*
X89848399Y-47311314D01*
X89848399Y-47311314D02*
X89881732Y-47377981D01*
X89881732Y-47377981D02*
X89881732Y-47544648D01*
X89881732Y-47544648D02*
X89848399Y-47611314D01*
X89848399Y-47611314D02*
X89815065Y-47644648D01*
X89815065Y-47644648D02*
X89748399Y-47677981D01*
X89748399Y-47677981D02*
X89581732Y-47677981D01*
X89581732Y-47677981D02*
X89515065Y-47644648D01*
X89515065Y-47644648D02*
X89481732Y-47611314D01*
X85877398Y-47231981D02*
X85877398Y-47798648D01*
X85877398Y-47798648D02*
X85910732Y-47865314D01*
X85910732Y-47865314D02*
X85944065Y-47898648D01*
X85944065Y-47898648D02*
X86010732Y-47931981D01*
X86010732Y-47931981D02*
X86144065Y-47931981D01*
X86144065Y-47931981D02*
X86210732Y-47898648D01*
X86210732Y-47898648D02*
X86244065Y-47865314D01*
X86244065Y-47865314D02*
X86277398Y-47798648D01*
X86277398Y-47798648D02*
X86277398Y-47231981D01*
X86577398Y-47298648D02*
X86610731Y-47265314D01*
X86610731Y-47265314D02*
X86677398Y-47231981D01*
X86677398Y-47231981D02*
X86844065Y-47231981D01*
X86844065Y-47231981D02*
X86910731Y-47265314D01*
X86910731Y-47265314D02*
X86944065Y-47298648D01*
X86944065Y-47298648D02*
X86977398Y-47365314D01*
X86977398Y-47365314D02*
X86977398Y-47431981D01*
X86977398Y-47431981D02*
X86944065Y-47531981D01*
X86944065Y-47531981D02*
X86544065Y-47931981D01*
X86544065Y-47931981D02*
X86977398Y-47931981D01*
X81468065Y-46976314D02*
X81434732Y-47009648D01*
X81434732Y-47009648D02*
X81334732Y-47042981D01*
X81334732Y-47042981D02*
X81268065Y-47042981D01*
X81268065Y-47042981D02*
X81168065Y-47009648D01*
X81168065Y-47009648D02*
X81101399Y-46942981D01*
X81101399Y-46942981D02*
X81068065Y-46876314D01*
X81068065Y-46876314D02*
X81034732Y-46742981D01*
X81034732Y-46742981D02*
X81034732Y-46642981D01*
X81034732Y-46642981D02*
X81068065Y-46509648D01*
X81068065Y-46509648D02*
X81101399Y-46442981D01*
X81101399Y-46442981D02*
X81168065Y-46376314D01*
X81168065Y-46376314D02*
X81268065Y-46342981D01*
X81268065Y-46342981D02*
X81334732Y-46342981D01*
X81334732Y-46342981D02*
X81434732Y-46376314D01*
X81434732Y-46376314D02*
X81468065Y-46409648D01*
X81701399Y-46342981D02*
X82168065Y-46342981D01*
X82168065Y-46342981D02*
X81868065Y-47042981D01*
%TO.C,X1*%
D11*
X84006732Y-42946348D02*
X84006732Y-39326348D01*
X84006732Y-39326348D02*
X79686732Y-39326348D01*
%TO.C,C3*%
X90026420Y-48384000D02*
X90307580Y-48384000D01*
X90026420Y-49404000D02*
X90307580Y-49404000D01*
%TO.C,C2*%
X91599732Y-63125768D02*
X91599732Y-63406928D01*
X90579732Y-63125768D02*
X90579732Y-63406928D01*
%TO.C,C1*%
X84143380Y-64526348D02*
X83862220Y-64526348D01*
X84143380Y-63506348D02*
X83862220Y-63506348D01*
%TO.C,C8*%
X85654732Y-41149928D02*
X85654732Y-40868768D01*
X86674732Y-41149928D02*
X86674732Y-40868768D01*
%TO.C,C4*%
X83753732Y-44678768D02*
X83753732Y-44959928D01*
X82733732Y-44678768D02*
X82733732Y-44959928D01*
%TO.C,C9*%
X88452732Y-41149928D02*
X88452732Y-40868768D01*
X87432732Y-41149928D02*
X87432732Y-40868768D01*
%TO.C,R1*%
X79436632Y-45056606D02*
X79436632Y-44582090D01*
X80481632Y-45056606D02*
X80481632Y-44582090D01*
%TO.C,RN1*%
X89855732Y-39837348D02*
X90855732Y-39837348D01*
X89855732Y-43197348D02*
X90855732Y-43197348D01*
%TO.C,J1*%
X79143000Y-67703000D02*
X92063000Y-67703000D01*
X79143000Y-70353000D02*
X79143000Y-67703000D01*
X79143000Y-73003000D02*
X79143000Y-71623000D01*
X80523000Y-73003000D02*
X79143000Y-73003000D01*
X81793000Y-70353000D02*
X79143000Y-70353000D01*
X81793000Y-73003000D02*
X81793000Y-70353000D01*
X81793000Y-73003000D02*
X92063000Y-73003000D01*
X92063000Y-73003000D02*
X92063000Y-67703000D01*
%TO.C,U1*%
X80493000Y-51273000D02*
X81068000Y-51273000D01*
X80493000Y-51848000D02*
X80493000Y-51273000D01*
X80493000Y-61493000D02*
X80493000Y-60918000D01*
X81068000Y-61493000D02*
X80493000Y-61493000D01*
X90138000Y-51273000D02*
X90713000Y-51273000D01*
X90713000Y-51273000D02*
X90713000Y-51848000D01*
X90713000Y-60918000D02*
X90713000Y-61493000D01*
X90713000Y-61493000D02*
X90138000Y-61493000D01*
X79853000Y-51843000D02*
X79513000Y-51373000D01*
X80193000Y-51373000D01*
X79853000Y-51843000D01*
G36*
X79853000Y-51843000D02*
G01*
X79513000Y-51373000D01*
X80193000Y-51373000D01*
X79853000Y-51843000D01*
G37*
%TO.C,C5*%
X88956732Y-45313768D02*
X88956732Y-45594928D01*
X89976732Y-45313768D02*
X89976732Y-45594928D01*
%TO.C,IC6*%
X79143000Y-38543000D02*
X79143000Y-74223000D01*
X79143000Y-74223000D02*
X92063000Y-74223000D01*
X84603000Y-38543000D02*
X79143000Y-38543000D01*
X92063000Y-38543000D02*
X86603000Y-38543000D01*
X92063000Y-74223000D02*
X92063000Y-38543000D01*
X86603000Y-38543000D02*
G75*
G02*
X84603000Y-38543000I-1000000J0D01*
G01*
%TO.C,U2*%
X85508732Y-43894348D02*
X87328732Y-43894348D01*
X85508732Y-44894348D02*
X85508732Y-43894348D01*
X85508732Y-47014348D02*
X85508732Y-46014348D01*
X87328732Y-43894348D02*
X87328732Y-43944348D01*
X87328732Y-45064348D02*
X87328732Y-45844348D01*
X87328732Y-46964348D02*
X87328732Y-47014348D01*
X87328732Y-47014348D02*
X85508732Y-47014348D01*
X87868732Y-45834348D02*
X87628732Y-45504348D01*
X88108732Y-45504348D01*
X87868732Y-45834348D01*
G36*
X87868732Y-45834348D02*
G01*
X87628732Y-45504348D01*
X88108732Y-45504348D01*
X87868732Y-45834348D01*
G37*
%TO.C,C7*%
X82094732Y-44678768D02*
X82094732Y-44959928D01*
X81074732Y-44678768D02*
X81074732Y-44959928D01*
%TD*%
M02*
