%TF.GenerationSoftware,KiCad,Pcbnew,10.0.1*%
%TF.CreationDate,2026-07-17T19:56:13+01:00*%
%TF.ProjectId,VideoULA,56696465-6f55-44c4-912e-6b696361645f,01*%
%TF.SameCoordinates,Original*%
%TF.FileFunction,Copper,L2,Bot*%
%TF.FilePolarity,Positive*%
%FSLAX46Y46*%
G04 Gerber Fmt 4.6, Leading zero omitted, Abs format (unit mm)*
G04 Created by KiCad (PCBNEW 10.0.1) date 2026-07-17 19:56:13*
%MOMM*%
%LPD*%
G01*
G04 APERTURE LIST*
G04 Aperture macros list*
%AMRoundRect*
0 Rectangle with rounded corners*
0 $1 Rounding radius*
0 $2 $3 $4 $5 $6 $7 $8 $9 X,Y pos of 4 corners*
0 Add a 4 corners polygon primitive as box body*
4,1,4,$2,$3,$4,$5,$6,$7,$8,$9,$2,$3,0*
0 Add four circle primitives for the rounded corners*
1,1,$1+$1,$2,$3*
1,1,$1+$1,$4,$5*
1,1,$1+$1,$6,$7*
1,1,$1+$1,$8,$9*
0 Add four rect primitives between the rounded corners*
20,1,$1+$1,$2,$3,$4,$5,0*
20,1,$1+$1,$4,$5,$6,$7,0*
20,1,$1+$1,$6,$7,$8,$9,0*
20,1,$1+$1,$8,$9,$2,$3,0*%
%AMFreePoly0*
4,1,23,0.550000,-0.750000,0.000000,-0.750000,0.000000,-0.745722,-0.065263,-0.745722,-0.191342,-0.711940,-0.304381,-0.646677,-0.396677,-0.554381,-0.461940,-0.441342,-0.495722,-0.315263,-0.495722,-0.250000,-0.500000,-0.250000,-0.500000,0.250000,-0.495722,0.250000,-0.495722,0.315263,-0.461940,0.441342,-0.396677,0.554381,-0.304381,0.646677,-0.191342,0.711940,-0.065263,0.745722,0.000000,0.745722,
0.000000,0.750000,0.550000,0.750000,0.550000,-0.750000,0.550000,-0.750000,$1*%
%AMFreePoly1*
4,1,23,0.000000,0.745722,0.065263,0.745722,0.191342,0.711940,0.304381,0.646677,0.396677,0.554381,0.461940,0.441342,0.495722,0.315263,0.495722,0.250000,0.500000,0.250000,0.500000,-0.250000,0.495722,-0.250000,0.495722,-0.315263,0.461940,-0.441342,0.396677,-0.554381,0.304381,-0.646677,0.191342,-0.711940,0.065263,-0.745722,0.000000,-0.745722,0.000000,-0.750000,-0.550000,-0.750000,
-0.550000,0.750000,0.000000,0.750000,0.000000,0.745722,0.000000,0.745722,$1*%
G04 Aperture macros list end*
%TA.AperFunction,EtchedComponent*%
%ADD10C,0.000000*%
%TD*%
%TA.AperFunction,ComponentPad*%
%ADD11R,1.700000X1.700000*%
%TD*%
%TA.AperFunction,ComponentPad*%
%ADD12C,1.700000*%
%TD*%
%TA.AperFunction,ComponentPad*%
%ADD13RoundRect,0.250000X-0.550000X-0.550000X0.550000X-0.550000X0.550000X0.550000X-0.550000X0.550000X0*%
%TD*%
%TA.AperFunction,ComponentPad*%
%ADD14C,1.600000*%
%TD*%
%TA.AperFunction,SMDPad,CuDef*%
%ADD15FreePoly0,90.000000*%
%TD*%
%TA.AperFunction,SMDPad,CuDef*%
%ADD16R,1.500000X1.000000*%
%TD*%
%TA.AperFunction,SMDPad,CuDef*%
%ADD17FreePoly1,90.000000*%
%TD*%
%TA.AperFunction,SMDPad,CuDef*%
%ADD18RoundRect,0.225000X-0.225000X-0.250000X0.225000X-0.250000X0.225000X0.250000X-0.225000X0.250000X0*%
%TD*%
%TA.AperFunction,SMDPad,CuDef*%
%ADD19R,0.380000X1.870000*%
%TD*%
%TA.AperFunction,ViaPad*%
%ADD20C,0.800000*%
%TD*%
%TA.AperFunction,Conductor*%
%ADD21C,0.400000*%
%TD*%
%TA.AperFunction,Conductor*%
%ADD22C,0.500000*%
%TD*%
%TA.AperFunction,Conductor*%
%ADD23C,0.250000*%
%TD*%
G04 APERTURE END LIST*
D10*
%TA.AperFunction,EtchedComponent*%
%TO.C,JP1*%
G36*
X84051732Y-44322348D02*
G01*
X83451732Y-44322348D01*
X83451732Y-43822348D01*
X84051732Y-43822348D01*
X84051732Y-44322348D01*
G37*
%TD.AperFunction*%
%TD*%
D11*
%TO.P,J1,1,Pin_1_1*%
%TO.N,/TCK*%
X80523000Y-71623000D03*
D12*
%TO.P,J1,2,Pin_2_2*%
%TO.N,GND*%
X80523000Y-69083000D03*
%TO.P,J1,3,Pin_3_3*%
%TO.N,/TDO*%
X83063000Y-71623000D03*
%TO.P,J1,4,Pin_4_4*%
%TO.N,+3.3V*%
X83063000Y-69083000D03*
%TO.P,J1,5,Pin_5_5*%
%TO.N,/TMS*%
X85603000Y-71623000D03*
%TO.P,J1,6,Pin_6_6*%
%TO.N,unconnected-(J1-Pin_6-Pad6)*%
X85603000Y-69083000D03*
%TO.P,J1,7,Pin_7_7*%
%TO.N,unconnected-(J1-Pin_7-Pad7)*%
X88143000Y-71623000D03*
%TO.P,J1,8,Pin_8_8*%
%TO.N,unconnected-(J1-Pin_8-Pad8)*%
X88143000Y-69083000D03*
%TO.P,J1,9,Pin_9_9*%
%TO.N,/TDI*%
X90683000Y-71623000D03*
%TO.P,J1,10,Pin_10_10*%
%TO.N,GND*%
X90683000Y-69083000D03*
%TD*%
D13*
%TO.P,IC6,1,GND_1*%
%TO.N,GND*%
X77983000Y-39873000D03*
D14*
%TO.P,IC6,2,A0_2*%
%TO.N,/A0*%
X77983000Y-42413000D03*
%TO.P,IC6,3,CS_3*%
%TO.N,/~{CS}*%
X77983000Y-44953000D03*
%TO.P,IC6,4,1MHz_CLK_4*%
%TO.N,/1MHz_CLK*%
X77983000Y-47493000D03*
%TO.P,IC6,5,2MHz_CLK_5*%
%TO.N,/2MHz_CLK*%
X77983000Y-50033000D03*
%TO.P,IC6,6,4MHz_CLK_6*%
%TO.N,/4MHz_CLK*%
X77983000Y-52573000D03*
%TO.P,IC6,7,8MHz_CLK_7*%
%TO.N,/8MHz_CLK*%
X77983000Y-55113000D03*
%TO.P,IC6,8,16MHz_CLK_8*%
%TO.N,/16MHz_CLK*%
X77983000Y-57653000D03*
%TO.P,IC6,9,R_IN_9*%
%TO.N,/R_IN*%
X77983000Y-60193000D03*
%TO.P,IC6,10,R_10*%
%TO.N,/R*%
X77983000Y-62733000D03*
%TO.P,IC6,11,G_IN_11*%
%TO.N,/G_IN*%
X77983000Y-65273000D03*
%TO.P,IC6,12,G_12*%
%TO.N,/G*%
X77983000Y-67813000D03*
%TO.P,IC6,13,B_IN_13*%
%TO.N,/B_IN*%
X77983000Y-70353000D03*
%TO.P,IC6,14,B_14*%
%TO.N,/B*%
X77983000Y-72893000D03*
%TO.P,IC6,15*%
%TO.N,unconnected-(IC6-Pad15)*%
X93223000Y-72893000D03*
%TO.P,IC6,16,VCC_16*%
%TO.N,+5V*%
X93223000Y-70353000D03*
%TO.P,IC6,17,D0_17*%
%TO.N,/D0*%
X93223000Y-67813000D03*
%TO.P,IC6,18,D1_18*%
%TO.N,/D1*%
X93223000Y-65273000D03*
%TO.P,IC6,19,D2_19*%
%TO.N,/D2*%
X93223000Y-62733000D03*
%TO.P,IC6,20,D3_20*%
%TO.N,/D3*%
X93223000Y-60193000D03*
%TO.P,IC6,21,D4_21*%
%TO.N,/D4*%
X93223000Y-57653000D03*
%TO.P,IC6,22,D5_22*%
%TO.N,/D5*%
X93223000Y-55113000D03*
%TO.P,IC6,23,D6_23*%
%TO.N,/D6*%
X93223000Y-52573000D03*
%TO.P,IC6,24,D7_24*%
%TO.N,/D7*%
X93223000Y-50033000D03*
%TO.P,IC6,25,CURSOR_25*%
%TO.N,/CURSOR*%
X93223000Y-47493000D03*
%TO.P,IC6,26,DISEN_26*%
%TO.N,/DISEN*%
X93223000Y-44953000D03*
%TO.P,IC6,27*%
%TO.N,unconnected-(IC6-Pad27)*%
X93223000Y-42413000D03*
%TO.P,IC6,28,CRTC_CLK_28*%
%TO.N,/CRTC_CLK*%
X93223000Y-39873000D03*
%TD*%
D11*
%TO.P,J2,1,Pin_1_1*%
%TO.N,/6MHz_CLK*%
X80523000Y-48763000D03*
%TD*%
D15*
%TO.P,JP1,1,A_1*%
%TO.N,/48MHz_CLK*%
X83751732Y-44722348D03*
D16*
%TO.P,JP1,2,C_2*%
%TO.N,/16_48MHz_CLK*%
X83751732Y-43422348D03*
D17*
%TO.P,JP1,3,B_3*%
%TO.N,/16MHz_CLK*%
X83751732Y-42122348D03*
%TD*%
D18*
%TO.P,C6,1*%
%TO.N,+5V*%
X87802732Y-62599348D03*
%TO.P,C6,2*%
%TO.N,GND*%
X89352732Y-62599348D03*
%TD*%
D19*
%TO.P,U3,1,A14_1*%
%TO.N,GND*%
X85836000Y-60367000D03*
%TO.P,U3,2,A12_2*%
X85286000Y-60367000D03*
%TO.P,U3,3,A7_3*%
%TO.N,/RAM_A3*%
X84736000Y-60367000D03*
%TO.P,U3,4,A6_4*%
%TO.N,/RAM_A2*%
X84186000Y-60367000D03*
%TO.P,U3,5,A5_5*%
%TO.N,/RAM_A1*%
X83636000Y-60367000D03*
%TO.P,U3,6,A4_6*%
%TO.N,/RAM_A0*%
X83086000Y-60367000D03*
%TO.P,U3,7,A3_7*%
%TO.N,GND*%
X82536000Y-60367000D03*
%TO.P,U3,8,A2_8*%
X82536000Y-47827000D03*
%TO.P,U3,9,A1_9*%
X83086000Y-47827000D03*
%TO.P,U3,10,A0_10*%
X83636000Y-47827000D03*
%TO.P,U3,11,Q0_11*%
%TO.N,Net-(RN1-R4.2)*%
X84186000Y-47827000D03*
%TO.P,U3,12,Q1_12*%
%TO.N,Net-(RN1-R3.2)*%
X84736000Y-47827000D03*
%TO.P,U3,13,Q2_13*%
%TO.N,Net-(RN1-R2.2)*%
X85286000Y-47827000D03*
%TO.P,U3,14,GND_14*%
%TO.N,GND*%
X85836000Y-47827000D03*
%TO.P,U3,15,Q3_15*%
%TO.N,Net-(RN1-R1.2)*%
X86386000Y-47827000D03*
%TO.P,U3,16,Q4_16*%
%TO.N,/RAM_D3*%
X86936000Y-47827000D03*
%TO.P,U3,17,Q5_17*%
%TO.N,/RAM_D2*%
X87486000Y-47827000D03*
%TO.P,U3,18,Q6_18*%
%TO.N,/RAM_D1*%
X88036000Y-47827000D03*
%TO.P,U3,19,Q7_19*%
%TO.N,/RAM_D0*%
X88586000Y-47827000D03*
%TO.P,U3,20,~{CS}_20*%
%TO.N,GND*%
X89136000Y-47827000D03*
%TO.P,U3,21,A10_21*%
X89686000Y-47827000D03*
%TO.P,U3,22,~{OE}_22*%
X89686000Y-60367000D03*
%TO.P,U3,23,A11_23*%
X89136000Y-60367000D03*
%TO.P,U3,24,A9_24*%
X88586000Y-60367000D03*
%TO.P,U3,25,A8_25*%
X88036000Y-60367000D03*
%TO.P,U3,26,A13_26*%
X87486000Y-60367000D03*
%TO.P,U3,27,~{WE}_27*%
%TO.N,/RAM_~{WE}*%
X86936000Y-60367000D03*
%TO.P,U3,28,VCC_28*%
%TO.N,+5V*%
X86386000Y-60367000D03*
%TD*%
D20*
%TO.N,GND*%
X90065000Y-65266348D03*
X92461000Y-64003000D03*
X92461000Y-58923000D03*
X88069732Y-54852348D03*
X85529732Y-52827000D03*
%TO.N,/48MHz_CLK*%
X85096172Y-44170444D03*
%TO.N,/16_48MHz_CLK*%
X82532228Y-49433772D03*
%TO.N,GND*%
X78872000Y-51303000D03*
%TO.N,+3.3V*%
X86873000Y-68321000D03*
%TO.N,GND*%
X90529944Y-45245348D03*
%TO.N,+3.3V*%
X87839732Y-43766348D03*
X91196000Y-47892000D03*
%TO.N,GND*%
X82989732Y-52820348D03*
X90569000Y-50280348D03*
%TO.N,/CURSOR*%
X90569000Y-51550348D03*
%TO.N,/RAM_~{WE}*%
X87076001Y-53871348D03*
%TO.N,+5V*%
X89025732Y-43691348D03*
%TO.N,GND*%
X85937999Y-46274292D03*
X85529732Y-54852348D03*
X85514732Y-58662348D03*
%TO.N,+3.3V*%
X86291732Y-57138348D03*
%TO.N,/RAM_~{WE}*%
X87113000Y-58677348D03*
X86038304Y-49288858D03*
%TO.N,+3.3V*%
X88831732Y-57123348D03*
%TO.N,GND*%
X88069732Y-58916348D03*
%TO.N,/TDO*%
X89353620Y-58905723D03*
%TO.N,GND*%
X82331000Y-58923000D03*
X80441000Y-64511000D03*
X86659400Y-67036000D03*
%TO.N,+3.3V*%
X87041690Y-65030916D03*
%TO.N,/TCK*%
X79104496Y-61133502D03*
%TO.N,/TMS*%
X81285000Y-59926009D03*
%TO.N,/TDI*%
X81285000Y-58999006D03*
%TO.N,/RAM_D3*%
X89433561Y-53810628D03*
%TO.N,/RAM_D2*%
X89423410Y-52613998D03*
%TO.N,/RAM_D1*%
X88491000Y-52909054D03*
%TO.N,/RAM_D0*%
X88491000Y-51982051D03*
%TO.N,/CURSOR*%
X90118000Y-55621000D03*
%TO.N,/RAM_A3*%
X81230850Y-55254757D03*
%TO.N,/RAM_A2*%
X81272115Y-56218090D03*
%TO.N,/RAM_A0*%
X81285000Y-58072003D03*
%TO.N,/RAM_A1*%
X81285000Y-57145000D03*
%TO.N,Net-(RN1-R4.2)*%
X90228732Y-40120348D03*
%TO.N,Net-(RN1-R3.2)*%
X90228732Y-41047351D03*
%TO.N,Net-(RN1-R1.2)*%
X90228732Y-42914348D03*
%TO.N,Net-(RN1-R2.2)*%
X90228732Y-41987345D03*
%TD*%
%TO.N,GND*%
D21*
X89419975Y-54852348D02*
X90160561Y-54111762D01*
X88069732Y-54852348D02*
X89419975Y-54852348D01*
X85529732Y-58647348D02*
X85514732Y-58662348D01*
X85529732Y-54852348D02*
X85529732Y-58647348D01*
X85529732Y-52827000D02*
X85529732Y-54852348D01*
%TO.N,+5V*%
D22*
X90842000Y-58814902D02*
X89927446Y-57900348D01*
X90842000Y-67273000D02*
X90842000Y-58814902D01*
X89927446Y-57900348D02*
X91973000Y-55854794D01*
X89927446Y-57900348D02*
X86640000Y-57900348D01*
X86640000Y-57900348D02*
X86386000Y-58154348D01*
%TO.N,/TDO*%
D23*
X89853723Y-58905723D02*
X89353620Y-58905723D01*
X90150000Y-59202000D02*
X89853723Y-58905723D01*
X89413000Y-64996280D02*
X90150000Y-64259280D01*
X89413000Y-72014701D02*
X89413000Y-64996280D01*
X88629701Y-72798000D02*
X89413000Y-72014701D01*
X83063000Y-71623000D02*
X84238000Y-72798000D01*
X84238000Y-72798000D02*
X88629701Y-72798000D01*
X90150000Y-64259280D02*
X90150000Y-59202000D01*
%TO.N,+5V*%
D22*
X91151444Y-43691348D02*
X89025732Y-43691348D01*
X91973000Y-44512904D02*
X91151444Y-43691348D01*
X91973000Y-55854794D02*
X91973000Y-44512904D01*
X93223000Y-70353000D02*
X93223000Y-69654000D01*
X93223000Y-69654000D02*
X90842000Y-67273000D01*
%TO.N,GND*%
D21*
X90065000Y-68465000D02*
X90065000Y-65266348D01*
X90683000Y-69083000D02*
X90065000Y-68465000D01*
X92096000Y-63638000D02*
X92461000Y-64003000D01*
X92096000Y-59288000D02*
X92096000Y-63638000D01*
X92461000Y-58923000D02*
X92096000Y-59288000D01*
%TO.N,Net-(RN1-R4.2)*%
D23*
X85800732Y-44387952D02*
X84186000Y-46002684D01*
X85800732Y-43283805D02*
X85800732Y-44387952D01*
X84186000Y-46002684D02*
X84186000Y-47827000D01*
X90228732Y-40120348D02*
X88565732Y-41783348D01*
X88565732Y-41783348D02*
X87301187Y-41783348D01*
X87301187Y-41783348D02*
X85800732Y-43283805D01*
%TO.N,Net-(RN1-R3.2)*%
X86177732Y-44544110D02*
X84736000Y-45985842D01*
X86177732Y-43439963D02*
X86177732Y-44544110D01*
X84736000Y-45985842D02*
X84736000Y-47827000D01*
X89627735Y-41690265D02*
X89157652Y-42160348D01*
X89157652Y-42160348D02*
X87457346Y-42160348D01*
X90228732Y-41047351D02*
X89627735Y-41648348D01*
X89627735Y-41648348D02*
X89627735Y-41690265D01*
X87457346Y-42160348D02*
X86177732Y-43439963D01*
%TO.N,Net-(RN1-R2.2)*%
X85286000Y-45969000D02*
X85286000Y-47827000D01*
X86554732Y-43596122D02*
X86554732Y-44700268D01*
X86554732Y-44700268D02*
X85286000Y-45969000D01*
X87613505Y-42537348D02*
X86554732Y-43596122D01*
X89678729Y-42537348D02*
X87613505Y-42537348D01*
X90228732Y-41987345D02*
X89678729Y-42537348D01*
%TO.N,Net-(RN1-R1.2)*%
X86931732Y-46202627D02*
X86386000Y-46748359D01*
X86386000Y-46748359D02*
X86386000Y-47827000D01*
X87769664Y-42914348D02*
X86931732Y-43752280D01*
X86931732Y-43752280D02*
X86931732Y-46202627D01*
X90228732Y-42914348D02*
X87769664Y-42914348D01*
%TO.N,GND*%
D21*
X85529732Y-54852348D02*
X88069732Y-54852348D01*
X85529732Y-51920080D02*
X85529732Y-52827000D01*
X79110000Y-51065000D02*
X78872000Y-51303000D01*
X79110000Y-41946181D02*
X79110000Y-51065000D01*
X77983000Y-40819181D02*
X79110000Y-41946181D01*
X77983000Y-39873000D02*
X77983000Y-40819181D01*
%TO.N,/48MHz_CLK*%
D23*
X84544268Y-44722348D02*
X85096172Y-44170444D01*
X83751732Y-44722348D02*
X84544268Y-44722348D01*
%TO.N,/16MHz_CLK*%
X81707000Y-43713080D02*
X83297732Y-42122348D01*
X81707000Y-50316159D02*
X81707000Y-43713080D01*
X79035000Y-56601000D02*
X79035000Y-52988159D01*
X77983000Y-57653000D02*
X79035000Y-56601000D01*
%TO.N,/16_48MHz_CLK*%
X82751732Y-43422348D02*
X83751732Y-43422348D01*
X82084000Y-44090080D02*
X82751732Y-43422348D01*
X82532228Y-49433772D02*
X82084000Y-48985544D01*
X82084000Y-48985544D02*
X82084000Y-44090080D01*
%TO.N,+3.3V*%
D22*
X87436400Y-67757600D02*
X87436400Y-65425626D01*
X86873000Y-68321000D02*
X87436400Y-67757600D01*
X87436400Y-65425626D02*
X87041690Y-65030916D01*
%TO.N,/TDI*%
D23*
X81147407Y-58999006D02*
X81285000Y-58999006D01*
X79791000Y-60355413D02*
X81147407Y-58999006D01*
X79791000Y-61369066D02*
X79791000Y-60355413D01*
X79412000Y-61748066D02*
X79791000Y-61369066D01*
X79412000Y-69530464D02*
X79412000Y-61748066D01*
X81457000Y-70353000D02*
X80234536Y-70353000D01*
X81793000Y-72893000D02*
X81793000Y-70689000D01*
X81793000Y-70689000D02*
X81457000Y-70353000D01*
X82148000Y-73248000D02*
X81793000Y-72893000D01*
X89058000Y-73248000D02*
X82148000Y-73248000D01*
X80234536Y-70353000D02*
X79412000Y-69530464D01*
X90683000Y-71623000D02*
X89058000Y-73248000D01*
%TO.N,/TMS*%
X83519464Y-67981000D02*
X84333000Y-68794536D01*
X84333000Y-68794536D02*
X84333000Y-70353000D01*
X84333000Y-70353000D02*
X85603000Y-71623000D01*
X79789000Y-67811000D02*
X79959000Y-67981000D01*
X79959000Y-67981000D02*
X83519464Y-67981000D01*
X80168000Y-61525224D02*
X79789000Y-61904224D01*
X80168000Y-60511571D02*
X80168000Y-61525224D01*
X79789000Y-61904224D02*
X79789000Y-67811000D01*
X80753562Y-59926009D02*
X80168000Y-60511571D01*
X81285000Y-59926009D02*
X80753562Y-59926009D01*
%TO.N,+3.3V*%
D22*
X91346000Y-48042000D02*
X91196000Y-47892000D01*
X91346000Y-55595082D02*
X91346000Y-48042000D01*
%TO.N,GND*%
D21*
X89352732Y-62599348D02*
X89352732Y-62043616D01*
X89352732Y-62043616D02*
X89686000Y-61710348D01*
X90469000Y-45306292D02*
X90529944Y-45245348D01*
X90469000Y-50180348D02*
X90469000Y-45306292D01*
X90569000Y-50280348D02*
X90469000Y-50180348D01*
X89686000Y-46089292D02*
X90529944Y-45245348D01*
X89686000Y-47827000D02*
X89686000Y-46089292D01*
%TO.N,+3.3V*%
D22*
X89817734Y-57123348D02*
X88831732Y-57123348D01*
X91041732Y-44468348D02*
X91346000Y-44772616D01*
X87839732Y-43766348D02*
X88541732Y-44468348D01*
X91346000Y-44772616D02*
X91346000Y-47942114D01*
X88541732Y-44468348D02*
X91041732Y-44468348D01*
X91346000Y-55595082D02*
X89817734Y-57123348D01*
%TO.N,GND*%
D21*
X85529732Y-51920080D02*
X83636000Y-50026348D01*
%TO.N,/RAM_~{WE}*%
D23*
X87076001Y-53482439D02*
X87076001Y-53871348D01*
X86559000Y-52965438D02*
X87076001Y-53482439D01*
X86038304Y-49518920D02*
X86559000Y-50039616D01*
X86559000Y-50039616D02*
X86559000Y-52965438D01*
X86038304Y-49288858D02*
X86038304Y-49518920D01*
%TO.N,GND*%
D21*
X90160561Y-52323015D02*
X90160561Y-54111762D01*
X89136000Y-51298454D02*
X90160561Y-52323015D01*
X89136000Y-47827000D02*
X89136000Y-51298454D01*
%TO.N,/CURSOR*%
D23*
X90569000Y-51550348D02*
X90844000Y-51825348D01*
X90844000Y-51825348D02*
X90844000Y-54895000D01*
%TO.N,GND*%
D21*
X83636000Y-47827000D02*
X83636000Y-50026348D01*
X82536000Y-47827000D02*
X83636000Y-47827000D01*
X85836000Y-46376291D02*
X85937999Y-46274292D01*
X85836000Y-47827000D02*
X85836000Y-46376291D01*
X85286000Y-60367000D02*
X85836000Y-60367000D01*
X85286000Y-58891080D02*
X85514732Y-58662348D01*
X85286000Y-60367000D02*
X85286000Y-58891080D01*
%TO.N,+3.3V*%
D22*
X88801732Y-57153348D02*
X88831732Y-57123348D01*
X86306732Y-57153348D02*
X88801732Y-57153348D01*
X86291732Y-57138348D02*
X86306732Y-57153348D01*
%TO.N,/RAM_~{WE}*%
D23*
X87113000Y-58677348D02*
X86936000Y-58854348D01*
X86936000Y-58854348D02*
X86936000Y-60367000D01*
%TO.N,GND*%
D21*
X82536000Y-62416000D02*
X80955652Y-63996348D01*
X82536000Y-60367000D02*
X82536000Y-62416000D01*
X89686000Y-60367000D02*
X87486000Y-60367000D01*
X89686000Y-60367000D02*
X89686000Y-61710348D01*
X89352732Y-63475348D02*
X89352732Y-62599348D01*
X80955652Y-63996348D02*
X88831732Y-63996348D01*
X80441000Y-64511000D02*
X80955652Y-63996348D01*
X88831732Y-63996348D02*
X89352732Y-63475348D01*
X82536000Y-59128000D02*
X82331000Y-58923000D01*
X82536000Y-60367000D02*
X82536000Y-59128000D01*
%TO.N,+5V*%
X86386000Y-60367000D02*
X86386000Y-58154348D01*
%TO.N,GND*%
X87486000Y-59500080D02*
X88069732Y-58916348D01*
X87486000Y-60367000D02*
X87486000Y-59500080D01*
%TO.N,+5V*%
X87389348Y-62599348D02*
X87802732Y-62599348D01*
X86386000Y-60367000D02*
X86386000Y-61596000D01*
X86386000Y-61596000D02*
X87389348Y-62599348D01*
%TO.N,GND*%
X81061000Y-67051000D02*
X80299000Y-66289000D01*
X82282000Y-58972000D02*
X82331000Y-58923000D01*
X86644400Y-67051000D02*
X86659400Y-67036000D01*
X80299000Y-64653000D02*
X80441000Y-64511000D01*
X80299000Y-66289000D02*
X80299000Y-64653000D01*
X81061000Y-67051000D02*
X86644400Y-67051000D01*
%TO.N,/TCK*%
D23*
X79035000Y-70135000D02*
X79035000Y-61202998D01*
X79035000Y-61202998D02*
X79104496Y-61133502D01*
X80523000Y-71623000D02*
X79035000Y-70135000D01*
%TO.N,/RAM_D3*%
X86936000Y-52809280D02*
X88090815Y-53964095D01*
X86936000Y-47827000D02*
X86936000Y-52809280D01*
X88090815Y-53964095D02*
X89280094Y-53964095D01*
%TO.N,/RAM_D2*%
X89423410Y-52898712D02*
X89423410Y-52613998D01*
X88220932Y-53561054D02*
X88761068Y-53561054D01*
X87462000Y-47851000D02*
X87462000Y-52802122D01*
X88761068Y-53561054D02*
X89423410Y-52898712D01*
X87462000Y-52802122D02*
X88220932Y-53561054D01*
%TO.N,/RAM_D1*%
X88036000Y-51514983D02*
X88036000Y-47827000D01*
X87839000Y-51711983D02*
X88036000Y-51514983D01*
X87839000Y-51711983D02*
X87839000Y-52257054D01*
X87839000Y-52257054D02*
X88491000Y-52909054D01*
%TO.N,/RAM_D0*%
X88586000Y-51887051D02*
X88586000Y-47827000D01*
X88491000Y-51982051D02*
X88586000Y-51887051D01*
%TO.N,/CURSOR*%
X90844000Y-54895000D02*
X90118000Y-55621000D01*
%TO.N,/RAM_A3*%
X81360141Y-55254757D02*
X81230850Y-55254757D01*
X84736000Y-58630616D02*
X81360141Y-55254757D01*
X84736000Y-60367000D02*
X84736000Y-58630616D01*
%TO.N,/RAM_A2*%
X84186000Y-60367000D02*
X84186000Y-58789616D01*
X84186000Y-58789616D02*
X81614474Y-56218090D01*
X81614474Y-56218090D02*
X81272115Y-56218090D01*
%TO.N,/RAM_A0*%
X83086000Y-58755932D02*
X82402071Y-58072003D01*
X82402071Y-58072003D02*
X81285000Y-58072003D01*
X83086000Y-60367000D02*
X83086000Y-58755932D01*
%TO.N,/RAM_A1*%
X83636000Y-58772774D02*
X82008226Y-57145000D01*
X83636000Y-60367000D02*
X83636000Y-58772774D01*
X82008226Y-57145000D02*
X81285000Y-57145000D01*
%TO.N,/16MHz_CLK*%
X79035000Y-52988159D02*
X81707000Y-50316159D01*
%TO.N,GND*%
D21*
X89136000Y-47827000D02*
X89686000Y-47827000D01*
%TD*%
%TA.AperFunction,Conductor*%
%TO.N,GND*%
G36*
X91798270Y-69844717D02*
G01*
X91798270Y-69844716D01*
X91837622Y-69790554D01*
X91934095Y-69601217D01*
X91999739Y-69399184D01*
X92039176Y-69341509D01*
X92103534Y-69314310D01*
X92172381Y-69326224D01*
X92205351Y-69349821D01*
X92384994Y-69529464D01*
X92418479Y-69590787D01*
X92413495Y-69660479D01*
X92400415Y-69686036D01*
X92288512Y-69853509D01*
X92288511Y-69853511D01*
X92209025Y-70045409D01*
X92209022Y-70045421D01*
X92168500Y-70249136D01*
X92168500Y-70456863D01*
X92209022Y-70660578D01*
X92209025Y-70660590D01*
X92288511Y-70852488D01*
X92288512Y-70852490D01*
X92403916Y-71025203D01*
X92403919Y-71025207D01*
X92550792Y-71172080D01*
X92550796Y-71172083D01*
X92723507Y-71287486D01*
X92723508Y-71287486D01*
X92723509Y-71287487D01*
X92723511Y-71287488D01*
X92909091Y-71364357D01*
X92915414Y-71366976D01*
X93119136Y-71407499D01*
X93119139Y-71407500D01*
X93119141Y-71407500D01*
X93326861Y-71407500D01*
X93326862Y-71407499D01*
X93530586Y-71366976D01*
X93722493Y-71287486D01*
X93895204Y-71172083D01*
X93909941Y-71157346D01*
X93980819Y-71086469D01*
X94042142Y-71052984D01*
X94111834Y-71057968D01*
X94167767Y-71099840D01*
X94192184Y-71165304D01*
X94192500Y-71174150D01*
X94192500Y-72071850D01*
X94172815Y-72138889D01*
X94120011Y-72184644D01*
X94050853Y-72194588D01*
X93987297Y-72165563D01*
X93980819Y-72159531D01*
X93895207Y-72073919D01*
X93895203Y-72073916D01*
X93722490Y-71958512D01*
X93722488Y-71958511D01*
X93530590Y-71879025D01*
X93530578Y-71879022D01*
X93326862Y-71838500D01*
X93326859Y-71838500D01*
X93119141Y-71838500D01*
X93119138Y-71838500D01*
X92915421Y-71879022D01*
X92915409Y-71879025D01*
X92723511Y-71958511D01*
X92723509Y-71958512D01*
X92550796Y-72073916D01*
X92550792Y-72073919D01*
X92403919Y-72220792D01*
X92403916Y-72220796D01*
X92288512Y-72393509D01*
X92288511Y-72393511D01*
X92209025Y-72585409D01*
X92209022Y-72585421D01*
X92168500Y-72789136D01*
X92168500Y-72996863D01*
X92209022Y-73200578D01*
X92209025Y-73200590D01*
X92288511Y-73392488D01*
X92288512Y-73392490D01*
X92403916Y-73565203D01*
X92403919Y-73565207D01*
X92489531Y-73650819D01*
X92523016Y-73712142D01*
X92518032Y-73781834D01*
X92476160Y-73837767D01*
X92410696Y-73862184D01*
X92401850Y-73862500D01*
X89172804Y-73862500D01*
X89105765Y-73842815D01*
X89060010Y-73790011D01*
X89050066Y-73720853D01*
X89079091Y-73657297D01*
X89137869Y-73619523D01*
X89140668Y-73618736D01*
X89184080Y-73607104D01*
X89184082Y-73607104D01*
X89197015Y-73603638D01*
X89204482Y-73601638D01*
X89291019Y-73551676D01*
X89361676Y-73481019D01*
X89361676Y-73481017D01*
X89371880Y-73470814D01*
X89371884Y-73470809D01*
X90157810Y-72684882D01*
X90219131Y-72651399D01*
X90283806Y-72654633D01*
X90306736Y-72662084D01*
X90424361Y-72700303D01*
X90502847Y-72712734D01*
X90596074Y-72727500D01*
X90596075Y-72727500D01*
X90769925Y-72727500D01*
X90769926Y-72727500D01*
X90941638Y-72700303D01*
X90941641Y-72700302D01*
X90941642Y-72700302D01*
X91106978Y-72646581D01*
X91106978Y-72646580D01*
X91106981Y-72646580D01*
X91261884Y-72567653D01*
X91402533Y-72465465D01*
X91525465Y-72342533D01*
X91627653Y-72201884D01*
X91706580Y-72046981D01*
X91760303Y-71881638D01*
X91787500Y-71709926D01*
X91787500Y-71536074D01*
X91760303Y-71364362D01*
X91760302Y-71364358D01*
X91760302Y-71364357D01*
X91706581Y-71199021D01*
X91689401Y-71165304D01*
X91627653Y-71044116D01*
X91525465Y-70903467D01*
X91402533Y-70780535D01*
X91261884Y-70678347D01*
X91106981Y-70599420D01*
X91106980Y-70599419D01*
X91106975Y-70599417D01*
X91102478Y-70597554D01*
X91103073Y-70596115D01*
X91051069Y-70560539D01*
X91023884Y-70496174D01*
X91035813Y-70427331D01*
X91083069Y-70375865D01*
X91108762Y-70364134D01*
X91201221Y-70334093D01*
X91390554Y-70237622D01*
X91444716Y-70198270D01*
X91444717Y-70198270D01*
X90812409Y-69565962D01*
X90875993Y-69548925D01*
X90990007Y-69483099D01*
X91083099Y-69390007D01*
X91148925Y-69275993D01*
X91165962Y-69212409D01*
X91798270Y-69844717D01*
G37*
%TD.AperFunction*%
%TA.AperFunction,Conductor*%
G36*
X82661566Y-44151721D02*
G01*
X82717499Y-44193593D01*
X82741916Y-44259057D01*
X82742232Y-44267903D01*
X82742232Y-44788174D01*
X82751074Y-44855330D01*
X82751075Y-44855338D01*
X82785151Y-44982510D01*
X82811071Y-45045086D01*
X82811076Y-45045097D01*
X82876899Y-45159106D01*
X82918132Y-45212841D01*
X82918140Y-45212850D01*
X83011229Y-45305939D01*
X83011238Y-45305947D01*
X83064973Y-45347180D01*
X83064975Y-45347181D01*
X83178989Y-45413007D01*
X83241574Y-45438930D01*
X83368741Y-45473005D01*
X83435906Y-45481848D01*
X83870779Y-45481848D01*
X83937818Y-45501533D01*
X83983573Y-45554337D01*
X83993517Y-45623495D01*
X83964492Y-45687051D01*
X83958460Y-45693529D01*
X83882325Y-45769663D01*
X83882321Y-45769668D01*
X83833845Y-45853632D01*
X83833844Y-45853633D01*
X83832362Y-45856202D01*
X83832362Y-45856203D01*
X83806499Y-45952722D01*
X83806499Y-46052646D01*
X83806500Y-46052649D01*
X83806500Y-46070434D01*
X83806500Y-46679904D01*
X83786815Y-46746943D01*
X83785602Y-46748795D01*
X83756265Y-46792700D01*
X83756264Y-46792701D01*
X83741500Y-46866928D01*
X83741500Y-46866931D01*
X83741500Y-46866933D01*
X83741501Y-48787066D01*
X83754766Y-48853761D01*
X83756266Y-48861301D01*
X83805102Y-48934388D01*
X83825980Y-49001065D01*
X83826000Y-49003279D01*
X83826000Y-49262000D01*
X83873828Y-49262000D01*
X83873844Y-49261999D01*
X83933372Y-49255598D01*
X83933379Y-49255596D01*
X84068086Y-49205354D01*
X84068088Y-49205352D01*
X84183186Y-49119190D01*
X84183187Y-49119189D01*
X84222865Y-49066188D01*
X84223028Y-49066065D01*
X84223100Y-49065876D01*
X84250938Y-49045172D01*
X84278799Y-49024317D01*
X84279057Y-49024261D01*
X84279165Y-49024181D01*
X84280701Y-49023906D01*
X84313676Y-49016788D01*
X84317901Y-49016499D01*
X84401066Y-49016499D01*
X84444607Y-49007838D01*
X84452543Y-49007296D01*
X84462025Y-49009390D01*
X84485190Y-49009390D01*
X84520933Y-49016500D01*
X84951066Y-49016499D01*
X84966199Y-49013488D01*
X84986808Y-49009390D01*
X85019455Y-49007296D01*
X85027389Y-49007838D01*
X85070933Y-49016500D01*
X85154106Y-49016499D01*
X85158323Y-49016788D01*
X85187282Y-49027485D01*
X85216905Y-49036183D01*
X85220901Y-49039903D01*
X85223864Y-49040998D01*
X85228065Y-49046573D01*
X85249133Y-49066188D01*
X85288805Y-49119182D01*
X85288810Y-49119187D01*
X85334115Y-49153103D01*
X85375986Y-49209037D01*
X85383804Y-49252370D01*
X85383804Y-49353325D01*
X85408953Y-49479761D01*
X85408956Y-49479770D01*
X85458290Y-49598875D01*
X85458291Y-49598877D01*
X85529920Y-49706077D01*
X85529923Y-49706081D01*
X85621080Y-49797238D01*
X85621084Y-49797241D01*
X85728282Y-49868869D01*
X85728283Y-49868869D01*
X85728284Y-49868870D01*
X85728286Y-49868871D01*
X85787837Y-49893537D01*
X85847393Y-49918206D01*
X85877288Y-49924152D01*
X85939197Y-49956535D01*
X85940778Y-49958088D01*
X86143181Y-50160491D01*
X86176666Y-50221814D01*
X86179500Y-50248172D01*
X86179500Y-52907863D01*
X86179499Y-52907881D01*
X86179499Y-52915476D01*
X86179499Y-53015400D01*
X86193727Y-53068498D01*
X86193726Y-53068498D01*
X86205360Y-53111915D01*
X86205363Y-53111922D01*
X86255321Y-53198453D01*
X86255325Y-53198458D01*
X86333046Y-53276179D01*
X86333052Y-53276184D01*
X86473527Y-53416659D01*
X86507012Y-53477982D01*
X86502028Y-53547674D01*
X86497342Y-53558058D01*
X86446653Y-53680435D01*
X86446650Y-53680444D01*
X86421501Y-53806880D01*
X86421501Y-53935815D01*
X86446650Y-54062251D01*
X86446653Y-54062260D01*
X86495987Y-54181365D01*
X86495988Y-54181367D01*
X86567617Y-54288567D01*
X86567620Y-54288571D01*
X86658777Y-54379728D01*
X86658781Y-54379731D01*
X86765979Y-54451359D01*
X86765980Y-54451359D01*
X86765981Y-54451360D01*
X86765983Y-54451361D01*
X86845386Y-54484250D01*
X86885090Y-54500696D01*
X86885092Y-54500696D01*
X86885097Y-54500698D01*
X87011533Y-54525847D01*
X87011537Y-54525848D01*
X87011538Y-54525848D01*
X87140465Y-54525848D01*
X87140466Y-54525847D01*
X87182613Y-54517464D01*
X87266904Y-54500698D01*
X87266907Y-54500696D01*
X87266912Y-54500696D01*
X87386023Y-54451359D01*
X87493221Y-54379731D01*
X87584384Y-54288568D01*
X87618284Y-54237832D01*
X87671895Y-54193028D01*
X87741220Y-54184321D01*
X87790766Y-54203950D01*
X87800642Y-54210617D01*
X87857796Y-54267771D01*
X87944333Y-54317733D01*
X87949103Y-54319011D01*
X88040853Y-54343596D01*
X88040854Y-54343596D01*
X88148373Y-54343596D01*
X88148389Y-54343595D01*
X89015518Y-54343595D01*
X89082557Y-54363280D01*
X89084410Y-54364494D01*
X89123530Y-54390634D01*
X89123544Y-54390642D01*
X89181357Y-54414588D01*
X89242650Y-54439976D01*
X89242652Y-54439976D01*
X89242657Y-54439978D01*
X89369093Y-54465127D01*
X89369097Y-54465128D01*
X89369098Y-54465128D01*
X89498025Y-54465128D01*
X89498026Y-54465127D01*
X89567246Y-54451359D01*
X89624464Y-54439978D01*
X89624467Y-54439976D01*
X89624472Y-54439976D01*
X89743583Y-54390639D01*
X89850781Y-54319011D01*
X89941944Y-54227848D01*
X90013572Y-54120650D01*
X90062909Y-54001539D01*
X90088061Y-53875091D01*
X90088061Y-53746165D01*
X90087836Y-53745037D01*
X90062911Y-53619724D01*
X90062908Y-53619715D01*
X90049346Y-53586974D01*
X90026016Y-53530648D01*
X90013574Y-53500610D01*
X90013573Y-53500608D01*
X90005195Y-53488070D01*
X89941944Y-53393408D01*
X89941941Y-53393404D01*
X89846474Y-53297937D01*
X89847654Y-53296756D01*
X89812835Y-53245628D01*
X89810973Y-53175783D01*
X89843156Y-53119854D01*
X89931793Y-53031218D01*
X90003421Y-52924020D01*
X90052758Y-52804909D01*
X90077910Y-52678461D01*
X90077910Y-52549535D01*
X90077685Y-52548407D01*
X90052760Y-52423094D01*
X90052757Y-52423085D01*
X90003423Y-52303980D01*
X90003422Y-52303978D01*
X89931793Y-52196778D01*
X89931790Y-52196774D01*
X89840633Y-52105617D01*
X89840629Y-52105614D01*
X89733429Y-52033985D01*
X89733427Y-52033984D01*
X89614322Y-51984650D01*
X89614313Y-51984647D01*
X89487877Y-51959498D01*
X89487873Y-51959498D01*
X89358947Y-51959498D01*
X89324390Y-51966371D01*
X89283259Y-51974553D01*
X89213668Y-51968324D01*
X89158491Y-51925461D01*
X89137452Y-51877126D01*
X89120350Y-51791147D01*
X89120347Y-51791138D01*
X89071013Y-51672033D01*
X89071012Y-51672031D01*
X89032781Y-51614815D01*
X88999383Y-51564831D01*
X88995518Y-51560121D01*
X88997174Y-51558761D01*
X88968334Y-51505943D01*
X88965500Y-51479585D01*
X88965500Y-49262000D01*
X89326000Y-49262000D01*
X89373821Y-49262000D01*
X89373828Y-49261999D01*
X89397741Y-49259428D01*
X89424259Y-49259428D01*
X89448171Y-49261999D01*
X89448179Y-49262000D01*
X89496000Y-49262000D01*
X89496000Y-46392000D01*
X89448167Y-46392000D01*
X89424253Y-46394571D01*
X89397747Y-46394571D01*
X89373832Y-46392000D01*
X89326000Y-46392000D01*
X89326000Y-49262000D01*
X88965500Y-49262000D01*
X88965500Y-48974096D01*
X88985185Y-48907057D01*
X88986398Y-48905205D01*
X89010341Y-48869372D01*
X89015734Y-48861301D01*
X89015734Y-48861299D01*
X89015735Y-48861299D01*
X89030499Y-48787071D01*
X89030500Y-48787067D01*
X89030499Y-46866934D01*
X89015734Y-46792699D01*
X88966897Y-46719611D01*
X88946020Y-46652935D01*
X88946000Y-46650721D01*
X88946000Y-46392000D01*
X88898155Y-46392000D01*
X88838627Y-46398401D01*
X88838620Y-46398403D01*
X88703913Y-46448645D01*
X88703906Y-46448649D01*
X88588814Y-46534808D01*
X88588807Y-46534814D01*
X88549133Y-46587812D01*
X88548970Y-46587933D01*
X88548899Y-46588124D01*
X88521007Y-46608865D01*
X88493198Y-46629683D01*
X88492939Y-46629738D01*
X88492833Y-46629818D01*
X88491315Y-46630089D01*
X88458322Y-46637211D01*
X88454081Y-46637500D01*
X88370934Y-46637501D01*
X88327401Y-46646159D01*
X88319457Y-46646702D01*
X88309981Y-46644609D01*
X88286815Y-46644609D01*
X88251069Y-46637500D01*
X87820936Y-46637500D01*
X87785187Y-46644610D01*
X87736815Y-46644609D01*
X87701070Y-46637500D01*
X87331966Y-46637500D01*
X87264927Y-46617815D01*
X87219172Y-46565011D01*
X87209228Y-46495853D01*
X87231570Y-46442815D01*
X87231344Y-46442685D01*
X87232383Y-46440885D01*
X87233596Y-46438006D01*
X87235400Y-46435653D01*
X87235408Y-46435646D01*
X87266274Y-46382185D01*
X87285371Y-46349108D01*
X87311233Y-46252589D01*
X87311233Y-46152665D01*
X87311233Y-46145070D01*
X87311232Y-46145052D01*
X87311232Y-44432364D01*
X87330917Y-44365325D01*
X87383721Y-44319570D01*
X87452879Y-44309626D01*
X87504122Y-44329261D01*
X87529710Y-44346359D01*
X87529711Y-44346359D01*
X87529712Y-44346360D01*
X87529714Y-44346361D01*
X87573712Y-44364585D01*
X87648821Y-44395696D01*
X87745234Y-44414873D01*
X87807143Y-44447257D01*
X87808722Y-44448809D01*
X88231962Y-44872049D01*
X88276475Y-44897748D01*
X88276474Y-44897748D01*
X88276477Y-44897749D01*
X88346996Y-44938464D01*
X88346997Y-44938465D01*
X88346999Y-44938465D01*
X88347002Y-44938467D01*
X88475313Y-44972848D01*
X88475314Y-44972848D01*
X88608151Y-44972848D01*
X90717500Y-44972848D01*
X90784539Y-44992533D01*
X90830294Y-45045337D01*
X90841500Y-45096848D01*
X90841500Y-47275429D01*
X90821815Y-47342468D01*
X90786397Y-47378527D01*
X90778780Y-47383617D01*
X90778773Y-47383623D01*
X90687619Y-47474776D01*
X90687616Y-47474780D01*
X90615987Y-47581980D01*
X90614561Y-47585425D01*
X90613329Y-47586953D01*
X90613114Y-47587356D01*
X90613037Y-47587315D01*
X90570720Y-47639828D01*
X90504426Y-47661893D01*
X90436726Y-47644614D01*
X90389116Y-47593476D01*
X90376000Y-47537972D01*
X90376000Y-46844172D01*
X90375999Y-46844155D01*
X90369598Y-46784627D01*
X90369596Y-46784620D01*
X90319354Y-46649913D01*
X90319350Y-46649906D01*
X90233190Y-46534812D01*
X90233187Y-46534809D01*
X90118093Y-46448649D01*
X90118086Y-46448645D01*
X89983379Y-46398403D01*
X89983372Y-46398401D01*
X89923844Y-46392000D01*
X89876000Y-46392000D01*
X89876000Y-49262000D01*
X89923828Y-49262000D01*
X89923844Y-49261999D01*
X89983372Y-49255598D01*
X89983379Y-49255596D01*
X90118086Y-49205354D01*
X90118093Y-49205350D01*
X90233187Y-49119190D01*
X90233190Y-49119187D01*
X90319350Y-49004093D01*
X90319354Y-49004086D01*
X90369596Y-48869379D01*
X90369598Y-48869372D01*
X90375999Y-48809844D01*
X90376000Y-48809827D01*
X90376000Y-48246027D01*
X90395685Y-48178988D01*
X90448489Y-48133233D01*
X90517647Y-48123289D01*
X90581203Y-48152314D01*
X90614562Y-48198578D01*
X90615989Y-48202022D01*
X90646117Y-48247111D01*
X90687616Y-48309219D01*
X90687619Y-48309223D01*
X90778776Y-48400380D01*
X90778780Y-48400383D01*
X90786386Y-48405465D01*
X90831194Y-48459075D01*
X90841500Y-48508570D01*
X90841500Y-50786134D01*
X90821815Y-50853173D01*
X90769011Y-50898928D01*
X90699853Y-50908872D01*
X90693310Y-50907752D01*
X90648947Y-50898928D01*
X90633463Y-50895848D01*
X90504537Y-50895848D01*
X90504532Y-50895848D01*
X90378096Y-50920997D01*
X90378087Y-50921000D01*
X90258982Y-50970334D01*
X90258980Y-50970335D01*
X90151780Y-51041964D01*
X90151776Y-51041967D01*
X90060619Y-51133124D01*
X90060616Y-51133128D01*
X89988987Y-51240328D01*
X89988986Y-51240330D01*
X89939652Y-51359435D01*
X89939649Y-51359444D01*
X89914500Y-51485880D01*
X89914500Y-51614815D01*
X89939649Y-51741251D01*
X89939652Y-51741260D01*
X89988986Y-51860365D01*
X89988987Y-51860367D01*
X90060616Y-51967567D01*
X90060619Y-51967571D01*
X90151776Y-52058728D01*
X90151780Y-52058731D01*
X90258978Y-52130359D01*
X90258979Y-52130359D01*
X90258980Y-52130360D01*
X90258982Y-52130361D01*
X90383717Y-52182027D01*
X90383090Y-52183538D01*
X90434922Y-52217495D01*
X90463388Y-52281303D01*
X90464500Y-52297872D01*
X90464500Y-54686443D01*
X90455855Y-54715883D01*
X90449332Y-54745870D01*
X90445577Y-54750885D01*
X90444815Y-54753482D01*
X90428181Y-54774124D01*
X90272124Y-54930181D01*
X90210801Y-54963666D01*
X90184443Y-54966500D01*
X90053532Y-54966500D01*
X89927096Y-54991649D01*
X89927087Y-54991652D01*
X89807982Y-55040986D01*
X89807980Y-55040987D01*
X89700780Y-55112616D01*
X89700776Y-55112619D01*
X89609619Y-55203776D01*
X89609616Y-55203780D01*
X89537987Y-55310980D01*
X89537986Y-55310982D01*
X89488652Y-55430087D01*
X89488649Y-55430096D01*
X89463500Y-55556532D01*
X89463500Y-55685467D01*
X89488649Y-55811903D01*
X89488652Y-55811912D01*
X89537986Y-55931017D01*
X89537987Y-55931019D01*
X89609616Y-56038219D01*
X89609619Y-56038223D01*
X89700776Y-56129380D01*
X89700780Y-56129383D01*
X89807978Y-56201011D01*
X89807979Y-56201011D01*
X89813043Y-56204395D01*
X89811489Y-56206720D01*
X89852784Y-56247210D01*
X89868307Y-56315333D01*
X89844536Y-56381035D01*
X89832224Y-56395386D01*
X89645080Y-56582530D01*
X89583760Y-56616014D01*
X89557401Y-56618848D01*
X89292379Y-56618848D01*
X89225340Y-56599163D01*
X89223488Y-56597950D01*
X89141751Y-56543335D01*
X89141749Y-56543334D01*
X89022644Y-56494000D01*
X89022635Y-56493997D01*
X88896199Y-56468848D01*
X88896195Y-56468848D01*
X88767269Y-56468848D01*
X88767264Y-56468848D01*
X88640828Y-56493997D01*
X88640819Y-56494000D01*
X88521714Y-56543334D01*
X88521712Y-56543335D01*
X88414512Y-56614964D01*
X88409802Y-56618830D01*
X88408442Y-56617173D01*
X88355624Y-56646014D01*
X88329266Y-56648848D01*
X86774828Y-56648848D01*
X86707789Y-56629163D01*
X86705937Y-56627950D01*
X86601751Y-56558335D01*
X86601749Y-56558334D01*
X86482644Y-56509000D01*
X86482635Y-56508997D01*
X86356199Y-56483848D01*
X86356195Y-56483848D01*
X86227269Y-56483848D01*
X86227264Y-56483848D01*
X86100828Y-56508997D01*
X86100819Y-56509000D01*
X85981714Y-56558334D01*
X85981712Y-56558335D01*
X85874512Y-56629964D01*
X85874508Y-56629967D01*
X85783351Y-56721124D01*
X85783348Y-56721128D01*
X85711719Y-56828328D01*
X85711718Y-56828330D01*
X85662384Y-56947435D01*
X85662381Y-56947444D01*
X85637232Y-57073880D01*
X85637232Y-57202815D01*
X85662381Y-57329251D01*
X85662384Y-57329260D01*
X85711718Y-57448365D01*
X85711719Y-57448367D01*
X85783348Y-57555567D01*
X85783351Y-57555571D01*
X85874508Y-57646728D01*
X85938156Y-57689257D01*
X85982960Y-57742870D01*
X85991667Y-57812195D01*
X85976652Y-57854358D01*
X85915881Y-57959617D01*
X85886851Y-58067961D01*
X85881501Y-58087929D01*
X85881501Y-58220767D01*
X85909485Y-58325204D01*
X85915881Y-58349076D01*
X85918992Y-58356587D01*
X85917522Y-58357195D01*
X85931500Y-58409355D01*
X85931500Y-61528551D01*
X85931499Y-61528569D01*
X85931499Y-61655836D01*
X85942824Y-61698103D01*
X85942825Y-61698103D01*
X85962474Y-61771435D01*
X86022306Y-61875066D01*
X86022311Y-61875072D01*
X86113995Y-61966756D01*
X86114001Y-61966761D01*
X87025655Y-62878415D01*
X87025657Y-62878418D01*
X87088161Y-62940922D01*
X87088168Y-62940936D01*
X87116659Y-62985267D01*
X87137294Y-63040590D01*
X87152557Y-63081511D01*
X87235188Y-63191892D01*
X87345568Y-63274522D01*
X87345569Y-63274523D01*
X87345571Y-63274524D01*
X87474754Y-63322706D01*
X87474753Y-63322706D01*
X87474759Y-63322708D01*
X87531868Y-63328848D01*
X87531878Y-63328848D01*
X88073586Y-63328848D01*
X88073596Y-63328848D01*
X88130705Y-63322708D01*
X88259895Y-63274523D01*
X88341642Y-63213327D01*
X88407104Y-63188910D01*
X88475378Y-63203761D01*
X88521490Y-63247495D01*
X88555160Y-63302081D01*
X88674999Y-63421920D01*
X88675003Y-63421923D01*
X88819239Y-63510890D01*
X88819250Y-63510895D01*
X88980125Y-63564203D01*
X89079415Y-63574347D01*
X89102732Y-63574346D01*
X89102732Y-62723348D01*
X89122417Y-62656309D01*
X89175221Y-62610554D01*
X89226732Y-62599348D01*
X89478732Y-62599348D01*
X89545771Y-62619033D01*
X89591526Y-62671837D01*
X89602732Y-62723348D01*
X89602732Y-63574347D01*
X89626040Y-63574347D01*
X89626054Y-63574346D01*
X89633898Y-63573545D01*
X89702591Y-63586315D01*
X89753475Y-63634195D01*
X89770500Y-63696903D01*
X89770500Y-64050723D01*
X89750815Y-64117762D01*
X89734181Y-64138404D01*
X89109325Y-64763259D01*
X89109321Y-64763264D01*
X89060845Y-64847228D01*
X89060844Y-64847229D01*
X89059362Y-64849798D01*
X89059362Y-64849799D01*
X89033499Y-64946318D01*
X89033499Y-65046242D01*
X89033500Y-65046245D01*
X89033500Y-65064030D01*
X89033500Y-68121386D01*
X89013815Y-68188425D01*
X88961011Y-68234180D01*
X88891853Y-68244124D01*
X88836614Y-68221704D01*
X88721884Y-68138347D01*
X88566978Y-68059418D01*
X88401641Y-68005697D01*
X88272854Y-67985299D01*
X88229926Y-67978500D01*
X88061107Y-67978500D01*
X87994068Y-67958815D01*
X87948313Y-67906011D01*
X87938369Y-67836853D01*
X87940718Y-67825398D01*
X87940900Y-67824017D01*
X87940900Y-65359209D01*
X87940900Y-65359207D01*
X87906519Y-65230896D01*
X87893610Y-65208537D01*
X87840101Y-65115856D01*
X87724151Y-64999906D01*
X87690666Y-64938583D01*
X87690237Y-64936528D01*
X87671038Y-64840005D01*
X87621701Y-64720894D01*
X87550073Y-64613696D01*
X87550070Y-64613692D01*
X87458913Y-64522535D01*
X87458909Y-64522532D01*
X87351709Y-64450903D01*
X87351707Y-64450902D01*
X87232602Y-64401568D01*
X87232593Y-64401565D01*
X87106157Y-64376416D01*
X87106153Y-64376416D01*
X86977227Y-64376416D01*
X86977222Y-64376416D01*
X86850786Y-64401565D01*
X86850777Y-64401568D01*
X86731672Y-64450902D01*
X86731670Y-64450903D01*
X86624470Y-64522532D01*
X86624466Y-64522535D01*
X86533309Y-64613692D01*
X86533306Y-64613696D01*
X86461677Y-64720896D01*
X86461676Y-64720898D01*
X86412342Y-64840003D01*
X86412339Y-64840012D01*
X86387190Y-64966448D01*
X86387190Y-65095383D01*
X86412339Y-65221819D01*
X86412342Y-65221828D01*
X86461676Y-65340933D01*
X86461677Y-65340935D01*
X86533306Y-65448135D01*
X86533309Y-65448139D01*
X86624466Y-65539296D01*
X86624470Y-65539299D01*
X86731668Y-65610927D01*
X86731669Y-65610927D01*
X86731670Y-65610928D01*
X86731672Y-65610929D01*
X86855352Y-65662158D01*
X86909756Y-65705998D01*
X86931821Y-65772292D01*
X86931900Y-65776719D01*
X86931900Y-67497267D01*
X86923255Y-67526704D01*
X86916732Y-67556695D01*
X86912977Y-67561710D01*
X86912215Y-67564306D01*
X86895580Y-67584949D01*
X86841989Y-67638539D01*
X86780666Y-67672023D01*
X86778500Y-67672474D01*
X86682096Y-67691649D01*
X86682087Y-67691652D01*
X86562982Y-67740986D01*
X86562980Y-67740987D01*
X86455780Y-67812616D01*
X86455776Y-67812619D01*
X86364619Y-67903776D01*
X86364616Y-67903780D01*
X86292988Y-68010979D01*
X86281395Y-68038966D01*
X86237552Y-68093368D01*
X86171258Y-68115431D01*
X86110540Y-68101995D01*
X86026978Y-68059418D01*
X85861641Y-68005697D01*
X85732854Y-67985299D01*
X85689926Y-67978500D01*
X85516074Y-67978500D01*
X85458836Y-67987565D01*
X85344360Y-68005697D01*
X85344357Y-68005697D01*
X85179021Y-68059418D01*
X85024115Y-68138347D01*
X84971584Y-68176514D01*
X84883467Y-68240535D01*
X84883465Y-68240537D01*
X84883464Y-68240537D01*
X84760536Y-68363465D01*
X84710410Y-68432458D01*
X84655079Y-68475123D01*
X84585466Y-68481102D01*
X84523671Y-68448496D01*
X84522411Y-68447253D01*
X83830210Y-67755052D01*
X83830208Y-67755049D01*
X83752484Y-67677325D01*
X83752479Y-67677321D01*
X83665949Y-67627363D01*
X83665946Y-67627362D01*
X83645548Y-67621896D01*
X83569426Y-67601499D01*
X83469502Y-67601499D01*
X83469498Y-67601500D01*
X80292500Y-67601500D01*
X80225461Y-67581815D01*
X80179706Y-67529011D01*
X80168500Y-67477500D01*
X80168500Y-62112780D01*
X80188185Y-62045741D01*
X80204819Y-62025099D01*
X80318068Y-61911850D01*
X80471676Y-61758243D01*
X80494319Y-61719024D01*
X80521638Y-61671706D01*
X80540427Y-61601584D01*
X80547501Y-61575186D01*
X80547501Y-61475262D01*
X80547501Y-61467667D01*
X80547500Y-61467649D01*
X80547500Y-60720126D01*
X80556144Y-60690685D01*
X80562668Y-60660699D01*
X80566422Y-60655683D01*
X80567185Y-60653087D01*
X80583810Y-60632454D01*
X80744327Y-60471937D01*
X80805646Y-60438455D01*
X80875337Y-60443439D01*
X80900895Y-60456519D01*
X80905083Y-60459317D01*
X80974978Y-60506020D01*
X80974979Y-60506020D01*
X80974980Y-60506021D01*
X80974982Y-60506022D01*
X81000984Y-60516792D01*
X81094089Y-60555357D01*
X81094091Y-60555357D01*
X81094096Y-60555359D01*
X81220532Y-60580508D01*
X81220536Y-60580509D01*
X81220537Y-60580509D01*
X81349464Y-60580509D01*
X81349465Y-60580508D01*
X81400742Y-60570309D01*
X81475903Y-60555359D01*
X81475906Y-60555357D01*
X81475911Y-60555357D01*
X81595022Y-60506020D01*
X81653109Y-60467206D01*
X81719786Y-60446329D01*
X81787167Y-60464813D01*
X81833857Y-60516792D01*
X81846000Y-60570309D01*
X81846000Y-61349844D01*
X81852401Y-61409372D01*
X81852403Y-61409379D01*
X81902645Y-61544086D01*
X81902649Y-61544093D01*
X81988809Y-61659187D01*
X81988812Y-61659190D01*
X82103906Y-61745350D01*
X82103913Y-61745354D01*
X82238620Y-61795596D01*
X82238627Y-61795598D01*
X82298155Y-61801999D01*
X82298172Y-61802000D01*
X82346000Y-61802000D01*
X82346000Y-58932000D01*
X82298155Y-58932000D01*
X82238627Y-58938401D01*
X82238617Y-58938403D01*
X82097396Y-58991075D01*
X82027705Y-58996059D01*
X81966382Y-58962573D01*
X81932898Y-58901250D01*
X81932447Y-58899084D01*
X81914350Y-58808102D01*
X81914347Y-58808093D01*
X81865013Y-58688988D01*
X81865012Y-58688986D01*
X81865011Y-58688984D01*
X81835215Y-58644392D01*
X81814339Y-58577716D01*
X81832824Y-58510336D01*
X81884803Y-58463646D01*
X81938319Y-58451503D01*
X82193515Y-58451503D01*
X82260554Y-58471188D01*
X82281196Y-58487822D01*
X82670181Y-58876807D01*
X82703666Y-58938130D01*
X82706500Y-58964488D01*
X82706500Y-59219904D01*
X82686815Y-59286943D01*
X82685602Y-59288795D01*
X82656265Y-59332700D01*
X82656264Y-59332701D01*
X82641500Y-59406928D01*
X82641500Y-59406931D01*
X82641500Y-59406933D01*
X82641501Y-61327066D01*
X82656265Y-61401296D01*
X82656266Y-61401301D01*
X82705102Y-61474388D01*
X82725980Y-61541065D01*
X82726000Y-61543279D01*
X82726000Y-61802000D01*
X82773828Y-61802000D01*
X82773844Y-61801999D01*
X82833372Y-61795598D01*
X82833379Y-61795596D01*
X82968086Y-61745354D01*
X82968088Y-61745352D01*
X83083186Y-61659190D01*
X83083187Y-61659189D01*
X83122865Y-61606188D01*
X83123028Y-61606065D01*
X83123100Y-61605876D01*
X83150938Y-61585172D01*
X83178799Y-61564317D01*
X83179057Y-61564261D01*
X83179165Y-61564181D01*
X83180701Y-61563906D01*
X83213676Y-61556788D01*
X83217901Y-61556499D01*
X83301066Y-61556499D01*
X83344607Y-61547838D01*
X83352543Y-61547296D01*
X83362025Y-61549390D01*
X83385190Y-61549390D01*
X83420933Y-61556500D01*
X83851066Y-61556499D01*
X83866199Y-61553488D01*
X83886808Y-61549390D01*
X83935190Y-61549390D01*
X83970933Y-61556500D01*
X84401066Y-61556499D01*
X84416199Y-61553488D01*
X84436808Y-61549390D01*
X84469455Y-61547296D01*
X84477389Y-61547838D01*
X84520933Y-61556500D01*
X84604106Y-61556499D01*
X84608323Y-61556788D01*
X84637282Y-61567485D01*
X84666905Y-61576183D01*
X84670901Y-61579903D01*
X84673864Y-61580998D01*
X84678065Y-61586573D01*
X84699133Y-61606188D01*
X84738805Y-61659182D01*
X84738814Y-61659191D01*
X84853906Y-61745350D01*
X84853913Y-61745354D01*
X84988620Y-61795596D01*
X84988627Y-61795598D01*
X85048155Y-61801999D01*
X85048172Y-61802000D01*
X85096000Y-61802000D01*
X85476000Y-61802000D01*
X85523821Y-61802000D01*
X85523828Y-61801999D01*
X85547741Y-61799428D01*
X85574259Y-61799428D01*
X85598171Y-61801999D01*
X85598179Y-61802000D01*
X85646000Y-61802000D01*
X85646000Y-58932000D01*
X85598167Y-58932000D01*
X85574253Y-58934571D01*
X85547747Y-58934571D01*
X85523832Y-58932000D01*
X85476000Y-58932000D01*
X85476000Y-61802000D01*
X85096000Y-61802000D01*
X85096000Y-61543279D01*
X85115685Y-61476240D01*
X85116898Y-61474388D01*
X85160336Y-61409379D01*
X85165734Y-61401301D01*
X85180500Y-61327067D01*
X85180499Y-59406934D01*
X85165734Y-59332699D01*
X85165733Y-59332697D01*
X85165732Y-59332695D01*
X85136398Y-59288794D01*
X85115520Y-59222117D01*
X85115500Y-59219903D01*
X85115500Y-58690580D01*
X85115501Y-58690567D01*
X85115501Y-58580656D01*
X85115501Y-58580654D01*
X85089639Y-58484135D01*
X85089242Y-58483448D01*
X85078767Y-58465304D01*
X85055867Y-58425641D01*
X85039676Y-58397597D01*
X84969019Y-58326940D01*
X84969016Y-58326938D01*
X81921669Y-55279591D01*
X81888184Y-55218268D01*
X81885350Y-55191910D01*
X81885350Y-55190293D01*
X81885349Y-55190289D01*
X81860200Y-55063853D01*
X81860197Y-55063844D01*
X81850729Y-55040987D01*
X81823542Y-54975350D01*
X81810863Y-54944739D01*
X81810862Y-54944737D01*
X81739233Y-54837537D01*
X81739230Y-54837533D01*
X81648073Y-54746376D01*
X81648069Y-54746373D01*
X81540869Y-54674744D01*
X81540867Y-54674743D01*
X81421762Y-54625409D01*
X81421753Y-54625406D01*
X81295317Y-54600257D01*
X81295313Y-54600257D01*
X81166387Y-54600257D01*
X81166382Y-54600257D01*
X81039946Y-54625406D01*
X81039937Y-54625409D01*
X80920832Y-54674743D01*
X80920830Y-54674744D01*
X80813630Y-54746373D01*
X80813626Y-54746376D01*
X80722469Y-54837533D01*
X80722466Y-54837537D01*
X80650837Y-54944737D01*
X80650836Y-54944739D01*
X80601502Y-55063844D01*
X80601499Y-55063853D01*
X80576350Y-55190289D01*
X80576350Y-55319224D01*
X80601499Y-55445660D01*
X80601502Y-55445669D01*
X80650836Y-55564774D01*
X80650837Y-55564776D01*
X80722466Y-55671976D01*
X80722469Y-55671980D01*
X80726872Y-55676383D01*
X80760357Y-55737706D01*
X80755373Y-55807398D01*
X80742293Y-55832955D01*
X80692102Y-55908070D01*
X80692101Y-55908072D01*
X80642767Y-56027177D01*
X80642764Y-56027186D01*
X80617615Y-56153622D01*
X80617615Y-56282557D01*
X80642764Y-56408993D01*
X80642767Y-56409002D01*
X80692101Y-56528107D01*
X80692105Y-56528114D01*
X80755035Y-56622296D01*
X80775913Y-56688973D01*
X80757428Y-56756353D01*
X80755036Y-56760075D01*
X80704989Y-56834977D01*
X80704986Y-56834982D01*
X80655652Y-56954087D01*
X80655649Y-56954096D01*
X80630500Y-57080532D01*
X80630500Y-57209467D01*
X80655649Y-57335903D01*
X80655652Y-57335912D01*
X80704986Y-57455017D01*
X80704987Y-57455019D01*
X80761509Y-57539610D01*
X80782387Y-57606288D01*
X80763902Y-57673668D01*
X80761510Y-57677391D01*
X80704986Y-57761985D01*
X80655652Y-57881090D01*
X80655649Y-57881099D01*
X80630500Y-58007535D01*
X80630500Y-58136470D01*
X80655649Y-58262906D01*
X80655652Y-58262915D01*
X80704986Y-58382020D01*
X80704987Y-58382022D01*
X80761509Y-58466613D01*
X80782387Y-58533291D01*
X80763902Y-58600671D01*
X80761510Y-58604394D01*
X80704986Y-58688988D01*
X80655652Y-58808093D01*
X80655649Y-58808102D01*
X80630499Y-58934543D01*
X80629966Y-58939955D01*
X80603801Y-59004740D01*
X80594245Y-59015473D01*
X79487325Y-60122392D01*
X79487321Y-60122397D01*
X79438425Y-60207088D01*
X79438424Y-60207090D01*
X79437362Y-60208931D01*
X79437362Y-60208932D01*
X79411499Y-60305451D01*
X79411499Y-60385458D01*
X79410110Y-60394660D01*
X79399139Y-60418241D01*
X79391814Y-60443190D01*
X79384642Y-60449404D01*
X79380639Y-60458010D01*
X79358660Y-60471917D01*
X79339010Y-60488945D01*
X79329617Y-60490295D01*
X79321597Y-60495371D01*
X79295589Y-60495188D01*
X79269852Y-60498889D01*
X79263309Y-60497769D01*
X79204517Y-60486075D01*
X79168959Y-60479002D01*
X79152364Y-60479002D01*
X79085325Y-60459317D01*
X79039570Y-60406513D01*
X79029626Y-60337355D01*
X79030747Y-60330810D01*
X79037500Y-60296861D01*
X79037500Y-60089138D01*
X79037499Y-60089136D01*
X78996977Y-59885421D01*
X78996976Y-59885414D01*
X78952500Y-59778038D01*
X78917488Y-59693511D01*
X78917487Y-59693509D01*
X78828427Y-59560223D01*
X78802083Y-59520796D01*
X78802080Y-59520792D01*
X78655207Y-59373919D01*
X78655203Y-59373916D01*
X78482490Y-59258512D01*
X78482488Y-59258511D01*
X78290590Y-59179025D01*
X78290578Y-59179022D01*
X78086862Y-59138500D01*
X78086859Y-59138500D01*
X77879141Y-59138500D01*
X77879138Y-59138500D01*
X77675421Y-59179022D01*
X77675409Y-59179025D01*
X77483511Y-59258511D01*
X77483509Y-59258512D01*
X77310796Y-59373916D01*
X77310792Y-59373919D01*
X77225181Y-59459531D01*
X77163858Y-59493016D01*
X77094166Y-59488032D01*
X77038233Y-59446160D01*
X77013816Y-59380696D01*
X77013500Y-59371850D01*
X77013500Y-58474150D01*
X77033185Y-58407111D01*
X77085989Y-58361356D01*
X77155147Y-58351412D01*
X77218703Y-58380437D01*
X77225181Y-58386469D01*
X77310792Y-58472080D01*
X77310796Y-58472083D01*
X77483507Y-58587486D01*
X77483508Y-58587486D01*
X77483509Y-58587487D01*
X77483511Y-58587488D01*
X77562418Y-58620172D01*
X77675414Y-58666976D01*
X77879136Y-58707499D01*
X77879139Y-58707500D01*
X77879141Y-58707500D01*
X78086861Y-58707500D01*
X78086862Y-58707499D01*
X78290586Y-58666976D01*
X78482493Y-58587486D01*
X78655204Y-58472083D01*
X78802083Y-58325204D01*
X78917486Y-58152493D01*
X78996976Y-57960586D01*
X79037500Y-57756859D01*
X79037500Y-57549141D01*
X79037500Y-57549138D01*
X79037499Y-57549136D01*
X78996977Y-57345421D01*
X78996976Y-57345414D01*
X78978978Y-57301964D01*
X78971510Y-57232498D01*
X79002784Y-57170019D01*
X79005831Y-57166861D01*
X79257809Y-56914884D01*
X79257814Y-56914880D01*
X79268017Y-56904676D01*
X79268019Y-56904676D01*
X79338676Y-56834019D01*
X79388638Y-56747482D01*
X79403906Y-56690500D01*
X79414501Y-56650962D01*
X79414501Y-56551038D01*
X79414500Y-56551034D01*
X79414500Y-53196714D01*
X79434185Y-53129675D01*
X79450814Y-53109038D01*
X81929809Y-50630042D01*
X81929814Y-50630039D01*
X81940017Y-50619835D01*
X81940019Y-50619835D01*
X82010676Y-50549178D01*
X82060638Y-50462641D01*
X82066103Y-50442243D01*
X82086501Y-50366121D01*
X82086501Y-50266197D01*
X82086500Y-50266193D01*
X82086500Y-50143150D01*
X82106185Y-50076111D01*
X82158989Y-50030356D01*
X82228147Y-50020412D01*
X82257947Y-50028587D01*
X82341317Y-50063120D01*
X82341320Y-50063120D01*
X82341324Y-50063122D01*
X82467760Y-50088271D01*
X82467764Y-50088272D01*
X82467765Y-50088272D01*
X82596692Y-50088272D01*
X82596693Y-50088271D01*
X82657829Y-50076111D01*
X82723131Y-50063122D01*
X82723134Y-50063120D01*
X82723139Y-50063120D01*
X82842250Y-50013783D01*
X82949448Y-49942155D01*
X83040611Y-49850992D01*
X83112239Y-49743794D01*
X83161576Y-49624683D01*
X83186728Y-49498235D01*
X83186728Y-49386000D01*
X83188125Y-49381241D01*
X83187101Y-49376389D01*
X83197871Y-49348048D01*
X83206413Y-49318961D01*
X83210160Y-49315713D01*
X83211923Y-49311077D01*
X83236309Y-49293055D01*
X83259217Y-49273206D01*
X83265214Y-49271695D01*
X83268114Y-49269552D01*
X83287015Y-49266202D01*
X83302647Y-49262264D01*
X83352919Y-49258981D01*
X83354914Y-49259428D01*
X83374259Y-49259428D01*
X83398171Y-49261999D01*
X83398179Y-49262000D01*
X83446000Y-49262000D01*
X83446000Y-48017000D01*
X82660000Y-48017000D01*
X82592961Y-47997315D01*
X82547206Y-47944511D01*
X82536000Y-47893000D01*
X82536000Y-47827000D01*
X82499819Y-47790819D01*
X82466334Y-47729496D01*
X82463500Y-47703138D01*
X82463500Y-47637000D01*
X82726000Y-47637000D01*
X82896000Y-47637000D01*
X82896000Y-46430137D01*
X83276000Y-46430137D01*
X83276000Y-47637000D01*
X83446000Y-47637000D01*
X83446000Y-46392000D01*
X83398167Y-46392000D01*
X83387452Y-46393152D01*
X83276000Y-46430137D01*
X82896000Y-46430137D01*
X82896000Y-46392000D01*
X82848167Y-46392000D01*
X82824253Y-46394571D01*
X82797747Y-46394571D01*
X82773832Y-46392000D01*
X82726000Y-46392000D01*
X82726000Y-47637000D01*
X82463500Y-47637000D01*
X82463500Y-44298635D01*
X82483185Y-44231596D01*
X82499815Y-44210958D01*
X82530552Y-44180221D01*
X82591874Y-44146737D01*
X82661566Y-44151721D01*
G37*
%TD.AperFunction*%
%TA.AperFunction,Conductor*%
G36*
X90256834Y-64791654D02*
G01*
X90312767Y-64833526D01*
X90337184Y-64898990D01*
X90337500Y-64907836D01*
X90337500Y-67339419D01*
X90371881Y-67467730D01*
X90392232Y-67502978D01*
X90398658Y-67514108D01*
X90439648Y-67585107D01*
X90456119Y-67653008D01*
X90433267Y-67719034D01*
X90378345Y-67762224D01*
X90370578Y-67765037D01*
X90164782Y-67831904D01*
X89972795Y-67929727D01*
X89904126Y-67942623D01*
X89839385Y-67916347D01*
X89799128Y-67859240D01*
X89792500Y-67819242D01*
X89792500Y-65204836D01*
X89812185Y-65137797D01*
X89828819Y-65117155D01*
X90125819Y-64820155D01*
X90187142Y-64786670D01*
X90256834Y-64791654D01*
G37*
%TD.AperFunction*%
%TA.AperFunction,Conductor*%
G36*
X94111834Y-55817968D02*
G01*
X94167767Y-55859840D01*
X94192184Y-55925304D01*
X94192500Y-55934150D01*
X94192500Y-56831850D01*
X94172815Y-56898889D01*
X94120011Y-56944644D01*
X94050853Y-56954588D01*
X93987297Y-56925563D01*
X93980819Y-56919531D01*
X93895207Y-56833919D01*
X93895203Y-56833916D01*
X93722490Y-56718512D01*
X93722488Y-56718511D01*
X93530590Y-56639025D01*
X93530578Y-56639022D01*
X93326862Y-56598500D01*
X93326859Y-56598500D01*
X93119141Y-56598500D01*
X93119138Y-56598500D01*
X92915421Y-56639022D01*
X92915409Y-56639025D01*
X92723511Y-56718511D01*
X92723509Y-56718512D01*
X92550796Y-56833916D01*
X92550792Y-56833919D01*
X92403919Y-56980792D01*
X92403916Y-56980796D01*
X92288512Y-57153509D01*
X92288511Y-57153511D01*
X92209025Y-57345409D01*
X92209022Y-57345421D01*
X92168500Y-57549136D01*
X92168500Y-57756863D01*
X92209022Y-57960578D01*
X92209025Y-57960590D01*
X92288511Y-58152488D01*
X92288512Y-58152490D01*
X92403916Y-58325203D01*
X92403919Y-58325207D01*
X92550792Y-58472080D01*
X92550796Y-58472083D01*
X92723507Y-58587486D01*
X92723508Y-58587486D01*
X92723509Y-58587487D01*
X92723511Y-58587488D01*
X92802418Y-58620172D01*
X92915414Y-58666976D01*
X93119136Y-58707499D01*
X93119139Y-58707500D01*
X93119141Y-58707500D01*
X93326861Y-58707500D01*
X93326862Y-58707499D01*
X93530586Y-58666976D01*
X93722493Y-58587486D01*
X93895204Y-58472083D01*
X93935071Y-58432216D01*
X93980819Y-58386469D01*
X94042142Y-58352984D01*
X94111834Y-58357968D01*
X94167767Y-58399840D01*
X94192184Y-58465304D01*
X94192500Y-58474150D01*
X94192500Y-59371850D01*
X94172815Y-59438889D01*
X94120011Y-59484644D01*
X94050853Y-59494588D01*
X93987297Y-59465563D01*
X93980819Y-59459531D01*
X93895207Y-59373919D01*
X93895203Y-59373916D01*
X93722490Y-59258512D01*
X93722488Y-59258511D01*
X93530590Y-59179025D01*
X93530578Y-59179022D01*
X93326862Y-59138500D01*
X93326859Y-59138500D01*
X93119141Y-59138500D01*
X93119138Y-59138500D01*
X92915421Y-59179022D01*
X92915409Y-59179025D01*
X92723511Y-59258511D01*
X92723509Y-59258512D01*
X92550796Y-59373916D01*
X92550792Y-59373919D01*
X92403919Y-59520792D01*
X92403916Y-59520796D01*
X92288512Y-59693509D01*
X92288511Y-59693511D01*
X92209025Y-59885409D01*
X92209022Y-59885421D01*
X92168500Y-60089136D01*
X92168500Y-60296863D01*
X92209022Y-60500578D01*
X92209025Y-60500590D01*
X92288511Y-60692488D01*
X92288512Y-60692490D01*
X92403916Y-60865203D01*
X92403919Y-60865207D01*
X92550792Y-61012080D01*
X92550796Y-61012083D01*
X92723507Y-61127486D01*
X92723508Y-61127486D01*
X92723509Y-61127487D01*
X92723511Y-61127488D01*
X92888039Y-61195637D01*
X92915414Y-61206976D01*
X93119136Y-61247499D01*
X93119139Y-61247500D01*
X93119141Y-61247500D01*
X93326861Y-61247500D01*
X93326862Y-61247499D01*
X93530586Y-61206976D01*
X93722493Y-61127486D01*
X93895204Y-61012083D01*
X93901983Y-61005304D01*
X93980819Y-60926469D01*
X94042142Y-60892984D01*
X94111834Y-60897968D01*
X94167767Y-60939840D01*
X94192184Y-61005304D01*
X94192500Y-61014150D01*
X94192500Y-61911850D01*
X94172815Y-61978889D01*
X94120011Y-62024644D01*
X94050853Y-62034588D01*
X93987297Y-62005563D01*
X93980819Y-61999531D01*
X93895207Y-61913919D01*
X93895203Y-61913916D01*
X93722490Y-61798512D01*
X93722488Y-61798511D01*
X93530590Y-61719025D01*
X93530578Y-61719022D01*
X93326862Y-61678500D01*
X93326859Y-61678500D01*
X93119141Y-61678500D01*
X93119138Y-61678500D01*
X92915421Y-61719022D01*
X92915409Y-61719025D01*
X92723511Y-61798511D01*
X92723509Y-61798512D01*
X92550796Y-61913916D01*
X92550792Y-61913919D01*
X92403919Y-62060792D01*
X92403916Y-62060796D01*
X92288512Y-62233509D01*
X92288511Y-62233511D01*
X92209025Y-62425409D01*
X92209022Y-62425421D01*
X92168500Y-62629136D01*
X92168500Y-62836863D01*
X92209022Y-63040578D01*
X92209025Y-63040590D01*
X92288511Y-63232488D01*
X92288512Y-63232490D01*
X92403916Y-63405203D01*
X92403919Y-63405207D01*
X92550792Y-63552080D01*
X92550796Y-63552083D01*
X92723507Y-63667486D01*
X92723508Y-63667486D01*
X92723509Y-63667487D01*
X92723511Y-63667488D01*
X92779425Y-63690648D01*
X92915414Y-63746976D01*
X93119136Y-63787499D01*
X93119139Y-63787500D01*
X93119141Y-63787500D01*
X93326861Y-63787500D01*
X93326862Y-63787499D01*
X93530586Y-63746976D01*
X93722493Y-63667486D01*
X93895204Y-63552083D01*
X93936471Y-63510816D01*
X93980819Y-63466469D01*
X94042142Y-63432984D01*
X94111834Y-63437968D01*
X94167767Y-63479840D01*
X94192184Y-63545304D01*
X94192500Y-63554150D01*
X94192500Y-64451850D01*
X94172815Y-64518889D01*
X94120011Y-64564644D01*
X94050853Y-64574588D01*
X93987297Y-64545563D01*
X93980819Y-64539531D01*
X93895207Y-64453919D01*
X93895203Y-64453916D01*
X93722490Y-64338512D01*
X93722488Y-64338511D01*
X93530590Y-64259025D01*
X93530578Y-64259022D01*
X93326862Y-64218500D01*
X93326859Y-64218500D01*
X93119141Y-64218500D01*
X93119138Y-64218500D01*
X92915421Y-64259022D01*
X92915409Y-64259025D01*
X92723511Y-64338511D01*
X92723509Y-64338512D01*
X92550796Y-64453916D01*
X92550792Y-64453919D01*
X92403919Y-64600792D01*
X92403916Y-64600796D01*
X92288512Y-64773509D01*
X92288511Y-64773511D01*
X92209025Y-64965409D01*
X92209022Y-64965421D01*
X92168500Y-65169136D01*
X92168500Y-65376863D01*
X92209022Y-65580578D01*
X92209025Y-65580590D01*
X92288511Y-65772488D01*
X92288512Y-65772490D01*
X92403916Y-65945203D01*
X92403919Y-65945207D01*
X92550792Y-66092080D01*
X92550796Y-66092083D01*
X92723507Y-66207486D01*
X92723508Y-66207486D01*
X92723509Y-66207487D01*
X92723511Y-66207488D01*
X92779425Y-66230648D01*
X92915414Y-66286976D01*
X93119136Y-66327499D01*
X93119139Y-66327500D01*
X93119141Y-66327500D01*
X93326861Y-66327500D01*
X93326862Y-66327499D01*
X93530586Y-66286976D01*
X93722493Y-66207486D01*
X93895204Y-66092083D01*
X93901983Y-66085304D01*
X93980819Y-66006469D01*
X94042142Y-65972984D01*
X94111834Y-65977968D01*
X94167767Y-66019840D01*
X94192184Y-66085304D01*
X94192500Y-66094150D01*
X94192500Y-66991850D01*
X94172815Y-67058889D01*
X94120011Y-67104644D01*
X94050853Y-67114588D01*
X93987297Y-67085563D01*
X93980819Y-67079531D01*
X93895207Y-66993919D01*
X93895203Y-66993916D01*
X93722490Y-66878512D01*
X93722488Y-66878511D01*
X93530590Y-66799025D01*
X93530578Y-66799022D01*
X93326862Y-66758500D01*
X93326859Y-66758500D01*
X93119141Y-66758500D01*
X93119138Y-66758500D01*
X92915421Y-66799022D01*
X92915409Y-66799025D01*
X92723511Y-66878511D01*
X92723509Y-66878512D01*
X92550796Y-66993916D01*
X92550792Y-66993919D01*
X92403919Y-67140792D01*
X92403916Y-67140796D01*
X92288512Y-67313509D01*
X92288511Y-67313511D01*
X92209025Y-67505409D01*
X92209022Y-67505419D01*
X92184410Y-67629152D01*
X92152025Y-67691063D01*
X92091309Y-67725637D01*
X92021539Y-67721897D01*
X91975112Y-67692641D01*
X91382819Y-67100348D01*
X91349334Y-67039025D01*
X91346500Y-67012667D01*
X91346500Y-58748485D01*
X91346500Y-58748483D01*
X91312119Y-58620172D01*
X91268433Y-58544506D01*
X91255094Y-58521402D01*
X91245703Y-58505135D01*
X91245699Y-58505130D01*
X90728598Y-57988029D01*
X90695113Y-57926706D01*
X90700097Y-57857014D01*
X90728598Y-57812667D01*
X91467385Y-57073880D01*
X92376701Y-56164564D01*
X92443119Y-56049524D01*
X92443120Y-56049518D01*
X92446231Y-56042012D01*
X92449181Y-56043234D01*
X92477727Y-55996390D01*
X92540570Y-55965853D01*
X92609947Y-55974140D01*
X92630038Y-55985031D01*
X92723507Y-56047486D01*
X92723510Y-56047487D01*
X92723511Y-56047488D01*
X92915409Y-56126974D01*
X92915414Y-56126976D01*
X93104361Y-56164560D01*
X93119136Y-56167499D01*
X93119139Y-56167500D01*
X93119141Y-56167500D01*
X93326861Y-56167500D01*
X93326862Y-56167499D01*
X93530586Y-56126976D01*
X93722493Y-56047486D01*
X93895204Y-55932083D01*
X93919219Y-55908068D01*
X93980819Y-55846469D01*
X94042142Y-55812984D01*
X94111834Y-55817968D01*
G37*
%TD.AperFunction*%
%TA.AperFunction,Conductor*%
G36*
X88678903Y-58407713D02*
G01*
X88688993Y-58406447D01*
X88711862Y-58417390D01*
X88736185Y-58424533D01*
X88742843Y-58432216D01*
X88752017Y-58436607D01*
X88765340Y-58458179D01*
X88781940Y-58477337D01*
X88783387Y-58487401D01*
X88788731Y-58496054D01*
X88788275Y-58521402D01*
X88791884Y-58546495D01*
X88787626Y-58557605D01*
X88787477Y-58565912D01*
X88775930Y-58590041D01*
X88776478Y-58590334D01*
X88773606Y-58595705D01*
X88724272Y-58714810D01*
X88724269Y-58714819D01*
X88699120Y-58841255D01*
X88699120Y-58970190D01*
X88724269Y-59096626D01*
X88724272Y-59096635D01*
X88766561Y-59198729D01*
X88776000Y-59246181D01*
X88776000Y-60177000D01*
X89562000Y-60177000D01*
X89570685Y-60179550D01*
X89579647Y-60178262D01*
X89603687Y-60189240D01*
X89629039Y-60196685D01*
X89634966Y-60203525D01*
X89643203Y-60207287D01*
X89657492Y-60229521D01*
X89674794Y-60249489D01*
X89677081Y-60260003D01*
X89680977Y-60266065D01*
X89686000Y-60301000D01*
X89686000Y-60433000D01*
X89666315Y-60500039D01*
X89613511Y-60545794D01*
X89562000Y-60557000D01*
X87610000Y-60557000D01*
X87542961Y-60537315D01*
X87497206Y-60484511D01*
X87486000Y-60433000D01*
X87486000Y-60301000D01*
X87505685Y-60233961D01*
X87558489Y-60188206D01*
X87610000Y-60177000D01*
X87846000Y-60177000D01*
X87846000Y-58970137D01*
X88226000Y-58970137D01*
X88226000Y-60177000D01*
X88396000Y-60177000D01*
X88396000Y-58932000D01*
X88348167Y-58932000D01*
X88337452Y-58933152D01*
X88226000Y-58970137D01*
X87846000Y-58970137D01*
X87846000Y-58939589D01*
X87802484Y-58904168D01*
X87786474Y-58880866D01*
X87767970Y-58859511D01*
X87766955Y-58852456D01*
X87762918Y-58846580D01*
X87762048Y-58818326D01*
X87758026Y-58790353D01*
X87759146Y-58783810D01*
X87767500Y-58741809D01*
X87767500Y-58612884D01*
X87767499Y-58612883D01*
X87755596Y-58553039D01*
X87761823Y-58483448D01*
X87804686Y-58428271D01*
X87870575Y-58405026D01*
X87877213Y-58404848D01*
X88669146Y-58404848D01*
X88678903Y-58407713D01*
G37*
%TD.AperFunction*%
%TA.AperFunction,Conductor*%
G36*
X92468889Y-38923185D02*
G01*
X92514644Y-38975989D01*
X92524588Y-39045147D01*
X92495563Y-39108703D01*
X92489531Y-39115181D01*
X92403919Y-39200792D01*
X92403916Y-39200796D01*
X92288512Y-39373509D01*
X92288511Y-39373511D01*
X92209025Y-39565409D01*
X92209022Y-39565421D01*
X92168500Y-39769136D01*
X92168500Y-39976863D01*
X92209022Y-40180578D01*
X92209025Y-40180590D01*
X92288511Y-40372488D01*
X92288512Y-40372490D01*
X92403916Y-40545203D01*
X92403919Y-40545207D01*
X92550792Y-40692080D01*
X92550796Y-40692083D01*
X92723507Y-40807486D01*
X92723508Y-40807486D01*
X92723509Y-40807487D01*
X92723511Y-40807488D01*
X92841688Y-40856438D01*
X92915414Y-40886976D01*
X93119136Y-40927499D01*
X93119139Y-40927500D01*
X93119141Y-40927500D01*
X93326861Y-40927500D01*
X93326862Y-40927499D01*
X93530586Y-40886976D01*
X93722493Y-40807486D01*
X93895204Y-40692083D01*
X93934549Y-40652738D01*
X93980819Y-40606469D01*
X94042142Y-40572984D01*
X94111834Y-40577968D01*
X94167767Y-40619840D01*
X94192184Y-40685304D01*
X94192500Y-40694150D01*
X94192500Y-41591850D01*
X94172815Y-41658889D01*
X94120011Y-41704644D01*
X94050853Y-41714588D01*
X93987297Y-41685563D01*
X93980819Y-41679531D01*
X93895207Y-41593919D01*
X93895203Y-41593916D01*
X93722490Y-41478512D01*
X93722488Y-41478511D01*
X93530590Y-41399025D01*
X93530578Y-41399022D01*
X93326862Y-41358500D01*
X93326859Y-41358500D01*
X93119141Y-41358500D01*
X93119138Y-41358500D01*
X92915421Y-41399022D01*
X92915409Y-41399025D01*
X92723511Y-41478511D01*
X92723509Y-41478512D01*
X92550796Y-41593916D01*
X92550792Y-41593919D01*
X92403919Y-41740792D01*
X92403916Y-41740796D01*
X92288512Y-41913509D01*
X92288511Y-41913511D01*
X92209025Y-42105409D01*
X92209022Y-42105421D01*
X92168500Y-42309136D01*
X92168500Y-42516863D01*
X92209022Y-42720578D01*
X92209025Y-42720590D01*
X92288511Y-42912488D01*
X92288512Y-42912490D01*
X92403916Y-43085203D01*
X92403919Y-43085207D01*
X92550792Y-43232080D01*
X92550796Y-43232083D01*
X92723507Y-43347486D01*
X92723508Y-43347486D01*
X92723509Y-43347487D01*
X92723511Y-43347488D01*
X92915409Y-43426974D01*
X92915414Y-43426976D01*
X93119136Y-43467499D01*
X93119139Y-43467500D01*
X93119141Y-43467500D01*
X93326861Y-43467500D01*
X93326862Y-43467499D01*
X93530586Y-43426976D01*
X93722493Y-43347486D01*
X93895204Y-43232083D01*
X93906058Y-43221229D01*
X93980819Y-43146469D01*
X94042142Y-43112984D01*
X94111834Y-43117968D01*
X94167767Y-43159840D01*
X94192184Y-43225304D01*
X94192500Y-43234150D01*
X94192500Y-44131850D01*
X94172815Y-44198889D01*
X94120011Y-44244644D01*
X94050853Y-44254588D01*
X93987297Y-44225563D01*
X93980819Y-44219531D01*
X93895207Y-44133919D01*
X93895203Y-44133916D01*
X93722490Y-44018512D01*
X93722488Y-44018511D01*
X93530590Y-43939025D01*
X93530578Y-43939022D01*
X93326862Y-43898500D01*
X93326859Y-43898500D01*
X93119141Y-43898500D01*
X93119138Y-43898500D01*
X92915421Y-43939022D01*
X92915409Y-43939025D01*
X92723511Y-44018511D01*
X92723509Y-44018512D01*
X92550796Y-44133916D01*
X92550791Y-44133920D01*
X92516819Y-44167892D01*
X92455496Y-44201377D01*
X92385804Y-44196391D01*
X92341458Y-44167891D01*
X91461215Y-43287648D01*
X91461214Y-43287647D01*
X91382988Y-43242484D01*
X91346174Y-43221229D01*
X91217863Y-43186848D01*
X91217860Y-43186848D01*
X90992945Y-43186848D01*
X90925906Y-43167163D01*
X90880151Y-43114359D01*
X90870207Y-43045201D01*
X90871328Y-43038656D01*
X90883232Y-42978811D01*
X90883232Y-42849885D01*
X90867671Y-42771654D01*
X90858082Y-42723444D01*
X90858079Y-42723435D01*
X90808745Y-42604330D01*
X90808744Y-42604328D01*
X90808743Y-42604326D01*
X90752221Y-42519735D01*
X90731344Y-42453058D01*
X90749829Y-42385678D01*
X90752198Y-42381991D01*
X90808743Y-42297367D01*
X90858080Y-42178256D01*
X90883232Y-42051808D01*
X90883232Y-41922882D01*
X90858711Y-41799605D01*
X90858082Y-41796441D01*
X90858079Y-41796432D01*
X90808745Y-41677327D01*
X90808744Y-41677325D01*
X90796425Y-41658889D01*
X90747881Y-41586238D01*
X90727004Y-41519562D01*
X90745488Y-41452181D01*
X90747882Y-41448457D01*
X90759086Y-41431689D01*
X90808743Y-41357373D01*
X90858080Y-41238262D01*
X90858983Y-41233726D01*
X90883231Y-41111818D01*
X90883232Y-41111815D01*
X90883232Y-40982887D01*
X90883231Y-40982883D01*
X90858082Y-40856447D01*
X90858079Y-40856438D01*
X90808745Y-40737333D01*
X90808744Y-40737331D01*
X90808743Y-40737329D01*
X90752221Y-40652738D01*
X90731344Y-40586061D01*
X90749829Y-40518681D01*
X90752198Y-40514994D01*
X90808743Y-40430370D01*
X90858080Y-40311259D01*
X90862715Y-40287961D01*
X90883231Y-40184815D01*
X90883232Y-40184812D01*
X90883232Y-40055884D01*
X90883231Y-40055880D01*
X90858082Y-39929444D01*
X90858079Y-39929435D01*
X90808745Y-39810330D01*
X90808744Y-39810328D01*
X90766429Y-39747000D01*
X90737115Y-39703128D01*
X90737112Y-39703124D01*
X90645955Y-39611967D01*
X90645951Y-39611964D01*
X90538751Y-39540335D01*
X90538749Y-39540334D01*
X90419644Y-39491000D01*
X90419635Y-39490997D01*
X90293199Y-39465848D01*
X90293195Y-39465848D01*
X90164269Y-39465848D01*
X90164264Y-39465848D01*
X90037828Y-39490997D01*
X90037819Y-39491000D01*
X89918714Y-39540334D01*
X89918712Y-39540335D01*
X89811512Y-39611964D01*
X89811508Y-39611967D01*
X89720351Y-39703124D01*
X89720348Y-39703128D01*
X89648719Y-39810328D01*
X89648718Y-39810330D01*
X89599384Y-39929435D01*
X89599381Y-39929444D01*
X89574232Y-40055880D01*
X89574232Y-40186791D01*
X89554547Y-40253830D01*
X89537913Y-40274472D01*
X88444857Y-41367529D01*
X88383534Y-41401014D01*
X88357176Y-41403848D01*
X87358760Y-41403848D01*
X87358743Y-41403847D01*
X87251228Y-41403847D01*
X87251225Y-41403848D01*
X87154705Y-41429710D01*
X87154702Y-41429711D01*
X87068171Y-41479669D01*
X87068166Y-41479673D01*
X86997509Y-41550331D01*
X85567715Y-42980127D01*
X85497057Y-43050784D01*
X85497053Y-43050789D01*
X85448577Y-43134753D01*
X85448576Y-43134754D01*
X85447094Y-43137323D01*
X85447094Y-43137324D01*
X85421231Y-43233843D01*
X85421231Y-43333767D01*
X85421232Y-43333770D01*
X85421232Y-43351555D01*
X85421232Y-43416685D01*
X85401547Y-43483724D01*
X85348743Y-43529479D01*
X85279585Y-43539423D01*
X85273041Y-43538302D01*
X85160639Y-43515944D01*
X85160635Y-43515944D01*
X85031709Y-43515944D01*
X85031704Y-43515944D01*
X84904422Y-43541262D01*
X84834830Y-43535035D01*
X84779653Y-43492171D01*
X84756409Y-43426282D01*
X84756231Y-43419645D01*
X84756231Y-42897284D01*
X84756231Y-42897282D01*
X84741466Y-42823047D01*
X84741464Y-42823044D01*
X84741172Y-42821574D01*
X84741173Y-42773193D01*
X84751637Y-42720586D01*
X84761232Y-42672348D01*
X84761232Y-42056522D01*
X84760611Y-42051809D01*
X84760249Y-42049059D01*
X84752389Y-41989357D01*
X84718314Y-41862190D01*
X84692391Y-41799605D01*
X84658435Y-41740792D01*
X84626564Y-41685589D01*
X84585331Y-41631854D01*
X84585323Y-41631845D01*
X84492234Y-41538756D01*
X84492225Y-41538748D01*
X84438490Y-41497515D01*
X84324481Y-41431692D01*
X84324477Y-41431690D01*
X84324475Y-41431689D01*
X84318363Y-41429157D01*
X84261894Y-41405767D01*
X84235013Y-41398564D01*
X84134723Y-41371691D01*
X84067558Y-41362848D01*
X83435906Y-41362848D01*
X83398910Y-41367719D01*
X83368749Y-41371690D01*
X83368741Y-41371691D01*
X83241569Y-41405767D01*
X83178993Y-41431687D01*
X83178982Y-41431692D01*
X83064973Y-41497515D01*
X83011238Y-41538748D01*
X83011229Y-41538756D01*
X82918140Y-41631845D01*
X82918132Y-41631854D01*
X82876899Y-41685589D01*
X82811076Y-41799598D01*
X82811071Y-41799609D01*
X82785151Y-41862185D01*
X82751075Y-41989357D01*
X82751074Y-41989365D01*
X82742232Y-42056521D01*
X82742232Y-42089791D01*
X82722547Y-42156830D01*
X82705913Y-42177472D01*
X81403325Y-43480059D01*
X81403321Y-43480064D01*
X81354845Y-43564028D01*
X81354844Y-43564029D01*
X81353362Y-43566598D01*
X81353362Y-43566599D01*
X81327499Y-43663118D01*
X81327499Y-43763042D01*
X81327500Y-43763045D01*
X81327500Y-43780830D01*
X81327500Y-47534500D01*
X81307815Y-47601539D01*
X81255011Y-47647294D01*
X81203500Y-47658500D01*
X79647936Y-47658500D01*
X79573698Y-47673266D01*
X79489515Y-47729515D01*
X79433266Y-47813699D01*
X79433264Y-47813703D01*
X79418500Y-47887928D01*
X79418500Y-49638063D01*
X79433266Y-49712301D01*
X79489515Y-49796484D01*
X79523234Y-49819014D01*
X79573699Y-49852734D01*
X79573702Y-49852734D01*
X79573703Y-49852735D01*
X79598666Y-49857700D01*
X79647933Y-49867500D01*
X81203500Y-49867499D01*
X81212185Y-49870049D01*
X81221147Y-49868761D01*
X81245187Y-49879739D01*
X81270539Y-49887184D01*
X81276466Y-49894024D01*
X81284703Y-49897786D01*
X81298990Y-49920018D01*
X81316294Y-49939987D01*
X81318581Y-49950502D01*
X81322477Y-49956564D01*
X81327500Y-49991499D01*
X81327500Y-50107602D01*
X81307815Y-50174641D01*
X81291181Y-50195283D01*
X79193829Y-52292634D01*
X79132506Y-52326119D01*
X79062814Y-52321135D01*
X79006881Y-52279263D01*
X78991588Y-52252408D01*
X78941035Y-52130359D01*
X78917488Y-52073511D01*
X78917487Y-52073509D01*
X78802083Y-51900796D01*
X78802080Y-51900792D01*
X78655207Y-51753919D01*
X78655203Y-51753916D01*
X78482490Y-51638512D01*
X78482488Y-51638511D01*
X78290590Y-51559025D01*
X78290578Y-51559022D01*
X78086862Y-51518500D01*
X78086859Y-51518500D01*
X77879141Y-51518500D01*
X77879138Y-51518500D01*
X77675421Y-51559022D01*
X77675409Y-51559025D01*
X77483511Y-51638511D01*
X77483509Y-51638512D01*
X77310796Y-51753916D01*
X77310792Y-51753919D01*
X77225181Y-51839531D01*
X77163858Y-51873016D01*
X77094166Y-51868032D01*
X77038233Y-51826160D01*
X77013816Y-51760696D01*
X77013500Y-51751850D01*
X77013500Y-50854150D01*
X77033185Y-50787111D01*
X77085989Y-50741356D01*
X77155147Y-50731412D01*
X77218703Y-50760437D01*
X77225181Y-50766469D01*
X77310792Y-50852080D01*
X77310796Y-50852083D01*
X77483507Y-50967486D01*
X77483508Y-50967486D01*
X77483509Y-50967487D01*
X77483511Y-50967488D01*
X77646733Y-51035096D01*
X77675414Y-51046976D01*
X77879136Y-51087499D01*
X77879139Y-51087500D01*
X77879141Y-51087500D01*
X78086861Y-51087500D01*
X78086862Y-51087499D01*
X78290586Y-51046976D01*
X78482493Y-50967486D01*
X78655204Y-50852083D01*
X78802083Y-50705204D01*
X78917486Y-50532493D01*
X78996976Y-50340586D01*
X79037500Y-50136859D01*
X79037500Y-49929141D01*
X79037500Y-49929138D01*
X79037499Y-49929136D01*
X79025511Y-49868869D01*
X78996976Y-49725414D01*
X78996974Y-49725409D01*
X78917488Y-49533511D01*
X78917487Y-49533509D01*
X78893917Y-49498235D01*
X78802083Y-49360796D01*
X78802080Y-49360792D01*
X78655207Y-49213919D01*
X78655203Y-49213916D01*
X78482490Y-49098512D01*
X78482488Y-49098511D01*
X78290590Y-49019025D01*
X78290578Y-49019022D01*
X78086862Y-48978500D01*
X78086859Y-48978500D01*
X77879141Y-48978500D01*
X77879138Y-48978500D01*
X77675421Y-49019022D01*
X77675409Y-49019025D01*
X77483511Y-49098511D01*
X77483509Y-49098512D01*
X77310796Y-49213916D01*
X77310792Y-49213919D01*
X77225181Y-49299531D01*
X77163858Y-49333016D01*
X77094166Y-49328032D01*
X77038233Y-49286160D01*
X77013816Y-49220696D01*
X77013500Y-49211850D01*
X77013500Y-48314150D01*
X77033185Y-48247111D01*
X77085989Y-48201356D01*
X77155147Y-48191412D01*
X77218703Y-48220437D01*
X77225181Y-48226469D01*
X77310792Y-48312080D01*
X77310796Y-48312083D01*
X77483507Y-48427486D01*
X77483508Y-48427486D01*
X77483509Y-48427487D01*
X77483511Y-48427488D01*
X77646733Y-48495096D01*
X77675414Y-48506976D01*
X77879136Y-48547499D01*
X77879139Y-48547500D01*
X77879141Y-48547500D01*
X78086861Y-48547500D01*
X78086862Y-48547499D01*
X78290586Y-48506976D01*
X78482493Y-48427486D01*
X78655204Y-48312083D01*
X78802083Y-48165204D01*
X78917486Y-47992493D01*
X78996976Y-47800586D01*
X79037500Y-47596859D01*
X79037500Y-47389141D01*
X79037500Y-47389138D01*
X79037499Y-47389136D01*
X78996977Y-47185421D01*
X78996976Y-47185414D01*
X78917486Y-46993507D01*
X78802083Y-46820796D01*
X78802080Y-46820792D01*
X78655207Y-46673919D01*
X78655203Y-46673916D01*
X78482490Y-46558512D01*
X78482488Y-46558511D01*
X78290590Y-46479025D01*
X78290578Y-46479022D01*
X78086862Y-46438500D01*
X78086859Y-46438500D01*
X77879141Y-46438500D01*
X77879138Y-46438500D01*
X77675421Y-46479022D01*
X77675409Y-46479025D01*
X77483511Y-46558511D01*
X77483509Y-46558512D01*
X77310796Y-46673916D01*
X77310792Y-46673919D01*
X77225181Y-46759531D01*
X77163858Y-46793016D01*
X77094166Y-46788032D01*
X77038233Y-46746160D01*
X77013816Y-46680696D01*
X77013500Y-46671850D01*
X77013500Y-45774150D01*
X77033185Y-45707111D01*
X77085989Y-45661356D01*
X77155147Y-45651412D01*
X77218703Y-45680437D01*
X77225181Y-45686469D01*
X77310792Y-45772080D01*
X77310796Y-45772083D01*
X77483507Y-45887486D01*
X77483508Y-45887486D01*
X77483509Y-45887487D01*
X77483511Y-45887488D01*
X77646733Y-45955096D01*
X77675414Y-45966976D01*
X77879136Y-46007499D01*
X77879139Y-46007500D01*
X77879141Y-46007500D01*
X78086861Y-46007500D01*
X78086862Y-46007499D01*
X78290586Y-45966976D01*
X78482493Y-45887486D01*
X78655204Y-45772083D01*
X78802083Y-45625204D01*
X78917486Y-45452493D01*
X78996976Y-45260586D01*
X79037500Y-45056859D01*
X79037500Y-44849141D01*
X79037500Y-44849138D01*
X79037499Y-44849136D01*
X78996977Y-44645421D01*
X78996976Y-44645414D01*
X78917486Y-44453507D01*
X78802083Y-44280796D01*
X78802080Y-44280792D01*
X78655207Y-44133919D01*
X78655203Y-44133916D01*
X78482490Y-44018512D01*
X78482488Y-44018511D01*
X78290590Y-43939025D01*
X78290578Y-43939022D01*
X78086862Y-43898500D01*
X78086859Y-43898500D01*
X77879141Y-43898500D01*
X77879138Y-43898500D01*
X77675421Y-43939022D01*
X77675409Y-43939025D01*
X77483511Y-44018511D01*
X77483509Y-44018512D01*
X77310796Y-44133916D01*
X77310792Y-44133919D01*
X77225181Y-44219531D01*
X77163858Y-44253016D01*
X77094166Y-44248032D01*
X77038233Y-44206160D01*
X77013816Y-44140696D01*
X77013500Y-44131850D01*
X77013500Y-43234150D01*
X77033185Y-43167111D01*
X77085989Y-43121356D01*
X77155147Y-43111412D01*
X77218703Y-43140437D01*
X77225181Y-43146469D01*
X77310792Y-43232080D01*
X77310796Y-43232083D01*
X77483507Y-43347486D01*
X77483508Y-43347486D01*
X77483509Y-43347487D01*
X77483511Y-43347488D01*
X77675409Y-43426974D01*
X77675414Y-43426976D01*
X77879136Y-43467499D01*
X77879139Y-43467500D01*
X77879141Y-43467500D01*
X78086861Y-43467500D01*
X78086862Y-43467499D01*
X78290586Y-43426976D01*
X78482493Y-43347486D01*
X78655204Y-43232083D01*
X78802083Y-43085204D01*
X78917486Y-42912493D01*
X78996976Y-42720586D01*
X79037500Y-42516859D01*
X79037500Y-42309141D01*
X79037500Y-42309138D01*
X79037499Y-42309136D01*
X79011465Y-42178256D01*
X78996976Y-42105414D01*
X78990505Y-42089791D01*
X78917488Y-41913511D01*
X78917487Y-41913509D01*
X78883196Y-41862190D01*
X78802083Y-41740796D01*
X78802080Y-41740792D01*
X78655207Y-41593919D01*
X78655203Y-41593916D01*
X78482490Y-41478512D01*
X78482488Y-41478511D01*
X78320851Y-41411560D01*
X78266447Y-41367719D01*
X78244382Y-41301425D01*
X78261661Y-41233726D01*
X78312798Y-41186115D01*
X78368303Y-41172999D01*
X78582971Y-41172999D01*
X78582987Y-41172998D01*
X78685697Y-41162505D01*
X78852119Y-41107358D01*
X78852124Y-41107356D01*
X79001345Y-41015315D01*
X79125315Y-40891345D01*
X79217356Y-40742124D01*
X79217358Y-40742119D01*
X79272505Y-40575697D01*
X79272506Y-40575690D01*
X79282999Y-40472986D01*
X79283000Y-40472973D01*
X79283000Y-40123000D01*
X78298686Y-40123000D01*
X78303080Y-40118606D01*
X78355741Y-40027394D01*
X78383000Y-39925661D01*
X78383000Y-39820339D01*
X78355741Y-39718606D01*
X78303080Y-39627394D01*
X78298686Y-39623000D01*
X79282999Y-39623000D01*
X79282999Y-39273028D01*
X79282998Y-39273013D01*
X79272505Y-39170302D01*
X79238110Y-39066504D01*
X79235708Y-38996676D01*
X79271440Y-38936634D01*
X79333960Y-38905441D01*
X79355816Y-38903500D01*
X92401850Y-38903500D01*
X92468889Y-38923185D01*
G37*
%TD.AperFunction*%
%TA.AperFunction,Conductor*%
G36*
X86471566Y-45422642D02*
G01*
X86527499Y-45464514D01*
X86551916Y-45529978D01*
X86552232Y-45538824D01*
X86552232Y-45994070D01*
X86532547Y-46061109D01*
X86515913Y-46081752D01*
X86234815Y-46362848D01*
X86173492Y-46396332D01*
X86133879Y-46398456D01*
X86073828Y-46392000D01*
X86026000Y-46392000D01*
X86026000Y-46609293D01*
X86021965Y-46640668D01*
X86021845Y-46641123D01*
X86006499Y-46698397D01*
X86006499Y-46699804D01*
X86004163Y-46708736D01*
X85996839Y-46720915D01*
X85987301Y-46746250D01*
X85956266Y-46792698D01*
X85951591Y-46803985D01*
X85948772Y-46802817D01*
X85925215Y-46847832D01*
X85864492Y-46882395D01*
X85794724Y-46878642D01*
X85738059Y-46837765D01*
X85728195Y-46822986D01*
X85718292Y-46805564D01*
X85715734Y-46792699D01*
X85683910Y-46745071D01*
X85681696Y-46741176D01*
X85674673Y-46711349D01*
X85665520Y-46682117D01*
X85665500Y-46679903D01*
X85665500Y-46177556D01*
X85685185Y-46110517D01*
X85701819Y-46089875D01*
X86340551Y-45451143D01*
X86401874Y-45417658D01*
X86471566Y-45422642D01*
G37*
%TD.AperFunction*%
%TD*%
M02*
