M48
; DRILL file KiCad 10.0.1 date 2026-07-17T19:56:11
; FORMAT={-:-/ absolute / metric / decimal}
; #@! TF.CreationDate,2026-07-17T19:56:11+01:00
; #@! TF.GenerationSoftware,Kicad,Pcbnew,10.0.1
; #@! TF.FileFunction,Plated,1,2,PTH
FMAT,2
METRIC
; #@! TA.AperFunction,Plated,PTH,ViaDrill
T1C0.400
; #@! TA.AperFunction,Plated,PTH,ComponentDrill
T2C0.800
; #@! TA.AperFunction,Plated,PTH,ComponentDrill
T3C1.000
%
G90
G05
T1
X78.872Y-51.303
X79.104Y-61.134
X80.441Y-64.511
X81.231Y-55.255
X81.272Y-56.218
X81.285Y-57.145
X81.285Y-58.072
X81.285Y-58.999
X81.285Y-59.926
X82.331Y-58.923
X82.532Y-49.434
X82.99Y-52.82
X85.096Y-44.17
X85.515Y-58.662
X85.53Y-52.827
X85.53Y-54.852
X85.938Y-46.274
X86.038Y-49.289
X86.292Y-57.138
X86.659Y-67.036
X86.873Y-68.321
X87.042Y-65.031
X87.076Y-53.871
X87.113Y-58.677
X87.84Y-43.766
X88.07Y-54.852
X88.07Y-58.916
X88.491Y-51.982
X88.491Y-52.909
X88.832Y-57.123
X89.026Y-43.691
X89.354Y-58.906
X89.423Y-52.614
X89.434Y-53.811
X90.065Y-65.266
X90.118Y-55.621
X90.229Y-40.12
X90.229Y-41.047
X90.229Y-41.987
X90.229Y-42.914
X90.53Y-45.245
X90.569Y-50.28
X90.569Y-51.55
X91.196Y-47.892
X92.461Y-58.923
X92.461Y-64.003
T2
X77.983Y-39.873
X77.983Y-42.413
X77.983Y-44.953
X77.983Y-47.493
X77.983Y-50.033
X77.983Y-52.573
X77.983Y-55.113
X77.983Y-57.653
X77.983Y-60.193
X77.983Y-62.733
X77.983Y-65.273
X77.983Y-67.813
X77.983Y-70.353
X77.983Y-72.893
X93.223Y-39.873
X93.223Y-42.413
X93.223Y-44.953
X93.223Y-47.493
X93.223Y-50.033
X93.223Y-52.573
X93.223Y-55.113
X93.223Y-57.653
X93.223Y-60.193
X93.223Y-62.733
X93.223Y-65.273
X93.223Y-67.813
X93.223Y-70.353
X93.223Y-72.893
T3
X80.523Y-48.763
X80.523Y-69.083
X80.523Y-71.623
X83.063Y-69.083
X83.063Y-71.623
X85.603Y-69.083
X85.603Y-71.623
X88.143Y-69.083
X88.143Y-71.623
X90.683Y-69.083
X90.683Y-71.623
M30
