%TF.GenerationSoftware,KiCad,Pcbnew,10.0.1*%
%TF.CreationDate,2026-07-17T19:56:14+01:00*%
%TF.ProjectId,VideoULA,56696465-6f55-44c4-912e-6b696361645f,01*%
%TF.SameCoordinates,Original*%
%TF.FileFunction,Soldermask,Top*%
%TF.FilePolarity,Negative*%
%FSLAX46Y46*%
G04 Gerber Fmt 4.6, Leading zero omitted, Abs format (unit mm)*
G04 Created by KiCad (PCBNEW 10.0.1) date 2026-07-17 19:56:14*
%MOMM*%
%LPD*%
G01*
G04 APERTURE LIST*
G04 Aperture macros list*
%AMRoundRect*
0 Rectangle with rounded corners*
0 $1 Rounding radius*
0 $2 $3 $4 $5 $6 $7 $8 $9 X,Y pos of 4 corners*
0 Add a 4 corners polygon primitive as box body*
4,1,4,$2,$3,$4,$5,$6,$7,$8,$9,$2,$3,0*
0 Add four circle primitives for the rounded corners*
1,1,$1+$1,$2,$3*
1,1,$1+$1,$4,$5*
1,1,$1+$1,$6,$7*
1,1,$1+$1,$8,$9*
0 Add four rect primitives between the rounded corners*
20,1,$1+$1,$2,$3,$4,$5,0*
20,1,$1+$1,$4,$5,$6,$7,0*
20,1,$1+$1,$6,$7,$8,$9,0*
20,1,$1+$1,$8,$9,$2,$3,0*%
G04 Aperture macros list end*
%ADD10RoundRect,0.250000X0.400000X0.350000X-0.400000X0.350000X-0.400000X-0.350000X0.400000X-0.350000X0*%
%ADD11RoundRect,0.225000X-0.225000X-0.250000X0.225000X-0.250000X0.225000X0.250000X-0.225000X0.250000X0*%
%ADD12RoundRect,0.225000X-0.250000X0.225000X-0.250000X-0.225000X0.250000X-0.225000X0.250000X0.225000X0*%
%ADD13RoundRect,0.225000X0.225000X0.250000X-0.225000X0.250000X-0.225000X-0.250000X0.225000X-0.250000X0*%
%ADD14RoundRect,0.225000X0.250000X-0.225000X0.250000X0.225000X-0.250000X0.225000X-0.250000X-0.225000X0*%
%ADD15RoundRect,0.200000X0.275000X-0.200000X0.275000X0.200000X-0.275000X0.200000X-0.275000X-0.200000X0*%
%ADD16R,0.800000X0.500000*%
%ADD17R,0.800000X0.400000*%
%ADD18R,1.700000X1.700000*%
%ADD19C,1.700000*%
%ADD20RoundRect,0.137500X-0.600000X-0.137500X0.600000X-0.137500X0.600000X0.137500X-0.600000X0.137500X0*%
%ADD21RoundRect,0.137500X-0.137500X-0.600000X0.137500X-0.600000X0.137500X0.600000X-0.137500X0.600000X0*%
%ADD22RoundRect,0.250000X-0.550000X-0.550000X0.550000X-0.550000X0.550000X0.550000X-0.550000X0.550000X0*%
%ADD23C,1.600000*%
%ADD24RoundRect,0.150000X0.512500X0.150000X-0.512500X0.150000X-0.512500X-0.150000X0.512500X-0.150000X0*%
G04 APERTURE END LIST*
D10*
%TO.C,X1*%
X82896732Y-42086348D03*
X80796732Y-42086348D03*
X80796732Y-40186348D03*
X82896732Y-40186348D03*
%TD*%
D11*
%TO.C,C3*%
X89392000Y-48894000D03*
X90942000Y-48894000D03*
%TD*%
D12*
%TO.C,C2*%
X91089732Y-62491348D03*
X91089732Y-64041348D03*
%TD*%
D13*
%TO.C,C1*%
X84777800Y-64016348D03*
X83227800Y-64016348D03*
%TD*%
D14*
%TO.C,C8*%
X86164732Y-41784348D03*
X86164732Y-40234348D03*
%TD*%
D12*
%TO.C,C4*%
X83243732Y-45594348D03*
X83243732Y-44044348D03*
%TD*%
D14*
%TO.C,C9*%
X87942732Y-40234348D03*
X87942732Y-41784348D03*
%TD*%
D15*
%TO.C,R1*%
X79959132Y-43994348D03*
X79959132Y-45644348D03*
%TD*%
D16*
%TO.C,RN1*%
X91255732Y-42717348D03*
D17*
X91255732Y-41917348D03*
X91255732Y-41117348D03*
D16*
X91255732Y-40317348D03*
X89455732Y-40317348D03*
D17*
X89455732Y-41117348D03*
X89455732Y-41917348D03*
D16*
X89455732Y-42717348D03*
%TD*%
D18*
%TO.C,J1*%
X80523000Y-71623000D03*
D19*
X80523000Y-69083000D03*
X83063000Y-71623000D03*
X83063000Y-69083000D03*
X85603000Y-71623000D03*
X85603000Y-69083000D03*
X88143000Y-71623000D03*
X88143000Y-69083000D03*
X90683000Y-71623000D03*
X90683000Y-69083000D03*
%TD*%
D20*
%TO.C,U1*%
X79940500Y-52383000D03*
X79940500Y-53183000D03*
X79940500Y-53983000D03*
X79940500Y-54783000D03*
X79940500Y-55583000D03*
X79940500Y-56383000D03*
X79940500Y-57183000D03*
X79940500Y-57983000D03*
X79940500Y-58783000D03*
X79940500Y-59583000D03*
X79940500Y-60383000D03*
D21*
X81603000Y-62045500D03*
X82403000Y-62045500D03*
X83203000Y-62045500D03*
X84003000Y-62045500D03*
X84803000Y-62045500D03*
X85603000Y-62045500D03*
X86403000Y-62045500D03*
X87203000Y-62045500D03*
X88003000Y-62045500D03*
X88803000Y-62045500D03*
X89603000Y-62045500D03*
D20*
X91265500Y-60383000D03*
X91265500Y-59583000D03*
X91265500Y-58783000D03*
X91265500Y-57983000D03*
X91265500Y-57183000D03*
X91265500Y-56383000D03*
X91265500Y-55583000D03*
X91265500Y-54783000D03*
X91265500Y-53983000D03*
X91265500Y-53183000D03*
X91265500Y-52383000D03*
D21*
X89603000Y-50720500D03*
X88803000Y-50720500D03*
X88003000Y-50720500D03*
X87203000Y-50720500D03*
X86403000Y-50720500D03*
X85603000Y-50720500D03*
X84803000Y-50720500D03*
X84003000Y-50720500D03*
X83203000Y-50720500D03*
X82403000Y-50720500D03*
X81603000Y-50720500D03*
%TD*%
D12*
%TO.C,C5*%
X89466732Y-44679348D03*
X89466732Y-46229348D03*
%TD*%
D22*
%TO.C,IC6*%
X77983000Y-39873000D03*
D23*
X77983000Y-42413000D03*
X77983000Y-44953000D03*
X77983000Y-47493000D03*
X77983000Y-50033000D03*
X77983000Y-52573000D03*
X77983000Y-55113000D03*
X77983000Y-57653000D03*
X77983000Y-60193000D03*
X77983000Y-62733000D03*
X77983000Y-65273000D03*
X77983000Y-67813000D03*
X77983000Y-70353000D03*
X77983000Y-72893000D03*
X93223000Y-72893000D03*
X93223000Y-70353000D03*
X93223000Y-67813000D03*
X93223000Y-65273000D03*
X93223000Y-62733000D03*
X93223000Y-60193000D03*
X93223000Y-57653000D03*
X93223000Y-55113000D03*
X93223000Y-52573000D03*
X93223000Y-50033000D03*
X93223000Y-47493000D03*
X93223000Y-44953000D03*
X93223000Y-42413000D03*
X93223000Y-39873000D03*
%TD*%
D24*
%TO.C,U2*%
X87556232Y-46404348D03*
X87556232Y-44504348D03*
X85281232Y-45454348D03*
%TD*%
D12*
%TO.C,C7*%
X81584732Y-45594348D03*
X81584732Y-44044348D03*
%TD*%
D18*
%TO.C,J2*%
X80523000Y-48763000D03*
%TD*%
M02*
